<svg xmlns="http://www.w3.org/2000/svg" xmlns:xlink="http://www.w3.org/1999/xlink" viewBox="0 0 375 245"><defs><style>.cls-1{fill:#fff;}.cls-16,.cls-2,.cls-3{fill:#3c3c41;}.cls-2{opacity:0.05;}.cls-2,.cls-3{isolation:isolate;}.cls-3{opacity:0.18;}.cls-4{fill:#6ebcdb;}.cls-5{fill:#5db4d7;}.cls-6{fill:#e6e6e6;}.cls-7{fill:#86d633;}.cls-8{fill:url(#Degradado_sin_nombre);}.cls-9{fill:#003067;}.cls-10{fill:#50e6ff;}.cls-11{fill:url(#Degradado_sin_nombre_2);}.cls-12{fill:url(#Degradado_sin_nombre_3);}.cls-13,.cls-14,.cls-15,.cls-17,.cls-18,.cls-19,.cls-20{fill:none;stroke:#3c3c41;stroke-linecap:round;stroke-miterlimit:10;}.cls-14{stroke-dasharray:0.96 2.88 3.84 2.88;}.cls-15{stroke-dasharray:3.84 2.88 0.96 2.88 3.84 2.88;}.cls-17{stroke-dasharray:0.95 2.86 3.81 2.86;}.cls-18{stroke-dasharray:3.81 2.86 0.95 2.86 3.81 2.86;}.cls-19{stroke-dasharray:0.86 2.58 3.44 2.58;}.cls-20{stroke-dasharray:3.44 2.58 0.86 2.58 3.44 2.58;}.cls-21{fill:url(#Degradado_sin_nombre_4);}.cls-22{fill:#b4ec36;}.cls-23{fill:#5ea0ef;}.cls-24{fill:#1e1e1e;}</style><linearGradient id="Degradado_sin_nombre" x1="240.52" y1="344.72" x2="240.52" y2="376.72" gradientTransform="translate(0 -298)" gradientUnits="userSpaceOnUse"><stop offset="0" stop-color="#b3b2b3"/><stop offset="0.38" stop-color="#afaeaf"/><stop offset="0.76" stop-color="#a2a2a2"/><stop offset="1" stop-color="#979797"/></linearGradient><linearGradient id="Degradado_sin_nombre_2" x1="240.52" y1="423.22" x2="240.52" y2="455.22" xlink:href="#Degradado_sin_nombre"/><linearGradient id="Degradado_sin_nombre_3" x1="240.52" y1="503.4" x2="240.52" y2="535.4" xlink:href="#Degradado_sin_nombre"/><linearGradient id="Degradado_sin_nombre_4" x1="144.48" y1="457.63" x2="144.48" y2="422.85" gradientTransform="translate(0 -298)" gradientUnits="userSpaceOnUse"><stop offset="0" stop-color="#5e9624"/><stop offset="0.02" stop-color="#5f9724"/><stop offset="1" stop-color="#76bc2d"/></linearGradient></defs><title>OJ105690781</title><g id="bg"><rect class="cls-1" y="35" width="375" height="210"/><rect class="cls-2" y="35" width="375" height="210"/><rect class="cls-1" width="375" height="35"/><rect class="cls-3" width="375" height="35"/></g><g id="shapes"><g id="ad94e297-0e86-4eaf-aac0-d146ee9aea65"><path class="cls-4" d="M120.79,24.14l-3.63-3.75a1.77,1.77,0,0,1-.6.11,1.88,1.88,0,1,1,0-3.76,1.86,1.86,0,0,1,1.76,1.18h3.58v1.26h-3.52c-.06.15-.13.29-.2.44l3.34,3.45,1.82-2.76V11.65H120.9L124,8.53l3,3.12h-2.44v6.77l4.59-7-4.63-4.63a.8.8,0,0,0-1.13,0h0L112.18,18a.8.8,0,0,0,0,1.13h0l11.21,11.21-4-4Z"/><path class="cls-5" d="M123.31,24.3v-4l-1.82,2.77,1.34,1.43A1.2,1.2,0,0,1,123.31,24.3Z"/><path class="cls-5" d="M135.71,18l-6.56-6.57-4.59,7v5.89a1.27,1.27,0,0,1,.41.23l4.82-4.87a2.23,2.23,0,0,1-.24-.49h-3.61V17.92h3.66a1.87,1.87,0,1,1,1.74,2.58,3,3,0,0,1-.52-.08l-5.12,5.16a2.67,2.67,0,0,1,.08.48,1.88,1.88,0,0,1-3.76.15,1.83,1.83,0,0,1,.1-.7l-1.33-1.33-1.43,2.13,4,4a.79.79,0,0,0,1.12,0h0l11.21-11.2a.79.79,0,0,0,0-1.12h0Z"/><path class="cls-6" d="M129.6,17.92h-3.66v1.26h3.61a1.77,1.77,0,0,1-.09-.56A1.86,1.86,0,0,1,129.6,17.92Z"/><path class="cls-6" d="M118.35,19.18h3.52V17.92h-3.58a1.69,1.69,0,0,1,.15.7A1.77,1.77,0,0,1,118.35,19.18Z"/><path class="cls-6" d="M125.7,25.58l5.12-5.16a2,2,0,0,1-1-.75L125,24.54A1.74,1.74,0,0,1,125.7,25.58Z"/><path class="cls-6" d="M122.87,24.5l-1.34-1.43-3.38-3.45a2,2,0,0,1-1,.77l3.63,3.75,1.33,1.33A1.79,1.79,0,0,1,122.87,24.5Z"/><path class="cls-1" d="M127,11.65l-3-3.12-3.08,3.12h2.44V24.3a1.35,1.35,0,0,0-.44.2,1.88,1.88,0,0,0-.51,2.6,1.93,1.93,0,0,0,1,.74,1.87,1.87,0,0,0,2.33-1.25,2.34,2.34,0,0,0,.08-.53,2.67,2.67,0,0,0-.08-.48,1.72,1.72,0,0,0-.73-1,1.27,1.27,0,0,0-.41-.23V11.65ZM124,27.1a1,1,0,1,1,1-1h0A1,1,0,0,1,124,27.1Z"/><path class="cls-1" d="M118.15,19.62c.07-.15.14-.29.2-.44a1.77,1.77,0,0,0,.09-.56,1.69,1.69,0,0,0-.15-.7,1.87,1.87,0,1,0-1.73,2.58,1.77,1.77,0,0,0,.6-.11A1.94,1.94,0,0,0,118.15,19.62Zm-1.59,0a1,1,0,1,1,1-1h0a1.05,1.05,0,0,1-1,1.08h0Z"/><path class="cls-1" d="M130.82,20.42a3,3,0,0,0,.52.08,1.87,1.87,0,1,0-1.88-1.88,1.77,1.77,0,0,0,.09.56,2.23,2.23,0,0,0,.24.49A2,2,0,0,0,130.82,20.42Zm.52-2.83a1,1,0,0,1,.92,1.08s0,0,0,.07a1,1,0,0,1-2.06,0A1,1,0,0,1,131,17.6h.07a1,1,0,0,1,.24,0Z"/><path class="cls-7" d="M124,25a1,1,0,0,0,0,2.08,1,1,0,0,0,1-1h0a1,1,0,0,0-.92-1.08Z"/><circle class="cls-7" cx="116.56" cy="18.62" r="1.04"/><path class="cls-7" d="M131.34,19.66a1,1,0,0,0,0-2.08,1,1,0,0,0-1,1h0a1,1,0,0,0,.92,1.08Z"/></g><path class="cls-8" d="M250.91,77.63a1.16,1.16,0,0,1-1.2,1.09H231.33a1.16,1.16,0,0,1-1.2-1.09V47.81a1.16,1.16,0,0,1,1.2-1.09h18.38a1.16,1.16,0,0,1,1.2,1.09Z"/><path class="cls-9" d="M233.19,60.4a2.39,2.39,0,0,1,2.22-2.5h10.38A2.37,2.37,0,0,1,248,60.4h0a2.37,2.37,0,0,1-2.12,2.6H235.45a2.39,2.39,0,0,1-2.22-2.49Z"/><path class="cls-9" d="M233.19,53a2.38,2.38,0,0,1,2.22-2.49h10.38A2.38,2.38,0,0,1,248,53h0a2.4,2.4,0,0,1-2.21,2.5H235.45a2.4,2.4,0,0,1-2.22-2.5Z"/><circle class="cls-10" cx="236.1" cy="53" r="1.66"/><circle class="cls-10" cx="236.1" cy="60.4" r="1.66"/><path class="cls-11" d="M250.91,156.13a1.16,1.16,0,0,1-1.2,1.09H231.33a1.16,1.16,0,0,1-1.2-1.09V126.31a1.16,1.16,0,0,1,1.2-1.09h18.38a1.16,1.16,0,0,1,1.2,1.09Z"/><path class="cls-9" d="M233.19,138.9a2.39,2.39,0,0,1,2.22-2.5h10.38a2.37,2.37,0,0,1,2.21,2.5h0a2.37,2.37,0,0,1-2.13,2.59H235.45a2.39,2.39,0,0,1-2.22-2.49Z"/><path class="cls-9" d="M233.19,131.5a2.38,2.38,0,0,1,2.22-2.49h10.38A2.38,2.38,0,0,1,248,131.5h0a2.4,2.4,0,0,1-2.21,2.5H235.45a2.4,2.4,0,0,1-2.22-2.5Z"/><circle class="cls-10" cx="236.1" cy="131.5" r="1.66"/><circle class="cls-10" cx="236.1" cy="138.9" r="1.66"/><path class="cls-12" d="M250.91,236.31a1.16,1.16,0,0,1-1.2,1.09H231.33a1.16,1.16,0,0,1-1.2-1.09V206.48a1.15,1.15,0,0,1,1.2-1.08h18.38a1.15,1.15,0,0,1,1.2,1.08Z"/><path class="cls-9" d="M233.19,219.08a2.4,2.4,0,0,1,2.22-2.51h10.38a2.4,2.4,0,0,1,2.21,2.51h0a2.38,2.38,0,0,1-2.13,2.59H235.45a2.38,2.38,0,0,1-2.22-2.48Z"/><path class="cls-9" d="M233.19,211.67a2.38,2.38,0,0,1,2.22-2.48h10.38a2.36,2.36,0,0,1,2.21,2.48h0a2.4,2.4,0,0,1-2.21,2.51H235.45a2.4,2.4,0,0,1-2.22-2.51Z"/><circle class="cls-10" cx="236.1" cy="211.67" r="1.66"/><circle class="cls-10" cx="236.1" cy="219.08" r="1.66"/><line class="cls-13" x1="144.27" y1="160.45" x2="144.27" y2="158.45"/><line class="cls-14" x1="144.27" y1="155.57" x2="144.27" y2="146.44"/><path class="cls-15" d="M144.27,145V66.89a5,5,0,0,1,5-5h68.28"/><line class="cls-13" x1="218.99" y1="61.89" x2="220.99" y2="61.89"/><polygon class="cls-16" points="219.9 65.63 226.37 61.89 219.9 58.15 219.9 65.63"/><line class="cls-13" x1="143.77" y1="193.29" x2="143.77" y2="195.29"/><line class="cls-17" x1="143.77" y1="198.14" x2="143.77" y2="207.19"/><path class="cls-18" d="M143.77,208.62v7.62a5,5,0,0,0,5,5h68.79"/><line class="cls-13" x1="218.99" y1="221.24" x2="220.99" y2="221.24"/><polygon class="cls-16" points="219.9 224.98 226.37 221.24 219.9 217.5 219.9 224.98"/><line class="cls-13" x1="158.46" y1="142.11" x2="160.46" y2="142.11"/><line class="cls-19" x1="163.04" y1="142.11" x2="171.22" y2="142.11"/><line class="cls-20" x1="172.51" y1="142.11" x2="217.7" y2="142.11"/><line class="cls-13" x1="218.99" y1="142.11" x2="220.99" y2="142.11"/><polygon class="cls-16" points="219.9 145.85 226.37 142.11 219.9 138.37 219.9 145.85"/><path class="cls-21" d="M129.77,140.83l14-14a1,1,0,0,1,1.41,0h0l14,14a1,1,0,0,1,0,1.41h0l-14,14a1,1,0,0,1-1.4,0l-14-14a1,1,0,0,1,0-1.41Z"/><path class="cls-22" d="M148.13,133.22l-3.53-3.52a.2.2,0,0,0-.27,0l-3.53,3.52a.16.16,0,0,0,0,.21l0,0a.16.16,0,0,0,.17.07h2a.18.18,0,0,1,.18.18V137a.21.21,0,0,0,.19.19h2.2a.19.19,0,0,0,.18-.19v-3.3a.18.18,0,0,1,.18-.18H148a.17.17,0,0,0,.2-.13A.14.14,0,0,0,148.13,133.22Z"/><path class="cls-22" d="M136.13,137.57l-3.49,3.54a.17.17,0,0,0,0,.24h0l3.49,3.52a.19.19,0,0,0,.26,0,.2.2,0,0,0,.06-.14v-2a.19.19,0,0,1,.18-.19H140a.16.16,0,0,0,.16-.16h0v-2.22a.16.16,0,0,0,0-.23h-3.4a.17.17,0,0,1-.18-.15v-2a.2.2,0,0,0-.37-.13Z"/><path class="cls-22" d="M152.93,144.88l3.55-3.53a.18.18,0,0,0,0-.25l-3.55-3.53a.18.18,0,0,0-.25,0h0a.21.21,0,0,0,0,.11v2.08a.17.17,0,0,1-.16.17h-3.35a.16.16,0,0,0-.17.15h0v2.22a.17.17,0,0,0,.15.18h3.35a.19.19,0,0,1,.18.19v2.06a.18.18,0,0,0,.2.16h0Z"/><path class="cls-1" d="M149.12,141.55a4.65,4.65,0,1,0-5.9,4.45v1.58a2.86,2.86,0,1,0,2.61,0v-1.67A4.63,4.63,0,0,0,149.12,141.55Z"/><circle id="e99c3387-15c3-4f28-bd4b-cb209b430e06" class="cls-23" cx="144.48" cy="141.53" r="2.7"/></g><g id="txt"><path class="cls-24" d="M135.92,173.06h-2.11l-.68-2.08h-3.3l-.67,2.08h-2.09l3.32-9.08h2.27Zm-3.25-3.58-1-3.14a4.06,4.06,0,0,1-.14-.79h-.05a3.21,3.21,0,0,1-.16.76l-1,3.17Z"/><path class="cls-24" d="M141.94,173.06h-5.76v-.77l3.32-4.3h-3v-1.41h5.42v.91l-3.17,4.16h3.18Z"/><path class="cls-24" d="M149.1,173.06h-1.88v-1h0a2.24,2.24,0,0,1-2,1.15c-1.51,0-2.27-.91-2.27-2.73v-3.91h1.9v3.73c0,1,.38,1.45,1.13,1.45a1.14,1.14,0,0,0,.91-.39,1.61,1.61,0,0,0,.34-1.08v-3.71h1.88Z"/><path class="cls-24" d="M155,168.29a1.68,1.68,0,0,0-.84-.19,1.21,1.21,0,0,0-1,.49,2.19,2.19,0,0,0-.38,1.35v3.12h-1.89v-6.48h1.89v1.22h0a1.72,1.72,0,0,1,1.7-1.33,1.39,1.39,0,0,1,.51.07Z"/><path class="cls-24" d="M161.6,170.35h-4.26c.06,1,.67,1.51,1.81,1.51a3.4,3.4,0,0,0,1.89-.53v1.39a4.72,4.72,0,0,1-2.32.5,3.18,3.18,0,0,1-2.4-.88,3.32,3.32,0,0,1-.86-2.43,3.57,3.57,0,0,1,.91-2.52,3,3,0,0,1,2.3-1,2.79,2.79,0,0,1,2.15.83,3.25,3.25,0,0,1,.78,2.3Zm-1.76-1.18c0-1-.4-1.46-1.18-1.46a1.18,1.18,0,0,0-.86.4,1.89,1.89,0,0,0-.47,1.06Z"/><path class="cls-24" d="M119.77,181.61h1.64a8.15,8.15,0,0,1-.32,2.51c2.07.78,3.8,1.49,5.21,2.14l-1,1.62c-1.55-.88-3.18-1.72-4.88-2.49a7.94,7.94,0,0,1-4.68,2.52,12.68,12.68,0,0,0-1.12-1.65,11.92,11.92,0,0,0,3.17-.87,3,3,0,0,0,1.58-1.38A5.66,5.66,0,0,0,119.77,181.61ZM116,184.94v-4l-.15.13a17.19,17.19,0,0,0-1.21-1.32,20.29,20.29,0,0,0,3.79-3.51h1.94c-.19.29-.4.57-.61.85h4v1.29l-1.45,1.3h2.71v5.18h-1.62v-3.77h-5.83v3.82Zm1.42-5.23h2.79l1.36-1.23h-2.94C118.28,178.9,117.88,179.31,117.45,179.71Z"/><path class="cls-24" d="M126.68,179.06h2.69v-.78h-2.3v-1.12h2.3v-.87h1.52v.87h2.18v1.12h-2.18v.78h2.53c0-.86,0-1.79,0-2.79h1.55c0,1,0,1.93,0,2.79h3.31v1.24H135c.06,1,.16,1.84.28,2.59a15,15,0,0,0,1.24-2.18l1.31.63a21,21,0,0,1-2.13,3.41c.27.8.5,1.2.7,1.2s.44-.69.48-2.08a10.08,10.08,0,0,0,1.43.72c-.17,2.09-.74,3.14-1.7,3.14a2.3,2.3,0,0,1-2.08-1.59,16,16,0,0,1-1.26,1.21c-.24-.27-.52-.54-.82-.82l-1.25.05v1.23h-1.48v-1.17l-2.77.13-.17-1.41,2.94-.06v-.83h-2.6v-1.31a6.18,6.18,0,0,0,.74-1h-1V181h1.61l.28-.54h1.7l-.32.54h2.94v1.17h-3.67c-.25.4-.51.78-.77,1.13h1v-.68h1.48v.68H133v1.17h-1.77v.78c.67,0,1.27-.05,1.82-.09a1.53,1.53,0,0,0,0,.3c.35-.32.68-.64,1-1a26.37,26.37,0,0,1-.54-4.18h-6.8Zm9.81-2.77c.43.47.9,1.05,1.42,1.74l-1.35.79A18,18,0,0,0,135.3,177Z"/><path class="cls-24" d="M139,187l-.3-1.77,1.32-.33v-4h-1.09v-1.6H140v-3h1.58v3h1v.81a15.13,15.13,0,0,0,1.72-3.93l1.59.19c-.14.5-.3,1-.48,1.45h4.5l-.1,5-.09,2.84a2.38,2.38,0,0,1-.44,1.41,1.57,1.57,0,0,1-1.06.56q-.64.08-2.61.09c-.09-.5-.23-1.09-.41-1.78.78.06,1.45.1,2,.1a1,1,0,0,0,.62-.2.86.86,0,0,0,.28-.69c0-.33,0-1,.07-2l.08-3.9h-3.45a18.29,18.29,0,0,1-1.19,2.18c-.31-.28-.65-.57-1-.87v.29h-1v3.54l1.22-.36c0,.34,0,.9,0,1.68C141.1,186.27,139.84,186.67,139,187Zm4.63-1.13-.41-1.73c1.44-.5,3-1.09,4.57-1.74,0,.61.06,1.18.12,1.7Q145.79,184.9,143.58,185.87Zm1.57-5.9c.69.54,1.33,1.1,1.93,1.67L146,182.71c-.63-.64-1.25-1.22-1.85-1.74Z"/><path class="cls-24" d="M152.81,179.5l1.13.81c-.3.51-.61,1-.91,1.45v6.06h-1.3v-4.29l-.67.79c-.12-.43-.3-.95-.54-1.57A20.64,20.64,0,0,0,152.81,179.5Zm-.05-3.21,1.19.88a38.93,38.93,0,0,1-2.51,3.08c-.28-.46-.57-.9-.89-1.33A17,17,0,0,0,152.76,176.29Zm5.5.87v1.07l-.53.76h1v4.39h-1.71c0,.19,0,.37,0,.54h2.15v1.15h-2.26l1.75,1.12-.15.2,1.14.05c.34,0,.51-.21.51-.62v-4.09h-1V180.3h3.16v1.43h-.67v4.37a1.92,1.92,0,0,1-.3,1.17,1,1,0,0,1-.84.41c-.36,0-.92,0-1.69,0-.07-.36-.17-.78-.3-1.28l-.69.91q-.13-.15-1.44-1.23a6,6,0,0,1-2.38,1.73c-.15-.29-.4-.74-.76-1.34a3.64,3.64,0,0,0,2.11-1.41h-1.77v-1.15h2.11a4.63,4.63,0,0,0,0-.54H154v-3.94l-.56-.41a13,13,0,0,0,1.82-2.76l1.3.19-.37.7ZM155,179h1.34l.54-.78h-1.37Q155.26,178.61,155,179Zm.1,1.77h.75V180h-.75Zm0,1.61h.75v-.76h-.75Zm2.51-2.39h-.75v.78h.75Zm0,2.39v-.76h-.75v.76Zm1.7-5.39h2.82v1.43h-2.82Z"/><path class="cls-24" d="M168.93,187.75V184h2.44a5.61,5.61,0,0,1-2.9-1.42,5.34,5.34,0,0,1-3.13,1.42H168v3.82h-1.36v-.45h-1.86v.45h-1.36V184.2l-.51,0a8.3,8.3,0,0,0-.25-1.2c2.41-.06,3.86-.4,4.37-1h-4.22v-1.19h4.78a5,5,0,0,0,.07-.59h1.64a3.5,3.5,0,0,1-.08.59h1.58l-.18-.46,1.5-.19.27.65h1.77V182h-4.61c.83.65,2.41,1,4.75,1a10.29,10.29,0,0,0-.31,1.21l-.48,0v3.54h-1.36v-.45h-1.87v.42Zm-5.5-11H168v3.31h-4.6Zm3.22,8.38h-1.86v1h1.86Zm-.05-6.27V178h-1.74v.91Zm2.34-2.11h4.58v3.31h-4.58Zm3.22,8.38h-1.87v1h1.87Zm-.07-6.27V178h-1.71v.91Z"/><path class="cls-24" d="M144.63,12.82l1.56-.9a13.83,13.83,0,0,1,3,4.44,13.67,13.67,0,0,0,4.27,5.26c-.66.72-1.17,1.29-1.52,1.74a21.25,21.25,0,0,1-4.22-5.94,14.64,14.64,0,0,1-4.55,6,18.77,18.77,0,0,0-1.38-1.54,13,13,0,0,0,4.94-6.56A10,10,0,0,0,144.63,12.82Z"/><path class="cls-24" d="M157.38,15.68l1.71.34L158,20.6l1-.16c-.05.74-.07,1.3-.08,1.69-1.63.26-3.24.55-4.85.84l-.26-1.78,2.71-.37C156.82,19.26,157.11,17.55,157.38,15.68Zm-3.47-1.78H156c-.26-.61-.5-1.12-.72-1.52l1.61-.56c.24.4.56,1,.95,1.75l-.92.33h2.51v1.54h-5.5Zm1.74,2c.27,1.11.56,2.52.88,4.21l-1.55.31c-.23-1.39-.5-2.8-.83-4.22Zm9.78-2.05v1.54h-2.69v1.76H165v6.28h-1.57v-.66h-2.53v.7h-1.57V17.14h1.77V11.86h1.69v2Zm-2.05,4.87h-2.53v2.48h2.53Z"/><path class="cls-24" d="M178.31,21.86h-2L172.49,16a7.36,7.36,0,0,1-.44-.73h0a12.41,12.41,0,0,1,.06,1.44v5.16h-1.84V12.79h2.11l3.71,5.71q.36.55.45.72h0a8.5,8.5,0,0,1-.06-1.26V12.79h1.83Z"/><path class="cls-24" d="M188.3,21.86h-2.11l-.68-2.08h-3.3l-.67,2.08h-2.1l3.33-9.07H185Zm-3.25-3.57-1-3.15a3.42,3.42,0,0,1-.14-.79h0a3.9,3.9,0,0,1-.16.77l-1,3.17Z"/><path class="cls-24" d="M194.8,14.37h-2.59v7.49h-1.94V14.37h-2.58V12.79h7.11Z"/><path class="cls-24" d="M198.73,16.68h1.51V15.27h-1.32V13.82h1.32V12h1.5v1.86h1.33v1.45h-1.33v1.41h1.49v1.46h-1.52c0,.21,0,.42-.05.62.55.51,1.18,1.13,1.88,1.86-.43.4-.78.76-1.06,1.07-.27-.34-.63-.78-1.09-1.3A8.18,8.18,0,0,1,200,23.51c-.5-.54-.93-1-1.3-1.31a6.64,6.64,0,0,0,1.48-4.06h-1.46ZM208.93,20c.59.29,1.08.51,1.46.66a6.37,6.37,0,0,1-.51,2.15,1.18,1.18,0,0,1-1.06.44h-1c-.9,0-1.35-.43-1.35-1.27V20.66a6.5,6.5,0,0,1-2.95,2.86c-.28-.39-.63-.83-1.07-1.33a5.29,5.29,0,0,0,2.81-2.52,15.1,15.1,0,0,0,.59-5.07h1.56a24.45,24.45,0,0,1-.34,4.19h.79v2.66c0,.31.14.47.41.47h.13a.37.37,0,0,0,.38-.27A11.12,11.12,0,0,0,208.93,20Zm-5.39-.28V12.37h6.11v7.25h-1.52V13.88h-3.07v5.87Z"/><path class="cls-24" d="M214.69,19.5c1.1.92,2,1.76,2.8,2.52l-1.13,1c-.59-.68-1.3-1.41-2.12-2.19a6.73,6.73,0,0,1-2.39,2.67c-.27-.32-.64-.76-1.11-1.3a4.66,4.66,0,0,0,2.64-4.52V14.24h1.45V18A6.46,6.46,0,0,1,214.69,19.5Zm-3.4-7.12h5.63v7.44h-1.43V13.75h-2.77v6.09h-1.43Zm6.53.78h1.5v7.49h-1.5ZM220.21,12h1.57v9.5c0,1.2-.47,1.82-1.41,1.85s-1.49.07-1.94.06c-.06-.34-.2-.9-.41-1.65l1.5,0a.61.61,0,0,0,.69-.7Z"/><path class="cls-24" d="M260,61.72a18.47,18.47,0,0,1-.33,4.35,9.09,9.09,0,0,1-1.4,2.85,6.34,6.34,0,0,0-.64-.82,7.07,7.07,0,0,0,1.13-2.38,15,15,0,0,0,.29-3.38v-4a85.07,85.07,0,0,0,9.05-.7l.56,1c-3.24.33-6.12.54-8.66.64v1.54h9.28v.88Zm1.08,1.89h7.12v5.27h-.94v-.79H262v.79h-.93Zm6.18.85H262v2.79h5.25Z"/><path class="cls-24" d="M273.23,61.37c-.15,1.15-.43,2.77-.83,4.86.4-.08.77-.17,1.11-.25,0,.3,0,.58,0,.83-.88.22-2.17.5-3.86.84l-.18-.88c.79-.13,1.5-.25,2.15-.38.38-2.35.64-4.07.77-5.17Zm-3.62-1.67h4v.76h-4Zm.15,1.84.8-.18c.26,1.12.51,2.49.77,4.11l-.81.21A38.36,38.36,0,0,0,269.76,61.54Zm.81-3.75.72-.43a12,12,0,0,1,1.18,1.76l-.77.47A15.12,15.12,0,0,0,270.57,57.79Zm3,4h7.58v.76h-3.51l-.33,1.28h3.29v3.89c0,.67-.3,1-.89,1h-.86a4.25,4.25,0,0,0-.23-.87,7.2,7.2,0,0,0,.81,0c.23,0,.35-.12.35-.37v-3h-1.21v3.68h-.78V64.56h-1.16v3.61h-.79V64.56h-1.17v4.28h-.82v-5h2.61l.27-1.28h-3.16Zm5.89-.76v-.36h-5.29V58H275v1.91h1.81V57.29h.85v2.65h1.81V58h.82v3Z"/><path class="cls-24" d="M281.77,61.45a.68.68,0,0,1,.23-.52.75.75,0,0,1,.53-.22.77.77,0,0,1,.54.22.69.69,0,0,1,.22.52.72.72,0,0,1-.21.53.75.75,0,0,1-.56.22A.71.71,0,0,1,282,62,.73.73,0,0,1,281.77,61.45Zm0,5.28a.77.77,0,0,1,.22-.54.76.76,0,0,1,.54-.21.74.74,0,0,1,.55.22.72.72,0,0,1,.21.53.73.73,0,0,1-.21.52.75.75,0,0,1-.56.22.69.69,0,0,1-.53-.22A.74.74,0,0,1,281.77,66.73Z"/><path class="cls-24" d="M287.64,61.37c-.15,1.15-.43,2.77-.83,4.86.4-.08.77-.17,1.11-.25,0,.3,0,.58,0,.83-.88.22-2.17.5-3.86.84l-.18-.88c.78-.13,1.5-.25,2.14-.38.39-2.35.64-4.07.78-5.17ZM284,59.7h4v.76h-4Zm.15,1.84.8-.18c.26,1.12.51,2.49.77,4.11l-.81.21A38.36,38.36,0,0,0,284.17,61.54Zm.81-3.75.71-.43a11.35,11.35,0,0,1,1.19,1.76l-.78.47A13.77,13.77,0,0,0,285,57.79Zm3,4h7.58v.76H292l-.32,1.28H295v3.89c0,.67-.3,1-.89,1h-.86a4.25,4.25,0,0,0-.23-.87,7.09,7.09,0,0,0,.81,0c.23,0,.35-.12.35-.37v-3H293v3.68h-.78V64.56H291v3.61h-.79V64.56h-1.17v4.28h-.82v-5h2.61l.27-1.28H288Zm5.89-.76v-.36h-5.29V58h.82v1.91h1.81V57.29h.85v2.65h1.81V58h.82v3Z"/><path class="cls-24" d="M296.82,58.55h9.31v9.86h-1V67.28h-7.29v1.13h-1Zm8.3,7.85v-7h-7.29v7Z"/><path class="cls-24" d="M311.39,65.81a3.39,3.39,0,0,0,2.11.72,2.2,2.2,0,0,0,1.48-.46,1.49,1.49,0,0,0,.55-1.23c0-1.15-.82-1.72-2.47-1.72h-.75v-.95H313c1.46,0,2.18-.54,2.18-1.62s-.55-1.49-1.67-1.49a2.89,2.89,0,0,0-1.79.64V58.62a4,4,0,0,1,2.08-.52,2.73,2.73,0,0,1,1.86.61,2,2,0,0,1,.7,1.57,2.2,2.2,0,0,1-1.81,2.29v0a2.46,2.46,0,0,1,1.55.69,2,2,0,0,1,.57,1.47,2.46,2.46,0,0,1-.88,2,3.51,3.51,0,0,1-2.35.75,4,4,0,0,1-2.08-.48Z"/><path class="cls-24" d="M318.19,65.81a3.34,3.34,0,0,0,2.1.72,2.21,2.21,0,0,0,1.49-.46,1.49,1.49,0,0,0,.55-1.23c0-1.15-.82-1.72-2.47-1.72h-.75v-.95h.72c1.45,0,2.18-.54,2.18-1.62s-.55-1.49-1.67-1.49a2.94,2.94,0,0,0-1.8.64V58.62a4,4,0,0,1,2.08-.52,2.74,2.74,0,0,1,1.87.61,2,2,0,0,1,.7,1.57,2.21,2.21,0,0,1-1.82,2.29v0a2.46,2.46,0,0,1,1.56.69,2,2,0,0,1,.57,1.47,2.46,2.46,0,0,1-.88,2,3.51,3.51,0,0,1-2.35.75,4,4,0,0,1-2.08-.48Z"/><path class="cls-24" d="M324.72,64.8a2.48,2.48,0,0,1,.47-1.45,2.65,2.65,0,0,1,1.21-.94,2.69,2.69,0,0,1-.94-.86,2,2,0,0,1-.34-1.13,2.21,2.21,0,0,1,.33-1.18,2.31,2.31,0,0,1,.92-.83,2.69,2.69,0,0,1,1.3-.31,2.83,2.83,0,0,1,1.3.3,2.24,2.24,0,0,1,1.25,2,2,2,0,0,1-.34,1.12,2.6,2.6,0,0,1-.93.87,2.59,2.59,0,0,1,1.2,1,2.44,2.44,0,0,1,.46,1.44,2.57,2.57,0,0,1-.37,1.38,2.48,2.48,0,0,1-1,1,3.51,3.51,0,0,1-1.53.34,3.4,3.4,0,0,1-1.52-.34,2.57,2.57,0,0,1-1-1A2.6,2.6,0,0,1,324.72,64.8Zm1.13,0a1.72,1.72,0,0,0,.5,1.29,1.78,1.78,0,0,0,1.32.49A1.82,1.82,0,0,0,329,66a1.72,1.72,0,0,0,.52-1.28,1.76,1.76,0,0,0-.52-1.27,1.82,1.82,0,0,0-1.32-.51,1.79,1.79,0,0,0-1.3.5A1.7,1.7,0,0,0,325.85,64.75Zm.33-4.23a1.42,1.42,0,0,0,.43,1,1.44,1.44,0,0,0,1.06.44,1.5,1.5,0,0,0,1.07-.44,1.47,1.47,0,0,0,0-2.09,1.57,1.57,0,0,0-2.15,0A1.43,1.43,0,0,0,326.18,60.52Z"/><path class="cls-24" d="M332,66.1a3.17,3.17,0,0,0,1.62.43,2.18,2.18,0,0,0,1.89-1,4.71,4.71,0,0,0,.67-2.73h0a2.09,2.09,0,0,1-2,1.14,2.49,2.49,0,0,1-1.9-.79,2.82,2.82,0,0,1-.75-2,3.06,3.06,0,0,1,.82-2.19,2.83,2.83,0,0,1,2.13-.86,2.47,2.47,0,0,1,2.12,1.07,5.31,5.31,0,0,1,.76,3.09,6.47,6.47,0,0,1-1,3.87,3.17,3.17,0,0,1-2.72,1.35,3.75,3.75,0,0,1-1.62-.31Zm.66-5.09a2.14,2.14,0,0,0,.47,1.45,1.71,1.71,0,0,0,3-1.14,2.64,2.64,0,0,0-.48-1.62,1.51,1.51,0,0,0-1.27-.64,1.54,1.54,0,0,0-1.22.55A2.07,2.07,0,0,0,332.69,61Z"/><path class="cls-24" d="M260,138.39a18.47,18.47,0,0,1-.33,4.35,9.09,9.09,0,0,1-1.4,2.85,6.34,6.34,0,0,0-.64-.82,7.07,7.07,0,0,0,1.13-2.38,15,15,0,0,0,.29-3.38v-3.95a85.07,85.07,0,0,0,9.05-.7l.56,1c-3.24.33-6.12.54-8.66.64v1.54h9.28v.88Zm1.08,1.89h7.12v5.27h-.94v-.79H262v.79h-.93Zm6.18.85H262v2.79h5.25Z"/><path class="cls-24" d="M273.23,138c-.15,1.15-.43,2.77-.83,4.86.4-.08.77-.17,1.11-.25,0,.3,0,.58,0,.83-.88.22-2.17.5-3.86.84l-.18-.88c.79-.13,1.5-.25,2.15-.38.38-2.35.64-4.07.77-5.17Zm-3.62-1.67h4v.76h-4Zm.15,1.84.8-.18c.26,1.12.51,2.49.77,4.11l-.81.21A38.36,38.36,0,0,0,269.76,138.21Zm.81-3.75.72-.43a12,12,0,0,1,1.18,1.76l-.77.47A15.12,15.12,0,0,0,270.57,134.46Zm3,4h7.58v.76h-3.51l-.33,1.28h3.29v3.89c0,.67-.3,1-.89,1h-.86a4.25,4.25,0,0,0-.23-.87c.27,0,.53,0,.81,0s.35-.12.35-.37v-3h-1.21v3.68h-.78v-3.68h-1.16v3.61h-.79v-3.61h-1.17v4.28h-.82v-5h2.61l.27-1.28h-3.16Zm5.89-.76v-.36h-5.29V134.7H275v1.91h1.81V134h.85v2.65h1.81V134.7h.82v3Z"/><path class="cls-24" d="M281.77,138.12a.68.68,0,0,1,.23-.52.75.75,0,0,1,.53-.22.77.77,0,0,1,.54.22.69.69,0,0,1,.22.52.72.72,0,0,1-.21.53.79.79,0,0,1-.56.22.75.75,0,0,1-.53-.22A.73.73,0,0,1,281.77,138.12Zm0,5.28a.77.77,0,0,1,.22-.54.76.76,0,0,1,.54-.21.74.74,0,0,1,.55.22.72.72,0,0,1,.21.53.73.73,0,0,1-.21.52.75.75,0,0,1-.56.22.69.69,0,0,1-.53-.22A.74.74,0,0,1,281.77,143.4Z"/><path class="cls-24" d="M287.64,138c-.15,1.15-.43,2.77-.83,4.86.4-.08.77-.17,1.11-.25,0,.3,0,.58,0,.83-.88.22-2.17.5-3.86.84l-.18-.88c.78-.13,1.5-.25,2.14-.38.39-2.35.64-4.07.78-5.17ZM284,136.37h4v.76h-4Zm.15,1.84.8-.18c.26,1.12.51,2.49.77,4.11l-.81.21A38.36,38.36,0,0,0,284.17,138.21Zm.81-3.75.71-.43a11.35,11.35,0,0,1,1.19,1.76l-.78.47A13.77,13.77,0,0,0,285,134.46Zm3,4h7.58v.76H292l-.32,1.28H295v3.89c0,.67-.3,1-.89,1h-.86a4.25,4.25,0,0,0-.23-.87c.26,0,.53,0,.81,0s.35-.12.35-.37v-3H293v3.68h-.78v-3.68H291v3.61h-.79v-3.61h-1.17v4.28h-.82v-5h2.61l.27-1.28H288Zm5.89-.76v-.36h-5.29V134.7h.82v1.91h1.81V134h.85v2.65h1.81V134.7h.82v3Z"/><path class="cls-24" d="M296.82,135.22h9.31v9.86h-1V144h-7.29v1.13h-1Zm8.3,7.85v-7h-7.29v7Z"/><path class="cls-24" d="M316,134.92v6h1.36v1H316V144h-1.12v-2.13h-4.23V141a30.23,30.23,0,0,0,2.27-2.93,27.65,27.65,0,0,0,1.89-3.12Zm-4.06,6h2.94v-4.33c-.4.73-.84,1.44-1.3,2.13S312.57,140.14,312,140.92Z"/><path class="cls-24" d="M322.8,134.92v6h1.36v1H322.8V144h-1.11v-2.13h-4.24V141a30.24,30.24,0,0,0,2.28-2.93,26.09,26.09,0,0,0,1.88-3.12Zm-4.06,6h2.95v-4.33c-.41.73-.84,1.44-1.31,2.13S319.37,140.14,318.74,140.92Z"/><path class="cls-24" d="M325,142.48a3.34,3.34,0,0,0,2.1.72,2.23,2.23,0,0,0,1.49-.46,1.52,1.52,0,0,0,.55-1.23c0-1.15-.83-1.72-2.47-1.72h-.76v-.95h.72q2.19,0,2.19-1.62c0-1-.56-1.49-1.67-1.49a2.9,2.9,0,0,0-1.8.64v-1.08a4,4,0,0,1,2.08-.52,2.73,2.73,0,0,1,1.86.61A2,2,0,0,1,330,137a2.21,2.21,0,0,1-1.82,2.29v0a2.48,2.48,0,0,1,1.56.69,2,2,0,0,1,.57,1.47,2.49,2.49,0,0,1-.88,2,3.52,3.52,0,0,1-2.35.75,4,4,0,0,1-2.08-.48Z"/><path class="cls-24" d="M37.36,122.42h3.81a13,13,0,0,0-1-1.33l.74-.51A14.58,14.58,0,0,1,42.1,122l-.58.39h3.23l-.47-.26a10.45,10.45,0,0,0,1.08-1.6l.9.52c-.36.49-.73.94-1.09,1.34h3.74v.83H37.36ZM39,132.27h-.89v-7.86h5.17V131a1,1,0,0,1-1.19,1.13l-1.36,0c0-.31-.11-.6-.18-.88.48,0,.93.06,1.34.06a.42.42,0,0,0,.49-.48v-1.5H39Zm3.38-7.06H39v1.26h3.38ZM39,128.53h3.38v-1.27H39Zm5.68-3.94h.9v5.32h-.9Zm2.44-.56h.92v6.6c0,1-.46,1.45-1.37,1.46-.42,0-.94,0-1.56,0,0-.32-.1-.65-.17-1,.59.06,1.06.09,1.42.09a.67.67,0,0,0,.76-.76Z"/><path class="cls-24" d="M52.87,124.68c-.15,1.16-.43,2.79-.84,4.9l1.12-.26c0,.31,0,.58,0,.84-.89.22-2.19.5-3.89.85l-.18-.89,2.16-.38q.59-3.56.78-5.22ZM49.22,123h4.05v.77H49.22Zm.15,1.85.81-.17c.26,1.12.51,2.5.77,4.14l-.81.21A39.06,39.06,0,0,0,49.37,124.84Zm.82-3.78.72-.42a11.67,11.67,0,0,1,1.19,1.77l-.78.47A15.53,15.53,0,0,0,50.19,121.06Zm3,4h7.64v.77H57.3L57,127.16h3.31v3.92c0,.67-.3,1-.89,1h-.87a4.25,4.25,0,0,0-.23-.87c.26,0,.54,0,.81,0a.32.32,0,0,0,.36-.36v-3H58.24v3.71h-.79v-3.71H56.28v3.64h-.79v-3.64H54.31v4.31h-.83v-5h2.63l.28-1.29H53.2Zm5.94-.77V124H53.8v-2.66h.83v1.93h1.83v-2.67h.85v2.67h1.83v-1.93H60v3Z"/><path class="cls-24" d="M61.48,124.76a.69.69,0,0,1,.22-.53.8.8,0,0,1,1.08,0,.71.71,0,0,1,.22.53.72.72,0,0,1-.21.53.75.75,0,0,1-.56.22.73.73,0,0,1-.54-.22A.72.72,0,0,1,61.48,124.76Zm0,5.31a.72.72,0,0,1,.21-.53.8.8,0,0,1,1.1,0,.76.76,0,0,1,.21.53.74.74,0,0,1-.77.75.7.7,0,0,1-.54-.22A.74.74,0,0,1,61.48,130.07Z"/><path class="cls-24" d="M67.39,124.68c-.15,1.16-.43,2.79-.84,4.9l1.12-.26c0,.31,0,.58,0,.84-.89.22-2.19.5-3.9.85l-.17-.89,2.16-.38q.57-3.56.78-5.22ZM63.74,123h4.05v.77H63.74Zm.15,1.85.8-.17q.39,1.68.78,4.14l-.81.21A39.06,39.06,0,0,0,63.89,124.84Zm.82-3.78.72-.42a11.67,11.67,0,0,1,1.19,1.77l-.78.47A15.53,15.53,0,0,0,64.71,121.06Zm3,4h7.64v.77H71.81l-.32,1.29H74.8v3.92c0,.67-.3,1-.9,1H73a4.25,4.25,0,0,0-.23-.87q.39,0,.81,0c.24,0,.35-.12.35-.36v-3H72.76v3.71H72v-3.71H70.8v3.64H70v-3.64H68.83v4.31H68v-5h2.63l.27-1.29H67.72Zm5.94-.77V124H68.32v-2.66h.83v1.93H71v-2.67h.85v2.67h1.83v-1.93h.82v3Z"/><path class="cls-24" d="M76.64,121.83H86v9.94H85v-1.14H77.65v1.14h-1ZM85,129.74v-7H77.65v7Z"/><path class="cls-24" d="M91.32,129.15a3.35,3.35,0,0,0,2.12.73,2.32,2.32,0,0,0,1.5-.46,1.58,1.58,0,0,0,.55-1.25c0-1.15-.83-1.73-2.49-1.73h-.76v-1H93c1.47,0,2.2-.54,2.2-1.63s-.56-1.5-1.68-1.5a2.92,2.92,0,0,0-1.82.65v-1.1a4.19,4.19,0,0,1,2.1-.52,2.81,2.81,0,0,1,1.88.61,2,2,0,0,1,.71,1.59,2.23,2.23,0,0,1-1.83,2.31v0a2.47,2.47,0,0,1,1.56.7,2,2,0,0,1,.58,1.48,2.49,2.49,0,0,1-.89,2,3.53,3.53,0,0,1-2.36.75,4,4,0,0,1-2.1-.48Z"/><path class="cls-24" d="M98.17,129.15a3.33,3.33,0,0,0,2.12.73,2.32,2.32,0,0,0,1.5-.46,1.58,1.58,0,0,0,.55-1.25c0-1.15-.83-1.73-2.49-1.73h-.76v-1h.73c1.46,0,2.2-.54,2.2-1.63s-.56-1.5-1.68-1.5a2.9,2.9,0,0,0-1.82.65v-1.1a4.19,4.19,0,0,1,2.1-.52,2.83,2.83,0,0,1,1.88.61,2,2,0,0,1,.71,1.59,2.24,2.24,0,0,1-1.84,2.31v0a2.47,2.47,0,0,1,1.57.7,2,2,0,0,1,.58,1.48,2.49,2.49,0,0,1-.89,2,3.54,3.54,0,0,1-2.37.75,4,4,0,0,1-2.09-.48Z"/><path class="cls-24" d="M104.75,128.13a2.51,2.51,0,0,1,.47-1.46,2.65,2.65,0,0,1,1.22-1,2.61,2.61,0,0,1-.94-.86,2,2,0,0,1-.35-1.14,2.25,2.25,0,0,1,.33-1.19,2.37,2.37,0,0,1,.93-.84,2.84,2.84,0,0,1,1.31-.31,2.75,2.75,0,0,1,1.31.31,2.23,2.23,0,0,1,1.26,2,2,2,0,0,1-.34,1.13,2.72,2.72,0,0,1-.94.87,2.64,2.64,0,0,1,1.21,1,2.48,2.48,0,0,1,.47,1.45,2.65,2.65,0,0,1-.38,1.4,2.51,2.51,0,0,1-1,1,3.52,3.52,0,0,1-1.54.34,3.44,3.44,0,0,1-1.53-.34,2.49,2.49,0,0,1-1.06-1A2.61,2.61,0,0,1,104.75,128.13Zm1.14,0a1.7,1.7,0,0,0,.5,1.3,2,2,0,0,0,2.66,0,1.84,1.84,0,0,0,0-2.56,1.79,1.79,0,0,0-1.33-.52,1.85,1.85,0,0,0-1.32.5A1.75,1.75,0,0,0,105.89,128.08Zm.33-4.26a1.44,1.44,0,0,0,.43,1.05,1.46,1.46,0,0,0,1.07.44,1.5,1.5,0,0,0,1.07-.44,1.48,1.48,0,0,0,0-2.11,1.51,1.51,0,0,0-1.09-.43,1.46,1.46,0,0,0-1.08.43A1.43,1.43,0,0,0,106.22,123.82Z"/><path class="cls-24" d="M112.11,129.44a3.24,3.24,0,0,0,1.63.44,2.19,2.19,0,0,0,1.91-1,4.78,4.78,0,0,0,.67-2.75h0a2.11,2.11,0,0,1-2,1.14,2.51,2.51,0,0,1-1.9-.79,2.81,2.81,0,0,1-.76-2.05,3.06,3.06,0,0,1,.83-2.21,2.81,2.81,0,0,1,2.14-.87,2.48,2.48,0,0,1,2.13,1.07,5.37,5.37,0,0,1,.77,3.13,6.56,6.56,0,0,1-1,3.89,3.21,3.21,0,0,1-2.75,1.36,3.82,3.82,0,0,1-1.63-.31Zm.67-5.13a2.15,2.15,0,0,0,.47,1.46,1.65,1.65,0,0,0,1.31.54,1.67,1.67,0,0,0,1.7-1.69,2.61,2.61,0,0,0-.49-1.63,1.6,1.6,0,0,0-2.5-.08A2,2,0,0,0,112.78,124.31Z"/><path class="cls-24" d="M74.42,137.92c-.15,1.16-.43,2.79-.83,4.9l1.12-.26a7.5,7.5,0,0,0,0,.83c-.89.23-2.19.51-3.9.86l-.17-.89,2.16-.38q.57-3.55.78-5.22Zm-3.64-1.69h4V137h-4Zm.15,1.85.8-.18c.26,1.13.52,2.51.78,4.15l-.81.21A41.73,41.73,0,0,0,70.93,138.08Zm.81-3.78.72-.42a11,11,0,0,1,1.2,1.77l-.78.47A14.93,14.93,0,0,0,71.74,134.3Zm3,4h7.64v.77H78.85l-.32,1.29h3.31v3.92c0,.67-.3,1-.9,1h-.86a4.24,4.24,0,0,0-.24-.87c.27,0,.54,0,.82,0a.32.32,0,0,0,.35-.36v-3H79.8v3.7H79v-3.7H77.84v3.63H77v-3.63H75.86v4.31H75v-5h2.63l.27-1.29H74.75Zm5.94-.77v-.36H75.36v-2.66h.82v1.92H78v-2.66h.85v2.66h1.83v-1.92h.83v3Z"/><path class="cls-24" d="M83.61,135.07H93V145H92v-1.14H84.63V145h-1ZM92,143v-7H84.63v7Z"/><path class="cls-24" d="M102.82,134.77v6h1.37v1h-1.37v2.15H101.7v-2.15H97.43v-.9a30.31,30.31,0,0,0,2.29-3,28.53,28.53,0,0,0,1.91-3.15Zm-4.09,6h3v-4.35c-.41.73-.85,1.45-1.31,2.14S99.37,140,98.73,140.81Z"/><path class="cls-24" d="M109.61,134.77v6H111v1h-1.37v2.15h-1.12v-2.15h-4.27v-.9a32,32,0,0,0,2.29-3,28.34,28.34,0,0,0,1.9-3.15Zm-4.09,6h3v-4.35c-.41.73-.85,1.45-1.32,2.14S106.15,140,105.52,140.81Z"/><path class="cls-24" d="M111.75,142.39a3.37,3.37,0,0,0,2.12.73,2.26,2.26,0,0,0,1.5-.47,1.53,1.53,0,0,0,.55-1.24c0-1.16-.83-1.74-2.48-1.74h-.77v-.95h.73c1.47,0,2.2-.54,2.2-1.63s-.56-1.51-1.68-1.51a2.93,2.93,0,0,0-1.81.65v-1.09a4.05,4.05,0,0,1,2.09-.52,2.81,2.81,0,0,1,1.88.61,2,2,0,0,1,.71,1.59,2.24,2.24,0,0,1-1.83,2.31v0a2.47,2.47,0,0,1,1.57.7,2.06,2.06,0,0,1,.57,1.48,2.48,2.48,0,0,1-.89,2,3.53,3.53,0,0,1-2.36.75,4,4,0,0,1-2.1-.48Z"/><path class="cls-24" d="M81.08,151.12c-.15,1.16-.43,2.79-.84,4.9l1.13-.26a7.5,7.5,0,0,0,0,.83c-.89.23-2.19.51-3.9.86l-.18-.89c.8-.13,1.52-.26,2.17-.38.38-2.37.64-4.11.77-5.22Zm-3.65-1.69h4v.77h-4Zm.16,1.85.8-.18c.26,1.13.52,2.51.78,4.15l-.81.21A41.73,41.73,0,0,0,77.59,151.28Zm.81-3.78.72-.42a11.74,11.74,0,0,1,1.2,1.77l-.78.47A14.93,14.93,0,0,0,78.4,147.5Zm3,4h7.64v.77H85.51l-.32,1.29H88.5v3.92c0,.67-.3,1-.9,1h-.86a5,5,0,0,0-.24-.87c.27,0,.54,0,.82,0a.32.32,0,0,0,.35-.36v-3H86.46V158h-.8v-3.71H84.5V158h-.8v-3.63H82.52v4.31H81.7v-5h2.63l.27-1.29H81.41Zm5.94-.77v-.36H82v-2.66h.82v1.92h1.83V147h.85v2.66h1.83v-1.92h.83v3Z"/><path class="cls-24" d="M90.33,148.27h9.38v9.94h-1v-1.14H91.35v1.14h-1Zm8.36,7.91v-7H91.35v7Z"/><path class="cls-24" d="M104.75,154.57a2.51,2.51,0,0,1,.47-1.46,2.65,2.65,0,0,1,1.22-1,2.61,2.61,0,0,1-.94-.86,2,2,0,0,1-.35-1.14,2.23,2.23,0,0,1,1.26-2,2.72,2.72,0,0,1,1.31-.31,2.75,2.75,0,0,1,1.31.31,2.23,2.23,0,0,1,1.26,2,2,2,0,0,1-.34,1.13,2.72,2.72,0,0,1-.94.87,2.58,2.58,0,0,1,1.21,1,2.48,2.48,0,0,1,.47,1.45,2.67,2.67,0,0,1-.38,1.4,2.42,2.42,0,0,1-1,.95,3.39,3.39,0,0,1-1.54.35,3.32,3.32,0,0,1-1.53-.35,2.41,2.41,0,0,1-1.06-1A2.64,2.64,0,0,1,104.75,154.57Zm1.14,0a1.7,1.7,0,0,0,.5,1.3,2,2,0,0,0,2.66,0,1.69,1.69,0,0,0,.52-1.29,1.73,1.73,0,0,0-.52-1.28,1.83,1.83,0,0,0-1.33-.51,1.85,1.85,0,0,0-1.32.5A1.75,1.75,0,0,0,105.89,154.52Zm.33-4.27a1.5,1.5,0,0,0,2.57,1.05,1.41,1.41,0,0,0,.45-1.05,1.43,1.43,0,0,0-.43-1.05,1.51,1.51,0,0,0-1.09-.43,1.49,1.49,0,0,0-1.08.42A1.46,1.46,0,0,0,106.22,150.25Z"/><path class="cls-24" d="M111.55,152.73a6.77,6.77,0,0,1,.81-3.67,2.61,2.61,0,0,1,2.32-1.24q2.91,0,2.91,4.69a6.43,6.43,0,0,1-.82,3.54,2.6,2.6,0,0,1-2.29,1.22,2.43,2.43,0,0,1-2.16-1.16A6.17,6.17,0,0,1,111.55,152.73Zm1.18-.06c0,2.43.62,3.65,1.85,3.65s1.82-1.24,1.82-3.7-.59-3.84-1.78-3.84S112.73,150.08,112.73,152.67Z"/><path class="cls-24" d="M260,219.3a18.37,18.37,0,0,1-.33,4.34,9.09,9.09,0,0,1-1.4,2.85,7.1,7.1,0,0,0-.64-.82,7.07,7.07,0,0,0,1.13-2.38,14.87,14.87,0,0,0,.29-3.37V216a87.79,87.79,0,0,0,9.05-.7l.56,1c-3.24.33-6.12.54-8.66.63v1.55h9.28v.88Zm1.08,1.88h7.12v5.28h-.94v-.8H262v.8h-.93Zm6.18.86H262v2.79h5.25Z"/><path class="cls-24" d="M273.29,219c-.15,1.15-.42,2.77-.83,4.86.4-.09.77-.17,1.11-.26,0,.31,0,.58,0,.83-.88.22-2.17.5-3.86.85l-.18-.88,2.15-.38c.38-2.35.64-4.08.77-5.18Zm-3.62-1.68h4V218h-4Zm.15,1.84.8-.18c.26,1.12.51,2.49.77,4.12l-.81.21A38.57,38.57,0,0,0,269.82,219.11Zm.81-3.75.72-.42a11.51,11.51,0,0,1,1.18,1.76l-.77.46A16.92,16.92,0,0,0,270.63,215.36Zm3,4h7.58v.76h-3.51l-.33,1.28h3.29v3.89c0,.67-.3,1-.89,1h-.86a4,4,0,0,0-.23-.86l.81,0a.32.32,0,0,0,.35-.36v-3h-1.21v3.68h-.78v-3.68h-1.16v3.61h-.79v-3.61h-1.17v4.28h-.82v-5h2.61l.27-1.28h-3.16Zm5.89-.76v-.37h-5.29v-2.63H275v1.91h1.81v-2.65h.85v2.65h1.81v-1.91h.82v3Z"/><path class="cls-24" d="M281.89,219a.7.7,0,0,1,.23-.53.74.74,0,0,1,.53-.21.76.76,0,0,1,.54.21.71.71,0,0,1,.22.53.72.72,0,0,1-.21.52.75.75,0,0,1-.56.22.71.71,0,0,1-.53-.22A.73.73,0,0,1,281.89,219Zm0,5.27a.77.77,0,0,1,1.31-.53.74.74,0,0,1,.21.53.76.76,0,0,1-.21.53.78.78,0,0,1-.56.21.72.72,0,0,1-.53-.21A.77.77,0,0,1,281.89,224.3Z"/><path class="cls-24" d="M287.82,219c-.15,1.15-.43,2.77-.83,4.86.4-.09.77-.17,1.11-.26,0,.31,0,.58,0,.83-.88.22-2.17.5-3.86.85l-.18-.88,2.14-.38c.39-2.35.64-4.08.78-5.18Zm-3.62-1.68h4V218h-4Zm.15,1.84.8-.18c.26,1.12.51,2.49.77,4.12l-.81.21A38.57,38.57,0,0,0,284.35,219.11Zm.81-3.75.71-.42a11.59,11.59,0,0,1,1.19,1.76l-.78.46A15.24,15.24,0,0,0,285.16,215.36Zm3,4h7.58v.76h-3.52l-.32,1.28h3.29v3.89c0,.67-.3,1-.89,1h-.86a4,4,0,0,0-.23-.86q.39,0,.81,0a.32.32,0,0,0,.35-.36v-3h-1.21v3.68h-.78v-3.68h-1.16v3.61h-.79v-3.61h-1.17v4.28h-.82v-5H291l.27-1.28h-3.16Zm5.89-.76v-.37h-5.29v-2.63h.82v1.91h1.81v-2.65h.85v2.65H294v-1.91h.82v3Z"/><path class="cls-24" d="M297.06,216.12h9.31V226h-1v-1.14h-7.29V226h-1Zm8.3,7.85v-7h-7.29v7Z"/><path class="cls-24" d="M311.49,222.37a2.45,2.45,0,0,1,.47-1.44,2.51,2.51,0,0,1,1.21-1,2.67,2.67,0,0,1-.94-.85,2,2,0,0,1-.35-1.13,2.19,2.19,0,0,1,.33-1.18,2.27,2.27,0,0,1,.92-.84,3,3,0,0,1,2.61,0,2.31,2.31,0,0,1,.92.83A2.22,2.22,0,0,1,317,218a2.1,2.1,0,0,1-.34,1.12,2.61,2.61,0,0,1-.94.86,2.57,2.57,0,0,1,1.21,1,2.51,2.51,0,0,1,.46,1.44,2.6,2.6,0,0,1-.37,1.39,2.55,2.55,0,0,1-1.05,1,3.59,3.59,0,0,1-3,0,2.52,2.52,0,0,1-1-1A2.64,2.64,0,0,1,311.49,222.37Zm1.13-.05a1.75,1.75,0,0,0,.49,1.3,1.86,1.86,0,0,0,1.33.48,1.81,1.81,0,0,0,1.32-.49,1.72,1.72,0,0,0,.51-1.29,1.68,1.68,0,0,0-.52-1.26,1.92,1.92,0,0,0-2.62,0A1.69,1.69,0,0,0,312.62,222.32Zm.32-4.23a1.45,1.45,0,0,0,.44,1,1.51,1.51,0,0,0,2.12,0,1.45,1.45,0,0,0,0-2.08,1.57,1.57,0,0,0-2.15,0A1.4,1.4,0,0,0,312.94,218.09Z"/><path class="cls-24" d="M318.3,220.54a6.74,6.74,0,0,1,.8-3.63,2.58,2.58,0,0,1,2.31-1.23q2.88,0,2.88,4.65a6.33,6.33,0,0,1-.81,3.51,2.59,2.59,0,0,1-2.28,1.22,2.43,2.43,0,0,1-2.14-1.16A6.1,6.1,0,0,1,318.3,220.54Zm1.17,0c0,2.41.61,3.62,1.84,3.62s1.8-1.23,1.8-3.68-.59-3.8-1.77-3.8S319.47,217.92,319.47,220.49Z"/></g></svg>