<svg xmlns="http://www.w3.org/2000/svg" xmlns:xlink="http://www.w3.org/1999/xlink" viewBox="0 0 375 245"><defs><style>.cls-1{fill:#fff;}.cls-11,.cls-2,.cls-3{fill:#3c3c41;}.cls-2{opacity:0.05;}.cls-2,.cls-3{isolation:isolate;}.cls-3{opacity:0.18;}.cls-4{fill:url(#Degradado_sin_nombre);}.cls-5{fill:#003067;}.cls-6{fill:#50e6ff;}.cls-7{fill:url(#Degradado_sin_nombre_2);}.cls-8{fill:url(#Degradado_sin_nombre_3);}.cls-10,.cls-15,.cls-16,.cls-9{fill:none;stroke:#3c3c41;stroke-miterlimit:10;}.cls-10{stroke-dasharray:8.26 4.13;}.cls-12{fill:url(#Degradado_sin_nombre_4);}.cls-13{fill:#b4ec36;}.cls-14{fill:#5ea0ef;}.cls-15{stroke-dasharray:7.6 3.8;}.cls-16{stroke-dasharray:8.39 4.2;}.cls-17{fill:#1e1e1e;}</style><linearGradient id="Degradado_sin_nombre" x1="240.52" y1="304.5" x2="240.52" y2="336.5" gradientTransform="translate(0 -258)" gradientUnits="userSpaceOnUse"><stop offset="0" stop-color="#b3b2b3"/><stop offset="0.38" stop-color="#afaeaf"/><stop offset="0.76" stop-color="#a2a2a2"/><stop offset="1" stop-color="#979797"/></linearGradient><linearGradient id="Degradado_sin_nombre_2" x1="240.52" y1="383" x2="240.52" y2="415" xlink:href="#Degradado_sin_nombre"/><linearGradient id="Degradado_sin_nombre_3" x1="240.52" y1="463.18" x2="240.52" y2="495.18" xlink:href="#Degradado_sin_nombre"/><linearGradient id="Degradado_sin_nombre_4" x1="144.48" y1="417.41" x2="144.48" y2="382.63" gradientTransform="translate(0 -258)" gradientUnits="userSpaceOnUse"><stop offset="0" stop-color="#5e9624"/><stop offset="0.02" stop-color="#5f9724"/><stop offset="1" stop-color="#76bc2d"/></linearGradient></defs><title>OJ105690780</title><g id="bg"><rect class="cls-1" y="35" width="375" height="210"/><rect class="cls-2" y="35" width="375" height="210"/><rect class="cls-1" width="375" height="35"/><rect class="cls-3" width="375" height="35"/></g><g id="shapes"><path class="cls-4" d="M250.91,77.41a1.16,1.16,0,0,1-1.2,1.09H231.33a1.16,1.16,0,0,1-1.2-1.09V47.59a1.16,1.16,0,0,1,1.2-1.09h18.38a1.16,1.16,0,0,1,1.2,1.09Z"/><path class="cls-5" d="M233.19,60.18a2.38,2.38,0,0,1,2.22-2.5h10.37a2.39,2.39,0,0,1,2.22,2.5h0a2.36,2.36,0,0,1-2.11,2.59H235.45a2.39,2.39,0,0,1-2.22-2.49Z"/><path class="cls-5" d="M233.19,52.78a2.37,2.37,0,0,1,2.22-2.49h10.37A2.38,2.38,0,0,1,248,52.78h0a2.39,2.39,0,0,1-2.22,2.5H235.45a2.39,2.39,0,0,1-2.22-2.5Z"/><circle class="cls-6" cx="236.09" cy="52.78" r="1.66"/><circle class="cls-6" cx="236.09" cy="60.18" r="1.66"/><path class="cls-7" d="M250.91,155.91a1.16,1.16,0,0,1-1.2,1.09H231.33a1.16,1.16,0,0,1-1.2-1.09V126.09a1.16,1.16,0,0,1,1.2-1.09h18.38a1.16,1.16,0,0,1,1.2,1.09Z"/><path class="cls-5" d="M233.19,138.68a2.38,2.38,0,0,1,2.22-2.5h10.37a2.39,2.39,0,0,1,2.22,2.5h0a2.36,2.36,0,0,1-2.11,2.59H235.45a2.39,2.39,0,0,1-2.22-2.49Z"/><path class="cls-5" d="M233.19,131.28a2.37,2.37,0,0,1,2.22-2.49h10.37a2.38,2.38,0,0,1,2.22,2.49h0a2.39,2.39,0,0,1-2.22,2.5H235.45a2.39,2.39,0,0,1-2.22-2.5Z"/><circle class="cls-6" cx="236.09" cy="131.28" r="1.66"/><circle class="cls-6" cx="236.09" cy="138.68" r="1.66"/><path class="cls-8" d="M250.91,236.09a1.16,1.16,0,0,1-1.2,1.09H231.33a1.16,1.16,0,0,1-1.2-1.09V206.27a1.15,1.15,0,0,1,1.2-1.09h18.38a1.16,1.16,0,0,1,1.2,1.09Z"/><path class="cls-5" d="M233.19,218.86a2.4,2.4,0,0,1,2.22-2.51h10.37a2.4,2.4,0,0,1,2.22,2.51h0a2.37,2.37,0,0,1-2.13,2.59H235.45a2.39,2.39,0,0,1-2.22-2.49Z"/><path class="cls-5" d="M233.19,211.45a2.36,2.36,0,0,1,2.22-2.48h10.37a2.38,2.38,0,0,1,2.22,2.48h0a2.4,2.4,0,0,1-2.22,2.51H235.45a2.4,2.4,0,0,1-2.22-2.51Z"/><circle class="cls-6" cx="236.09" cy="211.45" r="1.66"/><circle class="cls-6" cx="236.09" cy="218.86" r="1.66"/><line class="cls-9" x1="144.98" y1="160.39" x2="144.98" y2="156.39"/><path class="cls-10" d="M145,152.26V66.83a5,5,0,0,1,5-5h65.65"/><line class="cls-9" x1="217.7" y1="61.83" x2="221.7" y2="61.83"/><polygon class="cls-11" points="220.6 65.57 227.08 61.83 220.6 58.09 220.6 65.57"/><path class="cls-12" d="M129.77,140.61l14-14a1,1,0,0,1,1.41,0h0l14,14a1,1,0,0,1,0,1.41h0l-14,14a1,1,0,0,1-1.4,0l-14-14a1,1,0,0,1,0-1.41h0Z"/><path class="cls-13" d="M148.13,133l-3.53-3.52a.2.2,0,0,0-.27,0L140.8,133a.16.16,0,0,0-.06.22h0a.18.18,0,0,0,.18.07H143a.18.18,0,0,1,.18.18v3.33a.19.19,0,0,0,.18.19h2.2a.2.2,0,0,0,.19-.19h0v-3.33a.18.18,0,0,1,.18-.18H148a.16.16,0,0,0,.2-.12A.16.16,0,0,0,148.13,133Z"/><path class="cls-13" d="M136.13,137.35l-3.5,3.55a.2.2,0,0,0,0,.25l3.5,3.51a.18.18,0,0,0,.25,0h0a.2.2,0,0,0,.06-.14v-2.05a.18.18,0,0,1,.18-.18H140a.17.17,0,0,0,.16-.17V139.9a.17.17,0,0,0-.06-.23h-3.34a.17.17,0,0,1-.18-.15h0v-2a.21.21,0,0,0-.12-.25.19.19,0,0,0-.27,0A.17.17,0,0,0,136.13,137.35Z"/><path class="cls-13" d="M152.93,144.66l3.55-3.53a.2.2,0,0,0,0-.25l-3.55-3.53a.18.18,0,0,0-.25,0h0a.21.21,0,0,0,0,.11v2.08a.18.18,0,0,1-.17.17h-3.35a.16.16,0,0,0-.16.16h0v2.22a.16.16,0,0,0,.14.18h3.35a.18.18,0,0,1,.18.18v2.06a.16.16,0,0,0,.18.16h.09Z"/><path class="cls-1" d="M149.11,141.33a4.65,4.65,0,1,0-5.9,4.45v1.58a2.85,2.85,0,1,0,3.84,1.22h0a2.87,2.87,0,0,0-1.22-1.22v-1.67A4.61,4.61,0,0,0,149.11,141.33Z"/><circle id="e99c3387-15c3-4f28-bd4b-cb209b430e06" class="cls-14" cx="144.48" cy="141.31" r="2.7"/><line class="cls-9" x1="144.48" y1="193.23" x2="144.48" y2="197.23"/><path class="cls-15" d="M144.48,201v15.15a5,5,0,0,0,5,5H215.8"/><line class="cls-9" x1="217.7" y1="221.18" x2="221.7" y2="221.18"/><polygon class="cls-11" points="220.6 224.92 227.08 221.18 220.6 217.44 220.6 224.92"/><line class="cls-9" x1="159.16" y1="142.05" x2="163.16" y2="142.05"/><line class="cls-16" x1="167.36" y1="142.05" x2="215.6" y2="142.05"/><line class="cls-9" x1="217.7" y1="142.05" x2="221.7" y2="142.05"/><polygon class="cls-11" points="220.6 145.78 227.08 142.04 220.6 138.31 220.6 145.78"/></g><g id="txt"><path class="cls-17" d="M135.81,172.82H133.7l-.68-2.08h-3.3l-.67,2.08H127l3.33-9.08h2.27Zm-3.25-3.58-1-3.15a3.32,3.32,0,0,1-.14-.79h0a3.75,3.75,0,0,1-.16.77l-1,3.17Z"/><path class="cls-17" d="M141.83,172.82h-5.76v-.77l3.32-4.3h-3v-1.42h5.41v.92l-3.17,4.15h3.19Z"/><path class="cls-17" d="M149,172.82h-1.88v-1h0a2.25,2.25,0,0,1-2,1.14c-1.5,0-2.26-.91-2.26-2.73v-3.91h1.9v3.74c0,1,.37,1.45,1.13,1.45a1.13,1.13,0,0,0,.91-.4,1.57,1.57,0,0,0,.34-1.08v-3.71H149Z"/><path class="cls-17" d="M154.84,168.05a1.68,1.68,0,0,0-.84-.2,1.23,1.23,0,0,0-1,.49,2.2,2.2,0,0,0-.38,1.36v3.12h-1.89v-6.49h1.89v1.22h0a1.74,1.74,0,0,1,1.71-1.33,1.36,1.36,0,0,1,.51.08Z"/><path class="cls-17" d="M161.49,170.11h-4.27c.07,1,.68,1.5,1.82,1.5a3.42,3.42,0,0,0,1.89-.52v1.39a4.73,4.73,0,0,1-2.32.49,3.21,3.21,0,0,1-2.4-.87,3.28,3.28,0,0,1-.86-2.43,3.5,3.5,0,0,1,.91-2.52,3,3,0,0,1,2.3-1,2.79,2.79,0,0,1,2.15.83,3.24,3.24,0,0,1,.78,2.3Zm-1.76-1.19c0-1-.4-1.45-1.18-1.45a1.13,1.13,0,0,0-.86.4,1.89,1.89,0,0,0-.47,1Z"/><path class="cls-17" d="M119.66,181.37h1.64a7.87,7.87,0,0,1-.33,2.51c2.07.77,3.81,1.49,5.21,2.14l-1,1.62q-2.33-1.33-4.88-2.5a7.9,7.9,0,0,1-4.68,2.52,12.72,12.72,0,0,0-1.13-1.64,11.9,11.9,0,0,0,3.18-.87,3.13,3.13,0,0,0,1.58-1.38A5.66,5.66,0,0,0,119.66,181.37Zm-3.74,3.33v-4l-.15.12a17.18,17.18,0,0,0-1.21-1.31,19.92,19.92,0,0,0,3.78-3.51h2c-.19.28-.4.57-.62.85h4v1.29l-1.45,1.3H125v5.18h-1.62v-3.77h-5.84v3.82Zm1.42-5.23h2.79l1.35-1.23h-2.93C118.17,178.65,117.77,179.06,117.34,179.47Z"/><path class="cls-17" d="M126.57,178.81h2.68V178H127v-1.12h2.29v-.87h1.53v.87H133V178h-2.18v.77h2.53c0-.85-.05-1.78-.05-2.78h1.55c0,1,0,1.93,0,2.78h3.31v1.25h-3.25c.07,1,.16,1.83.29,2.59a15.54,15.54,0,0,0,1.24-2.18l1.31.63a21.4,21.4,0,0,1-2.13,3.41c.26.8.5,1.2.7,1.2s.44-.7.48-2.08a9.58,9.58,0,0,0,1.43.72c-.17,2.09-.74,3.14-1.7,3.14a2.3,2.3,0,0,1-2.08-1.6,16.1,16.1,0,0,1-1.26,1.22c-.24-.27-.52-.54-.82-.82l-1.25,0v1.24h-1.48V186.4l-2.78.13-.16-1.41,2.94-.06v-.83H127v-1.31a6.67,6.67,0,0,0,.74-1h-1v-1.17h1.61l.27-.54h1.7l-.31.54H133v1.17h-3.67c-.26.4-.51.78-.77,1.13h1v-.68h1.48v.68h1.77v1.17h-1.77V185c.67,0,1.27,0,1.81-.09l0,.29a13.26,13.26,0,0,0,1-1,26.37,26.37,0,0,1-.54-4.18h-6.8Zm9.81-2.76c.43.47.9,1,1.42,1.73l-1.35.8a16.73,16.73,0,0,0-1.27-1.82Z"/><path class="cls-17" d="M138.84,186.76l-.3-1.77,1.32-.33v-4h-1.09v-1.61h1.09v-3h1.58v3h1v.82a15,15,0,0,0,1.73-3.93l1.59.18c-.14.5-.3,1-.48,1.46h4.5l-.1,5-.09,2.84a2.32,2.32,0,0,1-.45,1.41,1.51,1.51,0,0,1-1.05.55c-.44.05-1.31.08-2.61.1-.09-.5-.23-1.09-.41-1.78.78.06,1.44.09,2,.09a1,1,0,0,0,.62-.19.89.89,0,0,0,.28-.69c0-.33,0-1,.07-2l.08-3.91h-3.46a16.81,16.81,0,0,1-1.18,2.18c-.31-.28-.65-.56-1-.87v.3h-1v3.54l1.22-.37c0,.35,0,.91,0,1.69C141,186,139.73,186.43,138.84,186.76Zm4.63-1.14-.41-1.72q2.16-.77,4.57-1.75c0,.62.06,1.19.12,1.7C146.36,184.38,144.94,185,143.47,185.62Zm1.57-5.89c.69.54,1.33,1.09,1.93,1.66l-1.09,1.08c-.63-.64-1.25-1.22-1.85-1.75Z"/><path class="cls-17" d="M152.7,179.26l1.13.81c-.3.5-.61,1-.92,1.45v6.06h-1.3v-4.29l-.66.79a16.59,16.59,0,0,0-.54-1.57A21.61,21.61,0,0,0,152.7,179.26Zm-.06-3.21,1.2.88c-.77,1-1.6,2.06-2.51,3.08-.28-.46-.58-.91-.89-1.34A16.39,16.39,0,0,0,152.64,176.05Zm5.51.87V178l-.53.76h1v4.4H157q0,.29,0,.54h2.15v1.15h-2.26l1.75,1.12-.15.2,1.14,0c.34,0,.51-.21.51-.62v-4.09h-1v-1.43h3.16v1.43h-.67v4.37a1.89,1.89,0,0,1-.3,1.16,1.05,1.05,0,0,1-.84.42c-.36,0-.93,0-1.69,0-.07-.36-.18-.79-.3-1.29l-.69.92q-.14-.17-1.44-1.23a6,6,0,0,1-2.38,1.73c-.15-.3-.41-.75-.76-1.35a3.63,3.63,0,0,0,2.11-1.4h-1.78v-1.15h2.11a4.56,4.56,0,0,0,0-.54h-1.77V179.2l-.56-.41a12.86,12.86,0,0,0,1.81-2.76l1.3.18-.36.71Zm-3.25,1.82h1.34l.54-.77h-1.37C155.24,178.24,155.07,178.5,154.9,178.74Zm.1,1.77h.75v-.77H155Zm0,1.62h.75v-.76H155Zm2.51-2.39h-.75v.77h.75Zm0,2.39v-.76h-.75v.76Zm1.7-5.39H162v1.43h-2.82Z"/><path class="cls-17" d="M168.82,187.51v-3.8h2.43a5.46,5.46,0,0,1-2.89-1.42,5.29,5.29,0,0,1-3.14,1.42h2.68v3.82h-1.36v-.44h-1.86v.44h-1.36V184c-.17,0-.34,0-.52,0a7.17,7.17,0,0,0-.24-1.19c2.4-.06,3.86-.4,4.36-1h-4.21V180.6h4.78a5,5,0,0,0,.07-.59h1.64a5.25,5.25,0,0,1-.08.59h1.58l-.18-.46L172,180l.27.65h1.76v1.19h-4.61c.84.65,2.42,1,4.76,1a10.29,10.29,0,0,0-.31,1.21l-.48,0v3.54h-1.36v-.44h-1.87v.42Zm-5.5-11h4.59v3.3h-4.59Zm3.22,8.38h-1.86v1h1.86Zm-.06-6.27v-.92h-1.73v.92Zm2.35-2.11h4.58v3.3h-4.58Zm3.22,8.38h-1.87v1h1.87Zm-.07-6.27v-.92h-1.71v.92Z"/><path class="cls-17" d="M150.79,17.23h1.64a7.83,7.83,0,0,1-.33,2.51c2.07.78,3.81,1.49,5.21,2.15l-1,1.61c-1.55-.88-3.18-1.72-4.88-2.49a8,8,0,0,1-4.68,2.52,12.07,12.07,0,0,0-1.13-1.64,12.12,12.12,0,0,0,3.18-.87,3.1,3.1,0,0,0,1.58-1.39A5.66,5.66,0,0,0,150.79,17.23Zm-3.74,3.33v-4l-.16.12a13.78,13.78,0,0,0-1.2-1.31,20.29,20.29,0,0,0,3.78-3.52h1.95c-.19.29-.4.57-.62.86h4V14l-1.45,1.31h2.71v5.18h-1.62V16.74h-5.84v3.82Zm1.42-5.22h2.78l1.36-1.24h-2.93C149.3,14.52,148.9,14.93,148.47,15.34Z"/><path class="cls-17" d="M157.7,14.68h2.68v-.77h-2.29V12.78h2.29v-.87h1.53v.87h2.18v1.13h-2.18v.77h2.53c0-.86-.05-1.79-.05-2.79h1.55c0,1,0,1.93,0,2.79h3.31v1.24H166c.07,1,.16,1.84.28,2.59a14.17,14.17,0,0,0,1.25-2.18l1.31.63a21,21,0,0,1-2.13,3.41c.26.8.5,1.2.7,1.2s.44-.69.48-2.07a10.55,10.55,0,0,0,1.43.71c-.17,2.09-.74,3.14-1.7,3.14a2.3,2.3,0,0,1-2.08-1.59c-.4.43-.82.83-1.26,1.22-.25-.27-.52-.55-.83-.83l-1.24.05v1.23h-1.48V22.26l-2.78.13L157.83,21l2.94-.05v-.84h-2.6V18.78a6.67,6.67,0,0,0,.74-1H158V16.62h1.61l.27-.53h1.7l-.31.53h2.94V17.8H160.5c-.26.39-.52.77-.77,1.12h1v-.68h1.48v.68H164v1.17h-1.77v.78c.66,0,1.27-.05,1.81-.09,0,.11,0,.2,0,.3.35-.31.69-.64,1-1a26.37,26.37,0,0,1-.54-4.18h-6.8Zm9.81-2.77c.43.47.9,1.05,1.42,1.74l-1.35.79a16.58,16.58,0,0,0-1.27-1.81Z"/><path class="cls-17" d="M170,22.62l-.31-1.77,1.33-.33v-4H169.9v-1.6H171v-3h1.58v3h1v.81a15,15,0,0,0,1.73-3.93l1.59.19c-.15.5-.31,1-.48,1.45h4.5l-.1,5-.09,2.83a2.32,2.32,0,0,1-.45,1.41,1.54,1.54,0,0,1-1.05.56q-.66.07-2.61.09c-.1-.5-.23-1.09-.41-1.78.78.07,1.44.1,2,.1a1,1,0,0,0,.62-.2.89.89,0,0,0,.28-.69c0-.33,0-1,.07-1.95l.07-3.91h-3.45a16.33,16.33,0,0,1-1.19,2.18c-.3-.28-.64-.57-1-.87v.29h-1v3.54l1.22-.36c0,.34,0,.9,0,1.69C172.12,21.89,170.86,22.3,170,22.62Zm4.63-1.13-.41-1.72q2.16-.76,4.57-1.75c0,.62.06,1.18.12,1.7C177.49,20.25,176.07,20.84,174.6,21.49Zm1.57-5.9c.69.54,1.33,1.1,1.93,1.67L177,18.34c-.63-.65-1.25-1.23-1.85-1.75Z"/><path class="cls-17" d="M183.83,15.12l1.13.81c-.3.51-.61,1-.92,1.45v6.06h-1.3V19.15c-.22.27-.44.54-.67.79a14.53,14.53,0,0,0-.53-1.57A20.64,20.64,0,0,0,183.83,15.12Zm-.06-3.21,1.2.88c-.77,1-1.6,2.07-2.51,3.08-.28-.46-.58-.9-.89-1.33A16.48,16.48,0,0,0,183.77,11.91Zm5.51.87v1.07l-.53.76h1V19h-1.72c0,.19,0,.37,0,.54h2.15v1.15h-2.26l1.75,1.13-.15.2c.54,0,.92,0,1.14,0s.51-.21.51-.62V17.35h-1V15.92h3.15v1.43h-.66v4.37a1.9,1.9,0,0,1-.3,1.17,1,1,0,0,1-.84.41c-.36,0-.93,0-1.69,0q-.12-.54-.3-1.29l-.69.91c-.09-.1-.57-.51-1.45-1.23A5.85,5.85,0,0,1,185,23.44c-.15-.29-.41-.74-.77-1.34a3.62,3.62,0,0,0,2.12-1.41h-1.78V19.54h2.11c0-.17,0-.35,0-.54H185V15.06c-.18-.14-.37-.27-.56-.4a13.31,13.31,0,0,0,1.81-2.77l1.3.19-.37.7ZM186,14.61h1.34l.54-.77h-1.37Zm.1,1.77h.75V15.6h-.75Zm0,1.62h.75v-.77h-.75Zm2.51-2.4h-.75v.78h.75Zm0,2.4v-.77h-.75V18Zm1.7-5.4h2.82V14h-2.82Z"/><path class="cls-17" d="M200,23.37V19.58h2.43a5.61,5.61,0,0,1-2.89-1.42,5.38,5.38,0,0,1-3.14,1.42H199V23.4h-1.36V23h-1.86v.45h-1.36V19.82l-.52,0a8.48,8.48,0,0,0-.24-1.2c2.4-.06,3.86-.39,4.36-1h-4.21v-1.2h4.78a4.78,4.78,0,0,0,.07-.59h1.64a5,5,0,0,1-.08.59h1.58l-.19-.46,1.5-.18.27.64h1.77v1.2h-4.61c.83.64,2.42,1,4.75,1a12.35,12.35,0,0,0-.3,1.2l-.48,0V23.4h-1.36V23H201.3v.42Zm-5.5-11H199V15.7h-4.59Zm3.22,8.38h-1.86v1h1.86Zm-.06-6.27v-.91h-1.73v.91ZM200,12.39h4.58V15.7H200Zm3.22,8.38H201.3v1h1.88Zm-.07-6.27v-.91H201.4v.91Z"/><path class="cls-17" d="M205.66,16.69h1.52v-1.4h-1.33V13.84h1.33V12h1.5v1.87H210v1.45h-1.32v1.4h1.48v1.47h-1.52c0,.21,0,.42,0,.61.55.52,1.18,1.14,1.88,1.86-.43.41-.78.77-1.06,1.08-.27-.35-.63-.78-1.09-1.31a8.22,8.22,0,0,1-1.38,3.13c-.5-.54-.93-1-1.3-1.32a6.64,6.64,0,0,0,1.48-4.05h-1.46Zm10.2,3.36c.59.29,1.08.5,1.46.65a6.45,6.45,0,0,1-.51,2.16,1.17,1.17,0,0,1-1.06.43H214.7q-1.35,0-1.35-1.26V20.67a6.52,6.52,0,0,1-2.95,2.87,15.17,15.17,0,0,0-1.07-1.34,5.24,5.24,0,0,0,2.81-2.51,15.14,15.14,0,0,0,.59-5.07h1.56A24.32,24.32,0,0,1,214,18.8h.8v2.66c0,.32.13.47.41.47h.13a.36.36,0,0,0,.37-.26A10.13,10.13,0,0,0,215.86,20.05Zm-5.39-.28V12.38h6.12v7.26h-1.53V13.89H212v5.88Z"/><path class="cls-17" d="M221.63,19.52c1.09.91,2,1.75,2.8,2.52l-1.14,1a26.46,26.46,0,0,0-2.12-2.19,6.65,6.65,0,0,1-2.39,2.67c-.27-.33-.64-.76-1.1-1.3a4.67,4.67,0,0,0,2.63-4.52V14.26h1.46v3.79A7.19,7.19,0,0,1,221.63,19.52Zm-3.4-7.13h5.62v7.45h-1.43V13.77h-2.76v6.09h-1.43Zm6.52.79h1.5v7.49h-1.5ZM227.14,12h1.57v9.5c0,1.21-.47,1.82-1.41,1.86s-1.48.06-1.94.05c-.06-.34-.2-.89-.41-1.65l1.5,0a.62.62,0,0,0,.69-.71Z"/><path class="cls-17" d="M259.76,61.66a18.47,18.47,0,0,1-.33,4.35,9.28,9.28,0,0,1-1.4,2.84,8.4,8.4,0,0,0-.64-.82,7,7,0,0,0,1.12-2.38,14.21,14.21,0,0,0,.3-3.37v-4a87.58,87.58,0,0,0,9-.7l.57,1q-4.86.49-8.66.63v1.55H269v.88Zm1.07,1.89H268v5.27H267V68h-5.25v.8h-.94Zm6.19.85h-5.25v2.79H267Z"/><path class="cls-17" d="M273,61.31c-.15,1.15-.43,2.77-.83,4.86.4-.09.77-.17,1.11-.26,0,.31,0,.58,0,.83-.88.22-2.17.5-3.87.85l-.17-.88,2.14-.38c.39-2.35.64-4.07.78-5.18Zm-3.62-1.68h4v.76h-4Zm.15,1.84.8-.17c.25,1.11.51,2.48.77,4.11l-.81.21A38.57,38.57,0,0,0,269.56,61.47Zm.81-3.75.71-.42a12.11,12.11,0,0,1,1.19,1.76l-.78.47A14.52,14.52,0,0,0,270.37,57.72Zm3,4h7.58v.76h-3.52l-.32,1.28h3.29v3.89c0,.67-.3,1-.89,1l-.86,0a4.15,4.15,0,0,0-.23-.86q.39,0,.81,0a.32.32,0,0,0,.35-.36v-3h-1.21v3.68h-.78V64.49h-1.16V68.1h-.79V64.49h-1.17v4.28h-.82v-5h2.61l.27-1.28h-3.16Zm5.89-.76V60.6H274V58h.82v1.91h1.82V57.23h.84v2.65h1.82V58h.82v3Z"/><path class="cls-17" d="M281.63,61.39a.73.73,0,0,1,.22-.53.8.8,0,0,1,1.08,0,.75.75,0,0,1,0,1.06.75.75,0,0,1-.55.21.72.72,0,0,1-.53-.21A.71.71,0,0,1,281.63,61.39Zm0,5.27a.75.75,0,0,1,.76-.75.74.74,0,0,1,.54.22.73.73,0,0,1,.22.53.71.71,0,0,1-.22.53.76.76,0,0,1-.55.22.73.73,0,0,1-.53-.22A.71.71,0,0,1,281.63,66.66Z"/><path class="cls-17" d="M287.56,61.31c-.15,1.15-.43,2.77-.83,4.86.4-.09.77-.17,1.11-.26a7.46,7.46,0,0,0,0,.83c-.88.22-2.17.5-3.87.85l-.17-.88,2.14-.38c.38-2.35.64-4.07.78-5.18Zm-3.62-1.68h4v.76h-4Zm.15,1.84.8-.17c.25,1.11.51,2.48.77,4.11l-.81.21A38.57,38.57,0,0,0,284.09,61.47Zm.81-3.75.71-.42a12.11,12.11,0,0,1,1.19,1.76l-.78.47A14.52,14.52,0,0,0,284.9,57.72Zm3,4h7.58v.76H292l-.32,1.28h3.29v3.89c0,.67-.3,1-.89,1l-.86,0a4.15,4.15,0,0,0-.23-.86q.39,0,.81,0a.32.32,0,0,0,.35-.36v-3h-1.21v3.68h-.79V64.49h-1.16V68.1h-.78V64.49H289v4.28h-.82v-5h2.61l.27-1.28h-3.16Zm5.89-.76V60.6h-5.3V58h.82v1.91h1.82V57.23H292v2.65h1.82V58h.82v3Z"/><path class="cls-17" d="M296.8,58.48h9.3v9.87h-1V67.21h-7.29v1.14h-1Zm8.3,7.85v-7h-7.29v7Z"/><path class="cls-17" d="M311.23,64.73a2.39,2.39,0,0,1,.47-1.44,2.59,2.59,0,0,1,1.2-.95,2.63,2.63,0,0,1-.93-.85,2,2,0,0,1-.35-1.13,2.21,2.21,0,0,1,.33-1.18,2.34,2.34,0,0,1,.92-.84,2.83,2.83,0,0,1,1.3-.3,2.87,2.87,0,0,1,1.31.3,2.31,2.31,0,0,1,.92.83,2.21,2.21,0,0,1,.32,1.19,2.06,2.06,0,0,1-.33,1.12,2.61,2.61,0,0,1-.94.86,2.56,2.56,0,0,1,1.2.95,2.48,2.48,0,0,1,.47,1.44,2.7,2.7,0,0,1-.37,1.39,2.48,2.48,0,0,1-1.05.95,3.59,3.59,0,0,1-3.05,0,2.48,2.48,0,0,1-1-.95A2.6,2.6,0,0,1,311.23,64.73Zm1.12,0a1.76,1.76,0,0,0,.5,1.3,2.05,2.05,0,0,0,2.65,0,1.72,1.72,0,0,0,.51-1.29,1.68,1.68,0,0,0-.52-1.26,2,2,0,0,0-2.62,0A1.71,1.71,0,0,0,312.35,64.68Zm.33-4.23a1.44,1.44,0,0,0,.44,1,1.42,1.42,0,0,0,1.06.43,1.44,1.44,0,0,0,1.06-.44,1.4,1.4,0,0,0,.45-1,1.43,1.43,0,0,0-.43-1,1.57,1.57,0,0,0-2.15,0A1.4,1.4,0,0,0,312.68,60.45Z"/><path class="cls-17" d="M318,62.91a6.69,6.69,0,0,1,.8-3.64,2.58,2.58,0,0,1,2.3-1.23Q324,58,324,62.69a6.33,6.33,0,0,1-.81,3.51,2.6,2.6,0,0,1-2.28,1.22,2.42,2.42,0,0,1-2.14-1.16A6.06,6.06,0,0,1,318,62.91Zm1.17-.06c0,2.41.61,3.62,1.83,3.62s1.81-1.23,1.81-3.67S322.26,59,321.08,59,319.21,60.28,319.21,62.85Z"/><path class="cls-17" d="M259.76,138.33a18.47,18.47,0,0,1-.33,4.35,9.28,9.28,0,0,1-1.4,2.84,8.4,8.4,0,0,0-.64-.82,7,7,0,0,0,1.12-2.38,14.21,14.21,0,0,0,.3-3.37V135a87.58,87.58,0,0,0,9-.7l.57,1q-4.86.49-8.66.63v1.55H269v.88Zm1.07,1.88H268v5.28H267v-.8h-5.25v.8h-.94Zm6.19.86h-5.25v2.79H267Z"/><path class="cls-17" d="M273,138c-.15,1.15-.43,2.77-.83,4.86.4-.09.77-.17,1.11-.26,0,.31,0,.58,0,.83-.88.22-2.17.5-3.87.85l-.17-.88,2.14-.38c.39-2.35.64-4.07.78-5.18Zm-3.62-1.68h4v.76h-4Zm.15,1.84.8-.18c.25,1.12.51,2.49.77,4.12l-.81.21A38.57,38.57,0,0,0,269.56,138.14Zm.81-3.75.71-.42a12.11,12.11,0,0,1,1.19,1.76l-.78.47A14.52,14.52,0,0,0,270.37,134.39Zm3,4h7.58v.76h-3.52l-.32,1.28h3.29v3.89c0,.67-.3,1-.89,1l-.86,0a4,4,0,0,0-.23-.86q.39,0,.81,0a.32.32,0,0,0,.35-.36v-3h-1.21v3.68h-.78v-3.68h-1.16v3.61h-.79v-3.61h-1.17v4.28h-.82v-5h2.61l.27-1.28h-3.16Zm5.89-.76v-.37H274v-2.63h.82v1.91h1.82V133.9h.84v2.65h1.82v-1.91h.82v3Z"/><path class="cls-17" d="M281.63,138.06a.73.73,0,0,1,.22-.53.8.8,0,0,1,1.08,0,.75.75,0,0,1,0,1.06.75.75,0,0,1-.55.21.72.72,0,0,1-.53-.21A.71.71,0,0,1,281.63,138.06Zm0,5.27a.75.75,0,0,1,.76-.75.74.74,0,0,1,.54.22.73.73,0,0,1,.22.53.71.71,0,0,1-.22.53.76.76,0,0,1-.55.22.73.73,0,0,1-.53-.22A.71.71,0,0,1,281.63,143.33Z"/><path class="cls-17" d="M287.56,138c-.15,1.15-.43,2.77-.83,4.86.4-.09.77-.17,1.11-.26a7.46,7.46,0,0,0,0,.83c-.88.22-2.17.5-3.87.85l-.17-.88L286,143c.38-2.35.64-4.07.78-5.18Zm-3.62-1.68h4v.76h-4Zm.15,1.84.8-.18c.25,1.12.51,2.49.77,4.12l-.81.21A38.57,38.57,0,0,0,284.09,138.14Zm.81-3.75.71-.42a12.11,12.11,0,0,1,1.19,1.76l-.78.47A14.52,14.52,0,0,0,284.9,134.39Zm3,4h7.58v.76H292l-.32,1.28h3.29v3.89c0,.67-.3,1-.89,1l-.86,0a4,4,0,0,0-.23-.86q.39,0,.81,0a.32.32,0,0,0,.35-.36v-3h-1.21v3.68h-.79v-3.68h-1.16v3.61h-.78v-3.61H289v4.28h-.82v-5h2.61l.27-1.28h-3.16Zm5.89-.76v-.37h-5.3v-2.63h.82v1.91h1.82V133.9H292v2.65h1.82v-1.91h.82v3Z"/><path class="cls-17" d="M296.8,135.15h9.3V145h-1v-1.14h-7.29V145h-1Zm8.3,7.85v-7h-7.29v7Z"/><path class="cls-17" d="M311.23,141.4a2.39,2.39,0,0,1,.47-1.44,2.59,2.59,0,0,1,1.2-1,2.63,2.63,0,0,1-.93-.85,2,2,0,0,1-.35-1.13,2.21,2.21,0,0,1,.33-1.18,2.27,2.27,0,0,1,.92-.84,2.83,2.83,0,0,1,1.3-.3,2.87,2.87,0,0,1,1.31.3,2.31,2.31,0,0,1,.92.83,2.21,2.21,0,0,1,.32,1.19,2.06,2.06,0,0,1-.33,1.12,2.61,2.61,0,0,1-.94.86,2.56,2.56,0,0,1,1.2,1,2.45,2.45,0,0,1,.47,1.44,2.7,2.7,0,0,1-.37,1.39,2.48,2.48,0,0,1-1.05,1,3.59,3.59,0,0,1-3.05,0,2.48,2.48,0,0,1-1-1A2.6,2.6,0,0,1,311.23,141.4Zm1.12-.05a1.76,1.76,0,0,0,.5,1.3,2.05,2.05,0,0,0,2.65,0,1.72,1.72,0,0,0,.51-1.29,1.68,1.68,0,0,0-.52-1.26,2,2,0,0,0-2.62,0A1.71,1.71,0,0,0,312.35,141.35Zm.33-4.23a1.44,1.44,0,0,0,.44,1,1.42,1.42,0,0,0,1.06.43,1.44,1.44,0,0,0,1.06-.44,1.4,1.4,0,0,0,.45-1,1.43,1.43,0,0,0-.43-1,1.57,1.57,0,0,0-2.15,0A1.4,1.4,0,0,0,312.68,137.12Z"/><path class="cls-17" d="M318,139.58a6.66,6.66,0,0,1,.8-3.64,2.58,2.58,0,0,1,2.3-1.23q2.89,0,2.89,4.65a6.33,6.33,0,0,1-.81,3.51,2.6,2.6,0,0,1-2.28,1.22,2.42,2.42,0,0,1-2.14-1.16A6.09,6.09,0,0,1,318,139.58Zm1.17-.06c0,2.41.61,3.62,1.83,3.62s1.81-1.23,1.81-3.68-.59-3.8-1.77-3.8S319.21,137,319.21,139.52Z"/><path class="cls-17" d="M51.13,135.74h3.78a12.74,12.74,0,0,0-1-1.33l.74-.5a17.81,17.81,0,0,1,1.17,1.44l-.58.39h3.2l-.47-.26a10.14,10.14,0,0,0,1.08-1.59l.89.51c-.36.49-.72.94-1.08,1.34h3.71v.82H51.13Zm1.66,9.77H51.9v-7.8H57v6.55a1,1,0,0,1-1.18,1.12c-.33,0-.78,0-1.35,0,0-.31-.1-.59-.17-.87q.7.06,1.32.06a.42.42,0,0,0,.49-.48v-1.49H52.79Zm3.35-7H52.79v1.26h3.35Zm-3.35,3.3h3.35v-1.26H52.79Zm5.64-3.91h.89v5.28h-.89Zm2.41-.56h.91v6.55c0,1-.45,1.45-1.35,1.46-.42,0-.93,0-1.55,0,0-.32-.1-.64-.17-1q.87.09,1.41.09a.67.67,0,0,0,.75-.76Z"/><path class="cls-17" d="M66.52,138c-.15,1.15-.43,2.77-.83,4.86.4-.09.77-.17,1.11-.26,0,.31,0,.58,0,.83-.88.22-2.17.5-3.87.85l-.17-.88,2.14-.38c.39-2.35.64-4.07.78-5.18ZM62.9,136.3h4v.76h-4Zm.15,1.84.8-.18c.25,1.12.51,2.49.77,4.12l-.81.21A38.57,38.57,0,0,0,63.05,138.14Zm.81-3.75.71-.42a12.11,12.11,0,0,1,1.19,1.76l-.78.47A14.52,14.52,0,0,0,63.86,134.39Zm3,4h7.58v.76H70.91l-.32,1.28h3.29v3.89c0,.67-.3,1-.89,1l-.86,0a4,4,0,0,0-.23-.86q.39,0,.81,0a.32.32,0,0,0,.35-.36v-3H71.85v3.68h-.78v-3.68H69.91v3.61h-.79v-3.61H68v4.28h-.82v-5h2.61l.27-1.28H66.85Zm5.89-.76v-.37h-5.3v-2.63h.82v1.91h1.82V133.9h.84v2.65h1.82v-1.91h.82v3Z"/><path class="cls-17" d="M75.06,138.06a.73.73,0,0,1,.22-.53.8.8,0,0,1,1.08,0,.75.75,0,0,1,0,1.06.75.75,0,0,1-.55.21.72.72,0,0,1-.53-.21A.71.71,0,0,1,75.06,138.06Zm0,5.27a.75.75,0,0,1,.76-.75.74.74,0,0,1,.54.22.73.73,0,0,1,.22.53.71.71,0,0,1-.22.53.76.76,0,0,1-.55.22.73.73,0,0,1-.53-.22A.71.71,0,0,1,75.06,143.33Z"/><path class="cls-17" d="M80.93,138c-.15,1.15-.43,2.77-.83,4.86.4-.09.77-.17,1.11-.26a7.46,7.46,0,0,0,0,.83c-.88.22-2.17.5-3.87.85l-.17-.88,2.14-.38c.38-2.35.64-4.07.78-5.18Zm-3.62-1.68h4v.76h-4Zm.15,1.84.8-.18c.25,1.12.51,2.49.77,4.12l-.81.21A38.57,38.57,0,0,0,77.46,138.14Zm.81-3.75L79,134a12.11,12.11,0,0,1,1.19,1.76l-.78.47A14.52,14.52,0,0,0,78.27,134.39Zm3,4h7.58v.76H85.32L85,140.44h3.29v3.89c0,.67-.3,1-.89,1l-.86,0a4,4,0,0,0-.23-.86c.26,0,.53,0,.8,0a.32.32,0,0,0,.36-.36v-3H86.26v3.68h-.79v-3.68H84.31v3.61h-.78v-3.61H82.36v4.28h-.82v-5h2.61l.27-1.28H81.26Zm5.89-.76v-.37h-5.3v-2.63h.82v1.91h1.82V133.9h.84v2.65h1.82v-1.91H88v3Z"/><path class="cls-17" d="M90.11,135.15h9.3V145h-1v-1.14H91.12V145h-1Zm8.3,7.85v-7H91.12v7Z"/><path class="cls-17" d="M104.42,141.4a2.39,2.39,0,0,1,.47-1.44,2.59,2.59,0,0,1,1.2-1,2.63,2.63,0,0,1-.93-.85,2,2,0,0,1-.35-1.13,2.21,2.21,0,0,1,.33-1.18,2.27,2.27,0,0,1,.92-.84,2.83,2.83,0,0,1,1.3-.3,2.87,2.87,0,0,1,1.31.3,2.31,2.31,0,0,1,.92.83,2.21,2.21,0,0,1,.32,1.19,2.06,2.06,0,0,1-.33,1.12,2.61,2.61,0,0,1-.94.86,2.56,2.56,0,0,1,1.2,1,2.45,2.45,0,0,1,.47,1.44,2.7,2.7,0,0,1-.37,1.39,2.48,2.48,0,0,1-1,1,3.59,3.59,0,0,1-3,0,2.48,2.48,0,0,1-1-1A2.6,2.6,0,0,1,104.42,141.4Zm1.12-.05a1.76,1.76,0,0,0,.5,1.3,2.05,2.05,0,0,0,2.65,0,1.72,1.72,0,0,0,.51-1.29,1.68,1.68,0,0,0-.52-1.26,2,2,0,0,0-2.62,0A1.71,1.71,0,0,0,105.54,141.35Zm.33-4.23a1.44,1.44,0,0,0,.44,1,1.42,1.42,0,0,0,1.06.43,1.44,1.44,0,0,0,1.06-.44,1.4,1.4,0,0,0,.45-1,1.43,1.43,0,0,0-.43-1,1.57,1.57,0,0,0-2.15,0A1.4,1.4,0,0,0,105.87,137.12Z"/><path class="cls-17" d="M111.17,139.58a6.66,6.66,0,0,1,.8-3.64,2.58,2.58,0,0,1,2.3-1.23q2.9,0,2.89,4.65a6.33,6.33,0,0,1-.81,3.51,2.6,2.6,0,0,1-2.28,1.22,2.42,2.42,0,0,1-2.14-1.16A6.09,6.09,0,0,1,111.17,139.58Zm1.17-.06c0,2.41.61,3.62,1.83,3.62s1.81-1.23,1.81-3.68-.59-3.8-1.77-3.8S112.34,137,112.34,139.52Z"/><path class="cls-17" d="M259.76,219.23a18.47,18.47,0,0,1-.33,4.35,9.32,9.32,0,0,1-1.4,2.85,7.36,7.36,0,0,0-.64-.82,7,7,0,0,0,1.12-2.38,14.3,14.3,0,0,0,.3-3.38v-3.94a87.35,87.35,0,0,0,9-.71l.57,1q-4.86.5-8.66.64v1.54H269v.88Zm1.07,1.89H268v5.27H267v-.79h-5.25v.79h-.94ZM267,222h-5.25v2.78H267Z"/><path class="cls-17" d="M273,218.88c-.15,1.15-.43,2.78-.83,4.87l1.11-.26c0,.3,0,.58,0,.83q-1.32.33-3.87.84l-.17-.88c.78-.12,1.5-.25,2.14-.38.39-2.34.64-4.07.78-5.17Zm-3.62-1.67h4V218h-4Zm.15,1.84.8-.18c.25,1.12.51,2.49.77,4.11l-.81.21A38.36,38.36,0,0,0,269.56,219.05Zm.81-3.75.71-.43a12.11,12.11,0,0,1,1.19,1.76l-.78.47A13.77,13.77,0,0,0,270.37,215.3Zm3,4h7.58v.77h-3.52l-.32,1.27h3.29v3.89c0,.68-.3,1-.89,1h-.86a4.25,4.25,0,0,0-.23-.87,7.09,7.09,0,0,0,.81,0c.23,0,.35-.12.35-.37v-3h-1.21v3.68h-.78v-3.68h-1.16v3.61h-.79v-3.61h-1.17v4.28h-.82v-5h2.61l.27-1.27h-3.16Zm5.89-.76v-.36H274v-2.64h.82v1.91h1.82V214.8h.84v2.65h1.82v-1.91h.82v3Z"/><path class="cls-17" d="M281.63,219a.71.71,0,0,1,.22-.52.8.8,0,0,1,1.08,0,.74.74,0,0,1,0,1.05.72.72,0,0,1-.55.22.75.75,0,0,1-.75-.75Zm0,5.28a.73.73,0,0,1,.76-.75.75.75,0,0,1,.76.75.69.69,0,0,1-.22.52.72.72,0,0,1-.55.22.75.75,0,0,1-.75-.74Z"/><path class="cls-17" d="M287.56,218.88c-.15,1.15-.43,2.78-.83,4.87l1.11-.26a7.5,7.5,0,0,0,0,.83q-1.32.33-3.87.84l-.17-.88c.78-.12,1.5-.25,2.14-.38.38-2.34.64-4.07.78-5.17Zm-3.62-1.67h4V218h-4Zm.15,1.84.8-.18c.25,1.12.51,2.49.77,4.11l-.81.21A38.36,38.36,0,0,0,284.09,219.05Zm.81-3.75.71-.43a12.11,12.11,0,0,1,1.19,1.76l-.78.47A13.77,13.77,0,0,0,284.9,215.3Zm3,4h7.58v.77H292l-.32,1.27h3.29v3.89c0,.68-.3,1-.89,1h-.86a4.25,4.25,0,0,0-.23-.87,7.09,7.09,0,0,0,.81,0c.23,0,.35-.12.35-.37v-3h-1.21v3.68h-.79v-3.68h-1.16v3.61h-.78v-3.61H289v4.28h-.82v-5h2.61l.27-1.27h-3.16Zm5.89-.76v-.36h-5.3v-2.64h.82v1.91h1.82V214.8H292v2.65h1.82v-1.91h.82v3Z"/><path class="cls-17" d="M296.8,216.06h9.3v9.86h-1v-1.13h-7.29v1.13h-1Zm8.3,7.85v-7h-7.29v7Z"/><path class="cls-17" d="M311.23,222.31a2.41,2.41,0,0,1,.47-1.45,2.57,2.57,0,0,1,1.2-.94,2.66,2.66,0,0,1-.93-.86,2,2,0,0,1-.35-1.13,2.21,2.21,0,0,1,.33-1.18,2.31,2.31,0,0,1,.92-.83,2.71,2.71,0,0,1,1.3-.31,2.87,2.87,0,0,1,1.31.3,2.34,2.34,0,0,1,.92.84,2.18,2.18,0,0,1,.32,1.18,2,2,0,0,1-.33,1.12,2.72,2.72,0,0,1-.94.87,2.5,2.5,0,0,1,1.2,1,2.45,2.45,0,0,1,.47,1.44,2.7,2.7,0,0,1-.37,1.39,2.62,2.62,0,0,1-1.05,1,3.59,3.59,0,0,1-3.05,0,2.54,2.54,0,0,1-1.42-2.34Zm1.12-.05a1.72,1.72,0,0,0,.5,1.29,1.8,1.8,0,0,0,1.33.49,1.84,1.84,0,0,0,1.32-.5,1.84,1.84,0,0,0,0-2.55,1.78,1.78,0,0,0-1.31-.51,1.81,1.81,0,0,0-1.31.5A1.73,1.73,0,0,0,312.35,222.26Zm.33-4.23a1.5,1.5,0,0,0,1.5,1.48,1.47,1.47,0,0,0,1.06-.44,1.4,1.4,0,0,0,.45-1,1.47,1.47,0,0,0-.43-1.05,1.6,1.6,0,0,0-2.15,0A1.4,1.4,0,0,0,312.68,218Z"/><path class="cls-17" d="M318,220.48a6.65,6.65,0,0,1,.8-3.63,2.57,2.57,0,0,1,2.3-1.24q2.89,0,2.89,4.65a6.34,6.34,0,0,1-.81,3.52,2.59,2.59,0,0,1-2.28,1.21,2.41,2.41,0,0,1-2.14-1.15A6.1,6.1,0,0,1,318,220.48Zm1.17,0c0,2.41.61,3.61,1.83,3.61s1.81-1.22,1.81-3.67-.59-3.8-1.77-3.8S319.21,217.85,319.21,220.43Z"/></g></svg>