<?xml version="1.0" encoding="utf-8"?>
<!-- Generator: Adobe Illustrator 22.1.0, SVG Export Plug-In . SVG Version: 6.00 Build 0)  -->
<svg version="1.1" xmlns="http://www.w3.org/2000/svg" xmlns:xlink="http://www.w3.org/1999/xlink" x="0px" y="0px"
	 viewBox="0 0 660 165.7" style="enable-background:new 0 0 660 165.7;" xml:space="preserve">
<style type="text/css">
	.st0{fill:#FFFFFF;}
	.st1{fill:#EBEBEB;}
	.st2{fill:#0072C6;}
	.st3{fill:#008575;}
	.st4{fill:none;stroke:#000000;stroke-miterlimit:10;}
	.st5{fill:#EBEBEB;stroke:#000000;stroke-width:0.75;stroke-miterlimit:10;}
	.st6{fill:#1E1E1E;}
	.st7{fill:#505050;}
	.st8{fill:none;}
	.st9{display:none;}
	.st10{display:inline;}
</style>
<symbol  id="New_Symbol_41" viewBox="-10 -10 20 20">
</symbol>
<symbol  id="New_Symbol_42" viewBox="-10 -10 20 20">
</symbol>
<symbol  id="New_Symbol_43" viewBox="-10 -10 20 20">
</symbol>
<symbol  id="New_Symbol_44" viewBox="-10 -10 20 20">
</symbol>
<symbol  id="New_Symbol_45" viewBox="-10 -10 20 20">
</symbol>
<symbol  id="New_Symbol_46" viewBox="-10 -10 20 20">
</symbol>
<symbol  id="New_Symbol_47" viewBox="-10 -10 20 20">
</symbol>
<g id="shapes">
	<rect y="0" class="st0" width="660" height="165.7"/>
	<rect y="6.7" class="st1" width="105" height="155"/>
	<rect x="555" y="5.7" class="st2" width="105" height="156"/>
	<rect x="330" y="6.2" class="st3" width="105" height="69.4"/>
	<g>
		<line class="st4" x1="104.6" y1="21.2" x2="324.6" y2="21.2"/>
		<polygon points="323.5,25 330,21.2 323.5,17.5 		"/>
	</g>
	<g>
		<line class="st4" x1="104.6" y1="70.7" x2="324.6" y2="70.7"/>
		<polygon points="323.5,74.4 330,70.7 323.5,66.9 		"/>
	</g>
	<g>
		<line class="st4" x1="435" y1="70.7" x2="549.6" y2="70.7"/>
		<polygon points="548.5,74.4 555,70.7 548.5,66.9 		"/>
	</g>
	<g>
		<line class="st4" x1="440.4" y1="21.2" x2="555" y2="21.2"/>
		<polygon points="441.5,25 435,21.2 441.5,17.5 		"/>
	</g>
	<g>
		<line class="st4" x1="110" y1="51.1" x2="330" y2="51.1"/>
		<polygon points="111.1,54.8 104.6,51.1 111.1,47.4 		"/>
	</g>
	<g>
		<line class="st4" x1="104.6" y1="121.7" x2="549.6" y2="121.7"/>
		<polygon points="548.5,125.4 555,121.7 548.5,118 		"/>
	</g>
	<g>
		<line class="st4" x1="110" y1="155.7" x2="555" y2="155.7"/>
		<polygon points="111.1,159.5 104.6,155.7 111.1,152 		"/>
	</g>
	<path d="M80.2,44.5c-6.6-8.6-16.9-13.7-27.7-13.7c-7.7,0-15.2,2.6-21.3,7.2c-15.3,11.7-18.2,33.7-6.5,49
		c6.6,8.6,16.9,13.7,27.7,13.7c7.7,0,15.2-2.5,21.3-7.2C89.1,81.9,92,60,80.4,44.7C80.3,44.6,80.3,44.6,80.2,44.5z M81.9,73.7
		c-1.2-0.9-3-2.3-5.3-4.1c0.8-2.1,0.5-4.5-0.8-6.4c-2.1-2.6-5.7-3.2-8.6-1.5c-3.1-2.7-6.4-5.9-10-9.4C68,46.3,75.9,47,76.4,47.1
		l0.3,0.4C82.4,54.9,84.3,64.6,81.9,73.7z M62.7,81.9c-0.2-0.9-0.6-1.7-1.1-2.4c-1.9-2.5-5.4-3.1-8-1.4c-2.9-1.6-5.6-3.4-8.2-5.4
		l-0.7-0.6c1.2-3,0.7-6.4-1.3-9c0-0.1-0.1-0.1-0.2-0.2c0.6-0.6,1.2-1.3,1.9-1.9c2.5-2.4,5.1-4.5,8-6.5l0,0h0.1l-0.1,0.1
		c3.8,3.5,7.8,6.8,11.6,9.8c-1,2.2-0.8,4.7,0.6,6.7c2.2,2.9,6.3,3.4,9.2,1.3c0.1-0.1,0.3-0.3,0.4-0.4c2.7,1.9,4.9,3.4,6.1,4.2
		c-0.9,2.4-2,4.6-3.4,6.7C75.6,83.4,70.1,84.1,62.7,81.9z M72.1,42.6c-7-1-14.1,0.4-20.3,3.8c-2.7-2.9-5.7-6.2-8.6-9.5
		C53.1,33.7,64.1,35.8,72.1,42.6z M34,41.7c1.6-1.2,3.3-2.3,5.1-3.2c2.4,3.8,5.1,7.2,8.2,10.4c-3.1,2.1-5.9,4.6-8.4,7.3
		c-1,1.1-1.9,2.2-2.8,3.3c-1.5,0-3,0.3-4.3,1c-2.4-4-3.6-8.7-3.4-13.4C30.1,45.1,31.9,43.3,34,41.7z M24.9,53c-0.1,4,1,8,3,11.4
		c-1.7,3.2-1.4,7.1,0.8,10l0,0c-0.7,2.8-1.2,5.7-1.4,8.6C21.3,74.2,20.3,62.7,24.9,53z M52.5,96.3c-7.1,0-14-2.5-19.5-7.1
		c0-3.8,0.5-7.6,1.5-11.3c2.4,0.4,4.9-0.1,6.9-1.5l0.8,0.6c2.7,2.1,5.6,4,8.7,5.5C50.6,84.1,51,85.7,52,87c2.1,2.6,5.9,3.1,8.5,1.1
		c0.6-0.5,1.1-1,1.5-1.6c3.9,0.8,7.8,1.2,11.7,1.2C72.9,88.5,72,89.3,71,90C65.7,94.1,59.2,96.3,52.5,96.3z"/>
	<polygon class="st5" points="482.2,0.5 474.6,5.9 477.5,14.7 486.9,14.7 489.8,5.9 	"/>
	<g>
		<path class="st6" d="M161,15.7h-1v-3.4c0-1.3-0.5-1.9-1.4-1.9c-0.5,0-0.9,0.2-1.2,0.5c-0.3,0.4-0.5,0.9-0.5,1.4v3.4h-1V6.8h1v3.9
			l0,0c0.4-0.7,1.2-1.2,2-1.1c1.4,0,2,0.8,2,2.4L161,15.7z"/>
		<path class="st6" d="M165.4,15.6c-0.3,0.1-0.6,0.2-0.9,0.2c-1.1,0-1.6-0.6-1.6-1.8v-3.6h-1V9.7h1V8.2l1-0.3v1.8h1.5v0.8H164v3.4
			c0,0.3,0,0.6,0.2,0.9c0.2,0.2,0.4,0.3,0.7,0.3c0.2,0,0.4-0.1,0.6-0.2L165.4,15.6z"/>
		<path class="st6" d="M169.8,15.6c-0.3,0.1-0.6,0.2-0.9,0.2c-1.1,0-1.6-0.6-1.6-1.8v-3.6h-1V9.7h1V8.2l1-0.3v1.8h1.5v0.8h-1.5v3.4
			c0,0.3,0,0.6,0.2,0.9c0.2,0.2,0.4,0.3,0.7,0.3c0.2,0,0.4-0.1,0.6-0.2L169.8,15.6z"/>
		<path class="st6" d="M172,14.8L172,14.8v3.6h-1V9.7h1v1.1l0,0c0.4-0.7,1.2-1.2,2-1.2c0.7,0,1.4,0.3,1.8,0.8
			c0.5,0.6,0.7,1.4,0.6,2.2c0,0.9-0.2,1.7-0.7,2.4c-0.5,0.6-1.2,0.9-2,0.9C173,15.8,172.4,15.4,172,14.8z M172,12.4v0.8
			c0,0.5,0.2,0.9,0.5,1.3c0.7,0.7,1.8,0.7,2.4,0c0.1-0.1,0.1-0.1,0.2-0.2c0.4-0.6,0.5-1.2,0.5-1.9c0-0.6-0.1-1.1-0.5-1.6
			c-0.3-0.4-0.8-0.6-1.3-0.6c-0.5,0-1,0.2-1.3,0.6C172.2,11.3,172,11.8,172,12.4z"/>
		<path class="st6" d="M177.6,15.5v-1c0.5,0.4,1.1,0.6,1.7,0.6c0.8,0,1.3-0.3,1.3-0.9c0-0.1,0-0.3-0.1-0.4c-0.1-0.1-0.2-0.2-0.3-0.3
			c-0.1-0.1-0.3-0.2-0.4-0.2l-0.5-0.2c-0.2-0.1-0.5-0.2-0.7-0.3c-0.2-0.1-0.4-0.2-0.5-0.4c-0.1-0.1-0.2-0.3-0.3-0.5
			c-0.1-0.2-0.1-0.4-0.1-0.6c0-0.3,0.1-0.5,0.2-0.8c0.1-0.2,0.3-0.4,0.5-0.5c0.2-0.2,0.5-0.3,0.7-0.3c0.7-0.2,1.5-0.1,2.2,0.2v1
			c-0.5-0.3-1-0.4-1.5-0.4c-0.2,0-0.3,0-0.5,0.1c-0.1,0-0.3,0.1-0.4,0.2c-0.1,0.1-0.2,0.2-0.2,0.3c-0.1,0.1-0.1,0.2-0.1,0.4
			c0,0.3,0.1,0.5,0.3,0.7c0.1,0.1,0.3,0.2,0.4,0.2l0.5,0.2c0.2,0.1,0.5,0.2,0.7,0.3c0.2,0.1,0.4,0.2,0.5,0.4
			c0.1,0.1,0.3,0.3,0.3,0.5c0.1,0.2,0.1,0.4,0.1,0.6c0,0.3-0.1,0.5-0.2,0.8c-0.1,0.2-0.3,0.4-0.5,0.6c-0.2,0.1-0.5,0.3-0.8,0.3
			c-0.3,0.1-0.6,0.1-0.9,0.1C178.7,15.9,178.1,15.7,177.6,15.5z"/>
		<path class="st6" d="M183.3,10.8c-0.2,0-0.3-0.1-0.5-0.2c-0.3-0.3-0.3-0.7,0-0.9c0,0,0,0,0,0c0.1-0.1,0.3-0.2,0.5-0.2
			c0.2,0,0.3,0.1,0.5,0.2c0.3,0.3,0.3,0.7,0,0.9c0,0,0,0,0,0C183.6,10.8,183.5,10.8,183.3,10.8z M183.3,15.8c-0.2,0-0.3-0.1-0.5-0.2
			c-0.1-0.1-0.2-0.3-0.2-0.5c0-0.2,0.1-0.3,0.2-0.5c0.1-0.1,0.3-0.2,0.5-0.2c0.2,0,0.3,0.1,0.5,0.2c0.1,0.1,0.2,0.3,0.2,0.5
			c0,0.2-0.1,0.3-0.2,0.5C183.6,15.7,183.5,15.8,183.3,15.8z"/>
		<path class="st6" d="M189.3,7.3l-4,9.8h-0.9l4-9.8L189.3,7.3z"/>
		<path class="st6" d="M193,7.3l-4,9.8h-0.9l4-9.8L193,7.3z"/>
		<path class="st6" d="M198.8,9.7l-2.8,7c-0.5,1.3-1.2,1.9-2.1,1.9c-0.2,0-0.4,0-0.6-0.1v-0.9c0.2,0.1,0.4,0.1,0.6,0.1
			c0.5,0,1-0.4,1.1-0.9l0.5-1.1l-2.4-6h1.1l1.6,4.6c0,0.1,0.1,0.2,0.1,0.5l0,0c0-0.1,0.1-0.2,0.1-0.4l1.7-4.6L198.8,9.7z"/>
		<path class="st6" d="M202.1,15.8c-0.8,0.1-1.6-0.2-2.1-0.8c-0.5-0.6-0.8-1.4-0.8-2.2c0-0.9,0.3-1.7,0.8-2.4
			c0.6-0.6,1.4-0.9,2.2-0.9c0.8,0,1.5,0.3,2.1,0.8c0.5,0.6,0.8,1.5,0.8,2.3c0,0.8-0.3,1.7-0.8,2.3C203.7,15.6,202.9,15.8,202.1,15.8
			z M202.2,10.3c-0.6,0-1.1,0.2-1.5,0.6c-0.4,0.5-0.6,1.1-0.5,1.7c0,0.6,0.2,1.2,0.6,1.7c0.4,0.4,0.9,0.6,1.5,0.6
			c0.5,0,1.1-0.2,1.4-0.6c0.4-0.5,0.5-1.1,0.5-1.7c0-0.6-0.1-1.2-0.5-1.7C203.3,10.5,202.8,10.3,202.2,10.3z"/>
		<path class="st6" d="M211.5,15.7h-1v-0.9l0,0c-0.4,0.7-1.1,1.1-1.9,1.1c-1.4,0-2.1-0.9-2.1-2.6V9.7h1v3.4c0,1.3,0.5,1.9,1.4,1.9
			c0.4,0,0.9-0.2,1.2-0.5c0.3-0.4,0.5-0.9,0.5-1.4V9.7h1L211.5,15.7z"/>
		<path class="st6" d="M216.4,10.6c-0.2-0.1-0.5-0.2-0.7-0.2c-0.4,0-0.8,0.2-1,0.6c-0.3,0.5-0.4,1-0.4,1.6v3.1h-1v-6h1v1.2l0,0
			c0.1-0.4,0.3-0.7,0.6-1c0.3-0.2,0.6-0.4,1-0.4c0.2,0,0.4,0,0.6,0.1L216.4,10.6z"/>
		<path class="st6" d="M217.3,15.5v-1c0.5,0.4,1.1,0.6,1.7,0.6c0.8,0,1.3-0.3,1.3-0.9c0-0.1,0-0.3-0.1-0.4c-0.1-0.1-0.2-0.2-0.3-0.3
			c-0.1-0.1-0.3-0.2-0.4-0.2l-0.5-0.2c-0.2-0.1-0.5-0.2-0.7-0.3c-0.2-0.1-0.4-0.2-0.5-0.4c-0.1-0.1-0.2-0.3-0.3-0.5
			c-0.1-0.2-0.1-0.4-0.1-0.6c0-0.3,0.1-0.5,0.2-0.8c0.1-0.2,0.3-0.4,0.5-0.5c0.2-0.2,0.5-0.3,0.7-0.3c0.3-0.1,0.6-0.1,0.9-0.1
			c0.5,0,1,0.1,1.4,0.3v1c-0.5-0.3-1-0.4-1.5-0.4c-0.2,0-0.3,0-0.5,0.1c-0.1,0-0.3,0.1-0.4,0.2c-0.1,0.1-0.2,0.2-0.2,0.3
			c-0.1,0.1-0.1,0.2-0.1,0.4c0,0.1,0,0.3,0.1,0.4c0.1,0.1,0.1,0.2,0.3,0.3c0.1,0.1,0.3,0.2,0.4,0.2l0.5,0.2c0.2,0.1,0.5,0.2,0.7,0.3
			c0.2,0.1,0.4,0.2,0.5,0.4c0.1,0.1,0.3,0.3,0.4,0.5c0.1,0.2,0.1,0.4,0.1,0.6c0,0.3-0.1,0.5-0.2,0.8c-0.1,0.2-0.3,0.4-0.5,0.6
			c-0.2,0.1-0.5,0.3-0.8,0.3c-0.3,0.1-0.6,0.1-0.9,0.1C218.3,15.9,217.8,15.7,217.3,15.5z"/>
		<path class="st6" d="M223.1,8.1c-0.2,0-0.3-0.1-0.4-0.2c-0.1-0.1-0.2-0.3-0.2-0.4c0-0.2,0.1-0.3,0.2-0.4c0.1-0.1,0.3-0.2,0.4-0.2
			c0.2,0,0.3,0.1,0.4,0.2c0.1,0.1,0.2,0.3,0.2,0.4c0,0.2-0.1,0.3-0.2,0.4C223.5,8.1,223.3,8.1,223.1,8.1z M223.6,15.7h-1v-6h1V15.7z
			"/>
		<path class="st6" d="M228.3,15.6c-0.3,0.1-0.6,0.2-0.9,0.2c-1,0-1.6-0.6-1.6-1.8v-3.6h-1V9.7h1V8.2l1-0.3v1.8h1.5v0.8h-1.5v3.4
			c0,0.3,0,0.6,0.2,0.9c0.2,0.2,0.4,0.3,0.7,0.3c0.2,0,0.4-0.1,0.6-0.2L228.3,15.6z"/>
		<path class="st6" d="M234.3,12.9H230c0,0.6,0.2,1.1,0.5,1.6c0.4,0.4,0.9,0.6,1.5,0.6c0.7,0,1.3-0.2,1.9-0.7v0.9
			c-0.6,0.4-1.4,0.6-2.1,0.6c-0.8,0-1.5-0.3-2-0.8c-0.5-0.7-0.8-1.5-0.7-2.3c0-0.8,0.2-1.7,0.8-2.3c0.5-0.6,1.2-0.9,2-0.9
			c0.7,0,1.4,0.2,1.8,0.8c0.5,0.6,0.7,1.4,0.6,2.1L234.3,12.9z M233.3,12.1c0-0.5-0.1-0.9-0.4-1.3c-0.3-0.3-0.7-0.5-1.1-0.5
			c-0.4,0-0.9,0.2-1.2,0.5c-0.3,0.3-0.5,0.8-0.6,1.3L233.3,12.1z"/>
		<path class="st6" d="M236,15.8c-0.2,0-0.3-0.1-0.5-0.2c-0.1-0.1-0.2-0.3-0.2-0.5c0-0.2,0.1-0.3,0.2-0.5c0.2-0.3,0.6-0.3,0.9,0
			c0,0,0,0,0,0c0.1,0.1,0.2,0.3,0.2,0.5C236.7,15.5,236.4,15.8,236,15.8L236,15.8z"/>
		<path class="st6" d="M242.2,15.4c-0.5,0.3-1.1,0.4-1.6,0.4c-0.8,0-1.5-0.3-2.1-0.8c-0.5-0.6-0.8-1.4-0.8-2.2
			c0-0.9,0.3-1.7,0.9-2.4c0.6-0.6,1.4-0.9,2.3-0.9c0.5,0,1,0.1,1.4,0.3v1c-0.4-0.3-0.9-0.5-1.4-0.5c-0.6,0-1.1,0.2-1.5,0.7
			c-0.4,0.5-0.6,1.1-0.6,1.7c0,0.6,0.2,1.2,0.6,1.7c0.4,0.4,0.9,0.6,1.5,0.6c0.5,0,1.1-0.2,1.5-0.5L242.2,15.4z"/>
		<path class="st6" d="M246,15.8c-0.8,0-1.6-0.3-2.1-0.8c-0.6-0.6-0.8-1.4-0.8-2.2c0-0.9,0.3-1.7,0.8-2.4c0.6-0.6,1.4-0.9,2.2-0.9
			c0.8,0,1.6,0.3,2.1,0.8c0.5,0.6,0.8,1.5,0.8,2.3c0,0.8-0.2,1.7-0.8,2.3C247.6,15.5,246.8,15.8,246,15.8z M246.1,10.3
			c-0.6,0-1.1,0.2-1.5,0.6c-0.4,0.5-0.6,1.1-0.5,1.7c0,0.6,0.2,1.2,0.5,1.7c0.4,0.4,0.9,0.6,1.5,0.6c0.5,0,1.1-0.2,1.4-0.6
			c0.4-0.5,0.5-1.1,0.5-1.7c0-0.6-0.1-1.2-0.5-1.7C247.1,10.5,246.6,10.3,246.1,10.3L246.1,10.3z"/>
		<path class="st6" d="M259,15.7h-1v-3.4c0-0.5-0.1-1-0.3-1.4c-0.2-0.3-0.6-0.5-1-0.4c-0.4,0-0.8,0.2-1,0.6
			c-0.3,0.4-0.4,0.9-0.4,1.4v3.4h-1v-3.6c0-1.2-0.5-1.8-1.4-1.8c-0.4,0-0.8,0.2-1,0.5c-0.3,0.4-0.4,0.9-0.4,1.4v3.4h-1v-6h1v0.9l0,0
			c0.4-0.7,1.1-1.1,1.9-1.1c0.8,0,1.5,0.5,1.7,1.2c0.4-0.8,1.1-1.3,2-1.2c1.3,0,2,0.8,2,2.4L259,15.7z"/>
	</g>
	<g>
		<circle class="st7" cx="138.6" cy="20.6" r="9.8"/>
		<g>
			<path class="st0" d="M140.2,16.3V25h-1.4v-7c-0.3,0.2-0.5,0.3-0.8,0.5c-0.3,0.1-0.6,0.2-1,0.3v-1.2c0.2-0.1,0.5-0.2,0.7-0.2
				c0.2-0.1,0.4-0.2,0.6-0.3c0.2-0.1,0.4-0.2,0.6-0.3c0.2-0.1,0.4-0.3,0.7-0.4H140.2z"/>
		</g>
	</g>
	<g>
		<circle class="st7" cx="139" cy="50.1" r="9.8"/>
		<g>
			<path class="st0" d="M141.7,54.5h-5.4v-0.7c0-0.3,0-0.5,0.1-0.8c0.1-0.2,0.2-0.5,0.3-0.7c0.1-0.2,0.3-0.4,0.4-0.6
				c0.2-0.2,0.4-0.4,0.5-0.5c0.2-0.2,0.4-0.3,0.6-0.5c0.2-0.2,0.4-0.3,0.6-0.5c0.2-0.2,0.3-0.3,0.5-0.5s0.3-0.3,0.4-0.5
				c0.1-0.2,0.2-0.3,0.3-0.5s0.1-0.4,0.1-0.6c0-0.2,0-0.4-0.1-0.6c-0.1-0.2-0.2-0.3-0.3-0.4s-0.3-0.2-0.4-0.3S139,47,138.7,47
				c-0.3,0-0.7,0.1-1.1,0.2c-0.4,0.2-0.7,0.4-1,0.7v-1.3c0.2-0.1,0.4-0.2,0.5-0.3s0.4-0.2,0.6-0.2c0.2-0.1,0.4-0.1,0.6-0.1
				s0.4,0,0.7,0c0.4,0,0.7,0.1,1,0.2c0.3,0.1,0.6,0.3,0.8,0.4c0.2,0.2,0.4,0.4,0.5,0.7s0.2,0.6,0.2,1c0,0.3,0,0.7-0.1,0.9
				c-0.1,0.3-0.2,0.5-0.4,0.8c-0.2,0.2-0.3,0.5-0.6,0.7c-0.2,0.2-0.5,0.4-0.7,0.7c-0.2,0.2-0.5,0.4-0.7,0.5
				c-0.2,0.2-0.4,0.3-0.6,0.5s-0.3,0.3-0.4,0.5s-0.2,0.3-0.2,0.5v0h3.9V54.5z"/>
		</g>
	</g>
	<g>
		<circle class="st7" cx="139" cy="155.9" r="9.8"/>
		<g>
			<path class="st0" d="M141,151.8v5.5h1.3v1.1H141v1.9h-1.3v-1.9h-3.9v-1.2c0.3-0.4,0.7-0.8,1.1-1.3c0.4-0.5,0.7-0.9,1.1-1.4
				c0.3-0.5,0.7-1,0.9-1.4c0.3-0.5,0.5-0.9,0.7-1.4H141z M139.6,157.3v-3.6c-0.4,0.8-0.9,1.5-1.3,2c-0.4,0.6-0.8,1.1-1.2,1.5H139.6z
				"/>
		</g>
	</g>
	<g>
		<circle class="st7" cx="227.6" cy="70.7" r="9.8"/>
		<g>
			<path class="st0" d="M225,74.9v-1.3c0.6,0.4,1.1,0.6,1.7,0.6c0.6,0,1-0.1,1.4-0.4s0.5-0.7,0.5-1.2c0-0.5-0.2-0.9-0.5-1.1
				s-0.9-0.4-1.5-0.4c-0.2,0-0.7,0-1.4,0.1l0.3-4.5h4.2v1.2h-3.1l-0.1,2.1c0.3,0,0.5,0,0.7,0c0.9,0,1.6,0.2,2.1,0.7
				c0.5,0.5,0.7,1.1,0.7,1.9c0,0.8-0.3,1.5-0.8,2c-0.6,0.5-1.3,0.8-2.3,0.8C226.1,75.2,225.4,75.1,225,74.9z"/>
		</g>
	</g>
	<g>
		<circle class="st7" cx="462.6" cy="70.7" r="9.8"/>
		<g>
			<path class="st0" d="M465.5,72.3c0,0.4-0.1,0.8-0.2,1.2s-0.3,0.7-0.6,0.9c-0.3,0.3-0.5,0.5-0.9,0.6c-0.3,0.1-0.7,0.2-1.1,0.2
				c-0.4,0-0.8-0.1-1.2-0.3c-0.4-0.2-0.7-0.4-0.9-0.7s-0.5-0.7-0.6-1.2c-0.1-0.5-0.2-1.1-0.2-1.7c0-0.8,0.1-1.5,0.3-2.1
				c0.2-0.6,0.4-1.1,0.8-1.5s0.7-0.7,1.2-0.9s0.9-0.3,1.4-0.3c0.3,0,0.6,0,0.9,0.1c0.3,0,0.5,0.1,0.6,0.2v1.2
				c-0.2-0.1-0.4-0.2-0.6-0.3c-0.2-0.1-0.5-0.1-0.8-0.1c-0.3,0-0.6,0.1-0.9,0.2c-0.3,0.1-0.5,0.3-0.7,0.6c-0.2,0.3-0.4,0.6-0.5,1
				s-0.2,0.8-0.2,1.3h0c0.2-0.3,0.4-0.5,0.7-0.7c0.3-0.2,0.7-0.2,1.1-0.2c0.4,0,0.7,0.1,1,0.2s0.6,0.3,0.8,0.5
				c0.2,0.2,0.4,0.5,0.5,0.8S465.5,71.9,465.5,72.3z M464.1,72.5c0-0.2,0-0.5-0.1-0.7s-0.1-0.4-0.3-0.5c-0.1-0.1-0.3-0.3-0.4-0.3
				c-0.2-0.1-0.4-0.1-0.6-0.1s-0.4,0-0.6,0.1c-0.2,0.1-0.3,0.2-0.5,0.3s-0.2,0.3-0.3,0.5s-0.1,0.4-0.1,0.5c0,0.2,0,0.4,0.1,0.6
				s0.1,0.4,0.3,0.6s0.3,0.3,0.5,0.4s0.4,0.2,0.7,0.2c0.2,0,0.4,0,0.6-0.1c0.2-0.1,0.3-0.2,0.4-0.3s0.2-0.3,0.3-0.5
				C464.1,72.9,464.1,72.7,464.1,72.5z"/>
		</g>
	</g>
	<g>
		<circle class="st7" cx="462.6" cy="20.6" r="9.8"/>
		<g>
			<path class="st0" d="M465.5,17.2c-0.4,0.7-0.7,1.3-1,1.9c-0.3,0.6-0.6,1.3-0.9,1.9c-0.3,0.6-0.5,1.3-0.7,2s-0.3,1.3-0.4,2h-1.4
				c0.1-0.6,0.2-1.2,0.4-1.8c0.2-0.6,0.4-1.2,0.6-1.8s0.5-1.2,0.8-1.8s0.6-1.2,0.9-1.9h-4v-1.2h5.7V17.2z"/>
		</g>
	</g>
	<g>
		<circle class="st7" cx="139" cy="121.1" r="9.8"/>
		<g>
			<path class="st0" d="M136.4,125.2v-1.3c0.6,0.4,1.2,0.7,1.9,0.7c0.6,0,1-0.1,1.4-0.4c0.3-0.3,0.5-0.6,0.5-1c0-1-0.7-1.5-2.2-1.5
				h-0.7v-1.1h0.6c1.3,0,2-0.5,2-1.4c0-0.8-0.5-1.3-1.5-1.3c-0.6,0-1.1,0.2-1.6,0.6v-1.2c0.6-0.3,1.3-0.5,2.1-0.5
				c0.8,0,1.4,0.2,1.8,0.6c0.5,0.4,0.7,0.9,0.7,1.5c0,1.1-0.6,1.8-1.7,2.2v0c0.6,0.1,1.1,0.3,1.5,0.6c0.4,0.4,0.5,0.8,0.5,1.4
				c0,0.8-0.3,1.4-0.9,1.9s-1.3,0.7-2.3,0.7C137.6,125.7,136.9,125.5,136.4,125.2z"/>
		</g>
	</g>
</g>
<g id="text">
	<g>
		<path class="st6" d="M155.3,47.2h5.4v-0.9h-4.5v-0.7h4.5v-1h-3.2v0.4h-0.8v-4.4h4v-0.8h-5.3v-0.7h5.3v-0.9c-1.4,0-2.9,0.1-4.4,0.1
			c0-0.3-0.1-0.5-0.2-0.8c4,0,7.2-0.2,9.6-0.3l0.1,0.8c-1.4,0.1-2.8,0.1-4.3,0.2v0.9h5.3v0.7h-5.3v0.8h4v4.4h-0.8v-0.4h-3.2v1h4.5
			v0.7h-4.5v0.9h5.3V48h-11.5V47.2z M157.5,42.4h3.2v-1h-3.2V42.4z M157.5,44h3.2v-1h-3.2V44z M164.8,41.4h-3.2v1h3.2V41.4z
			 M161.6,44h3.2v-1h-3.2V44z"/>
		<path class="st6" d="M167.3,47.6c1.3-1.1,2-2.8,2.3-4.9l1,0.2c-0.1,0.7-0.2,1.4-0.4,2c0.6,1.3,1.5,2,2.8,2.2v-5.2h-5.4V41h11.1
			v0.9h-4.8v1.9h4.1v0.9h-4.1v2.5c1.6,0,3.2,0,5.1,0c-0.1,0.3-0.2,0.6-0.3,1c-1.9,0-3.6,0-5,0c-1.8,0-3.1-0.7-3.9-2.1
			c-0.4,1-1,1.9-1.8,2.6C167.7,48.2,167.5,47.9,167.3,47.6z M168,38.3h5c-0.2-0.3-0.5-0.7-0.7-1l0.9-0.5c0.3,0.4,0.6,0.7,1,1.2
			l-0.5,0.3h4.7v2.2h-0.9v-1.3h-8.5v1.3H168V38.3z"/>
		<path class="st6" d="M181.1,48.3h-0.9v-9.6h3.5c0.2-0.6,0.4-1.2,0.6-1.8l1,0.3c-0.2,0.5-0.4,1.1-0.6,1.5h5.5v8.2
			c0,0.9-0.4,1.3-1.3,1.3c-0.5,0-1.1,0-1.8,0c0-0.3-0.1-0.6-0.2-0.9c0.7,0.1,1.2,0.1,1.7,0.1c0.4,0,0.6-0.2,0.6-0.7v-7.2h-8.1V48.3z
			 M182.7,41.2h4.9v4.1h-4v0.8h-0.9V41.2z M186.6,42.1h-3.1v2.4h3.1V42.1z"/>
	</g>
	<g>
		<rect x="241.4" y="75.5" class="st8" width="73.2" height="26.3"/>
		<path class="st6" d="M241.6,82.2c0.5-0.2,1-0.4,1.5-0.7v-2.6h-1.4v-0.8h1.4v-2.3h0.9v2.3h1.3v0.8h-1.3v2.2
			c0.4-0.2,0.8-0.4,1.2-0.6c0,0.4,0.1,0.7,0.1,0.9c-0.4,0.2-0.8,0.4-1.3,0.6V86c0,0.8-0.4,1.2-1.1,1.2c-0.3,0-0.6,0-0.9,0
			c0-0.3-0.1-0.6-0.1-1c0.4,0,0.7,0,0.9,0c0.3,0,0.5-0.1,0.5-0.4v-3.3c-0.4,0.2-0.9,0.5-1.4,0.7L241.6,82.2z M245.9,82.6v-0.8h6.1
			v0.8c-0.5,1.1-1.2,2-2.1,2.7c0.9,0.5,2.1,0.9,3.4,1c-0.3,0.3-0.5,0.7-0.7,0.9c-1.4-0.3-2.6-0.8-3.6-1.4c-1.1,0.7-2.4,1.2-4,1.5
			c-0.2-0.3-0.3-0.6-0.6-0.9c1.5-0.2,2.8-0.7,3.8-1.2c-0.8-0.7-1.4-1.6-1.8-2.7H245.9z M245.5,79.7h5c0.4-0.7,0.8-1.5,1.2-2.2
			l0.9,0.4c-0.4,0.6-0.7,1.2-1.1,1.8h1.5v1.8h-0.9v-1h-5.7v1h-0.9V79.7z M245.7,77.5c0-0.3-0.1-0.6-0.2-0.9c2.6-0.1,5-0.2,7.2-0.4
			l0.2,0.8C250.5,77.2,248.1,77.4,245.7,77.5z M246.1,78l0.7-0.4c0.3,0.5,0.6,1,0.9,1.5l-0.8,0.4C246.7,79,246.4,78.5,246.1,78z
			 M251,82.6h-3.5c0.4,0.9,0.9,1.6,1.6,2.2C250,84.2,250.6,83.5,251,82.6z M248.4,77.8l0.7-0.3c0.3,0.6,0.6,1.1,0.9,1.6l-0.8,0.4
			C248.9,78.8,248.7,78.3,248.4,77.8z"/>
		<path class="st6" d="M253.5,83.2c0.8-1.2,1.4-2.6,1.8-4.1h-1.7v-0.8h1.8v-2.5h0.9v2.5h1.7v0.8h-1.7v1.5l0.5-0.5
			c0.7,0.7,1.3,1.3,1.7,1.8l-0.7,0.7c-0.5-0.7-1-1.2-1.5-1.7v6.5h-0.9v-6.4c-0.4,1.3-0.9,2.4-1.5,3.3
			C253.8,83.9,253.7,83.6,253.5,83.2z M257.8,77.5v-0.9h6.7v0.9c-0.4,2.7-1.2,4.9-2.5,6.6c0.8,0.9,2,1.6,3.4,2.1
			c-0.3,0.4-0.6,0.7-0.8,1c-1.3-0.7-2.4-1.5-3.2-2.3c-0.9,0.9-2.1,1.8-3.7,2.6c-0.2-0.3-0.4-0.6-0.7-0.9c1.6-0.8,2.9-1.6,3.8-2.5
			c-1.2-1.5-1.9-3.7-2.2-6.6H257.8z M263.4,77.5h-4c0.2,2.5,0.9,4.5,1.9,5.8C262.4,81.9,263.1,79.9,263.4,77.5z"/>
		<path class="st6" d="M265.4,81.4c1.2-1.6,2.2-3.5,2.9-5.6l0.9,0.3c-0.3,0.9-0.7,1.8-1.1,2.5v8.7h-1v-6.9c-0.4,0.7-0.9,1.4-1.4,2
			C265.7,82.1,265.6,81.8,265.4,81.4z M268.8,79.9l2.8-0.3c-0.1-1-0.2-2.2-0.2-3.7h1c0,1.2,0,2.4,0.1,3.6l4.3-0.5l0.1,0.9l-4.3,0.5
			c0.4,3.2,1.3,5.2,2.5,5.8c0.3,0.1,0.6,0,0.7-0.3c0.1-0.6,0.3-1.2,0.4-1.9c0.3,0.1,0.6,0.3,0.9,0.3c-0.1,0.8-0.3,1.4-0.4,2
			c-0.2,0.7-0.6,1-1.3,1c-0.7,0-1.3-0.4-1.9-1.2c-0.9-1.1-1.5-2.9-1.9-5.6l-2.7,0.3L268.8,79.9z M273.5,76.8l0.6-0.6
			c0.7,0.5,1.4,1.1,2.1,1.7l-0.7,0.7C274.8,78,274.2,77.3,273.5,76.8z"/>
		<path class="st6" d="M277.4,82.3c1-1.3,1.6-2.8,2.1-4.5h-1.7v-0.9h4.4v0.9h-1.8c-0.2,1-0.6,1.9-0.9,2.7h2.3v6.4h-0.8v-0.8h-1.5v1
			h-0.8v-4.9c-0.2,0.3-0.4,0.7-0.7,1C277.8,82.9,277.7,82.6,277.4,82.3z M280.9,81.3h-1.5v4h1.5V81.3z M282.2,83.6h4.9v0.8h-4.9
			V83.6z M284.1,77.8l-0.3,3.4h2.8l0.4-3.9h-4.3v-0.8h5.3l-0.5,4.7h1.2c-0.1,1.6-0.1,3-0.2,4.1c-0.1,1.2-0.6,1.7-1.7,1.7
			c-0.5,0-1.1,0-1.8,0c0-0.3-0.1-0.6-0.2-1c0.6,0.1,1.2,0.1,1.7,0.1c0.6,0,0.9-0.3,1-1c0.1-0.9,0.1-1.9,0.1-3.1h-4.9l0.4-4.3H284.1z
			"/>
	</g>
	<g>
		<g>
			<path class="st6" d="M52.1,112.7l-2.2,8.4h-2.1l-1.4-5.4c-0.1-0.3-0.1-0.6-0.1-0.9h0c0,0.4-0.1,0.7-0.2,0.9l-1.4,5.4h-2.2
				l-2.2-8.4h2.1l1.2,5.6c0.1,0.2,0.1,0.6,0.1,1h0c0-0.3,0.1-0.6,0.2-1l1.5-5.6h2l1.4,5.6c0.1,0.2,0.1,0.5,0.1,0.9h0
				c0-0.3,0.1-0.6,0.1-0.9l1.2-5.6H52.1z"/>
			<path class="st6" d="M58,118.6h-3.9c0.1,0.9,0.6,1.3,1.6,1.3c0.7,0,1.2-0.2,1.7-0.5v1.3c-0.6,0.3-1.3,0.4-2.2,0.4
				c-1,0-1.7-0.3-2.3-0.8s-0.8-1.3-0.8-2.2c0-1,0.3-1.8,0.9-2.4s1.3-0.9,2.1-0.9c0.9,0,1.6,0.3,2,0.8s0.7,1.2,0.7,2.1V118.6z
				 M56.3,117.5c0-0.9-0.3-1.3-1-1.3c-0.3,0-0.6,0.1-0.8,0.4s-0.3,0.6-0.4,0.9H56.3z"/>
			<path class="st6" d="M61,120.4L61,120.4l0,0.7h-1.9v-8.9H61v3.8h0c0.5-0.7,1.1-1,2-1c0.8,0,1.4,0.3,1.8,0.8s0.6,1.3,0.6,2.2
				c0,1-0.2,1.8-0.7,2.4s-1.1,0.9-2,0.9C61.9,121.3,61.4,121,61,120.4z M60.9,117.9v0.6c0,0.4,0.1,0.7,0.3,1s0.5,0.4,0.9,0.4
				c0.4,0,0.7-0.2,1-0.5s0.3-0.8,0.3-1.4c0-0.5-0.1-0.9-0.3-1.2s-0.5-0.4-0.9-0.4c-0.4,0-0.7,0.1-0.9,0.4S60.9,117.4,60.9,117.9z"/>
			<path class="st6" d="M36,128.6c0.6,0.5,1.2,0.9,1.7,1.4l-1,1.2c-0.5-0.5-1-1-1.6-1.5L36,128.6z M36.3,131.9
				c0.5,0.2,0.9,0.4,1.4,0.6c-0.3,1.2-0.6,2.7-1,4.4c-0.5-0.2-1-0.3-1.5-0.5C35.5,135.5,35.9,134,36.3,131.9z M36.2,125.5
				c0.4,0.4,1,0.8,1.6,1.4l-1.1,1.1c-0.6-0.6-1.1-1.1-1.5-1.5L36.2,125.5z M42.1,128.5c-0.1,1.6-0.4,3.1-1,4.5
				c0.5,0.9,0.9,1.7,1.4,2.5l-1.4,0.7c-0.3-0.6-0.5-1.1-0.8-1.6c-0.5,0.8-1.1,1.6-1.8,2.4c-0.4-0.5-0.8-0.9-1.1-1.2
				c0.9-0.9,1.6-1.8,2.1-2.8c-0.6-1.3-1.2-2.4-1.7-3.3l1.2-0.7c0.4,0.7,0.8,1.5,1.2,2.2c0.3-0.9,0.4-1.8,0.5-2.8h-2.9v-1.3h1.9
				c-0.2-0.4-0.5-0.8-0.7-1.2l1.3-0.6c0.4,0.5,0.7,1,0.9,1.5l-0.8,0.4h2.1v1.3H42.1z M44.1,134.2h-1.3v-7.5h1.3V134.2z M46.3,125.5
				v9.9c0,0.9-0.5,1.4-1.5,1.5c-0.3,0-0.9,0.1-1.6,0.1c-0.1-0.6-0.2-1.1-0.4-1.6c0.5,0,0.9,0,1.3,0c0.5,0,0.7-0.3,0.7-0.8v-9.1H46.3
				z"/>
			<path class="st6" d="M52.1,132.2h1.7c-0.1,0.4-0.2,0.8-0.3,1.1h0.6v1.3c0,0.5,0.2,0.7,0.7,0.7h1.3c0.3,0,0.5,0,0.7-0.1
				s0.3-0.2,0.3-0.3s0.1-0.7,0.2-1.6c0.4,0.2,0.9,0.4,1.5,0.6c-0.2,1.1-0.3,1.8-0.4,2s-0.3,0.5-0.6,0.7s-0.6,0.2-1.1,0.2h-2.4
				c-1.2,0-1.8-0.5-1.8-1.6c-0.8,1.1-2.4,1.7-4.6,1.9c-0.3-0.6-0.6-1.1-0.8-1.5c1.9-0.2,3.2-0.5,3.7-0.9
				C51.5,134.2,51.9,133.4,52.1,132.2z M47.8,125.8h1.4v4.1h-1.4V125.8z M48.3,134.6v-4.3H57v4h-1.6v-2.6h-5.5v2.9H48.3z
				 M53.7,125.5h1.6c-0.1,0.3-0.3,0.6-0.4,0.9h3.6v1.3h-2.6c0.6,0.6,1.1,1.1,1.6,1.6l-1.3,0.9c-0.5-0.7-1-1.3-1.6-1.9l0.8-0.6h-1.1
				c-0.5,0.8-1,1.5-1.6,2.1c-0.3-0.4-0.7-0.8-1-1.1v1.2h-1.6v-4.5h1.6v3.2C52.5,127.7,53.1,126.7,53.7,125.5z"/>
			<path class="st6" d="M65.4,136.9v-3.8h2.4c-1.3-0.3-2.3-0.8-2.9-1.4c-0.5,0.6-1.6,1.1-3.1,1.4h2.7v3.8h-1.4v-0.4h-1.9v0.4h-1.4
				v-3.6c-0.2,0-0.3,0-0.5,0c0-0.4-0.1-0.8-0.2-1.2c2.4-0.1,3.9-0.4,4.4-1h-4.2V130h4.8c0-0.2,0.1-0.4,0.1-0.6h1.6
				c0,0.2,0,0.4-0.1,0.6h1.6l-0.2-0.5l1.5-0.2l0.3,0.6h1.8v1.2H66c0.8,0.6,2.4,1,4.8,1c-0.1,0.4-0.2,0.8-0.3,1.2c-0.2,0-0.3,0-0.5,0
				v3.5h-1.4v-0.4h-1.9v0.4H65.4z M59.9,125.9h4.6v3.3h-4.6V125.9z M63.1,134.3h-1.9v1h1.9V134.3z M63.1,128v-0.9h-1.7v0.9H63.1z
				 M65.4,125.9H70v3.3h-4.6V125.9z M68.6,134.3h-1.9v1h1.9V134.3z M68.5,128v-0.9h-1.7v0.9H68.5z"/>
		</g>
	</g>
	<g>
		<rect x="349.5" y="27.2" class="st8" width="66" height="26.3"/>
		<path class="st0" d="M360.2,34.1c0,1.1-0.3,2-0.8,2.6s-1.3,0.9-2.3,0.9c-0.4,0-0.8-0.1-1.2-0.2v-1.8c0.3,0.2,0.7,0.4,1.1,0.4
			c0.9,0,1.3-0.6,1.3-1.9v-5h1.9V34.1z"/>
		<path class="st0" d="M366.8,37.4H365v-0.9h0c-0.4,0.7-1,1-1.8,1c-0.6,0-1-0.2-1.4-0.5s-0.5-0.8-0.5-1.3c0-1.2,0.7-1.8,2.1-2
			l1.6-0.2c0-0.7-0.4-1-1.1-1c-0.7,0-1.4,0.2-2,0.6v-1.4c0.3-0.1,0.6-0.3,1.1-0.4s0.9-0.2,1.2-0.2c1.7,0,2.6,0.9,2.6,2.6V37.4z
			 M365,35v-0.4l-1.1,0.1c-0.6,0.1-0.9,0.3-0.9,0.8c0,0.2,0.1,0.4,0.2,0.5s0.3,0.2,0.6,0.2c0.3,0,0.6-0.1,0.8-0.4S365,35.3,365,35z"
			/>
		<path class="st0" d="M374,31.4l-2.2,6h-2.1l-2.1-6h2l1,3.7c0.1,0.4,0.2,0.8,0.2,1.1h0c0-0.3,0.1-0.6,0.2-1l1.1-3.7H374z"/>
		<path class="st0" d="M379.6,37.4h-1.8v-0.9h0c-0.4,0.7-1,1-1.8,1c-0.6,0-1-0.2-1.4-0.5s-0.5-0.8-0.5-1.3c0-1.2,0.7-1.8,2.1-2
			l1.6-0.2c0-0.7-0.4-1-1.1-1c-0.7,0-1.4,0.2-2,0.6v-1.4c0.3-0.1,0.6-0.3,1.1-0.4s0.9-0.2,1.2-0.2c1.7,0,2.6,0.9,2.6,2.6V37.4z
			 M377.8,35v-0.4l-1.1,0.1c-0.6,0.1-0.9,0.3-0.9,0.8c0,0.2,0.1,0.4,0.2,0.5s0.3,0.2,0.6,0.2c0.3,0,0.6-0.1,0.8-0.4
			S377.8,35.3,377.8,35z"/>
		<path class="st0" d="M395.5,29l-2.2,8.4h-2.1l-1.4-5.4c-0.1-0.3-0.1-0.6-0.1-0.9h0c0,0.4-0.1,0.7-0.2,0.9l-1.4,5.4h-2.2l-2.2-8.4
			h2.1l1.2,5.6c0.1,0.2,0.1,0.6,0.1,1h0c0-0.3,0.1-0.6,0.2-1l1.5-5.6h2l1.4,5.6c0.1,0.2,0.1,0.5,0.1,0.9h0c0-0.3,0.1-0.6,0.1-0.9
			l1.2-5.6H395.5z"/>
		<path class="st0" d="M401.5,34.9h-3.9c0.1,0.9,0.6,1.3,1.6,1.3c0.7,0,1.2-0.2,1.7-0.5v1.3c-0.6,0.3-1.3,0.4-2.2,0.4
			c-1,0-1.7-0.3-2.3-0.8s-0.8-1.3-0.8-2.2c0-1,0.3-1.8,0.9-2.4c0.6-0.6,1.3-0.9,2.1-0.9c0.9,0,1.6,0.3,2,0.8
			c0.5,0.5,0.7,1.2,0.7,2.1V34.9z M399.7,33.8c0-0.9-0.3-1.3-1-1.3c-0.3,0-0.6,0.1-0.8,0.4s-0.3,0.6-0.4,0.9H399.7z"/>
		<path class="st0" d="M404.4,36.7L404.4,36.7l0,0.7h-1.9v-8.9h1.9v3.8h0c0.5-0.7,1.1-1,2-1c0.8,0,1.4,0.3,1.8,0.8
			c0.4,0.5,0.6,1.3,0.6,2.2c0,1-0.2,1.8-0.7,2.4s-1.1,0.9-2,0.9C405.4,37.6,404.8,37.3,404.4,36.7z M404.4,34.2v0.6
			c0,0.4,0.1,0.7,0.3,1s0.5,0.4,0.9,0.4c0.4,0,0.7-0.2,1-0.5s0.3-0.8,0.3-1.4c0-0.5-0.1-0.9-0.3-1.2s-0.5-0.4-0.9-0.4
			c-0.4,0-0.7,0.1-0.9,0.4S404.4,33.7,404.4,34.2z"/>
		<path class="st0" d="M361.2,47.2c0,3-0.4,5.1-1.2,6.3c-0.4-0.3-0.8-0.7-1.3-1.1c0.7-1.1,1-2.9,1-5.4v-3.7h4.5
			c-0.1-0.4-0.3-0.7-0.4-1l1.9-0.4c0.2,0.4,0.4,0.9,0.6,1.5h4v1.4h-9V47.2z M361,51.3h5.6c0.5-1.5,1-3.5,1.7-5.9l1.6,0.4
			c-0.4,1.5-1,3.3-1.7,5.5h2v1.6H361V51.3z M361.3,46.3l1.4-0.6c0.7,1.5,1.3,3,1.9,4.6l-1.6,0.6C362.5,49.5,361.9,47.9,361.3,46.3z
			 M364.1,45.7l1.5-0.4c0.4,1.1,0.9,2.5,1.3,4.2l-1.6,0.4C364.9,48.2,364.5,46.8,364.1,45.7z"/>
		<path class="st0" d="M381.6,51.7c0,0.5-0.1,0.9-0.3,1.2s-0.6,0.4-1,0.5s-1.1,0.1-1.8,0.1c-0.1-0.6-0.3-1.2-0.5-1.7
			c0.8,0,1.2,0.1,1.3,0.1c0.5,0,0.7-0.2,0.7-0.7v-1.1h-2.4v3.3h-1.7v-3.3h-2.5c-0.1,1.7-0.5,2.9-1,3.6c-0.5-0.4-1-0.7-1.5-1
			c0.6-0.9,0.9-2.4,0.9-4.6v-5.5h9.9V51.7z M373.4,45.5h2.5V44h-2.5V45.5z M373.4,48.4h2.5V47h-2.5V48.4z M380,44h-2.4v1.5h2.4V44z
			 M377.5,48.4h2.4V47h-2.4V48.4z"/>
		<path class="st0" d="M382.7,45.4h1.6v-1.3c-0.5,0-0.9,0.1-1.4,0.1c-0.1-0.6-0.1-1.1-0.2-1.5c1.2-0.1,2.6-0.2,4.2-0.5l0.4,1.5
			c-0.5,0.1-1,0.2-1.4,0.2v1.5h1.3v1.4h-1.3v1.3l0.3-0.3c0.4,0.3,0.9,0.8,1.5,1.4l-1,1c-0.3-0.3-0.5-0.7-0.8-1v4.4h-1.5V49
			c-0.3,0.9-0.6,1.7-1.1,2.5c-0.1-0.7-0.3-1.3-0.6-2c0.5-0.7,1-1.6,1.4-2.8h-1.3V45.4z M386.7,51.8h3.1v-1h-2.3v-1.3h2.3v-1h-2.5
			v-1.4h6.8v1.4h-2.6v1h2.3v1.3h-2.3v1h2.9v1.4h-7.6V51.8z M387.5,42.4h6.1v3.9h-6.1V42.4z M392.1,43.8h-3V45h3V43.8z"/>
		<path class="st0" d="M397.2,47.2c0,2.9-0.4,5-1.2,6.3l-1.3-1.1c0.7-1.1,1-2.9,1-5.4v-4h4.3c-0.1-0.3-0.2-0.5-0.3-0.7l1.9-0.4
			L402,43h4.1v1.4h-9V47.2z M405.6,45.2v1.4l-2.7,1.8h3.3v1.3l-0.9,2l-1.4-0.4l0.7-1.5h-1.9v1.9c0,0.5-0.1,0.9-0.3,1.1
			s-0.5,0.4-0.9,0.5s-1.2,0.1-2.5,0.1c-0.1-0.6-0.2-1.1-0.3-1.5c0.9,0,1.4,0.1,1.6,0.1c0.5,0,0.7-0.3,0.7-0.8v-1.3h-3.5v-1.4h3
			c-0.6-0.4-1.2-0.8-1.8-1.1l0.8-0.8h-1.6v-1.4H405.6z M403.4,46.6H400l1.7,1.1L403.4,46.6z"/>
	</g>
	<g>
		<rect x="574.5" y="64" class="st8" width="66" height="41.9"/>
		<path class="st0" d="M590.6,74.2h-1.9v-5c0-0.5,0-1.1,0.1-1.8h0c-0.1,0.5-0.2,0.9-0.3,1.1l-2,5.7h-1.5l-2-5.7
			c-0.1-0.2-0.1-0.5-0.3-1.2h-0.1c0.1,0.8,0.1,1.6,0.1,2.2v4.6H581v-8.4h2.8l1.7,5c0.1,0.4,0.2,0.8,0.3,1.2h0
			c0.1-0.5,0.2-0.9,0.3-1.2l1.7-5h2.7V74.2z"/>
		<path class="st0" d="M593.3,67.3c-0.3,0-0.6-0.1-0.8-0.3s-0.3-0.4-0.3-0.7c0-0.3,0.1-0.5,0.3-0.7s0.5-0.3,0.8-0.3
			c0.3,0,0.6,0.1,0.8,0.3s0.3,0.4,0.3,0.7c0,0.3-0.1,0.5-0.3,0.7S593.6,67.3,593.3,67.3z M594.2,74.2h-1.9v-6h1.9V74.2z"/>
		<path class="st0" d="M600.3,74c-0.4,0.2-1,0.4-1.8,0.4c-0.9,0-1.7-0.3-2.2-0.8s-0.9-1.3-0.9-2.2c0-1,0.3-1.8,0.9-2.4
			s1.4-0.9,2.5-0.9c0.7,0,1.2,0.1,1.5,0.3v1.6c-0.4-0.3-0.8-0.4-1.3-0.4c-0.5,0-1,0.2-1.3,0.5s-0.5,0.7-0.5,1.3
			c0,0.5,0.1,0.9,0.4,1.3s0.7,0.5,1.2,0.5c0.5,0,0.9-0.1,1.4-0.4V74z"/>
		<path class="st0" d="M605.4,69.9c-0.2-0.1-0.5-0.2-0.8-0.2c-0.4,0-0.7,0.1-0.9,0.4s-0.3,0.7-0.3,1.2v2.9h-1.9v-6h1.9v1.1h0
			c0.3-0.8,0.8-1.2,1.6-1.2c0.2,0,0.3,0,0.5,0.1V69.9z"/>
		<path class="st0" d="M609.1,74.4c-1,0-1.8-0.3-2.4-0.8s-0.9-1.3-0.9-2.3c0-1,0.3-1.8,0.9-2.3s1.4-0.8,2.4-0.8c1,0,1.8,0.3,2.3,0.8
			s0.8,1.3,0.8,2.2c0,1-0.3,1.8-0.9,2.4S610.2,74.4,609.1,74.4z M609.2,69.5c-0.4,0-0.8,0.2-1,0.5s-0.4,0.7-0.4,1.3
			c0,1.2,0.5,1.7,1.4,1.7c0.9,0,1.3-0.6,1.3-1.8C610.5,70.1,610.1,69.5,609.2,69.5z"/>
		<path class="st0" d="M613.3,74.1v-1.5c0.3,0.2,0.6,0.3,0.9,0.4s0.6,0.1,0.9,0.1c0.3,0,0.6,0,0.8-0.1s0.3-0.2,0.3-0.4
			c0-0.1,0-0.2-0.1-0.3s-0.2-0.1-0.3-0.2s-0.3-0.1-0.4-0.2s-0.3-0.1-0.5-0.2c-0.2-0.1-0.4-0.2-0.6-0.3s-0.3-0.2-0.5-0.4
			s-0.2-0.3-0.3-0.5s-0.1-0.4-0.1-0.6c0-0.3,0.1-0.6,0.2-0.9s0.3-0.4,0.6-0.6s0.5-0.3,0.8-0.3s0.6-0.1,1-0.1c0.3,0,0.5,0,0.8,0.1
			s0.5,0.1,0.8,0.2v1.4c-0.2-0.1-0.5-0.2-0.8-0.3s-0.5-0.1-0.8-0.1c-0.1,0-0.2,0-0.3,0s-0.2,0.1-0.3,0.1s-0.1,0.1-0.2,0.2
			s-0.1,0.1-0.1,0.2c0,0.1,0,0.2,0.1,0.3s0.2,0.1,0.3,0.2s0.2,0.1,0.4,0.2s0.3,0.1,0.4,0.1c0.2,0.1,0.5,0.2,0.7,0.3s0.4,0.2,0.5,0.4
			s0.3,0.3,0.3,0.5s0.1,0.4,0.1,0.7c0,0.4-0.1,0.7-0.2,0.9s-0.4,0.5-0.6,0.6s-0.6,0.3-0.9,0.3s-0.7,0.1-1,0.1
			C614.4,74.4,613.8,74.3,613.3,74.1z"/>
		<path class="st0" d="M621.8,74.4c-1,0-1.8-0.3-2.4-0.8s-0.9-1.3-0.9-2.3c0-1,0.3-1.8,0.9-2.3s1.4-0.8,2.4-0.8c1,0,1.8,0.3,2.3,0.8
			s0.8,1.3,0.8,2.2c0,1-0.3,1.8-0.9,2.4S622.8,74.4,621.8,74.4z M621.9,69.5c-0.4,0-0.8,0.2-1,0.5s-0.4,0.7-0.4,1.3
			c0,1.2,0.5,1.7,1.4,1.7c0.9,0,1.3-0.6,1.3-1.8C623.2,70.1,622.8,69.5,621.9,69.5z"/>
		<path class="st0" d="M630,66.8c-0.2-0.1-0.5-0.1-0.7-0.1c-0.6,0-0.9,0.3-0.9,1v0.6h1.4v1.4h-1.4v4.6h-1.8v-4.6h-1v-1.4h1v-0.7
			c0-0.7,0.2-1.2,0.7-1.7s1.1-0.6,1.8-0.6c0.4,0,0.7,0,0.9,0.1V66.8z"/>
		<path class="st0" d="M634.6,74.2c-0.3,0.1-0.7,0.2-1.2,0.2c-1.3,0-2-0.7-2-2v-2.7h-1v-1.4h1v-1.3l1.8-0.5v1.8h1.3v1.4h-1.3V72
			c0,0.6,0.2,0.9,0.7,0.9c0.2,0,0.4-0.1,0.6-0.2V74.2z"/>
		<path class="st0" d="M583.5,85.4c0.6-1,1-2.1,1.3-3.2h-1.3v-1.5h1.3v-2.1h1.4v2.1h1.1v1.5h-1.1v1.4c0.5,0.3,1,0.6,1.4,0.8
			l-0.7,1.3c-0.2-0.1-0.4-0.3-0.7-0.5v5H585v-4.8c-0.3,0.8-0.6,1.5-1.1,2.2C583.8,86.8,583.7,86.1,583.5,85.4z M588.5,84.5l1.4,0.4
			c-0.5,1.5-1,2.8-1.5,3.9c-0.5-0.3-1-0.4-1.4-0.6C587.6,87.2,588.1,85.9,588.5,84.5z M587.6,82.2h7.5v1.5h-3v5c0,0.4-0.1,0.7-0.3,1
			s-0.6,0.4-1,0.4s-1,0-1.8,0c-0.1-0.6-0.2-1.2-0.3-1.6c0.4,0,0.8,0.1,1.1,0.1c0.5,0,0.7-0.2,0.7-0.6v-4.2h-3V82.2z M588,79.3h6.6
			v1.5H588V79.3z M593.9,84.6c0.5,1.2,1,2.4,1.4,3.7l-1.4,0.6c-0.5-1.4-0.9-2.6-1.4-3.8L593.9,84.6z"/>
		<path class="st0" d="M599.6,85.8c0.1,0.7,0.2,1.3,0.3,1.7c-1.1,0.8-1.9,1.5-2.5,2.1l-0.8-1.1c0.2-0.3,0.3-0.6,0.3-1v-3.8h-1.2
			v-1.6h2.8v4.5L599.6,85.8z M597.6,78.7c0.5,0.7,1,1.4,1.6,2.2l-1.5,0.9c-0.5-0.8-0.9-1.6-1.4-2.3L597.6,78.7z M601.3,86l1.4,0.9
			c-0.9,1.2-1.8,2.3-2.7,3.4c-0.4-0.4-0.8-0.7-1.3-1.1C599.6,88.3,600.5,87.2,601.3,86z M599.8,79.3h6.6v6.3h-6.6V79.3z M604.8,84.2
			v-3.5h-3.4v3.5H604.8z M604.8,86c0.9,1,1.8,2.1,2.6,3.2l-1.5,1c-0.8-1.2-1.6-2.3-2.5-3.4L604.8,86z"/>
		<path class="st0" d="M607.8,85h4.8v-4.3h-4.3v-1.5h10.4v1.5h-4.3V85h4.8v1.5h-4.8v3.6h-1.8v-3.6h-4.8V85z M608.5,81.7l1.2-0.8
			c0.8,0.9,1.5,1.8,2.3,2.9l-1.4,0.9C609.8,83.5,609.1,82.5,608.5,81.7z M618.7,81.8c-0.8,1-1.7,2-2.6,2.9l-1.2-1
			c0.9-0.9,1.7-1.9,2.4-2.9L618.7,81.8z"/>
		<path class="st0" d="M628.1,80c1.2,1.2,2.3,2.3,3.3,3.5l-1.3,1.1l-0.9-1.1c-3.4,0.1-6.3,0.2-8.8,0.4l-0.6-1.4
			c1.5-1,3.1-2.3,4.6-4.1l1.5,0.8c-1.1,1-2.3,2.1-3.5,3.1l5.6-0.2l-1.2-1.3L628.1,80z M621,90.2v-5.5h9v5.5h-1.6v-0.7h-5.8v0.7H621z
			 M628.4,86.1h-5.8V88h5.8V86.1z"/>
	</g>
	<g>
		<rect x="474.6" y="75.5" class="st8" width="73.2" height="26.3"/>
		<path class="st6" d="M474.8,82.2c0.5-0.2,1-0.4,1.5-0.7v-2.6h-1.4v-0.8h1.4v-2.3h0.9v2.3h1.3v0.8h-1.3v2.2
			c0.4-0.2,0.8-0.4,1.2-0.6c0,0.4,0.1,0.7,0.1,0.9c-0.4,0.2-0.8,0.4-1.3,0.6V86c0,0.8-0.4,1.2-1.1,1.2c-0.3,0-0.6,0-0.9,0
			c0-0.3-0.1-0.6-0.1-1c0.4,0,0.7,0,0.9,0c0.3,0,0.5-0.1,0.5-0.4v-3.3c-0.4,0.2-0.9,0.5-1.4,0.7L474.8,82.2z M479.1,82.6v-0.8h6.1
			v0.8c-0.5,1.1-1.2,2-2.1,2.7c0.9,0.5,2.1,0.9,3.4,1c-0.3,0.3-0.5,0.7-0.7,0.9c-1.4-0.3-2.6-0.8-3.6-1.4c-1.1,0.7-2.4,1.2-4,1.5
			c-0.2-0.3-0.3-0.6-0.6-0.9c1.5-0.2,2.8-0.7,3.8-1.2c-0.8-0.7-1.4-1.6-1.8-2.7H479.1z M478.7,79.7h5c0.4-0.7,0.8-1.5,1.2-2.2
			l0.9,0.4c-0.4,0.6-0.7,1.2-1.1,1.8h1.5v1.8h-0.9v-1h-5.7v1h-0.9V79.7z M478.9,77.5c0-0.3-0.1-0.6-0.2-0.9c2.6-0.1,5-0.2,7.2-0.4
			l0.2,0.8C483.7,77.2,481.3,77.4,478.9,77.5z M479.3,78l0.7-0.4c0.3,0.5,0.6,1,0.9,1.5l-0.8,0.4C479.9,79,479.6,78.5,479.3,78z
			 M484.2,82.6h-3.5c0.4,0.9,0.9,1.6,1.6,2.2C483.2,84.2,483.8,83.5,484.2,82.6z M481.6,77.8l0.7-0.3c0.3,0.6,0.6,1.1,0.9,1.6
			l-0.8,0.4C482.1,78.8,481.9,78.3,481.6,77.8z"/>
		<path class="st6" d="M486.7,83.2c0.8-1.2,1.4-2.6,1.8-4.1h-1.7v-0.8h1.8v-2.5h0.9v2.5h1.7v0.8h-1.7v1.5l0.5-0.5
			c0.7,0.7,1.3,1.3,1.7,1.8l-0.7,0.7c-0.5-0.7-1-1.2-1.5-1.7v6.5h-0.9v-6.4c-0.4,1.3-0.9,2.4-1.5,3.3
			C487,83.9,486.9,83.6,486.7,83.2z M491,77.5v-0.9h6.7v0.9c-0.4,2.7-1.2,4.9-2.5,6.6c0.8,0.9,2,1.6,3.4,2.1c-0.3,0.4-0.6,0.7-0.8,1
			c-1.3-0.7-2.4-1.5-3.2-2.3c-0.9,0.9-2.1,1.8-3.7,2.6c-0.2-0.3-0.4-0.6-0.7-0.9c1.6-0.8,2.9-1.6,3.8-2.5c-1.2-1.5-1.9-3.7-2.2-6.6
			H491z M496.6,77.5h-4c0.2,2.5,0.9,4.5,1.9,5.8C495.6,81.9,496.3,79.9,496.6,77.5z"/>
		<path class="st6" d="M498.6,81.4c1.2-1.6,2.2-3.5,2.9-5.6l0.9,0.3c-0.3,0.9-0.7,1.8-1.1,2.5v8.7h-1v-6.9c-0.4,0.7-0.9,1.4-1.4,2
			C498.9,82.1,498.8,81.8,498.6,81.4z M502,79.9l2.8-0.3c-0.1-1-0.2-2.2-0.2-3.7h1c0,1.2,0,2.4,0.1,3.6l4.3-0.5l0.1,0.9l-4.3,0.5
			c0.4,3.2,1.3,5.2,2.5,5.8c0.3,0.1,0.6,0,0.7-0.3c0.1-0.6,0.3-1.2,0.4-1.9c0.3,0.1,0.6,0.3,0.9,0.3c-0.1,0.8-0.3,1.4-0.4,2
			c-0.2,0.7-0.6,1-1.3,1c-0.7,0-1.3-0.4-1.9-1.2c-0.9-1.1-1.5-2.9-1.9-5.6l-2.7,0.3L502,79.9z M506.7,76.8l0.6-0.6
			c0.7,0.5,1.4,1.1,2.1,1.7l-0.7,0.7C508,78,507.4,77.3,506.7,76.8z"/>
		<path class="st6" d="M510.6,82.3c1-1.3,1.6-2.8,2.1-4.5H511v-0.9h4.4v0.9h-1.8c-0.2,1-0.6,1.9-0.9,2.7h2.3v6.4h-0.8v-0.8h-1.5v1
			h-0.8v-4.9c-0.2,0.3-0.4,0.7-0.7,1C511,82.9,510.9,82.6,510.6,82.3z M514.1,81.3h-1.5v4h1.5V81.3z M515.4,83.6h4.9v0.8h-4.9V83.6z
			 M517.3,77.8l-0.3,3.4h2.8l0.4-3.9h-4.3v-0.8h5.3l-0.5,4.7h1.2c-0.1,1.6-0.1,3-0.2,4.1c-0.1,1.2-0.6,1.7-1.7,1.7
			c-0.5,0-1.1,0-1.8,0c0-0.3-0.1-0.6-0.2-1c0.6,0.1,1.2,0.1,1.7,0.1c0.6,0,0.9-0.3,1-1c0.1-0.9,0.1-1.9,0.1-3.1H516l0.4-4.3H517.3z"
			/>
	</g>
	<g>
		<path class="st6" d="M501,3.3l-0.2,0.3c1.1,1.7,2.9,3,5.3,4c-0.3,0.4-0.5,0.7-0.7,1c-2.3-1.2-4-2.6-5.2-4.3
			c-1.3,1.6-3,3.1-5.3,4.3c-0.2-0.3-0.4-0.6-0.6-0.9c2.4-1.2,4.3-2.7,5.5-4.5H501z M497.6,11c0.8,0.5,1.7,1.1,2.6,1.7
			c0.8-0.7,1.7-1.6,2.7-2.7h-7.2V9.2h8.5V10c-1,1-2.1,2.1-3.2,3.2c0.4,0.3,0.8,0.5,1.2,0.8l-0.7,0.8c-1.5-1.2-3-2.3-4.5-3.2
			L497.6,11z M498.9,6.9l0.7-0.6c0.6,0.6,1.2,1.2,1.7,1.8l-0.8,0.7C499.9,8.1,499.4,7.5,498.9,6.9z"/>
		<path class="st6" d="M510.1,14.6h-0.9v-4.4H508c0,2-0.3,3.5-0.9,4.6c-0.2-0.2-0.4-0.4-0.7-0.7c0.5-0.9,0.8-2.2,0.8-3.9V3.6h0.9
			v3.4h1.2V3.3h0.9v3.8h0.9v0.7H508v1.7h2.1V14.6z M510.5,11.7h1.4c-0.2-0.2-0.3-0.4-0.5-0.6c0.8-0.4,1.4-0.9,1.8-1.4h-1.9V4.5h2
			c0.1-0.4,0.3-0.8,0.5-1.3l0.9,0.3c-0.2,0.4-0.3,0.7-0.5,1h3v5.6h-0.8V9.7h-2.2c-0.3,0.7-1,1.4-2,2h2.3v-1.5h0.9v1.5h2.6v0.8h-2.6
			v2.1h-0.9v-2.1h-4V11.7z M512.1,6.7h1.7V5.2h-1.7V6.7z M513.8,7.4h-1.7v1.5h1.4C513.7,8.5,513.8,8,513.8,7.4z M514.4,8.9h2V7.4
			h-1.8C514.6,8,514.5,8.5,514.4,8.9z M516.4,5.2h-1.7v1.5h1.7V5.2z"/>
	</g>
	<g>
		<path class="st6" d="M155.3,112.1c0.5-0.2,1-0.4,1.5-0.7v-2.5h-1.4v-0.8h1.4v-2.2h0.9v2.2h1.5v0.8h-1.5v2.1
			c0.4-0.2,0.9-0.5,1.3-0.7c0,0.3,0.1,0.6,0.1,0.9c-0.5,0.2-1,0.5-1.4,0.7v4.1c0,0.8-0.3,1.2-0.9,1.2c-0.4,0-0.9,0.1-1.4,0
			c0-0.3-0.1-0.7-0.2-1c0.4,0,0.8,0.1,1.1,0.1c0.3,0,0.4-0.1,0.4-0.4v-3.6c-0.5,0.2-0.9,0.5-1.4,0.7L155.3,112.1z M158.1,116.9
			c1.1-0.9,1.7-2.2,1.9-4h0.9c0,0.5-0.1,1.1-0.2,1.5c0.5,0.8,1.1,1.3,1.9,1.5v-3.5h-3.6v-0.8h7.9v0.8h-3.4v1.3h2.9v0.8h-2.9v1.7
			c0.5,0.1,1.7,0.1,3.5,0c0,0-0.1,0.3-0.3,0.9c-0.9,0-1.9,0-2.9,0c-1.6,0-2.7-0.6-3.5-1.7c-0.3,0.8-0.8,1.5-1.4,2.1
			C158.7,117.2,158.4,117,158.1,116.9z M159.9,106.4h5.8v4.6H165v-0.3h-4.2v0.3h-0.8V106.4z M165,107.1h-4.2v1h4.2V107.1z
			 M160.8,109.9h4.2v-1h-4.2V109.9z"/>
		<path class="st6" d="M167.3,110.1h11.6v0.9h-5v4.7c0,1-0.5,1.5-1.5,1.5c-0.5,0-1.2,0-1.8,0c0-0.3-0.1-0.7-0.2-1.1
			c0.6,0.1,1.2,0.1,1.7,0.1c0.5,0,0.8-0.3,0.8-0.8v-4.4h-5.6V110.1z M169.8,111.8l0.9,0.5c-0.8,1.4-1.7,2.8-2.6,4.1
			c-0.2-0.2-0.5-0.4-0.8-0.6C168.2,114.6,169,113.3,169.8,111.8z M168.3,106.6h9.5v0.9h-9.5V106.6z M175.3,112.3l0.8-0.5
			c1,1.2,1.9,2.4,2.8,3.7l-0.9,0.6C177.1,114.7,176.2,113.4,175.3,112.3z"/>
		<path class="st6" d="M182.1,105.9l0.8,0.4c-0.4,0.6-0.7,1.1-1.1,1.5v4.5h-0.9v-3.4c-0.4,0.5-0.8,0.9-1.2,1.3
			c-0.2-0.2-0.4-0.4-0.6-0.6C180.1,108.7,181.1,107.5,182.1,105.9z M187.3,113.1v2.4c0,0.5,0.2,0.7,0.6,0.7h0.8
			c0.5,0,0.8-0.2,0.9-0.6c0.1-0.4,0.2-0.9,0.2-1.6c0.3,0.1,0.6,0.2,0.9,0.4c-0.1,0.6-0.2,1.2-0.3,1.6c-0.1,0.7-0.6,1.1-1.4,1.1h-1.4
			c-0.9,0-1.3-0.4-1.3-1.3v-1.9h-3.2v0.2c0,1-0.2,1.7-0.7,2.2c-0.5,0.5-1.4,0.9-2.6,1.2c-0.2-0.3-0.4-0.5-0.6-0.8
			c1.2-0.3,2-0.6,2.4-1c0.4-0.3,0.6-0.9,0.6-1.7v-0.9H187.3z M182.9,111.2h3v-1.5h-3.5v-0.8h3.5v-1.5c-0.9,0.1-1.8,0.1-2.7,0.1
			c0-0.3-0.1-0.5-0.2-0.8c2.5-0.1,4.7-0.2,6.4-0.4l0.2,0.8c-0.9,0.1-1.8,0.2-2.8,0.2v1.5h3.9v0.8h-3.9v1.5h3.2v0.8h-7.1V111.2z"/>
		<path class="st6" d="M191.1,112.1c0.6-0.2,1.1-0.3,1.6-0.5V109h-1.5v-0.8h1.5v-2.2h0.9v2.2h1.3v0.8h-1.3v2.4
			c0.4-0.1,0.7-0.2,1.1-0.4c0,0.4,0,0.7,0.1,0.9c-0.4,0.1-0.8,0.3-1.2,0.4v3.5c0,0.9-0.4,1.3-1.2,1.3c-0.2,0-0.6,0-1.1,0
			c0-0.3-0.1-0.6-0.1-1c0.4,0,0.8,0.1,1,0.1c0.4,0,0.5-0.2,0.5-0.6v-3.1c-0.5,0.2-1,0.4-1.5,0.5L191.1,112.1z M196.4,113.3h2.4v-1.5
			h-2.7c-0.1,2.4-0.6,4.3-1.7,5.6c-0.2-0.2-0.4-0.5-0.6-0.7c1-1.2,1.5-3.1,1.5-5.5v-4.6h6.9v3.4h-0.8v-0.4h-5.2v1.5h2.7v-1.2h0.8
			v1.2h3.1v0.8h-3.1v1.5h2.4v4h-0.8v-0.7h-4v0.7h-0.8V113.3z M201.3,107.3h-5.2v1.5h5.2V107.3z M201.2,114.1h-4v1.7h4V114.1z"/>
	</g>
	<g>
		<path class="st6" d="M155.3,146c0.5-0.2,1-0.4,1.5-0.7v-2.6h-1.4v-0.8h1.4v-2.3h0.9v2.3h1.3v0.8h-1.3v2.2c0.4-0.2,0.8-0.4,1.2-0.6
			c0,0.4,0.1,0.7,0.1,0.9c-0.4,0.2-0.8,0.4-1.3,0.6v3.9c0,0.8-0.4,1.2-1.1,1.2c-0.3,0-0.6,0-0.9,0c0-0.3-0.1-0.6-0.1-1
			c0.4,0,0.7,0,0.9,0c0.3,0,0.5-0.1,0.5-0.4v-3.3c-0.4,0.2-0.9,0.5-1.4,0.7L155.3,146z M159.6,146.4v-0.8h6.1v0.8
			c-0.5,1.1-1.2,2-2.1,2.7c0.9,0.5,2.1,0.9,3.4,1c-0.3,0.3-0.5,0.7-0.7,0.9c-1.4-0.3-2.6-0.8-3.6-1.4c-1.1,0.7-2.4,1.2-4,1.5
			c-0.2-0.3-0.3-0.6-0.6-0.9c1.5-0.2,2.8-0.7,3.8-1.2c-0.8-0.7-1.4-1.6-1.8-2.7H159.6z M159.2,143.4h5c0.4-0.7,0.8-1.5,1.2-2.2
			l0.9,0.4c-0.4,0.6-0.7,1.2-1.1,1.8h1.5v1.8h-0.9v-1h-5.7v1h-0.9V143.4z M159.4,141.3c0-0.3-0.1-0.6-0.2-0.9c2.6-0.1,5-0.2,7.2-0.4
			l0.2,0.8C164.2,141,161.8,141.2,159.4,141.3z M159.7,141.8l0.7-0.4c0.3,0.5,0.6,1,0.9,1.5l-0.8,0.4
			C160.4,142.8,160.1,142.3,159.7,141.8z M164.7,146.4h-3.5c0.4,0.9,0.9,1.6,1.6,2.2C163.7,148,164.3,147.3,164.7,146.4z
			 M162.1,141.6l0.7-0.3c0.3,0.6,0.6,1.1,0.9,1.6l-0.8,0.4C162.6,142.6,162.4,142.1,162.1,141.6z"/>
		<path class="st6" d="M167.2,147c0.8-1.2,1.4-2.6,1.8-4.1h-1.7v-0.8h1.8v-2.5h0.9v2.5h1.7v0.8h-1.7v1.5l0.5-0.5
			c0.7,0.7,1.3,1.3,1.7,1.8l-0.7,0.7c-0.5-0.7-1-1.2-1.5-1.7v6.5h-0.9v-6.4c-0.4,1.3-0.9,2.4-1.5,3.3
			C167.5,147.7,167.4,147.4,167.2,147z M171.5,141.3v-0.9h6.7v0.9c-0.4,2.7-1.2,4.9-2.5,6.6c0.8,0.9,2,1.6,3.4,2.1
			c-0.3,0.4-0.6,0.7-0.8,1c-1.3-0.7-2.4-1.5-3.2-2.3c-0.9,0.9-2.1,1.8-3.7,2.6c-0.2-0.3-0.4-0.6-0.7-0.9c1.6-0.8,2.9-1.6,3.8-2.5
			c-1.2-1.5-1.9-3.7-2.2-6.6H171.5z M177.1,141.3h-4c0.2,2.5,0.9,4.5,1.9,5.8C176.1,145.6,176.8,143.7,177.1,141.3z"/>
		<path class="st6" d="M179.2,145.2c1.2-1.6,2.2-3.5,2.9-5.6l0.9,0.3c-0.3,0.9-0.7,1.8-1.1,2.5v8.7h-1v-6.9c-0.4,0.7-0.9,1.4-1.4,2
			C179.4,145.9,179.3,145.6,179.2,145.2z M182.6,143.6l2.8-0.3c-0.1-1-0.2-2.2-0.2-3.7h1c0,1.2,0,2.4,0.1,3.6l4.3-0.5l0.1,0.9
			l-4.3,0.5c0.4,3.2,1.3,5.2,2.5,5.8c0.3,0.1,0.6,0,0.7-0.3c0.1-0.6,0.3-1.2,0.4-1.9c0.3,0.1,0.6,0.3,0.9,0.3
			c-0.1,0.8-0.3,1.4-0.4,2c-0.2,0.7-0.6,1-1.3,1c-0.7,0-1.3-0.4-1.9-1.2c-0.9-1.1-1.5-2.9-1.9-5.6l-2.7,0.3L182.6,143.6z
			 M187.2,140.5l0.6-0.6c0.7,0.5,1.4,1.1,2.1,1.7l-0.7,0.7C188.6,141.7,187.9,141.1,187.2,140.5z"/>
		<path class="st6" d="M191.2,146.1c1-1.3,1.6-2.8,2.1-4.5h-1.7v-0.9h4.4v0.9h-1.8c-0.2,1-0.6,1.9-0.9,2.7h2.3v6.4h-0.8v-0.8h-1.5v1
			h-0.8v-4.9c-0.2,0.3-0.4,0.7-0.7,1C191.6,146.6,191.4,146.4,191.2,146.1z M194.7,145.1h-1.5v4h1.5V145.1z M196,147.4h4.9v0.8H196
			V147.4z M197.9,141.5l-0.3,3.4h2.8l0.4-3.9h-4.3v-0.8h5.3l-0.5,4.7h1.2c-0.1,1.6-0.1,3-0.2,4.1c-0.1,1.2-0.6,1.7-1.7,1.7
			c-0.5,0-1.1,0-1.8,0c0-0.3-0.1-0.6-0.2-1c0.6,0.1,1.2,0.1,1.7,0.1c0.6,0,0.9-0.3,1-1c0.1-0.9,0.1-1.9,0.1-3.1h-4.9l0.4-4.3H197.9z
			"/>
		<path class="st6" d="M214,146.2h-2.5v2.5h-0.9v-2.5H208v-0.9h2.5v-2.5h0.9v2.5h2.5V146.2z"/>
		<path class="st6" d="M219.2,149.9h5.4V149h-4.5v-0.7h4.5v-1h-3.2v0.4h-0.8v-4.4h4v-0.8h-5.3v-0.7h5.3v-0.9c-1.4,0-2.9,0.1-4.4,0.1
			c0-0.3-0.1-0.5-0.2-0.8c4,0,7.2-0.2,9.6-0.3l0.1,0.8c-1.4,0.1-2.8,0.1-4.3,0.2v0.9h5.3v0.7h-5.3v0.8h4v4.4h-0.8v-0.4h-3.2v1h4.5
			v0.7h-4.5v0.9h5.3v0.7h-11.5V149.9z M221.4,145.1h3.2v-1h-3.2V145.1z M221.4,146.7h3.2v-1h-3.2V146.7z M228.6,144.1h-3.2v1h3.2
			V144.1z M225.4,146.7h3.2v-1h-3.2V146.7z"/>
		<path class="st6" d="M231.1,150.3c1.3-1.1,2-2.8,2.3-4.9l1,0.2c-0.1,0.7-0.2,1.4-0.4,2c0.6,1.3,1.5,2,2.8,2.2v-5.2h-5.4v-0.9h11.1
			v0.9h-4.8v1.9h4.1v0.9h-4.1v2.5c1.6,0,3.2,0,5.1,0c-0.1,0.3-0.2,0.6-0.3,1c-1.9,0-3.6,0-5,0c-1.8,0-3.1-0.7-3.9-2.1
			c-0.4,1-1,1.9-1.8,2.6C231.5,150.9,231.3,150.6,231.1,150.3z M231.8,141h5c-0.2-0.3-0.5-0.7-0.7-1l0.9-0.5c0.3,0.4,0.6,0.7,1,1.2
			l-0.5,0.3h4.7v2.2h-0.9v-1.3h-8.5v1.3h-0.9V141z"/>
		<path class="st6" d="M244.9,151h-0.9v-9.6h3.5c0.2-0.6,0.4-1.2,0.6-1.8l1,0.3c-0.2,0.5-0.4,1.1-0.6,1.5h5.5v8.2
			c0,0.9-0.4,1.3-1.3,1.3c-0.5,0-1.1,0-1.8,0c0-0.3-0.1-0.6-0.2-0.9c0.7,0.1,1.2,0.1,1.7,0.1c0.4,0,0.6-0.2,0.6-0.7v-7.2h-8.1V151z
			 M246.5,143.9h4.9v4.1h-4v0.8h-0.9V143.9z M250.4,144.8h-3.1v2.4h3.1V144.8z"/>
		<path class="st6" d="M266.3,145.8c0,2.6-1.2,3.8-3.5,3.8c-2.2,0-3.3-1.2-3.3-3.7v-5.5h1.2v5.5c0,1.8,0.8,2.7,2.3,2.7
			c1.5,0,2.2-0.9,2.2-2.6v-5.5h1.2V145.8z"/>
		<path class="st6" d="M275.2,149.5h-1.4l-1.5-2.5c-0.3-0.5-0.6-0.8-0.8-1s-0.5-0.3-0.9-0.3h-0.8v3.8h-1.2v-9.1h2.8
			c0.9,0,1.6,0.2,2.1,0.6s0.8,1,0.8,1.8c0,1.3-0.7,2.1-2,2.4v0c0.3,0.1,0.5,0.3,0.6,0.5s0.4,0.5,0.7,1L275.2,149.5z M269.7,141.5
			v3.2h1.4c0.5,0,1-0.2,1.3-0.5s0.5-0.7,0.5-1.2c0-0.5-0.2-0.8-0.5-1.1s-0.7-0.4-1.3-0.4H269.7z"/>
		<path class="st6" d="M281.1,149.5h-4.8v-9.1h1.2v8h3.6V149.5z"/>
	</g>
</g>
<g id="src" class="st9">
	<title>java-quickstart</title>
	<g id="Shapes" class="st10">
		<rect y="0" class="st0" width="660" height="165.7"/>
		<rect y="6.7" class="st1" width="105" height="155"/>
		<rect x="555" y="5.7" class="st2" width="105" height="156"/>
		<rect x="330" y="6.2" class="st3" width="105" height="69.4"/>
		<g>
			<line class="st4" x1="104.6" y1="21.2" x2="324.6" y2="21.2"/>
			<polygon points="323.5,25 330,21.2 323.5,17.5 			"/>
		</g>
		<g>
			<line class="st4" x1="104.6" y1="70.7" x2="324.6" y2="70.7"/>
			<polygon points="323.5,74.4 330,70.7 323.5,66.9 			"/>
		</g>
		<g>
			<line class="st4" x1="435" y1="70.7" x2="549.6" y2="70.7"/>
			<polygon points="548.5,74.4 555,70.7 548.5,66.9 			"/>
		</g>
		<g>
			<line class="st4" x1="440.4" y1="21.2" x2="555" y2="21.2"/>
			<polygon points="441.5,25 435,21.2 441.5,17.5 			"/>
		</g>
		<g>
			<line class="st4" x1="110" y1="51.1" x2="330" y2="51.1"/>
			<polygon points="111.1,54.8 104.6,51.1 111.1,47.4 			"/>
		</g>
		<g>
			<line class="st4" x1="104.6" y1="121.7" x2="549.6" y2="121.7"/>
			<polygon points="548.5,125.4 555,121.7 548.5,118 			"/>
		</g>
		<g>
			<line class="st4" x1="110" y1="155.7" x2="555" y2="155.7"/>
			<polygon points="111.1,159.5 104.6,155.7 111.1,152 			"/>
		</g>
		<path d="M80.2,44.5c-6.6-8.6-16.9-13.7-27.7-13.7c-7.7,0-15.2,2.6-21.3,7.2c-15.3,11.7-18.2,33.7-6.5,49
			c6.6,8.6,16.9,13.7,27.7,13.7c7.7,0,15.2-2.5,21.3-7.2C89.1,81.9,92,60,80.4,44.7C80.3,44.6,80.3,44.6,80.2,44.5z M81.9,73.7
			c-1.2-0.9-3-2.3-5.3-4.1c0.8-2.1,0.5-4.5-0.8-6.4c-2.1-2.6-5.7-3.2-8.6-1.5c-3.1-2.7-6.4-5.9-10-9.4C68,46.3,75.9,47,76.4,47.1
			l0.3,0.4C82.4,54.9,84.3,64.6,81.9,73.7z M62.7,81.9c-0.2-0.9-0.6-1.7-1.1-2.4c-1.9-2.5-5.4-3.1-8-1.4c-2.9-1.6-5.6-3.4-8.2-5.4
			l-0.7-0.6c1.2-3,0.7-6.4-1.3-9c0-0.1-0.1-0.1-0.2-0.2c0.6-0.6,1.2-1.3,1.9-1.9c2.5-2.4,5.1-4.5,8-6.5l0,0h0.1l-0.1,0.1
			c3.8,3.5,7.8,6.8,11.6,9.8c-1,2.2-0.8,4.7,0.6,6.7c2.2,2.9,6.3,3.4,9.2,1.3c0.1-0.1,0.3-0.3,0.4-0.4c2.7,1.9,4.9,3.4,6.1,4.2
			c-0.9,2.4-2,4.6-3.4,6.7C75.6,83.4,70.1,84.1,62.7,81.9z M72.1,42.6c-7-1-14.1,0.4-20.3,3.8c-2.7-2.9-5.7-6.2-8.6-9.5
			C53.1,33.7,64.1,35.8,72.1,42.6z M34,41.7c1.6-1.2,3.3-2.3,5.1-3.2c2.4,3.8,5.1,7.2,8.2,10.4c-3.1,2.1-5.9,4.6-8.4,7.3
			c-1,1.1-1.9,2.2-2.8,3.3c-1.5,0-3,0.3-4.3,1c-2.4-4-3.6-8.7-3.4-13.4C30.1,45.1,31.9,43.3,34,41.7z M24.9,53c-0.1,4,1,8,3,11.4
			c-1.7,3.2-1.4,7.1,0.8,10l0,0c-0.7,2.8-1.2,5.7-1.4,8.6C21.3,74.2,20.3,62.7,24.9,53z M52.5,96.3c-7.1,0-14-2.5-19.5-7.1
			c0-3.8,0.5-7.6,1.5-11.3c2.4,0.4,4.9-0.1,6.9-1.5l0.8,0.6c2.7,2.1,5.6,4,8.7,5.5C50.6,84.1,51,85.7,52,87c2.1,2.6,5.9,3.1,8.5,1.1
			c0.6-0.5,1.1-1,1.5-1.6c3.9,0.8,7.8,1.2,11.7,1.2C72.9,88.5,72,89.3,71,90C65.7,94.1,59.2,96.3,52.5,96.3z"/>
		
			<use xlink:href="#New_Symbol_44"  width="20" height="20" x="-10" y="-10" transform="matrix(1 0 0 1 138.91 155.66)" style="overflow:visible;"/>
		
			<use xlink:href="#New_Symbol_43"  width="20" height="20" x="-10" y="-10" transform="matrix(1 0 0 1 138.91 121.16)" style="overflow:visible;"/>
		
			<use xlink:href="#New_Symbol_41"  width="20" height="20" x="-10" y="-10" transform="matrix(1 0 0 1 138.91 20.66)" style="overflow:visible;"/>
		
			<use xlink:href="#New_Symbol_42"  width="20" height="20" x="-10" y="-10" transform="matrix(1 0 0 1 138.91 50.55)" style="overflow:visible;"/>
		
			<use xlink:href="#New_Symbol_45"  width="20" height="20" x="-10" y="-10" transform="matrix(1 0 0 1 228.02 70.66)" style="overflow:visible;"/>
		
			<use xlink:href="#New_Symbol_46"  width="20" height="20" x="-10" y="-10" transform="matrix(1 0 0 1 462.5 70.66)" style="overflow:visible;"/>
		
			<use xlink:href="#New_Symbol_47"  width="20" height="20" x="-10" y="-10" transform="matrix(1 0 0 1 462.5 20.66)" style="overflow:visible;"/>
	</g>
	<g id="Text" class="st10">
		<g>
			<path class="st6" d="M162.6,149.6h-1.1l-0.9-2.4h-3.6l-0.8,2.4h-1.1l3.2-8.4h1L162.6,149.6z M160.3,146.3l-1.3-3.6
				c-0.1-0.2-0.1-0.4-0.1-0.6l0,0c0,0.2-0.1,0.4-0.1,0.6l-1.3,3.6H160.3z"/>
			<path class="st6" d="M168.4,149.6h-1v-0.9l0,0c-0.4,0.7-1.1,1.1-1.9,1.1c-1.4,0-2.1-0.9-2.1-2.6v-3.6h0.9v3.4
				c0,1.3,0.5,1.9,1.5,1.9c0.4,0,0.9-0.2,1.1-0.5c0.3-0.4,0.5-0.9,0.5-1.4v-3.4h1L168.4,149.6z"/>
			<path class="st6" d="M173.1,149.5c-0.3,0.1-0.6,0.2-0.9,0.2c-1.1,0-1.6-0.6-1.6-1.8v-3.6h-1v-0.8h1v-1.5l1-0.3v1.8h1.5v0.8h-1.5
				v3.4c0,0.3,0,0.6,0.2,0.9c0.2,0.2,0.4,0.3,0.7,0.3c0.2,0,0.4-0.1,0.6-0.2L173.1,149.5z"/>
			<path class="st6" d="M179.3,149.6h-1v-3.5c0-1.3-0.5-1.9-1.4-1.9c-0.5,0-0.9,0.2-1.2,0.5c-0.3,0.4-0.5,0.9-0.5,1.4v3.4h-1v-8.9h1
				v3.9l0,0c0.4-0.7,1.2-1.2,2-1.1c1.4,0,2,0.8,2,2.4L179.3,149.6z"/>
			<path class="st6" d="M183.6,149.7c-0.8,0-1.6-0.3-2.1-0.8c-0.5-0.6-0.8-1.4-0.8-2.2c-0.1-0.9,0.2-1.7,0.8-2.4
				c0.6-0.6,1.4-0.9,2.2-0.9c0.8,0,1.5,0.3,2.1,0.8c0.5,0.6,0.8,1.5,0.8,2.3c0,0.8-0.2,1.7-0.8,2.3
				C185.2,149.4,184.4,149.7,183.6,149.7z M183.6,144.2c-0.6,0-1.1,0.2-1.5,0.6c-0.4,0.5-0.6,1.1-0.5,1.7c0,0.6,0.2,1.2,0.6,1.7
				c0.4,0.4,0.9,0.6,1.5,0.6c0.5,0,1.1-0.2,1.4-0.6c0.4-0.5,0.5-1.1,0.5-1.7c0-0.6-0.1-1.2-0.5-1.7
				C184.7,144.4,184.2,144.2,183.6,144.2z"/>
			<path class="st6" d="M191.1,144.5c-0.2-0.1-0.5-0.2-0.7-0.2c-0.4,0-0.8,0.2-1,0.6c-0.3,0.5-0.4,1-0.4,1.6v3.1h-1v-6h1v1.2l0,0
				c0.1-0.4,0.3-0.7,0.6-1c0.3-0.2,0.6-0.4,0.9-0.4c0.2,0,0.4,0,0.6,0.1L191.1,144.5z"/>
			<path class="st6" d="M192.7,142c-0.2,0-0.3-0.1-0.4-0.2c-0.2-0.3-0.2-0.6,0-0.9c0.1-0.1,0.3-0.2,0.4-0.2c0.2,0,0.3,0.1,0.4,0.2
				c0.1,0.1,0.2,0.3,0.2,0.4c0,0.2-0.1,0.3-0.2,0.4C193.1,141.9,192.9,142,192.7,142z M193.2,149.5h-1v-6h1V149.5z"/>
			<path class="st6" d="M199.3,143.8l-3.6,4.9h3.5v0.8h-4.9v-0.3l3.6-4.9h-3.2v-0.8h4.6L199.3,143.8z"/>
			<path class="st6" d="M204.9,149.6h-1v-0.9l0,0c-0.4,0.7-1.1,1.1-1.9,1.1c-0.5,0-1-0.1-1.4-0.5c-0.3-0.3-0.5-0.8-0.5-1.3
				c0-1.1,0.7-1.8,2-1.9l1.8-0.3c0-1-0.4-1.5-1.2-1.5c-0.7,0-1.4,0.3-1.9,0.7v-1c0.6-0.4,1.3-0.6,2-0.6c1.4,0,2.1,0.7,2.1,2.2
				L204.9,149.6z M203.9,146.6l-1.4,0.2c-0.4,0-0.7,0.1-1,0.3c-0.2,0.2-0.4,0.5-0.3,0.8c0,0.3,0.1,0.5,0.3,0.7
				c0.2,0.2,0.5,0.3,0.8,0.3c0.4,0,0.9-0.2,1.2-0.5c0.3-0.3,0.5-0.8,0.5-1.3L203.9,146.6z"/>
			<path class="st6" d="M209.4,149.5c-0.3,0.1-0.6,0.2-0.9,0.2c-1,0-1.6-0.6-1.6-1.8v-3.6h-1v-0.8h1v-1.5l1-0.3v1.8h1.5v0.8H208v3.4
				c0,0.3,0,0.6,0.2,0.9c0.2,0.2,0.4,0.3,0.7,0.3c0.2,0,0.4-0.1,0.6-0.2L209.4,149.5z"/>
			<path class="st6" d="M211.1,142c-0.2,0-0.3-0.1-0.4-0.2c-0.2-0.3-0.2-0.6,0-0.9c0.1-0.1,0.3-0.2,0.4-0.2c0.2,0,0.3,0.1,0.4,0.2
				c0.1,0.1,0.2,0.3,0.2,0.4c0,0.2-0.1,0.3-0.2,0.4C211.5,141.9,211.3,142,211.1,142z M211.6,149.5h-1v-6h1V149.5z"/>
			<path class="st6" d="M216,149.7c-0.8,0-1.6-0.3-2.1-0.8c-0.5-0.6-0.8-1.4-0.8-2.2c-0.1-0.9,0.2-1.7,0.8-2.4
				c0.6-0.6,1.4-0.9,2.2-0.9c0.8,0,1.5,0.3,2.1,0.8c0.5,0.6,0.8,1.5,0.8,2.3c0,0.8-0.2,1.7-0.8,2.3
				C217.6,149.4,216.8,149.7,216,149.7z M216.1,144.2c-0.6,0-1.1,0.2-1.5,0.6c-0.4,0.5-0.6,1.1-0.5,1.7c0,0.6,0.2,1.2,0.6,1.7
				c0.4,0.4,0.9,0.6,1.5,0.6c0.5,0,1.1-0.2,1.4-0.6c0.4-0.5,0.5-1.1,0.5-1.7c0-0.6-0.1-1.2-0.5-1.7
				C217.1,144.4,216.6,144.2,216.1,144.2L216.1,144.2z"/>
			<path class="st6" d="M225.4,149.6h-1v-3.4c0-1.3-0.5-1.9-1.4-1.9c-0.5,0-0.9,0.2-1.2,0.5c-0.3,0.4-0.5,0.9-0.5,1.4v3.4h-1v-6h1v1
				l0,0c0.4-0.7,1.2-1.2,2-1.1c0.6,0,1.1,0.2,1.5,0.6c0.4,0.5,0.6,1.2,0.5,1.8L225.4,149.6z"/>
			<path class="st6" d="M234.6,149.3c-0.5,0.3-1.1,0.4-1.6,0.4c-0.8,0-1.5-0.3-2.1-0.8c-0.5-0.6-0.8-1.4-0.8-2.2
				c0-0.9,0.3-1.7,0.9-2.4c0.6-0.6,1.4-0.9,2.3-0.9c0.5,0,1,0.1,1.4,0.3v1c-0.4-0.3-0.9-0.5-1.4-0.5c-0.6,0-1.1,0.2-1.5,0.6
				c-0.4,0.5-0.6,1.1-0.6,1.7c0,0.6,0.2,1.2,0.6,1.7c0.4,0.4,0.9,0.6,1.5,0.6c0.5,0,1.1-0.2,1.5-0.5L234.6,149.3z"/>
			<path class="st6" d="M238.4,149.7c-0.8,0-1.6-0.3-2.1-0.8c-0.5-0.6-0.8-1.4-0.8-2.2c-0.1-0.9,0.2-1.7,0.8-2.4
				c0.6-0.6,1.4-0.9,2.2-0.9c0.8,0,1.6,0.3,2.1,0.8c0.5,0.6,0.8,1.5,0.8,2.3c0,0.8-0.2,1.7-0.8,2.3
				C240,149.4,239.2,149.7,238.4,149.7z M238.5,144.2c-0.6,0-1.1,0.2-1.5,0.6c-0.4,0.5-0.6,1.1-0.5,1.7c0,0.6,0.2,1.2,0.5,1.7
				c0.4,0.4,0.9,0.6,1.5,0.6c0.5,0,1.1-0.2,1.4-0.6c0.4-0.5,0.5-1.1,0.5-1.7c0-0.6-0.1-1.2-0.5-1.7
				C239.6,144.4,239,144.2,238.5,144.2z"/>
			<path class="st6" d="M248.1,149.6h-1v-1l0,0c-0.7,1.1-2.2,1.5-3.3,0.8c-0.2-0.1-0.4-0.3-0.5-0.5c-0.5-0.6-0.7-1.4-0.7-2.2
				c0-0.9,0.2-1.7,0.8-2.4c0.5-0.6,1.2-0.9,2-0.9c0.7,0,1.4,0.3,1.8,1l0,0v-3.7h1L248.1,149.6z M247.1,146.9V146
				c0-0.5-0.2-0.9-0.5-1.2c-0.3-0.3-0.8-0.5-1.2-0.5c-0.5,0-1.1,0.2-1.4,0.6c-0.4,0.5-0.5,1.1-0.5,1.8c0,0.6,0.1,1.2,0.5,1.6
				c0.3,0.4,0.8,0.6,1.3,0.6c0.5,0,1-0.2,1.3-0.6C246.9,147.9,247.1,147.4,247.1,146.9L247.1,146.9z"/>
			<path class="st6" d="M254.8,146.8h-4.2c0,0.6,0.2,1.1,0.5,1.5c0.4,0.4,0.9,0.6,1.4,0.6c0.7,0,1.3-0.2,1.9-0.7v0.9
				c-0.6,0.4-1.3,0.6-2.1,0.6c-0.8,0-1.5-0.3-2-0.8c-0.5-0.7-0.8-1.5-0.7-2.3c0-0.8,0.2-1.6,0.8-2.3c0.5-0.6,1.2-0.9,2-0.9
				c0.7,0,1.4,0.2,1.8,0.8c0.5,0.6,0.7,1.4,0.6,2.1L254.8,146.8z M253.8,146c0-0.5-0.1-0.9-0.4-1.3c-0.3-0.3-0.7-0.5-1.1-0.5
				c-0.4,0-0.8,0.2-1.1,0.5c-0.3,0.3-0.5,0.8-0.6,1.3H253.8z"/>
			<path class="st6" d="M265.4,146.5h-2.4v2.4h-0.8v-2.4h-2.4v-0.8h2.4v-2.4h0.8v2.4h2.4V146.5z"/>
			<path class="st6" d="M274.1,144.5c-0.2-0.1-0.5-0.2-0.7-0.2c-0.4,0-0.8,0.2-1,0.6c-0.3,0.5-0.4,1-0.4,1.6v3.1h-1v-6h1v1.2l0,0
				c0.1-0.4,0.3-0.7,0.6-1c0.3-0.2,0.6-0.4,0.9-0.4c0.2,0,0.4,0,0.6,0.1L274.1,144.5z"/>
			<path class="st6" d="M280,146.8h-4.2c0,0.6,0.2,1.1,0.5,1.5c0.4,0.4,0.9,0.6,1.4,0.6c0.7,0,1.3-0.2,1.9-0.7v0.9
				c-0.6,0.4-1.3,0.6-2.1,0.6c-0.8,0-1.5-0.3-2-0.8c-1-1.4-1-3.2,0.1-4.6c0.5-0.6,1.2-0.9,2-0.9c0.7,0,1.4,0.2,1.8,0.8
				c0.5,0.6,0.7,1.4,0.6,2.1L280,146.8z M279,146c0-0.5-0.1-0.9-0.4-1.3c-0.3-0.3-0.7-0.5-1.1-0.5c-0.4,0-0.9,0.2-1.2,0.5
				c-0.3,0.4-0.5,0.8-0.6,1.3H279z"/>
			<path class="st6" d="M286.7,149.6h-1v-1l0,0c-0.4,0.8-1.2,1.2-2.1,1.2c-0.7,0-1.4-0.3-1.8-0.8c-0.5-0.6-0.7-1.4-0.7-2.2
				c0-0.9,0.2-1.7,0.8-2.4c0.5-0.6,1.2-0.9,2-0.9c0.7,0,1.4,0.3,1.8,1l0,0v-3.7h1V149.6z M285.7,146.9V146c0-0.5-0.2-0.9-0.5-1.2
				c-0.3-0.3-0.8-0.5-1.2-0.5c-0.5,0-1.1,0.2-1.4,0.6c-0.4,0.5-0.5,1.1-0.5,1.8c0,0.6,0.1,1.2,0.5,1.6c0.3,0.4,0.8,0.6,1.3,0.6
				c0.5,0,1-0.2,1.3-0.6C285.5,147.9,285.7,147.4,285.7,146.9L285.7,146.9z"/>
			<path class="st6" d="M289,142c-0.3,0-0.6-0.3-0.6-0.6c0-0.2,0.1-0.3,0.2-0.4c0.1-0.1,0.3-0.2,0.4-0.2c0.2,0,0.3,0.1,0.5,0.2
				c0.2,0.2,0.3,0.6,0,0.9c0,0,0,0,0,0C289.3,141.9,289.2,142,289,142z M289.5,149.5h-1v-6h1V149.5z"/>
			<path class="st6" d="M294.4,144.5c-0.2-0.1-0.5-0.2-0.7-0.2c-0.4,0-0.8,0.2-1,0.6c-0.3,0.5-0.5,1-0.4,1.6v3.1h-1v-6h1v1.2l0,0
				c0.1-0.4,0.3-0.7,0.6-1c0.3-0.2,0.6-0.4,0.9-0.4c0.2,0,0.4,0,0.6,0.1V144.5z"/>
			<path class="st6" d="M300.3,146.8H296c0,0.6,0.2,1.1,0.5,1.5c0.4,0.4,0.9,0.6,1.4,0.6c0.7,0,1.3-0.2,1.9-0.7v0.9
				c-0.6,0.4-1.4,0.6-2.1,0.6c-0.8,0-1.5-0.3-2-0.8c-1-1.4-1-3.2,0.1-4.6c0.5-0.6,1.2-0.9,2-0.9c0.7,0,1.4,0.2,1.8,0.8
				c0.5,0.6,0.7,1.4,0.6,2.1L300.3,146.8z M299.3,146c0-0.5-0.1-0.9-0.4-1.3c-0.3-0.3-0.7-0.5-1.1-0.5c-0.4,0-0.9,0.2-1.2,0.5
				c-0.3,0.4-0.5,0.8-0.6,1.3H299.3z"/>
			<path class="st6" d="M305.9,149.3c-0.5,0.3-1.1,0.4-1.6,0.4c-0.8,0-1.5-0.3-2.1-0.8c-0.5-0.6-0.8-1.4-0.8-2.2
				c0-0.9,0.3-1.7,0.9-2.4c0.6-0.6,1.4-0.9,2.3-0.9c0.5,0,1,0.1,1.4,0.3v1c-0.4-0.3-0.9-0.5-1.4-0.5c-0.6,0-1.1,0.2-1.5,0.6
				c-0.4,0.5-0.6,1.1-0.6,1.7c0,0.6,0.2,1.2,0.6,1.7c0.4,0.4,0.9,0.6,1.5,0.6c0.5,0,1.1-0.2,1.5-0.5V149.3z"/>
			<path class="st6" d="M310.3,149.5c-0.3,0.1-0.6,0.2-0.9,0.2c-1,0-1.6-0.6-1.6-1.8v-3.6h-1v-0.8h1v-1.5l1-0.3v1.8h1.5v0.8h-1.5
				v3.4c0,0.3,0,0.6,0.2,0.9c0.2,0.2,0.4,0.3,0.7,0.3c0.2,0,0.4-0.1,0.6-0.2L310.3,149.5z"/>
			<path class="st6" d="M321.1,146.2c0,2.4-1.1,3.5-3.2,3.5s-3.1-1.1-3.1-3.4v-5.1h1v5.1c0,1.7,0.7,2.6,2.2,2.6s2.1-0.8,2.1-2.5
				v-5.2h1L321.1,146.2z"/>
			<path class="st6" d="M329.2,149.6H328l-1.4-2.4c-0.1-0.2-0.2-0.4-0.4-0.6c-0.1-0.1-0.2-0.3-0.4-0.4c-0.1-0.1-0.3-0.2-0.4-0.2
				c-0.2,0-0.3-0.1-0.5-0.1h-0.8v3.6h-1v-8.4h2.5c0.3,0,0.7,0,1,0.1c0.3,0.1,0.6,0.2,0.8,0.4c0.2,0.2,0.4,0.4,0.5,0.7
				c0.1,0.3,0.2,0.7,0.2,1c0,0.3,0,0.5-0.1,0.8c-0.1,0.2-0.2,0.5-0.4,0.6c-0.2,0.2-0.4,0.4-0.6,0.5c-0.2,0.1-0.5,0.2-0.8,0.3l0,0
				c0.1,0.1,0.3,0.1,0.4,0.2c0.1,0.1,0.2,0.2,0.3,0.3l0.3,0.4l0.3,0.5L329.2,149.6z M324.2,142.1v3h1.3c0.2,0,0.5,0,0.7-0.1
				c0.2-0.1,0.4-0.2,0.5-0.3c0.2-0.1,0.3-0.3,0.4-0.5c0.1-0.2,0.1-0.4,0.1-0.7c0-0.4-0.1-0.8-0.4-1.1c-0.4-0.3-0.8-0.4-1.3-0.4
				L324.2,142.1z"/>
			<path class="st6" d="M334.6,149.6h-4.4v-8.4h1v7.5h3.4L334.6,149.6z"/>
		</g>
		<polygon class="st5" points="482.2,0.5 474.6,5.9 477.5,14.7 486.9,14.7 489.8,5.9 		"/>
		<g>
			<path class="st6" d="M500,5.7h-2.4v7.5h-1V5.7h-2.4V4.8h5.9V5.7z"/>
			<path class="st6" d="M502.8,13.3c-0.8,0-1.6-0.3-2.1-0.8c-0.5-0.6-0.8-1.4-0.8-2.2c0-0.9,0.3-1.7,0.8-2.4
				c0.6-0.6,1.4-0.9,2.3-0.9c0.8,0,1.5,0.3,2.1,0.8c0.5,0.6,0.8,1.5,0.8,2.3c0,0.8-0.2,1.7-0.8,2.3C504.5,13,503.7,13.3,502.8,13.3z
				 M502.9,7.8c-0.6,0-1.1,0.2-1.5,0.6c-0.4,0.5-0.6,1.1-0.5,1.7c0,0.6,0.2,1.2,0.5,1.7c0.4,0.4,0.9,0.6,1.5,0.6
				c0.5,0,1.1-0.2,1.4-0.6c0.4-0.5,0.5-1.1,0.5-1.7c0-0.6-0.1-1.2-0.5-1.7C504,8,503.5,7.8,502.9,7.8z"/>
			<path class="st6" d="M512.3,13.2h-1.4l-2.6-2.9l0,0v2.9h-1V4.3h1v5.6l0,0l2.5-2.8h1.3l-2.8,2.9L512.3,13.2z"/>
			<path class="st6" d="M517.8,10.4h-4.2c0,0.6,0.2,1.1,0.5,1.6c0.4,0.4,0.9,0.6,1.4,0.6c0.7,0,1.3-0.2,1.9-0.7v0.9
				c-0.6,0.4-1.4,0.6-2.1,0.6c-0.8,0-1.5-0.3-2-0.8c-0.5-0.7-0.8-1.5-0.7-2.3c0-0.8,0.3-1.7,0.8-2.3c0.5-0.6,1.2-0.9,2-0.9
				c0.7,0,1.4,0.2,1.8,0.8c0.5,0.6,0.7,1.4,0.7,2.1L517.8,10.4z M516.8,9.6c0-0.5-0.1-0.9-0.4-1.3c-0.3-0.3-0.7-0.5-1.1-0.5
				c-0.4,0-0.9,0.2-1.2,0.5c-0.3,0.3-0.5,0.8-0.6,1.3L516.8,9.6z"/>
			<path class="st6" d="M524.2,13.2h-1V9.7c0-1.3-0.5-1.9-1.4-1.9c-0.5,0-0.9,0.2-1.2,0.5c-0.3,0.4-0.5,0.9-0.5,1.4v3.4h-1v-6h1v1
				l0,0c0.4-0.7,1.2-1.2,2-1.1c0.6,0,1.1,0.2,1.5,0.6c0.4,0.5,0.6,1.2,0.5,1.8L524.2,13.2z"/>
			<path class="st6" d="M525.7,13v-1c0.5,0.4,1.1,0.6,1.7,0.6c0.8,0,1.3-0.3,1.3-0.9c0-0.1,0-0.3-0.1-0.4c-0.1-0.1-0.2-0.2-0.3-0.3
				c-0.1-0.1-0.3-0.2-0.4-0.2l-0.5-0.2c-0.2-0.1-0.5-0.2-0.7-0.3c-0.2-0.1-0.4-0.2-0.5-0.4c-0.1-0.1-0.2-0.3-0.3-0.5
				c-0.1-0.2-0.1-0.4-0.1-0.6c0-0.3,0.1-0.5,0.2-0.8c0.1-0.2,0.3-0.4,0.5-0.5c0.2-0.2,0.5-0.3,0.7-0.3c0.3-0.1,0.6-0.2,0.9-0.2
				c0.5,0,1,0.1,1.4,0.3v1c-0.5-0.3-1-0.4-1.5-0.4c-0.2,0-0.3,0-0.5,0.1c-0.1,0-0.3,0.1-0.4,0.2c-0.1,0.1-0.2,0.2-0.2,0.3
				c-0.1,0.1-0.1,0.2-0.1,0.4c0,0.1,0,0.3,0.1,0.4c0.1,0.1,0.1,0.2,0.3,0.3c0.1,0.1,0.3,0.2,0.4,0.2l0.5,0.2
				c0.2,0.1,0.5,0.2,0.7,0.3c0.2,0.1,0.4,0.2,0.5,0.4c0.1,0.1,0.3,0.3,0.3,0.5c0.1,0.2,0.1,0.4,0.1,0.6c0,0.3-0.1,0.5-0.2,0.8
				c-0.1,0.2-0.3,0.4-0.5,0.6c-0.2,0.1-0.5,0.3-0.8,0.3c-0.3,0.1-0.6,0.1-0.9,0.1C526.7,13.3,526.2,13.2,525.7,13z"/>
		</g>
		<g>
			<path class="st6" d="M161,15.7h-1v-3.4c0-1.3-0.5-1.9-1.4-1.9c-0.5,0-0.9,0.2-1.2,0.5c-0.3,0.4-0.5,0.9-0.5,1.4v3.4h-1V6.8h1v3.9
				l0,0c0.4-0.7,1.2-1.2,2-1.1c1.4,0,2,0.8,2,2.4L161,15.7z"/>
			<path class="st6" d="M165.4,15.6c-0.3,0.1-0.6,0.2-0.9,0.2c-1.1,0-1.6-0.6-1.6-1.8v-3.6h-1V9.7h1V8.2l1-0.3v1.8h1.5v0.8H164v3.4
				c0,0.3,0,0.6,0.2,0.9c0.2,0.2,0.4,0.3,0.7,0.3c0.2,0,0.4-0.1,0.6-0.2L165.4,15.6z"/>
			<path class="st6" d="M169.8,15.6c-0.3,0.1-0.6,0.2-0.9,0.2c-1.1,0-1.6-0.6-1.6-1.8v-3.6h-1V9.7h1V8.2l1-0.3v1.8h1.5v0.8h-1.5v3.4
				c0,0.3,0,0.6,0.2,0.9c0.2,0.2,0.4,0.3,0.7,0.3c0.2,0,0.4-0.1,0.6-0.2L169.8,15.6z"/>
			<path class="st6" d="M172,14.8L172,14.8v3.6h-1V9.7h1v1.1l0,0c0.4-0.7,1.2-1.2,2-1.2c0.7,0,1.4,0.3,1.8,0.8
				c0.5,0.6,0.7,1.4,0.6,2.2c0,0.9-0.2,1.7-0.7,2.4c-0.5,0.6-1.2,0.9-2,0.9C173,15.8,172.4,15.4,172,14.8z M172,12.4v0.8
				c0,0.5,0.2,0.9,0.5,1.3c0.7,0.7,1.8,0.7,2.4,0c0.1-0.1,0.1-0.1,0.2-0.2c0.4-0.6,0.5-1.2,0.5-1.9c0-0.6-0.1-1.1-0.5-1.6
				c-0.3-0.4-0.8-0.6-1.3-0.6c-0.5,0-1,0.2-1.3,0.6C172.2,11.3,172,11.8,172,12.4z"/>
			<path class="st6" d="M177.6,15.5v-1c0.5,0.4,1.1,0.6,1.7,0.6c0.8,0,1.3-0.3,1.3-0.9c0-0.1,0-0.3-0.1-0.4
				c-0.1-0.1-0.2-0.2-0.3-0.3c-0.1-0.1-0.3-0.2-0.4-0.2l-0.5-0.2c-0.2-0.1-0.5-0.2-0.7-0.3c-0.2-0.1-0.4-0.2-0.5-0.4
				c-0.1-0.1-0.2-0.3-0.3-0.5c-0.1-0.2-0.1-0.4-0.1-0.6c0-0.3,0.1-0.5,0.2-0.8c0.1-0.2,0.3-0.4,0.5-0.5c0.2-0.2,0.5-0.3,0.7-0.3
				c0.7-0.2,1.5-0.1,2.2,0.2v1c-0.5-0.3-1-0.4-1.5-0.4c-0.2,0-0.3,0-0.5,0.1c-0.1,0-0.3,0.1-0.4,0.2c-0.1,0.1-0.2,0.2-0.2,0.3
				c-0.1,0.1-0.1,0.2-0.1,0.4c0,0.3,0.1,0.5,0.3,0.7c0.1,0.1,0.3,0.2,0.4,0.2l0.5,0.2c0.2,0.1,0.5,0.2,0.7,0.3
				c0.2,0.1,0.4,0.2,0.5,0.4c0.1,0.1,0.3,0.3,0.3,0.5c0.1,0.2,0.1,0.4,0.1,0.6c0,0.3-0.1,0.5-0.2,0.8c-0.1,0.2-0.3,0.4-0.5,0.6
				c-0.2,0.1-0.5,0.3-0.8,0.3c-0.3,0.1-0.6,0.1-0.9,0.1C178.7,15.9,178.1,15.7,177.6,15.5z"/>
			<path class="st6" d="M183.3,10.8c-0.2,0-0.3-0.1-0.5-0.2c-0.3-0.3-0.3-0.7,0-0.9c0,0,0,0,0,0c0.1-0.1,0.3-0.2,0.5-0.2
				c0.2,0,0.3,0.1,0.5,0.2c0.3,0.3,0.3,0.7,0,0.9c0,0,0,0,0,0C183.6,10.8,183.5,10.8,183.3,10.8z M183.3,15.8
				c-0.2,0-0.3-0.1-0.5-0.2c-0.1-0.1-0.2-0.3-0.2-0.5c0-0.2,0.1-0.3,0.2-0.5c0.1-0.1,0.3-0.2,0.5-0.2c0.2,0,0.3,0.1,0.5,0.2
				c0.1,0.1,0.2,0.3,0.2,0.5c0,0.2-0.1,0.3-0.2,0.5C183.6,15.7,183.5,15.8,183.3,15.8z"/>
			<path class="st6" d="M189.3,7.3l-4,9.8h-0.9l4-9.8L189.3,7.3z"/>
			<path class="st6" d="M193,7.3l-4,9.8h-0.9l4-9.8L193,7.3z"/>
			<path class="st6" d="M198.8,9.7l-2.8,7c-0.5,1.3-1.2,1.9-2.1,1.9c-0.2,0-0.4,0-0.6-0.1v-0.9c0.2,0.1,0.4,0.1,0.6,0.1
				c0.5,0,1-0.4,1.1-0.9l0.5-1.1l-2.4-6h1.1l1.6,4.6c0,0.1,0.1,0.2,0.1,0.5l0,0c0-0.1,0.1-0.2,0.1-0.4l1.7-4.6L198.8,9.7z"/>
			<path class="st6" d="M202.1,15.8c-0.8,0.1-1.6-0.2-2.1-0.8c-0.5-0.6-0.8-1.4-0.8-2.2c0-0.9,0.3-1.7,0.8-2.4
				c0.6-0.6,1.4-0.9,2.2-0.9c0.8,0,1.5,0.3,2.1,0.8c0.5,0.6,0.8,1.5,0.8,2.3c0,0.8-0.3,1.7-0.8,2.3
				C203.7,15.6,202.9,15.8,202.1,15.8z M202.2,10.3c-0.6,0-1.1,0.2-1.5,0.6c-0.4,0.5-0.6,1.1-0.5,1.7c0,0.6,0.2,1.2,0.6,1.7
				c0.4,0.4,0.9,0.6,1.5,0.6c0.5,0,1.1-0.2,1.4-0.6c0.4-0.5,0.5-1.1,0.5-1.7c0-0.6-0.1-1.2-0.5-1.7
				C203.3,10.5,202.8,10.3,202.2,10.3z"/>
			<path class="st6" d="M211.5,15.7h-1v-0.9l0,0c-0.4,0.7-1.1,1.1-1.9,1.1c-1.4,0-2.1-0.9-2.1-2.6V9.7h1v3.4c0,1.3,0.5,1.9,1.4,1.9
				c0.4,0,0.9-0.2,1.2-0.5c0.3-0.4,0.5-0.9,0.5-1.4V9.7h1L211.5,15.7z"/>
			<path class="st6" d="M216.4,10.6c-0.2-0.1-0.5-0.2-0.7-0.2c-0.4,0-0.8,0.2-1,0.6c-0.3,0.5-0.4,1-0.4,1.6v3.1h-1v-6h1v1.2l0,0
				c0.1-0.4,0.3-0.7,0.6-1c0.3-0.2,0.6-0.4,1-0.4c0.2,0,0.4,0,0.6,0.1L216.4,10.6z"/>
			<path class="st6" d="M217.3,15.5v-1c0.5,0.4,1.1,0.6,1.7,0.6c0.8,0,1.3-0.3,1.3-0.9c0-0.1,0-0.3-0.1-0.4
				c-0.1-0.1-0.2-0.2-0.3-0.3c-0.1-0.1-0.3-0.2-0.4-0.2l-0.5-0.2c-0.2-0.1-0.5-0.2-0.7-0.3c-0.2-0.1-0.4-0.2-0.5-0.4
				c-0.1-0.1-0.2-0.3-0.3-0.5c-0.1-0.2-0.1-0.4-0.1-0.6c0-0.3,0.1-0.5,0.2-0.8c0.1-0.2,0.3-0.4,0.5-0.5c0.2-0.2,0.5-0.3,0.7-0.3
				c0.3-0.1,0.6-0.1,0.9-0.1c0.5,0,1,0.1,1.4,0.3v1c-0.5-0.3-1-0.4-1.5-0.4c-0.2,0-0.3,0-0.5,0.1c-0.1,0-0.3,0.1-0.4,0.2
				c-0.1,0.1-0.2,0.2-0.2,0.3c-0.1,0.1-0.1,0.2-0.1,0.4c0,0.1,0,0.3,0.1,0.4c0.1,0.1,0.1,0.2,0.3,0.3c0.1,0.1,0.3,0.2,0.4,0.2
				l0.5,0.2c0.2,0.1,0.5,0.2,0.7,0.3c0.2,0.1,0.4,0.2,0.5,0.4c0.1,0.1,0.3,0.3,0.4,0.5c0.1,0.2,0.1,0.4,0.1,0.6
				c0,0.3-0.1,0.5-0.2,0.8c-0.1,0.2-0.3,0.4-0.5,0.6c-0.2,0.1-0.5,0.3-0.8,0.3c-0.3,0.1-0.6,0.1-0.9,0.1
				C218.3,15.9,217.8,15.7,217.3,15.5z"/>
			<path class="st6" d="M223.1,8.1c-0.2,0-0.3-0.1-0.4-0.2c-0.1-0.1-0.2-0.3-0.2-0.4c0-0.2,0.1-0.3,0.2-0.4c0.1-0.1,0.3-0.2,0.4-0.2
				c0.2,0,0.3,0.1,0.4,0.2c0.1,0.1,0.2,0.3,0.2,0.4c0,0.2-0.1,0.3-0.2,0.4C223.5,8.1,223.3,8.1,223.1,8.1z M223.6,15.7h-1v-6h1V15.7
				z"/>
			<path class="st6" d="M228.3,15.6c-0.3,0.1-0.6,0.2-0.9,0.2c-1,0-1.6-0.6-1.6-1.8v-3.6h-1V9.7h1V8.2l1-0.3v1.8h1.5v0.8h-1.5v3.4
				c0,0.3,0,0.6,0.2,0.9c0.2,0.2,0.4,0.3,0.7,0.3c0.2,0,0.4-0.1,0.6-0.2L228.3,15.6z"/>
			<path class="st6" d="M234.3,12.9H230c0,0.6,0.2,1.1,0.5,1.6c0.4,0.4,0.9,0.6,1.5,0.6c0.7,0,1.3-0.2,1.9-0.7v0.9
				c-0.6,0.4-1.4,0.6-2.1,0.6c-0.8,0-1.5-0.3-2-0.8c-0.5-0.7-0.8-1.5-0.7-2.3c0-0.8,0.2-1.7,0.8-2.3c0.5-0.6,1.2-0.9,2-0.9
				c0.7,0,1.4,0.2,1.8,0.8c0.5,0.6,0.7,1.4,0.6,2.1L234.3,12.9z M233.3,12.1c0-0.5-0.1-0.9-0.4-1.3c-0.3-0.3-0.7-0.5-1.1-0.5
				c-0.4,0-0.9,0.2-1.2,0.5c-0.3,0.3-0.5,0.8-0.6,1.3L233.3,12.1z"/>
			<path class="st6" d="M236,15.8c-0.2,0-0.3-0.1-0.5-0.2c-0.1-0.1-0.2-0.3-0.2-0.5c0-0.2,0.1-0.3,0.2-0.5c0.2-0.3,0.6-0.3,0.9,0
				c0,0,0,0,0,0c0.1,0.1,0.2,0.3,0.2,0.5C236.7,15.5,236.4,15.8,236,15.8L236,15.8z"/>
			<path class="st6" d="M242.2,15.4c-0.5,0.3-1.1,0.4-1.6,0.4c-0.8,0-1.5-0.3-2.1-0.8c-0.5-0.6-0.8-1.4-0.8-2.2
				c0-0.9,0.3-1.7,0.9-2.4c0.6-0.6,1.4-0.9,2.3-0.9c0.5,0,1,0.1,1.4,0.3v1c-0.4-0.3-0.9-0.5-1.4-0.5c-0.6,0-1.1,0.2-1.5,0.7
				c-0.4,0.5-0.6,1.1-0.6,1.7c0,0.6,0.2,1.2,0.6,1.7c0.4,0.4,0.9,0.6,1.5,0.6c0.5,0,1.1-0.2,1.5-0.5L242.2,15.4z"/>
			<path class="st6" d="M246,15.8c-0.8,0-1.6-0.3-2.1-0.8c-0.6-0.6-0.8-1.4-0.8-2.2c0-0.9,0.3-1.7,0.8-2.4c0.6-0.6,1.4-0.9,2.2-0.9
				c0.8,0,1.6,0.3,2.1,0.8c0.5,0.6,0.8,1.5,0.8,2.3c0,0.8-0.2,1.7-0.8,2.3C247.6,15.5,246.8,15.8,246,15.8z M246.1,10.3
				c-0.6,0-1.1,0.2-1.5,0.6c-0.4,0.5-0.6,1.1-0.5,1.7c0,0.6,0.2,1.2,0.5,1.7c0.4,0.4,0.9,0.6,1.5,0.6c0.5,0,1.1-0.2,1.4-0.6
				c0.4-0.5,0.5-1.1,0.5-1.7c0-0.6-0.1-1.2-0.5-1.7C247.1,10.5,246.6,10.3,246.1,10.3L246.1,10.3z"/>
			<path class="st6" d="M259,15.7h-1v-3.4c0-0.5-0.1-1-0.3-1.4c-0.2-0.3-0.6-0.5-1-0.4c-0.4,0-0.8,0.2-1,0.6
				c-0.3,0.4-0.4,0.9-0.4,1.4v3.4h-1v-3.6c0-1.2-0.5-1.8-1.4-1.8c-0.4,0-0.8,0.2-1,0.5c-0.3,0.4-0.4,0.9-0.4,1.4v3.4h-1v-6h1v0.9
				l0,0c0.4-0.7,1.1-1.1,1.9-1.1c0.8,0,1.5,0.5,1.7,1.2c0.4-0.8,1.1-1.3,2-1.2c1.3,0,2,0.8,2,2.4L259,15.7z"/>
		</g>
		<g>
			<path class="st6" d="M482.3,85.7h-1.1l-0.9-2.3h-3.6l-0.8,2.3h-1.1l3.2-8.4h1L482.3,85.7z M480,82.4l-1.3-3.6
				c-0.1-0.2-0.1-0.4-0.1-0.6l0,0c0,0.2-0.1,0.4-0.1,0.6l-1.4,3.6H480z"/>
			<path class="st6" d="M488,85.7h-1v-1l0,0c-0.4,0.7-1.1,1.1-1.9,1.1c-1.4,0-2.1-0.8-2.1-2.6v-3.5h1v3.4c0,1.3,0.5,1.9,1.5,1.9
				c0.4,0,0.9-0.2,1.2-0.5c0.3-0.4,0.5-0.9,0.5-1.4v-3.5h1L488,85.7z"/>
			<path class="st6" d="M492.7,85.6c-0.3,0.1-0.6,0.2-0.9,0.2c-1,0-1.6-0.6-1.6-1.8v-3.5h-1v-0.8h1v-1.5l1-0.3v1.8h1.5v0.8h-1.5v3.4
				c0,0.3,0,0.6,0.2,0.9c0.2,0.2,0.4,0.3,0.7,0.3c0.2,0,0.4-0.1,0.6-0.2L492.7,85.6z"/>
			<path class="st6" d="M498.9,85.7h-1v-3.5c0-1.3-0.5-1.9-1.4-1.9c-0.5,0-0.9,0.2-1.2,0.5c-0.3,0.4-0.5,0.9-0.5,1.4v3.4h-1v-8.9h1
				v3.9l0,0c0.4-0.7,1.2-1.2,2-1.1c1.4,0,2,0.8,2,2.4L498.9,85.7z"/>
			<path class="st6" d="M503.2,85.8c-0.8,0-1.6-0.3-2.1-0.8c-0.6-0.6-0.8-1.4-0.8-2.2c0-0.9,0.3-1.7,0.8-2.4
				c0.6-0.6,1.4-0.9,2.2-0.8c0.8,0,1.6,0.3,2.1,0.8c0.5,0.6,0.8,1.5,0.8,2.3c0,0.8-0.2,1.7-0.8,2.3C504.8,85.5,504,85.8,503.2,85.8z
				 M503.3,80.3c-0.6,0-1.1,0.2-1.5,0.6c-0.4,0.5-0.6,1.1-0.5,1.7c0,0.6,0.2,1.2,0.5,1.7c0.4,0.4,0.9,0.6,1.5,0.6
				c0.5,0,1.1-0.2,1.4-0.6c0.4-0.5,0.5-1.1,0.5-1.7c0-0.6-0.1-1.2-0.5-1.7C504.3,80.5,503.8,80.3,503.3,80.3L503.3,80.3z"/>
			<path class="st6" d="M510.8,80.6c-0.2-0.1-0.5-0.2-0.7-0.2c-0.4,0-0.8,0.2-1,0.6c-0.3,0.5-0.4,1-0.4,1.6v3.1h-1v-6h1v1.2l0,0
				c0.1-0.4,0.3-0.7,0.6-1c0.3-0.2,0.6-0.3,0.9-0.3c0.2,0,0.4,0,0.6,0.1L510.8,80.6z"/>
			<path class="st6" d="M512.4,78.1c-0.2,0-0.3-0.1-0.4-0.2c-0.1-0.1-0.2-0.3-0.2-0.4c0-0.3,0.3-0.6,0.6-0.6l0,0
				c0.2,0,0.3,0.1,0.4,0.2c0.1,0.1,0.2,0.3,0.2,0.4c0,0.2-0.1,0.3-0.2,0.4C512.7,78.1,512.5,78.1,512.4,78.1z M512.8,85.7h-1v-6h1
				V85.7z"/>
			<path class="st6" d="M518.9,79.9l-3.5,4.9h3.5v0.8H514v-0.3l3.6-4.9h-3.2v-0.8h4.6L518.9,79.9z"/>
			<path class="st6" d="M524.6,85.7h-1v-0.9l0,0c-0.4,0.7-1.1,1.1-1.8,1.1c-0.5,0-1-0.1-1.4-0.5c-0.3-0.3-0.5-0.8-0.5-1.3
				c0-1.1,0.7-1.8,2-2l1.8-0.3c0-1-0.4-1.5-1.2-1.5c-0.7,0-1.4,0.3-2,0.7v-1c0.6-0.4,1.3-0.6,2-0.6c1.4,0,2.1,0.8,2.1,2.2
				L524.6,85.7z M523.6,82.7l-1.4,0.2c-0.4,0-0.7,0.1-1,0.3c-0.2,0.2-0.4,0.5-0.3,0.8c0,0.3,0.1,0.5,0.3,0.7
				c0.3,0.2,0.6,0.3,0.9,0.3c0.4,0,0.9-0.2,1.2-0.5c0.3-0.3,0.5-0.8,0.5-1.3L523.6,82.7z"/>
			<path class="st6" d="M529.1,85.6c-0.3,0.1-0.6,0.2-0.9,0.2c-1,0-1.6-0.6-1.6-1.8v-3.5h-1v-0.8h1v-1.5l1-0.3v1.8h1.5v0.8h-1.5v3.4
				c0,0.3,0,0.6,0.2,0.9c0.2,0.2,0.4,0.3,0.7,0.3c0.2,0,0.4-0.1,0.6-0.2L529.1,85.6z"/>
			<path class="st6" d="M530.8,78.1c-0.2,0-0.3-0.1-0.4-0.2c-0.1-0.1-0.2-0.3-0.2-0.4c0-0.2,0.1-0.3,0.2-0.4
				c0.1-0.1,0.3-0.2,0.4-0.2c0.2,0,0.3,0.1,0.4,0.2c0.1,0.1,0.2,0.3,0.2,0.4c0,0.2-0.1,0.3-0.2,0.4
				C531.1,78.1,530.9,78.1,530.8,78.1z M531.2,85.7h-1v-6h1V85.7z"/>
			<path class="st6" d="M535.6,85.8c-0.8,0-1.6-0.3-2.1-0.8c-0.6-0.6-0.8-1.4-0.8-2.2c0-0.9,0.3-1.7,0.8-2.4
				c0.6-0.6,1.4-0.9,2.2-0.8c0.8,0,1.6,0.3,2.1,0.8c0.5,0.6,0.8,1.5,0.8,2.3c0,0.8-0.2,1.7-0.8,2.3
				C537.2,85.5,536.4,85.8,535.6,85.8z M535.7,80.3c-0.6,0-1.1,0.2-1.5,0.6c-0.4,0.5-0.6,1.1-0.5,1.7c0,0.6,0.2,1.2,0.5,1.7
				c0.4,0.4,0.9,0.6,1.5,0.6c0.5,0,1.1-0.2,1.4-0.6c0.4-0.5,0.5-1.1,0.5-1.7c0-0.6-0.1-1.2-0.5-1.7
				C536.8,80.5,536.2,80.3,535.7,80.3z"/>
			<path class="st6" d="M545.1,85.7h-1v-3.4c0-1.3-0.5-1.9-1.4-1.9c-0.5,0-0.9,0.2-1.2,0.5c-0.3,0.4-0.5,0.9-0.5,1.4v3.4h-1v-6h1v1
				l0,0c0.4-0.7,1.2-1.2,2-1.1c0.6,0,1.1,0.2,1.5,0.6c0.4,0.5,0.6,1.2,0.5,1.8L545.1,85.7z"/>
			<path class="st6" d="M479.7,98.4c-0.5,0.3-1.1,0.4-1.6,0.4c-0.8,0-1.5-0.2-2.1-0.8c-0.5-0.6-0.8-1.4-0.8-2.2
				c0-0.9,0.3-1.7,0.9-2.4c0.6-0.6,1.4-0.9,2.3-0.9c0.5,0,1,0.1,1.4,0.3v1c-0.4-0.3-0.9-0.5-1.4-0.5c-0.6,0-1.1,0.2-1.5,0.7
				c-0.4,0.5-0.6,1.1-0.6,1.7c0,0.6,0.2,1.2,0.6,1.7c0.4,0.4,0.9,0.6,1.5,0.6c0.5,0,1.1-0.2,1.5-0.5L479.7,98.4z"/>
			<path class="st6" d="M483.5,98.8c-0.8,0-1.6-0.2-2.1-0.8c-0.5-0.6-0.8-1.4-0.8-2.2c-0.1-0.9,0.2-1.7,0.8-2.4
				c0.6-0.6,1.4-0.9,2.2-0.8c0.8,0,1.6,0.3,2.1,0.8c0.5,0.6,0.8,1.5,0.8,2.3c0,0.8-0.2,1.7-0.8,2.3
				C485.1,98.6,484.3,98.9,483.5,98.8z M483.6,93.3c-0.6,0-1.1,0.2-1.5,0.6c-0.4,0.5-0.6,1.1-0.5,1.7c0,0.6,0.2,1.2,0.5,1.7
				c0.4,0.4,0.9,0.6,1.5,0.6c0.5,0,1.1-0.2,1.4-0.6c0.4-0.5,0.5-1.1,0.5-1.7c0-0.6-0.1-1.2-0.5-1.7
				C484.7,93.5,484.1,93.3,483.6,93.3z"/>
			<path class="st6" d="M493.2,98.7h-1v-1l0,0c-0.4,0.8-1.2,1.2-2.1,1.2c-0.7,0-1.4-0.3-1.8-0.8c-0.5-0.6-0.7-1.4-0.7-2.2
				c0-0.9,0.2-1.7,0.8-2.4c0.5-0.6,1.2-0.9,2-0.9c0.7,0,1.4,0.3,1.8,1l0,0v-3.8h1L493.2,98.7z M492.2,96v-0.9c0-0.5-0.2-0.9-0.5-1.2
				c-0.3-0.3-0.8-0.5-1.2-0.5c-0.5,0-1.1,0.2-1.4,0.7c-0.4,0.5-0.5,1.1-0.5,1.8c0,0.6,0.1,1.2,0.5,1.6c0.3,0.4,0.8,0.6,1.3,0.6
				c0.5,0,1-0.2,1.3-0.6C492,97,492.2,96.5,492.2,96L492.2,96z"/>
			<path class="st6" d="M499.9,95.9h-4.2c0,0.6,0.2,1.1,0.5,1.6c0.4,0.4,0.9,0.6,1.4,0.6c0.7,0,1.3-0.2,1.9-0.7v0.9
				c-0.6,0.4-1.4,0.6-2.1,0.6c-0.8,0-1.5-0.3-2-0.8c-0.5-0.6-0.8-1.5-0.7-2.3c0-0.8,0.2-1.7,0.8-2.3c0.5-0.6,1.2-0.9,2-0.9
				c0.7,0,1.4,0.2,1.8,0.8c0.5,0.6,0.7,1.4,0.6,2.1L499.9,95.9z M498.9,95.1c0-0.5-0.1-0.9-0.4-1.3c-0.3-0.3-0.7-0.5-1.1-0.5
				c-0.4,0-0.9,0.2-1.2,0.5c-0.3,0.3-0.5,0.8-0.6,1.3L498.9,95.1z"/>
		</g>
		<g>
			<path class="st6" d="M249,85.7h-1.1l-0.9-2.4h-3.6l-0.8,2.3h-1.1l3.2-8.4h1L249,85.7z M246.7,82.4l-1.3-3.6
				c-0.1-0.2-0.1-0.4-0.1-0.6l0,0c0,0.2-0.1,0.4-0.1,0.6l-1.3,3.6H246.7z"/>
			<path class="st6" d="M254.8,85.7h-1v-1l0,0c-0.4,0.7-1.1,1.1-1.9,1.1c-1.4,0-2.1-0.8-2.1-2.6v-3.5h1v3.4c0,1.3,0.5,1.9,1.4,1.9
				c0.4,0,0.9-0.2,1.2-0.5c0.3-0.4,0.5-0.9,0.4-1.4v-3.5h1L254.8,85.7z"/>
			<path class="st6" d="M259.4,85.6c-0.3,0.1-0.6,0.2-0.9,0.2c-1,0-1.6-0.6-1.6-1.8v-3.5h-1v-0.8h1v-1.5l1-0.3v1.8h1.5v0.8H258v3.4
				c0,0.3,0,0.6,0.2,0.9c0.2,0.2,0.4,0.3,0.7,0.3c0.2,0,0.4-0.1,0.6-0.2L259.4,85.6z"/>
			<path class="st6" d="M265.6,85.7h-1v-3.5c0-1.3-0.5-1.9-1.4-1.9c-0.5,0-0.9,0.2-1.2,0.5c-0.3,0.4-0.5,0.9-0.5,1.4v3.4h-1v-8.9h1
				v3.9l0,0c0.4-0.7,1.2-1.2,2-1.1c1.4,0,2,0.8,2,2.4L265.6,85.7z"/>
			<path class="st6" d="M269.9,85.8c-0.8,0-1.6-0.3-2.1-0.8c-0.6-0.6-0.8-1.4-0.8-2.2c0-0.9,0.3-1.7,0.8-2.4
				c0.6-0.6,1.4-0.9,2.2-0.8c0.8,0,1.6,0.3,2.1,0.8c0.5,0.6,0.8,1.5,0.8,2.3c0,0.8-0.2,1.7-0.8,2.3
				C271.5,85.5,270.7,85.8,269.9,85.8z M270,80.3c-0.6,0-1.1,0.2-1.5,0.6c-0.4,0.5-0.6,1.1-0.5,1.7c0,0.6,0.2,1.2,0.5,1.7
				c0.4,0.4,0.9,0.6,1.5,0.6c0.5,0,1.1-0.2,1.4-0.6c0.4-0.5,0.5-1.1,0.5-1.7c0-0.6-0.1-1.2-0.5-1.7C271.1,80.5,270.5,80.3,270,80.3
				L270,80.3z"/>
			<path class="st6" d="M277.5,80.6c-0.2-0.1-0.5-0.2-0.7-0.2c-0.4,0-0.8,0.2-1,0.6c-0.3,0.5-0.4,1-0.4,1.6v3.1h-1v-6h1v1.2l0,0
				c0.1-0.4,0.3-0.7,0.6-1c0.3-0.2,0.6-0.3,1-0.3c0.2,0,0.4,0,0.6,0.1V80.6z"/>
			<path class="st6" d="M279.1,78.1c-0.2,0-0.3-0.1-0.4-0.2c-0.1-0.1-0.2-0.3-0.2-0.4c0-0.2,0.1-0.3,0.2-0.4
				c0.1-0.1,0.3-0.2,0.4-0.2c0.2,0,0.3,0.1,0.4,0.2c0.1,0.1,0.2,0.3,0.2,0.4c0,0.2-0.1,0.3-0.2,0.4
				C279.4,78.1,279.2,78.1,279.1,78.1z M279.5,85.7h-1v-6h1V85.7z"/>
			<path class="st6" d="M285.6,79.9l-3.5,4.9h3.5v0.8h-4.9v-0.3l3.5-4.9H281v-0.8h4.6L285.6,79.9z"/>
			<path class="st6" d="M291.3,85.7h-1v-0.9l0,0c-0.4,0.7-1.1,1.1-1.9,1.1c-0.5,0-1-0.1-1.4-0.5c-0.3-0.3-0.5-0.8-0.5-1.3
				c0-1.1,0.7-1.8,2-2l1.8-0.3c0-1-0.4-1.5-1.2-1.5c-0.7,0-1.4,0.3-2,0.7v-1c0.6-0.4,1.3-0.6,2-0.6c1.4,0,2.1,0.8,2.1,2.2
				L291.3,85.7z M290.3,82.7l-1.4,0.2c-0.4,0-0.7,0.1-1,0.3c-0.2,0.2-0.4,0.5-0.3,0.8c0,0.3,0.1,0.5,0.3,0.7
				c0.2,0.2,0.5,0.3,0.8,0.3c0.4,0,0.9-0.2,1.2-0.5c0.3-0.3,0.5-0.8,0.5-1.3L290.3,82.7z"/>
			<path class="st6" d="M295.8,85.6c-0.3,0.1-0.6,0.2-0.9,0.2c-1,0-1.6-0.6-1.6-1.8v-3.5h-1v-0.8h1v-1.5l1-0.3v1.8h1.5v0.8h-1.5v3.4
				c0,0.3,0,0.6,0.2,0.9c0.2,0.2,0.4,0.3,0.7,0.3c0.2,0,0.4-0.1,0.6-0.2L295.8,85.6z"/>
			<path class="st6" d="M297.5,78.1c-0.2,0-0.3,0-0.5-0.1c-0.1-0.1-0.2-0.3-0.2-0.4c0-0.2,0.1-0.3,0.2-0.4c0.1-0.1,0.3-0.2,0.4-0.2
				c0.2,0,0.3,0.1,0.4,0.2c0.1,0.1,0.2,0.3,0.2,0.4c0,0.2-0.1,0.3-0.2,0.4C297.8,78.1,297.6,78.1,297.5,78.1z M298,85.7h-1v-6h1
				V85.7z"/>
			<path class="st6" d="M302.3,85.8c-0.8,0-1.6-0.2-2.1-0.8c-0.6-0.6-0.8-1.4-0.8-2.2c0-0.9,0.3-1.7,0.8-2.4
				c0.6-0.6,1.4-0.9,2.2-0.8c0.8,0,1.6,0.3,2.1,0.8c0.5,0.6,0.8,1.5,0.8,2.3c0,0.8-0.2,1.7-0.8,2.3
				C303.9,85.6,303.1,85.9,302.3,85.8z M302.4,80.3c-0.6,0-1.1,0.2-1.5,0.6c-0.4,0.5-0.6,1.1-0.5,1.7c0,0.6,0.2,1.2,0.5,1.7
				c0.4,0.4,0.9,0.6,1.5,0.6c0.5,0,1.1-0.2,1.4-0.6c0.4-0.5,0.5-1.1,0.5-1.7c0-0.6-0.1-1.2-0.5-1.7
				C303.5,80.5,302.9,80.3,302.4,80.3z"/>
			<path class="st6" d="M311.8,85.7h-1v-3.4c0-1.3-0.5-1.9-1.4-1.9c-0.5,0-0.9,0.2-1.2,0.5c-0.3,0.4-0.5,0.9-0.5,1.4v3.4h-1v-6h1v1
				l0,0c0.4-0.7,1.2-1.2,2-1.1c0.6,0,1.1,0.2,1.5,0.6c0.4,0.5,0.6,1.2,0.5,1.8L311.8,85.7z"/>
			<path class="st6" d="M246.4,98.4c-0.5,0.3-1.1,0.4-1.6,0.4c-0.8,0-1.5-0.3-2.1-0.8c-0.5-0.6-0.8-1.4-0.8-2.2
				c0-0.9,0.3-1.7,0.9-2.4c0.6-0.6,1.4-0.9,2.3-0.9c0.5,0,1,0.1,1.4,0.3v1c-0.4-0.3-0.9-0.5-1.4-0.5c-0.6,0-1.1,0.2-1.5,0.7
				c-0.4,0.5-0.6,1.1-0.6,1.7c0,0.6,0.2,1.2,0.6,1.7c0.4,0.4,0.9,0.6,1.5,0.6c0.5,0,1.1-0.2,1.5-0.5L246.4,98.4z"/>
			<path class="st6" d="M250.2,98.8c-0.8,0-1.6-0.3-2.1-0.8c-0.5-0.6-0.8-1.4-0.8-2.2c-0.1-0.9,0.2-1.7,0.8-2.4
				c0.6-0.6,1.4-0.9,2.2-0.8c0.8,0,1.5,0.3,2.1,0.8c0.5,0.6,0.8,1.5,0.8,2.3c0,0.8-0.2,1.7-0.8,2.3C251.8,98.5,251,98.8,250.2,98.8z
				 M250.3,93.3c-0.6,0-1.1,0.2-1.5,0.6c-0.4,0.5-0.6,1.1-0.5,1.7c0,0.6,0.2,1.2,0.6,1.7c0.4,0.4,0.9,0.6,1.4,0.6
				c0.5,0,1.1-0.2,1.4-0.6c0.4-0.5,0.5-1.1,0.5-1.7c0-0.6-0.1-1.2-0.5-1.7C251.4,93.5,250.8,93.3,250.3,93.3z"/>
			<path class="st6" d="M259.9,98.7h-1v-1l0,0c-0.4,0.8-1.2,1.2-2.1,1.2c-0.7,0-1.4-0.3-1.8-0.8c-0.5-0.6-0.7-1.4-0.7-2.2
				c0-0.9,0.2-1.7,0.8-2.4c0.5-0.6,1.2-0.9,2-0.9c0.7,0,1.4,0.3,1.8,1l0,0v-3.7h1L259.9,98.7z M258.9,96v-0.9c0-0.5-0.2-0.9-0.5-1.2
				c-0.3-0.3-0.8-0.5-1.2-0.5c-0.5,0-1.1,0.2-1.4,0.7c-0.4,0.5-0.5,1.1-0.5,1.8c0,0.6,0.1,1.2,0.5,1.6c0.3,0.4,0.8,0.6,1.3,0.6
				c0.5,0,1-0.2,1.3-0.6C258.7,97,258.9,96.5,258.9,96L258.9,96z"/>
			<path class="st6" d="M266.6,95.9h-4.2c0,0.6,0.2,1.1,0.5,1.6c0.4,0.4,0.9,0.6,1.4,0.6c0.7,0,1.3-0.2,1.9-0.7v0.9
				c-0.6,0.4-1.4,0.6-2.1,0.6c-0.8,0-1.5-0.3-2-0.8c-1-1.4-1-3.2,0.1-4.6c0.5-0.6,1.2-0.9,2-0.9c0.7,0,1.4,0.2,1.8,0.8
				c0.5,0.6,0.7,1.4,0.6,2.1L266.6,95.9z M265.6,95.1c0-0.5-0.1-0.9-0.4-1.3c-0.3-0.3-0.7-0.5-1.1-0.5c-0.4,0-0.9,0.2-1.2,0.5
				c-0.3,0.3-0.5,0.8-0.6,1.3L265.6,95.1z"/>
		</g>
		<g>
			<path class="st6" d="M162.1,46.7H161l-1.4-2.3c-0.1-0.2-0.2-0.4-0.4-0.6c-0.1-0.1-0.2-0.3-0.4-0.4c-0.1-0.1-0.3-0.2-0.4-0.2
				c-0.2-0.1-0.3-0.1-0.5-0.1h-0.8v3.6h-1v-8.4h2.5c0.3,0,0.7,0,1,0.1c0.3,0.1,0.6,0.2,0.8,0.4c0.2,0.2,0.4,0.4,0.5,0.7
				c0.1,0.3,0.2,0.7,0.2,1c0,0.3,0,0.5-0.1,0.8c-0.1,0.2-0.2,0.5-0.4,0.7c-0.2,0.2-0.4,0.4-0.6,0.5c-0.2,0.1-0.5,0.2-0.8,0.3l0,0
				c0.1,0.1,0.3,0.1,0.4,0.2c0.1,0.1,0.2,0.2,0.3,0.3c0.1,0.1,0.2,0.2,0.3,0.4c0.1,0.1,0.2,0.3,0.3,0.5L162.1,46.7z M157.1,39.2v3
				h1.3c0.2,0,0.5,0,0.7-0.1c0.2-0.1,0.4-0.2,0.6-0.3c0.2-0.1,0.3-0.3,0.4-0.5c0.1-0.2,0.1-0.4,0.1-0.7c0-0.4-0.1-0.7-0.4-1
				c-0.4-0.3-0.8-0.4-1.3-0.4H157.1z"/>
			<path class="st6" d="M167.8,43.9h-4.2c0,0.6,0.2,1.1,0.5,1.5c0.4,0.4,0.9,0.6,1.4,0.5c0.7,0,1.3-0.2,1.9-0.7v0.9
				c-0.6,0.4-1.4,0.6-2.1,0.6c-0.8,0-1.5-0.3-2-0.8c-0.5-0.6-0.8-1.5-0.7-2.3c0-0.8,0.2-1.7,0.8-2.3c0.5-0.6,1.2-0.9,2-0.9
				c0.7,0,1.4,0.2,1.8,0.8c0.5,0.6,0.7,1.4,0.6,2.1L167.8,43.9z M166.8,43.1c0-0.5-0.1-0.9-0.4-1.3c-0.3-0.3-0.7-0.5-1.1-0.5
				c-0.4,0-0.9,0.2-1.2,0.5c-0.3,0.3-0.5,0.8-0.6,1.3L166.8,43.1z"/>
			<path class="st6" d="M174.4,46.7h-1v-1l0,0c-0.4,0.8-1.2,1.2-2.1,1.2c-0.7,0-1.4-0.3-1.8-0.8c-0.5-0.6-0.7-1.4-0.7-2.2
				c0-0.9,0.2-1.7,0.8-2.4c0.5-0.6,1.2-0.9,2-0.9c0.7,0,1.4,0.3,1.8,1l0,0v-3.8h1V46.7z M173.4,44v-0.9c0-0.5-0.2-0.9-0.5-1.2
				c-0.3-0.3-0.8-0.5-1.2-0.5c-0.5,0-1.1,0.2-1.4,0.7c-0.4,0.5-0.5,1.1-0.5,1.8c0,0.6,0.1,1.2,0.5,1.6c0.3,0.4,0.8,0.6,1.3,0.6
				c0.5,0,1-0.2,1.3-0.6C173.3,45,173.5,44.5,173.4,44L173.4,44z"/>
			<path class="st6" d="M176.8,39.2c-0.2,0-0.3-0.1-0.4-0.2c-0.1-0.1-0.2-0.3-0.2-0.4c0-0.2,0.1-0.3,0.2-0.5
				c0.1-0.1,0.3-0.2,0.4-0.2c0.2,0,0.3,0.1,0.4,0.2c0.2,0.2,0.3,0.6,0,0.9c0,0,0,0,0,0C177.1,39.1,176.9,39.2,176.8,39.2z
				 M177.2,46.7h-1v-6h1V46.7z"/>
			<path class="st6" d="M182.2,41.7c-0.2-0.1-0.5-0.2-0.7-0.2c-0.4,0-0.8,0.2-1,0.6c-0.3,0.5-0.4,1-0.4,1.6v3.1h-1v-6h1v1.2l0,0
				c0.1-0.4,0.3-0.7,0.6-1c0.3-0.2,0.6-0.3,0.9-0.3c0.2,0,0.4,0,0.6,0.1V41.7z"/>
			<path class="st6" d="M188.1,43.9h-4.2c0,0.6,0.2,1.1,0.5,1.5c0.4,0.4,0.9,0.6,1.4,0.5c0.7,0,1.3-0.2,1.9-0.7v0.9
				c-0.6,0.4-1.4,0.6-2.1,0.6c-0.8,0-1.5-0.3-2-0.8c-0.5-0.7-0.8-1.5-0.7-2.3c0-0.8,0.2-1.7,0.8-2.3c0.5-0.6,1.2-0.9,2-0.9
				c0.7,0,1.4,0.2,1.8,0.8c0.5,0.6,0.7,1.4,0.6,2.1L188.1,43.9z M187.1,43.1c0-0.5-0.1-0.9-0.4-1.3c-0.3-0.3-0.7-0.5-1.1-0.5
				c-0.4,0-0.9,0.2-1.2,0.5c-0.3,0.3-0.5,0.8-0.6,1.3L187.1,43.1z"/>
			<path class="st6" d="M193.6,46.4c-0.5,0.3-1.1,0.4-1.6,0.4c-0.8,0-1.5-0.3-2.1-0.8c-0.5-0.6-0.8-1.4-0.8-2.2
				c0-0.9,0.3-1.7,0.9-2.4c0.6-0.6,1.4-0.9,2.3-0.9c0.5,0,1,0.1,1.4,0.3v1c-0.4-0.3-0.9-0.5-1.4-0.5c-0.6,0-1.1,0.2-1.5,0.7
				c-0.4,0.5-0.6,1.1-0.6,1.7c0,0.6,0.2,1.2,0.6,1.7c0.4,0.4,0.9,0.6,1.5,0.6c0.5,0,1.1-0.2,1.5-0.5L193.6,46.4z"/>
			<path class="st6" d="M198.1,46.6c-0.3,0.1-0.6,0.2-0.9,0.2c-1,0-1.6-0.6-1.6-1.8v-3.6h-1v-0.8h1v-1.5l1-0.3v1.8h1.5v0.8h-1.5v3.4
				c0,0.3,0,0.6,0.2,0.9c0.2,0.2,0.4,0.3,0.7,0.3c0.2,0,0.4-0.1,0.6-0.2L198.1,46.6z"/>
		</g>
		<g>
			<path class="st6" d="M157.1,112.7v3.2h-1v-8.4h2.3c0.8-0.1,1.5,0.2,2.1,0.7c0.5,0.5,0.8,1.2,0.7,1.8c0,0.8-0.3,1.5-0.8,2
				c-0.6,0.5-1.4,0.8-2.2,0.8L157.1,112.7z M157.1,108.4v3.4h1c0.6,0,1.1-0.1,1.6-0.5c0.4-0.3,0.6-0.8,0.5-1.3c0-1.1-0.7-1.7-2-1.7
				H157.1z"/>
			<path class="st6" d="M165.6,110.8c-0.2-0.1-0.5-0.2-0.7-0.2c-0.4,0-0.8,0.2-1,0.6c-0.3,0.5-0.4,1-0.4,1.6v3h-1v-6h1v1.2l0,0
				c0.1-0.4,0.3-0.7,0.6-1c0.3-0.2,0.6-0.3,0.9-0.3c0.2,0,0.4,0,0.6,0.1L165.6,110.8z"/>
			<path class="st6" d="M169.2,116c-0.8,0-1.6-0.3-2.1-0.8c-0.6-0.6-0.8-1.4-0.8-2.2c0-0.9,0.3-1.7,0.8-2.4c0.6-0.6,1.4-0.9,2.2-0.8
				c0.8,0,1.6,0.3,2.1,0.8c0.5,0.6,0.8,1.5,0.8,2.3c0,0.8-0.2,1.7-0.8,2.3C170.8,115.7,170,116,169.2,116z M169.3,110.5
				c-0.6,0-1.1,0.2-1.5,0.6c-0.4,0.5-0.6,1.1-0.5,1.7c0,0.6,0.2,1.2,0.5,1.7c0.4,0.4,0.9,0.6,1.5,0.6c0.5,0,1.1-0.2,1.4-0.6
				c0.4-0.5,0.5-1.1,0.5-1.7c0-0.6-0.1-1.2-0.5-1.7C170.4,110.7,169.8,110.5,169.3,110.5L169.3,110.5z"/>
			<path class="st6" d="M182.2,115.9h-1v-3.4c0-0.5-0.1-1-0.3-1.4c-0.2-0.3-0.6-0.5-1-0.4c-0.4,0-0.8,0.2-1.1,0.6
				c-0.3,0.4-0.4,0.9-0.4,1.3v3.4h-1v-3.6c0-1.2-0.5-1.8-1.4-1.8c-0.4,0-0.8,0.2-1,0.5c-0.3,0.4-0.4,0.9-0.4,1.4v3.4h-1v-6h1v1l0,0
				c0.4-0.7,1.1-1.1,1.9-1.1c0.8,0,1.5,0.5,1.7,1.3c0.4-0.8,1.1-1.3,2-1.3c1.3,0,2,0.8,2,2.4L182.2,115.9z"/>
			<path class="st6" d="M184.9,115L184.9,115v3.6h-1v-8.8h1v1.1l0,0c0.4-0.8,1.2-1.2,2.1-1.2c0.7,0,1.4,0.3,1.8,0.8
				c0.5,0.6,0.7,1.4,0.6,2.2c0,0.9-0.2,1.7-0.7,2.4c-0.5,0.6-1.2,0.9-2,0.9C186,116,185.3,115.6,184.9,115z M184.9,112.6v0.8
				c0,0.5,0.2,0.9,0.5,1.3c0.7,0.7,1.8,0.7,2.4,0c0.1-0.1,0.1-0.1,0.2-0.2c0.4-0.6,0.5-1.2,0.5-1.9c0-0.6-0.1-1.1-0.5-1.6
				c-0.3-0.4-0.8-0.6-1.3-0.6c-0.5,0-1,0.2-1.4,0.6C185.1,111.5,184.9,112,184.9,112.6L184.9,112.6z"/>
			<path class="st6" d="M193.7,115.8c-0.3,0.1-0.6,0.2-0.9,0.2c-1,0-1.6-0.6-1.6-1.8v-3.6h-1v-0.8h1v-1.5l1-0.3v1.8h1.5v0.8h-1.6
				v3.4c0,0.3,0,0.6,0.2,0.9c0.2,0.2,0.4,0.3,0.7,0.3c0.2,0,0.4-0.1,0.6-0.2V115.8z"/>
			<path class="st6" d="M202.4,115.6c-0.5,0.3-1.1,0.4-1.6,0.4c-0.8,0-1.5-0.3-2.1-0.8c-0.5-0.6-0.8-1.4-0.8-2.2
				c0-0.9,0.3-1.7,0.9-2.4c0.6-0.6,1.4-0.9,2.3-0.9c0.5,0,1,0.1,1.4,0.3v1c-0.4-0.3-0.9-0.5-1.4-0.5c-0.6,0-1.1,0.2-1.5,0.7
				c-0.4,0.5-0.6,1.1-0.6,1.7c0,0.6,0.2,1.2,0.6,1.7c0.4,0.4,0.9,0.6,1.5,0.6c0.5,0,1.1-0.2,1.5-0.5L202.4,115.6z"/>
			<path class="st6" d="M206.8,110.8c-0.2-0.1-0.5-0.2-0.7-0.2c-0.4,0-0.8,0.2-1,0.6c-0.3,0.5-0.4,1-0.4,1.6v3h-1v-6h1v1.2l0,0
				c0.1-0.4,0.3-0.7,0.6-1c0.3-0.2,0.6-0.3,0.9-0.3c0.2,0,0.4,0,0.6,0.1L206.8,110.8z"/>
			<path class="st6" d="M212.7,113.1h-4.2c0,0.6,0.2,1.1,0.5,1.6c0.4,0.4,0.9,0.6,1.4,0.6c0.7,0,1.3-0.2,1.9-0.7v0.9
				c-0.6,0.4-1.3,0.6-2.1,0.6c-0.8,0-1.5-0.3-2-0.8c-0.5-0.7-0.8-1.5-0.7-2.3c0-0.8,0.2-1.6,0.8-2.3c0.5-0.6,1.2-0.9,2-0.9
				c0.7,0,1.4,0.2,1.8,0.8c0.5,0.6,0.7,1.4,0.6,2.1L212.7,113.1z M211.7,112.3c0-0.5-0.1-0.9-0.4-1.3c-0.3-0.3-0.7-0.5-1.1-0.5
				c-0.4,0-0.9,0.2-1.2,0.5c-0.3,0.3-0.5,0.8-0.6,1.3L211.7,112.3z"/>
			<path class="st6" d="M219.3,115.9h-1v-1l0,0c-0.7,1.1-2.2,1.5-3.3,0.8c-0.2-0.1-0.4-0.3-0.6-0.5c-0.5-0.6-0.7-1.4-0.7-2.2
				c0-0.9,0.2-1.7,0.8-2.4c0.5-0.6,1.2-0.9,2-0.9c0.7,0,1.4,0.3,1.8,1l0,0V107h1L219.3,115.9z M218.3,113.2v-0.9
				c0-0.5-0.2-0.9-0.5-1.2c-0.3-0.3-0.8-0.5-1.2-0.5c-0.5,0-1.1,0.2-1.4,0.7c-0.4,0.5-0.5,1.1-0.5,1.8c0,0.6,0.1,1.2,0.5,1.6
				c0.3,0.4,0.8,0.6,1.3,0.6c0.5,0,1-0.2,1.3-0.6C218.2,114.2,218.4,113.7,218.3,113.2L218.3,113.2z"/>
			<path class="st6" d="M226,113.1h-4.2c0,0.6,0.2,1.1,0.5,1.6c0.4,0.4,0.9,0.6,1.4,0.6c0.7,0,1.3-0.2,1.9-0.7v0.9
				c-0.6,0.4-1.3,0.6-2.1,0.6c-0.8,0-1.5-0.3-2-0.8c-0.5-0.7-0.8-1.5-0.7-2.3c0-0.8,0.3-1.7,0.8-2.3c0.5-0.6,1.2-0.9,2-0.9
				c0.7,0,1.4,0.2,1.8,0.8c0.5,0.6,0.7,1.4,0.6,2.1L226,113.1z M225,112.3c0-0.5-0.1-0.9-0.4-1.3c-0.3-0.3-0.7-0.5-1.1-0.5
				c-0.4,0-0.9,0.2-1.1,0.5c-0.3,0.3-0.5,0.8-0.6,1.3L225,112.3z"/>
			<path class="st6" d="M232.4,115.9h-1v-3.4c0-1.3-0.5-1.9-1.4-1.9c-0.5,0-0.9,0.2-1.2,0.5c-0.3,0.4-0.5,0.9-0.5,1.4v3.4h-1v-6h1v1
				l0,0c0.4-0.7,1.2-1.2,2-1.1c0.6,0,1.1,0.2,1.5,0.6c0.4,0.5,0.6,1.2,0.5,1.8L232.4,115.9z"/>
			<path class="st6" d="M236.9,115.8c-0.3,0.1-0.6,0.2-0.9,0.2c-1.1,0-1.6-0.6-1.6-1.8v-3.6h-1v-0.8h1v-1.5l1-0.3v1.8h1.5v0.8h-1.5
				v3.4c0,0.3,0,0.6,0.2,0.9c0.2,0.2,0.4,0.3,0.7,0.3c0.2,0,0.4-0.1,0.6-0.2L236.9,115.8z"/>
			<path class="st6" d="M238.6,108.3c-0.2,0-0.3-0.1-0.4-0.2c-0.2-0.3-0.2-0.6,0-0.9c0.1-0.1,0.3-0.2,0.4-0.2c0.2,0,0.3,0.1,0.4,0.2
				c0.1,0.1,0.2,0.3,0.2,0.4c0,0.2-0.1,0.3-0.2,0.4C239,108.3,238.8,108.3,238.6,108.3z M239.1,115.9h-1v-6h1V115.9z"/>
			<path class="st6" d="M245.2,115.9h-1v-0.9l0,0c-0.4,0.7-1.1,1.1-1.8,1.1c-0.5,0-1-0.1-1.4-0.5c-0.3-0.3-0.5-0.8-0.5-1.3
				c0-1.1,0.7-1.8,2-2l1.8-0.3c0-1-0.4-1.5-1.2-1.5c-0.7,0-1.4,0.3-2,0.7v-1c0.6-0.4,1.3-0.6,2-0.6c1.4,0,2.1,0.8,2.1,2.2
				L245.2,115.9z M244.2,112.9l-1.4,0.2c-0.4,0-0.7,0.1-1,0.3c-0.2,0.2-0.4,0.5-0.3,0.8c0,0.3,0.1,0.5,0.3,0.7
				c0.2,0.2,0.5,0.3,0.8,0.3c0.4,0,0.9-0.2,1.2-0.5c0.3-0.3,0.5-0.8,0.5-1.3L244.2,112.9z"/>
			<path class="st6" d="M247.9,115.9h-1V107h1V115.9z"/>
			<path class="st6" d="M249.5,115.7v-1c0.5,0.4,1.1,0.6,1.7,0.6c0.8,0,1.3-0.3,1.3-0.8c0-0.1,0-0.3-0.1-0.4
				c-0.1-0.1-0.2-0.2-0.3-0.3c-0.1-0.1-0.3-0.2-0.4-0.2l-0.5-0.2c-0.2-0.1-0.5-0.2-0.7-0.3c-0.2-0.1-0.4-0.2-0.5-0.4
				c-0.1-0.1-0.2-0.3-0.3-0.5c-0.1-0.2-0.1-0.4-0.1-0.6c0-0.3,0.1-0.5,0.2-0.8c0.1-0.2,0.3-0.4,0.5-0.5c0.2-0.2,0.5-0.3,0.7-0.3
				c0.3-0.1,0.6-0.1,0.9-0.1c0.5,0,1,0.1,1.4,0.3v1c-0.5-0.3-1-0.4-1.5-0.4c-0.2,0-0.3,0-0.5,0.1c-0.1,0-0.3,0.1-0.4,0.2
				c-0.1,0.1-0.2,0.2-0.2,0.3c-0.1,0.1-0.1,0.2-0.1,0.3c0,0.1,0,0.3,0.1,0.4c0.1,0.1,0.1,0.2,0.3,0.3c0.1,0.1,0.3,0.2,0.4,0.2
				l0.5,0.2c0.3,0.1,0.5,0.2,0.7,0.3c0.2,0.1,0.4,0.2,0.5,0.4c0.1,0.1,0.3,0.3,0.4,0.5c0.1,0.2,0.1,0.4,0.1,0.6
				c0,0.3-0.1,0.5-0.2,0.8c-0.1,0.2-0.3,0.4-0.5,0.6c-0.2,0.1-0.5,0.3-0.8,0.3c-0.3,0.1-0.6,0.1-0.9,0.1
				C250.5,116.1,250,115.9,249.5,115.7z"/>
		</g>
		<g>
			<path class="st0" d="M590.5,74.2h-1.9v-5c0-0.5,0-1.1,0.1-1.8h0c-0.1,0.4-0.1,0.7-0.3,1.1l-2,5.7h-1.5l-2-5.7
				c-0.1-0.4-0.2-0.8-0.3-1.2h-0.1c0,0.8,0.1,1.6,0.1,2.2v4.7h-1.7v-8.4h2.8l1.7,5c0.1,0.4,0.2,0.8,0.3,1.2l0,0
				c0.1-0.4,0.2-0.8,0.3-1.2l1.7-5h2.7L590.5,74.2z"/>
			<path class="st0" d="M593.1,67.3c-0.3,0-0.6-0.1-0.8-0.3c-0.2-0.2-0.3-0.4-0.3-0.7c0-0.3,0.1-0.5,0.3-0.7
				c0.2-0.2,0.5-0.3,0.8-0.3c0.3,0,0.6,0.1,0.8,0.3c0.2,0.2,0.3,0.4,0.3,0.7c0,0.3-0.1,0.5-0.3,0.7
				C593.7,67.2,593.4,67.3,593.1,67.3z M594,74.2h-1.8v-6h1.8L594,74.2z"/>
			<path class="st0" d="M600.1,74c-0.6,0.3-1.2,0.4-1.8,0.4c-0.8,0-1.6-0.3-2.2-0.8c-0.6-0.6-0.9-1.4-0.9-2.2c0-0.9,0.3-1.8,0.9-2.4
				c0.7-0.6,1.5-0.9,2.5-0.9c0.5,0,1.1,0.1,1.5,0.3v1.6c-0.4-0.3-0.8-0.4-1.3-0.4c-0.5,0-0.9,0.1-1.3,0.5c-0.3,0.3-0.5,0.8-0.5,1.3
				c0,0.5,0.1,0.9,0.4,1.3c0.3,0.3,0.8,0.5,1.2,0.4c0.5,0,1-0.2,1.3-0.4L600.1,74z"/>
			<path class="st0" d="M605.3,69.9c-0.2-0.1-0.5-0.2-0.8-0.2c-0.4,0-0.7,0.2-0.9,0.4c-0.2,0.3-0.4,0.8-0.3,1.2v2.9h-1.8v-6h1.8v1.1
				l0,0c0.2-0.7,0.8-1.2,1.6-1.2c0.2,0,0.3,0,0.5,0.1L605.3,69.9z"/>
			<path class="st0" d="M609.2,74.4c-0.9,0-1.7-0.3-2.4-0.8c-0.6-0.6-0.9-1.4-0.9-2.3c0-0.9,0.3-1.7,0.9-2.3
				c0.7-0.6,1.5-0.9,2.4-0.8c0.9,0,1.7,0.3,2.3,0.8c0.6,0.6,0.9,1.4,0.8,2.2c0,0.9-0.3,1.7-0.9,2.4C610.9,74.1,610,74.4,609.2,74.4z
				 M609.2,69.5c-0.4,0-0.8,0.2-1,0.4c-0.3,0.4-0.4,0.8-0.4,1.3c0,1.2,0.5,1.7,1.4,1.7s1.3-0.6,1.3-1.8S610.1,69.5,609.2,69.5
				L609.2,69.5z"/>
			<path class="st0" d="M613.3,74.1v-1.5c0.3,0.2,0.6,0.3,0.9,0.4c0.3,0.1,0.6,0.1,0.9,0.1c0.3,0,0.5,0,0.8-0.1
				c0.2-0.1,0.3-0.2,0.3-0.4c0-0.1,0-0.2-0.1-0.3c-0.1-0.1-0.2-0.1-0.3-0.2c-0.1-0.1-0.3-0.1-0.5-0.2l-0.5-0.2
				c-0.2-0.1-0.4-0.2-0.6-0.3c-0.2-0.1-0.3-0.2-0.5-0.4c-0.1-0.1-0.2-0.3-0.3-0.5c-0.1-0.2-0.1-0.4-0.1-0.6c0-0.3,0.1-0.6,0.2-0.9
				c0.1-0.2,0.3-0.4,0.6-0.6c0.3-0.2,0.5-0.3,0.8-0.3c0.3-0.1,0.7-0.1,1-0.1c0.3,0,0.5,0,0.8,0.1c0.3,0,0.5,0.1,0.8,0.2v1.4
				c-0.2-0.1-0.5-0.2-0.8-0.3c-0.3-0.1-0.5-0.1-0.8-0.1c-0.1,0-0.2,0-0.3,0c-0.1,0-0.2,0.1-0.3,0.1c-0.1,0-0.1,0.1-0.2,0.2
				c0,0.1-0.1,0.1-0.1,0.2c0,0.1,0,0.2,0.1,0.3c0.1,0.1,0.2,0.2,0.3,0.2l0.4,0.2l0.4,0.1c0.2,0.1,0.5,0.2,0.7,0.3
				c0.2,0.1,0.4,0.2,0.5,0.4c0.1,0.1,0.3,0.3,0.3,0.5c0.1,0.2,0.1,0.4,0.1,0.7c0,0.3-0.1,0.6-0.2,0.9c-0.2,0.3-0.4,0.5-0.6,0.6
				c-0.3,0.2-0.6,0.3-0.9,0.3c-0.3,0.1-0.7,0.1-1,0.1C614.5,74.3,613.9,74.3,613.3,74.1z"/>
			<path class="st0" d="M621.8,74.4c-0.9,0-1.7-0.3-2.4-0.8c-1.2-1.3-1.2-3.3,0-4.6c0.7-0.6,1.5-0.9,2.4-0.8
				c0.9-0.1,1.7,0.3,2.3,0.8c0.6,0.6,0.9,1.4,0.8,2.2c0,0.9-0.3,1.7-0.9,2.4C623.6,74.1,622.7,74.4,621.8,74.4z M621.8,69.5
				c-0.4,0-0.8,0.2-1,0.4c-0.3,0.4-0.4,0.8-0.4,1.3c0,1.2,0.5,1.7,1.4,1.7s1.3-0.6,1.3-1.8S622.8,69.5,621.8,69.5L621.8,69.5z"/>
			<path class="st0" d="M630.2,66.7c-0.2-0.1-0.4-0.1-0.7-0.1c-0.6,0-0.9,0.3-0.9,1v0.6h1.4v1.4h-1.4v4.6h-1.8v-4.7h-1v-1.4h1v-0.8
				c0-0.6,0.2-1.2,0.7-1.7c0.5-0.4,1.1-0.7,1.8-0.6c0.3,0,0.6,0,0.9,0.1L630.2,66.7z"/>
			<path class="st0" d="M634.8,74.1c-0.4,0.2-0.8,0.2-1.2,0.2c-1,0.1-1.9-0.5-2-1.5c0-0.2,0-0.3,0-0.5v-2.8h-1v-1.4h1v-1.3l1.8-0.5
				v1.8h1.3v1.4h-1.3V72c0,0.6,0.3,0.9,0.8,0.9c0.2,0,0.4-0.1,0.6-0.2V74.1z"/>
			<path class="st0" d="M587.2,81.7c-0.3,0-0.6-0.1-0.8-0.3c-0.2-0.2-0.3-0.4-0.3-0.7c0-0.3,0.1-0.5,0.3-0.7
				c0.2-0.2,0.5-0.3,0.8-0.3c0.3,0,0.6,0.1,0.8,0.3c0.2,0.2,0.3,0.4,0.3,0.7c0,0.3-0.1,0.5-0.3,0.7
				C587.7,81.6,587.5,81.7,587.2,81.7z M588.1,88.7h-1.9v-6h1.9V88.7z"/>
			<path class="st0" d="M595.5,88.6h-1.9v-0.8l0,0c-0.4,0.6-1.1,1-1.9,1c-0.7,0-1.3-0.3-1.8-0.8c-0.5-0.6-0.7-1.4-0.7-2.2
				c0-0.9,0.2-1.7,0.8-2.4c0.5-0.6,1.2-0.9,2-0.9c0.7-0.1,1.3,0.3,1.6,0.8l0,0v-3.6h1.9L595.5,88.6z M593.7,85.7v-0.4
				c0-0.4-0.1-0.7-0.3-1c-0.2-0.3-0.6-0.4-0.9-0.4c-0.4,0-0.8,0.2-1,0.5c-0.2,0.4-0.4,0.9-0.3,1.3c0,0.4,0.1,0.9,0.3,1.2
				c0.2,0.3,0.6,0.4,0.9,0.4c0.4,0,0.7-0.2,0.9-0.4C593.6,86.5,593.7,86.1,593.7,85.7z"/>
			<path class="st0" d="M602.5,86.1h-3.9c0.1,0.9,0.6,1.3,1.7,1.3c0.6,0,1.2-0.2,1.7-0.5v1.3c-0.7,0.3-1.4,0.5-2.2,0.4
				c-0.8,0.1-1.6-0.2-2.3-0.8c-0.6-0.6-0.9-1.4-0.8-2.3c0-0.9,0.3-1.7,0.9-2.4c0.6-0.6,1.3-0.9,2.1-0.9c0.7,0,1.5,0.2,2,0.8
				c0.5,0.6,0.8,1.3,0.7,2.1L602.5,86.1z M600.8,85c0-0.9-0.3-1.3-1-1.3c-0.3,0-0.6,0.1-0.8,0.4c-0.2,0.3-0.4,0.6-0.4,0.9H600.8z"/>
			<path class="st0" d="M609.4,88.6h-1.8v-3.3c0-0.9-0.3-1.4-1-1.4c-0.3,0-0.6,0.1-0.8,0.4c-0.2,0.3-0.3,0.6-0.3,0.9v3.4h-1.9v-6
				h1.9v0.9l0,0c0.4-0.7,1.1-1.1,1.9-1.1c1.3,0,2,0.8,2,2.5L609.4,88.6z"/>
			<path class="st0" d="M614.5,88.5c-0.4,0.2-0.8,0.2-1.2,0.2c-1,0.1-1.9-0.5-2-1.5c0-0.2,0-0.3,0-0.5V84h-1v-1.4h1v-1.3l1.8-0.5
				v1.8h1.3V84h-1.3v2.4c0,0.6,0.3,0.9,0.8,0.9c0.2,0,0.4-0.1,0.6-0.2L614.5,88.5z"/>
			<path class="st0" d="M616.5,81.7c-0.3,0-0.6-0.1-0.8-0.3c-0.2-0.2-0.3-0.4-0.3-0.7c0-0.3,0.1-0.5,0.3-0.7
				c0.2-0.2,0.5-0.3,0.8-0.3c0.3,0,0.6,0.1,0.8,0.3c0.2,0.2,0.3,0.4,0.3,0.7c0,0.3-0.1,0.5-0.3,0.7
				C617.1,81.6,616.8,81.7,616.5,81.7z M617.4,88.7h-1.8v-6h1.8V88.7z"/>
			<path class="st0" d="M622.5,88.5c-0.4,0.2-0.8,0.2-1.2,0.2c-1,0.1-1.9-0.5-2-1.5c0-0.2,0-0.3,0-0.5V84h-1v-1.4h1v-1.3l1.8-0.5
				v1.8h1.3V84h-1.3v2.4c0,0.6,0.3,0.9,0.8,0.9c0.2,0,0.4-0.1,0.6-0.2L622.5,88.5z"/>
			<path class="st0" d="M629.6,82.6l-2.4,6.5c-0.6,1.6-1.5,2.3-2.7,2.3c-0.4,0-0.7,0-1.1-0.2v-1.5c0.2,0.1,0.5,0.2,0.8,0.2
				c0.4,0,0.9-0.2,1-0.7l0.3-0.8l-2.4-6h2l1.1,3.7c0.1,0.3,0.1,0.5,0.2,0.8l0,0c0-0.3,0.1-0.5,0.2-0.8l1.1-3.7L629.6,82.6z"/>
			<path class="st0" d="M585.2,102.3L585.2,102.3v3.5h-1.8V97h1.8v0.9l0,0c0.4-0.7,1.1-1,1.9-1c0.7,0,1.4,0.3,1.8,0.8
				c0.5,0.6,0.7,1.4,0.6,2.2c0,0.9-0.2,1.7-0.7,2.4c-0.5,0.6-1.2,0.9-2,0.9C586.2,103.2,585.6,102.9,585.2,102.3z M585.2,99.9v0.5
				c0,0.4,0.1,0.7,0.3,1c0.2,0.3,0.5,0.4,0.9,0.4c0.4,0,0.8-0.2,1-0.5c0.3-0.4,0.4-0.9,0.3-1.4c0-1.1-0.4-1.6-1.2-1.6
				c-0.4,0-0.7,0.1-0.9,0.4C585.3,99,585.2,99.4,585.2,99.9z"/>
			<path class="st0" d="M592.7,103h-1.9v-8.9h1.9V103z"/>
			<path class="st0" d="M599.3,103h-1.8v-0.9l0,0c-0.4,0.6-1,1-1.8,1c-0.5,0-1-0.1-1.4-0.5c-0.3-0.4-0.5-0.8-0.5-1.3
				c0-1.2,0.7-1.8,2.1-2l1.6-0.2c0-0.7-0.4-1-1.1-1c-0.7,0-1.4,0.2-2,0.6v-1.4c0.3-0.2,0.7-0.3,1.1-0.3c0.4-0.1,0.8-0.1,1.2-0.2
				c1.2-0.2,2.4,0.7,2.6,1.9c0,0.2,0,0.4,0,0.6L599.3,103z M597.5,100.6v-0.4l-1.1,0.1c-0.6,0.1-0.9,0.3-0.9,0.8
				c0,0.2,0.1,0.4,0.2,0.5c0.2,0.1,0.4,0.2,0.6,0.2c0.3,0,0.6-0.1,0.8-0.4C597.4,101.2,597.5,100.9,597.5,100.6L597.5,100.6z"/>
			<path class="st0" d="M604.3,102.9c-0.4,0.2-0.8,0.2-1.2,0.2c-1,0.1-1.9-0.5-2-1.5c0-0.2,0-0.3,0-0.5v-2.8h-1V97h1v-1.3l1.8-0.5
				V97h1.3v1.4h-1.3v2.4c0,0.6,0.2,0.9,0.7,0.9c0.2,0,0.4-0.1,0.6-0.2L604.3,102.9z"/>
			<path class="st0" d="M609.4,95.5c-0.2-0.1-0.5-0.1-0.7-0.1c-0.6,0-0.9,0.3-0.9,1V97h1.4v1.4h-1.4v4.6H606v-4.6h-1V97h1v-0.8
				c0-0.6,0.2-1.2,0.7-1.7c0.5-0.4,1.2-0.7,1.8-0.6c0.3,0,0.6,0,0.9,0.1L609.4,95.5z"/>
			<path class="st0" d="M613,103.2c-0.9,0-1.7-0.3-2.4-0.8c-1.2-1.3-1.2-3.3,0-4.6c0.7-0.6,1.5-0.9,2.4-0.8c0.9,0,1.7,0.3,2.3,0.8
				c0.6,0.6,0.9,1.4,0.8,2.2c0,0.9-0.3,1.7-0.9,2.4C614.7,102.9,613.9,103.2,613,103.2z M613,98.3c-0.4,0-0.8,0.2-1,0.4
				c-0.3,0.4-0.4,0.8-0.4,1.3c0,1.2,0.5,1.7,1.4,1.7s1.3-0.6,1.3-1.8S613.9,98.3,613,98.3z"/>
			<path class="st0" d="M621.3,98.7c-0.2-0.1-0.5-0.2-0.8-0.2c-0.4,0-0.7,0.2-0.9,0.4c-0.2,0.3-0.4,0.8-0.3,1.2v2.9h-1.8v-6h1.8v1.1
				l0,0c0.2-0.7,0.8-1.2,1.6-1.2c0.2,0,0.3,0,0.5,0.1L621.3,98.7z"/>
			<path class="st0" d="M631.7,103h-1.8v-3.4c0-0.9-0.3-1.3-1-1.3c-0.3,0-0.6,0.1-0.7,0.4c-0.2,0.3-0.3,0.6-0.3,1v3.3H626v-3.4
				c0-0.8-0.3-1.3-0.9-1.3c-0.3,0-0.6,0.1-0.8,0.4c-0.2,0.3-0.3,0.6-0.3,1v3.3h-1.8v-6h1.8v0.9l0,0c0.2-0.3,0.5-0.6,0.8-0.8
				c0.3-0.2,0.7-0.3,1.1-0.3c0.8-0.1,1.5,0.4,1.8,1.2c0.4-0.7,1.2-1.2,2-1.1c1.3,0,2,0.8,2,2.4L631.7,103z"/>
		</g>
		<g>
			<path class="st0" d="M360.2,34.1c0.1,0.9-0.2,1.8-0.8,2.6c-0.6,0.6-1.4,1-2.3,0.9c-0.4,0-0.8-0.1-1.2-0.2v-1.8
				c0.3,0.2,0.7,0.4,1.1,0.4c0.9,0,1.3-0.7,1.3-1.9V29h1.9L360.2,34.1z"/>
			<path class="st0" d="M366.8,37.4H365v-0.9l0,0c-0.4,0.6-1.1,1-1.8,1c-0.5,0-1-0.1-1.4-0.5c-0.3-0.4-0.5-0.8-0.5-1.3
				c0-1.2,0.7-1.8,2.1-2l1.6-0.2c0-0.7-0.4-1-1.1-1c-0.7,0-1.4,0.2-2,0.6v-1.4c0.3-0.2,0.7-0.3,1.1-0.4c0.4-0.1,0.8-0.1,1.2-0.1
				c1.2-0.2,2.4,0.7,2.6,1.9c0,0.2,0,0.4,0,0.6L366.8,37.4z M365,35v-0.4l-1.1,0.1c-0.6,0.1-0.9,0.3-0.9,0.8c0,0.2,0.1,0.4,0.2,0.5
				c0.2,0.1,0.4,0.2,0.6,0.2c0.3,0,0.6-0.1,0.9-0.4C364.9,35.7,365,35.3,365,35z"/>
			<path class="st0" d="M373.8,31.4l-2.2,6h-2.1l-2.1-6h2l1,3.7c0.1,0.3,0.2,0.7,0.2,1.1l0,0c0-0.3,0.1-0.7,0.2-1l1.1-3.7
				L373.8,31.4z"/>
			<path class="st0" d="M379.5,37.4h-1.8v-0.9l0,0c-0.4,0.6-1.1,1-1.8,1c-0.5,0-1-0.1-1.4-0.5c-0.3-0.4-0.5-0.8-0.5-1.3
				c0-1.2,0.7-1.8,2.1-2l1.6-0.2c0-0.7-0.4-1-1.1-1c-0.7,0-1.4,0.2-2,0.6v-1.4c0.3-0.2,0.7-0.3,1-0.4c0.4-0.1,0.8-0.1,1.2-0.1
				c1.2-0.2,2.4,0.7,2.6,1.9c0,0.2,0,0.4,0,0.6L379.5,37.4z M377.8,35v-0.4l-1.1,0.1c-0.6,0.1-0.9,0.3-0.9,0.8
				c0,0.2,0.1,0.4,0.2,0.5c0.2,0.1,0.4,0.2,0.6,0.2c0.3,0,0.6-0.1,0.9-0.4C377.7,35.7,377.8,35.3,377.8,35z"/>
			<path class="st0" d="M395.5,29l-2.2,8.4h-2.1l-1.4-5.4c-0.1-0.3-0.1-0.6-0.1-0.9l0,0c0,0.3-0.1,0.6-0.1,0.9l-1.5,5.4h-2.2
				l-2.2-8.4h2.1l1.2,5.6c0.1,0.3,0.1,0.7,0.1,1l0,0c0-0.3,0.1-0.7,0.2-1l1.6-5.6h2l1.4,5.6c0.1,0.3,0.1,0.6,0.1,0.9l0,0
				c0-0.3,0.1-0.6,0.1-0.9l1.2-5.6H395.5z"/>
			<path class="st0" d="M401.4,35h-3.9c0.1,0.9,0.6,1.3,1.6,1.3c0.6,0,1.2-0.2,1.7-0.5v1.3c-0.7,0.3-1.4,0.5-2.2,0.5
				c-1.5,0.2-2.9-1-3-2.5c0-0.2,0-0.4,0-0.5c0-0.9,0.3-1.7,0.9-2.4c0.6-0.6,1.3-0.9,2.1-0.9c0.7,0,1.5,0.2,2,0.8
				c0.5,0.6,0.8,1.3,0.7,2.1L401.4,35z M399.7,33.9c0-0.9-0.4-1.3-1-1.3c-0.3,0-0.6,0.1-0.8,0.4c-0.2,0.3-0.4,0.6-0.4,0.9H399.7z"/>
			<path class="st0" d="M404.5,36.8L404.5,36.8v0.7h-1.9v-8.9h1.9v3.8l0,0c0.4-0.7,1.2-1.1,2-1c0.7,0,1.4,0.3,1.8,0.8
				c0.4,0.6,0.7,1.4,0.6,2.2c0,0.9-0.2,1.7-0.7,2.4c-0.5,0.6-1.2,1-2,0.9C405.4,37.6,404.8,37.3,404.5,36.8z M404.4,34.2v0.6
				c0,0.4,0.1,0.7,0.3,1c0.2,0.3,0.5,0.4,0.9,0.4c0.4,0,0.8-0.2,1-0.5c0.3-0.4,0.4-0.9,0.4-1.4c0-0.4-0.1-0.8-0.3-1.2
				c-0.2-0.3-0.6-0.4-0.9-0.4c-0.4,0-0.7,0.1-0.9,0.4C404.5,33.5,404.4,33.8,404.4,34.2z"/>
			<path class="st0" d="M358.3,51.8h-2.1l-0.6-1.8h-3l-0.6,1.9H350l3-8.4h2.3L358.3,51.8z M355.2,48.5l-0.9-2.8
				c-0.1-0.2-0.1-0.5-0.1-0.8h0c0,0.2-0.1,0.5-0.1,0.7l-0.9,2.8H355.2z"/>
			<path class="st0" d="M361.1,51.2L361.1,51.2v3.4h-1.9v-8.8h1.8v0.9l0,0c0.7-1.1,2.2-1.4,3.3-0.6c0.2,0.1,0.3,0.2,0.5,0.4
				c0.4,0.6,0.7,1.4,0.6,2.2c0,0.9-0.2,1.7-0.7,2.4c-0.5,0.6-1.2,0.9-2,0.9C362,52,361.4,51.7,361.1,51.2z M361,48.7v0.5
				c0,0.4,0.1,0.7,0.3,1c0.2,0.3,0.5,0.4,0.9,0.4c0.4,0,0.8-0.2,1-0.5c0.3-0.4,0.4-0.9,0.4-1.4c0-1.1-0.4-1.6-1.2-1.6
				c-0.4,0-0.7,0.2-0.9,0.4C361.1,47.9,361,48.3,361,48.7z"/>
			<path class="st0" d="M368.5,51.2L368.5,51.2v3.4h-1.9v-8.8h1.9v0.9l0,0c0.4-0.7,1.2-1,1.9-1c0.7,0,1.4,0.3,1.8,0.8
				c0.5,0.6,0.7,1.4,0.6,2.2c0,0.9-0.2,1.7-0.7,2.4c-0.5,0.6-1.2,0.9-2,0.9C369.5,52.1,368.9,51.7,368.5,51.2z M368.5,48.7v0.5
				c0,0.4,0.1,0.7,0.3,1c0.2,0.3,0.5,0.4,0.9,0.4c0.4,0,0.8-0.2,1-0.5c0.2-0.4,0.3-0.9,0.3-1.4c0-1.1-0.4-1.6-1.2-1.6
				c-0.4,0-0.7,0.2-0.9,0.4C368.6,47.9,368.4,48.3,368.5,48.7L368.5,48.7z"/>
			<path class="st0" d="M376,51.8h-1.9V43h1.9V51.8z"/>
			<path class="st0" d="M378.4,44.9c-0.3,0-0.6-0.1-0.8-0.3c-0.2-0.2-0.3-0.4-0.3-0.7c0-0.3,0.1-0.5,0.3-0.7
				c0.2-0.2,0.5-0.3,0.8-0.3c0.3,0,0.6,0.1,0.8,0.3c0.4,0.3,0.4,0.9,0.1,1.3c0,0,0,0-0.1,0.1C379,44.8,378.7,44.9,378.4,44.9z
				 M379.4,51.9h-1.9v-6h1.9V51.9z"/>
			<path class="st0" d="M385.4,51.6c-0.6,0.3-1.2,0.4-1.8,0.4c-0.8,0-1.6-0.3-2.2-0.8c-0.6-0.6-0.9-1.4-0.9-2.2
				c0-0.9,0.3-1.8,0.9-2.4c0.7-0.6,1.6-0.9,2.5-0.9c0.5,0,1.1,0.1,1.5,0.3v1.6c-0.4-0.3-0.8-0.4-1.3-0.4c-1,0.1-1.8,0.9-1.7,1.9
				c0,0.4,0.2,0.8,0.4,1.1c0.3,0.3,0.8,0.5,1.2,0.5c0.5,0,1-0.2,1.4-0.4V51.6z"/>
			<path class="st0" d="M391.7,51.8H390V51l0,0c-0.4,0.6-1,1-1.8,1c-0.5,0-1-0.2-1.4-0.5c-0.3-0.4-0.5-0.8-0.5-1.3
				c0-1.2,0.7-1.8,2.1-2L390,48c0-0.7-0.4-1-1.1-1c-0.7,0-1.4,0.2-2,0.6v-1.4c0.3-0.2,0.7-0.3,1.1-0.3c0.4-0.1,0.8-0.1,1.2-0.2
				c1.2-0.2,2.4,0.7,2.6,1.9c0,0.2,0,0.4,0,0.6L391.7,51.8z M390,49.4V49l-1.1,0.1c-0.6,0.1-0.9,0.3-0.9,0.8c0,0.2,0.1,0.4,0.2,0.5
				c0.2,0.1,0.4,0.2,0.6,0.2c0.3,0,0.6-0.1,0.9-0.4C389.9,50.1,390,49.7,390,49.4z"/>
			<path class="st0" d="M396.7,51.8c-0.4,0.2-0.8,0.2-1.2,0.2c-1,0.1-1.9-0.5-2-1.5c0-0.2,0-0.3,0-0.5v-2.8h-1v-1.4h1v-1.3l1.8-0.5
				v1.8h1.4v1.4h-1.4v2.4c0,0.6,0.3,0.9,0.8,0.9c0.2,0,0.4-0.1,0.6-0.2L396.7,51.8z"/>
			<path class="st0" d="M398.8,44.9c-0.3,0-0.6-0.1-0.8-0.3c-0.2-0.2-0.3-0.4-0.3-0.7c0-0.3,0.1-0.5,0.3-0.7
				c0.2-0.2,0.5-0.3,0.8-0.3c0.3,0,0.6,0.1,0.8,0.3c0.4,0.3,0.4,0.9,0.1,1.3c0,0,0,0-0.1,0.1C399.3,44.8,399.1,44.9,398.8,44.9z
				 M399.7,51.9h-1.9v-6h1.9V51.9z"/>
			<path class="st0" d="M404.1,52c-0.9,0-1.7-0.3-2.4-0.8c-0.6-0.6-0.9-1.4-0.9-2.3c0-0.9,0.3-1.7,0.9-2.3c0.7-0.6,1.5-0.9,2.4-0.8
				c0.9,0,1.7,0.3,2.3,0.8c0.6,0.6,0.9,1.4,0.9,2.2c0,0.9-0.3,1.7-0.9,2.4C405.8,51.7,405,52.1,404.1,52z M404.1,47.1
				c-0.4,0-0.8,0.2-1,0.5c-0.3,0.4-0.4,0.8-0.4,1.3c0,1.2,0.5,1.7,1.4,1.7s1.3-0.6,1.3-1.8S405,47.1,404.1,47.1L404.1,47.1z"/>
			<path class="st0" d="M414.4,51.8h-1.9v-3.3c0-0.9-0.3-1.4-1-1.4c-0.3,0-0.6,0.1-0.8,0.4c-0.2,0.3-0.3,0.6-0.3,0.9v3.4h-1.9v-6
				h1.9v1l0,0c0.4-0.7,1.1-1.1,1.9-1.1c1.3,0,2,0.8,2,2.5L414.4,51.8z"/>
		</g>
		<g>
			<path class="st6" d="M51.6,112.6l-2.2,8.4h-2.1l-1.4-5.4c-0.1-0.3-0.1-0.6-0.1-0.9l0,0c0,0.3-0.1,0.6-0.2,0.9l-1.5,5.4h-2.2
				l-2.2-8.4h2.1l1.2,5.6c0.1,0.3,0.1,0.7,0.1,1l0,0c0-0.3,0.1-0.7,0.2-1l1.5-5.6h2l1.4,5.7c0.1,0.3,0.1,0.6,0.1,0.9l0,0
				c0-0.3,0.1-0.6,0.1-0.9l1.2-5.6L51.6,112.6z"/>
			<path class="st6" d="M57.5,118.5h-3.9c0.1,0.9,0.6,1.3,1.6,1.3c0.6,0,1.2-0.2,1.7-0.5v1.3c-0.7,0.3-1.4,0.5-2.2,0.4
				c-1.5,0.2-2.9-1-3.1-2.5c0-0.2,0-0.3,0-0.5c0-0.9,0.3-1.7,0.9-2.4c0.6-0.6,1.3-0.9,2.1-0.9c0.7,0,1.5,0.2,2,0.8
				c0.5,0.6,0.8,1.3,0.7,2.1L57.5,118.5z M55.8,117.4c0-0.9-0.3-1.3-1-1.3c-0.3,0-0.6,0.1-0.8,0.4c-0.2,0.3-0.4,0.6-0.4,0.9H55.8z"
				/>
			<path class="st6" d="M60.6,120.3L60.6,120.3v0.7h-1.9v-8.9h1.8v3.8l0,0c0.4-0.7,1.2-1,2-1c0.7,0,1.4,0.3,1.8,0.8
				c0.5,0.6,0.7,1.4,0.6,2.2c0,0.9-0.2,1.7-0.7,2.4c-0.5,0.6-1.2,0.9-2,0.9C61.5,121.2,60.9,120.8,60.6,120.3z M60.5,117.7v0.6
				c0,0.4,0.1,0.7,0.3,1c0.2,0.3,0.5,0.4,0.8,0.4c0.4,0,0.8-0.2,1-0.5c0.3-0.4,0.4-0.9,0.3-1.4c0-0.4-0.1-0.8-0.3-1.2
				c-0.2-0.3-0.6-0.4-0.9-0.4c-0.4,0-0.7,0.1-0.9,0.4C60.7,117,60.5,117.3,60.5,117.7z"/>
			<path class="st6" d="M32.3,134.7L32.3,134.7v0.7h-1.9v-8.9h1.9v3.8l0,0c0.4-0.7,1.2-1,2-1c0.7-0.1,1.4,0.2,1.8,0.7
				c0.5,0.6,0.7,1.4,0.6,2.2c0,0.9-0.2,1.7-0.7,2.4c-0.5,0.6-1.2,0.9-2,0.9C33.3,135.5,32.6,135.2,32.3,134.7z M32.2,132.1v0.6
				c0,0.4,0.1,0.7,0.3,1c0.2,0.3,0.5,0.4,0.9,0.4c0.4,0,0.8-0.2,1-0.5c0.3-0.4,0.4-0.9,0.3-1.4c0-0.4-0.1-0.8-0.3-1.2
				c-0.2-0.3-0.6-0.4-0.9-0.4c-0.4,0-0.7,0.1-0.9,0.4C32.4,131.4,32.2,131.7,32.2,132.1z"/>
			<path class="st6" d="M41.8,131c-0.2-0.1-0.5-0.2-0.8-0.2c-0.4,0-0.8,0.1-1,0.4c-0.2,0.4-0.4,0.8-0.3,1.2v2.9h-1.8v-6h1.8v1.1l0,0
				c0.2-0.7,0.8-1.2,1.6-1.2c0.2,0,0.3,0,0.5,0.1L41.8,131z"/>
			<path class="st6" d="M45.6,135.5c-0.9,0-1.7-0.3-2.4-0.8c-1.2-1.3-1.2-3.3,0-4.6c0.7-0.6,1.5-0.9,2.4-0.8c0.9,0,1.7,0.3,2.3,0.8
				c0.6,0.6,0.9,1.4,0.8,2.2c0,0.9-0.3,1.7-0.9,2.4C47.3,135.2,46.5,135.5,45.6,135.5z M45.6,130.6c-0.4,0-0.8,0.2-1,0.4
				c-0.3,0.4-0.4,0.8-0.4,1.3c0,1.1,0.5,1.7,1.4,1.7s1.3-0.6,1.3-1.8S46.5,130.6,45.6,130.6L45.6,130.6z"/>
			<path class="st6" d="M58.6,129.4l-1.7,6h-2l-0.9-3.5c-0.1-0.3-0.1-0.5-0.1-0.8l0,0c0,0.3-0.1,0.5-0.1,0.8l-1,3.5h-1.9l-1.7-6h1.9
				l0.8,3.9c0,0.2,0.1,0.4,0.1,0.7l0,0c0-0.2,0-0.5,0.1-0.7l1-3.9H55l0.9,3.9c0,0.1,0,0.3,0.1,0.7l0,0c0-0.2,0.1-0.4,0.1-0.7
				l0.8-3.9L58.6,129.4z"/>
			<path class="st6" d="M59.1,135.2v-1.5c0.3,0.2,0.6,0.3,0.9,0.4c0.3,0.1,0.6,0.1,0.9,0.1c0.3,0,0.5,0,0.8-0.1
				c0.2-0.1,0.3-0.2,0.3-0.4c0-0.1,0-0.2-0.1-0.3c-0.1-0.1-0.2-0.2-0.3-0.2c-0.2-0.1-0.3-0.1-0.5-0.2c-0.2,0-0.3-0.1-0.5-0.2
				c-0.2-0.1-0.4-0.2-0.6-0.3c-0.2-0.1-0.3-0.2-0.5-0.4c-0.1-0.1-0.2-0.3-0.3-0.5c-0.1-0.2-0.1-0.4-0.1-0.6c0-0.3,0.1-0.6,0.2-0.9
				c0.1-0.2,0.3-0.4,0.6-0.6c0.3-0.2,0.5-0.3,0.8-0.3c0.3-0.1,0.7-0.1,1-0.1c0.3,0,0.5,0,0.8,0.1c0.3,0,0.5,0.1,0.8,0.2v1.4
				c-0.2-0.1-0.5-0.2-0.8-0.3c-0.3-0.1-0.5-0.1-0.8-0.1c-0.1,0-0.2,0-0.3,0c-0.1,0-0.2,0.1-0.3,0.1c-0.1,0-0.1,0.1-0.2,0.1
				c0,0.1-0.1,0.1-0.1,0.2c0,0.1,0,0.2,0.1,0.3c0.1,0.1,0.2,0.1,0.3,0.2c0.1,0.1,0.3,0.1,0.4,0.1l0.4,0.1c0.2,0.1,0.5,0.2,0.7,0.3
				c0.2,0.1,0.4,0.2,0.5,0.4c0.1,0.1,0.3,0.3,0.3,0.5c0.1,0.2,0.1,0.4,0.1,0.6c0,0.3-0.1,0.6-0.2,0.9c-0.1,0.3-0.4,0.5-0.6,0.6
				c-0.3,0.2-0.6,0.3-0.9,0.4c-0.3,0.1-0.7,0.1-1,0.1C60.3,135.5,59.7,135.4,59.1,135.2z"/>
			<path class="st6" d="M70.2,132.9h-3.9c0.1,0.9,0.6,1.3,1.7,1.3c0.6,0,1.2-0.2,1.7-0.5v1.3c-0.7,0.3-1.4,0.5-2.2,0.4
				c-0.8,0.1-1.7-0.2-2.3-0.8c-0.6-0.6-0.8-1.4-0.8-2.3c0-0.9,0.3-1.7,0.9-2.4c0.6-0.6,1.3-0.9,2.1-0.9c0.7,0,1.5,0.2,2,0.8
				c0.5,0.6,0.8,1.3,0.7,2.1L70.2,132.9z M68.5,131.8c0-0.9-0.3-1.3-1-1.3c-0.3,0-0.6,0.1-0.8,0.4c-0.2,0.3-0.4,0.6-0.4,0.9H68.5z"
				/>
			<path class="st6" d="M75.3,131c-0.2-0.1-0.5-0.2-0.8-0.2c-0.4,0-0.7,0.1-0.9,0.4c-0.2,0.3-0.4,0.8-0.3,1.2v2.9h-1.9v-6h1.8v1.1
				l0,0c0.2-0.7,0.8-1.2,1.6-1.2c0.2,0,0.3,0,0.5,0.1L75.3,131z"/>
		</g>
	</g>
</g>
</svg>
