<?xml version="1.0" encoding="utf-8"?>
<!-- Generator: Adobe Illustrator 23.0.1, SVG Export Plug-In . SVG Version: 6.00 Build 0)  -->
<svg version="1.1" xmlns="http://www.w3.org/2000/svg" xmlns:xlink="http://www.w3.org/1999/xlink" x="0px" y="0px"
	 viewBox="0 0 266.8 200.3" style="enable-background:new 0 0 266.8 200.3;" xml:space="preserve">
<style type="text/css">
	.st0{fill-rule:evenodd;clip-rule:evenodd;fill:#008BFD;}
	.st1{fill-rule:evenodd;clip-rule:evenodd;fill:#0078D7;}
	.st2{fill-rule:evenodd;clip-rule:evenodd;fill:#808080;}
	.st3{fill-rule:evenodd;clip-rule:evenodd;fill:#505050;}
	.st4{fill:none;}
	.st5{enable-background:new    ;}
	.st6{fill:#00B0F0;}
	.st7{fill:#505050;}
	.st8{display:none;}
	.st9{display:inline;}
</style>
<g id="shapes" xmlns:ev="http://www.w3.org/2001/xml-events" xmlns:v="http://schemas.microsoft.com/visio/2003/SVGExtensions/">
	<g id="group1278-2">
		<g id="shape1279-3">
			<path class="st0" d="M79.6,24.4c-2.2,1.7-4.8,2.5-7.3,2.5c-3.6,0-7.2-1.7-9.6-4.8c-4-5.4-3-13.1,2.2-17.3
				c2.2-1.7,4.8-2.5,7.3-2.5c3.6,0,7.2,1.7,9.6,4.8C85.9,12.5,84.9,20.3,79.6,24.4z M83.2,6c-2.7-3.6-6.8-5.6-11-5.6
				c-2.9,0-5.9,1-8.4,2.9c-6,4.8-7.2,13.7-2.5,19.9c2.7,3.6,6.8,5.6,11,5.6c2.9,0,5.9-0.9,8.4-2.9C86.7,21.1,87.9,12.2,83.2,6z"/>
		</g>
	</g>
	<g id="group1280-5" transform="translate(4.95554,-4.39536)">
		<g id="group1281-6" transform="translate(0.341805,-0.176482)">
			<g id="group1282-7" transform="translate(0.437248,3.12639E-13)">
				<g id="shape1283-8">
					<path class="st0" d="M60.3,21.8c-0.8-0.8-1.4-1.6-2-2.4c-1.2,2.4-1.6,4.9-1.7,6.9c0.1,0.2,0.1,0.3,0.2,0.4
						c0.6,0.8,1.3,1.5,2,2.1C58.8,27.2,59,24.5,60.3,21.8z"/>
				</g>
			</g>
			<g id="shape1284-10" transform="translate(3.29213,-8.97695)">
				<path class="st0" d="M61.6,21.3c-1.1,0.8-2.2,1.7-3.3,3c-0.6,0.7-1.2,1.4-1.6,2.1c0.5,0.8,1.1,1.6,1.9,2.5
					c0.6-0.9,1.3-1.7,2.2-2.6c1.1-1.1,2.2-1.9,3.1-2.6C63.1,22.9,62.3,22.1,61.6,21.3z"/>
			</g>
			<g id="group1285-12" transform="translate(9.93516,-15.1958)">
				<g id="shape1286-13">
					<path class="st0" d="M66.5,26.7c-0.5-0.7-1.1-1.3-1.7-1.8c-1.9-0.3-4.7-0.3-8,1.5c0.8,0.8,1.5,1.6,2.2,2.4
						C63.3,26.4,66.5,26.7,66.5,26.7z"/>
				</g>
			</g>
			<g id="group1287-15" transform="translate(1.10162E-13,-9.38012)">
				<g id="shape1288-16">
					<path class="st0" d="M58.8,28.8c0.3-0.7,0.7-1.4,1.2-2.1c-1.9-3.1-1.8-5.6-1.6-6.8c-0.5,0.5-0.9,1-1.3,1.6
						C56.7,23.1,56.7,25.7,58.8,28.8z"/>
				</g>
			</g>
			<g id="group1289-18" transform="translate(4.05148,-0.740211)">
				<g id="shape1290-19">
					<path class="st0" d="M60.1,22.7c-0.9-0.7-1.6-1.4-2.3-2.1c-0.5,0.7-0.8,1.3-1.1,1.9c0.6,0.6,1.3,1.3,2.1,1.9
						c4.9,4,9.8,4.4,12.6,4.4c0.2,0,1-1.2,1.5-1.9C71.7,27.1,66.4,27.8,60.1,22.7z"/>
				</g>
			</g>
			<g id="group1291-21" transform="translate(2.10339,-7.03041)">
				<g id="shape1292-22">
					<path class="st0" d="M56.7,26.4c0.5,0.8,1.2,1.5,2,2.4c0.3-0.6,0.7-1.3,1.1-1.9c-0.8-0.9-1.4-1.7-1.9-2.5
						C57.4,25.1,57,25.8,56.7,26.4z"/>
				</g>
			</g>
			<g id="group1293-24" transform="translate(10.5195,-5.3233)">
				<g id="shape1294-25">
					<path class="st0" d="M56.7,20c4.5,4.3,9.8,7.9,11.1,8.8c0.1-0.4,0.2-0.7,0.3-1.1c-1.4-1.1-5.3-4.2-9.8-8.8
						C57.8,19.2,57.3,19.6,56.7,20z"/>
				</g>
			</g>
			<g id="group1295-27" transform="translate(4.98729,-16.4714)">
				<g id="shape1296-28">
					<path class="st0" d="M61.6,27.7c-1.1-1.2-2.2-2.4-3.4-3.8c-0.5,0.2-1.1,0.4-1.6,0.7c0.8,1.4,2,2.8,3.2,4.2
						C60.5,28.4,61.1,28,61.6,27.7z"/>
				</g>
			</g>
			<g id="shape1297-30" transform="translate(8.13763,-14.0503)">
				<path class="st0" d="M58.6,25.2c-0.6,0.3-1.3,0.8-1.9,1.2c0.7,0.8,1.5,1.6,2.3,2.4c0.6-0.4,1.3-0.9,1.9-1.2
					C60.1,26.9,59.3,26.1,58.6,25.2z"/>
			</g>
			<g id="shape1298-32" transform="translate(8.1369,-14.0039)">
				<path class="st0" d="M58.4,25.1c-0.6,0.3-1.1,0.7-1.7,1.1c0.7,0.8,1.7,1.8,2.5,2.6c0.6-0.4,1-0.8,1.6-1.1
					C60.1,26.9,59.1,25.9,58.4,25.1z"/>
			</g>
		</g>
		<g id="group1299-34" transform="translate(14.8617,-6.23662)">
			<g id="shape1300-35">
				<path class="st0" d="M58,23.7c-1.1,0.9-1.3,2.6-0.5,3.7c0.9,1.2,2.5,1.4,3.6,0.5c1.1-0.9,1.3-2.6,0.5-3.7
					C60.8,23,59.2,22.8,58,23.7z"/>
			</g>
		</g>
		<g id="group1301-37" transform="translate(9.65099,-2.27374E-13)">
			<g id="shape1302-38">
				<path class="st0" d="M57.9,24.1c-1,0.8-1.2,2.4-0.5,3.4c0.8,1.1,2.3,1.3,3.4,0.4c1-0.8,1.2-2.4,0.4-3.4
					C60.5,23.5,59,23.3,57.9,24.1z"/>
			</g>
		</g>
		<g id="group1303-40" transform="translate(0,-5.36433)">
			<g id="shape1304-41">
				<path class="st0" d="M58.6,21.6c-1.6,1.3-1.9,3.6-0.7,5.2c1.2,1.6,3.5,1.9,5.1,0.7c1.6-1.3,1.9-3.6,0.7-5.2
					C62.5,20.7,60.2,20.4,58.6,21.6z"/>
			</g>
		</g>
	</g>
	<path class="st0" d="M249.9,79h-20.5c-0.6,0-1.1,0.5-1.1,1.1v16.8c0,0.6,0.5,1.1,1.1,1.1h5.3c0.4,1.3,1.7,2.3,3.2,2.3
		c1.8,0,3.3-1.5,3.3-3.4s-1.5-3.4-3.3-3.4c-1.5,0-2.8,0.9-3.2,2.3h-4.2v-12h18.3v12h-3.5c-0.5-3.7-3.7-6.6-7.5-6.6
		c-1.3,0-2.6,0.4-3.6,0.9l1,2c0.7-0.4,1.7-0.7,2.6-0.7c2.9,0,5.4,2.5,5.4,5.5c0,3-2.4,5.4-5.4,5.4c-0.9,0-1.8-0.2-2.6-0.7l-1,2
		c1.1,0.6,2.4,0.9,3.6,0.9c3.8,0,7-2.9,7.5-6.6h4.6c0.6,0,1.1-0.5,1.1-1.1V80.1C251,79.6,250.5,79,249.9,79z"/>
	<g id="shape1318-51">
		<path class="st1" d="M72.6,106H58.4V77.6h14.2v7.7h0.8v-8.4H57.6v29.9h15.7v-2.3h-0.8V106z"/>
	</g>
	<g id="shape1319-53" transform="translate(1.5606,-23.7593)">
		<path class="st1" d="M70.3,102.1H57.6v4.6h12.6V102.1z M60.7,104.1h6.5v0.8h-6.5V104.1z M67.3,105.9L67.3,105.9h-6.5h-0.1v-0.8
			h0.1h6.4h0.1V105.9z"/>
	</g>
	<g id="shape1320-55" transform="translate(1.52875,-19.9374)">
		<path class="st1" d="M57.6,103.7v3.1h8.6v-1.5h4.1v-1.5H57.6z"/>
	</g>
	<g id="shape1321-57" transform="translate(1.52875,-16.4978)">
		<rect x="57.6" y="104.1" class="st1" width="8.6" height="2.7"/>
	</g>
	<g id="shape1322-59" transform="translate(1.4969,-1.52875)">
		<path class="st1" d="M57.7,106.7h12.6v-0.8h-4.1V92.6h-8.6L57.7,106.7L57.7,106.7z M59.2,104h2.3v1.2h-2.3V104z"/>
	</g>
	<g id="shape1323-61" transform="translate(16.02,-3.43969)">
		<path class="st1" d="M66.4,105.6h-2.5v-1.9h-2.5v1.9h-2.5c-0.7,0-1.3,0.6-1.3,1.2h10C67.7,106.2,67,105.6,66.4,105.6z"/>
	</g>
	<g id="shape1324-63" transform="translate(11.816,-7.22971)">
		<path class="st1" d="M75.4,95.4H58.3c-0.3,0-0.7,0.3-0.7,0.6v10.1c0,0.3,0.3,0.6,0.7,0.6h17.1c0.3,0,0.7-0.3,0.7-0.6V96
			C76.1,95.7,75.8,95.4,75.4,95.4z M74.4,105.2H59.3v-8.3h15.1V105.2z"/>
	</g>
	<g id="shape1325-65" transform="translate(17.931,-9.36359)">
		<path class="st1" d="M64.6,104.9v-3.4l-3.5-1.8l-3.5,1.8v3.5l3.5,1.8L64.6,104.9z M60.2,102.6l0.9-0.4l0.9,0.4l-0.9,0.5
			L60.2,102.6z M60.3,101.4l0.9-0.4l0.9,0.4l-0.9,0.5L60.3,101.4z M62.2,106l-1,0.5v-0.9l1-0.5V106z M62.2,104.8l-1,0.5v-0.9l1-0.5
			V104.8z M62.2,103.7l-1,0.5v-0.9l1-0.5V103.7z M61.4,102l0.9-0.4l0.9,0.4l-0.9,0.4L61.4,102z M63.4,105.4l-1,0.5V105l1-0.5V105.4z
			 M63.4,104.2l-1,0.5v-0.9l1-0.5V104.2z M63.4,103l-1,0.5v-0.9l1-0.5V103z M64.4,104.8l-0.9,0.4v-0.9l0.9-0.5V104.8z M64.4,103.6
			l-0.9,0.4v-0.9l0.9-0.4V103.6z M64.4,102.5l-0.9,0.4V102l0.9-0.4V102.5z M64.2,101.4l-0.9,0.5l-0.9-0.5l0.9-0.4L64.2,101.4z
			 M63.1,100.9l-0.9,0.4l-0.9-0.4l0.9-0.4L63.1,100.9z M61.1,99.8l0.9,0.4l-0.9,0.4l-0.9-0.4L61.1,99.8z M60,100.4l0.9,0.4l-0.9,0.4
			l-0.9-0.4L60,100.4z M58.9,101l0.9,0.4l-0.9,0.5l-0.9-0.5L58.9,101z M58.7,105.3l-0.9-0.4v-0.9l0.9,0.4V105.3z M58.7,104.1
			l-0.9-0.4v-0.9l0.9,0.4V104.1z M58.7,102.9l-0.9-0.4v-0.9l0.9,0.4V102.9z M59.9,105.9l-1-0.5v-0.9l1,0.5V105.9z M59.9,104.7
			l-1-0.5v-0.9l1,0.5V104.7z M59.9,103.6l-1-0.5v-0.9l1,0.5V103.6z M59.2,102l0.9-0.4l0.9,0.4l-0.9,0.5L59.2,102z M61,106.5l-1-0.5
			v-0.9l1,0.5V106.5z M61,105.3l-1-0.5v-0.9l1,0.5V105.3z M61,104.2l-1-0.5v-0.9l1,0.5V104.2z"/>
	</g>
	<g id="shape1338-71" transform="translate(-9.29257E-14,-5.02924)">
		<path class="st2" d="M16.3,21.5H9.6c-0.3,0-0.6-0.3-0.6-0.6v-6.4h1.9v-1.8h12.4c0.3,0,0.6,0.3,0.6,0.6v0.1c0.3,0.1,0.6,0.2,1,0.3
			v-0.4c0-0.8-0.7-1.5-1.6-1.5h-13L8,14v6.9c0,0.8,0.7,1.5,1.6,1.5h7.3C16.7,22.1,16.5,21.8,16.3,21.5z"/>
	</g>
	<g id="group1339-73" transform="translate(8.44762,0)">
		<g id="group1340-74" transform="translate(0.737786,0)">
			<g id="shape1341-75">
				<path class="st2" d="M15.5,18l2.3,3.3l-2.2-0.5l-0.6,1.6l-2.3-2.9L11,22.4l-0.8-1.7L8,21.2l2.1-3.4c0,0,0.6,0.9,2.7,0.9
					C14.9,18.7,15.5,18,15.5,18z"/>
			</g>
		</g>
		<g id="group1342-77" transform="translate(1.9839,-4.95422)">
			<g id="shape1343-78">
				<path class="st2" d="M11.7,22.4c-2,0-3.7-1.5-3.7-3.4c0-1.9,1.7-3.4,3.7-3.4c2.1,0,3.7,1.5,3.7,3.4
					C15.4,20.9,13.8,22.4,11.7,22.4z M11.7,16.3c-1.6,0-2.9,1.2-2.9,2.6s1.3,2.6,2.9,2.6c1.6,0,2.9-1.2,2.9-2.6S13.3,16.3,11.7,16.3
					z"/>
			</g>
		</g>
		<g id="group1344-80" transform="translate(0,-3.14179)">
			<g id="shape1345-81">
				<path class="st2" d="M13.7,22.4c-3.1,0-5.7-2.3-5.7-5.2c0-2.9,2.6-5.2,5.7-5.2s5.7,2.3,5.7,5.2C19.4,20.1,16.9,22.4,13.7,22.4z
					 M13.7,12.7c-2.7,0-4.9,2-4.9,4.5c0,2.5,2.2,4.5,4.9,4.5s4.9-2,4.9-4.5C18.6,14.7,16.4,12.7,13.7,12.7z"/>
			</g>
		</g>
	</g>
	<path class="st0" d="M83,154.8H62.5c-0.6,0-1.1,0.5-1.1,1.1v16.8c0,0.6,0.5,1.1,1.1,1.1h5.3c0.4,1.3,1.7,2.3,3.2,2.3
		c1.8,0,3.3-1.5,3.3-3.4s-1.5-3.4-3.3-3.4c-1.5,0-2.8,0.9-3.2,2.3h-4.2v-12h18.3v12h-3.4c-0.5-3.7-3.7-6.6-7.5-6.6
		c-1.3,0-2.6,0.4-3.6,0.9l1,2c0.7-0.4,1.7-0.7,2.5-0.7c2.9,0,5.4,2.5,5.4,5.5c0,3-2.4,5.4-5.4,5.4c-0.9,0-1.8-0.2-2.5-0.7l-1,2
		c1.1,0.6,2.4,0.9,3.6,0.9c3.8,0,7-2.9,7.5-6.6H83c0.6,0,1.1-0.5,1.1-1.1v-16.8C84.1,155.3,83.6,154.8,83,154.8z"/>
	<g id="shape1386-100" transform="translate(-9.29257E-14,-5.02924)">
		<path class="st2" d="M16.3,98.7H9.6c-0.3,0-0.6-0.3-0.6-0.6v-6.4h1.9v-1.8h12.4c0.3,0,0.6,0.3,0.6,0.6v0.1c0.3,0.1,0.6,0.2,1,0.3
			v-0.4c0-0.8-0.7-1.5-1.6-1.5h-13L8,91.2v6.9c0,0.8,0.7,1.5,1.6,1.5h7.3C16.7,99.3,16.5,99,16.3,98.7z"/>
	</g>
	<g id="group1387-102" transform="translate(8.44762,0)">
		<g id="group1388-103" transform="translate(0.737786,0)">
			<g id="shape1389-104">
				<path class="st2" d="M15.5,95.2l2.3,3.3l-2.2-0.5l-0.6,1.6l-2.3-2.9L11,99.6l-0.8-1.7L8,98.4l2.1-3.4c0,0,0.6,0.9,2.7,0.9
					C14.9,95.9,15.5,95.2,15.5,95.2z"/>
			</g>
		</g>
		<g id="group1390-106" transform="translate(1.9839,-4.95422)">
			<g id="shape1391-107">
				<path class="st2" d="M11.7,99.6c-2,0-3.7-1.5-3.7-3.4c0-1.9,1.7-3.4,3.7-3.4c2.1,0,3.7,1.5,3.7,3.4
					C15.4,98.1,13.8,99.6,11.7,99.6z M11.7,93.5c-1.6,0-2.9,1.2-2.9,2.6s1.3,2.6,2.9,2.6c1.6,0,2.9-1.2,2.9-2.6S13.3,93.5,11.7,93.5
					z"/>
			</g>
		</g>
		<g id="group1392-109" transform="translate(0,-3.14179)">
			<g id="shape1393-110">
				<path class="st2" d="M13.7,99.6c-3.1,0-5.7-2.3-5.7-5.2c0-2.9,2.6-5.2,5.7-5.2s5.7,2.3,5.7,5.2C19.4,97.2,16.9,99.6,13.7,99.6z
					 M13.7,89.9c-2.7,0-4.9,2-4.9,4.5c0,2.5,2.2,4.5,4.9,4.5s4.9-2,4.9-4.5C18.6,91.9,16.4,89.9,13.7,89.9z"/>
			</g>
		</g>
	</g>
	<g id="shape1417-115" transform="translate(-9.29257E-14,-5.02924)">
		<path class="st2" d="M16.3,169.5H9.6c-0.3,0-0.6-0.3-0.6-0.6v-6.4h1.9v-1.8h12.4c0.3,0,0.6,0.3,0.6,0.6v0.1c0.3,0.1,0.6,0.2,1,0.3
			v-0.4c0-0.8-0.7-1.5-1.6-1.5h-13L8,162v6.9c0,0.8,0.7,1.5,1.6,1.5h7.3C16.7,170.1,16.5,169.8,16.3,169.5z"/>
	</g>
	<g id="group1418-117" transform="translate(8.44762,0)">
		<g id="group1419-118" transform="translate(0.737786,0)">
			<g id="shape1420-119">
				<path class="st2" d="M15.5,166l2.3,3.3l-2.2-0.5l-0.6,1.6l-2.3-2.9l-1.8,2.9l-0.8-1.7L8,169.2l2.1-3.4c0,0,0.6,0.9,2.7,0.9
					C14.9,166.7,15.5,166,15.5,166z"/>
			</g>
		</g>
		<g id="group1421-121" transform="translate(1.9839,-4.95422)">
			<g id="shape1422-122">
				<path class="st2" d="M11.7,170.4c-2,0-3.7-1.5-3.7-3.4c0-1.9,1.7-3.4,3.7-3.4c2.1,0,3.7,1.5,3.7,3.4
					C15.4,168.8,13.8,170.4,11.7,170.4z M11.7,164.3c-1.6,0-2.9,1.2-2.9,2.6s1.3,2.6,2.9,2.6c1.6,0,2.9-1.2,2.9-2.6
					S13.3,164.3,11.7,164.3z"/>
			</g>
		</g>
		<g id="group1423-124" transform="translate(0,-3.14179)">
			<g id="shape1424-125">
				<path class="st2" d="M13.7,170.4c-3.1,0-5.7-2.3-5.7-5.2c0-2.9,2.6-5.2,5.7-5.2s5.7,2.3,5.7,5.2C19.4,168,16.9,170.4,13.7,170.4
					z M13.7,160.7c-2.7,0-4.9,2-4.9,4.5c0,2.5,2.2,4.5,4.9,4.5s4.9-2,4.9-4.5C18.6,162.7,16.4,160.7,13.7,160.7z"/>
			</g>
		</g>
	</g>
	<rect x="151" y="63" class="st4" width="80.5" height="20"/>
</g>
<g id="txt" xmlns:ev="http://www.w3.org/2001/xml-events" xmlns:v="http://schemas.microsoft.com/visio/2003/SVGExtensions/">
	<g class="st5">
		<path d="M52.7,37.6h6v-1.7h0.8v1.7H62v0.7h-2.5v3.4c0,0.8-0.4,1.3-1.3,1.3c-0.5,0-1,0-1.6,0c0-0.3-0.1-0.5-0.1-0.8
			c0.6,0,1.1,0.1,1.4,0.1c0.6,0,0.8-0.3,0.8-0.8v-3.1h-6V37.6z M53,34.6h4c-0.1-0.3-0.3-0.6-0.5-0.9l0.7-0.3
			c0.2,0.4,0.4,0.8,0.6,1.2h3.7v1.9h-0.8v-1.2h-7v1.2H53V34.6z M53.9,39.3l0.6-0.5c0.8,0.7,1.4,1.3,2,1.9l-0.6,0.6
			C55.4,40.6,54.7,40,53.9,39.3z"/>
		<path d="M62.4,38.7c0.5-0.1,0.9-0.3,1.4-0.4V36h-1.3v-0.7h1.3v-1.8h0.8v1.8h1.2V36h-1.2v2c0.4-0.1,0.8-0.2,1.2-0.4
			c0,0.3,0,0.6,0,0.8c-0.4,0.1-0.8,0.2-1.3,0.4v3c0,0.7-0.3,1.1-1,1.1c-0.2,0-0.5,0-0.9,0c0-0.3-0.1-0.5-0.1-0.8c0.4,0,0.7,0,0.9,0
			c0.3,0,0.4-0.2,0.4-0.5v-2.6c-0.4,0.1-0.9,0.3-1.3,0.4L62.4,38.7z M68.1,33.9l0.6-0.4c0.3,0.3,0.6,0.7,0.9,1.1L69,35h2.7v4.3h-0.8
			v-0.5h-3.8c-0.1,1.7-0.6,3.1-1.4,4.2c-0.2-0.2-0.4-0.4-0.6-0.6c0.9-1.1,1.3-2.6,1.3-4.5v-3h2.5C68.6,34.6,68.3,34.2,68.1,33.9z
			 M67.2,35.7v2.5h3.7v-2.5H67.2z"/>
		<path d="M72.4,40.4c0.6-0.9,1.1-2.1,1.5-3.3h-1.4v-0.6H74v-1.5c-0.4,0.1-0.8,0.1-1.3,0.2c-0.1-0.2-0.1-0.4-0.2-0.7
			c1.1-0.1,2.2-0.3,3.3-0.5l0.2,0.7c-0.5,0.1-0.9,0.2-1.4,0.3v1.6h1.4V37h-1.4v1.3l0.4-0.3c0.3,0.3,0.6,0.7,1.1,1.3l-0.6,0.5
			c-0.4-0.5-0.7-0.9-0.9-1.2v4.5H74v-4.7c-0.3,1.1-0.8,2.1-1.3,2.8C72.6,40.9,72.5,40.7,72.4,40.4z M75.8,41.9h2.8v-1.4h-2.2v-0.7
			h2.2v-1.3h-2.5v-0.7h5.7v0.7h-2.5v1.3h2.2v0.7h-2.2v1.4h2.8v0.7h-6.4V41.9z M76.6,33.9h4.8v3.3h-0.7v-0.4h-3.4v0.4h-0.7V33.9z
			 M80.7,34.6h-3.4v1.6h3.4V34.6z"/>
		<path d="M86.9,33.7l0.7-0.4c0.3,0.3,0.5,0.7,0.7,1l-0.5,0.3H92v0.7h-7.8V38c0,2.3-0.4,4-1.3,5.1c-0.2-0.2-0.3-0.4-0.6-0.7
			c0.7-0.8,1.1-2.3,1.1-4.3v-3.6h4.1C87.4,34.3,87.2,34,86.9,33.7z M84.5,38.7H88c-0.6-0.4-1.2-0.8-1.7-1.2l0.5-0.5
			c0.5,0.3,1,0.6,1.4,0.9l1.8-1h-4.8v-0.7h6.2v0.7l-2.5,1.5c0.1,0.1,0.2,0.1,0.2,0.2l-0.3,0.2h3.2v0.7l-0.8,1.7
			c-0.2-0.1-0.4-0.2-0.7-0.4l0.7-1.4h-2.3v2.3c0,0.8-0.4,1.2-1.1,1.2c-0.4,0-0.9,0-1.5,0c0-0.2-0.1-0.5-0.1-0.8
			c0.5,0.1,1,0.1,1.3,0.1c0.4,0,0.6-0.2,0.6-0.6v-2.2h-3.4V38.7z"/>
		<path d="M59.9,46.2l-2.1,7.6h-1.1l-1.5-5.4C55,48.1,55,47.8,55,47.6h0c0,0.3-0.1,0.5-0.1,0.8l-1.5,5.5h-1.1L50,46.2H51l1.5,5.7
			c0.1,0.3,0.1,0.5,0.1,0.8h0c0-0.2,0.1-0.5,0.2-0.8l1.6-5.7h1L57,52c0.1,0.2,0.1,0.4,0.1,0.7h0c0-0.2,0.1-0.5,0.1-0.7l1.5-5.7H59.9
			z"/>
		<path d="M65,51.3h-3.8c0,0.6,0.2,1,0.5,1.3c0.3,0.3,0.7,0.5,1.3,0.5c0.6,0,1.2-0.2,1.7-0.6v0.9c-0.5,0.3-1.1,0.5-1.9,0.5
			c-0.8,0-1.4-0.2-1.8-0.7s-0.7-1.2-0.7-2.1c0-0.8,0.2-1.5,0.7-2s1.1-0.8,1.8-0.8c0.7,0,1.3,0.2,1.7,0.7S65,50,65,50.8V51.3z
			 M64,50.6c0-0.5-0.1-0.9-0.3-1.1s-0.5-0.4-1-0.4c-0.4,0-0.7,0.1-1,0.4s-0.5,0.7-0.5,1.1H64z"/>
		<path d="M67.2,53v0.8h-1v-8h1v3.5h0c0.4-0.7,1-1.1,1.9-1.1c0.7,0,1.2,0.2,1.6,0.7c0.4,0.5,0.6,1.1,0.6,2c0,0.9-0.2,1.6-0.7,2.2
			c-0.4,0.5-1,0.8-1.8,0.8C68.1,53.9,67.6,53.6,67.2,53L67.2,53z M67.2,51.6c0,0.4,0.1,0.8,0.4,1.1c0.3,0.3,0.6,0.5,1.1,0.5
			c0.5,0,0.9-0.2,1.2-0.6s0.4-0.9,0.4-1.6c0-0.6-0.1-1-0.4-1.4S69.3,49,68.8,49c-0.5,0-0.9,0.2-1.2,0.5s-0.5,0.8-0.5,1.3V51.6z"/>
		<path d="M79.4,45.8l0.7-0.4c0.3,0.4,0.5,0.7,0.8,1.2l-0.5,0.3h4v0.7h-7.6V50c0,2.3-0.5,4-1.4,5.2c-0.2-0.2-0.3-0.4-0.6-0.7
			c0.8-0.9,1.2-2.4,1.2-4.5v-3.2h4.1C79.9,46.5,79.7,46.1,79.4,45.8z M76.7,53.8h4.5c0.5-1.3,1-3.1,1.6-5.3l0.8,0.2
			c-0.6,2.1-1.1,3.8-1.6,5.1h2.4v0.7h-7.8V53.8z M77.3,49l0.7-0.3c0.4,1.2,0.8,2.5,1.2,4L78.3,53C78,51.7,77.7,50.4,77.3,49z
			 M79.6,48.5l0.8-0.2c0.3,1.2,0.6,2.5,0.9,3.9l-0.9,0.2C80.2,51.2,79.9,49.9,79.6,48.5z"/>
		<path d="M89.6,54.9v-3.1h-2.8c-0.1,1.4-0.5,2.5-1.2,3.4c-0.2-0.2-0.4-0.4-0.6-0.7c0.4-0.6,0.7-1.3,0.9-2c0.1-0.7,0.2-1.7,0.2-3
			v-3.5h8v7.8c0,0.8-0.4,1.2-1.1,1.2c-0.4,0-1,0-1.5,0c0-0.2-0.1-0.5-0.1-0.8c0.6,0,1,0.1,1.4,0.1c0.4,0,0.6-0.2,0.6-0.6v-1.8h-2.9
			v3.1H89.6z M86.8,51.1h2.8v-1.8h-2.7C86.9,49.9,86.8,50.5,86.8,51.1z M86.8,46.8v1.8h2.7v-1.8H86.8z M93.2,46.8h-2.9v1.8h2.9V46.8
			z M90.4,51.1h2.9v-1.8h-2.9V51.1z"/>
	</g>
	<g class="st5">
		<path d="M216.8,113.3h6v-1.7h0.8v1.7h2.5v0.7h-2.5v3.4c0,0.8-0.4,1.3-1.3,1.3c-0.5,0-1,0-1.6,0c0-0.3-0.1-0.5-0.1-0.8
			c0.6,0,1.1,0.1,1.4,0.1c0.6,0,0.8-0.3,0.8-0.8V114h-6V113.3z M217.1,110.3h4c-0.1-0.3-0.3-0.6-0.5-0.9l0.7-0.3
			c0.2,0.4,0.4,0.8,0.6,1.2h3.7v1.9h-0.8v-1.2h-7v1.2h-0.8V110.3z M218.1,115l0.6-0.5c0.8,0.7,1.4,1.3,2,1.9L220,117
			C219.5,116.4,218.9,115.7,218.1,115z"/>
		<path d="M226.5,114.4c0.5-0.1,0.9-0.3,1.4-0.4v-2.3h-1.3v-0.7h1.3v-1.8h0.8v1.8h1.2v0.7h-1.2v2c0.4-0.1,0.8-0.2,1.2-0.4
			c0,0.3,0,0.6,0,0.8c-0.4,0.1-0.8,0.2-1.3,0.4v3c0,0.7-0.3,1.1-1,1.1c-0.2,0-0.5,0-0.9,0c0-0.3-0.1-0.5-0.1-0.8c0.4,0,0.7,0,0.9,0
			c0.3,0,0.4-0.2,0.4-0.5v-2.6c-0.4,0.1-0.9,0.3-1.3,0.4L226.5,114.4z M232.2,109.6l0.6-0.4c0.3,0.3,0.6,0.7,0.9,1.1l-0.6,0.4h2.7
			v4.3H235v-0.5h-3.8c-0.1,1.7-0.6,3.1-1.4,4.2c-0.2-0.2-0.4-0.4-0.6-0.6c0.9-1.1,1.3-2.6,1.3-4.5v-3h2.5
			C232.7,110.3,232.5,109.9,232.2,109.6z M231.3,111.4v2.5h3.7v-2.5H231.3z"/>
		<path d="M236.5,116.1c0.6-0.9,1.1-2.1,1.5-3.3h-1.4v-0.6h1.5v-1.5c-0.4,0.1-0.8,0.1-1.3,0.2c-0.1-0.2-0.1-0.4-0.2-0.7
			c1.1-0.1,2.2-0.3,3.3-0.5l0.2,0.7c-0.5,0.1-0.9,0.2-1.4,0.3v1.6h1.4v0.6h-1.4v1.3l0.4-0.3c0.3,0.3,0.6,0.7,1.1,1.3l-0.6,0.5
			c-0.4-0.5-0.7-0.9-0.9-1.2v4.5h-0.7v-4.7c-0.3,1.1-0.8,2.1-1.3,2.8C236.7,116.7,236.6,116.4,236.5,116.1z M239.9,117.7h2.8v-1.4
			h-2.2v-0.7h2.2v-1.3h-2.5v-0.7h5.7v0.7h-2.5v1.3h2.2v0.7h-2.2v1.4h2.8v0.7h-6.4V117.7z M240.7,109.7h4.8v3.3h-0.7v-0.4h-3.4v0.4
			h-0.7V109.7z M244.8,110.3h-3.4v1.6h3.4V110.3z"/>
		<path d="M251.1,109.5l0.7-0.4c0.3,0.3,0.5,0.7,0.7,1l-0.5,0.3h4.2v0.7h-7.8v2.7c0,2.3-0.4,4-1.3,5.1c-0.2-0.2-0.3-0.4-0.6-0.7
			c0.7-0.8,1.1-2.3,1.1-4.3v-3.6h4.1C251.5,110.1,251.3,109.8,251.1,109.5z M248.7,114.5h3.4c-0.6-0.4-1.2-0.8-1.7-1.2l0.5-0.5
			c0.5,0.3,1,0.6,1.4,0.9l1.8-1h-4.8v-0.7h6.2v0.7l-2.5,1.5c0.1,0.1,0.2,0.1,0.2,0.2l-0.3,0.2h3.2v0.7l-0.8,1.7
			c-0.2-0.1-0.4-0.2-0.7-0.4l0.7-1.4h-2.3v2.3c0,0.8-0.4,1.2-1.1,1.2c-0.4,0-0.9,0-1.5,0c0-0.2-0.1-0.5-0.1-0.8
			c0.5,0.1,1,0.1,1.3,0.1c0.4,0,0.6-0.2,0.6-0.6v-2.2h-3.4V114.5z"/>
		<path d="M223.8,129.5h-1.1l-0.8-2.1h-3.1l-0.7,2.1H217l2.9-7.6h1L223.8,129.5z M221.6,126.6l-1.1-3.1c0-0.1-0.1-0.3-0.1-0.5h0
			c0,0.2-0.1,0.4-0.1,0.5l-1.1,3.1H221.6z"/>
		<path d="M225.9,126.7v2.8h-1V122h2.1c0.8,0,1.5,0.2,1.9,0.6c0.5,0.4,0.7,1,0.7,1.7c0,0.7-0.3,1.3-0.8,1.8c-0.5,0.5-1.2,0.7-2,0.7
			H225.9z M225.9,122.8v3h0.9c0.6,0,1-0.1,1.4-0.4c0.3-0.3,0.5-0.7,0.5-1.2c0-1-0.6-1.5-1.7-1.5H225.9z"/>
		<path d="M232,122v7.6h-1V122H232z"/>
		<path d="M240.6,121.5l0.7-0.4c0.3,0.4,0.5,0.7,0.8,1.2l-0.5,0.3h4v0.7H238v2.4c0,2.3-0.5,4-1.4,5.2c-0.2-0.2-0.3-0.4-0.6-0.7
			c0.8-0.9,1.2-2.4,1.2-4.5v-3.2h4.1C241.1,122.2,240.8,121.9,240.6,121.5z M237.9,129.6h4.5c0.5-1.3,1-3.1,1.6-5.3l0.8,0.2
			c-0.6,2.1-1.1,3.8-1.6,5.1h2.4v0.7h-7.8V129.6z M238.4,124.8l0.7-0.3c0.4,1.2,0.8,2.5,1.2,4l-0.8,0.3
			C239.2,127.5,238.9,126.1,238.4,124.8z M240.8,124.3l0.8-0.2c0.3,1.2,0.6,2.5,0.9,3.9l-0.9,0.2
			C241.4,126.9,241.1,125.6,240.8,124.3z"/>
		<path d="M250.8,130.7v-3.1h-2.8c-0.1,1.4-0.5,2.5-1.2,3.4c-0.2-0.2-0.4-0.4-0.6-0.7c0.4-0.6,0.7-1.3,0.9-2c0.1-0.7,0.2-1.7,0.2-3
			v-3.5h8v7.8c0,0.8-0.4,1.2-1.1,1.2c-0.4,0-1,0-1.5,0c0-0.2-0.1-0.5-0.1-0.8c0.6,0,1,0.1,1.4,0.1c0.4,0,0.6-0.2,0.6-0.6v-1.8h-2.9
			v3.1H250.8z M248,126.9h2.8v-1.8H248C248,125.7,248,126.3,248,126.9z M248,122.5v1.8h2.7v-1.8H248z M254.4,122.5h-2.9v1.8h2.9
			V122.5z M251.5,126.9h2.9v-1.8h-2.9V126.9z"/>
	</g>
	<g id="shape1317-67">
		<g class="st5">
			<path d="M52.9,112.9h6v-1.7h0.8v1.7h2.5v0.7h-2.5v3.4c0,0.8-0.4,1.3-1.3,1.3c-0.5,0-1,0-1.6,0c0-0.3-0.1-0.5-0.1-0.8
				c0.6,0,1.1,0.1,1.4,0.1c0.6,0,0.8-0.3,0.8-0.8v-3.1h-6V112.9z M53.3,109.9h4c-0.1-0.3-0.3-0.6-0.5-0.9l0.7-0.3
				c0.2,0.4,0.4,0.8,0.6,1.2h3.7v1.9H61v-1.2h-7v1.2h-0.8V109.9z M54.2,114.6l0.6-0.5c0.8,0.7,1.4,1.3,2,1.9l-0.6,0.6
				C55.6,116,55,115.3,54.2,114.6z"/>
			<path d="M62.7,114c0.5-0.1,0.9-0.3,1.4-0.4v-2.3h-1.3v-0.7h1.3v-1.8h0.8v1.8h1.2v0.7h-1.2v2c0.4-0.1,0.8-0.2,1.2-0.4
				c0,0.3,0,0.6,0,0.8c-0.4,0.1-0.8,0.2-1.3,0.4v3c0,0.7-0.3,1.1-1,1.1c-0.2,0-0.5,0-0.9,0c0-0.3-0.1-0.5-0.1-0.8c0.4,0,0.7,0,0.9,0
				c0.3,0,0.4-0.2,0.4-0.5v-2.6c-0.4,0.1-0.9,0.3-1.3,0.4L62.7,114z M68.3,109.2l0.6-0.4c0.3,0.3,0.6,0.7,0.9,1.1l-0.6,0.4h2.7v4.3
				h-0.8v-0.5h-3.8c-0.1,1.7-0.6,3.1-1.4,4.2c-0.2-0.2-0.4-0.4-0.6-0.6c0.9-1.1,1.3-2.6,1.3-4.5v-3h2.5
				C68.8,109.9,68.6,109.5,68.3,109.2z M67.4,111v2.5h3.7V111H67.4z"/>
			<path d="M72.6,115.7c0.6-0.9,1.1-2.1,1.5-3.3h-1.4v-0.6h1.5v-1.5c-0.4,0.1-0.8,0.1-1.3,0.2c-0.1-0.2-0.1-0.4-0.2-0.7
				c1.1-0.1,2.2-0.3,3.3-0.5l0.2,0.7c-0.5,0.1-0.9,0.2-1.4,0.3v1.6h1.4v0.6h-1.4v1.3l0.4-0.3c0.3,0.3,0.6,0.7,1.1,1.3l-0.6,0.5
				c-0.4-0.5-0.7-0.9-0.9-1.2v4.5h-0.7v-4.7c-0.3,1.1-0.8,2.1-1.3,2.8C72.8,116.3,72.7,116,72.6,115.7z M76,117.2h2.8v-1.4h-2.2
				v-0.7h2.2v-1.3h-2.5v-0.7h5.7v0.7h-2.5v1.3h2.2v0.7h-2.2v1.4h2.8v0.7H76V117.2z M76.8,109.2h4.8v3.3h-0.7v-0.4h-3.4v0.4h-0.7
				V109.2z M80.9,109.9h-3.4v1.6h3.4V109.9z"/>
			<path d="M87.2,109.1l0.7-0.4c0.3,0.3,0.5,0.7,0.7,1l-0.5,0.3h4.2v0.7h-7.8v2.7c0,2.3-0.4,4-1.3,5.1c-0.2-0.2-0.3-0.4-0.6-0.7
				c0.7-0.8,1.1-2.3,1.1-4.3V110h4.1C87.6,109.6,87.4,109.3,87.2,109.1z M84.8,114h3.4c-0.6-0.4-1.2-0.8-1.7-1.2l0.5-0.5
				c0.5,0.3,1,0.6,1.4,0.9l1.8-1h-4.8v-0.7h6.2v0.7l-2.5,1.5c0.1,0.1,0.2,0.1,0.2,0.2L89,114h3.2v0.7l-0.8,1.7
				c-0.2-0.1-0.4-0.2-0.7-0.4l0.7-1.4H89v2.3c0,0.8-0.4,1.2-1.1,1.2c-0.4,0-0.9,0-1.5,0c0-0.2-0.1-0.5-0.1-0.8
				c0.5,0.1,1,0.1,1.3,0.1c0.4,0,0.6-0.2,0.6-0.6v-2.2h-3.4V114z"/>
			<path d="M62.4,129.4c-0.2,0.3-0.4,0.5-0.6,0.7c-1.7-0.5-3-1.2-3.9-2.3v2.6h-0.7v-2.6c-1.1,1-2.4,1.8-3.9,2.4
				c-0.2-0.2-0.3-0.4-0.6-0.7c1.4-0.4,2.6-1,3.6-1.8h-3.4v-0.6h4.3v-0.9h-2.5v0.3h-0.7v-3.7H57v-2.1h0.7v0.8H62v0.6h-4.2v0.7h3.4
				v3.7h-0.7v-0.3h-2.5v0.9h4.4v0.6h-3.6C59.7,128.6,61,129.2,62.4,129.4z M60.4,123.5h-5.8v0.8h5.8V123.5z M54.6,125.7h5.8v-0.8
				h-5.8V125.7z"/>
			<path d="M63.3,123.4h3.1c0.2-0.5,0.3-0.9,0.5-1.3h-4.1v-0.7h9.4v0.7h-4.4c-0.1,0.4-0.3,0.8-0.5,1.3h4.4v7h-0.8v-0.5h-6.8v0.6
				h-0.8V123.4z M64.1,129.2h1.6V124h-1.6V129.2z M66.4,125.3h2.3V124h-2.3V125.3z M66.4,127.2h2.3v-1.3h-2.3V127.2z M66.4,129.2
				h2.3v-1.3h-2.3V129.2z M70.9,124h-1.6v5.1h1.6V124z"/>
			<path d="M77.2,121.1l0.7-0.4c0.3,0.4,0.5,0.7,0.8,1.2l-0.5,0.3h4v0.7h-7.6v2.4c0,2.3-0.5,4-1.4,5.2c-0.2-0.2-0.3-0.4-0.6-0.7
				c0.8-0.9,1.2-2.4,1.2-4.5v-3.2h4.1C77.6,121.8,77.4,121.4,77.2,121.1z M74.5,129.1H79c0.5-1.3,1-3.1,1.6-5.3l0.8,0.2
				c-0.6,2.1-1.1,3.8-1.6,5.1h2.4v0.7h-7.8V129.1z M75,124.3l0.7-0.3c0.4,1.2,0.8,2.5,1.2,4l-0.8,0.3C75.8,127,75.4,125.7,75,124.3z
				 M77.4,123.8l0.8-0.2c0.3,1.2,0.6,2.5,0.9,3.9l-0.9,0.2C78,126.5,77.7,125.2,77.4,123.8z"/>
			<path d="M87.3,130.2v-3.1h-2.8c-0.1,1.4-0.5,2.5-1.2,3.4c-0.2-0.2-0.4-0.4-0.6-0.7c0.4-0.6,0.7-1.3,0.9-2c0.1-0.7,0.2-1.7,0.2-3
				v-3.5h8v7.8c0,0.8-0.4,1.2-1.1,1.2c-0.4,0-1,0-1.5,0c0-0.2-0.1-0.5-0.1-0.8c0.6,0,1,0.1,1.4,0.1c0.4,0,0.6-0.2,0.6-0.6v-1.8h-2.9
				v3.1H87.3z M84.6,126.4h2.8v-1.8h-2.7C84.6,125.2,84.6,125.9,84.6,126.4z M84.6,122.1v1.8h2.7v-1.8H84.6z M91,122.1h-2.9v1.8H91
				V122.1z M88.1,126.4H91v-1.8h-2.9V126.4z"/>
		</g>
	</g>
	<g id="shape1337-83">
		<g class="st5">
			<path d="M5.3,33.2C6,32.1,6.5,31,6.8,29.7H5.4V29h1.5v-1.9h0.7V29H9v0.7H7.6v1.6L8,30.9c0.5,0.5,0.9,0.8,1.2,1.1l-0.5,0.5
				c-0.4-0.4-0.7-0.8-1-1.1v5.2H6.9v-5.2c-0.3,1.1-0.8,2-1.3,2.7C5.5,33.8,5.4,33.5,5.3,33.2z M10.4,28.5v3.2c0,2.3-0.6,4-1.7,5.1
				c-0.2-0.2-0.4-0.4-0.6-0.7c1-0.9,1.5-2.3,1.5-4.2v-4.2h3.6v7.3c0,0.3,0.1,0.5,0.3,0.5h0.2c0.2,0,0.3-0.2,0.4-0.5
				c0.1-0.5,0.1-1,0.1-1.6c0.2,0.1,0.5,0.2,0.7,0.3c-0.1,0.6-0.1,1.2-0.2,1.6c-0.1,0.7-0.4,1-1,1h-0.5c-0.6,0-0.9-0.4-0.9-1.1v-6.7
				H10.4z"/>
			<path d="M15.2,32.9c0.9-0.3,1.8-0.6,2.7-0.9v-2.2h0.7v1.9c1.4-0.6,2.8-1.4,4.1-2.3l0.5,0.6c-1.4,0.9-2.8,1.7-4.3,2.4
				c0.1,0.1,0.3,0.2,0.6,0.2h1.9c0.4,0,0.6-0.1,0.7-0.3c0.1-0.2,0.1-0.6,0.2-1c0.2,0.1,0.5,0.2,0.7,0.3c-0.1,0.5-0.2,0.8-0.2,1
				c-0.1,0.5-0.6,0.8-1.2,0.8h-2.2c-0.6,0-1-0.2-1.2-0.6c-0.8,0.3-1.7,0.7-2.5,0.9C15.5,33.3,15.4,33.1,15.2,32.9z M15.7,28.1h4.2
				c-0.1-0.2-0.3-0.5-0.4-0.7l0.7-0.3c0.2,0.3,0.4,0.7,0.6,1.1h3.9v1.7h-0.8v-1h-7.4v1h-0.8V28.1z M16.8,29.9l0.7,0.3
				c-0.3,0.7-0.6,1.4-1,2c-0.2-0.1-0.4-0.2-0.7-0.3C16.1,31.3,16.5,30.6,16.8,29.9z M23,36.7v-0.4h-6.6v-2.6h0.7v1.9h2.5v-2.2h0.8
				v2.2H23v-1.9h0.7v2.9H23z M19.2,29.4l0.5-0.4c0.4,0.3,0.8,0.7,1.2,1l-0.6,0.5C19.9,30.1,19.5,29.7,19.2,29.4z M23.1,30.6l0.6-0.4
				c0.5,0.6,0.9,1.1,1.3,1.6l-0.6,0.5C24,31.8,23.5,31.2,23.1,30.6z"/>
			<v:paragraph  v:horizAlign="1"></v:paragraph>
			<v:tabList></v:tabList>
		</g>
	</g>
	<g class="st5">
		<path d="M37.4,189.1h6v-1.7h0.8v1.7h2.5v0.7h-2.5v3.4c0,0.8-0.4,1.3-1.3,1.3c-0.5,0-1,0-1.6,0c0-0.3-0.1-0.5-0.1-0.8
			c0.6,0,1.1,0.1,1.4,0.1c0.6,0,0.8-0.3,0.8-0.8v-3.1h-6V189.1z M37.7,186.1h4c-0.1-0.3-0.3-0.6-0.5-0.9l0.7-0.3
			c0.2,0.4,0.4,0.8,0.6,1.2h3.7v1.9h-0.8v-1.2h-7v1.2h-0.8V186.1z M38.6,190.8l0.6-0.5c0.8,0.7,1.4,1.3,2,1.9l-0.6,0.6
			C40.1,192.1,39.4,191.5,38.6,190.8z"/>
		<path d="M47.1,190.2c0.5-0.1,0.9-0.3,1.4-0.4v-2.3h-1.3v-0.7h1.3V185h0.8v1.8h1.2v0.7h-1.2v2c0.4-0.1,0.8-0.2,1.2-0.4
			c0,0.3,0,0.6,0,0.8c-0.4,0.1-0.8,0.2-1.3,0.4v3c0,0.7-0.3,1.1-1,1.1c-0.2,0-0.5,0-0.9,0c0-0.3-0.1-0.5-0.1-0.8c0.4,0,0.7,0,0.9,0
			c0.3,0,0.4-0.2,0.4-0.5v-2.6c-0.4,0.1-0.9,0.3-1.3,0.4L47.1,190.2z M52.8,185.4l0.6-0.4c0.3,0.3,0.6,0.7,0.9,1.1l-0.6,0.4h2.7v4.3
			h-0.8v-0.5h-3.8c-0.1,1.7-0.6,3.1-1.4,4.2c-0.2-0.2-0.4-0.4-0.6-0.6c0.9-1.1,1.3-2.6,1.3-4.5v-3h2.5
			C53.3,186.1,53,185.7,52.8,185.4z M51.8,187.2v2.5h3.7v-2.5H51.8z"/>
		<path d="M57,191.9c0.6-0.9,1.1-2.1,1.5-3.3h-1.4v-0.6h1.5v-1.5c-0.4,0.1-0.8,0.1-1.3,0.2c-0.1-0.2-0.1-0.4-0.2-0.7
			c1.1-0.1,2.2-0.3,3.3-0.5l0.2,0.7c-0.5,0.1-0.9,0.2-1.4,0.3v1.6h1.4v0.6h-1.4v1.3l0.4-0.3c0.3,0.3,0.6,0.7,1.1,1.3l-0.6,0.5
			c-0.4-0.5-0.7-0.9-0.9-1.2v4.5h-0.7v-4.7c-0.3,1.1-0.8,2.1-1.3,2.8C57.3,192.5,57.2,192.2,57,191.9z M60.5,193.4h2.8V192h-2.2
			v-0.7h2.2V190h-2.5v-0.7h5.7v0.7h-2.5v1.3h2.2v0.7h-2.2v1.4h2.8v0.7h-6.4V193.4z M61.3,185.4h4.8v3.3h-0.7v-0.4H62v0.4h-0.7V185.4
			z M65.4,186.1H62v1.6h3.4V186.1z"/>
		<path d="M71.6,185.3l0.7-0.4c0.3,0.3,0.5,0.7,0.7,1l-0.5,0.3h4.2v0.7h-7.8v2.7c0,2.3-0.4,4-1.3,5.1c-0.2-0.2-0.3-0.4-0.6-0.7
			c0.7-0.8,1.1-2.3,1.1-4.3v-3.6h4.1C72,185.8,71.8,185.5,71.6,185.3z M69.2,190.2h3.4c-0.6-0.4-1.2-0.8-1.7-1.2l0.5-0.5
			c0.5,0.3,1,0.6,1.4,0.9l1.8-1h-4.8v-0.7H76v0.7l-2.5,1.5c0.1,0.1,0.2,0.1,0.2,0.2l-0.3,0.2h3.2v0.7l-0.8,1.7
			c-0.2-0.1-0.4-0.2-0.7-0.4l0.7-1.4h-2.3v2.3c0,0.8-0.4,1.2-1.1,1.2c-0.4,0-0.9,0-1.5,0c0-0.2-0.1-0.5-0.1-0.8
			c0.5,0.1,1,0.1,1.3,0.1c0.4,0,0.6-0.2,0.6-0.6v-2.2h-3.4V190.2z"/>
		<path d="M90,185.7l-2.1,7.6h-1.1l-1.5-5.4c-0.1-0.2-0.1-0.5-0.1-0.8h0c0,0.3-0.1,0.5-0.1,0.8l-1.5,5.5h-1.1l-2.2-7.6h1.1l1.5,5.7
			c0.1,0.3,0.1,0.5,0.1,0.8h0c0-0.2,0.1-0.5,0.2-0.8l1.6-5.7h1l1.6,5.8c0.1,0.2,0.1,0.4,0.1,0.7h0c0-0.2,0.1-0.5,0.1-0.7l1.5-5.7H90
			z"/>
		<path d="M95.1,190.8h-3.8c0,0.6,0.2,1,0.5,1.3c0.3,0.3,0.7,0.5,1.3,0.5c0.6,0,1.2-0.2,1.7-0.6v0.9c-0.5,0.3-1.1,0.5-1.9,0.5
			c-0.8,0-1.4-0.2-1.8-0.7s-0.7-1.2-0.7-2.1c0-0.8,0.2-1.5,0.7-2s1.1-0.8,1.8-0.8c0.7,0,1.3,0.2,1.7,0.7s0.6,1.1,0.6,1.9V190.8z
			 M94.1,190.1c0-0.5-0.1-0.9-0.3-1.1s-0.5-0.4-1-0.4c-0.4,0-0.7,0.1-1,0.4s-0.5,0.7-0.5,1.1H94.1z"/>
		<path d="M97.3,192.5v0.8h-1v-8h1v3.5h0c0.4-0.7,1-1.1,1.9-1.1c0.7,0,1.2,0.2,1.6,0.7c0.4,0.5,0.6,1.1,0.6,2c0,0.9-0.2,1.6-0.7,2.2
			c-0.4,0.5-1,0.8-1.8,0.8C98.3,193.4,97.7,193.1,97.3,192.5L97.3,192.5z M97.3,191.1c0,0.4,0.1,0.8,0.4,1.1
			c0.3,0.3,0.6,0.5,1.1,0.5c0.5,0,0.9-0.2,1.2-0.6s0.4-0.9,0.4-1.6c0-0.6-0.1-1-0.4-1.4s-0.6-0.5-1.1-0.5c-0.5,0-0.9,0.2-1.2,0.5
			s-0.5,0.8-0.5,1.3V191.1z"/>
		<path d="M111.8,193.3h-1.1l-0.8-2.1h-3.1l-0.7,2.1H105l2.9-7.6h1L111.8,193.3z M109.6,190.4l-1.1-3.1c0-0.1-0.1-0.3-0.1-0.5h0
			c0,0.2-0.1,0.4-0.1,0.5l-1.1,3.1H109.6z"/>
		<path d="M113.9,190.5v2.8h-1v-7.6h2.1c0.8,0,1.5,0.2,1.9,0.6s0.7,1,0.7,1.7c0,0.7-0.3,1.3-0.8,1.8c-0.5,0.5-1.2,0.7-2,0.7H113.9z
			 M113.9,186.6v3h0.9c0.6,0,1-0.1,1.4-0.4s0.5-0.7,0.5-1.2c0-1-0.6-1.5-1.7-1.5H113.9z"/>
		<path d="M120,185.7v7.6h-1v-7.6H120z"/>
		<v:paragraph  v:horizAlign="1"></v:paragraph>
		<v:tabList></v:tabList>
	</g>
	<g id="shape1385-112">
		<g class="st5">
			<path d="M5.3,110.4c0.7-1.1,1.2-2.3,1.6-3.5H5.4v-0.7h1.5v-1.9h0.7v1.9H9v0.7H7.6v1.6l0.4-0.4c0.5,0.5,0.9,0.8,1.2,1.1l-0.5,0.5
				c-0.4-0.4-0.7-0.8-1-1.1v5.2H6.9v-5.2c-0.3,1.1-0.8,2-1.3,2.7C5.5,111,5.4,110.7,5.3,110.4z M10.4,105.7v3.2c0,2.3-0.6,4-1.7,5.1
				c-0.2-0.2-0.4-0.4-0.6-0.7c1-0.9,1.5-2.3,1.5-4.2v-4.2h3.6v7.3c0,0.3,0.1,0.5,0.3,0.5h0.2c0.2,0,0.3-0.2,0.4-0.5
				c0.1-0.5,0.1-1,0.1-1.6c0.2,0.1,0.5,0.2,0.7,0.3c-0.1,0.6-0.1,1.2-0.2,1.6c-0.1,0.7-0.4,1-1,1h-0.5c-0.6,0-0.9-0.4-0.9-1.1v-6.7
				H10.4z"/>
			<path d="M15.2,110c0.9-0.3,1.8-0.6,2.7-0.9v-2.2h0.7v1.9c1.4-0.6,2.8-1.4,4.1-2.3l0.5,0.6c-1.4,0.9-2.8,1.7-4.3,2.4
				c0.1,0.1,0.3,0.2,0.6,0.2h1.9c0.4,0,0.6-0.1,0.7-0.3c0.1-0.2,0.1-0.6,0.2-1c0.2,0.1,0.5,0.2,0.7,0.3c-0.1,0.5-0.2,0.8-0.2,1
				c-0.1,0.5-0.6,0.8-1.2,0.8h-2.2c-0.6,0-1-0.2-1.2-0.6c-0.8,0.3-1.7,0.7-2.5,0.9C15.5,110.5,15.4,110.3,15.2,110z M15.7,105.3h4.2
				c-0.1-0.2-0.3-0.5-0.4-0.7l0.7-0.3c0.2,0.3,0.4,0.7,0.6,1.1h3.9v1.7h-0.8v-1h-7.4v1h-0.8V105.3z M16.8,107.1l0.7,0.3
				c-0.3,0.7-0.6,1.4-1,2c-0.2-0.1-0.4-0.2-0.7-0.3C16.1,108.4,16.5,107.8,16.8,107.1z M23,113.8v-0.4h-6.6v-2.6h0.7v1.9h2.5v-2.2
				h0.8v2.2H23v-1.9h0.7v2.9H23z M19.2,106.6l0.5-0.4c0.4,0.3,0.8,0.7,1.2,1l-0.6,0.5C19.9,107.3,19.5,106.9,19.2,106.6z
				 M23.1,107.8l0.6-0.4c0.5,0.6,0.9,1.1,1.3,1.6l-0.6,0.5C24,108.9,23.5,108.4,23.1,107.8z"/>
			<v:paragraph  v:horizAlign="1"></v:paragraph>
			<v:tabList></v:tabList>
		</g>
	</g>
	<g id="shape1416-127">
		<g class="st5">
			<path d="M5.3,181.2c0.7-1.1,1.2-2.3,1.6-3.5H5.4V177h1.5v-1.9h0.7v1.9H9v0.7H7.6v1.6l0.4-0.4c0.5,0.5,0.9,0.8,1.2,1.1l-0.5,0.5
				c-0.4-0.4-0.7-0.8-1-1.1v5.2H6.9v-5.2c-0.3,1.1-0.8,2-1.3,2.7C5.5,181.7,5.4,181.5,5.3,181.2z M10.4,176.4v3.2
				c0,2.3-0.6,4-1.7,5.1c-0.2-0.2-0.4-0.4-0.6-0.7c1-0.9,1.5-2.3,1.5-4.2v-4.2h3.6v7.3c0,0.3,0.1,0.5,0.3,0.5h0.2
				c0.2,0,0.3-0.2,0.4-0.5c0.1-0.5,0.1-1,0.1-1.6c0.2,0.1,0.5,0.2,0.7,0.3c-0.1,0.6-0.1,1.2-0.2,1.6c-0.1,0.7-0.4,1-1,1h-0.5
				c-0.6,0-0.9-0.4-0.9-1.1v-6.7H10.4z"/>
			<path d="M15.2,180.8c0.9-0.3,1.8-0.6,2.7-0.9v-2.2h0.7v1.9c1.4-0.6,2.8-1.4,4.1-2.3l0.5,0.6c-1.4,0.9-2.8,1.7-4.3,2.4
				c0.1,0.1,0.3,0.2,0.6,0.2h1.9c0.4,0,0.6-0.1,0.7-0.3c0.1-0.2,0.1-0.6,0.2-1c0.2,0.1,0.5,0.2,0.7,0.3c-0.1,0.5-0.2,0.8-0.2,1
				c-0.1,0.5-0.6,0.8-1.2,0.8h-2.2c-0.6,0-1-0.2-1.2-0.6c-0.8,0.3-1.7,0.7-2.5,0.9C15.5,181.3,15.4,181.1,15.2,180.8z M15.7,176.1
				h4.2c-0.1-0.2-0.3-0.5-0.4-0.7l0.7-0.3c0.2,0.3,0.4,0.7,0.6,1.1h3.9v1.7h-0.8v-1h-7.4v1h-0.8V176.1z M16.8,177.9l0.7,0.3
				c-0.3,0.7-0.6,1.4-1,2c-0.2-0.1-0.4-0.2-0.7-0.3C16.1,179.2,16.5,178.6,16.8,177.9z M23,184.6v-0.4h-6.6v-2.6h0.7v1.9h2.5v-2.2
				h0.8v2.2H23v-1.9h0.7v2.9H23z M19.2,177.4l0.5-0.4c0.4,0.3,0.8,0.7,1.2,1l-0.6,0.5C19.9,178.1,19.5,177.7,19.2,177.4z
				 M23.1,178.6l0.6-0.4c0.5,0.6,0.9,1.1,1.3,1.6l-0.6,0.5C24,179.7,23.5,179.2,23.1,178.6z"/>
			<v:paragraph  v:horizAlign="1"></v:paragraph>
			<v:tabList></v:tabList>
		</g>
	</g>
	<g class="st5">
		<path class="st6" d="M161.6,63.5l0.7,0.3c-0.2,0.2-0.3,0.4-0.4,0.5h4.5V65c-0.5,0.6-1.3,1.2-2.1,1.6c1.1,0.3,2.4,0.5,4,0.5
			c-0.2,0.3-0.3,0.5-0.5,0.8c-1.7-0.1-3.2-0.4-4.3-0.9c-1.3,0.5-2.8,0.9-4.6,1.1c-0.1-0.2-0.2-0.5-0.4-0.7c1.6-0.2,3-0.4,4.2-0.8
			c-0.6-0.4-1.1-0.8-1.5-1.3c-0.5,0.5-1,0.9-1.5,1.3c-0.1-0.2-0.3-0.3-0.5-0.5C160.1,65.3,161,64.4,161.6,63.5z M158.9,62.8h4.2
			c-0.2-0.3-0.4-0.6-0.6-0.9l0.7-0.4c0.3,0.3,0.5,0.6,0.8,1l-0.4,0.3h4.1v1.8h-0.7v-1.2h-7.3v1.2h-0.7V62.8z M160.1,68.2h6.4v3.1
			h-0.7v-0.4h-4.9v0.4h-0.7V68.2z M165.7,68.8h-4.9v1.4h4.9V68.8z M165.3,65h-3.7c0.4,0.5,1,0.9,1.7,1.3
			C164.2,65.9,164.8,65.5,165.3,65z"/>
		<path class="st6" d="M172.5,62l0.7-0.4c0.3,0.4,0.6,0.8,0.9,1.2l-0.5,0.3h3.6v4.3h-0.8v-0.5h-6.2c-0.1,1.9-0.6,3.4-1.5,4.5
			c-0.2-0.2-0.4-0.4-0.6-0.6c0.8-1,1.3-2.5,1.3-4.6v-3.1h3.7C173.1,62.7,172.8,62.4,172.5,62z M170.4,63.8v2.4h6.2v-2.4H170.4z"/>
		<path class="st6" d="M181.5,65c-0.1,1-0.4,2.3-0.7,4.1c0.3-0.1,0.6-0.1,0.9-0.2c0,0.3,0,0.5,0,0.7c-0.7,0.2-1.8,0.4-3.2,0.7
			l-0.1-0.7c0.7-0.1,1.3-0.2,1.8-0.3c0.3-2,0.5-3.4,0.6-4.3L181.5,65z M178.5,63.6h3.3v0.6h-3.3V63.6z M178.6,65.2l0.7-0.1
			c0.2,0.9,0.4,2.1,0.6,3.4l-0.7,0.2C179.1,67.3,178.9,66.2,178.6,65.2z M179.3,62l0.6-0.4c0.4,0.5,0.7,1,1,1.5l-0.6,0.4
			C180,63.1,179.7,62.6,179.3,62z M181.8,65.4h6.3V66h-2.9l-0.3,1.1h2.7v3.2c0,0.6-0.2,0.8-0.7,0.8c-0.2,0-0.4,0-0.7,0
			c0-0.3-0.1-0.5-0.2-0.7c0.2,0,0.4,0,0.7,0c0.2,0,0.3-0.1,0.3-0.3v-2.5h-1v3.1h-0.7v-3.1h-1v3h-0.7v-3h-1v3.6H182v-4.2h2.2l0.2-1.1
			h-2.6V65.4z M186.7,64.7v-0.3h-4.4v-2.2h0.7v1.6h1.5v-2.2h0.7v2.2h1.5v-1.6h0.7v2.5H186.7z"/>
		<path class="st6" d="M190.9,61.8l0.6,0.4c-0.3,0.5-0.6,0.9-0.9,1.3v3.8h-0.7v-2.8c-0.3,0.4-0.7,0.8-1,1.1
			c-0.1-0.2-0.3-0.3-0.5-0.5C189.2,64.1,190,63.1,190.9,61.8z M195.2,67.7v2c0,0.4,0.2,0.6,0.5,0.6h0.7c0.4,0,0.7-0.2,0.7-0.5
			c0.1-0.3,0.1-0.8,0.2-1.4c0.2,0.1,0.5,0.2,0.8,0.3c-0.1,0.5-0.2,1-0.2,1.4c-0.1,0.6-0.5,0.9-1.2,0.9h-1.1c-0.7,0-1.1-0.4-1.1-1.1
			v-1.6h-2.7v0.2c0,0.8-0.2,1.4-0.6,1.8c-0.5,0.4-1.2,0.8-2.2,1c-0.1-0.2-0.3-0.4-0.5-0.7c1-0.2,1.7-0.5,2-0.8
			c0.3-0.3,0.5-0.7,0.5-1.4v-0.8H195.2z M191.5,66.2h2.5v-1.2h-2.9v-0.7h2.9V63c-0.7,0-1.5,0.1-2.3,0.1c0-0.2-0.1-0.5-0.1-0.7
			c2.1-0.1,3.9-0.2,5.3-0.4l0.1,0.7c-0.7,0.1-1.5,0.1-2.3,0.2v1.3h3.2v0.7h-3.2v1.2h2.7v0.7h-5.9V66.2z"/>
		<path class="st6" d="M198.4,66.9c0.5-0.1,0.9-0.3,1.3-0.4v-2.2h-1.2v-0.7h1.2v-1.9h0.7v1.9h1.1v0.7h-1.1v2
			c0.3-0.1,0.6-0.2,0.9-0.3c0,0.3,0,0.5,0.1,0.8c-0.3,0.1-0.7,0.2-1,0.3v3c0,0.7-0.3,1.1-1,1.1c-0.2,0-0.5,0-0.9,0
			c0-0.3-0.1-0.5-0.1-0.8c0.4,0,0.6,0.1,0.8,0.1c0.3,0,0.4-0.2,0.4-0.5v-2.6c-0.4,0.1-0.9,0.3-1.3,0.4L198.4,66.9z M202.8,67.9h2
			v-1.2h-2.3c-0.1,2-0.5,3.5-1.4,4.6c-0.2-0.2-0.3-0.4-0.5-0.6c0.8-1,1.2-2.5,1.2-4.6v-3.8h5.8v2.8h-0.7v-0.3h-4.4V66h2.3v-1h0.7v1
			h2.6v0.7h-2.6v1.2h2v3.3h-0.7v-0.6h-3.3v0.6h-0.7V67.9z M206.9,62.9h-4.4v1.2h4.4V62.9z M206.8,68.6h-3.3V70h3.3V68.6z"/>
		<path class="st6" d="M178.4,76.9l0.5-0.6c0.5,0.4,1.1,0.8,1.7,1.3c-0.2,0.3-0.4,0.5-0.6,0.6C179.3,77.6,178.8,77.2,178.4,76.9z
			 M178.7,83c0.4-1.1,0.7-2.4,1-3.8c0.3,0.1,0.5,0.2,0.8,0.3c-0.3,1.1-0.6,2.4-0.9,3.8L178.7,83z M178.8,74.4l0.5-0.5
			c0.5,0.4,1,0.8,1.6,1.3l-0.6,0.6C179.7,75.2,179.2,74.8,178.8,74.4z M181.9,78.7h0.7c0,1.4-0.1,2.4-0.4,3
			c-0.3,0.6-0.8,1.2-1.6,1.6c-0.2-0.2-0.3-0.5-0.5-0.6c0.7-0.4,1.2-0.8,1.4-1.3C181.7,80.9,181.9,80,181.9,78.7z M186.1,76.2
			c0.5,0.6,1.1,1.3,1.7,2.1c-0.2,0.1-0.5,0.3-0.7,0.5c-0.2-0.2-0.3-0.5-0.5-0.7c-1.6,0.1-3.1,0.1-4.4,0.2c-0.2,0-0.5,0-0.8,0.1
			l-0.3-0.7c0.2-0.1,0.5-0.3,0.7-0.4c0.5-0.4,1-1,1.5-1.6h-2.2v-0.7h3.1c-0.2-0.4-0.5-0.7-0.7-1l0.6-0.4c0.2,0.3,0.5,0.7,0.8,1.1
			l-0.5,0.3h3.3v0.7h-4.3l0.6,0.3c-0.6,0.7-1.2,1.2-1.7,1.6c1.1,0,2.3-0.1,3.7-0.1c-0.2-0.3-0.4-0.6-0.6-0.8L186.1,76.2z
			 M183.8,78.7h0.7v4.4h-0.7V78.7z M185.6,78.7h0.7V82c0,0.3,0.1,0.4,0.4,0.4h0.3c0.2,0,0.3-0.2,0.4-0.5c0-0.4,0.1-0.8,0.1-1.2
			c0.2,0.1,0.5,0.2,0.7,0.3c0,0.5-0.1,1-0.1,1.3c-0.1,0.6-0.4,0.9-0.9,0.9h-0.6c-0.6,0-0.9-0.4-0.9-1.1V78.7z"/>
	</g>
	<g id="Arrow">
		<path class="st7" d="M217.6,92.4c-0.7,0-1.2,0-1.7,0c-18.4,0-36.9,0.2-55.3-0.1c-11.8-0.2-23.8,8.4-26.2,21.7
			c-0.3,1.7-0.4,3.5-0.4,5.2c0,6.8,0,13.6,0,20.4c0,14.1-8.6,24.9-22.4,27.9c-1.8,0.4-3.8,0.5-5.7,0.5c-9.4,0-7.9,0-17.3,0
			c-0.2,0,0,0-0.3,0c-0.4,0-0.9-0.2-0.9-0.6c0-0.6,0.6-0.7,1.1-0.7c0.9,0,0.4,0,0.9,0c9.8,0,8.6,0.1,18.4-0.1
			c12.1-0.2,22.9-10.1,24.6-22.1c0.3-2,0.3-4,0.4-6c0.1-7.2-0.2-14.4,0.2-21.6c0.6-11.2,6.6-19.1,16.7-23.8c0.5-0.2,0.9-0.4,1.4-0.9
			c-0.5,0-1,0-1.6,0c-22.2,0-35.2,0-57.5-0.1c0,0-0.7,0-0.7-0.5C91.1,91,92,91,92,91c22.2,0,35.1-0.1,57.3-0.1c0.5,0,1.1,0,1.9,0
			c-0.4-0.3-0.6-0.5-0.8-0.6c-11.8-5-17.5-14.2-17.7-26.8c-0.1-7.8,0-15.7-0.1-23.5c-0.2-12.3-10.8-23.8-23.2-24.6
			c-7.8-0.5-4.7-0.3-12.5-0.3c-2,0-4,0-6,0c-0.4,0-1.5,0-1.5-0.6c-0.1-0.7,1.2-0.7,1.7-0.7c6.5,0,2,0,8.5,0c4.7,0,9.4-0.2,14,1
			c10.5,2.7,19,12.2,20.1,22.9c0.4,4.3,0.3,8.7,0.3,13c0,4.5,0,9,0,13.5c0.1,13.5,9.1,24.1,22.3,26.4c0.7,0.1,1.5,0.1,2.2,0.1
			c19.1,0,38.3,0,57.4,0c0.4,0,0.9,0,1.6-0.1"/>
	</g>
	<g transform="scale(-2.68,-2.68) ">
		<g id="lend5_2_">
			<path class="st3" d="M216.6,87.6l8,4l-8,4C217.9,93.1,217.9,90.1,216.6,87.6"/>
		</g>
	</g>
	<g>
		<path class="st7" d="M217.8,91.6c0-2-0.8-3.1-1.4-4.3c2.8,1.5,5.5,2.9,8.2,4.3c-2.7,1.4-5.4,2.8-8.2,4.3
			C217,94.5,217.8,93.4,217.8,91.6z"/>
	</g>
</g>
<g id="source" xmlns:ev="http://www.w3.org/2001/xml-events" xmlns:v="http://schemas.microsoft.com/visio/2003/SVGExtensions/" class="st8">
	
		<g id="target_1_" xmlns:ev="http://www.w3.org/2001/xml-events" xmlns:v="http://schemas.microsoft.com/visio/2003/SVGExtensions/" class="st9">
		<g>
			<g id="group1277-1" transform="translate(56.698,-171.515)">
				<g id="group1278-2_1_">
					<g id="shape1279-3_1_">
						<path class="st0" d="M22.9,195.9c-2.2,1.7-4.8,2.5-7.3,2.5c-3.6,0-7.2-1.7-9.6-4.8c-4-5.4-3-13.1,2.2-17.3
							c2.2-1.7,4.8-2.5,7.3-2.5c3.6,0,7.2,1.7,9.5,4.8C29.2,184,28.2,191.8,22.9,195.9z M26.5,177.5c-2.7-3.6-6.8-5.6-11-5.6
							c-2.9,0-5.9,1-8.4,2.9c-6,4.8-7.2,13.7-2.6,19.9c2.7,3.6,6.8,5.6,11,5.6c2.9,0,5.9-0.9,8.4-2.9
							C30,192.6,31.2,183.7,26.5,177.5z"/>
					</g>
				</g>
				<g id="group1280-5_1_" transform="translate(4.95554,-4.39536)">
					<g id="group1281-6_1_" transform="translate(0.341805,-0.176482)">
						<g id="group1282-7_1_" transform="translate(0.437248,3.12639E-13)">
							<g id="shape1283-8_1_">
								<path class="st0" d="M3.6,193.3c-0.8-0.8-1.4-1.6-2-2.4c-1.1,2.4-1.6,4.9-1.7,6.9c0.1,0.2,0.1,0.3,0.2,0.4
									c0.6,0.8,1.3,1.5,2,2.1C2.1,198.7,2.3,196,3.6,193.3z"/>
							</g>
						</g>
						<g id="shape1284-10_1_" transform="translate(3.29213,-8.97695)">
							<path class="st0" d="M4.9,192.8c-1.1,0.8-2.2,1.7-3.3,3c-0.6,0.7-1.1,1.4-1.6,2.1c0.5,0.8,1.1,1.6,1.9,2.5
								c0.6-0.9,1.3-1.7,2.2-2.6c1.1-1.1,2.2-1.9,3.1-2.6C6.4,194.4,5.7,193.6,4.9,192.8z"/>
						</g>
						<g id="group1285-12_1_" transform="translate(9.93516,-15.1958)">
							<g id="shape1286-13_1_">
								<path class="st0" d="M9.8,198.2c-0.5-0.7-1.1-1.3-1.7-1.8c-1.9-0.3-4.7-0.3-8,1.5c0.8,0.8,1.5,1.6,2.2,2.4
									C6.6,197.9,9.8,198.2,9.8,198.2z"/>
							</g>
						</g>
						<g id="group1287-15_1_" transform="translate(1.10162E-13,-9.38012)">
							<g id="shape1288-16_1_">
								<path class="st0" d="M2.1,200.3c0.3-0.7,0.7-1.4,1.2-2.1c-1.9-3.1-1.8-5.6-1.6-6.8c-0.5,0.5-0.9,1-1.3,1.6
									C0,194.7,0,197.2,2.1,200.3z"/>
							</g>
						</g>
						<g id="group1289-18_1_" transform="translate(4.05148,-0.740211)">
							<g id="shape1290-19_1_">
								<path class="st0" d="M3.4,194.2c-0.9-0.7-1.6-1.4-2.3-2.1c-0.5,0.7-0.8,1.3-1.1,1.9c0.6,0.6,1.3,1.3,2.1,1.9
									c4.9,4,9.8,4.4,12.6,4.4c0.2,0,1-1.2,1.5-1.9C15,198.6,9.7,199.3,3.4,194.2z"/>
							</g>
						</g>
						<g id="group1291-21_1_" transform="translate(2.10339,-7.03041)">
							<g id="shape1292-22_1_">
								<path class="st0" d="M0,198c0.5,0.8,1.1,1.5,2,2.4c0.3-0.6,0.7-1.3,1.1-1.9c-0.8-0.9-1.4-1.7-1.9-2.5
									C0.7,196.6,0.3,197.3,0,198z"/>
							</g>
						</g>
						<g id="group1293-24_1_" transform="translate(10.5195,-5.3233)">
							<g id="shape1294-25_1_">
								<path class="st0" d="M0,191.5c4.5,4.3,9.8,7.9,11.1,8.8c0.1-0.4,0.2-0.7,0.3-1.1c-1.4-1.1-5.3-4.2-9.8-8.8
									C1.1,190.7,0.6,191.1,0,191.5z"/>
							</g>
						</g>
						<g id="group1295-27_1_" transform="translate(4.98729,-16.4714)">
							<g id="shape1296-28_1_">
								<path class="st0" d="M4.9,199.2c-1.1-1.2-2.2-2.4-3.4-3.8c-0.6,0.2-1.1,0.4-1.6,0.7c0.8,1.4,2,2.8,3.2,4.2
									C3.8,199.9,4.4,199.5,4.9,199.2z"/>
							</g>
						</g>
						<g id="shape1297-30_1_" transform="translate(8.13763,-14.0503)">
							<path class="st0" d="M1.9,196.8c-0.6,0.3-1.3,0.8-1.9,1.2c0.7,0.8,1.5,1.6,2.3,2.4c0.6-0.4,1.3-0.9,1.9-1.2
								C3.4,198.4,2.6,197.6,1.9,196.8z"/>
						</g>
						<g id="shape1298-32_1_" transform="translate(8.1369,-14.0039)">
							<path class="st0" d="M1.7,196.6c-0.6,0.3-1.1,0.7-1.7,1.1c0.7,0.8,1.7,1.8,2.5,2.6c0.6-0.4,1-0.8,1.6-1.1
								C3.4,198.5,2.4,197.4,1.7,196.6z"/>
						</g>
					</g>
					<g id="group1299-34_1_" transform="translate(14.8617,-6.23662)">
						<g id="shape1300-35_1_">
							<path class="st0" d="M1.3,195.2c-1.1,0.9-1.3,2.6-0.5,3.7c0.9,1.2,2.5,1.4,3.6,0.5s1.3-2.6,0.5-3.7S2.5,194.3,1.3,195.2z"/>
						</g>
					</g>
					<g id="group1301-37_1_" transform="translate(9.65099,-2.27374E-13)">
						<g id="shape1302-38_1_">
							<path class="st0" d="M1.2,195.6c-1,0.8-1.2,2.4-0.4,3.4c0.8,1.1,2.3,1.3,3.4,0.4c1-0.8,1.2-2.4,0.4-3.4S2.3,194.8,1.2,195.6z
								"/>
						</g>
					</g>
					<g id="group1303-40_1_" transform="translate(0,-5.36433)">
						<g id="shape1304-41_1_">
							<path class="st0" d="M1.9,193.1c-1.6,1.3-1.9,3.6-0.7,5.2c1.2,1.6,3.5,1.9,5.1,0.7s1.9-3.6,0.7-5.2
								C5.8,192.2,3.5,191.9,1.9,193.1z"/>
						</g>
					</g>
				</g>
				<g class="st5">
					<path d="M7.9,208.9v0.7H5.2v3.7c0,0.5-0.1,0.7-0.5,0.8c-0.3,0.1-0.9,0.1-1.9,0.1c0-0.2-0.1-0.5-0.3-0.7c0.4,0,0.8,0,1,0
						c0.8,0,0.9,0,0.9-0.2v-3.7h-5.7v-0.7h5.7v-1.6l0.9,0.1c0,0.1-0.1,0.1-0.2,0.1v1.4H7.9z M-0.1,206.7v1.4h-0.7v-2.1H3v-1.2
						l0.9,0.1c0,0.1-0.1,0.1-0.2,0.1v1h3.9v2.1H6.9v-1.4H-0.1z M1.9,212.6c-0.3-0.6-1-1.5-1.7-2.2l0.5-0.3c0.7,0.6,1.4,1.5,1.7,2.1
						L1.9,212.6z"/>
					<path d="M9.4,204.5h8v10h-8V204.5z M9.9,213.6l3.2-4.1l-3.2-4.1V213.6z M16.5,205h-6.4l3.2,4.1L16.5,205z M16.5,214l-3.2-4.1
						l-3.2,4.1H16.5z M16.9,213.6v-8.2l-3.2,4.1L16.9,213.6z"/>
					<path d="M21.1,209.1c0.3,0.3,1.2,1.3,1.4,1.5l-0.4,0.5c-0.2-0.3-0.7-0.9-1-1.4v4.4h-0.7v-4.7c-0.4,1.1-0.9,2.2-1.4,2.9
						c-0.1-0.2-0.2-0.4-0.4-0.6c0.6-0.7,1.2-2.1,1.6-3.3h-1.5v-0.6h1.6v-1.7c-0.5,0.1-1,0.3-1.5,0.4c0-0.1-0.1-0.4-0.2-0.5
						c1.2-0.3,2.5-0.7,3.2-1.1l0.6,0.5c0,0-0.1,0-0.1,0c0,0-0.1,0-0.1,0c-0.3,0.2-0.8,0.4-1.3,0.5v1.9h1.4v0.6h-1.4V209.1z
						 M25.4,213.3H28v0.6h-5.8v-0.6h2.6v-1.4h-2v-0.6h2V210h-2.2v-0.6h5.2v0.6h-2.3v1.3h2.1v0.6h-2.1V213.3z M27.4,205.3v3.2h-4.5
						v-3.2H27.4z M26.7,208v-2h-3.2v2H26.7z"/>
					<path d="M34,206h3.9v0.6h-7.7v2.2c0,1.6-0.1,3.8-1,5.3c-0.1-0.1-0.4-0.3-0.6-0.4c0.8-1.4,0.9-3.5,0.9-5V206h3.8v-1.1l0.9,0.1
						c0,0.1-0.1,0.1-0.2,0.1V206z M37.4,209.9l0.1,0l0.4,0.1c-0.1,0.2-1.1,1.6-1.8,2.2l-0.5-0.3c0.4-0.4,0.8-0.9,1.2-1.4h-2.3v2.8
						c0,0.4-0.1,0.6-0.5,0.7c-0.3,0.1-0.7,0.1-1.9,0.1c0-0.2-0.1-0.4-0.2-0.6c0.5,0,0.9,0,1.2,0c0.6,0,0.7,0,0.7-0.2v-2.8h-3.2v-0.6
						h3.8c-0.7-0.4-1.6-0.8-2.3-1.1l0.4-0.4c0.5,0.2,1,0.4,1.6,0.7c0.6-0.3,1.2-0.7,1.7-1.1h-4.5v-0.6h5.1l0.1,0l0.5,0.3
						c0,0-0.1,0.1-0.1,0.1c-0.5,0.5-1.4,1.1-2.2,1.6c0.4,0.2,0.7,0.4,1,0.5l-0.1,0H37.4z"/>
				</g>
				<g class="st5">
					<path d="M3.7,225.1c0,0,0,0.1-0.1,0.1c0,0-0.1,0-0.1,0.1c0,0-0.1,0-0.2,0s-0.1,0-0.2,0c-0.1,0-0.2,0-0.3,0s-0.1,0-0.2,0
						c0,0-0.1,0-0.1-0.1c0,0,0-0.1-0.1-0.1l-1.3-4.8h0l-1.2,4.8c0,0,0,0.1,0,0.1c0,0-0.1,0-0.1,0.1c0,0-0.1,0-0.2,0s-0.2,0-0.3,0
						c-0.1,0-0.2,0-0.3,0s-0.1,0-0.2,0c0,0-0.1,0-0.1-0.1c0,0,0-0.1-0.1-0.1l-1.7-5.8c0-0.1,0-0.1,0-0.2s0-0.1,0-0.1s0.1,0,0.1,0
						s0.1,0,0.2,0c0.1,0,0.2,0,0.2,0c0.1,0,0.1,0,0.1,0s0.1,0,0.1,0.1s0,0.1,0,0.1l1.4,5.3h0l1.3-5.3c0,0,0-0.1,0-0.1
						c0,0,0,0,0.1-0.1s0.1,0,0.1,0s0.1,0,0.2,0c0.1,0,0.2,0,0.2,0s0.1,0,0.1,0s0.1,0,0.1,0.1c0,0,0,0.1,0,0.1l1.5,5.3h0l1.4-5.3
						c0,0,0-0.1,0-0.1c0,0,0,0,0.1-0.1s0.1,0,0.1,0s0.1,0,0.2,0c0.1,0,0.2,0,0.2,0c0.1,0,0.1,0,0.1,0s0,0.1,0,0.1s0,0.1,0,0.2
						L3.7,225.1z"/>
					<path d="M9.8,222.8c0,0.1,0,0.2-0.1,0.3c-0.1,0.1-0.1,0.1-0.2,0.1H6.6c0,0.2,0,0.5,0.1,0.7c0,0.2,0.1,0.4,0.2,0.5
						c0.1,0.1,0.3,0.2,0.4,0.3c0.2,0.1,0.4,0.1,0.7,0.1c0.2,0,0.4,0,0.6-0.1c0.2,0,0.3-0.1,0.4-0.1c0.1,0,0.2-0.1,0.3-0.1
						c0.1,0,0.1-0.1,0.2-0.1c0,0,0,0,0.1,0c0,0,0,0,0,0.1s0,0.1,0,0.1c0,0,0,0.1,0,0.1c0,0,0,0.1,0,0.1c0,0,0,0.1,0,0.1
						c0,0,0,0,0,0.1s0,0,0,0.1c0,0-0.1,0-0.2,0.1c-0.1,0-0.2,0.1-0.3,0.1s-0.3,0.1-0.5,0.1c-0.2,0-0.4,0-0.6,0
						c-0.4,0-0.7-0.1-0.9-0.2s-0.5-0.3-0.7-0.4S6,224.3,5.9,224s-0.1-0.6-0.1-1c0-0.4,0-0.7,0.1-1c0.1-0.3,0.2-0.6,0.4-0.8
						c0.2-0.2,0.4-0.4,0.7-0.5c0.3-0.1,0.6-0.2,0.9-0.2c0.3,0,0.6,0.1,0.9,0.2s0.4,0.3,0.6,0.4c0.2,0.2,0.3,0.4,0.3,0.7
						c0.1,0.3,0.1,0.5,0.1,0.8V222.8z M9,222.6c0-0.4-0.1-0.8-0.3-1c-0.2-0.2-0.5-0.4-0.9-0.4c-0.2,0-0.4,0-0.5,0.1
						c-0.2,0.1-0.3,0.2-0.4,0.3s-0.2,0.3-0.2,0.4c-0.1,0.2-0.1,0.3-0.1,0.5H9z"/>
					<path d="M15.1,222.9c0,0.4,0,0.7-0.1,1c-0.1,0.3-0.2,0.6-0.4,0.8s-0.4,0.4-0.6,0.5s-0.5,0.2-0.8,0.2c-0.1,0-0.3,0-0.4,0
						c-0.1,0-0.2-0.1-0.3-0.1s-0.2-0.1-0.3-0.2s-0.2-0.2-0.4-0.3v0.5c0,0,0,0,0,0.1s0,0-0.1,0c0,0-0.1,0-0.1,0s-0.1,0-0.2,0
						c-0.1,0-0.1,0-0.2,0s-0.1,0-0.1,0c0,0,0,0-0.1,0s0,0,0-0.1v-6.5c0,0,0,0,0-0.1s0,0,0.1,0s0.1,0,0.1,0s0.1,0,0.2,0
						c0.1,0,0.1,0,0.2,0s0.1,0,0.1,0s0.1,0,0.1,0s0,0,0,0.1v2.6c0.1-0.1,0.3-0.2,0.4-0.3s0.2-0.2,0.4-0.2c0.1-0.1,0.2-0.1,0.4-0.1
						s0.2,0,0.4,0c0.3,0,0.6,0.1,0.8,0.2s0.4,0.3,0.6,0.5c0.1,0.2,0.2,0.5,0.3,0.7S15.1,222.6,15.1,222.9z M14.2,223
						c0-0.2,0-0.4-0.1-0.7c0-0.2-0.1-0.4-0.2-0.6s-0.2-0.3-0.3-0.4c-0.1-0.1-0.3-0.1-0.5-0.1c-0.1,0-0.2,0-0.3,0
						c-0.1,0-0.2,0.1-0.3,0.1c-0.1,0.1-0.2,0.2-0.3,0.3c-0.1,0.1-0.2,0.2-0.4,0.4v1.8c0.2,0.3,0.4,0.5,0.6,0.6
						c0.2,0.1,0.4,0.2,0.6,0.2c0.2,0,0.4,0,0.5-0.1c0.1-0.1,0.3-0.2,0.4-0.4c0.1-0.2,0.2-0.3,0.2-0.5
						C14.2,223.4,14.2,223.2,14.2,223z"/>
					<path d="M18.8,216.5h8v10h-8V216.5z M19.3,225.6l3.2-4.1l-3.2-4.1V225.6z M26,217h-6.4l3.2,4.1L26,217z M26,226l-3.2-4.1
						l-3.2,4.1H26z M26.3,225.6v-8.2l-3.2,4.1L26.3,225.6z"/>
					<path d="M36.7,217.6v7.6c0,0.9-0.4,0.9-2.3,0.9c0-0.2-0.1-0.5-0.2-0.7c0.4,0,0.7,0,1,0c0.8,0,0.9,0,0.9-0.3V223h-2.9v3h-0.6v-3
						h-2.6c-0.1,1.1-0.5,2.3-1.3,3.2c-0.1-0.1-0.4-0.4-0.5-0.4c1.1-1.3,1.2-3.1,1.2-4.5v-3.7H36.7z M30,221.3c0,0.4,0,0.7,0,1.1h2.6
						v-1.7H30V221.3z M32.5,218.2H30v1.8h2.5V218.2z M36,220v-1.8h-2.9v1.8H36z M33.1,222.4H36v-1.7h-2.9V222.4z"/>
				</g>
			</g>
			<g id="shape1305-46" transform="translate(233.067,-95.7592)">
				<path class="st0" d="M21.6,174.8H1.1c-0.6,0-1.1,0.5-1.1,1.1v16.8c0,0.6,0.5,1.1,1.1,1.1h5.3c0.4,1.3,1.7,2.3,3.2,2.3
					c1.8,0,3.3-1.5,3.3-3.4s-1.5-3.4-3.3-3.4c-1.5,0-2.8,0.9-3.2,2.3H2.2v-12h18.3v12H17c-0.5-3.7-3.7-6.6-7.5-6.6
					c-1.3,0-2.5,0.4-3.6,0.9l1,2c0.7-0.4,1.7-0.7,2.6-0.7c2.9,0,5.4,2.5,5.4,5.5s-2.4,5.4-5.4,5.4c-0.9,0-1.8-0.2-2.6-0.7l-1,2
					c1.1,0.6,2.4,0.9,3.6,0.9c3.8,0,7-2.9,7.5-6.6h4.5c0.6,0,1.1-0.5,1.1-1.1v-16.8C22.7,175.3,22.2,174.8,21.6,174.8z"/>
				<g class="st5">
					<path d="M3.7,208.9v0.7H0.9v3.7c0,0.5-0.1,0.7-0.5,0.8c-0.3,0.1-0.9,0.1-1.9,0.1c0-0.2-0.1-0.5-0.3-0.7c0.4,0,0.8,0,1,0
						c0.8,0,0.9,0,0.9-0.2v-3.7h-5.7v-0.7h5.7v-1.6l0.9,0.1c0,0.1-0.1,0.1-0.2,0.1v1.4H3.7z M-4.4,206.7v1.4h-0.7v-2.1h3.8v-1.2
						l0.9,0.1c0,0.1-0.1,0.1-0.2,0.1v1h3.9v2.1H2.6v-1.4H-4.4z M-2.4,212.6c-0.3-0.6-1-1.5-1.7-2.2l0.5-0.3c0.7,0.6,1.4,1.5,1.7,2.1
						L-2.4,212.6z"/>
					<path d="M5.1,204.5h8v10h-8V204.5z M5.6,213.6l3.2-4.1l-3.2-4.1V213.6z M12.3,205H5.9l3.2,4.1L12.3,205z M12.3,214l-3.2-4.1
						L5.9,214H12.3z M12.6,213.6v-8.2l-3.2,4.1L12.6,213.6z"/>
					<path d="M16.8,209.1c0.3,0.3,1.2,1.3,1.4,1.5l-0.4,0.5c-0.2-0.3-0.7-0.9-1-1.4v4.4h-0.7v-4.7c-0.4,1.1-0.9,2.2-1.4,2.9
						c-0.1-0.2-0.3-0.4-0.4-0.6c0.6-0.7,1.2-2.1,1.6-3.3h-1.5v-0.6h1.6v-1.7c-0.5,0.1-1,0.3-1.5,0.4c0-0.1-0.1-0.4-0.2-0.5
						c1.2-0.3,2.5-0.7,3.2-1.1l0.6,0.5c0,0-0.1,0-0.1,0c0,0-0.1,0-0.1,0c-0.3,0.2-0.8,0.4-1.3,0.5v1.9h1.4v0.6h-1.4V209.1z
						 M21.2,213.3h2.6v0.6H18v-0.6h2.6v-1.4h-2v-0.6h2V210h-2.2v-0.6h5.2v0.6h-2.3v1.3h2.1v0.6h-2.1V213.3z M23.1,205.3v3.2h-4.5
						v-3.2H23.1z M22.5,208v-2h-3.2v2H22.5z"/>
					<path d="M29.7,206h3.9v0.6H26v2.2c0,1.6-0.1,3.8-1,5.3c-0.1-0.1-0.4-0.3-0.6-0.4c0.8-1.4,0.9-3.5,0.9-5V206h3.8v-1.1l0.9,0.1
						c0,0.1-0.1,0.1-0.2,0.1V206z M33.1,209.9l0.1,0l0.4,0.1c-0.1,0.2-1.1,1.6-1.8,2.2l-0.5-0.3c0.4-0.4,0.8-0.9,1.2-1.4h-2.3v2.8
						c0,0.4-0.1,0.6-0.5,0.7c-0.3,0.1-0.7,0.1-1.9,0.1c0-0.2-0.1-0.4-0.2-0.6c0.5,0,0.9,0,1.2,0c0.6,0,0.7,0,0.7-0.2v-2.8h-3.2v-0.6
						h3.8c-0.7-0.4-1.6-0.8-2.3-1.1l0.4-0.4c0.5,0.2,1,0.4,1.6,0.7c0.6-0.3,1.2-0.7,1.7-1.1H27v-0.6h5.1l0.1,0l0.5,0.3
						c0,0-0.1,0.1-0.1,0.1c-0.5,0.5-1.4,1.1-2.2,1.6c0.4,0.2,0.7,0.4,1,0.5l0,0H33.1z"/>
				</g>
				<g class="st5">
					<path d="M0.9,225c0,0.1,0,0.1,0,0.2c0,0,0,0.1,0,0.1c0,0-0.1,0-0.1,0c-0.1,0-0.1,0-0.2,0c-0.1,0-0.2,0-0.2,0
						c-0.1,0-0.1,0-0.1,0c0,0-0.1,0-0.1,0s0,0,0-0.1l-0.5-1.5h-2.6l-0.5,1.5c0,0,0,0.1,0,0.1c0,0,0,0-0.1,0.1c0,0-0.1,0-0.1,0
						c-0.1,0-0.1,0-0.2,0c-0.1,0-0.2,0-0.2,0c-0.1,0-0.1,0-0.1,0s0-0.1,0-0.1c0,0,0-0.1,0-0.2l2.1-5.9c0,0,0-0.1,0.1-0.1
						c0,0,0.1,0,0.1-0.1c0,0,0.1,0,0.2,0c0.1,0,0.1,0,0.2,0c0.1,0,0.2,0,0.3,0c0.1,0,0.1,0,0.2,0c0,0,0.1,0,0.1,0.1
						c0,0,0,0.1,0.1,0.1L0.9,225z M-1.8,219.8L-1.8,219.8l-1.1,3.1h2.2L-1.8,219.8z"/>
					<path d="M5.8,220.8c0,0.3-0.1,0.6-0.2,0.9c-0.1,0.3-0.3,0.5-0.4,0.6c-0.2,0.2-0.4,0.3-0.7,0.4c-0.3,0.1-0.6,0.1-1,0.1H2.8v2.3
						c0,0,0,0,0,0.1s0,0-0.1,0c0,0-0.1,0-0.1,0c-0.1,0-0.1,0-0.2,0c-0.1,0-0.1,0-0.2,0c-0.1,0-0.1,0-0.1,0c0,0-0.1,0-0.1,0
						c0,0,0,0,0-0.1v-5.8c0-0.1,0-0.2,0.1-0.3c0.1-0.1,0.1-0.1,0.2-0.1h1.4c0.1,0,0.3,0,0.4,0c0.1,0,0.3,0,0.4,0.1
						c0.2,0,0.3,0.1,0.5,0.2c0.2,0.1,0.3,0.2,0.5,0.4c0.1,0.1,0.2,0.3,0.3,0.5C5.8,220.4,5.8,220.6,5.8,220.8z M4.9,220.9
						c0-0.3,0-0.5-0.1-0.6c-0.1-0.2-0.2-0.3-0.4-0.4s-0.3-0.1-0.4-0.2c-0.2,0-0.3,0-0.4,0H2.8v2.5h0.8c0.3,0,0.5,0,0.6-0.1
						c0.2-0.1,0.3-0.2,0.4-0.3c0.1-0.1,0.2-0.3,0.3-0.4C4.9,221.3,4.9,221.1,4.9,220.9z"/>
					<path d="M8,225.2C8,225.2,7.9,225.2,8,225.2c0,0.1-0.1,0.1-0.1,0.1c0,0-0.1,0-0.1,0c-0.1,0-0.1,0-0.2,0c-0.1,0-0.1,0-0.2,0
						c-0.1,0-0.1,0-0.1,0c0,0-0.1,0-0.1,0c0,0,0,0,0-0.1v-6.1c0,0,0,0,0-0.1s0,0,0.1,0c0,0,0.1,0,0.1,0c0.1,0,0.1,0,0.2,0
						c0.1,0,0.1,0,0.2,0c0.1,0,0.1,0,0.1,0c0,0,0.1,0,0.1,0c0,0,0,0,0,0.1V225.2z"/>
					<path d="M12.1,216.5h8v10h-8V216.5z M12.6,225.6l3.2-4.1l-3.2-4.1V225.6z M19.2,217h-6.4l3.2,4.1L19.2,217z M19.2,226l-3.2-4.1
						l-3.2,4.1H19.2z M19.6,225.6v-8.2l-3.2,4.1L19.6,225.6z"/>
					<path d="M30,217.6v7.6c0,0.9-0.4,0.9-2.3,0.9c0-0.2-0.1-0.5-0.2-0.7c0.4,0,0.7,0,1,0c0.8,0,0.9,0,0.9-0.3V223h-2.9v3h-0.7v-3
						h-2.6c-0.2,1.1-0.5,2.3-1.3,3.2c-0.1-0.1-0.4-0.4-0.5-0.4c1.1-1.3,1.2-3.1,1.2-4.5v-3.7H30z M23.2,221.3c0,0.4,0,0.7,0,1.1h2.6
						v-1.7h-2.5V221.3z M25.8,218.2h-2.5v1.8h2.5V218.2z M29.3,220v-1.8h-2.9v1.8H29.3z M26.4,222.4h2.9v-1.7h-2.9V222.4z"/>
				</g>
			</g>
			<g id="group1317-50" transform="translate(57.6226,-93.562)">
				<g id="shape1318-51_1_">
					<path class="st1" d="M15,199.5H0.8v-28.4H15v7.7h0.8v-8.4H0v29.9h15.7V198H15V199.5z"/>
				</g>
				<g id="shape1319-53_1_" transform="translate(1.5606,-23.7593)">
					<path class="st1" d="M12.6,195.7H0v4.6h12.6V195.7z M3.1,197.6h6.5v0.8H3.1V197.6z M9.6,199.5L9.6,199.5H3.1H3v-0.8h0.1h6.4
						h0.1V199.5z"/>
				</g>
				<g id="shape1320-55_1_" transform="translate(1.52875,-19.9374)">
					<path class="st1" d="M0,197.2v3.1h8.6v-1.5h4.1v-1.5H0V197.2z"/>
				</g>
				<g id="shape1321-57_1_" transform="translate(1.52875,-16.4978)">
					<rect x="0" y="197.6" class="st1" width="8.6" height="2.7"/>
				</g>
				<g id="shape1322-59_1_" transform="translate(1.4969,-1.52875)">
					<path class="st1" d="M0,200.3h12.6v-0.8h-4v-13.4H0V200.3L0,200.3z M1.6,197.6h2.3v1.2H1.6V197.6z"/>
				</g>
				<g id="shape1323-61_1_" transform="translate(16.02,-3.43969)">
					<path class="st1" d="M8.7,199.2H6.3v-1.9H3.8v1.9H1.3c-0.7,0-1.3,0.6-1.3,1.2h10C10.1,199.7,9.4,199.2,8.7,199.2z"/>
				</g>
				<g id="shape1324-63_1_" transform="translate(11.816,-7.22971)">
					<path class="st1" d="M17.8,189H0.7c-0.3,0-0.7,0.3-0.7,0.6v10.1c0,0.3,0.3,0.6,0.7,0.6h17.1c0.4,0,0.7-0.3,0.7-0.6v-10.1
						C18.4,189.2,18.1,189,17.8,189z M16.8,198.8H1.7v-8.3h15.1L16.8,198.8z"/>
				</g>
				<g id="shape1325-65_1_" transform="translate(17.931,-9.36359)">
					<path class="st1" d="M7,198.5V195l-3.5-1.8L0,195v3.5l3.5,1.8L7,198.5z M2.6,196.2l0.9-0.4l0.9,0.4l-0.9,0.5L2.6,196.2z
						 M2.6,195l0.9-0.4l0.9,0.4l-0.9,0.5L2.6,195z M4.5,199.5l-1,0.5v-0.9l1-0.5V199.5z M4.5,198.4l-1,0.5V198l1-0.5V198.4z
						 M4.5,197.2l-1,0.5v-0.9l1-0.5V197.2z M3.7,195.6l0.9-0.4l0.9,0.4L4.6,196L3.7,195.6z M5.7,198.9l-0.9,0.5v-0.9l0.9-0.5V198.9z
						 M5.7,197.8l-0.9,0.5v-0.9l0.9-0.5V197.8z M5.7,196.6l-0.9,0.5v-0.9l0.9-0.5V196.6z M6.8,198.4l-0.9,0.4v-0.9l0.9-0.5V198.4z
						 M6.8,197.2l-0.9,0.4v-0.9l0.9-0.4V197.2z M6.8,196.1l-0.9,0.4v-0.9l0.9-0.4V196.1z M6.6,195l-0.9,0.5L4.8,195l0.9-0.4L6.6,195
						z M5.5,194.4l-0.9,0.4l-0.9-0.4l0.9-0.4L5.5,194.4z M3.5,193.4l0.9,0.4l-0.9,0.4l-0.9-0.4L3.5,193.4z M2.4,194l0.9,0.4
						l-0.9,0.4l-0.9-0.4L2.4,194z M1.3,194.6l0.9,0.4l-0.9,0.5L0.4,195L1.3,194.6z M1,198.8l-0.9-0.4v-0.9l0.9,0.4V198.8z M1,197.7
						l-0.9-0.4v-0.9l0.9,0.4V197.7z M1,196.5l-0.9-0.4v-0.9l0.9,0.4V196.5z M2.2,199.4l-1-0.5V198l1,0.5V199.4z M2.2,198.3l-1-0.5
						v-0.9l1,0.5V198.3z M2.2,197.1l-1-0.5v-0.9l1,0.5V197.1z M1.5,195.6l0.9-0.4l0.9,0.4l-0.9,0.5L1.5,195.6z M3.4,200.1l-1-0.5
						v-0.9l1,0.5V200.1z M3.4,198.9l-1-0.5v-0.9l1,0.5V198.9z M3.4,197.8l-1-0.5v-0.9l1,0.5V197.8z"/>
				</g>
				<g id="shape1317-67_1_">
					<g class="st5">
						<path d="M7.2,206.3v0.7H4.5v3.7c0,0.5-0.1,0.7-0.5,0.8c-0.3,0.1-0.9,0.1-1.9,0.1c0-0.2-0.1-0.5-0.3-0.7c0.4,0,0.8,0,1,0
							c0.8,0,0.9,0,0.9-0.2v-3.7h-5.7v-0.7h5.7v-1.6l0.9,0.1c0,0.1-0.1,0.1-0.2,0.1v1.4H7.2z M-0.8,204.1v1.4h-0.7v-2.1h3.8v-1.2
							l0.9,0.1c0,0.1-0.1,0.1-0.2,0.1v1h3.9v2.1H6.2v-1.4H-0.8z M1.2,210c-0.3-0.6-1-1.5-1.7-2.2l0.5-0.3c0.7,0.6,1.4,1.5,1.7,2.1
							L1.2,210z"/>
						<path d="M8.7,201.9h8v10h-8V201.9z M9.2,211l3.2-4.1l-3.2-4.1V211z M15.9,202.4H9.5l3.2,4.1L15.9,202.4z M15.9,211.4l-3.2-4.1
							l-3.2,4.1H15.9z M16.2,211v-8.2l-3.2,4.1L16.2,211z"/>
						<path d="M20.4,206.4c0.3,0.3,1.2,1.3,1.4,1.5l-0.4,0.5c-0.2-0.3-0.7-0.9-1-1.4v4.4h-0.7v-4.7c-0.4,1.1-0.9,2.2-1.4,2.9
							c-0.1-0.2-0.2-0.4-0.4-0.6c0.6-0.7,1.2-2.1,1.6-3.3h-1.5v-0.6h1.6v-1.7c-0.5,0.1-1,0.3-1.5,0.4c0-0.1-0.1-0.4-0.2-0.5
							c1.2-0.3,2.5-0.7,3.2-1.1l0.6,0.5c0,0-0.1,0-0.1,0c0,0-0.1,0-0.1,0c-0.3,0.2-0.8,0.4-1.3,0.5v1.9h1.4v0.6h-1.4V206.4z
							 M24.8,210.6h2.6v0.6h-5.8v-0.6h2.6v-1.4h-2v-0.6h2v-1.3h-2.2v-0.6h5.2v0.6h-2.3v1.3h2.1v0.6h-2.1V210.6z M26.7,202.7v3.2
							h-4.5v-3.2H26.7z M26,205.3v-2h-3.2v2H26z"/>
						<path d="M33.3,203.4h3.9v0.6h-7.7v2.2c0,1.6-0.1,3.8-1,5.3c-0.1-0.1-0.4-0.3-0.6-0.4c0.8-1.4,0.9-3.5,0.9-5v-2.8h3.8v-1.1
							l0.9,0.1c0,0.1-0.1,0.1-0.2,0.1V203.4z M36.7,207.3l0.1,0l0.4,0.1c-0.1,0.2-1.1,1.6-1.8,2.2l-0.5-0.3c0.4-0.4,0.8-0.9,1.2-1.4
							h-2.3v2.8c0,0.4-0.1,0.6-0.5,0.7c-0.3,0.1-0.7,0.1-1.9,0.1c0-0.2-0.1-0.4-0.2-0.6c0.5,0,0.9,0,1.2,0c0.6,0,0.7,0,0.7-0.2v-2.8
							h-3.2v-0.6h3.8c-0.7-0.4-1.6-0.8-2.3-1.1l0.4-0.4c0.5,0.2,1,0.4,1.6,0.7c0.6-0.3,1.2-0.7,1.7-1.1h-4.5v-0.6h5.1l0.1,0l0.5,0.3
							c0,0-0.1,0.1-0.1,0.1c-0.5,0.5-1.4,1.1-2.2,1.6c0.4,0.2,0.7,0.4,1,0.5l-0.1,0H36.7z"/>
					</g>
					<g class="st5">
						<path d="M-1.6,220.8h-3.6c0.9,0.9,2.3,1.6,3.7,1.9c-0.2,0.1-0.3,0.4-0.4,0.6c-1.4-0.4-3-1.3-3.9-2.4v2.6h-0.7v-2.6
							c-0.9,1.1-2.5,2-3.9,2.5c-0.1-0.2-0.3-0.4-0.4-0.5c1.3-0.4,2.8-1.1,3.7-2h-3.5v-0.6h4.1v-0.8h-2.9v-3.2h2.8v-2l0.9,0.1
							c0,0.1-0.1,0.1-0.2,0.1v0.6H-2v0.6h-3.9v0.7h3v3.2h-2.7c0,0-0.1,0.1-0.2,0.1v0.7h4.2V220.8z M-8.7,216.8v0.8h5.1v-0.8H-8.7z
							 M-8.7,218.1v0.8h5.1v-0.8H-8.7z"/>
						<path d="M8.4,215.6H4.2c0,0,0,0-0.1,0c-0.1,0.4-0.2,0.9-0.4,1.3h4.1v6.6H7.2V223H0.6v0.5h-0.7v-6.6h3.2
							c0.1-0.4,0.2-0.9,0.3-1.3h-4v-0.6h8.9V215.6z M0.6,217.5v4.8h1.7v-4.8H0.6z M4.8,218.7v-1.2h-2v1.2H4.8z M4.8,220.5v-1.2h-2
							v1.2H4.8z M2.9,221.1v1.3h2v-1.3H2.9z M7.2,222.3v-4.8H5.5v4.8H7.2z"/>
						<path d="M9.9,213.9h8v10h-8V213.9z M10.4,223l3.2-4.1l-3.2-4.1V223z M17.1,214.4h-6.4l3.2,4.1L17.1,214.4z M17.1,223.4
							l-3.2-4.1l-3.2,4.1H17.1z M17.4,223v-8.2l-3.2,4.1L17.4,223z"/>
						<path d="M27.8,214.9v7.6c0,0.9-0.4,0.9-2.3,0.9c0-0.2-0.1-0.5-0.2-0.7c0.4,0,0.7,0,1,0c0.8,0,0.9,0,0.9-0.3v-2.2h-2.9v3h-0.6
							v-3h-2.6c-0.1,1.1-0.5,2.3-1.3,3.2c-0.1-0.1-0.4-0.4-0.5-0.4c1.1-1.3,1.2-3.1,1.2-4.5v-3.7H27.8z M21,218.6c0,0.4,0,0.7,0,1.1
							h2.6V218H21V218.6z M23.6,215.6H21v1.8h2.5V215.6z M27.1,217.4v-1.8h-2.9v1.8H27.1z M24.2,219.7h2.9V218h-2.9V219.7z"/>
					</g>
				</g>
			</g>
			<g id="group1337-70" transform="translate(8.01629,-177.893)">
				<g id="shape1338-71_1_" transform="translate(-9.29257E-14,-5.02924)">
					<path class="st2" d="M8.3,199.4H1.6c-0.3,0-0.6-0.3-0.6-0.6v-6.4h1.9v-1.8h12.4c0.3,0,0.6,0.3,0.6,0.6v0.1
						c0.3,0.1,0.7,0.2,1,0.3v-0.4c0-0.8-0.7-1.5-1.6-1.5h-13L0,191.9v6.9c0,0.8,0.7,1.5,1.6,1.5h7.3C8.6,200,8.4,199.7,8.3,199.4z"
						/>
				</g>
				<g id="group1339-73_1_" transform="translate(8.44762,0)">
					<g id="group1340-74_1_" transform="translate(0.737786,0)">
						<g id="shape1341-75_1_">
							<path class="st2" d="M7.5,195.9l2.3,3.3l-2.2-0.5L7,200.3l-2.3-2.9L3,200.3l-0.8-1.7L0,199.1l2.1-3.4c0,0,0.6,0.9,2.7,0.9
								S7.5,195.9,7.5,195.9z"/>
						</g>
					</g>
					<g id="group1342-77_1_" transform="translate(1.9839,-4.95422)">
						<g id="shape1343-78_1_">
							<path class="st2" d="M3.7,200.3c-2,0-3.7-1.5-3.7-3.4s1.7-3.4,3.7-3.4c2.1,0,3.7,1.5,3.7,3.4S5.8,200.3,3.7,200.3z
								 M3.7,194.2c-1.6,0-2.9,1.2-2.9,2.6s1.3,2.6,2.9,2.6s2.9-1.2,2.9-2.6S5.3,194.2,3.7,194.2z"/>
						</g>
					</g>
					<g id="group1344-80_1_" transform="translate(0,-3.14179)">
						<g id="shape1345-81_1_">
							<path class="st2" d="M5.7,200.3c-3.1,0-5.7-2.3-5.7-5.2s2.6-5.2,5.7-5.2s5.7,2.3,5.7,5.2S8.8,200.3,5.7,200.3z M5.7,190.6
								c-2.7,0-4.9,2-4.9,4.5s2.2,4.5,4.9,4.5s4.9-2,4.9-4.5S8.4,190.6,5.7,190.6z"/>
						</g>
					</g>
				</g>
				<g id="shape1337-83_1_">
					<g class="st5">
						<path d="M-0.1,208.7c0.4,0.3,1.3,1.4,1.5,1.7L1,210.9c-0.2-0.3-0.7-1-1.1-1.5v4.7h-0.6v-5c-0.4,1.2-1,2.4-1.5,3.1
							c-0.1-0.2-0.3-0.5-0.4-0.6c0.7-0.9,1.5-2.5,1.8-3.9h-1.6v-0.6h1.7v-2.2l0.8,0.1c0,0.1-0.1,0.1-0.2,0.1v2h1.5v0.6h-1.5V208.7z
							 M5.5,212.8c0,0.6,0,0.7,0.3,0.7H6c0.3,0,0.3-0.2,0.3-0.5c0-0.2,0-0.8,0-1.5c0.1,0.1,0.4,0.2,0.5,0.3c0,2-0.2,2.3-0.9,2.3H5.6
							c-0.2,0-0.4,0-0.6-0.2c-0.2-0.1-0.2-0.3-0.2-1.2v-6.6h-2v2.6c0,1.7-0.2,4-1.7,5.5c-0.1-0.1-0.4-0.3-0.5-0.4
							c1.4-1.4,1.5-3.4,1.5-5v-3.2h3.3V212.8z"/>
						<path d="M13.4,209.9c0.5,0,0.5-0.1,0.6-1.1c0.1,0.1,0.4,0.2,0.6,0.2c-0.1,1.1-0.3,1.4-1.1,1.4h-2c-0.5,0-0.8,0-1-0.2
							c-0.8,0.4-1.7,0.7-2.6,0.9c-0.1-0.1-0.3-0.4-0.4-0.5c0.9-0.2,1.8-0.5,2.7-0.9v-2.2l0.8,0c0,0.1,0,0.1-0.2,0.1v1.7
							c1.3-0.7,2.4-1.5,3.2-2.5l0.7,0.3c0,0-0.1,0.1-0.2,0.1c0,0,0,0-0.1,0c-0.8,1-2,1.9-3.3,2.6c0.1,0,0.1,0,0.3,0H13.4z
							 M7.5,209.7c0.7-0.4,1.2-1.1,1.4-1.8l0.6,0.2c-0.2,0.8-0.6,1.6-1.4,2L7.5,209.7z M8.7,206.5v1.4H8v-2h3.7v-1l0.9,0.1
							c0,0.1-0.1,0.1-0.2,0.1v0.8h3.8v2h-0.7v-1.4H8.7z M14.9,213.1v-1.8l0.9,0.1c0,0.1-0.1,0.1-0.2,0.1v2.7h-0.7v-0.4H9.4v0.4H8.8
							v-2.9l0.9,0.1c0,0.1-0.1,0.1-0.2,0.1v1.6h2.3v-2.4l0.9,0.1c0,0.1-0.1,0.1-0.2,0.1v2.2H14.9z M11,206.6
							c0.6,0.3,1.4,0.8,1.8,1.1l-0.4,0.4c-0.4-0.4-1.1-0.8-1.7-1.1L11,206.6z M16.3,210.3c-0.3-0.6-1.1-1.4-1.9-2l0.5-0.4
							c0.7,0.6,1.5,1.4,1.9,2L16.3,210.3z"/>
					</g>
				</g>
			</g>
			<g id="shape1346-85" transform="translate(87.0703,-185.688)">
			</g>
			<g id="shape1348-91" transform="translate(89.0646,-101.429)">
			</g>
			<g id="shape1350-96" transform="translate(61.4123,-20.0036)">
				<path class="st0" d="M21.6,174.8H1.1c-0.6,0-1.1,0.5-1.1,1.1v16.8c0,0.6,0.5,1.1,1.1,1.1h5.3c0.4,1.3,1.7,2.3,3.2,2.3
					c1.8,0,3.3-1.5,3.3-3.4s-1.5-3.4-3.3-3.4c-1.5,0-2.8,0.9-3.2,2.3H2.2v-12h18.3v12H17c-0.5-3.7-3.7-6.6-7.5-6.6
					c-1.3,0-2.5,0.4-3.6,0.9l1,2c0.7-0.4,1.7-0.7,2.6-0.7c2.9,0,5.4,2.5,5.4,5.5s-2.4,5.4-5.4,5.4c-0.9,0-1.8-0.2-2.6-0.7l-1,2
					c1.1,0.6,2.4,0.9,3.6,0.9c3.8,0,7-2.9,7.5-6.6h4.5c0.6,0,1.1-0.5,1.1-1.1v-16.8C22.7,175.3,22.2,174.8,21.6,174.8z"/>
				<g class="st5">
					<path d="M-14.9,208.9v0.7h-2.7v3.7c0,0.5-0.1,0.7-0.5,0.8c-0.3,0.1-0.9,0.1-1.9,0.1c0-0.2-0.1-0.5-0.3-0.7c0.4,0,0.8,0,1,0
						c0.8,0,0.9,0,0.9-0.2v-3.7H-24v-0.7h5.7v-1.6l0.9,0.1c0,0.1-0.1,0.1-0.2,0.1v1.4H-14.9z M-23,206.7v1.4h-0.7v-2.1h3.8v-1.2
						l0.9,0.1c0,0.1-0.1,0.1-0.2,0.1v1h3.9v2.1h-0.7v-1.4H-23z M-21,212.6c-0.3-0.6-1-1.5-1.7-2.2l0.5-0.3c0.7,0.6,1.4,1.5,1.7,2.1
						L-21,212.6z"/>
					<path d="M-13.4,204.5h8v10h-8V204.5z M-12.9,213.6l3.2-4.1l-3.2-4.1V213.6z M-6.3,205h-6.4l3.2,4.1L-6.3,205z M-6.3,214
						l-3.2-4.1l-3.2,4.1H-6.3z M-5.9,213.6v-8.2l-3.2,4.1L-5.9,213.6z"/>
					<path d="M-1.7,209.1c0.3,0.3,1.2,1.3,1.4,1.5l-0.4,0.5c-0.2-0.3-0.7-0.9-1-1.4v4.4h-0.7v-4.7c-0.4,1.1-0.9,2.2-1.4,2.9
						c-0.1-0.2-0.2-0.4-0.4-0.6c0.6-0.7,1.2-2.1,1.6-3.3H-4v-0.6h1.6v-1.7c-0.5,0.1-1,0.3-1.5,0.4c0-0.1-0.1-0.4-0.2-0.5
						c1.2-0.3,2.5-0.7,3.2-1.1l0.6,0.5c0,0-0.1,0-0.1,0c0,0-0.1,0-0.1,0c-0.3,0.2-0.8,0.4-1.3,0.5v1.9h1.4v0.6h-1.4V209.1z
						 M2.6,213.3h2.6v0.6h-5.8v-0.6H2v-1.4H0v-0.6h2V210h-2.2v-0.6H5v0.6H2.6v1.3h2.1v0.6H2.6V213.3z M4.6,205.3v3.2H0.1v-3.2H4.6z
						 M3.9,208v-2H0.7v2H3.9z"/>
					<path d="M11.2,206h3.9v0.6H7.4v2.2c0,1.6-0.1,3.8-1,5.3c-0.1-0.1-0.4-0.3-0.6-0.4c0.8-1.4,0.9-3.5,0.9-5V206h3.8v-1.1l0.9,0.1
						c0,0.1-0.1,0.1-0.2,0.1V206z M14.6,209.9l0.1,0l0.4,0.1c-0.1,0.2-1.1,1.6-1.8,2.2l-0.5-0.3c0.4-0.4,0.8-0.9,1.2-1.4h-2.3v2.8
						c0,0.4-0.1,0.6-0.5,0.7c-0.3,0.1-0.7,0.1-1.9,0.1c0-0.2-0.1-0.4-0.2-0.6c0.5,0,0.9,0,1.2,0c0.6,0,0.7,0,0.7-0.2v-2.8H7.8v-0.6
						h3.8c-0.7-0.4-1.6-0.8-2.3-1.1l0.4-0.4c0.5,0.2,1,0.4,1.6,0.7c0.6-0.3,1.2-0.7,1.7-1.1H8.4v-0.6h5.1l0.1,0l0.5,0.3
						c0,0-0.1,0.1-0.1,0.1c-0.5,0.5-1.4,1.1-2.2,1.6c0.4,0.2,0.7,0.4,1,0.5l-0.1,0H14.6z"/>
					<path d="M24.7,213.1c0,0,0,0.1-0.1,0.1c0,0-0.1,0-0.1,0.1c0,0-0.1,0-0.2,0s-0.1,0-0.2,0c-0.1,0-0.2,0-0.3,0s-0.1,0-0.2,0
						c0,0-0.1,0-0.1-0.1c0,0,0-0.1-0.1-0.1l-1.3-4.8h0l-1.2,4.8c0,0,0,0.1,0,0.1c0,0-0.1,0-0.1,0.1c0,0-0.1,0-0.2,0s-0.2,0-0.3,0
						c-0.1,0-0.2,0-0.3,0s-0.1,0-0.2,0c0,0-0.1,0-0.1-0.1c0,0,0-0.1-0.1-0.1l-1.7-5.8c0-0.1,0-0.1,0-0.2s0-0.1,0-0.1s0.1,0,0.1,0
						s0.1,0,0.2,0c0.1,0,0.2,0,0.2,0c0.1,0,0.1,0,0.1,0s0.1,0,0.1,0.1s0,0.1,0,0.1l1.4,5.3h0l1.3-5.3c0,0,0-0.1,0-0.1
						c0,0,0,0,0.1-0.1s0.1,0,0.1,0s0.1,0,0.2,0c0.1,0,0.2,0,0.2,0s0.1,0,0.1,0s0.1,0,0.1,0.1c0,0,0,0.1,0,0.1l1.5,5.3h0l1.4-5.3
						c0,0,0-0.1,0-0.1c0,0,0,0,0.1-0.1s0.1,0,0.1,0s0.1,0,0.2,0c0.1,0,0.2,0,0.2,0c0.1,0,0.1,0,0.1,0s0,0.1,0,0.1s0,0.1,0,0.2
						L24.7,213.1z"/>
					<path d="M30.8,210.8c0,0.1,0,0.2-0.1,0.3c-0.1,0.1-0.1,0.1-0.2,0.1h-2.9c0,0.2,0,0.5,0.1,0.7c0,0.2,0.1,0.4,0.2,0.5
						c0.1,0.1,0.3,0.2,0.4,0.3c0.2,0.1,0.4,0.1,0.7,0.1c0.2,0,0.4,0,0.6-0.1c0.2,0,0.3-0.1,0.4-0.1c0.1,0,0.2-0.1,0.3-0.1
						c0.1,0,0.1-0.1,0.2-0.1c0,0,0,0,0.1,0c0,0,0,0,0,0.1s0,0.1,0,0.1c0,0,0,0.1,0,0.1c0,0,0,0.1,0,0.1c0,0,0,0.1,0,0.1
						c0,0,0,0,0,0.1s0,0,0,0.1c0,0-0.1,0-0.2,0.1c-0.1,0-0.2,0.1-0.3,0.1s-0.3,0.1-0.5,0.1c-0.2,0-0.4,0-0.6,0
						c-0.4,0-0.7-0.1-0.9-0.2s-0.5-0.3-0.7-0.4s-0.3-0.4-0.4-0.7s-0.1-0.6-0.1-1c0-0.4,0-0.7,0.1-1c0.1-0.3,0.2-0.6,0.4-0.8
						c0.2-0.2,0.4-0.4,0.7-0.5c0.3-0.1,0.6-0.2,0.9-0.2c0.3,0,0.6,0.1,0.9,0.2s0.4,0.3,0.6,0.4c0.2,0.2,0.3,0.4,0.3,0.7
						c0.1,0.3,0.1,0.5,0.1,0.8V210.8z M30,210.6c0-0.4-0.1-0.8-0.3-1c-0.2-0.2-0.5-0.4-0.9-0.4c-0.2,0-0.4,0-0.5,0.1
						c-0.2,0.1-0.3,0.2-0.4,0.3s-0.2,0.3-0.2,0.4c-0.1,0.2-0.1,0.3-0.1,0.5H30z"/>
					<path d="M36.1,210.9c0,0.4,0,0.7-0.1,1c-0.1,0.3-0.2,0.6-0.4,0.8s-0.4,0.4-0.6,0.5s-0.5,0.2-0.8,0.2c-0.1,0-0.3,0-0.4,0
						c-0.1,0-0.2-0.1-0.3-0.1s-0.2-0.1-0.3-0.2s-0.2-0.2-0.4-0.3v0.5c0,0,0,0,0,0.1s0,0-0.1,0c0,0-0.1,0-0.1,0s-0.1,0-0.2,0
						c-0.1,0-0.1,0-0.2,0s-0.1,0-0.1,0c0,0,0,0-0.1,0s0,0,0-0.1v-6.5c0,0,0,0,0-0.1s0,0,0.1,0s0.1,0,0.1,0s0.1,0,0.2,0
						c0.1,0,0.1,0,0.2,0s0.1,0,0.1,0s0.1,0,0.1,0s0,0,0,0.1v2.6c0.1-0.1,0.3-0.2,0.4-0.3s0.2-0.2,0.4-0.2c0.1-0.1,0.2-0.1,0.4-0.1
						s0.2,0,0.4,0c0.3,0,0.6,0.1,0.8,0.2s0.4,0.3,0.6,0.5c0.1,0.2,0.2,0.5,0.3,0.7S36.1,210.6,36.1,210.9z M35.3,211
						c0-0.2,0-0.4-0.1-0.7c0-0.2-0.1-0.4-0.2-0.6s-0.2-0.3-0.3-0.4c-0.1-0.1-0.3-0.1-0.5-0.1c-0.1,0-0.2,0-0.3,0
						c-0.1,0-0.2,0.1-0.3,0.1c-0.1,0.1-0.2,0.2-0.3,0.3c-0.1,0.1-0.2,0.2-0.4,0.4v1.8c0.2,0.3,0.4,0.5,0.6,0.6
						c0.2,0.1,0.4,0.2,0.6,0.2c0.2,0,0.4,0,0.5-0.1c0.1-0.1,0.3-0.2,0.4-0.4c0.1-0.2,0.2-0.3,0.2-0.5
						C35.3,211.4,35.3,211.2,35.3,211z"/>
					<path d="M44.4,213c0,0.1,0,0.1,0,0.2c0,0,0,0.1,0,0.1s-0.1,0-0.1,0s-0.1,0-0.2,0s-0.2,0-0.2,0c-0.1,0-0.1,0-0.1,0
						c0,0-0.1,0-0.1,0s0,0,0-0.1l-0.5-1.5h-2.6l-0.5,1.5c0,0,0,0.1,0,0.1c0,0,0,0-0.1,0.1c0,0-0.1,0-0.1,0s-0.1,0-0.2,0
						c-0.1,0-0.2,0-0.2,0c-0.1,0-0.1,0-0.1,0s0-0.1,0-0.1c0,0,0-0.1,0-0.2l2.1-5.9c0,0,0-0.1,0.1-0.1s0.1,0,0.1-0.1s0.1,0,0.2,0
						c0.1,0,0.1,0,0.2,0c0.1,0,0.2,0,0.3,0c0.1,0,0.1,0,0.2,0s0.1,0,0.1,0.1c0,0,0,0.1,0.1,0.1L44.4,213z M41.7,207.8L41.7,207.8
						l-1.1,3.1h2.2L41.7,207.8z"/>
					<path d="M49.3,208.8c0,0.3-0.1,0.6-0.2,0.9s-0.3,0.5-0.4,0.6s-0.4,0.3-0.7,0.4s-0.6,0.1-1,0.1h-0.7v2.3c0,0,0,0,0,0.1
						s0,0-0.1,0c0,0-0.1,0-0.1,0c-0.1,0-0.1,0-0.2,0s-0.1,0-0.2,0c-0.1,0-0.1,0-0.1,0c0,0-0.1,0-0.1,0s0,0,0-0.1v-5.8
						c0-0.1,0-0.2,0.1-0.3s0.1-0.1,0.2-0.1h1.4c0.1,0,0.3,0,0.4,0c0.1,0,0.3,0,0.4,0.1c0.2,0,0.3,0.1,0.5,0.2
						c0.2,0.1,0.3,0.2,0.5,0.4s0.2,0.3,0.3,0.5C49.3,208.4,49.3,208.6,49.3,208.8z M48.5,208.9c0-0.3,0-0.5-0.1-0.6
						s-0.2-0.3-0.4-0.4s-0.3-0.1-0.4-0.2s-0.3,0-0.4,0h-0.8v2.5h0.8c0.3,0,0.5,0,0.6-0.1s0.3-0.2,0.4-0.3c0.1-0.1,0.2-0.3,0.3-0.4
						C48.4,209.3,48.5,209.1,48.5,208.9z"/>
					<path d="M51.5,213.2C51.5,213.2,51.5,213.2,51.5,213.2c0,0.1-0.1,0.1-0.1,0.1c0,0-0.1,0-0.1,0c-0.1,0-0.1,0-0.2,0
						c-0.1,0-0.1,0-0.2,0c-0.1,0-0.1,0-0.1,0c0,0-0.1,0-0.1,0s0,0,0-0.1v-6.1c0,0,0,0,0-0.1s0,0,0.1,0c0,0,0.1,0,0.1,0
						c0.1,0,0.1,0,0.2,0c0.1,0,0.1,0,0.2,0c0.1,0,0.1,0,0.1,0c0,0,0.1,0,0.1,0s0,0,0,0.1V213.2z"/>
				</g>
			</g>
			<g id="group1385-99" transform="translate(8.01629,-100.72)">
				<g id="shape1386-100_1_" transform="translate(-9.29257E-14,-5.02924)">
					<path class="st2" d="M8.3,199.4H1.6c-0.3,0-0.6-0.3-0.6-0.6v-6.4h1.9v-1.8h12.4c0.3,0,0.6,0.3,0.6,0.6v0.1
						c0.3,0.1,0.7,0.2,1,0.3v-0.4c0-0.8-0.7-1.5-1.6-1.5h-13L0,191.9v6.9c0,0.8,0.7,1.5,1.6,1.5h7.3C8.6,200,8.4,199.7,8.3,199.4z"
						/>
				</g>
				<g id="group1387-102_1_" transform="translate(8.44762,0)">
					<g id="group1388-103_1_" transform="translate(0.737786,0)">
						<g id="shape1389-104_1_">
							<path class="st2" d="M7.5,195.9l2.3,3.3l-2.2-0.5L7,200.3l-2.3-2.9L3,200.3l-0.8-1.7L0,199.1l2.1-3.4c0,0,0.6,0.9,2.7,0.9
								S7.5,195.9,7.5,195.9z"/>
						</g>
					</g>
					<g id="group1390-106_1_" transform="translate(1.9839,-4.95422)">
						<g id="shape1391-107_1_">
							<path class="st2" d="M3.7,200.3c-2,0-3.7-1.5-3.7-3.4s1.7-3.4,3.7-3.4c2.1,0,3.7,1.5,3.7,3.4S5.8,200.3,3.7,200.3z
								 M3.7,194.2c-1.6,0-2.9,1.2-2.9,2.6s1.3,2.6,2.9,2.6s2.9-1.2,2.9-2.6S5.3,194.2,3.7,194.2z"/>
						</g>
					</g>
					<g id="group1392-109_1_" transform="translate(0,-3.14179)">
						<g id="shape1393-110_1_">
							<path class="st2" d="M5.7,200.3c-3.1,0-5.7-2.3-5.7-5.2s2.6-5.2,5.7-5.2s5.7,2.3,5.7,5.2S8.8,200.3,5.7,200.3z M5.7,190.6
								c-2.7,0-4.9,2-4.9,4.5s2.2,4.5,4.9,4.5s4.9-2,4.9-4.5S8.4,190.6,5.7,190.6z"/>
						</g>
					</g>
				</g>
				<g id="shape1385-112_1_">
					<g class="st5">
						<path d="M-0.1,208.7c0.4,0.3,1.3,1.4,1.5,1.7L1,210.9c-0.2-0.3-0.7-1-1.1-1.5v4.7h-0.6v-5c-0.4,1.2-1,2.4-1.5,3.1
							c-0.1-0.2-0.3-0.5-0.4-0.6c0.7-0.9,1.5-2.5,1.8-3.9h-1.6v-0.6h1.7v-2.2l0.8,0.1c0,0.1-0.1,0.1-0.2,0.1v2h1.5v0.6h-1.5V208.7z
							 M5.5,212.8c0,0.6,0,0.7,0.3,0.7H6c0.3,0,0.3-0.2,0.3-0.5c0-0.2,0-0.8,0-1.5c0.1,0.1,0.4,0.2,0.5,0.3c0,2-0.2,2.3-0.9,2.3H5.6
							c-0.2,0-0.4,0-0.6-0.2c-0.2-0.1-0.2-0.3-0.2-1.2v-6.6h-2v2.6c0,1.7-0.2,4-1.7,5.5c-0.1-0.1-0.4-0.3-0.5-0.4
							c1.4-1.4,1.5-3.4,1.5-5v-3.2h3.3V212.8z"/>
						<path d="M13.4,209.9c0.5,0,0.5-0.1,0.6-1.1c0.1,0.1,0.4,0.2,0.6,0.2c-0.1,1.1-0.3,1.4-1.1,1.4h-2c-0.5,0-0.8,0-1-0.2
							c-0.8,0.4-1.7,0.7-2.6,0.9c-0.1-0.1-0.3-0.4-0.4-0.5c0.9-0.2,1.8-0.5,2.7-0.9v-2.2l0.8,0c0,0.1,0,0.1-0.2,0.1v1.7
							c1.3-0.7,2.4-1.5,3.2-2.5l0.7,0.3c0,0-0.1,0.1-0.2,0.1c0,0,0,0-0.1,0c-0.8,1-2,1.9-3.3,2.6c0.1,0,0.1,0,0.3,0H13.4z
							 M7.5,209.7c0.7-0.4,1.2-1.1,1.4-1.8l0.6,0.2c-0.2,0.8-0.6,1.6-1.4,2L7.5,209.7z M8.7,206.5v1.4H8v-2h3.7v-1l0.9,0.1
							c0,0.1-0.1,0.1-0.2,0.1v0.8h3.8v2h-0.7v-1.4H8.7z M14.9,213.1v-1.8l0.9,0.1c0,0.1-0.1,0.1-0.2,0.1v2.7h-0.7v-0.4H9.4v0.4H8.8
							v-2.9l0.9,0.1c0,0.1-0.1,0.1-0.2,0.1v1.6h2.3v-2.4l0.9,0.1c0,0.1-0.1,0.1-0.2,0.1v2.2H14.9z M11,206.6
							c0.6,0.3,1.4,0.8,1.8,1.1l-0.4,0.4c-0.4-0.4-1.1-0.8-1.7-1.1L11,206.6z M16.3,210.3c-0.3-0.6-1.1-1.4-1.9-2l0.5-0.4
							c0.7,0.6,1.5,1.4,1.9,2L16.3,210.3z"/>
					</g>
				</g>
			</g>
			<g id="group1416-114" transform="translate(8.01629,-29.9249)">
				<g id="shape1417-115_1_" transform="translate(-9.29257E-14,-5.02924)">
					<path class="st2" d="M8.3,199.4H1.6c-0.3,0-0.6-0.3-0.6-0.6v-6.4h1.9v-1.8h12.4c0.3,0,0.6,0.3,0.6,0.6v0.1
						c0.3,0.1,0.7,0.2,1,0.3v-0.4c0-0.8-0.7-1.5-1.6-1.5h-13L0,191.9v6.9c0,0.8,0.7,1.5,1.6,1.5h7.3C8.6,200,8.4,199.7,8.3,199.4z"
						/>
				</g>
				<g id="group1418-117_1_" transform="translate(8.44762,0)">
					<g id="group1419-118_1_" transform="translate(0.737786,0)">
						<g id="shape1420-119_1_">
							<path class="st2" d="M7.5,195.9l2.3,3.3l-2.2-0.5L7,200.3l-2.3-2.9L3,200.3l-0.8-1.7L0,199.1l2.1-3.4c0,0,0.6,0.9,2.7,0.9
								S7.5,195.9,7.5,195.9z"/>
						</g>
					</g>
					<g id="group1421-121_1_" transform="translate(1.9839,-4.95422)">
						<g id="shape1422-122_1_">
							<path class="st2" d="M3.7,200.3c-2,0-3.7-1.5-3.7-3.4s1.7-3.4,3.7-3.4c2.1,0,3.7,1.5,3.7,3.4S5.8,200.3,3.7,200.3z
								 M3.7,194.2c-1.6,0-2.9,1.2-2.9,2.6s1.3,2.6,2.9,2.6s2.9-1.2,2.9-2.6S5.3,194.2,3.7,194.2z"/>
						</g>
					</g>
					<g id="group1423-124_1_" transform="translate(0,-3.14179)">
						<g id="shape1424-125_1_">
							<path class="st2" d="M5.7,200.3c-3.1,0-5.7-2.3-5.7-5.2s2.6-5.2,5.7-5.2s5.7,2.3,5.7,5.2S8.8,200.3,5.7,200.3z M5.7,190.6
								c-2.7,0-4.9,2-4.9,4.5s2.2,4.5,4.9,4.5s4.9-2,4.9-4.5S8.4,190.6,5.7,190.6z"/>
						</g>
					</g>
				</g>
				<g id="shape1416-127_1_">
					<g class="st5">
						<path d="M-0.1,208.7c0.4,0.3,1.3,1.4,1.5,1.7L1,210.9c-0.2-0.3-0.7-1-1.1-1.5v4.7h-0.6v-5c-0.4,1.2-1,2.4-1.5,3.1
							c-0.1-0.2-0.3-0.5-0.4-0.6c0.7-0.9,1.5-2.5,1.8-3.9h-1.6v-0.6h1.7v-2.2l0.8,0.1c0,0.1-0.1,0.1-0.2,0.1v2h1.5v0.6h-1.5V208.7z
							 M5.5,212.8c0,0.6,0,0.7,0.3,0.7H6c0.3,0,0.3-0.2,0.3-0.5c0-0.2,0-0.8,0-1.5c0.1,0.1,0.4,0.2,0.5,0.3c0,2-0.2,2.3-0.9,2.3H5.6
							c-0.2,0-0.4,0-0.6-0.2c-0.2-0.1-0.2-0.3-0.2-1.2v-6.6h-2v2.6c0,1.7-0.2,4-1.7,5.5c-0.1-0.1-0.4-0.3-0.5-0.4
							c1.4-1.4,1.5-3.4,1.5-5v-3.2h3.3V212.8z"/>
						<path d="M13.4,209.9c0.5,0,0.5-0.1,0.6-1.1c0.1,0.1,0.4,0.2,0.6,0.2c-0.1,1.1-0.3,1.4-1.1,1.4h-2c-0.5,0-0.8,0-1-0.2
							c-0.8,0.4-1.7,0.7-2.6,0.9c-0.1-0.1-0.3-0.4-0.4-0.5c0.9-0.2,1.8-0.5,2.7-0.9v-2.2l0.8,0c0,0.1,0,0.1-0.2,0.1v1.7
							c1.3-0.7,2.4-1.5,3.2-2.5l0.7,0.3c0,0-0.1,0.1-0.2,0.1c0,0,0,0-0.1,0c-0.8,1-2,1.9-3.3,2.6c0.1,0,0.1,0,0.3,0H13.4z
							 M7.5,209.7c0.7-0.4,1.2-1.1,1.4-1.8l0.6,0.2c-0.2,0.8-0.6,1.6-1.4,2L7.5,209.7z M8.7,206.5v1.4H8v-2h3.7v-1l0.9,0.1
							c0,0.1-0.1,0.1-0.2,0.1v0.8h3.8v2h-0.7v-1.4H8.7z M14.9,213.1v-1.8l0.9,0.1c0,0.1-0.1,0.1-0.2,0.1v2.7h-0.7v-0.4H9.4v0.4H8.8
							v-2.9l0.9,0.1c0,0.1-0.1,0.1-0.2,0.1v1.6h2.3v-2.4l0.9,0.1c0,0.1-0.1,0.1-0.2,0.1v2.2H14.9z M11,206.6
							c0.6,0.3,1.4,0.8,1.8,1.1l-0.4,0.4c-0.4-0.4-1.1-0.8-1.7-1.1L11,206.6z M16.3,210.3c-0.3-0.6-1.1-1.4-1.9-2l0.5-0.4
							c0.7,0.6,1.5,1.4,1.9,2L16.3,210.3z"/>
					</g>
				</g>
			</g>
			<g id="shape1507-129" transform="translate(84.521,-32.7595)">
			</g>
			<g id="shape1658-134" transform="translate(151.019,-117.302)">
				<rect x="0" y="180.3" class="st4" width="80.5" height="20"/>
				<g class="st5">
					<path class="st6" d="M11.7,181.4l0.5,0.3c0,0-0.1,0.1-0.1,0.1c-0.5,0.7-1.2,1.3-2,1.9c1.2,0.6,2.5,0.9,4,1.1
						c-0.1,0.1-0.3,0.4-0.4,0.6c-0.5-0.1-1-0.2-1.4-0.3v3h-0.7v-0.3H7.3v0.4H6.7v-2.9c-0.5,0.2-1.1,0.3-1.6,0.4
						c-0.1-0.2-0.2-0.4-0.3-0.6c1.4-0.3,2.8-0.7,4.1-1.4c-0.6-0.4-1.1-0.8-1.5-1.3c-0.5,0.4-1,0.7-1.6,1c-0.1-0.2-0.3-0.4-0.5-0.5
						c1.4-0.6,2.4-1.5,2.9-2.3l0.8,0.1c0,0.1-0.1,0.1-0.2,0.1c-0.1,0.2-0.2,0.3-0.4,0.5h3.2L11.7,181.4z M5.9,180.5v1.2H5.3v-1.8
						h3.8v-1l0.9,0.1c0,0.1-0.1,0.1-0.2,0.1v0.8h3.9v1.8h-0.7v-1.2H5.9z M12,185c-0.9-0.3-1.7-0.6-2.5-1c-0.7,0.4-1.4,0.7-2.2,1H12z
						 M7.3,187.2h4.2v-1.6H7.3V187.2z M7.9,182L7.9,182c0.4,0.5,0.9,1,1.6,1.3c0.7-0.4,1.2-0.8,1.6-1.3H7.9z"/>
					<path class="st6" d="M15.4,178.5h8v10h-8V178.5z M15.9,187.6l3.2-4.1l-3.2-4.1V187.6z M22.6,179h-6.4l3.2,4.1L22.6,179z
						 M22.6,188l-3.2-4.1l-3.2,4.1H22.6z M22.9,187.6v-8.2l-3.2,4.1L22.9,187.6z"/>
					<path class="st6" d="M28,182.1c0,0.1-0.1,0.1-0.2,0.1c-0.1,1-0.4,2.5-0.6,3.4l1.1-0.2c0,0.3,0,0.4,0.1,0.6
						c-1.2,0.3-2.4,0.6-3.2,0.8c0,0.1-0.1,0.1-0.1,0.1l-0.2-0.8c0.6-0.1,1.3-0.2,2.1-0.4l-0.2-0.1c0.2-1,0.5-2.6,0.6-3.7L28,182.1z
						 M28.1,180.9v0.6h-3.2v-0.6h1.3V179l0.8,0c0,0.1-0.1,0.1-0.2,0.1v1.7H28.1z M25.7,182c0.2,1.1,0.4,2.4,0.4,3.3l-0.6,0.1
						c0-0.9-0.2-2.3-0.4-3.3L25.7,182z M34.1,183.2h-2.7c-0.1,0.3-0.2,0.7-0.3,1h2.6v3.3c0,0.6-0.3,0.6-1.2,0.6
						c0-0.2-0.1-0.4-0.2-0.5c0.7,0,0.7,0,0.7-0.1v-2.7h-1v3.2h-0.5v-3.2h-1v3.2h-0.5v-3.2h-0.9v3.3h-0.6v-3.9h1.9
						c0.1-0.3,0.2-0.7,0.2-1h-2.5v-0.6h5.9V183.2z M33.8,179.4c0,0.1-0.1,0.1-0.2,0.1v2.2h-4.8v-2.4l0.8,0c0,0.1-0.1,0.1-0.2,0.1
						v1.6h1.4v-2.3l0.8,0c0,0.1-0.1,0.1-0.2,0.1v2.1h1.5v-1.8L33.8,179.4z"/>
					<path class="st6" d="M36.2,183.9v-2.4c-0.3,0.4-0.6,0.8-1,1.1c-0.1-0.1-0.3-0.3-0.4-0.4c0.9-0.8,1.8-2,2.3-3.3l0.7,0.3
						c0,0.1-0.1,0.1-0.2,0.1c-0.3,0.5-0.6,1-0.9,1.5l0.3,0.1c0,0.1-0.1,0.1-0.2,0.1v3H36.2z M41.7,187.1c0,0.3,0.1,0.3,0.4,0.3h1
						c0.3,0,0.3-0.2,0.4-1.3c0.2,0.1,0.4,0.2,0.6,0.3c-0.1,1.3-0.2,1.6-0.9,1.6H42c-0.7,0-0.9-0.2-0.9-0.9v-2h-3.3v0.4
						c0,1-0.5,2.1-2.5,2.7c-0.1-0.1-0.3-0.4-0.4-0.6c1.9-0.6,2.2-1.4,2.2-2.2v-1h4.7V187.1z M41.1,181.1h3v0.6h-3v1.3h2.7v0.6h-6.1
						V183h2.7v-1.3h-3v-0.6h3v-1.2c-0.8,0.1-1.6,0.2-2.4,0.3c0-0.1-0.1-0.4-0.2-0.5c1.7-0.2,3.7-0.5,4.8-0.9l0.6,0.5
						c0,0-0.1,0-0.1,0c0,0-0.1,0-0.1,0c-0.5,0.1-1.2,0.3-2,0.4V181.1z"/>
					<path class="st6" d="M46.9,183.6c0.4-0.1,0.8-0.2,1.2-0.3l0.1,0.6l-1.3,0.4v3c0,0.8-0.4,0.8-1.7,0.8c0-0.2-0.1-0.5-0.2-0.6
						c0.2,0,0.4,0,0.6,0c0.7,0,0.7,0,0.7-0.2v-2.8l-1.1,0.3c0,0.1-0.1,0.1-0.1,0.2l-0.2-0.8c0.4-0.1,0.9-0.2,1.5-0.4v-2.2h-1.4V181
						h1.4v-2.1l0.8,0c0,0.1-0.1,0.1-0.2,0.1v1.9h1.2v0.6h-1.2V183.6z M54.1,183.7h-2.3v1.3h1.9v3.2h-0.6v-0.4h-3.2v0.4h-0.6v-3.2
						h1.8v-1.3h-2c-0.1,1.5-0.4,3.2-1.2,4.5c-0.1-0.1-0.4-0.3-0.5-0.4c1.1-1.6,1.2-3.8,1.2-5.4v-3h5.3v2.5h-4.6v0.6
						c0,0.2,0,0.5,0,0.7h2v-1.2l0.8,0.1c0,0.1-0.1,0.1-0.2,0.1v1h2.3V183.7z M53.2,179.9h-4v1.3h4V179.9z M53.1,187.2v-1.6h-3.2v1.6
						H53.1z"/>
				</g>
				<g class="st5">
					<path class="st6" d="M32,193.7c0.7,0.3,1.5,0.7,1.9,1l-0.4,0.6c-0.4-0.3-1.2-0.8-1.8-1.1L32,193.7z M32,199.6
						c0.5-0.8,1.3-2.1,1.8-3.3l0.5,0.4c-0.5,1.1-1.2,2.3-1.6,3.1c0,0,0.1,0.1,0.1,0.1s0,0.1,0,0.1L32,199.6z M32.6,191
						c0.6,0.3,1.4,0.7,1.8,1.1l-0.4,0.5c-0.4-0.4-1.2-0.9-1.8-1.2L32.6,191z M36,196.7c0,1.1-0.2,2.4-1.5,3.4
						c-0.1-0.2-0.3-0.4-0.5-0.5c1.3-0.9,1.4-2,1.4-3v-1.1l0.8,0c0,0.1-0.1,0.1-0.2,0.1V196.7z M34.6,194.6l1.2,0
						c0.3-0.5,0.7-1.2,0.9-1.7h-2.2v-0.6h2.7v-1.3l0.9,0c0,0.1-0.1,0.1-0.2,0.1v1.1h3.1v0.6h-3.4c0,0.1-0.1,0.1-0.2,0.1
						c-0.2,0.5-0.6,1.1-0.9,1.6c0.9,0,1.9-0.1,2.9-0.1c-0.3-0.3-0.6-0.6-0.9-0.9l0.5-0.3c0.7,0.6,1.5,1.5,1.9,2.1l-0.5,0.3
						c-0.1-0.2-0.3-0.5-0.5-0.7c-1.8,0.1-3.7,0.2-4.9,0.3c0,0.1-0.1,0.1-0.1,0.1L34.6,194.6z M37.2,199.7v-4l0.8,0.1
						c0,0.1-0.1,0.1-0.2,0.1v3.8H37.2z M39.6,199c0,0.4,0,0.4,0.2,0.4h0.3c0.3,0,0.3-0.1,0.3-0.3c0-0.2,0-0.5,0-1
						c0.1,0.1,0.3,0.2,0.5,0.3c0,1.2,0,1.6-0.8,1.6h-0.5c-0.7,0-0.7-0.5-0.7-1v-3.3l0.8,0c0,0.1-0.1,0.1-0.2,0.1V199z"/>
				</g>
			</g>
		</g>
	</g>
</g>
</svg>
