<svg xmlns="http://www.w3.org/2000/svg" viewBox="0 0 224.94 200.3"><title>OJ104440668</title><path d="M211.09,79h-20.5a1.09,1.09,0,0,0-1.09,1.1V96.88a1.09,1.09,0,0,0,1.09,1.1h5.28a3.29,3.29,0,0,0,3.21,2.27,3.38,3.38,0,0,0,0-6.75,3.29,3.29,0,0,0-3.21,2.27h-4.19v-12H210v12h-3.45a7.61,7.61,0,0,0-7.46-6.56,8.25,8.25,0,0,0-3.64.92l1,2a5.27,5.27,0,0,1,2.55-.67,5.46,5.46,0,0,1,0,10.91,5.27,5.27,0,0,1-2.55-.67l-1,2a7.51,7.51,0,0,0,3.64.92A7.61,7.61,0,0,0,206.54,98h4.55a1.09,1.09,0,0,0,1.09-1.1V80.13A1.14,1.14,0,0,0,211.09,79Z" fill="#008bfd" fill-rule="evenodd"/><path d="M73.65,106H59.44V77.6H73.65v7.67h.76V76.83H58.68v29.91H74.41v-2.32h-.76Z" fill="#0078d7" fill-rule="evenodd"/><path d="M72.88,78.39H60.24V83H72.88ZM63.3,80.31h6.53v.76H63.3Zm6.59,1.84H63.27v-.76h6.62Z" fill="#0078d7" fill-rule="evenodd"/><path d="M60.21,83.74V86.8h8.6V85.27h4.08V83.74Z" fill="#0078d7" fill-rule="evenodd"/><rect x="60.21" y="87.57" width="8.6" height="2.68" fill="#0078d7"/><path d="M60.21,105.21H72.86v-.8H68.78V91h-8.6v14.17Zm1.53-2.74H64v1.21H61.74Z" fill="#0078d7" fill-rule="evenodd"/><path d="M83.43,102.15H81v-1.87H78.46v1.87H76a1.32,1.32,0,0,0-1.31,1.15h10A1.29,1.29,0,0,0,83.43,102.15Z" fill="#0078d7" fill-rule="evenodd"/><path d="M88.27,88.17H71.17a.65.65,0,0,0-.67.61V98.91a.65.65,0,0,0,.67.6h17.1a.64.64,0,0,0,.67-.6V88.78A.63.63,0,0,0,88.27,88.17Zm-1,9.84H72.19V89.7H87.25Z" fill="#0078d7" fill-rule="evenodd"/><path d="M83.63,95.52V92.08l-3.51-1.84L76.62,92v3.54l3.5,1.81Zm-4.4-2.29.89-.45.86.45-.86.48Zm0-1.15.86-.44.86.44-.86.48Zm1.91,4.53-1,.51v-.93l1-.51Zm0-1.18-1,.51V95l1-.51Zm0-1.12-1,.51V93.9l1-.51Zm-.82-1.65.86-.45.89.45-.86.44Zm2,3.34-.95.51v-.92l.95-.51Zm0-1.18-.95.51v-.92l.95-.51Zm0-1.14-.95.51v-.9l.95-.51Zm1.05,1.75-.86.44V95l.86-.45Zm0-1.15-.86.45V93.8l.86-.44Zm0-1.14-.86.44v-.92l.86-.45Zm-.19-1.06-.89.45-.89-.45.86-.44Zm-1.11-.57-.89.45-.86-.45.86-.44Zm-2-1.05.86.45-.86.44-.89-.44ZM79,91.07l.86.44L79,92l-.86-.45Zm-1.08.57.89.44-.89.45-.9-.45Zm-.26,4.27-.86-.45v-.92l.86.44Zm0-1.18-.86-.45v-.92l.86.44Zm0-1.15-.86-.44v-.9l.86.45Zm1.18,2.93-1-.51v-.92l1,.51Zm0-1.18-1-.51V93.9l1,.51Zm0-1.14-1-.51v-.9l1,.51Zm-.7-1.53.89-.45.86.45-.89.48ZM80,97.12l-1-.51v-.89l1,.5ZM80,96l-1-.51v-.92l1,.51Zm0-1.15-1-.51v-.92l1,.51Z" fill="#0078d7" fill-rule="evenodd"/><path d="M84.06,154.79H63.56a1.09,1.09,0,0,0-1.09,1.1v16.75a1.09,1.09,0,0,0,1.09,1.1h5.28A3.29,3.29,0,0,0,72.05,176a3.38,3.38,0,0,0,0-6.75,3.29,3.29,0,0,0-3.21,2.27H64.65v-12H83v12H79.51A7.61,7.61,0,0,0,72.05,165a8.25,8.25,0,0,0-3.64.92l1,2a5.27,5.27,0,0,1,2.55-.67,5.46,5.46,0,0,1,0,10.91,5.27,5.27,0,0,1-2.55-.67l-1,2a7.51,7.51,0,0,0,3.64.92,7.61,7.61,0,0,0,7.46-6.56h4.55a1.09,1.09,0,0,0,1.09-1.1V155.89A1.14,1.14,0,0,0,84.06,154.79Z" fill="#008bfd" fill-rule="evenodd"/><g style="isolation:isolate"><path d="M35.15,189.06h6v-1.7H42v1.7h2.47v.71H42v3.36a1.17,1.17,0,0,1-1.27,1.31h-1.6c0-.27-.09-.53-.15-.79.64,0,1.1.06,1.39.06.55,0,.83-.26.83-.8v-3.14h-6Zm.36-3h4c-.14-.29-.3-.58-.47-.87l.73-.33c.22.38.42.78.62,1.2h3.65v2h-.78v-1.24h-7v1.24h-.78Zm.91,4.68.57-.53c.76.66,1.42,1.29,2,1.9l-.62.6A21,21,0,0,0,36.42,190.78Z" fill="#008bfd"/><path d="M44.6,190.18l1.45-.4v-2.25H44.74v-.67h1.31V185h.75v1.84H48v.67H46.8v2L48,189.2c0,.33,0,.58,0,.77l-1.25.37v3a.93.93,0,0,1-1,1.06q-.33,0-.9,0c0-.28-.08-.54-.13-.81a8.54,8.54,0,0,0,.89,0c.28,0,.42-.15.42-.46v-2.63L44.7,191Zm5.67-4.82.65-.41c.27.31.56.69.88,1.13l-.63.42h2.65v4.34h-.75v-.47H49.31a7.54,7.54,0,0,1-1.4,4.25,6.44,6.44,0,0,0-.63-.56,7,7,0,0,0,1.29-4.53v-3h2.49C50.78,186.07,50.52,185.69,50.27,185.36Zm-.94,1.84v2.47h3.74V187.2Z" fill="#008bfd"/><path d="M54.23,191.89a10.87,10.87,0,0,0,1.49-3.34H54.35v-.65h1.52v-1.53c-.41.06-.83.12-1.26.16a6.3,6.3,0,0,0-.2-.67,23.3,23.3,0,0,0,3.35-.53L58,186l-1.39.25v1.63h1.35v.65H56.58v1.28l.38-.33c.26.27.64.7,1.14,1.28l-.59.48c-.37-.48-.69-.87-.93-1.17v4.52h-.71v-4.68a9.78,9.78,0,0,1-1.31,2.81C54.46,192.46,54.35,192.17,54.23,191.89Zm3.45,1.54h2.79V192H58.26v-.65h2.21V190H58v-.65h5.69V190H61.25v1.33h2.22V192H61.25v1.45h2.8v.65H57.68Zm.78-8H63.3v3.35h-.74v-.4H59.2v.4h-.74Zm4.1.66H59.2v1.63h3.36Z" fill="#008bfd"/><path d="M68.52,185.25l.71-.38c.25.33.48.67.7,1l-.47.27h4.16v.72H65.84v2.65a8.15,8.15,0,0,1-1.34,5.14,5.46,5.46,0,0,0-.56-.66c.72-.84,1.08-2.26,1.08-4.28v-3.57h4.11C68.93,185.83,68.73,185.53,68.52,185.25Zm-2.41,5h3.43c-.6-.45-1.18-.84-1.73-1.19l.47-.49c.49.29,1,.58,1.39.87l1.77-1H66.69v-.7h6.17v.71l-2.53,1.48a2.49,2.49,0,0,1,.24.17l-.26.19h3.21V191l-.85,1.75a8,8,0,0,0-.72-.36l.69-1.4H70.3v2.32c0,.79-.37,1.18-1.12,1.18-.4,0-.89,0-1.47,0q0-.33-.12-.84a8.9,8.9,0,0,0,1.35.11.49.49,0,0,0,.56-.55v-2.2H66.11Z" fill="#008bfd"/><path d="M86.27,185.73l-2.12,7.57H83l-1.53-5.45a3.34,3.34,0,0,1-.12-.78h0a3.27,3.27,0,0,1-.14.77l-1.53,5.46H78.55l-2.2-7.57h1.08L79,191.45a3.34,3.34,0,0,1,.12.77h0a3.91,3.91,0,0,1,.16-.77l1.64-5.72h1l1.56,5.76a6.4,6.4,0,0,1,.13.72h0a3.38,3.38,0,0,1,.14-.74l1.48-5.74Z" fill="#008bfd"/><path d="M91.09,190.84H87.31a2,2,0,0,0,.48,1.34,1.67,1.67,0,0,0,1.25.47,2.73,2.73,0,0,0,1.67-.58v.85a3.2,3.2,0,0,1-1.89.5,2.3,2.3,0,0,1-1.83-.74,3,3,0,0,1-.66-2.06,2.92,2.92,0,0,1,.72-2,2.3,2.3,0,0,1,1.79-.81,2.1,2.1,0,0,1,1.66.68,2.78,2.78,0,0,1,.59,1.91Zm-1-.77a1.75,1.75,0,0,0-.35-1.13,1.19,1.19,0,0,0-1-.4,1.33,1.33,0,0,0-1,.43,2,2,0,0,0-.53,1.1Z" fill="#008bfd"/><path d="M93,192.54v.76h-1v-8h1v3.53h0a2,2,0,0,1,1.85-1.06,2,2,0,0,1,1.61.71,3,3,0,0,1,.6,2,3.3,3.3,0,0,1-.67,2.18,2.23,2.23,0,0,1-1.79.8,1.76,1.76,0,0,1-1.6-.88Zm0-1.46a1.52,1.52,0,0,0,.43,1.1,1.49,1.49,0,0,0,2.25-.13,2.66,2.66,0,0,0,.43-1.62,2.1,2.1,0,0,0-.4-1.36,1.32,1.32,0,0,0-1.09-.51,1.51,1.51,0,0,0-1.16.5,1.83,1.83,0,0,0-.46,1.28Z" fill="#008bfd"/><path d="M106.88,193.3H105.8l-.77-2.07h-3.15l-.73,2.07h-1.08l2.88-7.57h1Zm-2.15-2.93-1.15-3.14a4.52,4.52,0,0,1-.11-.53h0a3,3,0,0,1-.12.53l-1.13,3.14Z" fill="#008bfd"/><path d="M108.65,190.47v2.83h-1v-7.57h2.15a2.81,2.81,0,0,1,1.9.59,2.14,2.14,0,0,1,.68,1.69,2.27,2.27,0,0,1-.79,1.81,2.75,2.75,0,0,1-2,.65Zm0-3.88v3h.9a2,2,0,0,0,1.36-.4,1.46,1.46,0,0,0,.46-1.16c0-1-.57-1.46-1.72-1.46Z" fill="#008bfd"/><path d="M114.47,185.73v7.57h-1v-7.57Z" fill="#008bfd"/></g><path d="M17.37,169.49H10.65a.59.59,0,0,1-.61-.57v-6.44H12v-1.77H24.4a.59.59,0,0,1,.62.57v.09a6.4,6.4,0,0,1,1,.33v-.42a1.53,1.53,0,0,0-1.58-1.46h-13L9.08,162v6.9a1.51,1.51,0,0,0,1.57,1.46h7.28A5.8,5.8,0,0,1,17.37,169.49Z" fill="gray" fill-rule="evenodd"/><path d="M26,171l2.34,3.26-2.17-.54-.61,1.64-2.34-2.88-1.75,2.88-.8-1.74-2.17.54,2.14-3.42s.58.92,2.69.92S26,171,26,171Z" fill="gray" fill-rule="evenodd"/><path d="M23.43,170.42a3.43,3.43,0,1,1,0-6.83,3.43,3.43,0,1,1,0,6.83Zm0-6.06a2.66,2.66,0,1,0,2.9,2.65A2.78,2.78,0,0,0,23.43,164.36Z" fill="gray" fill-rule="evenodd"/><path d="M23.43,172.23a5.24,5.24,0,1,1,0-10.45,5.24,5.24,0,1,1,0,10.45Zm0-9.69a4.48,4.48,0,1,0,0,8.93,4.48,4.48,0,1,0,0-8.93Z" fill="gray" fill-rule="evenodd"/><rect x="112.42" y="61.11" width="114.21" height="20" fill="none"/><g style="isolation:isolate"><path d="M124.53,67.64l.71.31-.45.53h4.5v.62a6.87,6.87,0,0,1-2.15,1.62,13.63,13.63,0,0,0,4,.52,7,7,0,0,0-.49.79,14.4,14.4,0,0,1-4.34-.92,18.7,18.7,0,0,1-4.64,1.11,3.87,3.87,0,0,0-.41-.7,20,20,0,0,0,4.19-.82,5,5,0,0,1-1.51-1.28,13.53,13.53,0,0,1-1.52,1.26c-.15-.17-.32-.35-.51-.53A10.25,10.25,0,0,0,124.53,67.64ZM121.85,67h4.21a8.27,8.27,0,0,0-.64-.86l.67-.42c.26.3.53.63.81,1l-.45.28h4.13v1.83h-.72V67.6h-7.29v1.18h-.72ZM123,72.28h6.37v3.11h-.72V75h-4.93v.41H123Zm5.65.63h-4.93v1.44h4.93Zm-.41-3.8h-3.74a5,5,0,0,0,1.73,1.27A6.54,6.54,0,0,0,128.26,69.11Z" fill="#00b0f0"/><path d="M135.44,66.12l.71-.42c.31.37.62.77.92,1.21l-.47.3h3.64v4.33h-.78V71h-6.17a7.67,7.67,0,0,1-1.45,4.49c-.18-.21-.37-.43-.57-.64a7.06,7.06,0,0,0,1.25-4.57v-3.1h3.73A12.77,12.77,0,0,0,135.44,66.12Zm-2.14,1.8v2.41h6.16V67.92Z" fill="#00b0f0"/><path d="M144.45,69.15c-.13,1-.36,2.31-.7,4,.34-.07.65-.14.93-.22,0,.26,0,.49,0,.7-.73.18-1.81.41-3.22.7l-.15-.73c.66-.11,1.25-.21,1.79-.32.32-2,.53-3.39.64-4.31Zm-3-1.4h3.35v.63h-3.35Zm.13,1.53.66-.14c.22.93.43,2.07.65,3.42l-.68.18A34,34,0,0,0,141.56,69.28Zm.67-3.12.6-.35a9.56,9.56,0,0,1,1,1.46l-.64.39A14.06,14.06,0,0,0,142.23,66.16Zm2.49,3.34H151v.63h-2.93l-.27,1.07h2.74v3.24c0,.56-.25.84-.74.84h-.71a4.14,4.14,0,0,0-.2-.72c.22,0,.45,0,.67,0s.3-.1.3-.31V71.8h-1v3.07h-.65V71.8h-1v3h-.65v-3h-1v3.57H145V71.2h2.17l.23-1.07h-2.64Zm4.91-.64v-.3h-4.41v-2.2h.68V68h1.52V65.75h.7V68h1.51v-1.6h.69v2.5Z" fill="#00b0f0"/><path d="M153.79,65.89l.65.38c-.31.46-.62.89-.91,1.28V71.3h-.73V68.48c-.35.41-.68.77-1,1.08a4.75,4.75,0,0,0-.5-.53A18.49,18.49,0,0,0,153.79,65.89Zm4.34,5.92v2c0,.39.17.58.52.58h.65a.66.66,0,0,0,.74-.51,12.81,12.81,0,0,0,.2-1.37c.21.1.46.2.75.31-.07.51-.15,1-.23,1.35a1.08,1.08,0,0,1-1.2.92h-1.14c-.71,0-1.06-.37-1.06-1.1V72.47h-2.71v.18a2.45,2.45,0,0,1-.6,1.81,5.15,5.15,0,0,1-2.18,1,8.34,8.34,0,0,0-.5-.68,5.37,5.37,0,0,0,2-.8,1.7,1.7,0,0,0,.5-1.4v-.78Zm-3.66-1.53H157V69.05h-2.89v-.67H157V67.16c-.74,0-1.49.08-2.28.1,0-.22-.08-.45-.14-.69a52.3,52.3,0,0,0,5.35-.36l.13.7c-.74.08-1.51.14-2.32.2v1.27h3.21v.67H157.7v1.23h2.67V71h-5.9Z" fill="#00b0f0"/><path d="M161.34,71l1.35-.38V68.42h-1.23v-.7h1.23V65.86h.72v1.86h1.07v.7h-1.07v2l.91-.3a7.12,7.12,0,0,0,.06.76l-1,.32v3c0,.73-.32,1.11-1,1.12-.21,0-.51,0-.9,0q0-.39-.12-.81a8,8,0,0,0,.82.06c.29,0,.44-.17.44-.5V71.45l-1.25.43Zm4.38,1h2V70.79h-2.28a7.89,7.89,0,0,1-1.38,4.64c-.16-.21-.34-.41-.53-.62a7.27,7.27,0,0,0,1.22-4.62V66.38h5.76v2.83h-.7v-.3h-4.36v1.21h2.27v-1h.7v1H171v.67h-2.58V72h2v3.3h-.7v-.57h-3.34v.57h-.7Zm4.1-5h-4.36v1.24h4.36Zm-.06,5.64h-3.34v1.46h3.34Z" fill="#00b0f0"/><path d="M171.31,69l.49-.57c.53.37,1.08.79,1.66,1.26-.23.28-.42.49-.57.64C172.22,69.76,171.69,69.32,171.31,69Zm.31,6a32.16,32.16,0,0,0,1-3.78c.29.12.55.22.79.3-.29,1.12-.61,2.37-.95,3.75Zm.07-8.58.5-.52q.72.57,1.59,1.35l-.57.58A20.5,20.5,0,0,0,171.69,66.49Zm3.1,4.37h.74a7.73,7.73,0,0,1-.4,3,3.41,3.41,0,0,1-1.62,1.61,4,4,0,0,0-.5-.64,2.84,2.84,0,0,0,1.42-1.35A6.56,6.56,0,0,0,174.79,70.86ZM179,68.27c.51.58,1.07,1.3,1.69,2.14-.24.15-.48.3-.71.46l-.47-.69-4.41.22a3.71,3.71,0,0,0-.78.11l-.33-.73a3.34,3.34,0,0,0,.68-.45,11.06,11.06,0,0,0,1.51-1.59H174v-.69h3.1c-.25-.39-.49-.72-.71-1l.64-.4c.24.31.52.66.82,1.07l-.5.34h3.32v.69h-4.32L177,68a19.33,19.33,0,0,1-1.7,1.64l3.73-.12c-.23-.31-.44-.59-.65-.85Zm-2.31,2.59h.74v4.35h-.74Zm1.79,0h.73v3.27c0,.3.12.45.35.45h.35c.2,0,.32-.17.38-.5s.07-.76.08-1.23a7.12,7.12,0,0,0,.74.28q-.07.82-.15,1.26a.87.87,0,0,1-.93.87h-.6c-.63,0-.95-.38-.95-1.14Z" fill="#00b0f0"/></g><path d="M53.55,38.67h6V37h.8v1.7h2.47v.7H60.36v3.36a1.18,1.18,0,0,1-1.27,1.32h-1.6c0-.28-.09-.54-.15-.8.64,0,1.1.06,1.39.06.55,0,.83-.26.83-.8V39.37h-6Zm.35-3h4c-.15-.29-.3-.59-.47-.88l.73-.33c.21.38.42.78.61,1.21h3.66v1.94h-.78V36.41h-7v1.24H53.9Zm.92,4.67.57-.52c.75.65,1.42,1.28,2,1.89l-.63.61A19.62,19.62,0,0,0,54.82,40.38Z" fill="#008bfd"/><path d="M63.47,39.78c.45-.12.94-.25,1.44-.4V37.13H63.6v-.67h1.31V34.62h.75v1.84H66.9v.67H65.66v2l1.23-.37c0,.33,0,.58,0,.77l-1.25.37v3a.93.93,0,0,1-1,1.07h-.9c0-.28-.09-.55-.14-.81.39,0,.68,0,.89,0s.42-.15.42-.45V40.17l-1.35.44ZM69.14,35l.64-.41c.27.32.56.69.88,1.14L70,36.1h2.65v4.34h-.75V40H68.17a7.53,7.53,0,0,1-1.39,4.25,6.58,6.58,0,0,0-.64-.55,7,7,0,0,0,1.29-4.54v-3h2.5C69.65,35.67,69.38,35.29,69.14,35Zm-1,1.84v2.47h3.74V36.8Z" fill="#008bfd"/><path d="M73.57,41.49a10.86,10.86,0,0,0,1.48-3.34H73.68V37.5h1.53V36L74,36.14a4.42,4.42,0,0,0-.21-.68,23.08,23.08,0,0,0,3.35-.53l.22.69-1.4.25V37.5h1.36v.65H75.91v1.29l.38-.34c.26.27.64.7,1.14,1.28l-.58.48c-.38-.48-.69-.87-.94-1.16v4.51h-.7V39.53a10,10,0,0,1-1.31,2.81ZM77,43h2.8V41.58H77.59v-.65h2.22V39.6H77.36V39h5.69v.65H80.59v1.33h2.22v.65H80.59V43h2.79v.65H77Zm.79-8h4.84v3.35H81.9V38H78.54v.4H77.8Zm4.1.67H78.54v1.62H81.9Z" fill="#008bfd"/><path d="M88.33,34.86l.7-.38a11.24,11.24,0,0,1,.7,1l-.46.27h4.15v.72H85.64v2.65c0,2.32-.44,4-1.34,5.14a6.2,6.2,0,0,0-.55-.66c.71-.84,1.07-2.26,1.07-4.28V35.75h4.11C88.73,35.43,88.53,35.13,88.33,34.86Zm-2.41,5h3.43c-.61-.45-1.19-.84-1.74-1.18l.47-.5c.49.29,1,.59,1.4.88L91.25,38H86.49v-.7h6.17V38l-2.52,1.49.24.16-.26.19h3.21v.72l-.85,1.75c-.2-.11-.44-.22-.73-.35l.7-1.41H90.1v2.32c0,.79-.37,1.19-1.12,1.19l-1.46,0c0-.22-.07-.51-.12-.84a10,10,0,0,0,1.35.1.48.48,0,0,0,.55-.55v-2.2H85.92Z" fill="#008bfd"/><path d="M60.44,47.33,58.32,54.9H57.18l-1.52-5.45a3.34,3.34,0,0,1-.12-.78h0a3.75,3.75,0,0,1-.14.77L53.84,54.9H52.72l-2.2-7.57H51.6l1.55,5.72a5.13,5.13,0,0,1,.12.77h0a3.91,3.91,0,0,1,.16-.77l1.63-5.72h1l1.56,5.76a6.4,6.4,0,0,1,.13.72h0a4.4,4.4,0,0,1,.15-.74l1.48-5.74Z" fill="#008bfd"/><path d="M66,52.44H62.21a2,2,0,0,0,.48,1.34,1.65,1.65,0,0,0,1.25.47,2.67,2.67,0,0,0,1.67-.58v.85a3.2,3.2,0,0,1-1.89.51,2.3,2.3,0,0,1-1.83-.75,3,3,0,0,1-.66-2.06,2.94,2.94,0,0,1,.72-2,2.3,2.3,0,0,1,1.79-.81,2.1,2.1,0,0,1,1.66.68A2.85,2.85,0,0,1,66,52Zm-1-.76a1.71,1.71,0,0,0-.34-1.14,1.22,1.22,0,0,0-1-.4,1.3,1.3,0,0,0-1,.43,1.94,1.94,0,0,0-.53,1.11Z" fill="#008bfd"/><path d="M68.39,54.14v.76h-1v-8h1v3.52h0a2,2,0,0,1,1.86-1.06,2,2,0,0,1,1.61.72,2.93,2.93,0,0,1,.6,1.95,3.3,3.3,0,0,1-.67,2.18A2.22,2.22,0,0,1,70,55a1.8,1.8,0,0,1-1.61-.89Zm0-1.46a1.56,1.56,0,0,0,.42,1.1,1.42,1.42,0,0,0,1.07.45,1.4,1.4,0,0,0,1.19-.58A2.73,2.73,0,0,0,71.5,52a2.16,2.16,0,0,0-.4-1.36,1.32,1.32,0,0,0-1.1-.51,1.51,1.51,0,0,0-1.16.51,1.83,1.83,0,0,0-.45,1.27Z" fill="#008bfd"/><path d="M80.91,46.88l.71-.38a10.28,10.28,0,0,1,.8,1.16l-.47.27h4v.74H78.3v2.4a7.92,7.92,0,0,1-1.43,5.16,6.21,6.21,0,0,0-.56-.67c.78-.87,1.17-2.37,1.17-4.48V47.93h4.13A12,12,0,0,0,80.91,46.88Zm-2.67,8h4.52a48.33,48.33,0,0,0,1.61-5.33l.85.24Q84.31,53,83.6,54.91H86v.75H78.24Zm.53-4.79.74-.26q.6,1.78,1.17,4l-.83.25C79.55,52.81,79.19,51.49,78.77,50.12Zm2.35-.49.75-.21a38.51,38.51,0,0,1,.9,3.93l-.86.23A39.42,39.42,0,0,0,81.12,49.63Z" fill="#008bfd"/><path d="M91.26,56.05V52.94H88.42a6.36,6.36,0,0,1-1.18,3.37,8.37,8.37,0,0,0-.58-.67,5.33,5.33,0,0,0,.86-2,16,16,0,0,0,.22-3V47.17h8v7.76c0,.78-.36,1.16-1.1,1.16l-1.51,0c0-.22-.08-.49-.15-.82q.85.06,1.38.06t.6-.57v-1.8H92v3.11Zm-2.79-3.81h2.79V50.41H88.52A15.73,15.73,0,0,1,88.47,52.24Zm0-4.35v1.82h2.74V47.89Zm6.39,0H92v1.82h2.87ZM92,52.24h2.87V50.41H92Z" fill="#008bfd"/><path d="M181,113.75h6v-1.7h.81v1.7h2.47v.7h-2.47v3.36a1.17,1.17,0,0,1-1.27,1.32h-1.61a6.5,6.5,0,0,0-.14-.79q1,.06,1.38.06c.56,0,.83-.27.83-.8v-3.15h-6Zm.35-3h4c-.14-.29-.29-.58-.46-.88l.73-.32c.21.38.42.78.61,1.2h3.66v1.95h-.79V111.5h-7v1.24h-.78Zm.92,4.68.56-.53a25,25,0,0,1,2,1.9l-.63.6A20.74,20.74,0,0,0,182.25,115.47Z" fill="#008bfd"/><path d="M190.89,114.86l1.45-.39v-2.25H191v-.68h1.31v-1.83h.75v1.83h1.24v.68h-1.24v2l1.23-.36c0,.32,0,.58,0,.77l-1.25.37v3a.92.92,0,0,1-1,1.06c-.23,0-.52,0-.9,0,0-.28-.09-.55-.14-.81.39,0,.68,0,.89,0s.42-.15.42-.46v-2.63l-1.35.43Zm5.68-4.81.64-.41c.27.31.56.69.88,1.13l-.63.41h2.65v4.35h-.75v-.47H195.6a7.56,7.56,0,0,1-1.39,4.25,6.54,6.54,0,0,0-.64-.56,7,7,0,0,0,1.29-4.53v-3h2.49C197.07,110.76,196.81,110.38,196.57,110.05Zm-.95,1.84v2.47h3.74v-2.47Z" fill="#008bfd"/><path d="M201,116.57a10.75,10.75,0,0,0,1.48-3.34h-1.37v-.64h1.53v-1.53l-1.26.16a4.68,4.68,0,0,0-.21-.67,23.08,23.08,0,0,0,3.35-.53l.22.68-1.4.26v1.63h1.36v.64h-1.36v1.29l.38-.33c.26.27.64.69,1.14,1.28l-.58.48c-.38-.48-.69-.87-.94-1.17v4.52h-.7v-4.68a10,10,0,0,1-1.31,2.8Zm3.44,1.55h2.8v-1.45H205V116h2.22v-1.33h-2.45V114h5.69v.66H208V116h2.21v.65H208v1.45h2.79v.65h-6.37Zm.78-8h4.85v3.35h-.74v-.4H206v.4h-.75Zm4.11.66H206v1.62h3.36Z" fill="#008bfd"/><path d="M215.76,109.94l.7-.38a11.38,11.38,0,0,1,.7,1l-.46.27h4.15v.71h-7.78v2.66a8.15,8.15,0,0,1-1.34,5.14,6.25,6.25,0,0,0-.55-.67c.71-.83,1.07-2.26,1.07-4.27v-3.57h4.11C216.16,110.51,216,110.22,215.76,109.94Zm-2.42,5h3.44c-.61-.44-1.19-.84-1.74-1.18l.47-.5c.49.3,1,.59,1.4.88l1.77-1h-4.76v-.71h6.17v.72l-2.52,1.48.24.17-.26.18h3.21v.73l-.85,1.74-.73-.35.7-1.4h-2.35V118c0,.79-.37,1.18-1.12,1.18-.4,0-.89,0-1.46,0l-.12-.84a10.15,10.15,0,0,0,1.35.11.49.49,0,0,0,.55-.56v-2.19h-3.39Z" fill="#008bfd"/><path d="M187.81,130h-1.08l-.77-2.07h-3.15l-.73,2.07H181l2.88-7.56h1.05Zm-2.15-2.92-1.15-3.14a5,5,0,0,1-.11-.53h0a2.34,2.34,0,0,1-.12.53l-1.13,3.14Z" fill="#008bfd"/><path d="M190.05,127.16V130h-1v-7.56h2.15a2.85,2.85,0,0,1,1.91.59,2.14,2.14,0,0,1,.67,1.69,2.27,2.27,0,0,1-.79,1.8,2.75,2.75,0,0,1-2,.66Zm0-3.88v3h.9a2,2,0,0,0,1.36-.41,1.43,1.43,0,0,0,.47-1.15c0-1-.58-1.46-1.73-1.46Z" fill="#008bfd"/><path d="M196.34,122.42V130h-1v-7.56Z" fill="#008bfd"/><path d="M205.26,122l.72-.38c.28.36.54.75.8,1.16l-.48.28h4v.74h-7.6v2.39a7.93,7.93,0,0,1-1.43,5.17,7.91,7.91,0,0,0-.57-.68q1.17-1.3,1.17-4.47V123H206C205.75,122.66,205.52,122.31,205.26,122Zm-2.66,8h4.51a46.57,46.57,0,0,0,1.62-5.33l.85.23q-.92,3.22-1.62,5.1h2.41v.74H202.6Zm.52-4.8.75-.25c.4,1.18.79,2.51,1.17,4l-.83.26C203.91,127.9,203.55,126.57,203.12,125.2Zm2.36-.48.75-.22a38.12,38.12,0,0,1,.9,3.94l-.86.22A39.24,39.24,0,0,0,205.48,124.72Z" fill="#008bfd"/><path d="M215.62,131.13V128h-2.84a6.31,6.31,0,0,1-1.19,3.37c-.16-.22-.36-.44-.57-.68a5.29,5.29,0,0,0,.86-2,16.23,16.23,0,0,0,.21-3v-3.49h8V130c0,.77-.37,1.16-1.1,1.16l-1.52,0c0-.21-.08-.48-.14-.81q.84.06,1.38.06c.4,0,.6-.19.6-.58V128H216.4v3.1Zm-2.79-3.81h2.79V125.5h-2.75A15.55,15.55,0,0,1,212.83,127.32Zm0-4.34v1.81h2.75V123Zm6.4,0H216.4v1.81h2.87Zm-2.87,4.34h2.87V125.5H216.4Z" fill="#008bfd"/><path d="M48.63,113.75h6v-1.7h.8v1.7H57.9v.7H55.43v3.36a1.17,1.17,0,0,1-1.27,1.32h-1.6c0-.27-.08-.54-.14-.79.63,0,1.1.06,1.38.06.56,0,.83-.27.83-.8v-3.15h-6Zm.35-3h4c-.14-.29-.29-.58-.47-.88l.74-.32c.21.38.42.78.61,1.2h3.65v1.95h-.78V111.5h-7v1.24H49Zm.92,4.68.56-.53a26.93,26.93,0,0,1,2,1.9l-.63.6A22,22,0,0,0,49.9,115.47Z" fill="#0078d7"/><path d="M58.54,114.86l1.45-.39v-2.25H58.68v-.68H60v-1.83h.75v1.83H62v.68H60.74v2l1.23-.36c0,.32,0,.58,0,.77l-1.25.37v3a.92.92,0,0,1-1,1.06q-.34,0-.9,0c0-.28-.09-.55-.14-.81.38,0,.68,0,.89,0s.42-.15.42-.46v-2.63l-1.35.43Zm5.68-4.81.64-.41c.27.31.56.69.88,1.13l-.63.41h2.65v4.35H67v-.47H63.25a7.49,7.49,0,0,1-1.4,4.25,5.35,5.35,0,0,0-.63-.56,7,7,0,0,0,1.29-4.53v-3H65C64.72,110.76,64.46,110.38,64.22,110.05Zm-.95,1.84v2.47H67v-2.47Z" fill="#0078d7"/><path d="M68.65,116.57a10.75,10.75,0,0,0,1.48-3.34H68.76v-.64h1.53v-1.53l-1.26.16a6.41,6.41,0,0,0-.21-.67,23.3,23.3,0,0,0,3.35-.53l.22.68c-.46.1-.92.18-1.4.26v1.63h1.36v.64H71v1.29l.38-.33c.26.27.64.69,1.14,1.28l-.58.48c-.38-.48-.69-.87-.94-1.17v4.52h-.7v-4.68a10.27,10.27,0,0,1-1.31,2.8Zm3.44,1.55h2.8v-1.45H72.67V116h2.22v-1.33H72.43V114h5.7v.66H75.67V116h2.21v.65H75.67v1.45h2.79v.65H72.09Zm.78-8h4.85v3.35H77v-.4H73.62v.4h-.75Zm4.11.66H73.62v1.62H77Z" fill="#0078d7"/><path d="M83.41,109.94l.7-.38a11.38,11.38,0,0,1,.7,1l-.46.27H88.5v.71H80.72v2.66a8.15,8.15,0,0,1-1.34,5.14,6.25,6.25,0,0,0-.55-.67c.71-.83,1.07-2.26,1.07-4.27v-3.57H84Q83.71,110.36,83.41,109.94Zm-2.42,5h3.44c-.61-.44-1.19-.84-1.74-1.18l.47-.5c.49.3,1,.59,1.4.88l1.77-1H81.57v-.71h6.17v.72l-2.52,1.48.24.17-.26.18h3.21v.73l-.85,1.74-.73-.35.7-1.4H85.18V118c0,.79-.37,1.18-1.12,1.18-.4,0-.89,0-1.47,0,0-.22-.06-.5-.11-.84a10.15,10.15,0,0,0,1.35.11.49.49,0,0,0,.55-.56v-2.19H81Z" fill="#0078d7"/><path d="M98.78,118.27c-.23.27-.42.52-.58.74a8.8,8.8,0,0,1-3.94-2.26v2.6h-.73v-2.62a12.44,12.44,0,0,1-3.91,2.4q-.23-.28-.57-.66a10.84,10.84,0,0,0,3.62-1.78H89.23v-.64h4.3v-.88H91v.27h-.74v-3.67h3.08v-2.1h.74v.75h4.24v.65H94.11v.7h3.41v3.67h-.73v-.27H94.26v.88h4.39v.64H95A8.2,8.2,0,0,0,98.78,118.27Zm-2-5.9H91v.8h5.76ZM91,114.56h5.76v-.8H91Z" fill="#0078d7"/><path d="M59.22,124.27h3.09c.19-.5.35-.93.46-1.29H58.7v-.73h9.39V123H63.65l-.54,1.29h4.44v7H66.8v-.55H60v.56h-.75Zm.75,5.79h1.57v-5.15H60Zm2.28-3.85h2.27v-1.3H62.25Zm0,1.92h2.27v-1.3H62.25Zm0,1.93h2.27v-1.3H62.25Zm4.55-5.15H65.22v5.15H66.8Z" fill="#0078d7"/><path d="M73.22,122l.71-.38a12.48,12.48,0,0,1,.8,1.16l-.47.28h4v.74H70.61v2.39a7.93,7.93,0,0,1-1.43,5.17,6.25,6.25,0,0,0-.56-.68q1.17-1.3,1.17-4.47V123h4.13C73.71,122.66,73.47,122.31,73.22,122Zm-2.67,8h4.52a49,49,0,0,0,1.61-5.33l.85.23q-.91,3.22-1.62,5.1h2.41v.74H70.55Zm.53-4.8.74-.25c.4,1.19.79,2.51,1.17,4l-.83.26Q71.71,127.26,71.08,125.2Zm2.35-.48.75-.22a38.73,38.73,0,0,1,.9,3.94l-.86.22A39.24,39.24,0,0,0,73.43,124.72Z" fill="#0078d7"/><path d="M83.57,131.13V128H80.73a6.39,6.39,0,0,1-1.18,3.37c-.17-.22-.36-.44-.58-.68a5.29,5.29,0,0,0,.86-2,16.07,16.07,0,0,0,.22-3v-3.49h8V130c0,.77-.36,1.16-1.1,1.16l-1.51,0q0-.32-.15-.81.86.06,1.38.06c.4,0,.6-.19.6-.58V128H84.35v3.1Zm-2.79-3.81h2.79V125.5H80.83A15.49,15.49,0,0,1,80.78,127.32Zm0-4.34v1.81h2.74V123Zm6.39,0H84.35v1.81h2.87Zm-2.87,4.34h2.87V125.5H84.35Z" fill="#0078d7"/><path d="M9,111a11,11,0,0,0,1.56-3.51H9.06v-.67h1.52v-1.92h.7v1.92h1.37v.67H11.28v1.62l.39-.39c.51.45.9.82,1.19,1.11l-.53.54c-.4-.45-.75-.81-1.05-1.11v5.16h-.7v-5.24a8.69,8.69,0,0,1-1.3,2.68C9.18,111.58,9.07,111.29,9,111Zm5.15-4.74v3.24c0,2.33-.59,4-1.75,5.07-.18-.23-.38-.45-.58-.67a5.33,5.33,0,0,0,1.55-4.23v-4.15H17v7.35c0,.32.11.48.34.48h.22c.21,0,.35-.18.4-.54a15.54,15.54,0,0,0,.14-1.62c.23.11.48.21.74.31-.05.64-.11,1.17-.17,1.58-.11.69-.44,1-1,1h-.52c-.62,0-.93-.38-.93-1.12v-6.74Z" fill="#008bfd"/><path d="M19.1,110.67a24.35,24.35,0,0,0,2.72-1v-2.23h.69v1.93a25.1,25.1,0,0,0,4.07-2.33l.46.59a29.15,29.15,0,0,1-4.3,2.4.85.85,0,0,0,.6.2h1.87c.39,0,.63-.11.71-.33a4.31,4.31,0,0,0,.19-1c.22.09.46.19.74.28a7.73,7.73,0,0,1-.21,1c-.14.54-.55.8-1.24.8H23.17A1.22,1.22,0,0,1,22,110.4c-.83.35-1.67.66-2.54.94A5.44,5.44,0,0,0,19.1,110.67Zm.42-4.77h4.19c-.13-.23-.26-.48-.41-.73l.72-.34a9.78,9.78,0,0,1,.56,1.07H28.5v1.74h-.8v-1H20.31v1h-.79Zm1.14,1.78.69.26a17.08,17.08,0,0,1-1,2c-.21-.11-.45-.21-.71-.32A10.08,10.08,0,0,0,20.66,107.68Zm6.25,6.79v-.38H20.33v-2.57h.74v1.86H23.6v-2.24h.78v2.24h2.53v-1.86h.75v3Zm-3.86-7.28.5-.44q.66.52,1.17,1l-.57.53C23.78,107.89,23.41,107.52,23.05,107.19Zm3.88,1.24.57-.42c.51.56.94,1.08,1.31,1.57l-.65.47Q27.65,109.3,26.93,108.43Z" fill="#008bfd"/><path d="M9.69,182.13a10.85,10.85,0,0,0,1.56-3.51H9.79V178h1.52V176H12V178h1.37v.67H12v1.62l.39-.39c.51.45.9.83,1.19,1.11l-.53.54c-.4-.44-.75-.81-1.05-1.1v5.15h-.7v-5.23A8.74,8.74,0,0,1,10,183C9.91,182.7,9.8,182.41,9.69,182.13Zm5.15-4.73v3.23c0,2.33-.59,4-1.75,5.07-.18-.22-.38-.44-.58-.67a5.32,5.32,0,0,0,1.55-4.22v-4.15h3.63V184c0,.32.11.49.34.49h.22c.21,0,.35-.19.4-.55a15.54,15.54,0,0,0,.14-1.62c.23.11.48.21.74.31-.05.65-.11,1.17-.17,1.58-.11.69-.44,1-1,1h-.52q-.93,0-.93-1.11V177.4Z" fill="#008bfd"/><path d="M19.83,181.79a22.49,22.49,0,0,0,2.72-.95v-2.23h.69v1.94a25.87,25.87,0,0,0,4.07-2.33l.46.58a30.15,30.15,0,0,1-4.3,2.41.83.83,0,0,0,.6.19h1.87c.39,0,.63-.11.71-.33a4.21,4.21,0,0,0,.19-1c.22.1.46.19.74.29a7.87,7.87,0,0,1-.21,1,1.11,1.11,0,0,1-1.24.81H23.9a1.22,1.22,0,0,1-1.16-.56c-.83.35-1.67.67-2.54.95A4.92,4.92,0,0,0,19.83,181.79Zm.42-4.76h4.19c-.13-.24-.26-.48-.41-.74l.72-.34a9.1,9.1,0,0,1,.56,1.08h3.92v1.73h-.8v-1H21v1h-.79Zm1.14,1.77.69.27a16.13,16.13,0,0,1-1,2c-.21-.1-.45-.21-.71-.31A10.52,10.52,0,0,0,21.39,178.8Zm6.25,6.79v-.38H21.06v-2.57h.74v1.87h2.53v-2.25h.78v2.25h2.53v-1.87h.75v3Zm-3.86-7.27.5-.44a13.77,13.77,0,0,1,1.17,1l-.57.53C24.51,179,24.14,178.65,23.78,178.32Zm3.88,1.24.57-.42a20.12,20.12,0,0,1,1.31,1.56l-.65.48A18.3,18.3,0,0,0,27.66,179.56Z" fill="#008bfd"/><path d="M9.69,33.82a11,11,0,0,0,1.56-3.52H9.79v-.66h1.52V27.71H12v1.93h1.37v.66H12v1.62l.39-.39c.51.46.9.83,1.19,1.12l-.53.53c-.4-.44-.75-.81-1.05-1.1v5.15h-.7V32A8.81,8.81,0,0,1,10,34.68C9.91,34.38,9.8,34.1,9.69,33.82Zm5.15-4.74v3.23c0,2.33-.59,4-1.75,5.07-.18-.22-.38-.44-.58-.66a5.36,5.36,0,0,0,1.55-4.23V28.34h3.63v7.34c0,.33.11.49.34.49h.22c.21,0,.35-.18.4-.55A15.54,15.54,0,0,0,18.79,34a7.15,7.15,0,0,0,.74.31c-.05.65-.11,1.18-.17,1.59-.11.69-.44,1-1,1h-.52q-.93,0-.93-1.11V29.08Z" fill="#008bfd"/><path d="M19.83,33.48a26.55,26.55,0,0,0,2.72-.95V30.29h.69v1.94a25.87,25.87,0,0,0,4.07-2.33l.46.59a31.1,31.1,0,0,1-4.3,2.4.83.83,0,0,0,.6.19h1.87c.39,0,.63-.11.71-.33a4.11,4.11,0,0,0,.19-1l.74.28a8.74,8.74,0,0,1-.21,1c-.14.53-.55.8-1.24.8H23.9a1.24,1.24,0,0,1-1.16-.55c-.83.35-1.67.66-2.54.94A4.8,4.8,0,0,0,19.83,33.48Zm.42-4.77h4.19c-.13-.23-.26-.48-.41-.73l.72-.34a9.78,9.78,0,0,1,.56,1.07h3.92v1.74h-.8v-1H21v1h-.79Zm1.14,1.78.69.26a16.13,16.13,0,0,1-1,2l-.71-.31A10.4,10.4,0,0,0,21.39,30.49Zm6.25,6.78v-.38H21.06V34.32h.74v1.87h2.53V33.94h.78v2.25h2.53V34.32h.75v3ZM23.78,30l.5-.44a13.77,13.77,0,0,1,1.17,1l-.57.53C24.51,30.7,24.14,30.33,23.78,30Zm3.88,1.24.57-.42a20.12,20.12,0,0,1,1.31,1.56l-.65.48A18.3,18.3,0,0,0,27.66,31.24Z" fill="#008bfd"/><path d="M17.37,98.69H10.65a.59.59,0,0,1-.61-.57V91.68H12V89.91H24.4a.59.59,0,0,1,.62.57v.09a6.4,6.4,0,0,1,1,.33v-.42A1.53,1.53,0,0,0,24.4,89h-13l-2.34,2.2v6.9a1.51,1.51,0,0,0,1.57,1.46h7.28A5.8,5.8,0,0,1,17.37,98.69Z" fill="gray" fill-rule="evenodd"/><path d="M26,100.22l2.34,3.26-2.17-.54-.61,1.64-2.34-2.88-1.75,2.88-.8-1.74-2.17.54L20.65,100s.58.92,2.69.92S26,100.22,26,100.22Z" fill="gray" fill-rule="evenodd"/><path d="M23.43,99.63a3.43,3.43,0,1,1,0-6.83,3.43,3.43,0,1,1,0,6.83Zm0-6.06a2.66,2.66,0,1,0,2.9,2.65A2.78,2.78,0,0,0,23.43,93.57Z" fill="gray" fill-rule="evenodd"/><path d="M23.43,101.44a5.24,5.24,0,1,1,0-10.45,5.24,5.24,0,1,1,0,10.45Zm0-9.69a4.48,4.48,0,1,0,0,8.93,4.48,4.48,0,1,0,0-8.93Z" fill="gray" fill-rule="evenodd"/><path d="M17.37,21.52H10.65A.59.59,0,0,1,10,21V14.51H12V12.74H24.4a.59.59,0,0,1,.62.57v.09a6.4,6.4,0,0,1,1,.33v-.42a1.53,1.53,0,0,0-1.58-1.46h-13l-2.34,2.2V21a1.51,1.51,0,0,0,1.57,1.46h7.28A5.8,5.8,0,0,1,17.37,21.52Z" fill="gray" fill-rule="evenodd"/><path d="M26,23.05l2.34,3.26-2.17-.54-.61,1.64-2.34-2.88-1.75,2.88-.8-1.74-2.17.54,2.14-3.42s.58.92,2.69.92S26,23.05,26,23.05Z" fill="gray" fill-rule="evenodd"/><path d="M23.43,22.45A3.58,3.58,0,0,1,19.72,19a3.58,3.58,0,0,1,3.71-3.42A3.58,3.58,0,0,1,27.15,19,3.58,3.58,0,0,1,23.43,22.45Zm0-6.06A2.78,2.78,0,0,0,20.54,19a2.91,2.91,0,0,0,5.79,0A2.79,2.79,0,0,0,23.43,16.39Z" fill="gray" fill-rule="evenodd"/><path d="M23.43,24.27a5.48,5.48,0,0,1-5.7-5.22,5.48,5.48,0,0,1,5.7-5.23,5.48,5.48,0,0,1,5.69,5.23A5.47,5.47,0,0,1,23.43,24.27Zm0-9.69a4.7,4.7,0,0,0-4.88,4.47,4.69,4.69,0,0,0,4.88,4.46,4.68,4.68,0,0,0,4.87-4.46A4.69,4.69,0,0,0,23.43,14.58Z" fill="gray" fill-rule="evenodd"/><path d="M80.65,24.41a11.81,11.81,0,0,1-16.84-2.29A12.56,12.56,0,0,1,66.05,4.83a11.82,11.82,0,0,1,16.84,2.3A12.54,12.54,0,0,1,80.65,24.41ZM84.31,6A13.57,13.57,0,0,0,65,3.37,14.43,14.43,0,0,0,62.4,23.24a13.62,13.62,0,0,0,11,5.55,13.45,13.45,0,0,0,8.39-2.92A14.44,14.44,0,0,0,84.31,6Z" fill="#008bfd"/><path d="M66.68,17.19a17,17,0,0,1-2-2.35,18.28,18.28,0,0,0-1.66,6.88c.11.16.11.29.23.44a12.55,12.55,0,0,0,2,2.05A14.13,14.13,0,0,1,66.68,17.19Z" fill="#008bfd"/><path d="M71.29,7.75a21,21,0,0,0-3.33,3,15.71,15.71,0,0,0-1.61,2,15.42,15.42,0,0,0,1.9,2.46,16.32,16.32,0,0,1,2.2-2.56,26.47,26.47,0,0,1,3.13-2.61C72.78,9.31,72,8.54,71.29,7.75Z" fill="#008bfd"/><path d="M82.76,7A12,12,0,0,0,81,5.13a12.53,12.53,0,0,0-8,1.53c.76.84,1.51,1.63,2.24,2.36C79.63,6.59,82.76,7,82.76,7Z" fill="#008bfd"/><path d="M65,15a19.82,19.82,0,0,1,1.19-2.06,9.84,9.84,0,0,1-1.6-6.79,13.09,13.09,0,0,0-1.29,1.6C62.87,9.34,62.85,11.9,65,15Z" fill="#008bfd"/><path d="M70.52,17.37a21.6,21.6,0,0,1-2.27-2.14,14.25,14.25,0,0,0-1.14,1.95,23.54,23.54,0,0,0,2.09,1.91,19.12,19.12,0,0,0,12.56,4.38,9,9,0,0,0,1.54-1.94C82.07,21.79,76.81,22.48,70.52,17.37Z" fill="#008bfd"/><path d="M65.16,14.83a15.72,15.72,0,0,0,2,2.35,15.36,15.36,0,0,1,1.14-1.95,15.42,15.42,0,0,1-1.9-2.46A15.58,15.58,0,0,0,65.16,14.83Z" fill="#008bfd"/><path d="M73.58,10.07a97,97,0,0,0,11.15,8.82,9.82,9.82,0,0,0,.33-1.05A95.51,95.51,0,0,1,75.23,9Q74.44,9.47,73.58,10.07Z" fill="#008bfd"/><path d="M73,6.66q-1.65-1.77-3.36-3.8A10.05,10.05,0,0,0,68,3.52a26.3,26.3,0,0,0,3.24,4.22A17.22,17.22,0,0,1,73,6.66Z" fill="#008bfd"/><path d="M73.06,6.62a18.74,18.74,0,0,0-1.87,1.19c.72.78,1.45,1.59,2.25,2.35.57-.4,1.34-.88,1.87-1.18C74.57,8.25,73.82,7.46,73.06,6.62Z" fill="#008bfd"/><path d="M72.86,6.52a16.24,16.24,0,0,0-1.67,1.12c.72.79,1.74,1.81,2.54,2.57.57-.4,1-.8,1.58-1.11C74.57,8.38,73.61,7.35,72.86,6.52Z" fill="#008bfd"/><path d="M78.92,13.07a2.7,2.7,0,0,0-.48,3.7,2.56,2.56,0,0,0,3.63.51,2.72,2.72,0,0,0,.48-3.72A2.55,2.55,0,0,0,78.92,13.07Z" fill="#008bfd"/><path d="M73.75,19.2a2.52,2.52,0,0,0-.45,3.44,2.37,2.37,0,0,0,3.36.45,2.49,2.49,0,0,0,.44-3.43A2.36,2.36,0,0,0,73.75,19.2Z" fill="#008bfd"/><path d="M64.6,11.87a3.79,3.79,0,0,0-.68,5.21,3.58,3.58,0,0,0,5.1.7,3.8,3.8,0,0,0,.67-5.23A3.59,3.59,0,0,0,64.6,11.87Z" fill="#008bfd"/><path d="M107,154V131.82C107,113.88,106,92,144,92" fill="none" stroke="#505050" stroke-miterlimit="10"/><path d="M87.59,165.63h8.24c6.36,0,11.15-3.46,11.15-9.41v-16.7" fill="none" stroke="#505050" stroke-miterlimit="10"/><path d="M106.19,29.55V51.92c0,18.06-1,40.08,37,40.08" fill="none" stroke="#505050" stroke-miterlimit="10"/><path d="M89.12,16.36h7.26c5.59,0,9.81,3.67,9.81,10V44.08" fill="none" stroke="#505050" stroke-miterlimit="10"/><path d="M181,87.78l8,4-8,4a9,9,0,0,0,0-8" fill="#505050" fill-rule="evenodd"/><path d="M181,87.79l8,4-8,4a9,9,0,0,0,0-8" fill="#505050" fill-rule="evenodd"/><path d="M181,87.79l8,4-8,4a9.06,9.06,0,0,0,0-8" fill="#505050" fill-rule="evenodd"/><rect x="91.55" y="91.49" width="91.09" height="1" rx="0.42" fill="#505050"/></svg>