<svg xmlns="http://www.w3.org/2000/svg" viewBox="0 0 224.94 200.3"><title>OJ104440668</title><path d="M211.09,79h-20.5a1.09,1.09,0,0,0-1.09,1.1V96.88a1.09,1.09,0,0,0,1.09,1.1h5.28a3.29,3.29,0,0,0,3.21,2.27,3.38,3.38,0,0,0,0-6.75,3.29,3.29,0,0,0-3.21,2.27h-4.19v-12H210v12h-3.45a7.61,7.61,0,0,0-7.46-6.56,8.25,8.25,0,0,0-3.64.92l1,2a5.27,5.27,0,0,1,2.55-.67,5.46,5.46,0,0,1,0,10.91,5.27,5.27,0,0,1-2.55-.67l-1,2a7.51,7.51,0,0,0,3.64.92A7.61,7.61,0,0,0,206.54,98h4.55a1.09,1.09,0,0,0,1.09-1.1V80.13A1.14,1.14,0,0,0,211.09,79Z" fill="#008bfd" fill-rule="evenodd"/><path d="M73.65,106H59.44V77.6H73.65v7.67h.76V76.83H58.68v29.91H74.41v-2.32h-.76Z" fill="#0078d7" fill-rule="evenodd"/><path d="M72.88,78.39H60.24V83H72.88ZM63.3,80.31h6.53v.76H63.3Zm6.59,1.84H63.27v-.76h6.62Z" fill="#0078d7" fill-rule="evenodd"/><path d="M60.21,83.74V86.8h8.6V85.27h4.08V83.74Z" fill="#0078d7" fill-rule="evenodd"/><rect x="60.21" y="87.57" width="8.6" height="2.68" fill="#0078d7"/><path d="M60.21,105.21H72.86v-.8H68.78V91h-8.6v14.17Zm1.53-2.74H64v1.21H61.74Z" fill="#0078d7" fill-rule="evenodd"/><path d="M83.43,102.15H81v-1.87H78.46v1.87H76a1.32,1.32,0,0,0-1.31,1.15h10A1.29,1.29,0,0,0,83.43,102.15Z" fill="#0078d7" fill-rule="evenodd"/><path d="M88.27,88.17H71.17a.65.65,0,0,0-.67.61V98.91a.65.65,0,0,0,.67.6h17.1a.64.64,0,0,0,.67-.6V88.78A.63.63,0,0,0,88.27,88.17Zm-1,9.84H72.19V89.7H87.25Z" fill="#0078d7" fill-rule="evenodd"/><path d="M83.63,95.52V92.08l-3.51-1.84L76.62,92v3.54l3.5,1.81Zm-4.4-2.29.89-.45.86.45-.86.48Zm0-1.15.86-.44.86.44-.86.48Zm1.91,4.53-1,.51v-.93l1-.51Zm0-1.18-1,.51V95l1-.51Zm0-1.12-1,.51V93.9l1-.51Zm-.82-1.65.86-.45.89.45-.86.44Zm2,3.34-.95.51v-.92l.95-.51Zm0-1.18-.95.51v-.92l.95-.51Zm0-1.14-.95.51v-.9l.95-.51Zm1.05,1.75-.86.44V95l.86-.45Zm0-1.15-.86.45V93.8l.86-.44Zm0-1.14-.86.44v-.92l.86-.45Zm-.19-1.06-.89.45-.89-.45.86-.44Zm-1.11-.57-.89.45-.86-.45.86-.44Zm-2-1.05.86.45-.86.44-.89-.44ZM79,91.07l.86.44L79,92l-.86-.45Zm-1.08.57.89.44-.89.45-.9-.45Zm-.26,4.27-.86-.45v-.92l.86.44Zm0-1.18-.86-.45v-.92l.86.44Zm0-1.15-.86-.44v-.9l.86.45Zm1.18,2.93-1-.51v-.92l1,.51Zm0-1.18-1-.51V93.9l1,.51Zm0-1.14-1-.51v-.9l1,.51Zm-.7-1.53.89-.45.86.45-.89.48ZM80,97.12l-1-.51v-.89l1,.5ZM80,96l-1-.51v-.92l1,.51Zm0-1.15-1-.51v-.92l1,.51Z" fill="#0078d7" fill-rule="evenodd"/><path d="M84.06,154.79H63.56a1.09,1.09,0,0,0-1.09,1.1v16.75a1.09,1.09,0,0,0,1.09,1.1h5.28A3.29,3.29,0,0,0,72.05,176a3.38,3.38,0,0,0,0-6.75,3.29,3.29,0,0,0-3.21,2.27H64.65v-12H83v12H79.51A7.61,7.61,0,0,0,72.05,165a8.25,8.25,0,0,0-3.64.92l1,2a5.27,5.27,0,0,1,2.55-.67,5.46,5.46,0,0,1,0,10.91,5.27,5.27,0,0,1-2.55-.67l-1,2a7.51,7.51,0,0,0,3.64.92,7.61,7.61,0,0,0,7.46-6.56h4.55a1.09,1.09,0,0,0,1.09-1.1V155.89A1.14,1.14,0,0,0,84.06,154.79Z" fill="#008bfd" fill-rule="evenodd"/><path d="M181.12,88c0,.08,0,.15.08.22a9.46,9.46,0,0,1,.7,2.77h-1.26c-.36,0-.81,0-1.31,0q-23.16,0-46.31,0c-16.48,0-27.75-11.24-27.75-27.68,0-13.52,0-27,0-40.55,0-4.62-3.18-8.5-7.48-8.85a50.47,50.47,0,0,0-10.28.1.7.7,0,0,0,0,1c2.54.56,5.1.21,7.64.24,5.83.08,8.66,2.88,8.66,8.73,0,13.6-.13,27.19,0,40.78.14,11.42,5.6,19.71,15.68,25,.62.33,1.36.49,1.83,1.21-9.81,0-19.57,0-29.32,0-.91,0-2-.38-2.64.65l0,.17c.69,1,1.73.66,2.65.67q14.13,0,28.27,0h2.52c-.74.48-.91.62-1.11.72-11.32,5.41-16.81,14.45-16.79,26.94,0,12.3,0,24.6,0,36.9,0,5.82-3.78,9.57-9.58,9.68-3.28.06-6.55.07-9.82.1-.83.15-.8.71-.63,1.33a.41.41,0,0,0,.56.19c3,0,5.92-.05,8.88-.06,7.94,0,12.24-4.33,12.25-12.35V119.42c0-15.62,11.3-27,26.88-27h48.54a9.57,9.57,0,0,1-.68,3.19v0l8.08-4C186.4,90.43,184.24,88.85,181.12,88Z" fill="#505050"/><path d="M66.68,17.18a16.47,16.47,0,0,1-2-2.35,18.32,18.32,0,0,0-1.66,6.89c.11.16.11.28.23.44a13.4,13.4,0,0,0,2,2.05A14.18,14.18,0,0,1,66.68,17.18Z" fill="#008bfd" fill-rule="evenodd"/><path d="M71.29,7.75a21,21,0,0,0-3.33,3,16.41,16.41,0,0,0-1.61,2,15,15,0,0,0,1.9,2.47,16.84,16.84,0,0,1,2.2-2.57,27.32,27.32,0,0,1,3.13-2.6C72.78,9.31,72,8.54,71.29,7.75Z" fill="#008bfd" fill-rule="evenodd"/><path d="M82.76,7A12.55,12.55,0,0,0,81,5.12a12.55,12.55,0,0,0-8,1.54c.76.84,1.51,1.62,2.24,2.36C79.63,6.59,82.76,7,82.76,7Z" fill="#008bfd" fill-rule="evenodd"/><path d="M65.17,15a18.72,18.72,0,0,1,1.18-2.06,9.92,9.92,0,0,1-1.58-6.8A13,13,0,0,0,63.5,7.72C63.12,9.33,63.11,11.88,65.17,15Z" fill="#008bfd" fill-rule="evenodd"/><path d="M70.52,17.36a21.57,21.57,0,0,1-2.27-2.13,13.68,13.68,0,0,0-1.14,1.95,23.54,23.54,0,0,0,2.09,1.91,19.18,19.18,0,0,0,12.56,4.38,9,9,0,0,0,1.54-1.94C82.07,21.79,76.81,22.47,70.52,17.36Z" fill="#008bfd" fill-rule="evenodd"/><path d="M65.16,14.83a16.24,16.24,0,0,0,2,2.35,14.7,14.7,0,0,1,1.14-1.95,15,15,0,0,1-1.9-2.47A16.34,16.34,0,0,0,65.16,14.83Z" fill="#008bfd" fill-rule="evenodd"/><path d="M73.58,10.07a98.21,98.21,0,0,0,11.15,8.82,9.82,9.82,0,0,0,.33-1.05A96.8,96.8,0,0,1,75.23,9,16,16,0,0,0,73.58,10.07Z" fill="#008bfd" fill-rule="evenodd"/><path d="M73,6.65q-1.65-1.77-3.36-3.79A10.05,10.05,0,0,0,68,3.52a26.74,26.74,0,0,0,3.24,4.22A15.69,15.69,0,0,1,73,6.65Z" fill="#008bfd" fill-rule="evenodd"/><path d="M73.06,6.62a18.74,18.74,0,0,0-1.87,1.19c.72.78,1.45,1.59,2.25,2.35.57-.4,1.34-.89,1.87-1.19C74.57,8.24,73.82,7.46,73.06,6.62Z" fill="#008bfd" fill-rule="evenodd"/><path d="M72.86,6.51a14.89,14.89,0,0,0-1.67,1.13c.72.79,1.74,1.81,2.54,2.57.57-.4,1-.81,1.58-1.11C74.57,8.37,73.61,7.35,72.86,6.51Z" fill="#008bfd" fill-rule="evenodd"/><path d="M78.92,13.07a2.7,2.7,0,0,0-.48,3.7,2.55,2.55,0,0,0,3.63.5,2.71,2.71,0,0,0,.48-3.71A2.54,2.54,0,0,0,78.92,13.07Z" fill="#008bfd" fill-rule="evenodd"/><path d="M64,19.68a2.52,2.52,0,0,0-.45,3.44,2.37,2.37,0,0,0,3.36.45,2.49,2.49,0,0,0,.44-3.43A2.35,2.35,0,0,0,64,19.68Z" fill="#008bfd" fill-rule="evenodd"/><path d="M64.61,11.87a3.79,3.79,0,0,0-.68,5.21,3.58,3.58,0,0,0,5.1.7,3.8,3.8,0,0,0,.67-5.23A3.58,3.58,0,0,0,64.61,11.87Z" fill="#008bfd" fill-rule="evenodd"/><path d="M80.65,24.41a11.81,11.81,0,0,1-16.84-2.29A12.55,12.55,0,0,1,66.05,4.83a11.72,11.72,0,0,1,7.29-2.54,11.89,11.89,0,0,1,9.55,4.84A12.54,12.54,0,0,1,80.65,24.41ZM84.31,6A13.57,13.57,0,0,0,65,3.36,14.45,14.45,0,0,0,62.4,23.24a13.65,13.65,0,0,0,11,5.55,13.45,13.45,0,0,0,8.39-2.92A14.44,14.44,0,0,0,84.31,6Z" fill="#008bfd" fill-rule="evenodd"/><path d="M17.37,21.09H10.65a.59.59,0,0,1-.61-.57V14.08H12V12.31H24.4a.59.59,0,0,1,.62.57V13a6.4,6.4,0,0,1,1,.33v-.42a1.53,1.53,0,0,0-1.58-1.46h-13l-2.34,2.2v6.9A1.51,1.51,0,0,0,10.65,22h7.28A5.8,5.8,0,0,1,17.37,21.09Z" fill="gray" fill-rule="evenodd"/><path d="M26,23.3l2.34,3.26L26.16,26l-.61,1.64-2.34-2.88-1.75,2.88-.8-1.74-2.17.54L20.63,23s.58.92,2.69.92S26,23.3,26,23.3Z" fill="gray" fill-rule="evenodd"/><path d="M24.19,22.71a3.58,3.58,0,0,1-3.71-3.41,3.58,3.58,0,0,1,3.71-3.42,3.58,3.58,0,0,1,3.72,3.42A3.58,3.58,0,0,1,24.19,22.71Zm0-6.06A2.78,2.78,0,0,0,21.3,19.3a2.91,2.91,0,0,0,5.79,0A2.79,2.79,0,0,0,24.19,16.65Z" fill="gray" fill-rule="evenodd"/><path d="M24.19,24.52a5.48,5.48,0,0,1-5.7-5.22,5.48,5.48,0,0,1,5.7-5.23,5.48,5.48,0,0,1,5.69,5.23A5.47,5.47,0,0,1,24.19,24.52Zm0-9.69a4.7,4.7,0,0,0-4.88,4.47,4.69,4.69,0,0,0,4.88,4.46,4.68,4.68,0,0,0,4.87-4.46A4.69,4.69,0,0,0,24.19,14.83Z" fill="gray" fill-rule="evenodd"/><path d="M17.54,98.67H10.82a.59.59,0,0,1-.61-.57V91.66h1.94V89.89H24.57a.59.59,0,0,1,.62.57v.09a6.4,6.4,0,0,1,1,.33v-.42A1.53,1.53,0,0,0,24.57,89h-13L9.25,91.2v6.9a1.51,1.51,0,0,0,1.57,1.46H18.1A5.8,5.8,0,0,1,17.54,98.67Z" fill="gray" fill-rule="evenodd"/><path d="M26.16,100.89l2.34,3.26-2.17-.54-.61,1.64-2.34-2.88-1.75,2.88-.8-1.74-2.17.54,2.14-3.42s.58.92,2.69.92S26.16,100.89,26.16,100.89Z" fill="gray" fill-rule="evenodd"/><path d="M24.35,100.29a3.43,3.43,0,1,1,0-6.83,3.43,3.43,0,1,1,0,6.83Zm0-6.06a2.66,2.66,0,1,0,2.9,2.65A2.78,2.78,0,0,0,24.35,94.23Z" fill="gray" fill-rule="evenodd"/><path d="M24.36,102.1a5.24,5.24,0,1,1,0-10.45,5.24,5.24,0,1,1,0,10.45Zm0-9.69a4.48,4.48,0,1,0,0,8.93,4.48,4.48,0,1,0,0-8.93Z" fill="gray" fill-rule="evenodd"/><path d="M17.54,168.78H10.82a.59.59,0,0,1-.61-.57v-6.44h1.94V160H24.57a.59.59,0,0,1,.62.57v.09a6.4,6.4,0,0,1,1,.33v-.42a1.53,1.53,0,0,0-1.58-1.46h-13l-2.34,2.2v6.9a1.51,1.51,0,0,0,1.57,1.46H18.1A5.8,5.8,0,0,1,17.54,168.78Z" fill="gray" fill-rule="evenodd"/><path d="M26.16,171l2.34,3.26-2.17-.54-.61,1.64-2.34-2.88-1.75,2.88-.8-1.74-2.17.54,2.14-3.42s.58.92,2.69.92S26.16,171,26.16,171Z" fill="gray" fill-rule="evenodd"/><path d="M24.35,170.4a3.43,3.43,0,1,1,0-6.83,3.43,3.43,0,1,1,0,6.83Zm0-6.06a2.66,2.66,0,1,0,2.9,2.65A2.78,2.78,0,0,0,24.35,164.34Z" fill="gray" fill-rule="evenodd"/><path d="M24.36,172.21a5.24,5.24,0,1,1,0-10.45,5.24,5.24,0,1,1,0,10.45Zm0-9.69a4.48,4.48,0,1,0,0,8.93,4.48,4.48,0,1,0,0-8.93Z" fill="gray" fill-rule="evenodd"/><path d="M8.5,35.21a11,11,0,0,0,1.55-3.51H8.59V31h1.53V29.11h.7V31h1.37v.66H10.82v1.62l.39-.39c.5.46.89.83,1.18,1.11l-.53.54c-.4-.44-.74-.81-1-1.1v5.15h-.7V33.4a9,9,0,0,1-1.3,2.67C8.71,35.78,8.61,35.49,8.5,35.21Zm5.14-4.73v3.23q0,3.49-1.75,5.07-.27-.33-.57-.66a5.36,5.36,0,0,0,1.54-4.23V29.74h3.63v7.34c0,.33.12.49.34.49h.23c.21,0,.34-.18.4-.55s.11-1,.14-1.62a5.68,5.68,0,0,0,.74.31c-.06.65-.12,1.17-.18,1.58-.1.69-.43,1-1,1h-.52c-.63,0-.94-.37-.94-1.11V30.48Z"/><path d="M18.47,34.87a24.13,24.13,0,0,0,2.71-.94V31.69h.69v1.94A26,26,0,0,0,26,31.3l.46.58a30.26,30.26,0,0,1-4.31,2.41.85.85,0,0,0,.6.19h1.88c.39,0,.62-.11.7-.33a4,4,0,0,0,.2-1c.21.09.46.18.74.28-.1.5-.17.82-.22,1-.13.53-.55.8-1.24.8H22.54a1.22,1.22,0,0,1-1.16-.56c-.83.35-1.68.67-2.54.95A4.92,4.92,0,0,0,18.47,34.87Zm.42-4.76h4.18c-.12-.24-.26-.48-.4-.73l.72-.35a9.91,9.91,0,0,1,.55,1.08h3.92v1.74h-.79v-1H19.68v1h-.79ZM20,31.88l.68.27a16.12,16.12,0,0,1-1,2c-.21-.1-.45-.21-.72-.31A11.16,11.16,0,0,0,20,31.88Zm6.25,6.79v-.38H19.7V35.72h.74v1.87H23V35.34h.78v2.25h2.53V35.72H27v3ZM22.41,31.4l.51-.44a15.28,15.28,0,0,1,1.16,1l-.57.53C23.14,32.1,22.78,31.73,22.41,31.4Zm3.89,1.24.56-.42a18.1,18.1,0,0,1,1.31,1.56l-.64.48Q27,33.5,26.3,32.64Z"/><path d="M8.5,112.39a11.2,11.2,0,0,0,1.55-3.52H8.59v-.66h1.53v-1.93h.7v1.93h1.37v.66H10.82v1.62l.39-.39c.5.46.89.83,1.18,1.12l-.53.53c-.4-.44-.74-.81-1-1.1v5.16h-.7v-5.24a9,9,0,0,1-1.3,2.68C8.71,113,8.61,112.67,8.5,112.39Zm5.14-4.74v3.23q0,3.5-1.75,5.07-.27-.33-.57-.66a5.36,5.36,0,0,0,1.54-4.23v-4.15h3.63v7.34c0,.33.12.49.34.49h.23c.21,0,.34-.18.4-.55s.11-1,.14-1.62a7.46,7.46,0,0,0,.74.32c-.06.64-.12,1.17-.18,1.58-.1.69-.43,1-1,1h-.52c-.63,0-.94-.37-.94-1.11v-6.74Z"/><path d="M18.47,112.05a24.19,24.19,0,0,0,2.71-1v-2.24h.69v1.94A26,26,0,0,0,26,108.47l.46.59a31.21,31.21,0,0,1-4.31,2.4.85.85,0,0,0,.6.2h1.88c.39,0,.62-.12.7-.34a4,4,0,0,0,.2-1c.21.09.46.18.74.28-.1.5-.17.82-.22,1-.13.53-.55.8-1.24.8H22.54a1.24,1.24,0,0,1-1.16-.55c-.83.35-1.68.66-2.54.94A4.8,4.8,0,0,0,18.47,112.05Zm.42-4.77h4.18c-.12-.23-.26-.48-.4-.73l.72-.34a9.74,9.74,0,0,1,.55,1.07h3.92V109h-.79v-1H19.68v1h-.79ZM20,109.06l.68.26a16.12,16.12,0,0,1-1,2L19,111A11,11,0,0,0,20,109.06Zm6.25,6.78v-.38H19.7V112.9h.74v1.86H23v-2.25h.78v2.25h2.53V112.9H27v2.94Zm-3.87-7.27.51-.44a13.38,13.38,0,0,1,1.16,1l-.57.52C23.14,109.27,22.78,108.9,22.41,108.57Zm3.89,1.24.56-.42A18.1,18.1,0,0,1,28.17,111l-.64.48Q27,110.67,26.3,109.81Z"/><path d="M8.5,183.18a11.14,11.14,0,0,0,1.55-3.51H8.59V179h1.53v-1.92h.7V179h1.37v.67H10.82v1.62l.39-.39c.5.45.89.82,1.18,1.11l-.53.54c-.4-.44-.74-.81-1-1.11v5.16h-.7v-5.23A9,9,0,0,1,8.82,184C8.71,183.75,8.61,183.46,8.5,183.18Zm5.14-4.73v3.23q0,3.49-1.75,5.07c-.18-.22-.37-.45-.57-.67a5.33,5.33,0,0,0,1.54-4.23V177.7h3.63v7.35c0,.32.12.49.34.49h.23c.21,0,.34-.19.4-.55s.11-1,.14-1.62a7.51,7.51,0,0,0,.74.31c-.06.65-.12,1.17-.18,1.58-.1.69-.43,1-1,1h-.52c-.63,0-.94-.37-.94-1.12v-6.73Z"/><path d="M18.47,182.84a24.19,24.19,0,0,0,2.71-1v-2.23h.69v1.94A26,26,0,0,0,26,179.27l.46.58a29.25,29.25,0,0,1-4.31,2.4.81.81,0,0,0,.6.2h1.88c.39,0,.62-.11.7-.33a4.12,4.12,0,0,0,.2-1.05c.21.1.46.19.74.29a9.44,9.44,0,0,1-.22,1c-.13.54-.55.8-1.24.8H22.54a1.22,1.22,0,0,1-1.16-.55c-.83.35-1.68.67-2.54.94A5.44,5.44,0,0,0,18.47,182.84Zm.42-4.76h4.18c-.12-.24-.26-.48-.4-.74l.72-.34a9.08,9.08,0,0,1,.55,1.08h3.92v1.73h-.79v-1H19.68v1h-.79ZM20,179.85l.68.27a16.12,16.12,0,0,1-1,1.95c-.21-.1-.45-.21-.72-.31A11.16,11.16,0,0,0,20,179.85Zm6.25,6.79v-.38H19.7v-2.57h.74v1.87H23v-2.25h.78v2.25h2.53v-1.87H27v2.95Zm-3.87-7.28.51-.44c.43.35.82.69,1.16,1l-.57.53C23.14,180.06,22.78,179.7,22.41,179.36Zm3.89,1.24.56-.42a19.77,19.77,0,0,1,1.31,1.57l-.64.48C27.18,181.72,26.77,181.18,26.3,180.6Z"/><path d="M32.21,189.06h6v-1.7H39v1.7h2.47v.71H39v3.36a1.17,1.17,0,0,1-1.27,1.31h-1.6c0-.27-.09-.53-.15-.79.64,0,1.1.06,1.39.06a.72.72,0,0,0,.83-.8v-3.14h-6Zm.35-3h4c-.14-.29-.3-.58-.47-.87l.73-.33c.21.38.42.78.61,1.2h3.66v2h-.78v-1.24h-7v1.24h-.78Zm.92,4.68.57-.53c.75.66,1.42,1.29,2,1.9l-.63.6A19.59,19.59,0,0,0,33.48,190.78Z"/><path d="M42,190.18l1.44-.4v-2.25H42.09v-.67H43.4V185h.75v1.84h1.24v.67H44.15v2l1.23-.37c0,.33,0,.58,0,.77l-1.25.37v3a.92.92,0,0,1-1,1.06q-.33,0-.9,0c0-.28-.08-.55-.14-.81a8.67,8.67,0,0,0,.89,0c.28,0,.42-.15.42-.46v-2.63l-1.35.44Zm5.67-4.82.64-.41c.27.31.56.69.88,1.13l-.63.42h2.66v4.34h-.76v-.47H46.66a7.46,7.46,0,0,1-1.39,4.25,6.54,6.54,0,0,0-.64-.56,7,7,0,0,0,1.29-4.53v-3h2.5C48.14,186.07,47.87,185.69,47.63,185.36Zm-1,1.84v2.47h3.74V187.2Z"/><path d="M51.89,191.89a11,11,0,0,0,1.48-3.34H52v-.65h1.52v-1.53c-.41.06-.83.12-1.26.16a4.68,4.68,0,0,0-.21-.67,23.08,23.08,0,0,0,3.35-.53l.22.69-1.4.25v1.63h1.36v.65H54.23v1.28l.38-.33c.26.27.64.7,1.15,1.28l-.59.48c-.38-.48-.69-.87-.94-1.17v4.52h-.7v-4.68a10,10,0,0,1-1.31,2.81C52.12,192.46,52,192.17,51.89,191.89Zm3.45,1.54h2.79V192H55.91v-.65h2.22V190H55.68v-.65h5.69V190H58.91v1.33h2.22V192H58.91v1.45H61.7v.65H55.34Zm.78-8H61v3.35h-.74v-.4H56.86v.4h-.74Zm4.1.66H56.86v1.63h3.36Z"/><path d="M66.48,185.25l.7-.38a9.6,9.6,0,0,1,.7,1l-.46.27h4.16v.72H63.79v2.65c0,2.32-.44,4-1.34,5.14a5.34,5.34,0,0,0-.55-.66c.71-.84,1.07-2.26,1.07-4.28v-3.57h4.11Q66.78,185.67,66.48,185.25Zm-2.41,5H67.5c-.61-.45-1.18-.84-1.73-1.19l.46-.49c.49.29,1,.58,1.4.87l1.77-1H64.64v-.7h6.17v.71l-2.52,1.48.24.17-.26.19h3.21V191l-.85,1.75-.72-.36.69-1.4H68.26v2.32c0,.79-.38,1.18-1.13,1.18-.39,0-.88,0-1.46,0l-.12-.84a8.71,8.71,0,0,0,1.35.11.48.48,0,0,0,.55-.55v-2.2H64.07Z"/><path d="M84.83,185.73l-2.12,7.57H81.57l-1.52-5.45a3.34,3.34,0,0,1-.12-.78h0a3.88,3.88,0,0,1-.14.77l-1.54,5.46H77.1l-2.19-7.57H76l1.54,5.72a3.34,3.34,0,0,1,.12.77h0a4.07,4.07,0,0,1,.17-.77l1.63-5.72h1L82,191.49a4.87,4.87,0,0,1,.12.72h0a5.21,5.21,0,0,1,.14-.74l1.49-5.74Z"/><path d="M90,190.84H86.17a2,2,0,0,0,.47,1.34,1.67,1.67,0,0,0,1.26.47,2.7,2.7,0,0,0,1.66-.58v.85a3.16,3.16,0,0,1-1.89.5,2.27,2.27,0,0,1-1.82-.74,3,3,0,0,1-.66-2.06,2.92,2.92,0,0,1,.72-2,2.3,2.3,0,0,1,1.79-.81,2.07,2.07,0,0,1,1.65.68,2.79,2.79,0,0,1,.6,1.91Zm-1-.77a1.75,1.75,0,0,0-.34-1.13,1.2,1.2,0,0,0-1-.4,1.29,1.29,0,0,0-1,.43,1.94,1.94,0,0,0-.53,1.1Z"/><path d="M92.18,192.54v.76h-1v-8h1v3.53h0a2.17,2.17,0,0,1,3.47-.35,3,3,0,0,1,.6,2,3.36,3.36,0,0,1-.67,2.18,2.24,2.24,0,0,1-1.79.8,1.78,1.78,0,0,1-1.61-.88Zm0-1.46a1.56,1.56,0,0,0,.42,1.1,1.5,1.5,0,0,0,2.26-.13,2.73,2.73,0,0,0,.43-1.62,2.16,2.16,0,0,0-.4-1.36,1.33,1.33,0,0,0-1.1-.51,1.52,1.52,0,0,0-1.16.5,1.87,1.87,0,0,0-.45,1.28Z"/><path d="M106.63,193.3h-1.07l-.78-2.07h-3.15l-.72,2.07H99.83l2.88-7.57h1Zm-2.15-2.93-1.14-3.14a2.86,2.86,0,0,1-.12-.53h0a2.92,2.92,0,0,1-.13.53l-1.13,3.14Z"/><path d="M108.7,190.47v2.83h-1v-7.57h2.15a2.82,2.82,0,0,1,1.9.59,2.14,2.14,0,0,1,.67,1.69,2.27,2.27,0,0,1-.79,1.81,2.71,2.71,0,0,1-2,.65Zm0-3.88v3h.91a2,2,0,0,0,1.36-.4,1.49,1.49,0,0,0,.46-1.16c0-1-.58-1.46-1.73-1.46Z"/><path d="M114.82,185.73v7.57h-1v-7.57Z"/><path d="M181.23,113.36h6v-1.7h.8v1.7h2.47v.71H188v3.35a1.17,1.17,0,0,1-1.27,1.32h-1.6c0-.27-.09-.53-.15-.79.64,0,1.1.06,1.39.06a.72.72,0,0,0,.83-.8v-3.14h-6Zm.36-3h4c-.14-.29-.3-.58-.47-.88l.73-.32c.22.38.42.78.62,1.2h3.65v1.95h-.78v-1.24h-7v1.24h-.78Zm.91,4.68.57-.53a26.68,26.68,0,0,1,2,1.9l-.62.6A21,21,0,0,0,182.5,115.08Z"/><path d="M191,114.48l1.45-.4v-2.25h-1.31v-.67h1.31v-1.84h.75v1.84h1.24v.67h-1.24v2l1.23-.37c0,.32,0,.58,0,.77l-1.25.37v3a.93.93,0,0,1-1,1.06q-.33,0-.9,0c0-.28-.08-.55-.13-.81a8.54,8.54,0,0,0,.89,0c.28,0,.42-.15.42-.46v-2.63l-1.35.44Zm5.67-4.82.65-.41c.27.31.56.69.88,1.13l-.63.41h2.65v4.35h-.75v-.47h-3.76a7.54,7.54,0,0,1-1.4,4.25,5.35,5.35,0,0,0-.63-.56,7,7,0,0,0,1.29-4.53v-3h2.49C197.16,110.37,196.9,110,196.65,109.66Zm-.94,1.84V114h3.74V111.5Z"/><path d="M200.91,116.18a10.76,10.76,0,0,0,1.49-3.34H201v-.64h1.52v-1.53l-1.26.16a6.3,6.3,0,0,0-.2-.67,23.52,23.52,0,0,0,3.35-.53l.21.69-1.39.25v1.63h1.35v.64h-1.35v1.29l.38-.33c.26.27.64.7,1.14,1.28l-.59.48c-.37-.48-.69-.87-.93-1.17v4.52h-.71v-4.68a9.59,9.59,0,0,1-1.31,2.8C201.14,116.75,201,116.47,200.91,116.18Zm3.45,1.55h2.79v-1.45h-2.21v-.65h2.21V114.3H204.7v-.65h5.69v.65h-2.46v1.33h2.22v.65h-2.22v1.45h2.8v.65h-6.37Zm.78-8H210v3.35h-.74v-.4h-3.36v.4h-.74Zm4.1.66h-3.36V112h3.36Z"/><path d="M215.5,109.55l.71-.38c.25.33.48.66.7,1l-.47.27h4.16v.72h-7.78v2.65a8.15,8.15,0,0,1-1.34,5.14,6.41,6.41,0,0,0-.56-.67c.72-.83,1.08-2.26,1.08-4.27v-3.57h4.11C215.91,110.13,215.71,109.83,215.5,109.55Zm-2.41,5h3.43c-.6-.44-1.18-.84-1.73-1.18l.47-.5c.49.3,1,.59,1.39.88l1.77-1h-4.75V112h6.17v.71l-2.53,1.48.24.17-.26.18h3.21v.73l-.85,1.75a8,8,0,0,0-.72-.36l.69-1.4h-2.34v2.32c0,.79-.38,1.18-1.12,1.18-.4,0-.89,0-1.47,0q0-.33-.12-.84a8.9,8.9,0,0,0,1.35.11.49.49,0,0,0,.56-.56v-2.19h-3.39Z"/><path d="M188.24,129.6h-1.08l-.77-2.07h-3.15l-.73,2.07h-1.08l2.88-7.57h1.05Zm-2.16-2.93-1.14-3.14a4.49,4.49,0,0,1-.12-.53h0a4.38,4.38,0,0,1-.12.53l-1.14,3.14Z"/><path d="M190.31,126.77v2.83h-1V122h2.15a2.82,2.82,0,0,1,1.9.59,2.14,2.14,0,0,1,.68,1.69,2.32,2.32,0,0,1-.79,1.81,2.79,2.79,0,0,1-2,.65Zm0-3.88v3h.9a2.06,2.06,0,0,0,1.36-.4,1.46,1.46,0,0,0,.46-1.16c0-1-.57-1.46-1.73-1.46Z"/><path d="M196.42,122v7.57h-1V122Z"/><path d="M205,121.57l.71-.38a12.48,12.48,0,0,1,.8,1.16l-.47.28h4v.74H202.4v2.39a7.93,7.93,0,0,1-1.42,5.17,7.91,7.91,0,0,0-.57-.68q1.17-1.31,1.17-4.47v-3.15h4.13A11.39,11.39,0,0,0,205,121.57Zm-2.67,8h4.52a46.57,46.57,0,0,0,1.62-5.33l.85.23q-.92,3.22-1.63,5.1h2.42v.74h-7.78Zm.53-4.79.74-.26c.41,1.19.8,2.51,1.17,4l-.83.25C203.65,127.51,203.29,126.18,202.87,124.82Zm2.35-.49.76-.22c.33,1.17.63,2.49.89,3.94l-.86.22A36.62,36.62,0,0,0,205.22,124.33Z"/><path d="M215.19,130.74v-3.1h-2.84a6.3,6.3,0,0,1-1.18,3.37c-.17-.22-.36-.44-.58-.68a5.13,5.13,0,0,0,.86-2,15.25,15.25,0,0,0,.22-3v-3.48h8v7.76c0,.77-.37,1.16-1.11,1.16l-1.51,0q0-.31-.15-.81.85.06,1.38.06c.4,0,.61-.19.61-.58v-1.79H216v3.1Zm-2.78-3.81h2.78v-1.82h-2.74A15.55,15.55,0,0,1,212.41,126.93Zm0-4.34v1.82h2.74v-1.82Zm6.4,0H216v1.82h2.87ZM216,126.93h2.87v-1.82H216Z"/><path d="M49.2,112.8h6v-1.7H56v1.7h2.47v.7H56v3.36a1.17,1.17,0,0,1-1.27,1.32h-1.6c0-.28-.09-.54-.15-.79.64,0,1.1.06,1.39.06a.73.73,0,0,0,.83-.81V113.5h-6Zm.36-3h4c-.14-.29-.3-.59-.47-.88l.73-.32a13.42,13.42,0,0,1,.62,1.2H58.1v1.94h-.78v-1.24h-7v1.24h-.78Zm.91,4.68L51,114a26.66,26.66,0,0,1,2,1.89l-.62.61A18.81,18.81,0,0,0,50.47,114.52Z"/><path d="M59,113.91l1.45-.4v-2.25H59.09v-.67H60.4v-1.84h.75v1.84h1.24v.67H61.15v2l1.23-.37c0,.33,0,.59,0,.78l-1.25.36v3a.93.93,0,0,1-1,1.07h-.9c0-.28-.08-.55-.13-.81.38,0,.68.05.89.05s.42-.16.42-.46v-2.63l-1.35.43Zm5.67-4.81.65-.41c.27.31.56.69.88,1.13l-.63.41h2.65v4.34h-.75v-.46H63.66a7.53,7.53,0,0,1-1.4,4.24,5.37,5.37,0,0,0-.63-.55,7,7,0,0,0,1.29-4.53v-3h2.49C65.13,109.8,64.87,109.42,64.62,109.1Zm-.94,1.83v2.47h3.74v-2.47Z"/><path d="M68.88,115.62a10.87,10.87,0,0,0,1.49-3.34H69v-.65h1.52v-1.52l-1.26.16a6.45,6.45,0,0,0-.2-.68,23.26,23.26,0,0,0,3.35-.52l.21.68c-.45.09-.92.18-1.39.25v1.63h1.35v.65H71.23v1.29l.38-.33c.26.26.64.69,1.14,1.28l-.59.47c-.37-.48-.69-.87-.93-1.16v4.51h-.71v-4.67a9.71,9.71,0,0,1-1.31,2.8C69.11,116.19,69,115.91,68.88,115.62Zm3.45,1.54h2.79v-1.44H72.91v-.66h2.21v-1.33H72.67v-.65h5.69v.65H75.9v1.33h2.22v.66H75.9v1.44h2.8v.66H72.33Zm.78-8H78v3.35h-.74v-.4H73.85v.4h-.74Zm4.1.67H73.85v1.62h3.36Z"/><path d="M83.47,109l.71-.38c.25.32.48.66.7,1l-.47.28h4.16v.71H80.79v2.66a8.11,8.11,0,0,1-1.34,5.13,7.6,7.6,0,0,0-.56-.66c.72-.84,1.08-2.26,1.08-4.28v-3.56h4.11A9.39,9.39,0,0,0,83.47,109Zm-2.41,5h3.43c-.6-.45-1.18-.84-1.73-1.18l.47-.5c.49.3,1,.59,1.39.88l1.77-1H81.64v-.7h6.17v.71l-2.53,1.49c.09,0,.16.11.24.16l-.26.19h3.21v.72l-.85,1.75c-.19-.1-.43-.22-.72-.35l.69-1.41H85.25V117c0,.78-.37,1.18-1.12,1.18l-1.47,0q0-.33-.12-.84a10.42,10.42,0,0,0,1.35.11.5.5,0,0,0,.56-.56v-2.2H81.06Z"/><path d="M98.68,117.32a8,8,0,0,0-.58.74,8.83,8.83,0,0,1-3.94-2.26v2.59h-.74v-2.61a12.65,12.65,0,0,1-3.9,2.4c-.15-.2-.34-.42-.57-.67a11,11,0,0,0,3.62-1.77H89.13v-.65h4.29v-.88h-2.5v.28h-.73v-3.68h3.08v-2.1H94v.76h4.24v.64H94v.7h3.41v3.68h-.73v-.28H94.16v.88h4.39v.65H94.92A8.28,8.28,0,0,0,98.68,117.32Zm-2-5.9H90.92v.8h5.77Zm-5.77,2.19h5.77v-.8H90.92Z"/><path d="M59.62,123.31h3.1c.19-.49.34-.92.46-1.29H59.11v-.72H68.5V122H64.05c-.14.36-.32.79-.53,1.29H68v7H67.2v-.54H60.38v.55h-.76Zm.76,5.79H62V124H60.38Zm2.27-3.84h2.28V124H62.65Zm0,1.92h2.28v-1.3H62.65Zm0,1.92h2.28v-1.3H62.65ZM67.2,124H65.63v5.14H67.2Z"/><path d="M73.45,121l.72-.38a11.78,11.78,0,0,1,.8,1.16l-.48.27h4v.74h-7.6v2.4a7.92,7.92,0,0,1-1.43,5.16,7.87,7.87,0,0,0-.57-.67Q70,128.39,70,125.22v-3.16h4.14A12.09,12.09,0,0,0,73.45,121Zm-2.66,8H75.3a45.34,45.34,0,0,0,1.62-5.33l.85.24c-.61,2.15-1.15,3.84-1.62,5.09h2.41v.75H70.79Zm.52-4.79.75-.25c.4,1.18.79,2.51,1.17,4l-.83.25C72.1,127,71.74,125.62,71.31,124.25Zm2.36-.49.75-.21a38.51,38.51,0,0,1,.9,3.93l-.86.23A39.42,39.42,0,0,0,73.67,123.76Z"/><path d="M83.64,130.18v-3.11H80.8a6.25,6.25,0,0,1-1.19,3.37c-.16-.21-.36-.44-.57-.67a5.36,5.36,0,0,0,.86-2,16.31,16.31,0,0,0,.21-3V121.3h8v7.76c0,.78-.37,1.17-1.1,1.17l-1.52,0c0-.22-.08-.49-.14-.81q.84.06,1.38.06a.52.52,0,0,0,.6-.58v-1.8H84.42v3.11Zm-2.79-3.81h2.79v-1.83H80.89A15.77,15.77,0,0,1,80.85,126.37Zm0-4.35v1.82h2.75V122Zm6.4,0H84.42v1.82h2.87Zm-2.87,4.35h2.87v-1.83H84.42Z"/><path d="M53.74,37.6h6V35.91h.8V37.6H63v.71H60.55v3.36A1.18,1.18,0,0,1,59.28,43h-1.6c0-.28-.09-.54-.15-.8.64,0,1.1.06,1.39.06.55,0,.83-.26.83-.8V38.31h-6Zm.35-3h4c-.14-.29-.3-.59-.47-.88l.73-.33c.21.38.42.78.62,1.21h3.65v1.94h-.78V35.35h-7v1.24h-.78ZM55,39.32l.57-.52c.75.65,1.42,1.28,2,1.89L57,41.3A18.6,18.6,0,0,0,55,39.32Z"/><path d="M63.49,38.72c.46-.12.94-.25,1.44-.4V36.07H63.62V35.4h1.31V33.56h.75V35.4h1.24v.67H65.68v2l1.24-.37c0,.33,0,.58,0,.77l-1.25.37v3a.93.93,0,0,1-1,1.07h-.9c0-.28-.08-.55-.14-.81.39,0,.68,0,.89,0s.42-.15.42-.45V39.11l-1.35.44Zm5.67-4.82.65-.41c.26.32.56.69.87,1.14l-.63.41h2.66v4.34H72v-.47H68.19a7.46,7.46,0,0,1-1.39,4.25,6.7,6.7,0,0,0-.64-.56,7,7,0,0,0,1.29-4.53V35H70C69.67,34.61,69.41,34.23,69.16,33.9Zm-1,1.84v2.47H72V35.74Z"/><path d="M73.42,40.43a10.86,10.86,0,0,0,1.48-3.34H73.54v-.65h1.52V34.91l-1.26.17a4.42,4.42,0,0,0-.21-.68,23.08,23.08,0,0,0,3.35-.53l.22.69-1.4.25v1.63h1.36v.65H75.76v1.29l.38-.34c.26.27.64.7,1.15,1.28l-.59.48c-.38-.48-.69-.87-.94-1.16v4.51h-.7V38.47a10,10,0,0,1-1.31,2.81C73.65,41,73.54,40.71,73.42,40.43ZM76.87,42h2.79V40.52H77.44v-.65h2.22V38.54H77.21v-.65H82.9v.65H80.44v1.33h2.22v.65H80.44V42h2.79v.65H76.87Zm.78-8h4.84v3.35h-.74v-.4H78.39v.4h-.74Zm4.1.67H78.39v1.62h3.36Z"/><path d="M88,33.8l.7-.38a11.35,11.35,0,0,1,.71,1l-.47.27h4.16v.72H85.32v2.65A8.15,8.15,0,0,1,84,43.2a7.89,7.89,0,0,0-.56-.66c.72-.84,1.07-2.26,1.07-4.28V34.69h4.11A10.6,10.6,0,0,0,88,33.8Zm-2.41,5H89c-.61-.45-1.18-.84-1.73-1.18l.46-.5c.49.29,1,.59,1.4.88l1.77-1H86.17v-.7h6.17v.71l-2.52,1.49.24.16-.26.19H93v.72l-.85,1.75c-.2-.11-.44-.22-.72-.35l.69-1.41H89.79V41.8c0,.79-.38,1.19-1.13,1.19L87.2,43c0-.22-.07-.51-.12-.84a10.1,10.1,0,0,0,1.35.1.49.49,0,0,0,.56-.55v-2.2H85.6Z"/><path d="M60.93,46.27l-2.12,7.57H57.67l-1.52-5.45a3.34,3.34,0,0,1-.12-.78h0a3.75,3.75,0,0,1-.14.77l-1.54,5.46H53.21L51,46.27h1.08L53.64,52a4.11,4.11,0,0,1,.12.77h0A3.91,3.91,0,0,1,54,52l1.63-5.72h1L58.11,52a6.4,6.4,0,0,1,.13.72h0A3.49,3.49,0,0,1,58.4,52l1.48-5.74Z"/><path d="M66.05,51.38H62.27a2,2,0,0,0,.48,1.34,1.67,1.67,0,0,0,1.25.47,2.67,2.67,0,0,0,1.67-.58v.85a3.2,3.2,0,0,1-1.89.51A2.31,2.31,0,0,1,62,53.22a3,3,0,0,1-.66-2.06,2.94,2.94,0,0,1,.72-2,2.3,2.3,0,0,1,1.79-.81,2.1,2.1,0,0,1,1.66.68,2.85,2.85,0,0,1,.59,1.91Zm-1-.76a1.76,1.76,0,0,0-.35-1.14,1.22,1.22,0,0,0-1-.4,1.33,1.33,0,0,0-1,.43,2,2,0,0,0-.53,1.11Z"/><path d="M68.28,53.08v.76h-1v-8h1v3.52h0a2,2,0,0,1,1.86-1.06,2,2,0,0,1,1.61.72,2.93,2.93,0,0,1,.6,1.95,3.3,3.3,0,0,1-.67,2.18,2.2,2.2,0,0,1-1.79.81,1.8,1.8,0,0,1-1.61-.89Zm0-1.46a1.56,1.56,0,0,0,.42,1.1,1.42,1.42,0,0,0,1.07.45A1.39,1.39,0,0,0,71,52.59,2.66,2.66,0,0,0,71.39,51a2.1,2.1,0,0,0-.4-1.36,1.32,1.32,0,0,0-1.09-.51,1.51,1.51,0,0,0-1.16.5,1.83,1.83,0,0,0-.46,1.28Z"/><path d="M80.46,45.82l.71-.38A10.28,10.28,0,0,1,82,46.6l-.47.27h4v.74H77.85V50a7.86,7.86,0,0,1-1.43,5.16,6.21,6.21,0,0,0-.56-.67C76.64,53.63,77,52.13,77,50V46.87h4.13A12,12,0,0,0,80.46,45.82Zm-2.67,8h4.52a46.23,46.23,0,0,0,1.61-5.33l.85.24q-.9,3.21-1.62,5.09h2.41v.75H77.79Zm.53-4.79.74-.26c.4,1.19.8,2.52,1.17,4L79.4,53C79.1,51.75,78.74,50.43,78.32,49.06Zm2.35-.49.75-.22a39.36,39.36,0,0,1,.9,3.94l-.86.23A39.42,39.42,0,0,0,80.67,48.57Z"/><path d="M90.64,55V51.88H87.8a6.27,6.27,0,0,1-1.18,3.37,8.37,8.37,0,0,0-.58-.67,5.18,5.18,0,0,0,.86-2,15.2,15.2,0,0,0,.22-3V46.11h8v7.76c0,.78-.37,1.16-1.11,1.16l-1.51,0c0-.22-.08-.49-.15-.82q.85.06,1.38.06c.4,0,.61-.19.61-.57v-1.8H91.42V55Zm-2.79-3.81h2.79V49.35H87.9A15.73,15.73,0,0,1,87.85,51.18Zm.05-4.35v1.82h2.74V46.83Zm6.4,0H91.42v1.82H94.3Zm-2.88,4.35H94.3V49.35H91.42Z"/><path d="M115.57,67.64l.72.31-.45.53h4.5v.62a6.87,6.87,0,0,1-2.15,1.62,13.63,13.63,0,0,0,4,.52,7,7,0,0,0-.49.79,14.4,14.4,0,0,1-4.34-.92,18.7,18.7,0,0,1-4.64,1.11,3.87,3.87,0,0,0-.41-.7,20,20,0,0,0,4.19-.82,5.36,5.36,0,0,1-1.52-1.28,12.61,12.61,0,0,1-1.51,1.26c-.15-.17-.32-.35-.51-.53A10,10,0,0,0,115.57,67.64ZM112.9,67h4.21a8.27,8.27,0,0,0-.64-.86l.67-.42c.26.3.53.63.81,1l-.45.28h4.13v1.83h-.72V67.6h-7.29v1.18h-.72Zm1.17,5.32h6.37v3.11h-.73V75h-4.92v.41h-.72Zm5.64.63h-4.92v1.44h4.92Zm-.41-3.8h-3.73a5,5,0,0,0,1.73,1.27A6.37,6.37,0,0,0,119.3,69.11Z" fill="#00b0f0"/><path d="M126.49,66.12l.71-.42c.31.37.62.77.92,1.21l-.48.3h3.65v4.33h-.78V71h-6.17a7.67,7.67,0,0,1-1.45,4.49c-.18-.21-.37-.43-.57-.64a7.06,7.06,0,0,0,1.25-4.57v-3.1h3.73A12.77,12.77,0,0,0,126.49,66.12Zm-2.14,1.8v2.41h6.16V67.92Z" fill="#00b0f0"/><path d="M135.5,69.15c-.13,1-.36,2.31-.7,4,.34-.07.65-.14.93-.22,0,.26,0,.49,0,.7-.74.18-1.81.41-3.22.7l-.15-.73c.66-.11,1.25-.21,1.79-.32.32-2,.53-3.39.64-4.31Zm-3-1.4h3.35v.63h-3.35Zm.13,1.53.66-.14c.21.93.43,2.07.64,3.42l-.67.18C133.06,71.44,132.85,70.29,132.61,69.28Zm.67-3.12.6-.35a9.56,9.56,0,0,1,1,1.46l-.64.39A14.06,14.06,0,0,0,133.28,66.16Zm2.49,3.34h6.32v.63h-2.93l-.27,1.07h2.74v3.24c0,.56-.25.84-.74.84h-.72a3.43,3.43,0,0,0-.19-.72c.22,0,.44,0,.67,0s.3-.1.3-.31V71.8h-1v3.07h-.65V71.8h-1v3h-.66v-3h-1v3.57H136V71.2h2.18l.23-1.07h-2.64Zm4.91-.64v-.3h-4.41v-2.2H137V68h1.51V65.75h.71V68h1.51v-1.6h.69v2.5Z" fill="#00b0f0"/><path d="M144.84,65.89l.65.38c-.32.46-.62.89-.91,1.28V71.3h-.73V68.48c-.35.41-.68.77-1,1.08a4.75,4.75,0,0,0-.5-.53A18.49,18.49,0,0,0,144.84,65.89Zm4.34,5.92v2c0,.39.17.58.52.58h.65a.66.66,0,0,0,.74-.51,12.81,12.81,0,0,0,.2-1.37c.21.1.46.2.75.31q-.1.77-.24,1.35a1.07,1.07,0,0,1-1.19.92h-1.14c-.71,0-1.06-.36-1.06-1.1V72.47H145.7v.18a2.45,2.45,0,0,1-.6,1.81,5.21,5.21,0,0,1-2.18,1c-.15-.22-.31-.44-.5-.68a5.37,5.37,0,0,0,2-.8,1.7,1.7,0,0,0,.5-1.4v-.78Zm-3.66-1.53H148V69.05h-2.89v-.67H148V67.16c-.74,0-1.5.08-2.28.1,0-.22-.08-.45-.14-.69a52.3,52.3,0,0,0,5.35-.36l.13.7c-.74.08-1.51.15-2.32.2v1.27H152v.67h-3.21v1.23h2.66V71h-5.89Z" fill="#00b0f0"/><path d="M152.39,71l1.35-.38V68.42h-1.23v-.7h1.23V65.86h.72v1.86h1.07v.7h-1.07v2l.91-.3a7.12,7.12,0,0,0,.06.76l-1,.32v3c0,.73-.32,1.11-1,1.12-.2,0-.5,0-.89,0q0-.39-.12-.81a8,8,0,0,0,.82.06c.29,0,.44-.17.44-.5V71.45l-1.25.43Zm4.38,1h2V70.79H156.5a7.87,7.87,0,0,1-1.38,4.64c-.16-.21-.34-.41-.53-.62a7.27,7.27,0,0,0,1.22-4.62V66.38h5.76v2.83h-.7v-.3h-4.36v1.21h2.27v-1h.7v1h2.58v.67h-2.58V72h2v3.3h-.7v-.57h-3.34v.57h-.7Zm4.1-5h-4.36v1.24h4.36Zm-.06,5.64h-3.34v1.46h3.34Z" fill="#00b0f0"/><path d="M162.36,69l.49-.57c.53.37,1.08.79,1.66,1.26-.23.28-.42.49-.57.64C163.27,69.76,162.74,69.32,162.36,69Zm.3,6a32.1,32.1,0,0,0,1-3.78c.29.12.55.22.79.3-.29,1.12-.61,2.37-.95,3.75Zm.08-8.58.5-.52q.72.57,1.59,1.35l-.57.58A20.5,20.5,0,0,0,162.74,66.49Zm3.1,4.37h.74a7.73,7.73,0,0,1-.4,3,3.45,3.45,0,0,1-1.62,1.61,4,4,0,0,0-.5-.64,2.88,2.88,0,0,0,1.42-1.35A6.56,6.56,0,0,0,165.84,70.86Zm4.23-2.59c.5.58,1.07,1.3,1.69,2.14-.25.15-.48.3-.71.46l-.47-.69c-1.6.07-3.07.14-4.41.22a3.71,3.71,0,0,0-.78.11l-.33-.73a3.34,3.34,0,0,0,.68-.45,10.5,10.5,0,0,0,1.5-1.59h-2.16v-.69h3.1c-.25-.39-.49-.72-.71-1l.64-.4c.24.31.52.66.82,1.07l-.5.34h3.32v.69h-4.32l.64.27a19.4,19.4,0,0,1-1.69,1.64l3.73-.12c-.23-.31-.44-.59-.65-.85Zm-2.31,2.59h.73v4.35h-.73Zm1.79,0h.73v3.27c0,.3.12.45.35.45H171c.21,0,.33-.17.39-.5s.07-.76.08-1.23a7.12,7.12,0,0,0,.74.28q-.08.82-.15,1.26a.87.87,0,0,1-.93.87h-.6c-.64,0-.95-.38-.95-1.14Z" fill="#00b0f0"/></svg>