<svg xmlns="http://www.w3.org/2000/svg" viewBox="0 0 224.4 98.83"><title>OJ104544462</title><path d="M60.23,66.79H46V38.41H60.23v7.68H61V37.65H45.26v29.9H61V65.23h-.76Z" fill="#0078d7"/><path d="M59.47,39.21H46.83v4.58H59.47Zm-9.58,1.91h6.53v.76H49.89ZM56.48,43H49.86V42.2h6.62Z" fill="#0078d7"/><path d="M46.79,44.57v3h8.6V46.1h4.08V44.57Z" fill="#0078d7"/><rect x="46.79" y="48.38" width="8.6" height="2.68" fill="#0078d7"/><path d="M46.79,66H59.44v-.79H55.36V51.85h-8.6V66Zm1.53-2.73h2.29V64.5H48.32Z" fill="#0078d7"/><path d="M70,63H67.55V61.09H65V63H62.59a1.32,1.32,0,0,0-1.31,1.14h10C71.35,63.54,70.68,63,70,63Z" fill="#0078d7"/><path d="M74.85,49H57.75a.64.64,0,0,0-.67.6V59.72a.64.64,0,0,0,.67.6h17.1a.64.64,0,0,0,.67-.6V49.59A.62.62,0,0,0,74.85,49Zm-1,9.84H58.77V50.52H73.83Z" fill="#0078d7"/><path d="M70.21,56.35V52.91L66.7,51.06l-3.5,1.78v3.54l3.5,1.81Zm-4.4-2.3.89-.44.86.44-.86.48Zm0-1.14.86-.45.86.45-.86.48Zm1.91,4.52-1,.51V57l1-.51Zm0-1.18-1,.51v-.92l1-.51Zm0-1.11-1,.51v-.93l1-.51Zm-.82-1.66.86-.44.89.44-.86.45Zm2,3.35-1,.5v-.92l1-.51Zm0-1.18-1,.51v-.93l1-.51Zm0-1.15L68,55v-.89l1-.51Zm1,1.75-.86.45v-.93l.86-.44Zm0-1.14-.86.44v-.92l.86-.45ZM70,54l-.86.44v-.92L70,53Zm-.19-1.05-.89.44L68,52.91l.86-.45Zm-1.11-.58-.89.45-.86-.45.86-.44Zm-2-1,.86.45-.86.45-.89-.45Zm-1.11.61.86.44-.86.45-.86-.45Zm-1.08.57.89.45-.89.44-.9-.44Zm-.26,4.27-.86-.45v-.92l.86.45Zm0-1.18-.86-.44v-.93l.86.45Zm0-1.15L63.39,54v-.89l.86.44Zm1.18,2.93-1-.5V55.9l1,.51Zm0-1.17-1-.51v-.93l1,.51Zm0-1.15-1-.51v-.89l1,.51Zm-.7-1.53.89-.44.86.44-.89.48Zm1.88,4.46-1-.51v-.89l1,.51Zm0-1.15-1-.51v-.92l1,.51Zm0-1.14-1-.51v-.93l1,.51Z" fill="#0078d7"/><g style="isolation:isolate"><path d="M48.63,78.21c-.22.27-.42.52-.57.74a8.78,8.78,0,0,1-4-2.26v2.6h-.73V76.67a12.7,12.7,0,0,1-3.91,2.4c-.15-.19-.33-.42-.56-.66a11.13,11.13,0,0,0,3.62-1.78H39.08V76h4.3v-.87h-2.5v.27h-.73V71.71h3.07v-2.1H44v.75H48.2V71H44v.71h3.4v3.67h-.73v-.27H44.11V76h4.4v.65H44.88A8.29,8.29,0,0,0,48.63,78.21Zm-2-5.9H40.88v.8h5.76ZM40.88,74.5h5.76v-.8H40.88Z" fill="#008bfd"/><path d="M49.58,72.21h3.1c.19-.5.34-.93.46-1.29H49.06v-.73h9.4v.73H54q-.21.52-.54,1.29h4.44v7h-.75v-.55H50.33v.56h-.75ZM50.33,78h1.58V72.85H50.33Zm2.28-3.85h2.27v-1.3H52.61Zm0,1.92h2.27v-1.3H52.61Zm0,1.93h2.27V76.7H52.61Zm4.55-5.15H55.59V78h1.57Z" fill="#008bfd"/><path d="M63.41,69.9l.71-.38a11.27,11.27,0,0,1,.8,1.16l-.47.28h4v.74H60.8v2.39a7.93,7.93,0,0,1-1.42,5.17,7.91,7.91,0,0,0-.57-.68Q60,77.27,60,74.11V71h4.13A10.21,10.21,0,0,0,63.41,69.9Zm-2.67,8h4.52a46.57,46.57,0,0,0,1.62-5.33l.85.23q-.92,3.22-1.63,5.1h2.42v.74H60.74Zm.53-4.8.74-.25c.41,1.18.8,2.51,1.18,4l-.84.26C62.06,75.84,61.69,74.51,61.27,73.14Zm2.35-.49.76-.21c.33,1.17.63,2.48.89,3.94l-.85.22A39.51,39.51,0,0,0,63.62,72.65Z" fill="#008bfd"/><path d="M73.6,79.07V76H70.75a6.24,6.24,0,0,1-1.18,3.36c-.17-.21-.36-.43-.57-.67a5.12,5.12,0,0,0,.85-2,15.25,15.25,0,0,0,.22-3V70.19h8V78c0,.77-.37,1.16-1.1,1.16l-1.52,0c0-.21-.08-.49-.14-.81.56,0,1,.06,1.37.06s.61-.19.61-.58V76H74.38v3.1Zm-2.79-3.81H73.6V73.44H70.85A15.55,15.55,0,0,1,70.81,75.26Zm0-4.34v1.81H73.6V70.92Zm6.4,0H74.38v1.81h2.87Zm-2.87,4.34h2.87V73.44H74.38Z" fill="#008bfd"/></g><path d="M7.85,44.76a4.5,4.5,0,0,0-3,5.67c.66,2.55,3,4.21,5.27,3.66a4.49,4.49,0,0,0,3-5.66C12.57,45.76,10.16,44.1,7.85,44.76Z" fill="#008bfd"/><path d="M12.78,54.78c-.43,0-.88.77-1.54,1.11s-1.31.89-3.17,0S6,54.22,4.43,54.22s-4,2.78-4,6.88H16a12.15,12.15,0,0,0-1.11-4.21C13.77,54.78,13.23,54.78,12.78,54.78Z" fill="#008bfd"/><path d="M14.19,49.84H10.07a.7.7,0,0,0-.65.65v2.85a.73.73,0,0,0,.76.66h.76v5.15a1,1,0,0,0,1,1.09,1,1,0,0,0,1-1h.21V58.6c0-.22.33-.33.33-.33v-.33c-.33-.11-.54-.32-.54-.43v-.33L13.1,57a3.53,3.53,0,0,0,.33-.55,2.4,2.4,0,0,1-.33-.55c-.1-.11-.1-.33-.21-.44V55.2a2.52,2.52,0,0,1,.76-1.09h.54a.71.71,0,0,0,.65-.66v-3A.62.62,0,0,0,14.19,49.84ZM11.8,59.37c0,.22,0,.33-.21.33s-.22-.22-.22-.33V54.55c0-.22.11-.33.22-.33s.21.22.21.33Zm.33-7.78a.66.66,0,0,1,0-1.32.71.71,0,0,1,.65.66A.63.63,0,0,1,12.13,51.59Z" fill="#008bfd" stroke="gray" stroke-linecap="round" stroke-linejoin="round" stroke-width="0.75"/><path d="M11.57,59.67a.24.24,0,0,1-.22-.22v-5a.22.22,0,0,1,.44,0v5.1C11.79,59.67,11.68,59.67,11.57,59.67Z" fill="#fff"/><ellipse cx="12.14" cy="50.92" rx="0.66" ry="0.67" fill="#fff"/><path d="M191.76,41.68h-20.5a1.1,1.1,0,0,0-1.09,1.11V59.53a1.09,1.09,0,0,0,1.09,1.1h5.28a3.29,3.29,0,0,0,3.21,2.27,3.37,3.37,0,0,0,0-6.74,3.29,3.29,0,0,0-3.21,2.27h-4.19v-12h18.31v12h-3.45a7.61,7.61,0,0,0-7.46-6.57,8.25,8.25,0,0,0-3.64.92l1,2a5.28,5.28,0,0,1,2.55-.68,5.46,5.46,0,0,1,0,10.92,5.28,5.28,0,0,1-2.55-.68l-1,2a7.4,7.4,0,0,0,3.64.92,7.61,7.61,0,0,0,7.46-6.56h4.55a1.09,1.09,0,0,0,1.09-1.1V42.79A1.14,1.14,0,0,0,191.76,41.68Z" fill="#008bfd"/><g style="isolation:isolate"><path d="M168.9,77.92h-1.08l-.77-2.07H163.9l-.72,2.07H162.1L165,70.36h1ZM166.75,75l-1.14-3.15a2.7,2.7,0,0,1-.12-.52h0a2.78,2.78,0,0,1-.13.52L164.21,75Z" fill="#008bfd"/><path d="M171,75.1v2.82h-1V70.36h2.15a2.82,2.82,0,0,1,1.9.59,2.12,2.12,0,0,1,.67,1.69,2.27,2.27,0,0,1-.79,1.8,2.76,2.76,0,0,1-2,.66Zm0-3.88v3h.91a2,2,0,0,0,1.35-.41,1.43,1.43,0,0,0,.47-1.15c0-1-.58-1.46-1.73-1.46Z" fill="#008bfd"/><path d="M177.09,70.36v7.56h-1V70.36Z" fill="#008bfd"/><path d="M185.68,69.9l.71-.38a12.48,12.48,0,0,1,.8,1.16l-.47.28h4v.74h-7.61v2.39a7.93,7.93,0,0,1-1.43,5.17,6.25,6.25,0,0,0-.56-.68q1.17-1.31,1.17-4.47V71h4.13C186.17,70.6,185.93,70.25,185.68,69.9Zm-2.67,8h4.52a49,49,0,0,0,1.61-5.33l.85.23q-.92,3.22-1.62,5.1h2.41v.74H183Zm.53-4.8.74-.25c.4,1.18.79,2.51,1.17,4l-.83.26Q184.17,75.2,183.54,73.14Zm2.35-.49.75-.21a38.12,38.12,0,0,1,.9,3.94l-.86.22A40,40,0,0,0,185.89,72.65Z" fill="#008bfd"/><path d="M195.86,79.07V76H193a6.32,6.32,0,0,1-1.18,3.36c-.17-.21-.36-.43-.58-.67a5.29,5.29,0,0,0,.86-2,16.07,16.07,0,0,0,.22-3V70.19h7.95V78c0,.77-.36,1.16-1.1,1.16l-1.51,0c0-.21-.08-.48-.15-.81q.85.06,1.38.06c.4,0,.6-.19.6-.58V76h-2.87v3.1Zm-2.79-3.81h2.79V73.44h-2.74A15.49,15.49,0,0,1,193.07,75.26Zm.05-4.34v1.81h2.74V70.92Zm6.39,0h-2.87v1.81h2.87Zm-2.87,4.34h2.87V73.44h-2.87Z" fill="#008bfd"/></g><path d="M161.69,50.43l8.05,4-3.46,1.74-4.5,2.27a9,9,0,0,0,0-8" fill="#505050"/><rect x="36.94" y="8" width="187.09" height="20" fill="none"/><g style="isolation:isolate"><path d="M44.58,6.37H41.7V5.63h2.88Z" fill="#00b0f0"/><path d="M48.34,6c.39-.16.81-.35,1.25-.57V3.27H48.42V2.58h1.17V.69h.72V2.58h1.11v.69H50.31V5.12l1-.5c0,.32,0,.58.08.78l-1,.53V9.18c0,.68-.32,1-1,1h-.76q0-.39-.12-.81c.31,0,.56,0,.74,0s.38-.12.38-.37V6.3l-1.15.59ZM52,6.39V5.71h5.11v.67a6.24,6.24,0,0,1-1.78,2.26,7.47,7.47,0,0,0,2.86.88c-.22.28-.4.55-.56.79a7.68,7.68,0,0,1-3-1.19,9.81,9.81,0,0,1-3.31,1.25c-.13-.22-.28-.46-.47-.72a9.59,9.59,0,0,0,3.18-1,5.56,5.56,0,0,1-1.46-2.24Zm-.37-2.48h4.2c.34-.61.67-1.23,1-1.85l.75.32c-.29.52-.6,1-.92,1.53h1.28V5.42h-.75V4.6H52.33v.82h-.74Zm.2-1.81c0-.23-.08-.47-.14-.72,2.2,0,4.19-.17,6-.35l.14.7C55.75,1.9,53.76,2,51.79,2.1Zm.28.43.61-.31c.27.41.52.83.77,1.28l-.64.34A11.09,11.09,0,0,0,52.07,2.53Zm4.14,3.86h-2.9a4.49,4.49,0,0,0,1.35,1.82A4.92,4.92,0,0,0,56.21,6.39Zm-2.2-4,.61-.27q.42.72.72,1.32l-.67.31A13.18,13.18,0,0,0,54,2.35Z" fill="#00b0f0"/><path d="M58.32,6.89a11.3,11.3,0,0,0,1.5-3.41h-1.4V2.8H60V.73h.74V2.8h1.37v.68H60.69V4.77l.42-.39a16.51,16.51,0,0,1,1.41,1.48l-.58.54c-.44-.55-.86-1-1.25-1.45v5.38H60V5a11.52,11.52,0,0,1-1.29,2.77A6.66,6.66,0,0,0,58.32,6.89ZM61.87,2.1V1.36h5.55v.72a11.29,11.29,0,0,1-2.07,5.47,8,8,0,0,0,2.79,1.76,8.49,8.49,0,0,0-.66.81,9.83,9.83,0,0,1-2.67-1.93,11.42,11.42,0,0,1-3.11,2.17,5.29,5.29,0,0,0-.54-.74A11.07,11.07,0,0,0,64.3,7.56,10.29,10.29,0,0,1,62.48,2.1Zm4.72,0H63.26A9.42,9.42,0,0,0,64.83,7,10.34,10.34,0,0,0,66.59,2.1Z" fill="#00b0f0"/><path d="M68.29,5.37A16.89,16.89,0,0,0,70.7.68l.78.27c-.29.76-.59,1.47-.91,2.12v7.24h-.8V4.57a16.39,16.39,0,0,1-1.15,1.68C68.53,6,68.42,5.69,68.29,5.37Zm2.83-1.28,2.31-.26C73.35,3,73.3,2,73.27.74h.85a25.84,25.84,0,0,0,.12,3l3.58-.39.08.72-3.58.39q.54,4.05,2.12,4.85c.29.12.47,0,.56-.28.12-.46.22-1,.31-1.57a7.41,7.41,0,0,0,.78.28,14.46,14.46,0,0,1-.35,1.68,1,1,0,0,1-1,.83,2.18,2.18,0,0,1-1.6-1,9.21,9.21,0,0,1-1.57-4.69l-2.29.25ZM75,1.51,75.52,1c.57.44,1.16.92,1.76,1.46l-.6.6A19.9,19.9,0,0,0,75,1.51Z" fill="#00b0f0"/><path d="M78.34,6.1a10.93,10.93,0,0,0,1.73-3.77H78.63V1.61h3.65v.72H80.82A15,15,0,0,1,80,4.62h1.89V9.91h-.7V9.23H80V10h-.69V6a8.57,8.57,0,0,1-.55.79A5.09,5.09,0,0,0,78.34,6.1Zm2.89-.82H80V8.59h1.22Zm1.09,1.93h4.12v.71H82.32Zm1.57-4.88-.25,2.86h2.3L86.26,2h-3.6v-.7h4.42l-.41,3.91h1c0,1.32-.1,2.47-.16,3.44s-.52,1.45-1.38,1.45l-1.47,0c0-.24-.08-.51-.14-.81A12.88,12.88,0,0,0,86,9.33c.5,0,.77-.27.81-.83q.08-1.08.12-2.61H82.85l.3-3.56Z" fill="#00b0f0"/><path d="M88.35,3.92l.49-.56c.53.36,1.08.78,1.66,1.26-.23.27-.42.48-.56.63C89.26,4.64,88.73,4.2,88.35,3.92Zm.31,6a31,31,0,0,0,1-3.79c.29.12.55.22.79.3-.29,1.13-.61,2.38-.94,3.75Zm.07-8.59.5-.51c.48.37,1,.82,1.59,1.34l-.57.58A20.5,20.5,0,0,0,88.73,1.37Zm3.1,4.37h.74a7.83,7.83,0,0,1-.4,3,3.36,3.36,0,0,1-1.62,1.61,3.62,3.62,0,0,0-.5-.65,2.82,2.82,0,0,0,1.42-1.34A6.65,6.65,0,0,0,91.83,5.74Zm4.23-2.59c.51.59,1.07,1.3,1.69,2.14-.24.15-.48.3-.7.46l-.48-.69-4.41.22a4.67,4.67,0,0,0-.78.12l-.33-.74a3.34,3.34,0,0,0,.68-.45,10.56,10.56,0,0,0,1.51-1.59H91.07V1.93h3.1c-.25-.38-.48-.72-.71-1l.65-.4.82,1.08-.51.33h3.32v.69H93.42l.65.28a21,21,0,0,1-1.7,1.64l3.73-.13c-.22-.31-.44-.59-.65-.85ZM93.75,5.74h.74v4.35h-.74Zm1.79,0h.73V9q0,.45.36.45H97c.2,0,.33-.17.38-.5s.07-.76.09-1.23a4.82,4.82,0,0,0,.73.28Q98.1,8.8,98,9.23a.87.87,0,0,1-.93.87h-.6c-.63,0-.95-.38-.95-1.14Z" fill="#00b0f0"/><path d="M100.62,10.71A6.71,6.71,0,0,1,99,6.11a7,7,0,0,1,1.65-4.68h.84A7.19,7.19,0,0,0,99.81,6.1a7,7,0,0,0,1.64,4.61Z" fill="#00b0f0"/><path d="M101.76,1.91h2V.72h.74V1.91h1.68V.72h.73V1.91h1.69V.72h.73V1.91h2v.68h-2V3.67h-.73V2.59h-1.69V3.67h-.73V2.59h-1.68V3.67h-.74V2.59h-2Zm.33,2.15h9V5.84h-.76V4.74h-7.43v1.1h-.77Zm1.82,5.41h-.76V5.93h3V5H107v.9h3V8.46c0,.6-.32.9-1,.9h-1.28a7.34,7.34,0,0,0-.15-.73c.59,0,1,.06,1.19.06s.46-.14.46-.41V6.62H107v3.69h-.78V6.62h-2.28Z" fill="#00b0f0"/><path d="M114.47,10.27h-.77v-5a16.71,16.71,0,0,1-1.57,1.58c-.13-.22-.29-.46-.47-.71a12.38,12.38,0,0,0,3-3.5h-2.67V1.87h3a9.47,9.47,0,0,0,.48-1.25l.81.19c-.13.36-.27.71-.43,1.06h5.52v.72h-5.87a12.8,12.8,0,0,1-.66,1.13h5.35V8.93A1.05,1.05,0,0,1,119,10.14h-1.57l-.15-.8c.6.05,1.08.07,1.44.07a.59.59,0,0,0,.68-.66v-.7h-4.92Zm4.92-5.87h-4.92V5.56h4.92Zm-4.92,3h4.92V6.23h-4.92Z" fill="#00b0f0"/><path d="M126.48,6.17V9h-1V1.43h2.15a2.81,2.81,0,0,1,1.9.59,2.14,2.14,0,0,1,.68,1.69,2.29,2.29,0,0,1-.79,1.81,2.79,2.79,0,0,1-2,.65Zm0-3.88v3h.9a2.06,2.06,0,0,0,1.36-.4,1.46,1.46,0,0,0,.46-1.16c0-1-.57-1.46-1.72-1.46Z" fill="#00b0f0"/><path d="M137,9h-1.34l-2.84-3.44a1.92,1.92,0,0,1-.2-.29h0V9h-1V1.43h1V5h0c.06-.09.12-.18.2-.28l2.75-3.28h1.2L133.6,5.06Z" fill="#00b0f0"/><path d="M142.67,8.68a4.37,4.37,0,0,1-2.09.44,3.39,3.39,0,0,1-2.6-1,3.82,3.82,0,0,1-1-2.73,4,4,0,0,1,1.09-2.94,3.75,3.75,0,0,1,2.78-1.12,4.6,4.6,0,0,1,1.79.31v1a3.59,3.59,0,0,0-1.78-.45,2.67,2.67,0,0,0-2.06.85A3.16,3.16,0,0,0,138,5.3a3.05,3.05,0,0,0,.74,2.15,2.53,2.53,0,0,0,1.95.8,3.72,3.72,0,0,0,1.95-.5Z" fill="#00b0f0"/><path d="M148.25,9h-4.07V1.43h3.9V2.3h-2.92V4.72h2.71v.87h-2.71V8.13h3.09Z" fill="#00b0f0"/><path d="M148.83,10.71a6.94,6.94,0,0,0,1.64-4.61,7.19,7.19,0,0,0-1.65-4.67h.85a7,7,0,0,1,1.65,4.68,6.67,6.67,0,0,1-1.65,4.6Z" fill="#00b0f0"/><path d="M44.58,18.37H41.7v-.74h2.88Z" fill="#00b0f0"/><path d="M58.28,13.43,56.16,21H55L53.5,15.55a4,4,0,0,1-.13-.79h0a3.85,3.85,0,0,1-.13.78L51.68,21H50.55l-2.19-7.57h1.08L51,19.14a3.51,3.51,0,0,1,.12.78h0a5.13,5.13,0,0,1,.16-.78l1.64-5.71h1l1.56,5.76a3.75,3.75,0,0,1,.13.72h0a4.1,4.1,0,0,1,.14-.74l1.49-5.74Z" fill="#00b0f0"/><path d="M59.14,13.69a.58.58,0,0,1,.6-.6.64.64,0,0,1,.44.17.58.58,0,0,1,.18.43.54.54,0,0,1-.18.42.64.64,0,0,1-.44.17.6.6,0,0,1-.43-.17A.57.57,0,0,1,59.14,13.69ZM59.25,21V15.59h1V21Z" fill="#00b0f0"/><path d="M66.48,21h-1V17.92c0-1.11-.4-1.66-1.21-1.66a1.33,1.33,0,0,0-1,.47,1.74,1.74,0,0,0-.4,1.18V21h-1V15.59h1v.9h0a1.93,1.93,0,0,1,1.77-1A1.64,1.64,0,0,1,66,16a2.55,2.55,0,0,1,.46,1.65Z" fill="#00b0f0"/><path d="M72.77,21h-1v-.9h0a2,2,0,0,1-1.83,1,2,2,0,0,1-1.64-.73,3,3,0,0,1-.6-2,3.21,3.21,0,0,1,.68-2.14,2.23,2.23,0,0,1,1.79-.81,1.69,1.69,0,0,1,1.6.86h0V13h1Zm-1-3.22a1.5,1.5,0,0,0-.43-1.08,1.4,1.4,0,0,0-1-.44,1.43,1.43,0,0,0-1.2.57,2.42,2.42,0,0,0-.44,1.55,2.23,2.23,0,0,0,.42,1.43,1.35,1.35,0,0,0,1.12.52,1.44,1.44,0,0,0,1.14-.51,1.94,1.94,0,0,0,.44-1.29Z" fill="#00b0f0"/><path d="M74.12,18.35a2.91,2.91,0,0,1,.74-2.11,2.72,2.72,0,0,1,2-.77,2.5,2.5,0,0,1,1.91.74,2.92,2.92,0,0,1,.69,2.06,2.93,2.93,0,0,1-.74,2.07,2.59,2.59,0,0,1-2,.78,2.52,2.52,0,0,1-1.93-.76A2.81,2.81,0,0,1,74.12,18.35Zm1,0a2.14,2.14,0,0,0,.47,1.47,1.61,1.61,0,0,0,1.27.54,1.52,1.52,0,0,0,1.25-.52,2.32,2.32,0,0,0,.43-1.51,2.3,2.3,0,0,0-.43-1.51,1.5,1.5,0,0,0-1.25-.53,1.56,1.56,0,0,0-1.27.55A2.27,2.27,0,0,0,75.09,18.32Z" fill="#00b0f0"/><path d="M87.75,15.59,86.14,21h-1l-1.08-3.79a4.34,4.34,0,0,1-.09-.52h0a2,2,0,0,1-.11.51L82.69,21h-1L80.1,15.59h1l1.08,4a3.55,3.55,0,0,1,.07.49h0a2.09,2.09,0,0,1,.09-.51l1.16-4h.89l1.13,4a3.49,3.49,0,0,1,.08.5h0a2.81,2.81,0,0,1,.09-.5l1.06-4Z" fill="#00b0f0"/><path d="M88.43,19.83a2.58,2.58,0,0,0,1.55.52c.75,0,1.12-.24,1.12-.73a.66.66,0,0,0-.24-.52,4.08,4.08,0,0,0-1-.48,2.91,2.91,0,0,1-1.17-.71,1.4,1.4,0,0,1-.27-.86A1.34,1.34,0,0,1,89,15.9a2.51,2.51,0,0,1,1.5-.43,3.39,3.39,0,0,1,1.28.24v.92a2.5,2.5,0,0,0-1.38-.39,1.29,1.29,0,0,0-.74.2.6.6,0,0,0-.29.53.63.63,0,0,0,.21.5,3.24,3.24,0,0,0,.92.46,3.19,3.19,0,0,1,1.22.7,1.31,1.31,0,0,1,.31.9,1.34,1.34,0,0,1-.6,1.16,2.66,2.66,0,0,1-1.58.43,3.05,3.05,0,0,1-1.46-.32Z" fill="#00b0f0"/><path d="M95.91,19.21h4.21v-.66h.69v.66H105v.63h-3.43a9.93,9.93,0,0,0,3.8,1.63c-.18.27-.33.51-.46.72a10.7,10.7,0,0,1-4.1-2.18V22.3h-.69V20A11.69,11.69,0,0,1,96,22.21c-.14-.2-.29-.41-.46-.61a10.45,10.45,0,0,0,3.77-1.76H95.91ZM100.24,13l.57-.35a6.45,6.45,0,0,1,.76,1l-.45.28h3.74v.61h-3.7v.69h3.27v.57h-3.27v.69h3.27V17h-3.27v.71h3.73v.6H97.77v.37h-.69V15.24a10.2,10.2,0,0,1-1,1,3.53,3.53,0,0,0-.47-.64A10.52,10.52,0,0,0,98,12.74l.68.3c-.19.3-.37.59-.56.86h2.76A10,10,0,0,0,100.24,13ZM97.77,15.2h2.7v-.69h-2.7Zm0,1.26h2.7v-.69h-2.7Zm0,1.28h2.7V17h-2.7Z" fill="#00b0f0"/><path d="M109.76,21.54a10.29,10.29,0,0,0,2-1.77,15.08,15.08,0,0,1-.67-4.65h-3.68v1.49h2.81c0,1.24-.09,2.28-.16,3.13s-.51,1.35-1.31,1.35c-.26,0-.62,0-1.06,0,0-.24-.09-.51-.16-.81a9.41,9.41,0,0,0,1.15.1c.37,0,.59-.26.63-.79s.09-1.34.12-2.22h-2a8.35,8.35,0,0,1-1.37,5l-.51-.68a7.68,7.68,0,0,0,1.11-4.62V14.4h4.43c0-.52,0-1.07-.06-1.67h.81c0,.46,0,1,0,1.67h3.36v.72h-3.34a17.29,17.29,0,0,0,.48,3.93,12.25,12.25,0,0,0,1.56-2.91l.77.32a14.83,14.83,0,0,1-2,3.46c.47,1,.94,1.46,1.4,1.46.16,0,.29-.16.38-.46.09-.47.16-1,.21-1.46l.74.27a12.91,12.91,0,0,1-.32,1.71.89.89,0,0,1-.82.77,1.62,1.62,0,0,1-1.14-.4,3.77,3.77,0,0,1-1-1.25,11.44,11.44,0,0,1-1.79,1.56C110.15,21.93,110,21.73,109.76,21.54Zm2.8-8.33.41-.51a17.67,17.67,0,0,1,1.54,1l-.47.58A17.84,17.84,0,0,0,112.56,13.21Z" fill="#00b0f0"/><path d="M115.7,18.39H117V13.72h2.24c.15-.38.27-.74.37-1.07l.82.21c-.12.28-.25.56-.39.86h3.54v4.16c.42-.32.83-.66,1.23-1l.49.54c-.55.47-1.13.91-1.72,1.33v2c0,1-.43,1.47-1.29,1.48-.54,0-1.08,0-1.62,0,0-.23-.09-.5-.16-.81a14.84,14.84,0,0,0,1.53.07.7.7,0,0,0,.77-.8V19.26a26,26,0,0,1-6.73,3,6.26,6.26,0,0,0-.44-.74,24.15,24.15,0,0,0,6.18-2.5H115.7Zm7.15-4h-5v.92h5Zm-5,2.46h5v-.92h-5Zm0,1.55h5v-.93h-5Z" fill="#00b0f0"/><path d="M125.58,17.32a15.19,15.19,0,0,0,2.27-4.58l.76.26a22.75,22.75,0,0,1-1,2.43v6.83h-.74V16.79a16.25,16.25,0,0,1-.94,1.4C125.8,17.91,125.69,17.62,125.58,17.32Zm2.36-.61a9.55,9.55,0,0,0,2.47-3.58l.69.26a10.72,10.72,0,0,1-2.57,3.86A5.1,5.1,0,0,0,127.94,16.71Zm1.07.14h4.88c0,.09,0,1.28-.14,3.57,0,1.12-.54,1.69-1.54,1.7-.53,0-1,0-1.39,0a7.38,7.38,0,0,0-.15-.81,12.26,12.26,0,0,0,1.36.11c.63.05.95-.3.95-1.05s.09-1.81.12-2.81h-2.2a6.7,6.7,0,0,1-.47,2.57,5.93,5.93,0,0,1-1.81,2.18c-.17-.21-.36-.42-.57-.64a5.32,5.32,0,0,0,1.65-1.85,5.45,5.45,0,0,0,.45-2.26H129ZM131.72,13l.65-.27a6.82,6.82,0,0,0,3,3.62,7.88,7.88,0,0,0-.56.71A8,8,0,0,1,131.72,13Z" fill="#00b0f0"/><path d="M135.52,19.38c.76-.15,1.59-.33,2.49-.55,0,.26,0,.49,0,.7-.74.15-1.52.34-2.35.57ZM137,14.56l-.23,2.69h1L138,14h-2.21V13.3h3l-.31,3.95H139c0,1.37-.09,2.5-.13,3.39s-.45,1.48-1.29,1.48l-1.24,0c0-.24-.07-.49-.13-.77a10,10,0,0,0,1.25.09c.46,0,.7-.28.73-.83,0-.72.07-1.6.1-2.67H136l.31-3.35Zm5.69-1.81-.18.31a7.54,7.54,0,0,0,2.93,3.06c-.21.26-.39.49-.52.68a10.64,10.64,0,0,1-2.81-3.06,10.77,10.77,0,0,1-2.78,3.18,7.57,7.57,0,0,0-.49-.62,8.75,8.75,0,0,0,3-3.55Zm-3.54,8.41h3.52a35.35,35.35,0,0,0,1.25-3.64l.74.24c-.38,1.16-.79,2.3-1.22,3.4h1.72v.67h-6Zm.49-3.13.69-.21c.32.92.58,1.74.8,2.47l-.72.24C140.16,19.7,139.91,18.86,139.61,18Zm.5-1.69h4V17h-4Zm1.18,1.25.7-.18c.27,1,.5,1.83.67,2.55l-.71.21Q141.67,18.82,141.29,17.59Z" fill="#00b0f0"/><path d="M148.67,18.6a4.49,4.49,0,0,0,.18.85c-.79.78-1.38,1.4-1.78,1.86l-.56-.63a1.69,1.69,0,0,0,.29-1V16.64h-1.18v-.7h1.93v3.81C147.85,19.46,148.22,19.08,148.67,18.6Zm-2.1-5.76c.76.77,1.29,1.33,1.6,1.68l-.68.57A22.94,22.94,0,0,0,146,13.35Zm1.52,8.21h1.36v-5.4h.75v5.4h1.55V13.91h-3.12v-.72h6.52v.72h-2.62v2.94h2.27v.72h-2.27v3.48h2.78v.72h-7.22Z" fill="#00b0f0"/><path d="M44.58,30.37H41.7v-.74h2.88Z" fill="#00b0f0"/><path d="M53.05,34.14V31H50.21A6.3,6.3,0,0,1,49,34.41c-.17-.22-.36-.44-.58-.68a5.13,5.13,0,0,0,.86-2,16.07,16.07,0,0,0,.22-3V25.27h7.95V33c0,.77-.36,1.16-1.1,1.16l-1.51,0c0-.21-.08-.48-.15-.81q.86.06,1.38.06c.4,0,.6-.19.6-.58V31H53.83v3.1Zm-2.79-3.81h2.79V28.51H50.31A15.49,15.49,0,0,1,50.26,30.33ZM50.31,26V27.8h2.74V26Zm6.39,0H53.83V27.8H56.7Zm-2.87,4.34H56.7V28.51H53.83Z" fill="#00b0f0"/><path d="M62.48,25l.71-.42c.31.37.62.78.93,1.21l-.48.31h3.64v4.32H66.5v-.51H60.33a7.71,7.71,0,0,1-1.45,4.5,8.29,8.29,0,0,0-.57-.65,7,7,0,0,0,1.25-4.57V26.1h3.73A12.88,12.88,0,0,0,62.48,25Zm-2.13,1.8v2.41H66.5V26.8Z" fill="#00b0f0"/><path d="M72,24.67l.76.31c-.22.29-.43.56-.66.82h5v.7a13.52,13.52,0,0,1-4.79,3.4h4.77v4.45h-.78v-.64H71.14v.64h-.78V30.69c-.51.18-1,.37-1.59.55-.14-.24-.29-.49-.45-.72a22,22,0,0,0,4-1.46c-.4-.41-.84-.83-1.31-1.26l.59-.5,1.5,1.35a13.84,13.84,0,0,0,3-2.17H71.5A16.35,16.35,0,0,1,69,28.69q-.27-.36-.51-.63A13.88,13.88,0,0,0,72,24.67Zm4.29,5.94H71.14V33h5.14Z" fill="#00b0f0"/><path d="M82.59,25.43,79,34.25h-.89l3.62-8.82Z" fill="#00b0f0"/><path d="M82.6,30.46a24.19,24.19,0,0,0,2.71-.95V27.28H86v1.94a27.17,27.17,0,0,0,4.07-2.33l.46.58a30.26,30.26,0,0,1-4.31,2.41.91.91,0,0,0,.61.19h1.87c.39,0,.63-.11.7-.33a4.22,4.22,0,0,0,.2-1l.74.29q-.15.75-.21,1c-.14.54-.55.8-1.24.8H86.67a1.22,1.22,0,0,1-1.16-.55c-.83.35-1.68.66-2.54.94A5.44,5.44,0,0,0,82.6,30.46ZM83,25.7H87.2c-.12-.24-.25-.48-.4-.74l.72-.34a9.1,9.1,0,0,1,.56,1.08H92v1.73H91.2v-1H83.81v1H83Zm1.14,1.77.68.27a14.79,14.79,0,0,1-1,2c-.21-.1-.45-.21-.72-.31A11.16,11.16,0,0,0,84.16,27.47Zm6.25,6.79v-.38H83.83V31.31h.74v1.87H87.1V30.93h.78v2.25h2.53V31.31h.74v2.95ZM86.54,27l.51-.43a13.56,13.56,0,0,1,1.16,1l-.56.53C87.27,27.68,86.91,27.32,86.54,27Zm3.89,1.24L91,27.8c.5.56.94,1.08,1.3,1.57l-.64.48C91.31,29.34,90.9,28.8,90.43,28.22Z" fill="#00b0f0"/><path d="M92.62,30.1a10.92,10.92,0,0,0,1.72-3.77H92.9v-.72h3.65v.72H95.09a13.11,13.11,0,0,1-.78,2.29H96.2v5.29h-.69v-.68H94.29V34h-.7V30c-.17.27-.35.54-.54.79A6.44,6.44,0,0,0,92.62,30.1Zm2.89-.82H94.29v3.31h1.22Zm1.08,1.93h4.12v.71H96.59Zm1.57-4.88-.25,2.86h2.3l.33-3.21H96.93v-.7h4.43L101,29.19h1c0,1.32-.1,2.47-.15,3.44s-.53,1.45-1.39,1.45l-1.47,0c0-.24-.08-.51-.13-.81a12.57,12.57,0,0,0,1.42.09c.5,0,.77-.27.81-.83q.09-1.08.12-2.61H97.12l.3-3.56Z" fill="#00b0f0"/></g><line x1="75.52" y1="54.53" x2="162.7" y2="54.53" fill="none" stroke="#505050" stroke-miterlimit="10"/></svg>