<svg xmlns="http://www.w3.org/2000/svg" viewBox="0 0 204.71 66.15"><defs><style>.cls-1{fill:#007efd;}.cls-2,.cls-3{fill:#008bfd;}.cls-3{stroke:gray;stroke-linecap:round;stroke-linejoin:round;stroke-width:0.75px;}.cls-4{fill:#fff;}.cls-5{fill:#505050;}.cls-6{fill:#00b0f0;}</style></defs><title>OJ104546516</title><g id="shapes"><g id="group1195-2"><g id="shape1200-7"><path class="cls-1" d="M69.66,9.34H63.58c-.23,0-.38.15-.38.46V12a.35.35,0,0,0,.38.37H67v3.39c0,.23.15.38.45.38h2.18a.35.35,0,0,0,.37-.38v-6A.35.35,0,0,0,69.66,9.34Zm-17.19,21H49V27c0-.22-.15-.37-.45-.37H46.4A.35.35,0,0,0,46,27v6a.36.36,0,0,0,.38.38h6.07c.23,0,.38-.15.38-.45V30.72A.36.36,0,0,0,52.47,30.34Zm13.58-3.69a.9.9,0,0,0-.45.08l-2.32-4.07a2.77,2.77,0,0,0-1.88-4.81,3,3,0,0,0-1.12.22L57.8,14.61a2,2,0,0,0,.53-1.5A2.33,2.33,0,1,0,56,15.44a2.38,2.38,0,0,0,.75-.15l2.48,3.54a2.82,2.82,0,0,0-.68,1.43l-7.2.6a1.78,1.78,0,0,0-1.65-1,1.88,1.88,0,0,0,0,3.76,1.92,1.92,0,0,0,1.87-1.58l7.06-.6a3.74,3.74,0,0,0,.67,1.2L57.5,25.6h-.22a1.88,1.88,0,1,0,1.87,1.88,2.13,2.13,0,0,0-.52-1.35l1.72-2.86a4,4,0,0,0,1,.15,3.38,3.38,0,0,0,.82-.15l2.33,4.06a2.34,2.34,0,0,0-.68,1.58,2.18,2.18,0,1,0,2.25-2.26Z"/></g></g><g id="group1201-12"><g id="group1202-13"><g id="group1203-14"><g id="group1204-15"><g id="shape1205-16"><path class="cls-2" d="M7.85,13.61a4.49,4.49,0,0,0-3,5.66c.66,2.56,3,4.22,5.27,3.67a4.5,4.5,0,0,0,3-5.67C12.57,14.61,10.16,12.94,7.85,13.61Z"/></g></g><g id="group1206-18"><g id="shape1207-19"><path class="cls-2" d="M12.79,23.63c-.44,0-.88.78-1.54,1.11s-1.32.89-3.18,0S6,23.08,4.44,23.08.38,25.85.38,30H16a12.14,12.14,0,0,0-1.1-4.22C13.77,23.63,13.23,23.63,12.79,23.63Z"/></g></g></g></g><g id="group1208-21"><g id="shape1209-22"><path class="cls-3" d="M14.19,18.69H10.07a.71.71,0,0,0-.65.66V22.2a.73.73,0,0,0,.76.66h.76V28a1,1,0,0,0,1,1.1,1,1,0,0,0,1-1h.21v-.65c0-.22.33-.33.33-.33V26.8c-.33-.11-.54-.33-.54-.44V26l.21-.22a3.55,3.55,0,0,0,.33-.54,2.4,2.4,0,0,1-.33-.55c-.1-.11-.1-.33-.21-.44v-.22a2.51,2.51,0,0,1,.76-1.1h.54a.7.7,0,0,0,.65-.65v-3A.63.63,0,0,0,14.19,18.69ZM11.8,28.22c0,.22,0,.33-.21.33s-.22-.22-.22-.33V23.4c0-.22.11-.33.22-.33s.21.22.21.33Zm.33-7.78a.69.69,0,0,1-.65-.65.7.7,0,0,1,.65-.66.71.71,0,0,1,.65.66A.62.62,0,0,1,12.13,20.44Z"/></g><g id="shape1210-24"><path class="cls-4" d="M11.57,28.53a.24.24,0,0,1-.22-.22v-5a.22.22,0,1,1,.44,0v5.11C11.79,28.53,11.68,28.53,11.57,28.53Z"/></g><g id="shape1211-26"><ellipse class="cls-4" cx="12.14" cy="19.77" rx="0.66" ry="0.67"/></g></g></g><path class="cls-2" d="M191.76,8.21h-20.5a1.09,1.09,0,0,0-1.09,1.1V26.05a1.1,1.1,0,0,0,1.09,1.11h5.28a3.29,3.29,0,0,0,3.21,2.27,3.38,3.38,0,0,0,0-6.75A3.29,3.29,0,0,0,176.54,25h-4.19V13h18.31V25h-3.45a7.61,7.61,0,0,0-7.46-6.56,8.25,8.25,0,0,0-3.64.92l1,2a5.27,5.27,0,0,1,2.55-.67,5.46,5.46,0,0,1,0,10.91,5.27,5.27,0,0,1-2.55-.67l-1,2a7.51,7.51,0,0,0,3.64.92,7.61,7.61,0,0,0,7.46-6.56h4.55a1.1,1.1,0,0,0,1.09-1.11V9.31A1.14,1.14,0,0,0,191.76,8.21Z"/><g id="shape1213-31"><g id="lend5"><path class="cls-5" d="M161.69,17l8.05,4-8,4a9,9,0,0,0,0-8"/></g></g></g><g id="text"><path class="cls-6" d="M97.52,11.86c0,.31,0,.6.07.87a22.74,22.74,0,0,0-2,1.4l-.47-.65a1.17,1.17,0,0,0,.33-.88V9.13H94.22V8.42h2v4.34Q96.85,12.34,97.52,11.86Zm-2-6.41c.5.5,1,1,1.43,1.51l-.68.56A17.71,17.71,0,0,0,95,6Zm1.94,4.71V9.49h5.32v.67a7.36,7.36,0,0,1-1.9,2.66,8.24,8.24,0,0,0,3,1.14c-.23.29-.43.56-.6.79a9.64,9.64,0,0,1-3-1.46,12.92,12.92,0,0,1-3.35,1.54c-.17-.24-.34-.48-.51-.7a12.2,12.2,0,0,0,3.24-1.34A6.44,6.44,0,0,1,98,10.16Zm4.1-3.81H99.15v.28a2.87,2.87,0,0,1-1.64,2.68,4.61,4.61,0,0,0-.57-.6,2.27,2.27,0,0,0,1.45-2.06v-1h4v2a.39.39,0,0,0,.45.44h1.08c0,.27-.06.51-.08.72h-1.29c-.61,0-.92-.33-.92-1Zm-2.85,3.81a5.82,5.82,0,0,0,1.55,2.19,5.48,5.48,0,0,0,1.65-2.19Z"/><path class="cls-6" d="M106.92,5l.74.32c-.15.23-.3.47-.47.7h5.29v.65a7.82,7.82,0,0,1-2.43,1.9,14.73,14.73,0,0,0,3.86.66c-.22.31-.4.58-.55.82a15.39,15.39,0,0,1-4.23-1,21.12,21.12,0,0,1-4.69,1.31,5.85,5.85,0,0,0-.41-.71,19.29,19.29,0,0,0,4.22-1A5.64,5.64,0,0,1,106.44,7a14.73,14.73,0,0,1-1.64,1.61,6.87,6.87,0,0,0-.54-.54A10.58,10.58,0,0,0,106.92,5Zm-1.39,5.17h7v4.55h-.7v-.43h-5.55v.43h-.7Zm.7,1.79h2.42v-1.2h-2.42Zm0,1.74h2.42V12.53h-2.42Zm5.21-7h-4.38a6,6,0,0,0,2.06,1.55A8.86,8.86,0,0,0,111.44,6.68Zm.34,4.1h-2.42V12h2.42Zm-2.42,2.94h2.42V12.53h-2.42Z"/><path class="cls-6" d="M114.06,9.84a16.91,16.91,0,0,0,2.42-4.69l.78.27c-.29.76-.59,1.47-.91,2.12v7.24h-.8V9a16.39,16.39,0,0,1-1.15,1.68C114.3,10.45,114.19,10.16,114.06,9.84Zm2.84-1.28,2.31-.26c-.08-.82-.14-1.85-.17-3.09h.85a28.21,28.21,0,0,0,.13,3l3.57-.39.09.72-3.59.39q.55,4.05,2.13,4.85c.28.12.47,0,.55-.28a13.53,13.53,0,0,0,.32-1.57,7.41,7.41,0,0,0,.78.28,16.9,16.9,0,0,1-.35,1.68,1,1,0,0,1-1,.83,2.18,2.18,0,0,1-1.6-1A9.3,9.3,0,0,1,119.29,9L117,9.28ZM120.79,6l.51-.52c.57.44,1.16.92,1.76,1.46l-.6.6A19.9,19.9,0,0,0,120.79,6Z"/><path class="cls-6" d="M124.12,10.57a10.93,10.93,0,0,0,1.73-3.77h-1.44V6.08h3.65V6.8H126.6a15,15,0,0,1-.78,2.29h1.89v5.29H127v-.67h-1.22v.8h-.69V10.44a9.21,9.21,0,0,1-.55.79A6.44,6.44,0,0,0,124.12,10.57ZM127,9.75h-1.22v3.31H127Zm1.09,1.93h4.12v.71H128.1Zm1.57-4.88-.25,2.86h2.29L132,6.45h-3.6v-.7h4.42l-.41,3.91h1c-.05,1.32-.11,2.47-.16,3.44s-.52,1.45-1.38,1.45c-.44,0-.93,0-1.47,0,0-.25-.09-.52-.14-.81.53,0,1,.08,1.43.08s.77-.27.81-.83c0-.72.09-1.59.12-2.6h-4.08l.31-3.57Z"/><path class="cls-6" d="M134.13,8.39l.49-.56c.53.36,1.08.78,1.66,1.26q-.34.4-.57.63C135,9.12,134.51,8.67,134.13,8.39Zm.31,6a31,31,0,0,0,1-3.79c.29.12.55.22.79.3-.29,1.13-.61,2.38-1,3.75Zm.07-8.59.5-.51c.48.37,1,.82,1.59,1.34l-.57.58A20.5,20.5,0,0,0,134.51,5.84Zm3.1,4.37h.74a7.83,7.83,0,0,1-.4,3,3.45,3.45,0,0,1-1.62,1.61,4.14,4.14,0,0,0-.5-.65,2.86,2.86,0,0,0,1.42-1.34A6.65,6.65,0,0,0,137.61,10.21Zm4.23-2.59c.51.59,1.07,1.3,1.69,2.14-.24.15-.48.3-.71.46l-.47-.68-4.41.21a4.67,4.67,0,0,0-.78.12l-.33-.74a3.76,3.76,0,0,0,.68-.44A10.66,10.66,0,0,0,139,7.09h-2.17V6.4H140c-.25-.38-.49-.72-.71-1l.64-.4c.25.31.52.67.83,1.08l-.51.33h3.32v.69H139.2l.65.28A20.9,20.9,0,0,1,138.15,9l3.73-.13c-.23-.31-.44-.59-.65-.85Zm-2.31,2.59h.74v4.35h-.74Zm1.79,0h.73v3.27c0,.3.12.45.35.45h.35c.2,0,.33-.17.38-.5s.07-.76.08-1.23a7.12,7.12,0,0,0,.74.29q-.07.81-.15,1.26a.87.87,0,0,1-.93.86h-.6c-.63,0-1-.38-1-1.14Z"/><path d="M28.3,42.73h3.83a14.92,14.92,0,0,0,.24-2.27H29V39.7H37v.76H33.19a17.89,17.89,0,0,1-.25,2.27h4.77v.76H32.77a7.59,7.59,0,0,1-4.08,5.12,5.16,5.16,0,0,0-.53-.7A7,7,0,0,0,32,43.49H28.3Zm5,1.46h.79v2.57c0,.51.24.77.71.77h1.34a.65.65,0,0,0,.75-.57c0-.37.09-.86.12-1.45.25.09.52.19.82.28-.07.65-.12,1.13-.18,1.46-.08.65-.54,1-1.38,1H34.58c-.86,0-1.28-.45-1.28-1.35Z"/><path d="M38.11,42.16l.42-.55c.66.49,1.18.9,1.57,1.23-.2.26-.38.46-.51.6C39.08,43,38.59,42.54,38.11,42.16Zm.31,6a36.19,36.19,0,0,0,1-3.76l.71.3c-.28,1.14-.57,2.38-.89,3.72Zm0-8.55.48-.5c.73.6,1.2,1,1.4,1.19-.19.18-.37.37-.55.55C39.48,40.54,39,40.13,38.46,39.62ZM44,41.3A12.7,12.7,0,0,1,43,45c.48.83.93,1.63,1.34,2.4l-.71.37c-.33-.64-.67-1.29-1-2a8.63,8.63,0,0,1-2.19,2.57,5.38,5.38,0,0,0-.53-.58A8.87,8.87,0,0,0,42.19,45c-.49-.87-1-1.76-1.54-2.68l.62-.35,1.3,2.21a12.52,12.52,0,0,0,.73-2.9H40.4v-.69h4.06v.69Zm-2.29-2.08.63-.33c.32.49.56.89.73,1.22l-.68.36A11.92,11.92,0,0,0,41.75,39.22Zm3.82,7h-.71V40h.71ZM46.68,39h.73v8.42a.9.9,0,0,1-1,1l-1.36,0a6.84,6.84,0,0,0-.14-.81,12.37,12.37,0,0,0,1.29.08.44.44,0,0,0,.49-.51Z"/><path d="M53.2,44.11a6.22,6.22,0,0,1-.1,1.19h.66V47c0,.4.22.59.65.59h1.73c.48,0,.75-.18.8-.56s.1-.73.14-1.19c.25.1.5.19.77.27-.06.42-.12.8-.19,1.13-.11.69-.59,1-1.41,1h-2c-.82,0-1.23-.39-1.23-1.19V45.64A2.72,2.72,0,0,1,52.24,47a8.14,8.14,0,0,1-3.62,1.6c-.14-.25-.28-.49-.44-.72a8.36,8.36,0,0,0,3.43-1.36,2.82,2.82,0,0,0,.84-2.36Zm-4.46-4.93h.74v3.41h-.74Zm.74,3.91h6.78v3.27h-.75V43.77H50.23v2.68h-.75ZM51,38.9h.75v3.73H51Zm2.74,0h.82c-.15.36-.3.7-.46,1h3.6v.68H53.71a12.13,12.13,0,0,1-1.1,1.65,4.86,4.86,0,0,0-.64-.48A9.72,9.72,0,0,0,53.7,38.89ZM54.17,41c1,.44,1.95.9,2.84,1.37l-.39.63c-.75-.43-1.69-.91-2.83-1.43Z"/><path d="M58.45,43H62.4a3,3,0,0,0,.2-.85l.7.1a5.18,5.18,0,0,1-.17.75h2.13c-.26-.19-.54-.37-.83-.56l.4-.44a13,13,0,0,1,1.16.77l-.22.23H67.6v.65H63.83c.75.73,2.08,1.08,4,1-.16.27-.29.52-.4.75l-.5,0v3h-.68v-.54H64.16v.53h-.69v-3h3.11c-1.86-.25-3-.82-3.56-1.7h-.18c-.37.77-1.55,1.34-3.55,1.7h3.13v3h-.68v-.53H59.68v.54H59v-3l-.54.1a7.45,7.45,0,0,0-.38-.69c2.18-.28,3.48-.67,3.92-1.17H58.45ZM59,39.47h3.43v2.84h-.68V42H59.67v.4H59Zm2.75.6H59.67V41.4h2.06Zm0,5.91H59.68v1.28h2.06Zm1.72-6.51h3.46v2.88h-.68V42H64.15v.3h-.69Zm2.78.6H64.15V41.4h2.09Zm0,5.91H64.16v1.28h2.09Z"/><path d="M72.62,39.2l.72-.38c.28.36.54.75.8,1.16l-.48.28h4V41H70v2.39a7.93,7.93,0,0,1-1.43,5.17,5.41,5.41,0,0,0-.57-.68c.79-.87,1.18-2.36,1.18-4.47V40.26h4.13A11.53,11.53,0,0,0,72.62,39.2Zm-2.66,8h4.51a46.57,46.57,0,0,0,1.62-5.33l.85.23q-.91,3.22-1.62,5.1h2.41V48H70Zm.53-4.8.74-.25c.4,1.19.79,2.51,1.17,4l-.83.25Q71.12,44.5,70.49,42.44ZM72.84,42l.75-.22a38.12,38.12,0,0,1,.9,3.94l-.86.22A39.24,39.24,0,0,0,72.84,42Z"/><path d="M82.81,48.37v-3.1H80a6.39,6.39,0,0,1-1.18,3.37c-.17-.22-.36-.44-.58-.68a5.29,5.29,0,0,0,.86-2,16.07,16.07,0,0,0,.22-3V39.5h7.95v7.76c0,.77-.36,1.16-1.1,1.16l-1.51,0c0-.21-.08-.48-.15-.81q.85.06,1.38.06c.4,0,.6-.19.6-.58V45.27H83.59v3.1ZM80,44.56h2.79V42.74H80.07A15.49,15.49,0,0,1,80,44.56Zm0-4.34V42h2.74V40.22Zm6.39,0H83.59V42h2.87Zm-2.87,4.34h2.87V42.74H83.59Z"/><path d="M168.9,46.72h-1.08l-.77-2.07H163.9l-.72,2.07H162.1L165,39.15h1Zm-2.15-2.93-1.14-3.14a2.86,2.86,0,0,1-.12-.53h0a2.92,2.92,0,0,1-.13.53l-1.13,3.14Z"/><path d="M171,43.89v2.83h-1V39.15h2.15a2.82,2.82,0,0,1,1.9.59,2.14,2.14,0,0,1,.67,1.69,2.27,2.27,0,0,1-.79,1.81,2.71,2.71,0,0,1-2,.65ZM171,40v3h.91a2,2,0,0,0,1.35-.4,1.46,1.46,0,0,0,.47-1.16c0-1-.58-1.46-1.73-1.46Z"/><path d="M177.09,39.15v7.57h-1V39.15Z"/><path d="M185.68,38.69l.71-.38a12.48,12.48,0,0,1,.8,1.16l-.47.28h4v.74h-7.61v2.39a7.93,7.93,0,0,1-1.43,5.17,5.37,5.37,0,0,0-.56-.67c.78-.88,1.17-2.37,1.17-4.48V39.75h4.13C186.17,39.39,185.93,39,185.68,38.69Zm-2.67,8h4.52a49,49,0,0,0,1.61-5.33l.85.23q-.92,3.23-1.62,5.1h2.41v.74H183Zm.53-4.79.74-.26q.6,1.78,1.17,4l-.83.25C184.32,44.63,184,43.3,183.54,41.94Zm2.35-.49.75-.22a38.73,38.73,0,0,1,.9,3.94l-.86.22A39.24,39.24,0,0,0,185.89,41.45Z"/><path d="M195.86,47.86v-3.1H193a6.36,6.36,0,0,1-1.18,3.37c-.17-.22-.36-.44-.58-.68a5.29,5.29,0,0,0,.86-2,16.07,16.07,0,0,0,.22-3V39h7.95v7.76c0,.78-.36,1.16-1.1,1.16l-1.51,0c0-.21-.08-.48-.15-.81q.85.06,1.38.06c.4,0,.6-.19.6-.58V44.76h-2.87v3.1Zm-2.79-3.81h2.79V42.23h-2.74A15.49,15.49,0,0,1,193.07,44.05Zm.05-4.34v1.82h2.74V39.71Zm6.39,0h-2.87v1.82h2.87Zm-2.87,4.34h2.87V42.23h-2.87Z"/><rect class="cls-5" x="64.49" y="19.99" width="99.53" height="1.75" rx="0.76"/></g></svg>