<svg xmlns="http://www.w3.org/2000/svg" viewBox="0 0 204.71 66.15"><title>OJ104546516</title><line x1="62.13" y1="20.99" x2="163.68" y2="20.99" fill="none" stroke="#505050" stroke-miterlimit="10"/><path d="M69.66,9.34H63.58c-.23,0-.38.15-.38.46V12a.35.35,0,0,0,.38.37H67v3.39c0,.23.15.38.45.38h2.18a.35.35,0,0,0,.37-.38v-6A.35.35,0,0,0,69.66,9.34Zm-17.19,21H49V27c0-.22-.15-.37-.45-.37H46.4A.35.35,0,0,0,46,27v6a.36.36,0,0,0,.38.39h6.07c.23,0,.38-.15.38-.46V30.72A.36.36,0,0,0,52.47,30.34Zm13.58-3.69a.9.9,0,0,0-.45.08l-2.32-4.07a2.77,2.77,0,0,0-1.88-4.81,3,3,0,0,0-1.12.22L57.8,14.61a2,2,0,0,0,.53-1.5A2.33,2.33,0,1,0,56,15.44a2.38,2.38,0,0,0,.75-.15l2.48,3.54a2.82,2.82,0,0,0-.68,1.43l-7.2.6a1.78,1.78,0,0,0-1.65-1,1.88,1.88,0,0,0,0,3.76,1.92,1.92,0,0,0,1.87-1.58l7.06-.6a3.74,3.74,0,0,0,.67,1.2L57.5,25.6h-.22a1.88,1.88,0,1,0,1.87,1.88,2.13,2.13,0,0,0-.52-1.35l1.72-2.86a4,4,0,0,0,1,.15,3.38,3.38,0,0,0,.82-.15l2.33,4.06a2.34,2.34,0,0,0-.68,1.58,2.18,2.18,0,1,0,2.25-2.26Z" fill="#007efd"/><g style="isolation:isolate"><path d="M28.15,42.29H32A14.79,14.79,0,0,0,32.22,40H28.89v-.76h7.93V40H33a17.72,17.72,0,0,1-.25,2.26h4.77v.76H32.62a7.59,7.59,0,0,1-4.08,5.12,5.82,5.82,0,0,0-.53-.69,7,7,0,0,0,3.79-4.43H28.15Zm5,1.47h.79v2.57c0,.51.24.77.71.77H36a.66.66,0,0,0,.75-.58q.07-.56.12-1.44l.82.28c-.07.64-.12,1.13-.18,1.45-.08.66-.54,1-1.38,1H34.43c-.86,0-1.28-.45-1.28-1.35Z" fill="#007efd"/><path d="M38,41.73l.42-.55c.66.48,1.18.89,1.57,1.23-.2.25-.38.45-.51.6C38.93,42.53,38.44,42.1,38,41.73Zm.31,6a38.17,38.17,0,0,0,1-3.76,6.91,6.91,0,0,0,.71.3c-.28,1.14-.57,2.38-.89,3.73Zm0-8.54.48-.5c.73.6,1.2,1,1.4,1.18l-.55.56C39.33,40.11,38.89,39.69,38.31,39.19Zm5.58,1.68a12.88,12.88,0,0,1-1,3.7c.48.83.93,1.62,1.34,2.39l-.71.37c-.33-.64-.67-1.29-1-1.95A8.76,8.76,0,0,1,40.27,48a5.41,5.41,0,0,0-.53-.59A8.8,8.8,0,0,0,42,44.59c-.48-.87-1-1.77-1.53-2.69l.62-.35,1.3,2.22a12.65,12.65,0,0,0,.73-2.9h-2.9v-.7h4.06v.7ZM41.6,38.79l.63-.34A14.23,14.23,0,0,1,43,39.68l-.68.36A11,11,0,0,0,41.6,38.79Zm3.82,7h-.71V39.58h.71Zm1.11-7.28h.73v8.42a.91.91,0,0,1-1,1l-1.36,0a6.84,6.84,0,0,0-.14-.81,12.18,12.18,0,0,0,1.29.07.44.44,0,0,0,.49-.5Z" fill="#007efd"/><path d="M53.05,43.68a6,6,0,0,1-.1,1.18h.66v1.72c0,.39.22.59.65.59H56c.48,0,.75-.19.8-.56s.1-.73.14-1.19a7.71,7.71,0,0,0,.77.26c-.06.42-.12.8-.19,1.13-.11.69-.59,1-1.41,1h-2c-.83,0-1.24-.4-1.24-1.19V45.2a2.59,2.59,0,0,1-.77,1.31,8.08,8.08,0,0,1-3.62,1.6c-.14-.24-.28-.49-.44-.72A8.36,8.36,0,0,0,51.46,46a2.8,2.8,0,0,0,.84-2.35Zm-4.46-4.93h.74v3.41h-.74Zm.74,3.9h6.78v3.28h-.76V43.34H50.08V46h-.75Zm1.48-4.19h.75v3.73h-.75Zm2.74,0h.82c-.15.36-.3.7-.46,1h3.6v.68H53.56a11,11,0,0,1-1.1,1.65,4,4,0,0,0-.64-.47A9.65,9.65,0,0,0,53.55,38.45ZM54,40.56c1,.45,1.95.9,2.84,1.37l-.39.64c-.75-.43-1.69-.91-2.83-1.44Z" fill="#007efd"/><path d="M58.3,42.59h4a2.72,2.72,0,0,0,.19-.85l.71.09a5,5,0,0,1-.17.76h2.13c-.26-.19-.54-.38-.83-.56l.4-.44a13,13,0,0,1,1.16.76l-.22.24h1.82v.64H63.68c.75.74,2.08,1.08,4,1a8.11,8.11,0,0,0-.4.76l-.5-.05v3H66.1v-.54H64V48h-.69v-3h3.11q-2.79-.37-3.57-1.71h-.17c-.37.77-1.55,1.34-3.55,1.71h3.13v3h-.68v-.53H59.52V48h-.68V45l-.54.1a7.46,7.46,0,0,0-.38-.7c2.18-.28,3.48-.67,3.92-1.17H58.3ZM58.83,39h3.43v2.84h-.68v-.3H59.52V42h-.69Zm2.75.61H59.52V41h2.06Zm0,5.9H59.52v1.28h2.07ZM63.31,39h3.46v2.88h-.68v-.34H64v.3h-.69Zm2.78.61H64V41h2.09Zm0,5.9H64v1.28H66.1Z" fill="#007efd"/><path d="M72.47,38.77l.72-.38a11.78,11.78,0,0,1,.8,1.16l-.48.27h4v.74h-7.6V43a7.92,7.92,0,0,1-1.43,5.16,6.38,6.38,0,0,0-.57-.67c.79-.87,1.18-2.36,1.18-4.47V39.82h4.13A10.19,10.19,0,0,0,72.47,38.77Zm-2.66,8h4.51a45.34,45.34,0,0,0,1.62-5.33l.85.24c-.61,2.15-1.15,3.84-1.62,5.09h2.41v.75H69.81ZM70.34,42l.74-.25c.4,1.18.79,2.51,1.17,4l-.83.25C71.12,44.7,70.76,43.38,70.34,42Zm2.35-.49.75-.21a38.51,38.51,0,0,1,.9,3.93l-.86.23A39.42,39.42,0,0,0,72.69,41.52Z" fill="#007efd"/><path d="M82.66,47.94V44.83H79.82a6.33,6.33,0,0,1-1.18,3.37c-.17-.21-.37-.44-.58-.67a5.33,5.33,0,0,0,.86-2,16.11,16.11,0,0,0,.21-3V39.06h8v7.76c0,.78-.36,1.17-1.1,1.17l-1.51,0-.15-.81c.57,0,1,.05,1.38.05s.6-.19.6-.57v-1.8H83.44v3.11Zm-2.79-3.81h2.79V42.3H79.92A15.73,15.73,0,0,1,79.87,44.13Zm0-4.35V41.6h2.74V39.78Zm6.39,0H83.44V41.6h2.87Zm-2.87,4.35h2.87V42.3H83.44Z" fill="#007efd"/></g><path d="M7.85,13.61a4.49,4.49,0,0,0-3,5.66c.66,2.56,3,4.22,5.27,3.67a4.5,4.5,0,0,0,3-5.67C12.57,14.61,10.16,12.94,7.85,13.61Z" fill="#008bfd"/><path d="M12.79,23.63c-.44,0-.88.78-1.54,1.11s-1.32.89-3.18,0S6,23.08,4.44,23.08.38,25.85.38,30H16a12.14,12.14,0,0,0-1.1-4.22C13.77,23.63,13.23,23.63,12.79,23.63Z" fill="#008bfd"/><path d="M14.19,18.69H10.07a.71.71,0,0,0-.65.66V22.2a.73.73,0,0,0,.76.66h.76V28a1,1,0,0,0,1,1.1,1,1,0,0,0,1-1h.21v-.65c0-.22.33-.33.33-.33V26.8c-.33-.11-.54-.33-.54-.44V26l.21-.22a3.55,3.55,0,0,0,.33-.54,2.4,2.4,0,0,1-.33-.55c-.1-.11-.1-.33-.21-.44v-.22a2.51,2.51,0,0,1,.76-1.1h.54a.7.7,0,0,0,.65-.65v-3A.63.63,0,0,0,14.19,18.69ZM11.8,28.22c0,.22,0,.33-.21.33s-.22-.22-.22-.33V23.4c0-.22.11-.33.22-.33s.21.22.21.33Zm.33-7.78a.69.69,0,0,1-.65-.65.7.7,0,0,1,.65-.66.71.71,0,0,1,.65.66A.62.62,0,0,1,12.13,20.44Z" fill="#008bfd" stroke="gray" stroke-linecap="round" stroke-linejoin="round" stroke-width="0.75"/><path d="M11.57,28.53a.24.24,0,0,1-.22-.22v-5a.22.22,0,1,1,.44,0v5.11C11.79,28.53,11.68,28.53,11.57,28.53Z" fill="#fff"/><ellipse cx="12.14" cy="19.77" rx="0.66" ry="0.67" fill="#fff"/><path d="M191.76,8.21h-20.5a1.09,1.09,0,0,0-1.09,1.1V26.05a1.1,1.1,0,0,0,1.09,1.11h5.28a3.29,3.29,0,0,0,3.21,2.27,3.38,3.38,0,0,0,0-6.75A3.29,3.29,0,0,0,176.54,25h-4.19V13h18.31V25h-3.45a7.61,7.61,0,0,0-7.46-6.56,8.25,8.25,0,0,0-3.64.92l1,2a5.27,5.27,0,0,1,2.55-.67,5.46,5.46,0,0,1,0,10.91,5.27,5.27,0,0,1-2.55-.67l-1,2a7.51,7.51,0,0,0,3.64.92,7.61,7.61,0,0,0,7.46-6.56h4.55a1.1,1.1,0,0,0,1.09-1.11V9.31A1.14,1.14,0,0,0,191.76,8.21Z" fill="#008bfd"/><g style="isolation:isolate"><path d="M168.9,46.72h-1.08l-.77-2.07H163.9l-.73,2.07H162.1L165,39.15h1Zm-2.15-2.93-1.14-3.14a2.86,2.86,0,0,1-.12-.53h0a2.34,2.34,0,0,1-.12.53l-1.13,3.14Z" fill="#008bfd"/><path d="M171,43.89v2.83h-1V39.15h2.14a2.83,2.83,0,0,1,1.91.59,2.14,2.14,0,0,1,.67,1.69,2.27,2.27,0,0,1-.79,1.81,2.73,2.73,0,0,1-2,.65ZM171,40v3h.91a2,2,0,0,0,1.35-.4,1.46,1.46,0,0,0,.47-1.16c0-1-.58-1.46-1.73-1.46Z" fill="#008bfd"/><path d="M177.09,39.15v7.57h-1V39.15Z" fill="#008bfd"/><path d="M185.67,38.69l.72-.38a13.3,13.3,0,0,1,.8,1.17l-.48.27h4v.74h-7.6v2.39a7.93,7.93,0,0,1-1.43,5.17,5.37,5.37,0,0,0-.56-.67c.78-.88,1.17-2.37,1.17-4.48V39.75h4.13A11.53,11.53,0,0,0,185.67,38.69Zm-2.66,8h4.52a49,49,0,0,0,1.61-5.33l.85.23q-.92,3.23-1.62,5.1h2.41v.74H183Zm.53-4.79.74-.26c.4,1.19.79,2.51,1.17,4l-.83.25C184.32,44.63,184,43.3,183.54,41.94Zm2.35-.49.75-.22a38.73,38.73,0,0,1,.9,3.94l-.86.22A39.24,39.24,0,0,0,185.89,41.45Z" fill="#008bfd"/><path d="M195.86,47.86v-3.1H193a6.36,6.36,0,0,1-1.18,3.37c-.17-.22-.36-.44-.58-.68a5.22,5.22,0,0,0,.86-2,16.23,16.23,0,0,0,.21-3V39h8v7.76c0,.77-.36,1.16-1.1,1.16l-1.51,0c0-.21-.08-.48-.15-.81q.85.06,1.38.06t.6-.57v-1.8h-2.87v3.1Zm-2.79-3.8h2.79V42.23h-2.74A15.73,15.73,0,0,1,193.07,44.06Zm.05-4.35v1.82h2.74V39.71Zm6.39,0h-2.87v1.82h2.87Zm-2.87,4.35h2.87V42.23h-2.87Z" fill="#008bfd"/></g><path d="M161.69,17l8.05,4-8,4a9,9,0,0,0,0-8" fill="#505050"/><rect x="73.89" y="0.37" width="90.38" height="20" fill="none"/><g style="isolation:isolate"><path d="M94.86,11.77c0,.3,0,.59.07.87-.89.58-1.55,1-2,1.39l-.47-.64a1.18,1.18,0,0,0,.33-.88V9H91.56v-.7h2v4.34Q94.19,12.25,94.86,11.77Zm-2-6.41c.5.5,1,1,1.44,1.51l-.69.56A17.71,17.71,0,0,0,92.3,5.87Zm1.94,4.71V9.4h5.33v.67a7.59,7.59,0,0,1-1.91,2.66,8.24,8.24,0,0,0,3,1.14c-.23.29-.43.55-.6.79a9.48,9.48,0,0,1-3-1.46,13.15,13.15,0,0,1-3.36,1.54L93.75,14A11.88,11.88,0,0,0,97,12.7a6.48,6.48,0,0,1-1.64-2.63Zm4.11-3.81H96.49v.28a2.85,2.85,0,0,1-1.64,2.68,5.4,5.4,0,0,0-.56-.61,2.25,2.25,0,0,0,1.44-2v-1h4v2a.39.39,0,0,0,.45.44h1.07c0,.27-.06.51-.08.72H99.85c-.61,0-.91-.34-.91-1Zm-2.86,3.81a5.82,5.82,0,0,0,1.55,2.19,5.59,5.59,0,0,0,1.66-2.19Z" fill="#00b0f0"/><path d="M104.27,4.93l.73.31c-.14.24-.3.48-.46.71h5.28V6.6a7.82,7.82,0,0,1-2.43,1.9,14.81,14.81,0,0,0,3.86.66c-.21.31-.4.58-.55.82a15.39,15.39,0,0,1-4.23-1,20.9,20.9,0,0,1-4.68,1.3c-.12-.22-.26-.46-.41-.7a19.58,19.58,0,0,0,4.22-1,5.7,5.7,0,0,1-1.82-1.59,14.73,14.73,0,0,1-1.64,1.61A6.87,6.87,0,0,0,101.6,8,10.48,10.48,0,0,0,104.27,4.93Zm-1.4,5.17h6.95v4.55h-.7v-.43h-5.55v.43h-.7Zm.7,1.79H106V10.68h-2.43Zm0,1.74H106V12.44h-2.43Zm5.21-7H104.4a6,6,0,0,0,2.06,1.55A8.86,8.86,0,0,0,108.78,6.59Zm.34,4.09H106.7v1.21h2.42Zm-2.42,3h2.42V12.44H106.7Z" fill="#00b0f0"/><path d="M111.41,9.75a16.89,16.89,0,0,0,2.41-4.69l.78.27c-.29.76-.59,1.47-.91,2.12v7.24h-.8V9a16.39,16.39,0,0,1-1.15,1.68C111.65,10.36,111.54,10.07,111.41,9.75Zm2.83-1.28,2.31-.26c-.08-.82-.13-1.85-.16-3.09h.85a25.84,25.84,0,0,0,.12,3l3.58-.4.09.73-3.59.39c.36,2.7,1.07,4.31,2.12,4.85.29.12.47,0,.56-.28.12-.46.22-1,.31-1.57a7.41,7.41,0,0,0,.78.28,14.46,14.46,0,0,1-.35,1.68,1,1,0,0,1-1,.83,2.21,2.21,0,0,1-1.6-1,9.25,9.25,0,0,1-1.57-4.69l-2.28.25Zm3.89-2.58.51-.52c.57.44,1.16.92,1.76,1.46l-.6.6A19.9,19.9,0,0,0,118.13,5.89Z" fill="#00b0f0"/><path d="M121.46,10.48a10.93,10.93,0,0,0,1.73-3.77h-1.44V6h3.65v.72h-1.46A13.56,13.56,0,0,1,123.16,9h1.89v5.3h-.69v-.68h-1.23v.8h-.69V10.35a8.57,8.57,0,0,1-.55.79A5.09,5.09,0,0,0,121.46,10.48Zm2.9-.82h-1.23V13h1.23Zm1.08,1.93h4.12v.71h-4.12ZM127,6.71l-.25,2.86h2.3l.32-3.21h-3.6V5.65h4.43l-.42,3.92h1c-.05,1.32-.1,2.47-.16,3.44s-.52,1.45-1.38,1.45l-1.47,0c0-.24-.08-.51-.13-.81a12.57,12.57,0,0,0,1.42.09c.5,0,.77-.27.81-.83q.08-1.08.12-2.61H126l.3-3.56Z" fill="#00b0f0"/><path d="M131.47,8.3l.49-.57c.53.37,1.08.79,1.66,1.26-.23.28-.42.49-.56.64C132.38,9,131.85,8.58,131.47,8.3Zm.31,6a31,31,0,0,0,1-3.79c.29.12.55.22.79.3-.29,1.13-.61,2.38-.94,3.75Zm.08-8.59.49-.52c.48.38,1,.83,1.6,1.35l-.58.58C132.83,6.61,132.32,6.14,131.86,5.75ZM135,10.12h.74a7.83,7.83,0,0,1-.4,3,3.4,3.4,0,0,1-1.62,1.61,3.62,3.62,0,0,0-.5-.65,2.8,2.8,0,0,0,1.42-1.35A6.56,6.56,0,0,0,135,10.12Zm4.23-2.59c.51.59,1.07,1.3,1.69,2.14-.24.15-.48.3-.7.46l-.48-.69-4.41.22a3.81,3.81,0,0,0-.78.12L134.17,9a3.34,3.34,0,0,0,.68-.45A11.06,11.06,0,0,0,136.36,7h-2.17V6.31h3.1c-.25-.38-.48-.72-.71-1l.65-.4L138.05,6l-.51.33h3.32V7h-4.32l.65.28a21,21,0,0,1-1.7,1.64l3.73-.13c-.22-.31-.44-.59-.65-.85Zm-2.3,2.59h.73v4.35h-.73Zm1.78,0h.73v3.27q0,.45.36.45h.34c.2,0,.33-.17.38-.5s.07-.76.09-1.23a4.82,4.82,0,0,0,.73.28q-.07.83-.15,1.26a.87.87,0,0,1-.93.87h-.6c-.63,0-1-.38-1-1.14Z" fill="#00b0f0"/></g></svg>