<svg xmlns="http://www.w3.org/2000/svg" viewBox="0 0 424.04 484"><title>OJ104440672</title><path d="M70,24.4a11.81,11.81,0,0,1-16.84-2.29A12.56,12.56,0,0,1,55.43,4.82a11.82,11.82,0,0,1,16.84,2.3A12.54,12.54,0,0,1,70,24.4ZM73.69,6A13.57,13.57,0,0,0,54.33,3.36a14.43,14.43,0,0,0-2.55,19.87,13.62,13.62,0,0,0,11,5.55,13.45,13.45,0,0,0,8.39-2.92A14.44,14.44,0,0,0,73.69,6Z" fill="#008bfd"/><path d="M56.06,17.19a17,17,0,0,1-2-2.35,18.28,18.28,0,0,0-1.66,6.88c.11.16.11.29.23.44a12.55,12.55,0,0,0,2,2.05A14.13,14.13,0,0,1,56.06,17.19Z" fill="#008bfd"/><path d="M60.67,7.74a21,21,0,0,0-3.33,3,15.71,15.71,0,0,0-1.61,2,15.42,15.42,0,0,0,1.9,2.46,16.32,16.32,0,0,1,2.2-2.56A26.47,26.47,0,0,1,63,10.06C62.16,9.3,61.38,8.53,60.67,7.74Z" fill="#008bfd"/><path d="M72.15,7a12,12,0,0,0-1.73-1.82,12.53,12.53,0,0,0-8,1.53c.76.84,1.51,1.63,2.24,2.36C69,6.59,72.15,7,72.15,7Z" fill="#008bfd"/><path d="M54.34,15a19.82,19.82,0,0,1,1.19-2.06,9.84,9.84,0,0,1-1.6-6.79,13.09,13.09,0,0,0-1.29,1.6C52.26,9.34,52.24,11.9,54.34,15Z" fill="#008bfd"/><path d="M59.9,17.37a21.6,21.6,0,0,1-2.27-2.14,14.25,14.25,0,0,0-1.14,1.95,23.54,23.54,0,0,0,2.09,1.91,19.12,19.12,0,0,0,12.56,4.38,9,9,0,0,0,1.54-1.94C71.45,21.79,66.19,22.48,59.9,17.37Z" fill="#008bfd"/><path d="M54.55,14.83a15.72,15.72,0,0,0,2,2.35,15.36,15.36,0,0,1,1.14-1.95,15.42,15.42,0,0,1-1.9-2.46A15.58,15.58,0,0,0,54.55,14.83Z" fill="#008bfd"/><path d="M63,10.07a97,97,0,0,0,11.15,8.82,9.82,9.82,0,0,0,.33-1.05A95.51,95.51,0,0,1,64.61,9Q63.82,9.47,63,10.07Z" fill="#008bfd"/><path d="M62.38,6.66Q60.73,4.89,59,2.86a10.05,10.05,0,0,0-1.59.66,26.3,26.3,0,0,0,3.24,4.22A17.22,17.22,0,0,1,62.38,6.66Z" fill="#008bfd"/><path d="M62.45,6.62a18.74,18.74,0,0,0-1.87,1.19c.72.78,1.45,1.59,2.25,2.35.57-.4,1.34-.88,1.87-1.18C64,8.25,63.21,7.46,62.45,6.62Z" fill="#008bfd"/><path d="M62.25,6.52a16.24,16.24,0,0,0-1.67,1.12c.72.79,1.74,1.81,2.54,2.57.57-.4,1.05-.8,1.58-1.11C64,8.38,63,7.35,62.25,6.52Z" fill="#008bfd"/><path d="M68.3,13.07a2.7,2.7,0,0,0-.48,3.7,2.56,2.56,0,0,0,3.63.51,2.72,2.72,0,0,0,.48-3.72A2.55,2.55,0,0,0,68.3,13.07Z" fill="#008bfd"/><path d="M63.13,19.19a2.52,2.52,0,0,0-.45,3.44,2.37,2.37,0,0,0,3.36.45,2.49,2.49,0,0,0,.44-3.43A2.36,2.36,0,0,0,63.13,19.19Z" fill="#008bfd"/><path d="M54,11.86a3.79,3.79,0,0,0-.68,5.21,3.58,3.58,0,0,0,5.1.7,3.8,3.8,0,0,0,.67-5.23A3.59,3.59,0,0,0,54,11.86Z" fill="#008bfd"/><path d="M70,164a11.81,11.81,0,0,1-16.84-2.29,12.56,12.56,0,0,1,2.24-17.29,11.82,11.82,0,0,1,16.84,2.3A12.54,12.54,0,0,1,70,164Zm3.66-18.41A13.57,13.57,0,0,0,54.33,143a14.43,14.43,0,0,0-2.55,19.87,13.62,13.62,0,0,0,11,5.55,13.45,13.45,0,0,0,8.39-2.92A14.44,14.44,0,0,0,73.69,145.6Z" fill="#008bfd"/><path d="M56.06,156.8a17,17,0,0,1-2-2.35,18.28,18.28,0,0,0-1.66,6.88c.11.16.11.29.23.44a12.55,12.55,0,0,0,2,2A14.13,14.13,0,0,1,56.06,156.8Z" fill="#008bfd"/><path d="M60.67,147.35a21,21,0,0,0-3.33,3,15.71,15.71,0,0,0-1.61,2,15.42,15.42,0,0,0,1.9,2.46,16.32,16.32,0,0,1,2.2-2.56A26.47,26.47,0,0,1,63,149.67C62.16,148.91,61.38,148.14,60.67,147.35Z" fill="#008bfd"/><path d="M72.15,146.55a12,12,0,0,0-1.73-1.82,12.53,12.53,0,0,0-8,1.53c.76.84,1.51,1.63,2.24,2.36C69,146.19,72.15,146.55,72.15,146.55Z" fill="#008bfd"/><path d="M54.34,154.58a19.82,19.82,0,0,1,1.19-2.06,9.84,9.84,0,0,1-1.6-6.79,13.09,13.09,0,0,0-1.29,1.6C52.26,148.94,52.24,151.5,54.34,154.58Z" fill="#008bfd"/><path d="M59.9,157a21.6,21.6,0,0,1-2.27-2.14,14.25,14.25,0,0,0-1.14,1.95,23.54,23.54,0,0,0,2.09,1.91,19.12,19.12,0,0,0,12.56,4.38,9,9,0,0,0,1.54-1.94C71.45,161.4,66.19,162.09,59.9,157Z" fill="#008bfd"/><path d="M54.55,154.44a15.72,15.72,0,0,0,2,2.35,15.36,15.36,0,0,1,1.14-1.95,15.42,15.42,0,0,1-1.9-2.46A15.58,15.58,0,0,0,54.55,154.44Z" fill="#008bfd"/><path d="M63,149.67a97,97,0,0,0,11.15,8.82,9.82,9.82,0,0,0,.33-1.05,95.51,95.51,0,0,1-9.83-8.82Q63.82,149.07,63,149.67Z" fill="#008bfd"/><path d="M62.38,146.27q-1.65-1.77-3.36-3.8a10.05,10.05,0,0,0-1.59.66,26.3,26.3,0,0,0,3.24,4.22A17.22,17.22,0,0,1,62.38,146.27Z" fill="#008bfd"/><path d="M62.45,146.23a18.74,18.74,0,0,0-1.87,1.19c.72.78,1.45,1.59,2.25,2.35.57-.4,1.34-.88,1.87-1.18C64,147.86,63.21,147.07,62.45,146.23Z" fill="#008bfd"/><path d="M62.25,146.12a16.24,16.24,0,0,0-1.67,1.12c.72.79,1.74,1.81,2.54,2.57.57-.4,1.05-.8,1.58-1.11C64,148,63,147,62.25,146.12Z" fill="#008bfd"/><path d="M68.3,152.68a2.7,2.7,0,0,0-.48,3.7,2.56,2.56,0,0,0,3.63.51,2.72,2.72,0,0,0,.48-3.72A2.55,2.55,0,0,0,68.3,152.68Z" fill="#008bfd"/><path d="M63.13,158.8a2.52,2.52,0,0,0-.45,3.44,2.37,2.37,0,0,0,3.36.45,2.49,2.49,0,0,0,.44-3.43A2.36,2.36,0,0,0,63.13,158.8Z" fill="#008bfd"/><path d="M54,151.47a3.79,3.79,0,0,0-.68,5.21,3.58,3.58,0,0,0,5.1.7,3.8,3.8,0,0,0,.67-5.23A3.59,3.59,0,0,0,54,151.47Z" fill="#008bfd"/><path d="M70,94.28A11.81,11.81,0,0,1,53.19,92,12.56,12.56,0,0,1,55.43,74.7,11.82,11.82,0,0,1,72.27,77,12.54,12.54,0,0,1,70,94.28Zm3.66-18.41a13.57,13.57,0,0,0-19.36-2.63,14.43,14.43,0,0,0-2.55,19.87,13.62,13.62,0,0,0,11,5.55,13.45,13.45,0,0,0,8.39-2.92A14.44,14.44,0,0,0,73.69,75.87Z" fill="#008bfd"/><path d="M56.06,87.07a17,17,0,0,1-2-2.35,18.28,18.28,0,0,0-1.66,6.88c.11.16.11.29.23.44a12.55,12.55,0,0,0,2,2A14.13,14.13,0,0,1,56.06,87.07Z" fill="#008bfd"/><path d="M60.67,77.62a21,21,0,0,0-3.33,3,15.71,15.71,0,0,0-1.61,2.05,15.42,15.42,0,0,0,1.9,2.46,16.32,16.32,0,0,1,2.2-2.56A26.47,26.47,0,0,1,63,79.94C62.16,79.18,61.38,78.41,60.67,77.62Z" fill="#008bfd"/><path d="M72.15,76.83A12,12,0,0,0,70.42,75a12.53,12.53,0,0,0-8,1.53c.76.84,1.51,1.63,2.24,2.36C69,76.47,72.15,76.83,72.15,76.83Z" fill="#008bfd"/><path d="M54.34,84.86a19.82,19.82,0,0,1,1.19-2.06A9.84,9.84,0,0,1,53.93,76a13.09,13.09,0,0,0-1.29,1.6C52.26,79.22,52.24,81.78,54.34,84.86Z" fill="#008bfd"/><path d="M59.9,87.25a21.6,21.6,0,0,1-2.27-2.14,14.25,14.25,0,0,0-1.14,2A23.54,23.54,0,0,0,58.58,89a19.12,19.12,0,0,0,12.56,4.38,9,9,0,0,0,1.54-1.94C71.45,91.67,66.19,92.36,59.9,87.25Z" fill="#008bfd"/><path d="M54.55,84.71a15.72,15.72,0,0,0,2,2.35,15.36,15.36,0,0,1,1.14-2,15.42,15.42,0,0,1-1.9-2.46A15.58,15.58,0,0,0,54.55,84.71Z" fill="#008bfd"/><path d="M63,80a97,97,0,0,0,11.15,8.82,9.82,9.82,0,0,0,.33-1,95.51,95.51,0,0,1-9.83-8.82Q63.82,79.35,63,80Z" fill="#008bfd"/><path d="M62.38,76.54q-1.65-1.77-3.36-3.8a10.05,10.05,0,0,0-1.59.66,26.3,26.3,0,0,0,3.24,4.22A17.22,17.22,0,0,1,62.38,76.54Z" fill="#008bfd"/><path d="M62.45,76.5a18.74,18.74,0,0,0-1.87,1.19c.72.78,1.45,1.59,2.25,2.35.57-.4,1.34-.88,1.87-1.18C64,78.13,63.21,77.34,62.45,76.5Z" fill="#008bfd"/><path d="M62.25,76.4a16.24,16.24,0,0,0-1.67,1.12c.72.79,1.74,1.81,2.54,2.57.57-.4,1.05-.8,1.58-1.11C64,78.26,63,77.23,62.25,76.4Z" fill="#008bfd"/><path d="M68.3,83a2.7,2.7,0,0,0-.48,3.7,2.56,2.56,0,0,0,3.63.51,2.72,2.72,0,0,0,.48-3.72A2.55,2.55,0,0,0,68.3,83Z" fill="#008bfd"/><path d="M63.13,89.07a2.52,2.52,0,0,0-.45,3.44A2.37,2.37,0,0,0,66,93a2.49,2.49,0,0,0,.44-3.43A2.36,2.36,0,0,0,63.13,89.07Z" fill="#008bfd"/><path d="M54,81.74A3.79,3.79,0,0,0,53.31,87a3.58,3.58,0,0,0,5.1.7,3.8,3.8,0,0,0,.67-5.23A3.59,3.59,0,0,0,54,81.74Z" fill="#008bfd"/><g style="isolation:isolate"><path d="M50,244.05l-2.12,7.57H46.7l-1.52-5.45a3.34,3.34,0,0,1-.12-.78h0a3.88,3.88,0,0,1-.14.77l-1.54,5.46H42.24L40,244.05h1.08l1.55,5.72a4.94,4.94,0,0,1,.12.77h0a3.91,3.91,0,0,1,.16-.77l1.63-5.72h1l1.56,5.76a4.87,4.87,0,0,1,.12.72h0a4.21,4.21,0,0,1,.15-.74l1.48-5.74Z" fill="#008bfd"/><path d="M55.08,249.16H51.3a2,2,0,0,0,.48,1.34A1.65,1.65,0,0,0,53,251a2.73,2.73,0,0,0,1.67-.58v.85a3.2,3.2,0,0,1-1.89.5A2.3,2.3,0,0,1,51,251a3,3,0,0,1-.66-2.06,2.92,2.92,0,0,1,.72-2,2.3,2.3,0,0,1,1.79-.81,2.1,2.1,0,0,1,1.66.68,2.85,2.85,0,0,1,.59,1.91Zm-.95-.76a1.76,1.76,0,0,0-.35-1.14,1.22,1.22,0,0,0-1-.4,1.33,1.33,0,0,0-1,.43,1.94,1.94,0,0,0-.53,1.11Z" fill="#008bfd"/><path d="M57.31,250.86v.76h-1v-8h1v3.53h0a2,2,0,0,1,1.86-1.06,2,2,0,0,1,1.61.72,2.92,2.92,0,0,1,.6,1.95,3.3,3.3,0,0,1-.67,2.18,2.21,2.21,0,0,1-1.79.8,1.79,1.79,0,0,1-1.61-.88Zm0-1.46a1.56,1.56,0,0,0,.42,1.1,1.42,1.42,0,0,0,1.07.45,1.39,1.39,0,0,0,1.19-.58,2.66,2.66,0,0,0,.43-1.62,2.1,2.1,0,0,0-.4-1.36,1.32,1.32,0,0,0-1.1-.51,1.54,1.54,0,0,0-1.16.5,1.87,1.87,0,0,0-.45,1.28Z" fill="#008bfd"/><path d="M69.49,243.6l.71-.39a11.43,11.43,0,0,1,.8,1.17l-.47.27h4v.74H66.88v2.39A7.93,7.93,0,0,1,65.45,253a6.21,6.21,0,0,0-.56-.67c.78-.88,1.17-2.37,1.17-4.48v-3.15h4.13A12,12,0,0,0,69.49,243.6Zm-2.67,8h4.52A48.33,48.33,0,0,0,73,246.3l.85.23q-.92,3.22-1.62,5.1h2.41v.74H66.82Zm.53-4.79.74-.26q.6,1.78,1.17,4l-.83.25C68.13,249.53,67.77,248.2,67.35,246.84Zm2.35-.49.75-.22a39.36,39.36,0,0,1,.9,3.94l-.86.22A39.8,39.8,0,0,0,69.7,246.35Z" fill="#008bfd"/><path d="M79.67,252.77v-3.11H76.83A6.27,6.27,0,0,1,75.65,253a8.37,8.37,0,0,0-.58-.67,5.18,5.18,0,0,0,.86-2,16.07,16.07,0,0,0,.22-3v-3.48h8v7.76c0,.78-.37,1.16-1.11,1.16l-1.51,0q0-.32-.15-.81.85.06,1.38.06t.6-.57v-1.8H80.45v3.11ZM76.88,249h2.79v-1.83H76.93A15.73,15.73,0,0,1,76.88,249Zm.05-4.35v1.82h2.74v-1.82Zm6.39,0H80.45v1.82h2.87ZM80.45,249h2.87v-1.83H80.45Z" fill="#008bfd"/></g><path d="M305.43,284h-20.5a1.1,1.1,0,0,0-1.09,1.11v16.74a1.09,1.09,0,0,0,1.09,1.1h5.28a3.29,3.29,0,0,0,3.21,2.27,3.38,3.38,0,0,0,0-6.75,3.29,3.29,0,0,0-3.21,2.27H286v-12h18.31v12h-3.45a7.61,7.61,0,0,0-7.46-6.56,8.25,8.25,0,0,0-3.64.92l1,2a5.27,5.27,0,0,1,2.55-.67,5.46,5.46,0,0,1,0,10.92,5.28,5.28,0,0,1-2.55-.68l-1,2a7.4,7.4,0,0,0,3.64.92,7.61,7.61,0,0,0,7.46-6.56h4.55a1.09,1.09,0,0,0,1.09-1.1V285.08A1.14,1.14,0,0,0,305.43,284Z" fill="#008bfd"/><g style="isolation:isolate"><path d="M282.57,322.91h-1.08l-.77-2.07h-3.15l-.73,2.07h-1.07l2.88-7.56h1ZM280.42,320l-1.14-3.14a2.86,2.86,0,0,1-.12-.53h0a2.21,2.21,0,0,1-.12.53L277.88,320Z" fill="#008bfd"/><path d="M284.64,320.08v2.83h-1v-7.56h2.14a2.78,2.78,0,0,1,1.91.59,2.11,2.11,0,0,1,.67,1.69,2.27,2.27,0,0,1-.79,1.8,2.73,2.73,0,0,1-2,.65Zm0-3.88v3h.91a2,2,0,0,0,1.35-.4,1.45,1.45,0,0,0,.47-1.16c0-1-.58-1.46-1.73-1.46Z" fill="#008bfd"/><path d="M290.76,315.35v7.56h-1v-7.56Z" fill="#008bfd"/><path d="M299.34,314.89l.72-.38a11.78,11.78,0,0,1,.8,1.16l-.48.27h4v.74h-7.6v2.4a7.92,7.92,0,0,1-1.43,5.16,6.21,6.21,0,0,0-.56-.67c.78-.87,1.17-2.37,1.17-4.47v-3.16h4.13A10.19,10.19,0,0,0,299.34,314.89Zm-2.66,8h4.52a48.33,48.33,0,0,0,1.61-5.33l.85.24q-.92,3.21-1.62,5.09h2.41v.75h-7.77Zm.53-4.79.74-.26q.6,1.78,1.17,4l-.83.25C298,320.82,297.63,319.5,297.21,318.13Zm2.35-.49.75-.21a38.51,38.51,0,0,1,.9,3.93l-.86.23A39.42,39.42,0,0,0,299.56,317.64Z" fill="#008bfd"/><path d="M309.53,324.06V321h-2.84a6.33,6.33,0,0,1-1.18,3.37c-.17-.21-.36-.44-.58-.67a5.33,5.33,0,0,0,.86-2,16.19,16.19,0,0,0,.21-3v-3.49h8v7.76c0,.78-.36,1.17-1.1,1.17l-1.51,0c0-.22-.08-.49-.15-.81.57,0,1,.05,1.38.05s.6-.19.6-.57V321h-2.87v3.11Zm-2.79-3.81h2.79v-1.83h-2.74A15.73,15.73,0,0,1,306.74,320.25Zm.05-4.35v1.82h2.74V315.9Zm6.39,0h-2.87v1.82h2.87Zm-2.87,4.35h2.87v-1.83h-2.87Z" fill="#008bfd"/></g><path d="M77.21,427.2H71.13c-.23,0-.38.14-.38.45v2.18a.36.36,0,0,0,.38.38h3.45v3.38c0,.22.15.37.45.37h2.18a.35.35,0,0,0,.37-.37v-6A.34.34,0,0,0,77.21,427.2ZM60,448.18H56.57V444.8c0-.22-.15-.37-.45-.37H54a.35.35,0,0,0-.38.37v6a.35.35,0,0,0,.38.37H60c.23,0,.38-.15.38-.46v-2.18A.36.36,0,0,0,60,448.18ZM73.6,444.5a.9.9,0,0,0-.45.08l-2.32-4.06a2.9,2.9,0,0,0,.9-2,2.79,2.79,0,0,0-3.9-2.56l-2.48-3.47a2,2,0,0,0,.53-1.5,2.33,2.33,0,1,0-2.33,2.32,2.38,2.38,0,0,0,.75-.14l2.48,3.54a2.82,2.82,0,0,0-.68,1.43l-7.2.6a1.78,1.78,0,0,0-1.65-1,1.88,1.88,0,0,0,0,3.76,1.92,1.92,0,0,0,1.87-1.59l7.06-.6a3.94,3.94,0,0,0,.67,1.22l-1.8,2.93h-.22a1.88,1.88,0,1,0,1.87,1.88,2.11,2.11,0,0,0-.52-1.35l1.72-2.86a4.59,4.59,0,0,0,1,.15,3.94,3.94,0,0,0,.82-.15L72,445.18a2.3,2.3,0,0,0-.68,1.57,2.18,2.18,0,1,0,2.25-2.25Z" fill="#007efd"/><g style="isolation:isolate"><path d="M37.31,460.92h3.82a13.57,13.57,0,0,0,.25-2.26H38.05v-.76H46v.76H42.2a17.62,17.62,0,0,1-.26,2.26h4.78v.77H41.78a7.63,7.63,0,0,1-4.08,5.11,7.12,7.12,0,0,0-.53-.69A7,7,0,0,0,41,461.69H37.31Zm5,1.47h.79V465c0,.51.23.77.71.77h1.34a.65.65,0,0,0,.75-.58q.08-.56.12-1.44l.82.28c-.07.65-.13,1.13-.18,1.46-.08.65-.55,1-1.39,1H43.58c-.85,0-1.27-.45-1.27-1.35Z" fill="#007efd"/><path d="M47.12,460.36l.42-.55c.66.48,1.18.89,1.57,1.23-.21.26-.38.45-.52.6C48.09,461.16,47.59,460.74,47.12,460.36Zm.3,6a34.92,34.92,0,0,0,1-3.76c.17.09.41.19.7.31-.27,1.14-.57,2.38-.89,3.72Zm0-8.54.48-.5c.73.6,1.19,1,1.4,1.18l-.55.56C48.49,458.74,48,458.33,47.47,457.82Zm5.58,1.68a13.46,13.46,0,0,1-1,3.7c.48.83.92,1.62,1.34,2.39l-.71.37c-.33-.63-.67-1.29-1-1.95a8.52,8.52,0,0,1-2.2,2.57,5.11,5.11,0,0,0-.52-.59,8.69,8.69,0,0,0,2.29-2.77c-.48-.87-1-1.77-1.53-2.69l.61-.35c.45.76.89,1.5,1.3,2.22a12.63,12.63,0,0,0,.74-2.9H49.4v-.69h4.07v.69Zm-2.3-2.08.64-.33a12.89,12.89,0,0,1,.73,1.22l-.68.36A11,11,0,0,0,50.75,457.42Zm3.83,7h-.71v-6.22h.71Zm1.1-7.28h.74v8.42a.9.9,0,0,1-1,1l-1.37,0a5.27,5.27,0,0,0-.13-.81,12.37,12.37,0,0,0,1.29.08q.48,0,.48-.51Z" fill="#007efd"/><path d="M62.21,462.31a6,6,0,0,1-.11,1.18h.66v1.72c0,.39.22.59.66.59h1.73c.48,0,.75-.19.8-.56a10.81,10.81,0,0,0,.13-1.19c.25.1.51.18.78.26-.06.43-.12.8-.19,1.14-.12.69-.59,1-1.42,1h-2A1.07,1.07,0,0,1,62,465.29v-1.46a2.67,2.67,0,0,1-.77,1.31,8,8,0,0,1-3.62,1.6c-.14-.24-.29-.48-.44-.72a8.36,8.36,0,0,0,3.43-1.36,2.8,2.8,0,0,0,.84-2.35Zm-4.47-4.93h.75v3.41h-.75Zm.75,3.91h6.77v3.27h-.75V462H59.24v2.68h-.75ZM60,457.1h.74v3.73H60Zm2.74,0h.82c-.15.35-.3.7-.46,1h3.6v.69h-4a13.14,13.14,0,0,1-1.1,1.65A4,4,0,0,0,61,460,9.72,9.72,0,0,0,62.71,457.09Zm.46,2.11c1,.44,2,.89,2.85,1.36l-.39.64c-.75-.43-1.7-.91-2.84-1.44Z" fill="#007efd"/><path d="M67.46,461.22h4a3,3,0,0,0,.19-.85l.71.1a4.12,4.12,0,0,1-.18.75h2.13c-.26-.19-.53-.38-.82-.56l.4-.44c.43.26.82.51,1.16.76l-.22.24H76.6v.64H72.83c.75.74,2.09,1.09,4,1.05a6.94,6.94,0,0,0-.4.75l-.5-.05v3h-.69v-.54H73.16v.53h-.68v-3h3.11q-2.79-.37-3.57-1.71h-.17c-.37.78-1.55,1.35-3.55,1.71h3.13v3h-.69v-.53H68.68v.54H68v-3l-.54.1c-.1-.2-.22-.43-.38-.7,2.17-.28,3.48-.67,3.92-1.17H67.46Zm.53-3.56h3.43v2.84h-.69v-.3H68.67v.4H68Zm2.74.61H68.67v1.33h2.06Zm0,5.91H68.68v1.28h2.06Zm1.73-6.52h3.46v2.88h-.69v-.34H73.15v.3h-.68Zm2.77.61H73.15v1.33h2.09Zm0,5.91H73.16v1.28h2.09Z" fill="#007efd"/><path d="M81.63,457.4l.71-.38a13.15,13.15,0,0,1,.81,1.16l-.48.27h4v.75H79v2.39a7.92,7.92,0,0,1-1.42,5.16c-.16-.21-.35-.43-.57-.67q1.17-1.31,1.17-4.47v-3.16h4.13A11.27,11.27,0,0,0,81.63,457.4Zm-2.66,8h4.51a46.21,46.21,0,0,0,1.62-5.34l.85.24q-.92,3.23-1.62,5.1h2.41v.74H79Zm.52-4.8.74-.25c.41,1.18.8,2.51,1.18,4l-.83.26C80.28,463.34,79.92,462,79.49,460.64Zm2.36-.49.75-.21a38.51,38.51,0,0,1,.9,3.93l-.86.23C82.45,462.81,82.18,461.49,81.85,460.15Z" fill="#007efd"/><path d="M91.82,466.57v-3.11H89a6.33,6.33,0,0,1-1.19,3.37c-.17-.21-.36-.44-.57-.67a5.29,5.29,0,0,0,.86-2,16.31,16.31,0,0,0,.21-3v-3.49h8v7.77c0,.77-.37,1.16-1.1,1.16l-1.52,0c0-.22-.08-.49-.14-.81.56,0,1,.06,1.37.06s.61-.2.61-.58v-1.8H92.6v3.11ZM89,462.76h2.79v-1.83H89.07A15.72,15.72,0,0,1,89,462.76Zm0-4.35v1.82h2.75v-1.82Zm6.4,0H92.6v1.82h2.87Zm-2.87,4.35h2.87v-1.83H92.6Z" fill="#007efd"/></g><path d="M71.17,279.66H54.32c-1.48,0-1.5.4-1.5,2.23v29.55c0,1.83,0,2.17,1.49,2.22H71.17c1.47-.05,1.49-.39,1.49-2.22V281.89C72.66,280.06,72.64,279.71,71.17,279.66Zm-10.76,1.15h4.67a.18.18,0,0,1,0,.36H60.41a.18.18,0,0,1,0-.36Zm.12,31.09H59.39c-.19,0-.34-.07-.34-.27s.15-.26.34-.26h1.14c.19,0,.35.07.35.26S60.72,311.9,60.53,311.9Zm3,.2H62c-.26,0-.47-.11-.47-.37s.21-.36.47-.36h1.55c.26,0,.47.1.47.37S63.78,312.1,63.52,312.1Zm2.59-.2H65c-.18,0-.34-.08-.34-.27s.16-.27.34-.27h1.14c.19,0,.34.08.34.27S66.3,311.9,66.11,311.9Zm5.12-3.45c0,1.56-.14,1.9-1.56,1.92H55.81c-1.41,0-1.56-.36-1.56-1.92V283.87c0-1.63.16-1.63,1.74-1.63h13.5c1.59,0,1.75,0,1.75,1.63Z" fill="#008bfd"/><path d="M70.26,284.87c0-1.57-.19-1.58-1.73-1.58H56.9c-1.54,0-1.69,0-1.69,1.58v22.54c0,1.57.16,1.85,1.69,1.85H68.53c1.54,0,1.73-.28,1.73-1.86Zm-8,16.65-4.77-2.83V293l4.77,2.82ZM58,292.25l4.76-2.81,4.78,2.83-4.75,2.81Zm10,6.44-4.77,2.83v-5.63L68,293.07Z" fill="#008bfd"/><g style="isolation:isolate"><g style="isolation:isolate"><path d="M44.78,325.75a11.88,11.88,0,0,0,1.57-3.26H44.9v-.7h1.55v-1.53l-1.34.1a5.81,5.81,0,0,0-.15-.72c1.33-.07,2.49-.17,3.48-.32l.18.74c-.41.05-.89.09-1.45.14v1.59h1.36v.7H47.17v1.25l.32-.37c.43.34.86.7,1.28,1.07l-.52.58c-.33-.32-.69-.65-1.08-1v4.42h-.72v-4.3a10.33,10.33,0,0,1-1.33,2.46C45,326.31,44.9,326,44.78,325.75Zm3.43.24a9.75,9.75,0,0,0,2.54-2.71,15.14,15.14,0,0,1-2,.8q-.15-.3-.36-.66A12.63,12.63,0,0,0,51,322.37c-.28-.27-.65-.6-1.1-1l.44-.49q.72.55,1.26,1a6.44,6.44,0,0,0,1.7-1.65H50.35a8.71,8.71,0,0,1-1.53,1.62c-.14-.18-.3-.36-.48-.55a8,8,0,0,0,2.16-2.65l.69.26c-.11.21-.23.42-.36.62h3.26v.71a6.84,6.84,0,0,1-3,2.77l.51.18c-.1.17-.21.33-.32.5h3.1v.71c-.87,2-2.84,3.34-5.92,4a7.12,7.12,0,0,0-.35-.64,12.61,12.61,0,0,0,3-1c-.28-.3-.62-.64-1-1l.47-.47c.42.37.81.74,1.16,1.09a6.55,6.55,0,0,0,1.9-2H50.81a12.56,12.56,0,0,1-2.16,2.15C48.53,326.42,48.38,326.22,48.21,326Z" fill="#008bfd"/><path d="M58.35,324.18c.41.88.79,1.76,1.13,2.63l-.73.32c0-.12-.09-.24-.13-.37l-3.39.35-.34-.79a1.75,1.75,0,0,0,.69-.79,20.28,20.28,0,0,0,1-2.44H54.92v-.72h4.72v.72H57.4A33.88,33.88,0,0,1,56,326.32c.75-.05,1.55-.13,2.42-.22q-.33-.83-.69-1.62Zm-3-4.56h3.92v.73H55.33Zm4,1.19H60.8c0-.66,0-1.33,0-2h.8c0,.69,0,1.36,0,2h2.63c0,2.46-.11,4.44-.19,5.94-.08.92-.5,1.39-1.28,1.4l-1.32,0c0-.27-.1-.56-.16-.86a11.69,11.69,0,0,0,1.23.1q.72,0,.75-.81c.1-1.62.16-3.28.18-5H61.57c0,.28,0,.56,0,.83a8.28,8.28,0,0,1-2.33,6.07c-.18-.22-.38-.44-.58-.66a7.1,7.1,0,0,0,2.12-5.43c0-.27,0-.54,0-.81H59.35Z" fill="#008bfd"/><path d="M69.34,319.07l.71-.38a11.27,11.27,0,0,1,.8,1.16l-.47.27h4v.74H66.73v2.4a7.92,7.92,0,0,1-1.42,5.16,7.87,7.87,0,0,0-.57-.67q1.17-1.31,1.17-4.47v-3.16H70A10.08,10.08,0,0,0,69.34,319.07Zm-2.67,8h4.52a46.21,46.21,0,0,0,1.62-5.34l.84.24q-.9,3.23-1.62,5.1h2.42v.74H66.67Zm.53-4.8.74-.25c.41,1.18.8,2.51,1.17,4l-.83.25C68,325,67.62,323.68,67.2,322.31Zm2.35-.49.76-.21c.33,1.17.63,2.48.89,3.93l-.86.23A36.79,36.79,0,0,0,69.55,321.82Z" fill="#008bfd"/><path d="M79.52,328.24v-3.11H76.68a6.24,6.24,0,0,1-1.18,3.37c-.17-.21-.36-.44-.58-.67a5.13,5.13,0,0,0,.86-2,15.32,15.32,0,0,0,.22-3v-3.49h8v7.76q0,1.17-1.11,1.17l-1.51,0q0-.33-.15-.81.86.06,1.38.06a.53.53,0,0,0,.61-.58v-1.8H80.31v3.11Zm-2.78-3.81h2.78V322.6H76.78C76.8,323.23,76.78,323.84,76.74,324.43Zm0-4.35v1.82h2.74v-1.82Zm6.4,0H80.31v1.82h2.87Zm-2.87,4.35h2.87V322.6H80.31Z" fill="#008bfd"/></g></g><path d="M275.36,292.72l8,4-8,4a9.08,9.08,0,0,0,0-8" fill="#505050"/><path d="M67.79,384.27H53.58V355.89H67.79v7.68h.76v-8.44H52.82V385H68.55v-2.32h-.76Z" fill="#0078d7"/><path d="M67,356.69H54.38v4.58H67Zm-9.58,1.91H64v.76H57.44ZM64,360.45H57.41v-.77H64Z" fill="#0078d7"/><path d="M54.34,362v3h8.6v-1.53H67V362Z" fill="#0078d7"/><rect x="54.34" y="365.86" width="8.6" height="2.68" fill="#0078d7"/><path d="M54.34,383.5H67v-.79H62.91V369.33h-8.6V383.5Zm1.53-2.74h2.29V382H55.87Z" fill="#0078d7"/><path d="M77.57,380.45H75.11v-1.88H72.6v1.88H70.15a1.32,1.32,0,0,0-1.31,1.14h10A1.28,1.28,0,0,0,77.57,380.45Z" fill="#0078d7"/><path d="M82.4,366.47H65.3a.64.64,0,0,0-.67.6V377.2a.64.64,0,0,0,.67.6H82.4a.64.64,0,0,0,.67-.6V367.07A.62.62,0,0,0,82.4,366.47Zm-1,9.84H66.32V368H81.38Z" fill="#0078d7"/><path d="M77.76,373.82v-3.44l-3.51-1.85-3.5,1.78v3.54l3.5,1.81Zm-4.4-2.3.89-.44.86.44-.86.48Zm0-1.14.86-.45.86.45-.86.47Zm1.91,4.52-1,.51v-.93l1-.5Zm0-1.18-1,.51v-.92l1-.51Zm0-1.11-1,.51v-.93l1-.51ZM74.48,371l.86-.45.89.45-.86.45Zm2,3.34-1,.51v-.92l1-.51Zm0-1.17-1,.5v-.92l1-.51Zm0-1.15-1,.51v-.89l1-.51Zm1,1.75-.86.45v-.93l.86-.44Zm0-1.15-.86.45v-.92l.86-.45Zm0-1.14-.86.44V371l.86-.45Zm-.19-1.05-.89.44-.89-.44.86-.45Zm-1.11-.58-.89.45-.86-.45.86-.44Zm-2-1.05.86.45-.86.44-.89-.44Zm-1.11.61.86.44-.86.45-.86-.45Zm-1.08.57.89.45-.89.44-.9-.44Zm-.26,4.27-.86-.45v-.92l.86.44Zm0-1.18-.86-.45v-.92l.86.45Zm0-1.15-.86-.44v-.89l.86.44ZM73,374.8l-1-.51v-.92l1,.51Zm0-1.18-1-.5v-.93l1,.51Zm0-1.14L72,372v-.89l1,.51Zm-.7-1.53.89-.45L74,371l-.89.48Zm1.88,4.46-1-.51V374l1,.51Zm0-1.15-1-.51v-.92l1,.51Zm0-1.14-1-.51v-.93l1,.51Z" fill="#0078d7"/><g style="isolation:isolate"><path d="M55.09,396.09c-.23.27-.42.52-.58.74a8.74,8.74,0,0,1-3.94-2.26v2.6h-.74v-2.62a12.28,12.28,0,0,1-3.9,2.4c-.15-.19-.34-.42-.57-.66A11,11,0,0,0,49,394.51H45.54v-.64h4.29V393h-2.5v.27H46.6v-3.67h3.08v-2.1h.74v.75h4.24v.65H50.42v.7h3.41v3.67H53.1V393H50.57v.88H55v.64H51.33A8.28,8.28,0,0,0,55.09,396.09Zm-2-5.9H47.33v.8H53.1Zm-5.77,2.19H53.1v-.8H47.33Z" fill="#0078d7"/><path d="M56,390.09h3.09c.19-.5.34-.93.46-1.29H55.52v-.73h9.39v.73H60.46l-.53,1.29h4.44v7h-.76v-.55H56.79v.56H56Zm.75,5.79h1.57v-5.15H56.79ZM59.06,392h2.28v-1.3H59.06Zm0,1.92h2.28v-1.3H59.06Zm0,1.93h2.28v-1.3H59.06Zm4.55-5.15H62v5.15h1.57Z" fill="#0078d7"/><path d="M69.86,387.78l.72-.38c.28.36.54.75.8,1.16l-.48.28h4v.74h-7.6V392a7.93,7.93,0,0,1-1.43,5.17,6.42,6.42,0,0,0-.57-.68c.79-.87,1.18-2.36,1.18-4.47v-3.15h4.13A11.53,11.53,0,0,0,69.86,387.78Zm-2.66,8h4.51a46.57,46.57,0,0,0,1.62-5.33l.85.23q-.92,3.22-1.62,5.1H75v.74H67.2Zm.53-4.8.74-.25c.4,1.18.79,2.51,1.17,4l-.83.26Q68.36,393.08,67.73,391Zm2.35-.48.75-.22a38.12,38.12,0,0,1,.9,3.94l-.86.22A39.24,39.24,0,0,0,70.08,390.54Z" fill="#0078d7"/><path d="M80.05,397v-3.1H77.21A6.39,6.39,0,0,1,76,397.22c-.17-.22-.36-.44-.58-.68a5.29,5.29,0,0,0,.86-2,16.23,16.23,0,0,0,.21-3v-3.49h8v7.77c0,.77-.36,1.16-1.1,1.16l-1.51,0-.15-.81q.86.06,1.38.06c.4,0,.6-.19.6-.58v-1.79H80.83V397Zm-2.79-3.81h2.79v-1.82H77.31A15.49,15.49,0,0,1,77.26,393.14Zm0-4.34v1.81h2.74V388.8Zm6.39,0H80.83v1.81H83.7Zm-2.87,4.34H83.7v-1.82H80.83Z" fill="#0078d7"/></g><path d="M7.85,152.05a4.49,4.49,0,0,0-3,5.66c.66,2.56,3,4.22,5.27,3.67a4.49,4.49,0,0,0,3-5.66C12.57,153.05,10.16,151.39,7.85,152.05Z" fill="#008bfd"/><path d="M12.78,162.07c-.43,0-.88.77-1.54,1.11s-1.31.88-3.17,0-2.1-1.67-3.64-1.67-4,2.78-4,6.88H16a12.24,12.24,0,0,0-1.11-4.22C13.77,162.07,13.23,162.07,12.78,162.07Z" fill="#008bfd"/><path d="M14.19,157.12H10.07a.71.71,0,0,0-.65.66v2.85a.73.73,0,0,0,.76.66h.76v5.15a1,1,0,0,0,1,1.09,1,1,0,0,0,1-1h.21v-.66c0-.22.33-.33.33-.33v-.33c-.33-.11-.54-.33-.54-.44v-.32l.21-.22a3.53,3.53,0,0,0,.33-.55,2.4,2.4,0,0,1-.33-.55c-.1-.11-.1-.33-.21-.44v-.22a2.52,2.52,0,0,1,.76-1.09h.54a.71.71,0,0,0,.65-.66v-3A.63.63,0,0,0,14.19,157.12Zm-2.39,9.54c0,.22,0,.33-.21.33s-.22-.22-.22-.33v-4.82c0-.22.11-.33.22-.33s.21.22.21.33Zm.33-7.78a.66.66,0,0,1,0-1.32.71.71,0,0,1,.65.66A.63.63,0,0,1,12.13,158.88Z" fill="#008bfd" stroke="gray" stroke-linecap="round" stroke-linejoin="round" stroke-width="0.75"/><path d="M11.57,167a.24.24,0,0,1-.22-.22v-5a.22.22,0,1,1,.44,0v5.1C11.79,167,11.68,167,11.57,167Z" fill="#fff"/><ellipse cx="12.14" cy="158.2" rx="0.66" ry="0.67" fill="#fff"/><path d="M275.36,292.71l8,4-8,4a9.06,9.06,0,0,0,0-8" fill="#505050"/><path d="M275.37,292.71l8,4-8,4a9,9,0,0,0,0-8" fill="#505050"/><path d="M275.37,292.71l8,4-8,4a9,9,0,0,0,0-8" fill="#505050"/><path d="M275.37,292.71l8,4-8,4a9,9,0,0,0,0-8" fill="#505050"/><path d="M413.15,284h-20.5a1.1,1.1,0,0,0-1.09,1.11v16.74a1.09,1.09,0,0,0,1.09,1.1h5.28a3.29,3.29,0,0,0,3.21,2.27,3.38,3.38,0,0,0,0-6.75,3.29,3.29,0,0,0-3.21,2.27h-4.19v-12h18.31v12H408.6a7.61,7.61,0,0,0-7.46-6.56,8.25,8.25,0,0,0-3.64.92l1,2a5.27,5.27,0,0,1,2.55-.67,5.46,5.46,0,0,1,0,10.92,5.28,5.28,0,0,1-2.55-.68l-1,2a7.4,7.4,0,0,0,3.64.92,7.61,7.61,0,0,0,7.46-6.56h4.55a1.09,1.09,0,0,0,1.09-1.1V285.08A1.14,1.14,0,0,0,413.15,284Z" fill="#008bfd"/><g style="isolation:isolate"><path d="M390.91,322.91h-1.08l-.77-2.07h-3.15l-.72,2.07h-1.08l2.88-7.56h1ZM388.76,320l-1.14-3.14a2.86,2.86,0,0,1-.12-.53h0a2.71,2.71,0,0,1-.13.53L386.22,320Z" fill="#008bfd"/><path d="M392.73,320.08v2.83h-1v-7.56h2.15a2.77,2.77,0,0,1,1.9.59,2.11,2.11,0,0,1,.67,1.69,2.27,2.27,0,0,1-.79,1.8,2.72,2.72,0,0,1-2,.65Zm0-3.88v3h.91a2,2,0,0,0,1.35-.4,1.45,1.45,0,0,0,.47-1.16c0-1-.58-1.46-1.73-1.46Z" fill="#008bfd"/><path d="M398.6,315.35v7.56h-1v-7.56Z" fill="#008bfd"/><path d="M406.69,314.89l.71-.38a10.28,10.28,0,0,1,.8,1.16l-.47.27h4v.74h-7.61v2.4a7.92,7.92,0,0,1-1.43,5.16,6.21,6.21,0,0,0-.56-.67c.78-.87,1.17-2.37,1.17-4.47v-3.16h4.13A12,12,0,0,0,406.69,314.89Zm-2.67,8h4.52a48.33,48.33,0,0,0,1.61-5.33l.85.24q-.92,3.21-1.62,5.09h2.41v.75H404Zm.53-4.79.74-.26q.6,1.78,1.17,4l-.83.25C405.33,320.82,405,319.5,404.55,318.13Zm2.35-.49.75-.21a38.51,38.51,0,0,1,.9,3.93l-.86.23A39.42,39.42,0,0,0,406.9,317.64Z" fill="#008bfd"/><path d="M416.62,324.06V321h-2.84a6.24,6.24,0,0,1-1.18,3.37c-.17-.21-.36-.44-.58-.67a5.18,5.18,0,0,0,.86-2,16,16,0,0,0,.22-3v-3.49h7.95v7.76c0,.78-.36,1.17-1.1,1.17l-1.51,0q0-.33-.15-.81c.57,0,1,.05,1.38.05s.6-.19.6-.57V321H417.4v3.11Zm-2.79-3.81h2.79v-1.83h-2.74A15.73,15.73,0,0,1,413.83,320.25Zm.05-4.35v1.82h2.74V315.9Zm6.39,0H417.4v1.82h2.87Zm-2.87,4.35h2.87v-1.83H417.4Z" fill="#008bfd"/></g><path d="M383.08,292.71l8,4-8,4a9,9,0,0,0,0-8" fill="#505050"/><path d="M10.33,216.18a4.49,4.49,0,0,0-3,5.66c.66,2.56,3,4.22,5.27,3.67a4.49,4.49,0,0,0,3-5.66C15.05,217.18,12.64,215.52,10.33,216.18Z" fill="#008bfd"/><path d="M15.27,226.2c-.44,0-.88.77-1.54,1.11s-1.32.88-3.18,0-2.09-1.67-3.63-1.67-4.06,2.78-4.06,6.88H18.45a12.14,12.14,0,0,0-1.1-4.22C16.25,226.2,15.71,226.2,15.27,226.2Z" fill="#008bfd"/><path d="M16.67,221.25H12.55a.71.71,0,0,0-.65.66v2.85a.73.73,0,0,0,.76.66h.76v5.15a1,1,0,0,0,1,1.09,1,1,0,0,0,1-1h.21V230c0-.22.33-.33.33-.33v-.33c-.33-.11-.54-.33-.54-.44v-.32l.21-.22a3.53,3.53,0,0,0,.33-.55,2.4,2.4,0,0,1-.33-.55c-.1-.11-.1-.33-.21-.44v-.22a2.52,2.52,0,0,1,.76-1.09h.54a.71.71,0,0,0,.65-.66v-3A.63.63,0,0,0,16.67,221.25Zm-2.39,9.54c0,.22,0,.33-.21.33s-.22-.22-.22-.33V226c0-.22.11-.33.22-.33s.21.22.21.33Zm.33-7.78a.66.66,0,0,1,0-1.32.71.71,0,0,1,.65.66A.63.63,0,0,1,14.61,223Z" fill="#008bfd" stroke="gray" stroke-linecap="round" stroke-linejoin="round" stroke-width="0.75"/><path d="M14.05,231.09a.24.24,0,0,1-.22-.22v-5a.22.22,0,1,1,.44,0V231C14.27,231.09,14.16,231.09,14.05,231.09Z" fill="#fff"/><ellipse cx="14.62" cy="222.34" rx="0.66" ry="0.67" fill="#fff"/><path d="M7.85,76.58a4.49,4.49,0,0,0-3,5.66c.66,2.56,3,4.22,5.27,3.67a4.49,4.49,0,0,0,3-5.66C12.57,77.58,10.16,75.92,7.85,76.58Z" fill="#008bfd"/><path d="M12.78,86.6c-.43,0-.88.77-1.54,1.11s-1.31.88-3.17,0S6,86,4.43,86s-4,2.78-4,6.88H16a12.24,12.24,0,0,0-1.11-4.22C13.77,86.6,13.23,86.6,12.78,86.6Z" fill="#008bfd"/><path d="M14.19,81.65H10.07a.71.71,0,0,0-.65.66v2.85a.73.73,0,0,0,.76.66h.76V91a1,1,0,0,0,1,1.09,1,1,0,0,0,1-1h.21v-.66c0-.22.33-.33.33-.33v-.33c-.33-.11-.54-.33-.54-.44V89l.21-.22a3.53,3.53,0,0,0,.33-.55,2.4,2.4,0,0,1-.33-.55c-.1-.11-.1-.33-.21-.44V87a2.52,2.52,0,0,1,.76-1.09h.54a.71.71,0,0,0,.65-.66v-3A.63.63,0,0,0,14.19,81.65ZM11.8,91.19c0,.22,0,.33-.21.33s-.22-.22-.22-.33V86.37c0-.22.11-.33.22-.33s.21.22.21.33Zm.33-7.78a.66.66,0,0,1,0-1.32.71.71,0,0,1,.65.66A.63.63,0,0,1,12.13,83.41Z" fill="#008bfd" stroke="gray" stroke-linecap="round" stroke-linejoin="round" stroke-width="0.75"/><path d="M11.57,91.49a.24.24,0,0,1-.22-.22v-5a.22.22,0,1,1,.44,0v5.1C11.79,91.49,11.68,91.49,11.57,91.49Z" fill="#fff"/><ellipse cx="12.14" cy="82.73" rx="0.66" ry="0.67" fill="#fff"/><path d="M10.33,368.69a4.49,4.49,0,0,0-3,5.66c.66,2.56,3,4.22,5.27,3.67a4.49,4.49,0,0,0,3-5.66C15.05,369.69,12.64,368,10.33,368.69Z" fill="#008bfd"/><path d="M15.27,378.71c-.44,0-.88.77-1.54,1.11s-1.32.88-3.18,0-2.09-1.67-3.63-1.67S2.86,380.93,2.86,385H18.45a12.14,12.14,0,0,0-1.1-4.22C16.25,378.71,15.71,378.71,15.27,378.71Z" fill="#008bfd"/><path d="M16.67,373.76H12.55a.71.71,0,0,0-.65.66v2.85a.73.73,0,0,0,.76.66h.76v5.15a1,1,0,0,0,1,1.09,1,1,0,0,0,1-1h.21v-.66c0-.22.33-.33.33-.33v-.33c-.33-.11-.54-.33-.54-.44v-.32l.21-.22a3.53,3.53,0,0,0,.33-.55,2.4,2.4,0,0,1-.33-.55c-.1-.11-.1-.33-.21-.44v-.22a2.52,2.52,0,0,1,.76-1.09h.54a.71.71,0,0,0,.65-.66v-3A.63.63,0,0,0,16.67,373.76Zm-2.39,9.54c0,.22,0,.33-.21.33s-.22-.22-.22-.33v-4.82c0-.22.11-.33.22-.33s.21.22.21.33Zm.33-7.78a.66.66,0,0,1,0-1.32.71.71,0,0,1,.65.66A.63.63,0,0,1,14.61,375.52Z" fill="#008bfd" stroke="gray" stroke-linecap="round" stroke-linejoin="round" stroke-width="0.75"/><path d="M14.05,383.6a.24.24,0,0,1-.22-.22v-5a.22.22,0,1,1,.44,0v5.1C14.27,383.6,14.16,383.6,14.05,383.6Z" fill="#fff"/><ellipse cx="14.62" cy="374.84" rx="0.66" ry="0.67" fill="#fff"/><path d="M10.33,431.4a4.49,4.49,0,0,0-3,5.66c.66,2.56,3,4.22,5.27,3.67a4.49,4.49,0,0,0,3-5.66C15.05,432.4,12.64,430.74,10.33,431.4Z" fill="#008bfd"/><path d="M15.27,441.42c-.44,0-.88.77-1.54,1.11s-1.32.88-3.18,0-2.09-1.67-3.63-1.67-4.06,2.78-4.06,6.88H18.45a12.14,12.14,0,0,0-1.1-4.22C16.25,441.42,15.71,441.42,15.27,441.42Z" fill="#008bfd"/><path d="M16.67,436.47H12.55a.71.71,0,0,0-.65.66V440a.73.73,0,0,0,.76.66h.76v5.15a1,1,0,0,0,1,1.09,1,1,0,0,0,1-1h.21v-.66c0-.22.33-.33.33-.33v-.33c-.33-.11-.54-.33-.54-.44v-.32l.21-.22a3.53,3.53,0,0,0,.33-.55,2.4,2.4,0,0,1-.33-.55c-.1-.11-.1-.33-.21-.44v-.22a2.52,2.52,0,0,1,.76-1.09h.54a.71.71,0,0,0,.65-.66v-3A.63.63,0,0,0,16.67,436.47ZM14.28,446c0,.22,0,.33-.21.33s-.22-.22-.22-.33v-4.82c0-.22.11-.33.22-.33s.21.22.21.33Zm.33-7.78a.66.66,0,0,1,0-1.32.71.71,0,0,1,.65.66A.63.63,0,0,1,14.61,438.23Z" fill="#008bfd" stroke="gray" stroke-linecap="round" stroke-linejoin="round" stroke-width="0.75"/><path d="M14.05,446.31a.24.24,0,0,1-.22-.22v-5a.22.22,0,1,1,.44,0v5.1C14.27,446.31,14.16,446.31,14.05,446.31Z" fill="#fff"/><ellipse cx="14.62" cy="437.56" rx="0.66" ry="0.67" fill="#fff"/><g style="isolation:isolate"><path d="M37.27,40.79h4.42V39.68H39v.46h-.74V35.41h2c-.31-.37-.65-.74-1-1.13l.56-.46c.48.47.9.89,1.27,1.28l-.36.31H43c.35-.48.72-1,1.08-1.56l.79.42c-.34.41-.66.79-1,1.14h2v4.73h-.74v-.46H42.45v1.11h4.43v.7H42.45v2.06h-.76V41.49H37.27ZM39,37.2h2.7V36.09H39ZM39,39h2.7V37.87H39Zm6.18-2.91H42.45V37.2h2.72ZM42.45,39h2.72V37.87H42.45Z" fill="#008bfd"/><path d="M47.23,42.84a8.43,8.43,0,0,0,3.43-1.35,3.32,3.32,0,0,0,1.07-2.71v-1.1h.79v1.13a5.52,5.52,0,0,1-.25,1.75q2.46,1.08,4.48,2.22l-.5.73A42.74,42.74,0,0,0,52,41.23a3.41,3.41,0,0,1-.89,1,8.86,8.86,0,0,1-3.35,1.38A7.19,7.19,0,0,0,47.23,42.84Zm1.29-6.42h2.77c.09-.34.18-.77.3-1.31H47.42v-.72h9.35v.72H52.45c-.13.51-.26,1-.39,1.31h3.69v4.65H55V37.14H49.31v4h-.79Z" fill="#008bfd"/><path d="M61.71,34.19l.72-.39a13.3,13.3,0,0,1,.8,1.17l-.48.27h4V36H59.1v2.4a7.92,7.92,0,0,1-1.42,5.16,7.87,7.87,0,0,0-.57-.67c.78-.87,1.17-2.37,1.17-4.48V35.24h4.14A12.09,12.09,0,0,0,61.71,34.19Zm-2.66,8h4.51a46,46,0,0,0,1.62-5.33l.85.24q-.91,3.21-1.62,5.09h2.41V43H59.05Zm.52-4.79.75-.26q.6,1.78,1.17,4l-.83.25C60.36,40.12,60,38.8,59.57,37.43Zm2.36-.49.75-.22a39.36,39.36,0,0,1,.9,3.94l-.86.22A39.8,39.8,0,0,0,61.93,36.94Z" fill="#008bfd"/><path d="M71.9,43.36V40.25H69.06a6.28,6.28,0,0,1-1.19,3.37A8.16,8.16,0,0,0,67.3,43a5.33,5.33,0,0,0,.86-2,16.23,16.23,0,0,0,.21-3V34.48h8v7.76c0,.78-.37,1.16-1.1,1.16l-1.52,0c0-.22-.08-.49-.14-.82.56,0,1,.06,1.37.06s.61-.19.61-.57v-1.8H72.68v3.11Zm-2.79-3.81H71.9V37.72H69.15A15.77,15.77,0,0,1,69.11,39.55Zm0-4.35V37H71.9V35.2Zm6.4,0H72.68V37h2.87Zm-2.87,4.35h2.87V37.72H72.68Z" fill="#008bfd"/><path d="M77.14,40.8a10.87,10.87,0,0,0,1.49-3.34H77.26v-.65h1.52V35.28l-1.26.17a5.82,5.82,0,0,0-.2-.68,23.52,23.52,0,0,0,3.35-.53l.21.69-1.39.25v1.63h1.35v.65H79.49v1.29l.38-.34c.26.27.64.7,1.14,1.28l-.59.48c-.37-.48-.69-.87-.93-1.17v4.52h-.71V38.84a9.78,9.78,0,0,1-1.31,2.81C77.37,41.37,77.26,41.08,77.14,40.8Zm3.45,1.54h2.79V40.89H81.17v-.65h2.21V38.91H80.93v-.65h5.69v.65H84.16v1.33h2.22v.65H84.16v1.45H87V43H80.59Zm.78-8h4.84V37.7h-.74v-.4H82.11v.4h-.74Zm4.1.67H82.11v1.62h3.36Z" fill="#008bfd"/><path d="M91.73,34.17l.71-.38c.25.32.48.66.7,1l-.47.27h4.16v.72H89.05v2.65a8.15,8.15,0,0,1-1.34,5.14,6.35,6.35,0,0,0-.56-.66c.72-.84,1.08-2.26,1.08-4.28V35.06h4.11A10.63,10.63,0,0,0,91.73,34.17Zm-2.41,5h3.43c-.6-.45-1.18-.84-1.73-1.18l.47-.5c.49.29,1,.59,1.39.88l1.77-1.05H89.9v-.7h6.17v.71l-2.53,1.49.24.16-.26.19h3.21v.72l-.85,1.75c-.19-.11-.43-.22-.72-.35l.69-1.41H93.51v2.32c0,.79-.38,1.19-1.12,1.19l-1.47,0c0-.23-.06-.5-.12-.84a10.22,10.22,0,0,0,1.35.1.49.49,0,0,0,.56-.55v-2.2H89.32Z" fill="#008bfd"/></g><path d="M7.85,6.77a4.49,4.49,0,0,0-3,5.66c.66,2.56,3,4.22,5.27,3.67a4.49,4.49,0,0,0,3-5.66C12.57,7.77,10.16,6.11,7.85,6.77Z" fill="#008bfd"/><path d="M12.78,16.79c-.43,0-.88.77-1.54,1.11s-1.31.88-3.17,0S6,16.23,4.43,16.23s-4,2.78-4,6.88H16a12.24,12.24,0,0,0-1.11-4.22C13.77,16.79,13.23,16.79,12.78,16.79Z" fill="#008bfd"/><path d="M14.19,11.84H10.07a.71.71,0,0,0-.65.66v2.85a.73.73,0,0,0,.76.66h.76v5.15a1,1,0,0,0,1,1.09,1,1,0,0,0,1-1h.21v-.66c0-.22.33-.33.33-.33V20c-.33-.11-.54-.33-.54-.44v-.32L13.1,19a3.53,3.53,0,0,0,.33-.55,2.4,2.4,0,0,1-.33-.55c-.1-.11-.1-.33-.21-.44v-.22a2.52,2.52,0,0,1,.76-1.09h.54a.71.71,0,0,0,.65-.66v-3A.63.63,0,0,0,14.19,11.84ZM11.8,21.38c0,.22,0,.33-.21.33s-.22-.22-.22-.33V16.56c0-.22.11-.33.22-.33s.21.22.21.33Zm.33-7.78a.66.66,0,0,1,0-1.32.71.71,0,0,1,.65.66A.63.63,0,0,1,12.13,13.6Z" fill="#008bfd" stroke="gray" stroke-linecap="round" stroke-linejoin="round" stroke-width="0.75"/><path d="M11.57,21.68a.24.24,0,0,1-.22-.22v-5a.22.22,0,1,1,.44,0v5.1C11.79,21.68,11.68,21.68,11.57,21.68Z" fill="#fff"/><ellipse cx="12.14" cy="12.93" rx="0.66" ry="0.67" fill="#fff"/><g style="isolation:isolate"><path d="M50.55,104.45,48.43,112H47.29l-1.52-5.45a3.85,3.85,0,0,1-.13-.78h0a3.75,3.75,0,0,1-.14.77L44,112H42.82l-2.19-7.56h1.08l1.54,5.71a3.51,3.51,0,0,1,.12.78h0a4.69,4.69,0,0,1,.16-.78l1.64-5.71h1l1.56,5.75a3.72,3.72,0,0,1,.13.73h0a4.1,4.1,0,0,1,.14-.74l1.49-5.74Z" fill="#008bfd"/><path d="M55.67,109.56H51.89a2,2,0,0,0,.47,1.33,1.67,1.67,0,0,0,1.26.47,2.64,2.64,0,0,0,1.66-.58v.86a3.23,3.23,0,0,1-1.89.5,2.34,2.34,0,0,1-1.83-.74,3.06,3.06,0,0,1-.65-2.06,3,3,0,0,1,.72-2,2.3,2.3,0,0,1,1.79-.81,2.08,2.08,0,0,1,1.65.68,2.8,2.8,0,0,1,.6,1.91Zm-1-.77a1.71,1.71,0,0,0-.34-1.13,1.2,1.2,0,0,0-1-.4,1.35,1.35,0,0,0-1,.42,2,2,0,0,0-.52,1.11Z" fill="#008bfd"/><path d="M57.9,111.25V112h-1v-8h1v3.52h0a2,2,0,0,1,1.86-1.06,2,2,0,0,1,1.61.72,3,3,0,0,1,.6,2,3.34,3.34,0,0,1-.67,2.18,2.22,2.22,0,0,1-1.79.81,1.78,1.78,0,0,1-1.61-.89Zm0-1.46a1.58,1.58,0,0,0,.42,1.11,1.4,1.4,0,0,0,1.06.45,1.42,1.42,0,0,0,1.2-.59,2.73,2.73,0,0,0,.43-1.62,2.18,2.18,0,0,0-.4-1.36,1.33,1.33,0,0,0-1.1-.51,1.5,1.5,0,0,0-1.16.51,1.84,1.84,0,0,0-.45,1.28Z" fill="#008bfd"/><path d="M70.07,104l.72-.38a13.1,13.1,0,0,1,.8,1.16l-.48.27h4v.75h-7.6v2.39A7.92,7.92,0,0,1,66,113.34a7.87,7.87,0,0,0-.57-.67c.78-.87,1.18-2.36,1.18-4.47V105h4.13C70.56,104.69,70.33,104.33,70.07,104Zm-2.66,8h4.51a46.21,46.21,0,0,0,1.62-5.34l.85.24q-.92,3.22-1.62,5.1h2.41v.74H67.41Zm.52-4.8.75-.25c.4,1.18.79,2.51,1.17,4l-.83.26C68.72,109.93,68.36,108.6,67.93,107.23Zm2.36-.49.75-.21a38.51,38.51,0,0,1,.9,3.93l-.86.23A39.42,39.42,0,0,0,70.29,106.74Z" fill="#008bfd"/><path d="M80.26,113.16v-3.11H77.42a6.33,6.33,0,0,1-1.18,3.37c-.17-.21-.37-.44-.58-.67a5.29,5.29,0,0,0,.86-2,16.31,16.31,0,0,0,.21-3v-3.49h8v7.77c0,.77-.37,1.16-1.1,1.16l-1.51,0-.15-.81c.57,0,1,.06,1.38.06a.52.52,0,0,0,.6-.58v-1.8H81v3.11Zm-2.79-3.81h2.79v-1.83H77.51A15.72,15.72,0,0,1,77.47,109.35Zm0-4.35v1.82h2.75V105Zm6.4,0H81v1.82h2.87ZM81,109.35h2.87v-1.83H81Z" fill="#008bfd"/></g><path d="M10.33,288.82a4.49,4.49,0,0,0-3,5.66c.66,2.56,3,4.22,5.27,3.67a4.49,4.49,0,0,0,3-5.66C15.05,289.82,12.64,288.16,10.33,288.82Z" fill="#008bfd"/><path d="M15.27,298.84c-.44,0-.88.77-1.54,1.11s-1.32.88-3.18,0-2.09-1.67-3.63-1.67-4.06,2.78-4.06,6.88H18.45a12.14,12.14,0,0,0-1.1-4.22C16.25,298.84,15.71,298.84,15.27,298.84Z" fill="#008bfd"/><path d="M16.67,293.89H12.55a.71.71,0,0,0-.65.66v2.85a.73.73,0,0,0,.76.66h.76v5.15a1,1,0,0,0,1,1.09,1,1,0,0,0,1-1h.21v-.66c0-.22.33-.33.33-.33V302c-.33-.11-.54-.33-.54-.44v-.32l.21-.22a3.53,3.53,0,0,0,.33-.55,2.4,2.4,0,0,1-.33-.55c-.1-.11-.1-.33-.21-.44v-.22a2.52,2.52,0,0,1,.76-1.09h.54a.71.71,0,0,0,.65-.66v-3A.63.63,0,0,0,16.67,293.89Zm-2.39,9.54c0,.22,0,.33-.21.33s-.22-.22-.22-.33v-4.82c0-.22.11-.33.22-.33s.21.22.21.33Zm.33-7.78a.66.66,0,0,1,0-1.32.71.71,0,0,1,.65.66A.63.63,0,0,1,14.61,295.65Z" fill="#008bfd" stroke="gray" stroke-linecap="round" stroke-linejoin="round" stroke-width="0.75"/><path d="M14.05,303.73a.24.24,0,0,1-.22-.22v-5a.22.22,0,1,1,.44,0v5.1C14.27,303.73,14.16,303.73,14.05,303.73Z" fill="#fff"/><ellipse cx="14.62" cy="294.98" rx="0.66" ry="0.67" fill="#fff"/><path d="M264.46,263.21l-15.91,11.42,6.08,18.48h19.66l6.08-18.48Z" fill="#fff" stroke="#000" stroke-linecap="round" stroke-linejoin="round" stroke-width="0.24"/><path d="M264.14,270.32a4.49,4.49,0,0,0-3,5.66c.66,2.56,3,4.22,5.27,3.67a4.49,4.49,0,0,0,3-5.66C268.86,271.32,266.45,269.66,264.14,270.32Z" fill="#008bfd"/><path d="M269.07,280.34c-.44,0-.88.77-1.54,1.11s-1.32.88-3.18,0-2.09-1.67-3.63-1.67-4.06,2.78-4.06,6.88h15.59a12.14,12.14,0,0,0-1.1-4.22C270.05,280.34,269.51,280.34,269.07,280.34Z" fill="#008bfd"/><path d="M270.48,275.4h-4.12a.71.71,0,0,0-.65.66v2.85a.73.73,0,0,0,.76.66h.76v5.15a1,1,0,0,0,1,1.09,1,1,0,0,0,1-1h.21v-.66c0-.22.33-.33.33-.33v-.33c-.33-.11-.54-.33-.54-.44v-.32l.21-.22a3.53,3.53,0,0,0,.33-.55,2.4,2.4,0,0,1-.33-.55c-.1-.11-.1-.33-.21-.44v-.22a2.52,2.52,0,0,1,.76-1.09h.54a.71.71,0,0,0,.65-.66v-3A.63.63,0,0,0,270.48,275.4Zm-2.39,9.54c0,.22,0,.33-.21.33s-.22-.22-.22-.33v-4.82c0-.22.11-.33.22-.33s.21.22.21.33Zm.33-7.78a.66.66,0,0,1,0-1.32.71.71,0,0,1,.65.66A.63.63,0,0,1,268.42,277.16Z" fill="#008bfd" stroke="gray" stroke-linecap="round" stroke-linejoin="round" stroke-width="0.75"/><path d="M267.86,285.23a.24.24,0,0,1-.22-.22v-5a.22.22,0,1,1,.44,0v5.1C268.08,285.23,268,285.23,267.86,285.23Z" fill="#fff"/><ellipse cx="268.43" cy="276.48" rx="0.66" ry="0.67" fill="#fff"/><line x1="276.38" y1="296.73" x2="73.36" y2="296.73" fill="none" stroke="#505050" stroke-miterlimit="10"/><line x1="386.63" y1="296.73" x2="307.18" y2="296.73" fill="none" stroke="#505050" stroke-miterlimit="10"/><path d="M77.1,154h75.16C167.5,154,179,164.68,179,183v73.78c0,18-1,40,37,40" fill="none" stroke="#505050" stroke-miterlimit="10"/><path d="M77.1,224.92h75.16c15.24,0,26.74,10.66,26.74,29" fill="none" stroke="#505050" stroke-miterlimit="10"/><path d="M77.1,439.45h75.16c15.24,0,26.74-10.66,26.74-29V336.69c0-18-1-39.95,37-39.95" fill="none" stroke="#505050" stroke-miterlimit="10"/><path d="M83.32,368.55h70.57c14.31,0,25.11-10.65,25.11-29" fill="none" stroke="#505050" stroke-miterlimit="10"/><g style="isolation:isolate"><path d="M34.78,180.45h4.43v-1.1H36.5v.46h-.74v-4.74h2c-.32-.36-.65-.74-1-1.12l.55-.46c.48.46.91.89,1.27,1.28l-.36.3h2.29c.36-.47.72-1,1.09-1.55l.78.42c-.33.41-.66.78-1,1.13h2v4.74h-.75v-.46H40v1.1h4.42v.71H40v2.06h-.76v-2.06H34.78Zm1.72-3.58h2.71v-1.11H36.5Zm0,1.8h2.71v-1.14H36.5Zm6.18-2.91H40v1.11h2.71ZM40,178.67h2.71v-1.14H40Z" fill="#008bfd"/><path d="M44.74,182.5a8.24,8.24,0,0,0,3.43-1.34,3.3,3.3,0,0,0,1.08-2.72v-1.09H50v1.13a5.51,5.51,0,0,1-.26,1.75,45.85,45.85,0,0,1,4.49,2.22l-.5.73a45.09,45.09,0,0,0-4.28-2.29,3.2,3.2,0,0,1-.89,1,8.86,8.86,0,0,1-3.35,1.38A5.06,5.06,0,0,0,44.74,182.5ZM46,176.09h2.78c.08-.34.18-.78.29-1.31H44.93v-.72h9.36v.72H50c-.14.51-.27.94-.39,1.31h3.68v4.65h-.79v-3.93H46.82v4H46Z" fill="#008bfd"/><path d="M59.23,173.85l.71-.38a12.48,12.48,0,0,1,.8,1.16l-.47.28h4v.74H56.62V178a7.93,7.93,0,0,1-1.43,5.17,6.25,6.25,0,0,0-.56-.68q1.17-1.31,1.17-4.47v-3.15h4.13C59.72,174.55,59.48,174.2,59.23,173.85Zm-2.67,8h4.52a46.86,46.86,0,0,0,1.61-5.33l.85.23q-.91,3.22-1.62,5.1h2.41v.74H56.56Zm.53-4.8.74-.25c.4,1.18.8,2.51,1.17,4l-.83.26Q57.72,179.15,57.09,177.09Zm2.35-.48.75-.22a38.12,38.12,0,0,1,.9,3.94l-.86.22A39.24,39.24,0,0,0,59.44,176.61Z" fill="#008bfd"/><path d="M69.41,183v-3.1H66.57a6.3,6.3,0,0,1-1.18,3.37c-.17-.22-.36-.44-.58-.68a5.13,5.13,0,0,0,.86-2,15.25,15.25,0,0,0,.22-3v-3.48h8v7.76c0,.77-.37,1.16-1.11,1.16l-1.51,0q0-.31-.15-.81.86.06,1.38.06c.4,0,.6-.19.6-.58v-1.79H70.19V183Zm-2.79-3.81h2.79v-1.82H66.67A15.49,15.49,0,0,1,66.62,179.21Zm0-4.34v1.81h2.74v-1.81Zm6.39,0H70.19v1.81h2.87Zm-2.87,4.34h2.87v-1.82H70.19Z" fill="#008bfd"/><path d="M74.66,180.46a10.75,10.75,0,0,0,1.48-3.34H74.77v-.64H76.3V175l-1.26.16a4.68,4.68,0,0,0-.21-.67,23.08,23.08,0,0,0,3.35-.53l.22.68c-.46.1-.92.18-1.4.26v1.63h1.36v.64H77v1.29l.38-.33c.26.27.64.69,1.14,1.28l-.58.48c-.38-.48-.69-.87-.94-1.17v4.52h-.7v-4.68a10,10,0,0,1-1.31,2.8ZM78.1,182h2.8v-1.45H78.68v-.65H80.9v-1.33H78.45v-.66h5.69v.66H81.68v1.33H83.9v.65H81.68V182h2.79v.65H78.1Zm.79-8h4.84v3.35H83V177H79.63v.4h-.74Zm4.1.66H79.63v1.62H83Z" fill="#008bfd"/><path d="M89.25,173.83l.7-.38a11.38,11.38,0,0,1,.7,1l-.46.27h4.15v.71H86.56v2.66c0,2.32-.44,4-1.34,5.14a6.25,6.25,0,0,0-.55-.67c.71-.83,1.07-2.26,1.07-4.27v-3.57h4.11Q89.55,174.25,89.25,173.83Zm-2.42,5h3.44c-.61-.44-1.19-.84-1.74-1.18l.47-.5c.49.3,1,.59,1.4.88l1.77-1H87.41v-.71h6.17V177l-2.52,1.48.24.17-.26.18h3.21v.73l-.85,1.74-.73-.35.7-1.4H91v2.32c0,.79-.37,1.18-1.12,1.18-.4,0-.88,0-1.46,0q0-.33-.12-.84a10.15,10.15,0,0,0,1.35.11.49.49,0,0,0,.55-.56v-2.19H86.83Z" fill="#008bfd"/></g><path d="M70,233.73a11.81,11.81,0,0,1-16.84-2.29,12.56,12.56,0,0,1,2.24-17.29,11.82,11.82,0,0,1,16.84,2.3A12.54,12.54,0,0,1,70,233.73Zm3.66-18.41a13.57,13.57,0,0,0-19.36-2.63,14.43,14.43,0,0,0-2.55,19.87,13.62,13.62,0,0,0,11,5.55,13.45,13.45,0,0,0,8.39-2.92A14.44,14.44,0,0,0,73.69,215.32Z" fill="#008bfd"/><path d="M56.06,226.52a17,17,0,0,1-2-2.35,18.28,18.28,0,0,0-1.66,6.88c.11.16.11.29.23.44a12.55,12.55,0,0,0,2,2A14.13,14.13,0,0,1,56.06,226.52Z" fill="#008bfd"/><path d="M60.67,217.08a21,21,0,0,0-3.33,3,15.71,15.71,0,0,0-1.61,2.05,15.42,15.42,0,0,0,1.9,2.46,16.32,16.32,0,0,1,2.2-2.56A26.47,26.47,0,0,1,63,219.4C62.16,218.64,61.38,217.87,60.67,217.08Z" fill="#008bfd"/><path d="M72.15,216.28a12,12,0,0,0-1.73-1.82,12.53,12.53,0,0,0-8,1.53c.76.84,1.51,1.63,2.24,2.36C69,215.92,72.15,216.28,72.15,216.28Z" fill="#008bfd"/><path d="M54.34,224.31a19.82,19.82,0,0,1,1.19-2.06,9.84,9.84,0,0,1-1.6-6.79,13.09,13.09,0,0,0-1.29,1.6C52.26,218.67,52.24,221.23,54.34,224.31Z" fill="#008bfd"/><path d="M59.9,226.7a21.6,21.6,0,0,1-2.27-2.14,14.25,14.25,0,0,0-1.14,1.95,23.54,23.54,0,0,0,2.09,1.91,19.12,19.12,0,0,0,12.56,4.38,9,9,0,0,0,1.54-1.94C71.45,231.12,66.19,231.81,59.9,226.7Z" fill="#008bfd"/><path d="M54.55,224.16a15.72,15.72,0,0,0,2,2.35,15.36,15.36,0,0,1,1.14-1.95,15.42,15.42,0,0,1-1.9-2.46A15.58,15.58,0,0,0,54.55,224.16Z" fill="#008bfd"/><path d="M63,219.4a97,97,0,0,0,11.15,8.82,9.82,9.82,0,0,0,.33-1.05,95.51,95.51,0,0,1-9.83-8.82Q63.82,218.8,63,219.4Z" fill="#008bfd"/><path d="M62.38,216q-1.65-1.77-3.36-3.8a10.05,10.05,0,0,0-1.59.66,26.3,26.3,0,0,0,3.24,4.22A17.22,17.22,0,0,1,62.38,216Z" fill="#008bfd"/><path d="M62.45,216a18.74,18.74,0,0,0-1.87,1.19c.72.78,1.45,1.59,2.25,2.35.57-.4,1.34-.88,1.87-1.18C64,217.58,63.21,216.79,62.45,216Z" fill="#008bfd"/><path d="M62.25,215.85A16.24,16.24,0,0,0,60.58,217c.72.79,1.74,1.81,2.54,2.57.57-.4,1.05-.8,1.58-1.11C64,217.71,63,216.68,62.25,215.85Z" fill="#008bfd"/><path d="M68.3,222.4a2.7,2.7,0,0,0-.48,3.7,2.56,2.56,0,0,0,3.63.51,2.72,2.72,0,0,0,.48-3.72A2.55,2.55,0,0,0,68.3,222.4Z" fill="#008bfd"/><path d="M63.13,228.53a2.52,2.52,0,0,0-.45,3.44,2.37,2.37,0,0,0,3.36.45,2.49,2.49,0,0,0,.44-3.43A2.36,2.36,0,0,0,63.13,228.53Z" fill="#008bfd"/><path d="M54,221.2a3.79,3.79,0,0,0-.68,5.21,3.58,3.58,0,0,0,5.1.7,3.8,3.8,0,0,0,.67-5.23A3.59,3.59,0,0,0,54,221.2Z" fill="#008bfd"/></svg>