<svg xmlns="http://www.w3.org/2000/svg" viewBox="0 0 88.81 48.79"><title>OJ104440674</title><path d="M7.85,6.78a4.49,4.49,0,0,0-3,5.66c.66,2.55,3,4.22,5.27,3.66a4.49,4.49,0,0,0,3-5.66C12.57,7.78,10.16,6.11,7.85,6.78Z" fill="#008bfd"/><path d="M12.78,16.79c-.43,0-.88.78-1.54,1.11s-1.31.89-3.17,0S6,16.24,4.43,16.24s-4,2.77-4,6.88H16a12.19,12.19,0,0,0-1.11-4.22C13.77,16.79,13.23,16.79,12.78,16.79Z" fill="#008bfd"/><path d="M14.19,11.85H10.07a.71.71,0,0,0-.65.66v2.85a.72.72,0,0,0,.76.65h.76v5.15a1,1,0,0,0,1,1.1,1,1,0,0,0,1-1h.21v-.65c0-.22.33-.33.33-.33V20c-.33-.11-.54-.33-.54-.44v-.33L13.1,19a3.55,3.55,0,0,0,.33-.54,2.4,2.4,0,0,1-.33-.55c-.1-.11-.1-.33-.21-.44v-.22a2.51,2.51,0,0,1,.76-1.1h.54a.7.7,0,0,0,.65-.65v-3A.63.63,0,0,0,14.19,11.85ZM11.8,21.38c0,.22,0,.33-.21.33s-.22-.22-.22-.33V16.56c0-.22.11-.33.22-.33s.21.22.21.33Zm.33-7.78a.69.69,0,0,1-.65-.65.7.7,0,0,1,.65-.66.71.71,0,0,1,.65.66A.62.62,0,0,1,12.13,13.6Z" fill="#008bfd" stroke="gray" stroke-linecap="round" stroke-linejoin="round" stroke-width="0.75"/><path d="M11.57,21.69a.24.24,0,0,1-.22-.22v-5a.22.22,0,1,1,.44,0v5.11C11.79,21.69,11.68,21.69,11.57,21.69Z" fill="#fff"/><ellipse cx="12.14" cy="12.93" rx="0.66" ry="0.67" fill="#fff"/><path d="M70,24.41A11.81,11.81,0,0,1,53.2,22.12,12.55,12.55,0,0,1,55.44,4.83a11.72,11.72,0,0,1,7.29-2.54,11.89,11.89,0,0,1,9.55,4.84A12.54,12.54,0,0,1,70,24.41ZM73.7,6A13.57,13.57,0,0,0,54.34,3.36a14.45,14.45,0,0,0-2.55,19.88,13.65,13.65,0,0,0,11,5.55,13.45,13.45,0,0,0,8.39-2.92A14.44,14.44,0,0,0,73.7,6Z" fill="#008bfd"/><path d="M56.06,17.18a17,17,0,0,1-2-2.35,18.32,18.32,0,0,0-1.66,6.89c.11.16.11.28.23.44a13.4,13.4,0,0,0,2,2.05A14.18,14.18,0,0,1,56.06,17.18Z" fill="#008bfd"/><path d="M60.68,7.74a21,21,0,0,0-3.33,3,16.41,16.41,0,0,0-1.61,2,15,15,0,0,0,1.9,2.47,16.84,16.84,0,0,1,2.2-2.57A27.32,27.32,0,0,1,63,10.07C62.17,9.31,61.39,8.54,60.68,7.74Z" fill="#008bfd"/><path d="M72.15,7a12.55,12.55,0,0,0-1.73-1.83,12.55,12.55,0,0,0-8,1.54c.76.84,1.51,1.62,2.24,2.36C69,6.59,72.15,7,72.15,7Z" fill="#008bfd"/><path d="M54.61,14.59a19.94,19.94,0,0,1,1.19-2.07,9.83,9.83,0,0,1-1.6-6.79,13.19,13.19,0,0,0-1.29,1.61C52.53,8.94,52.51,11.5,54.61,14.59Z" fill="#008bfd"/><path d="M59.91,17.36a22.67,22.67,0,0,1-2.27-2.13,13.68,13.68,0,0,0-1.14,1.95,25.18,25.18,0,0,0,2.09,1.91,19.18,19.18,0,0,0,12.56,4.38,9.27,9.27,0,0,0,1.54-1.94C71.46,21.79,66.2,22.47,59.91,17.36Z" fill="#008bfd"/><path d="M54.55,14.83a16.24,16.24,0,0,0,2,2.35,14.7,14.7,0,0,1,1.14-1.95,15,15,0,0,1-1.9-2.47A15.67,15.67,0,0,0,54.55,14.83Z" fill="#008bfd"/><path d="M63,10.07a99.43,99.43,0,0,0,11.15,8.82,9.82,9.82,0,0,0,.33-1.05A96.8,96.8,0,0,1,64.61,9,16,16,0,0,0,63,10.07Z" fill="#008bfd"/><path d="M62.38,6.65c-1.1-1.18-2.22-2.44-3.36-3.8a11.13,11.13,0,0,0-1.59.67,26.74,26.74,0,0,0,3.24,4.22A15.69,15.69,0,0,1,62.38,6.65Z" fill="#008bfd"/><path d="M62.45,6.62A20.57,20.57,0,0,0,60.58,7.8c.72.79,1.45,1.6,2.25,2.36.57-.4,1.34-.89,1.87-1.19C64,8.24,63.21,7.45,62.45,6.62Z" fill="#008bfd"/><path d="M62.25,6.51a14.89,14.89,0,0,0-1.67,1.13c.72.79,1.74,1.81,2.54,2.57.57-.4,1.05-.81,1.58-1.11C64,8.37,63,7.35,62.25,6.51Z" fill="#008bfd"/><path d="M68.3,13.06a2.71,2.71,0,0,0-.48,3.71,2.55,2.55,0,0,0,3.63.5,2.71,2.71,0,0,0,.48-3.71A2.55,2.55,0,0,0,68.3,13.06Z" fill="#008bfd"/><path d="M63.25,19.05a2.52,2.52,0,0,0-.45,3.44,2.37,2.37,0,0,0,3.36.45,2.49,2.49,0,0,0,.44-3.43A2.35,2.35,0,0,0,63.25,19.05Z" fill="#008bfd"/><path d="M54,11.87a3.79,3.79,0,0,0-.68,5.21,3.58,3.58,0,0,0,5.1.7,3.8,3.8,0,0,0,.67-5.23A3.58,3.58,0,0,0,54,11.87Z" fill="#008bfd"/><g style="isolation:isolate"><path d="M50.55,34.22l-2.12,7.57H47.29l-1.52-5.45a4,4,0,0,1-.13-.78h0a3.88,3.88,0,0,1-.14.77L44,41.79H42.82l-2.19-7.57h1.08l1.54,5.72a3.34,3.34,0,0,1,.12.77h0a4.82,4.82,0,0,1,.16-.77l1.64-5.72h1L47.72,40a3.75,3.75,0,0,1,.13.72h0A4.1,4.1,0,0,1,48,40l1.49-5.74Z" fill="#008bfd"/><path d="M55.67,39.33H51.89a1.93,1.93,0,0,0,.47,1.33,1.64,1.64,0,0,0,1.26.48,2.7,2.7,0,0,0,1.66-.58v.85a3.23,3.23,0,0,1-1.89.5,2.27,2.27,0,0,1-1.82-.74,3.41,3.41,0,0,1,.06-4.11,2.33,2.33,0,0,1,1.79-.8,2,2,0,0,1,1.65.68,2.79,2.79,0,0,1,.6,1.91Zm-1-.77a1.73,1.73,0,0,0-.34-1.13,1.2,1.2,0,0,0-1-.4,1.32,1.32,0,0,0-1,.42,2,2,0,0,0-.53,1.11Z" fill="#008bfd"/><path d="M57.9,41v.77h-1v-8h1v3.53h0A2.17,2.17,0,0,1,61.39,37a3,3,0,0,1,.6,2,3.31,3.31,0,0,1-.67,2.17,2.22,2.22,0,0,1-1.79.81A1.77,1.77,0,0,1,57.92,41Zm0-1.46a1.57,1.57,0,0,0,.42,1.11,1.5,1.5,0,0,0,2.26-.13A2.75,2.75,0,0,0,61,38.91a2.2,2.2,0,0,0-.4-1.36,1.35,1.35,0,0,0-1.1-.5,1.52,1.52,0,0,0-1.16.5,1.85,1.85,0,0,0-.45,1.28Z" fill="#008bfd"/><path d="M70.07,33.76l.72-.38c.28.36.54.75.8,1.16l-.48.28h4v.74h-7.6V38A7.93,7.93,0,0,1,66,43.12a6.42,6.42,0,0,0-.57-.68c.78-.87,1.18-2.36,1.18-4.47V34.82h4.13A11.53,11.53,0,0,0,70.07,33.76Zm-2.66,8h4.51a46.57,46.57,0,0,0,1.62-5.33l.85.23q-.92,3.22-1.62,5.1h2.41v.74H67.41ZM67.93,37l.75-.26c.4,1.19.79,2.51,1.17,4L69,41C68.72,39.7,68.36,38.37,67.93,37Zm2.36-.49L71,36.3a38.73,38.73,0,0,1,.9,3.94l-.86.22A39.24,39.24,0,0,0,70.29,36.52Z" fill="#008bfd"/><path d="M80.26,42.93v-3.1H77.42a6.36,6.36,0,0,1-1.18,3.37c-.17-.22-.37-.44-.58-.68a5.29,5.29,0,0,0,.86-2,16.23,16.23,0,0,0,.21-3V34.06h8v7.76c0,.77-.36,1.16-1.1,1.16l-1.51,0-.15-.81c.57,0,1,.06,1.38.06s.6-.19.6-.58V39.83H81v3.1Zm-2.79-3.81h2.79V37.3H77.51A15.55,15.55,0,0,1,77.47,39.12Zm0-4.34V36.6h2.75V34.78Zm6.4,0H81V36.6h2.87ZM81,39.12h2.87V37.3H81Z" fill="#008bfd"/></g></svg>