<svg xmlns="http://www.w3.org/2000/svg" viewBox="0 0 204.71 69.22"><defs><style>.cls-1,.cls-3{fill:#008bfd;}.cls-2{fill:#505050;}.cls-3{stroke:gray;stroke-linecap:round;stroke-linejoin:round;stroke-width:0.75px;}.cls-4{fill:#fff;}.cls-5{fill:#00b0f0;}</style></defs><title>OJ104546510</title><g id="shapes"><g id="group1071-4"><g id="group1072-5"><g id="shape1073-6"><path class="cls-1" d="M66,32.83a11.78,11.78,0,0,1-16.84-2.29,12.56,12.56,0,0,1,2.24-17.29,11.82,11.82,0,0,1,16.84,2.3A12.54,12.54,0,0,1,66,32.83Zm3.66-18.41a13.57,13.57,0,0,0-19.36-2.63,14.43,14.43,0,0,0-2.55,19.87A13.55,13.55,0,0,0,67.13,34.3,14.45,14.45,0,0,0,69.69,14.42Z"/></g></g><g id="group1074-8"><g id="group1075-9"><g id="group1076-10"><g id="shape1077-11"><path class="cls-1" d="M52.06,25.61a17,17,0,0,1-2-2.35,18.28,18.28,0,0,0-1.66,6.88c.11.16.11.29.23.45a13.4,13.4,0,0,0,2,2.05A14.14,14.14,0,0,1,52.06,25.61Z"/></g></g><g id="shape1078-13"><path class="cls-1" d="M56.67,16.17a21,21,0,0,0-3.33,3,15.71,15.71,0,0,0-1.61,2.05,15.93,15.93,0,0,0,1.9,2.47,15.93,15.93,0,0,1,2.2-2.57A26.31,26.31,0,0,1,59,18.5C58.16,17.73,57.38,17,56.67,16.17Z"/></g><g id="group1079-15"><g id="shape1080-16"><path class="cls-1" d="M68.14,15.37a12.47,12.47,0,0,0-1.73-1.82,12.55,12.55,0,0,0-8,1.54c.76.83,1.51,1.62,2.24,2.36C65,15,68.14,15.37,68.14,15.37Z"/></g></g><g id="group1081-18"><g id="shape1082-19"><path class="cls-1" d="M50.54,32.64a19.94,19.94,0,0,1,1.19-2.07,9.83,9.83,0,0,1-1.6-6.79,13.9,13.9,0,0,0-1.29,1.6C48.46,27,48.44,29.55,50.54,32.64Z"/></g></g><g id="group1083-21"><g id="shape1084-22"><path class="cls-1" d="M55.9,25.79a22.67,22.67,0,0,1-2.27-2.13,13.15,13.15,0,0,0-1.14,1.95,25.16,25.16,0,0,0,2.09,1.9A19.15,19.15,0,0,0,67.14,31.9,9.13,9.13,0,0,0,68.68,30C67.45,30.21,62.19,30.9,55.9,25.79Z"/></g></g><g id="group1085-24"><g id="shape1086-25"><path class="cls-1" d="M50.54,23.26a16.8,16.8,0,0,0,2,2.35,14.09,14.09,0,0,1,1.14-1.95,15.93,15.93,0,0,1-1.9-2.47A15.67,15.67,0,0,0,50.54,23.26Z"/></g></g><g id="group1087-27"><g id="shape1088-28"><path class="cls-1" d="M59,18.49a98.68,98.68,0,0,0,11.15,8.83,10.76,10.76,0,0,0,.33-1.06,95,95,0,0,1-9.83-8.81A17.67,17.67,0,0,0,59,18.49Z"/></g></g><g id="group1089-30"><g id="shape1090-31"><path class="cls-1" d="M58.38,15.08c-1.1-1.18-2.22-2.44-3.36-3.8a11.09,11.09,0,0,0-1.59.66,26.8,26.8,0,0,0,3.24,4.23A15.69,15.69,0,0,1,58.38,15.08Z"/></g></g><g id="shape1091-33"><path class="cls-1" d="M58.45,15a18.74,18.74,0,0,0-1.87,1.19c.72.79,1.45,1.59,2.25,2.36.57-.41,1.34-.89,1.87-1.19C60,16.67,59.21,15.88,58.45,15Z"/></g><g id="shape1092-35"><path class="cls-1" d="M58.25,14.94a14.89,14.89,0,0,0-1.67,1.13c.72.78,1.74,1.8,2.54,2.57a18.53,18.53,0,0,1,1.58-1.11C60,16.8,59,15.78,58.25,14.94Z"/></g></g><g id="group1093-37"><g id="shape1094-38"><path class="cls-1" d="M64.3,21.49a2.71,2.71,0,0,0-.48,3.71,2.55,2.55,0,0,0,3.63.5A2.72,2.72,0,0,0,67.93,22,2.55,2.55,0,0,0,64.3,21.49Z"/></g></g><g id="group1095-40"><g id="shape1096-41"><path class="cls-1" d="M49.34,28.11a2.51,2.51,0,0,0-.45,3.43,2.37,2.37,0,0,0,3.36.46,2.49,2.49,0,0,0,.44-3.43A2.35,2.35,0,0,0,49.34,28.11Z"/></g></g><g id="group1097-43"><g id="shape1098-44"><path class="cls-1" d="M50,20.3a3.79,3.79,0,0,0-.68,5.21,3.57,3.57,0,0,0,5.1.69A3.8,3.8,0,0,0,55.08,21,3.58,3.58,0,0,0,50,20.3Z"/></g></g></g></g><g id="shape1099-49"><path class="cls-1" d="M191.76,10.11h-20.5a1.1,1.1,0,0,0-1.09,1.11V28a1.09,1.09,0,0,0,1.09,1.1h5.28a3.29,3.29,0,0,0,3.21,2.27,3.37,3.37,0,0,0,0-6.74,3.29,3.29,0,0,0-3.21,2.27h-4.19v-12h18.31v12h-3.45a7.61,7.61,0,0,0-7.46-6.57,8.25,8.25,0,0,0-3.64.92l1,2a5.28,5.28,0,0,1,2.55-.68,5.46,5.46,0,0,1,0,10.92,5.28,5.28,0,0,1-2.55-.68l-1,2a7.51,7.51,0,0,0,3.64.92,7.61,7.61,0,0,0,7.46-6.57h4.55a1.09,1.09,0,0,0,1.09-1.1V11.22A1.14,1.14,0,0,0,191.76,10.11Z"/></g><g id="shape1100-52"><g id="lend5"><path class="cls-2" d="M161.69,18.87l8.05,4-8,4a9,9,0,0,0,0-8"/></g></g><g id="group1101-58"><g id="group1102-59"><g id="group1103-60"><g id="group1104-61"><g id="shape1105-62"><path class="cls-1" d="M7.85,15.21a4.49,4.49,0,0,0-3,5.66c.66,2.55,3,4.22,5.27,3.66a4.49,4.49,0,0,0,3-5.66C12.57,16.2,10.16,14.54,7.85,15.21Z"/></g></g><g id="group1106-64"><g id="shape1107-65"><path class="cls-1" d="M12.79,25.22c-.44,0-.88.78-1.54,1.11s-1.32.89-3.18,0S6,24.66,4.44,24.66.38,27.44.38,31.55H16a12.09,12.09,0,0,0-1.1-4.22C13.77,25.22,13.23,25.22,12.79,25.22Z"/></g></g></g></g><g id="group1108-67"><g id="shape1109-68"><path class="cls-3" d="M14.19,20.28H10.07a.71.71,0,0,0-.65.65v2.85a.73.73,0,0,0,.76.66h.76v5.15a1,1,0,0,0,1,1.1,1,1,0,0,0,1-1h.21V29c0-.22.33-.33.33-.33v-.33c-.33-.1-.54-.32-.54-.43v-.33l.21-.22a3.53,3.53,0,0,0,.33-.55,2.4,2.4,0,0,1-.33-.55c-.1-.11-.1-.33-.21-.44v-.21a2.51,2.51,0,0,1,.76-1.1h.54a.71.71,0,0,0,.65-.66v-3A.63.63,0,0,0,14.19,20.28ZM11.8,29.81c0,.22,0,.33-.21.33s-.22-.22-.22-.33V25c0-.22.11-.33.22-.33s.21.22.21.33ZM12.13,22a.66.66,0,0,1,0-1.32.71.71,0,0,1,.65.66A.63.63,0,0,1,12.13,22Z"/></g><g id="shape1110-70"><path class="cls-4" d="M11.57,30.12a.25.25,0,0,1-.22-.23v-5a.22.22,0,1,1,.44,0V30C11.79,30.12,11.68,30.12,11.57,30.12Z"/></g><g id="shape1111-72"><ellipse class="cls-4" cx="12.14" cy="21.35" rx="0.66" ry="0.67"/></g></g></g></g><g id="text"><path d="M168.9,48.63h-1.08l-.77-2.07H163.9l-.73,2.07H162.1L165,41.06h1Zm-2.15-2.93-1.14-3.14a2.86,2.86,0,0,1-.12-.53h0a2.34,2.34,0,0,1-.12.53l-1.13,3.14Z"/><path d="M171,45.8v2.83h-1V41.06h2.14a2.79,2.79,0,0,1,1.91.6,2.1,2.1,0,0,1,.67,1.68,2.27,2.27,0,0,1-.79,1.81,2.73,2.73,0,0,1-2,.65Zm0-3.88v3h.91a2,2,0,0,0,1.35-.4,1.46,1.46,0,0,0,.47-1.16c0-1-.58-1.46-1.73-1.46Z"/><path d="M177.09,41.06v7.57h-1V41.06Z"/><path d="M185.67,40.61l.72-.39a13.3,13.3,0,0,1,.8,1.17l-.48.27h4v.74h-7.6v2.4A7.92,7.92,0,0,1,181.64,50a6.21,6.21,0,0,0-.56-.67c.78-.88,1.17-2.37,1.17-4.48V41.66h4.13A10.19,10.19,0,0,0,185.67,40.61Zm-2.66,8h4.52a48.33,48.33,0,0,0,1.61-5.33l.85.24q-.92,3.21-1.62,5.09h2.41v.74H183Zm.53-4.79.74-.26q.6,1.78,1.17,4l-.83.25C184.32,46.54,184,45.22,183.54,43.85Zm2.35-.49.75-.22a39.36,39.36,0,0,1,.9,3.94l-.86.22A39.8,39.8,0,0,0,185.89,43.36Z"/><path d="M195.86,49.78V46.67H193A6.36,6.36,0,0,1,191.84,50a8.37,8.37,0,0,0-.58-.67,5.33,5.33,0,0,0,.86-2,16.23,16.23,0,0,0,.21-3V40.9h8v7.76c0,.78-.36,1.16-1.1,1.16l-1.51,0c0-.22-.08-.49-.15-.82q.85.06,1.38.06t.6-.57v-1.8h-2.87v3.11ZM193.07,46h2.79V44.14h-2.74A15.73,15.73,0,0,1,193.07,46Zm.05-4.35v1.82h2.74V41.62Zm6.39,0h-2.87v1.82h2.87ZM196.64,46h2.87V44.14h-2.87Z"/><path d="M28.57,49H33v-1.1h-2.7v.46h-.74V43.65h2c-.31-.37-.65-.74-1-1.12l.56-.46c.48.46.9.89,1.27,1.28l-.36.3h2.29c.35-.48.72-1,1.08-1.55l.79.42c-.34.4-.66.78-1,1.13h2v4.74h-.74v-.46H33.75V49h4.43v.7H33.75v2.06H33V49.73H28.57Zm1.72-3.58H33V44.33h-2.7Zm0,1.79H33V46.11h-2.7Zm6.18-2.91H33.75v1.12h2.72Zm-2.72,2.91h2.72V46.11H33.75Z"/><path d="M38.53,51.08A8.15,8.15,0,0,0,42,49.73,3.31,3.31,0,0,0,43,47V45.93h.79v1.13a5.52,5.52,0,0,1-.25,1.75A48,48,0,0,1,48.05,51l-.5.74a42.7,42.7,0,0,0-4.27-2.29,3.45,3.45,0,0,1-.89,1A9,9,0,0,1,39,51.85,8.36,8.36,0,0,0,38.53,51.08Zm1.29-6.41h2.77c.09-.34.18-.78.3-1.31H38.72v-.73h9.35v.73H43.75c-.13.5-.26.94-.39,1.31h3.69v4.64h-.8V45.39H40.61v4h-.79Z"/><path d="M53,42.43l.72-.38c.27.36.54.74.8,1.16l-.48.27h4v.75H50.4v2.39A7.92,7.92,0,0,1,49,51.78a7.87,7.87,0,0,0-.57-.67q1.17-1.3,1.17-4.47V43.48h4.14C53.5,43.13,53.27,42.77,53,42.43Zm-2.66,8h4.51a46.21,46.21,0,0,0,1.62-5.34l.85.24q-.91,3.23-1.62,5.1h2.41v.74H50.35Zm.52-4.8.75-.25c.4,1.18.79,2.51,1.17,4l-.83.26C51.66,48.37,51.3,47,50.87,45.67Zm2.36-.49L54,45a38.51,38.51,0,0,1,.9,3.93l-.86.23A39.42,39.42,0,0,0,53.23,45.18Z"/><path d="M63.2,51.6V48.49H60.36a6.25,6.25,0,0,1-1.19,3.37c-.17-.21-.36-.44-.57-.67a5.29,5.29,0,0,0,.86-2,16.31,16.31,0,0,0,.21-3V42.72h8v7.77c0,.77-.37,1.16-1.1,1.16l-1.52,0c0-.22-.08-.49-.14-.81.56,0,1,.06,1.37.06s.61-.2.61-.58v-1.8H64V51.6Zm-2.79-3.81H63.2V46H60.45A15.77,15.77,0,0,1,60.41,47.79Zm0-4.35v1.82H63.2V43.44Zm6.4,0H64v1.82h2.87ZM64,47.79h2.87V46H64Z"/><path d="M68.44,49a10.76,10.76,0,0,0,1.49-3.34H68.56v-.64h1.52V43.53l-1.26.16a6.45,6.45,0,0,0-.2-.68A23.47,23.47,0,0,0,72,42.49l.21.68-1.39.26v1.63h1.35v.64H70.79V47l.38-.33c.26.26.64.69,1.14,1.28l-.59.48c-.37-.49-.69-.88-.93-1.17v4.51h-.71V47.09a9.71,9.71,0,0,1-1.31,2.8C68.67,49.61,68.56,49.33,68.44,49Zm3.45,1.54h2.79V49.14H72.47v-.66h2.21V47.16H72.23V46.5h5.69v.66H75.46v1.32h2.22v.66H75.46v1.44h2.8v.66H71.89Zm.78-8h4.84v3.35h-.74v-.4H73.41v.4h-.74Zm4.1.67H73.41v1.62h3.36Z"/><path d="M83,42.41l.71-.38c.25.32.48.66.7,1l-.47.28h4.16V44H80.35v2.66A8.11,8.11,0,0,1,79,51.81a7.6,7.6,0,0,0-.56-.66c.72-.83,1.08-2.26,1.08-4.28V43.31h4.11A9.39,9.39,0,0,0,83,42.41Zm-2.41,5h3.43c-.6-.45-1.18-.84-1.73-1.18l.47-.5c.49.3.95.59,1.39.88l1.77-1H81.2v-.7h6.17v.71L84.84,47l.24.16-.26.19H88v.72l-.85,1.75c-.19-.1-.43-.22-.72-.35l.69-1.41H84.81v2.33c0,.78-.37,1.18-1.12,1.18l-1.47,0q0-.33-.12-.84a10.42,10.42,0,0,0,1.35.11.5.5,0,0,0,.56-.56v-2.2H80.62Z"/><path class="cls-5" d="M107,10.42c.14,1.07-.15,1.67-.89,1.8a3.11,3.11,0,0,1-.93,0,5.16,5.16,0,0,0-.21-.77,2.7,2.7,0,0,0,.88.08c.42,0,.56-.42.43-1.15a4,4,0,0,0-.84-1.74c.42-1,.73-1.86.94-2.48h-1.45V14.7h-.72V5.48h2.91v.69c-.31.81-.63,1.6-1,2.36A4.08,4.08,0,0,1,107,10.42Zm.09,1.43.64.23a9.36,9.36,0,0,1-.85,2l-.63-.32A8,8,0,0,0,107.09,11.85Zm.38-1.27h4.6V9.7H107.7V9.1h4.37V8.24h-4.39V7.78c-.16.2-.33.39-.51.58a2.26,2.26,0,0,0-.43-.56,12.34,12.34,0,0,0,2-2.78l.72.19q-.24.43-.51.84h3V6.7c-.28.34-.53.65-.76.91h1.57v3.85h-.7v-.25h-4.6Zm3.58-3.9h-2.51q-.35.48-.72.93h2.51Zm-3,5h.69v1.5q0,.6.48.6h1.08q.7,0,.78-.45a7.61,7.61,0,0,0,.11-1l.7.27a6.34,6.34,0,0,1-.18.93,1,1,0,0,1-1.16.83H109.1c-.67,0-1-.39-1-1.18Zm1.11,0,.5-.38a9.63,9.63,0,0,1,1,1.14l-.58.44A8.26,8.26,0,0,0,109.2,11.66Zm2.6.38.52-.36a17.34,17.34,0,0,1,1.17,1.52l-.6.4C112.52,13,112.15,12.5,111.8,12Z"/><path class="cls-5" d="M113.74,6.94h5.43c0-.6,0-1.24-.06-1.91h.83c0,.64,0,1.28,0,1.91h3.36v.73H120c.13,3.28.68,5.28,1.65,6,.35.28.6.21.74-.24a9.92,9.92,0,0,0,.26-1.5,7.55,7.55,0,0,0,.79.25A12.73,12.73,0,0,1,123,14a.88.88,0,0,1-.9.67,1.87,1.87,0,0,1-1.33-.68c-.93-1-1.47-3.1-1.6-6.33h-5.47Zm0,6.19c.73-.09,1.49-.18,2.26-.29V10.1h-1.9V9.37h4.59v.73h-1.89v2.63l2.34-.34c0,.25,0,.52,0,.79-2,.28-3.69.54-5.19.77Zm6.91-7.53.47-.5a17.68,17.68,0,0,1,1.42,1.16l-.55.57C121.61,6.41,121.17,6,120.69,5.6Z"/><path class="cls-5" d="M123.72,8.31l.49-.57c.52.36,1.08.78,1.66,1.26l-.57.63C124.62,9,124.09,8.59,123.72,8.31Zm.3,6a32.29,32.29,0,0,0,1-3.79,7.51,7.51,0,0,0,.79.31c-.3,1.12-.61,2.37-1,3.75Zm.08-8.58.5-.52q.7.57,1.59,1.35l-.58.57C125.07,6.62,124.57,6.15,124.1,5.76Zm3.09,4.36h.75a8,8,0,0,1-.4,3,3.43,3.43,0,0,1-1.63,1.61,4,4,0,0,0-.49-.64,2.81,2.81,0,0,0,1.41-1.35A6.62,6.62,0,0,0,127.19,10.12Zm4.23-2.59c.51.59,1.07,1.3,1.69,2.14l-.7.46c-.16-.24-.32-.46-.48-.68l-4.4.21a4.92,4.92,0,0,0-.79.12l-.33-.73a3.71,3.71,0,0,0,.69-.45A11.6,11.6,0,0,0,128.6,7h-2.17v-.7h3.1a10.06,10.06,0,0,0-.71-1l.65-.4c.24.3.51.66.82,1.07l-.51.33h3.32V7h-4.31l.64.27a19.39,19.39,0,0,1-1.7,1.64l3.74-.13L130.82,8Zm-2.3,2.59h.73v4.36h-.73Zm1.78,0h.74v3.28c0,.29.11.44.35.44h.34c.2,0,.33-.16.38-.49a10.72,10.72,0,0,0,.09-1.23c.23.1.47.19.73.28a10.38,10.38,0,0,1-.15,1.26.86.86,0,0,1-.92.87h-.61c-.63,0-.95-.38-.95-1.14Z"/><rect class="cls-2" x="72.98" y="21.99" width="90.64" height="1.75" rx="0.76"/></g></svg>