<svg xmlns="http://www.w3.org/2000/svg" viewBox="0 0 204.71 69.22"><title>OJ104546510</title><g style="isolation:isolate"><path d="M106,10.42c.14,1.07-.16,1.67-.89,1.8a3.13,3.13,0,0,1-.93,0,4.85,4.85,0,0,0-.21-.77,2.67,2.67,0,0,0,.87.08c.43,0,.57-.42.43-1.15a3.74,3.74,0,0,0-.84-1.74c.43-1,.74-1.86,1-2.48H104V14.7h-.72V5.48h2.9v.69c-.3.81-.62,1.6-.94,2.36A4.08,4.08,0,0,1,106,10.42Zm.08,1.43.65.23a9.91,9.91,0,0,1-.85,2c-.16-.09-.37-.19-.64-.32A7.28,7.28,0,0,0,106.11,11.85Zm.39-1.27h4.59V9.7h-4.36V9.1h4.36V8.24h-4.38V7.78c-.17.2-.33.39-.51.57a2.78,2.78,0,0,0-.43-.55,12.13,12.13,0,0,0,2-2.79l.73.2c-.17.29-.33.57-.51.84h3V6.7l-.76.91h1.57v3.85h-.71v-.25H106.5Zm3.58-3.91h-2.51c-.23.33-.47.64-.72.94h2.51Zm-3,5h.68v1.5c0,.4.17.6.49.6h1.08c.46,0,.73-.15.78-.45a7.94,7.94,0,0,0,.1-1l.71.27c-.07.43-.13.73-.18.93a1,1,0,0,1-1.16.83h-1.49c-.67,0-1-.39-1-1.18Zm1.1,0,.51-.39a11.71,11.71,0,0,1,1,1.15l-.58.44A8.38,8.38,0,0,0,108.22,11.66Zm2.61.38.52-.37a17.53,17.53,0,0,1,1.17,1.53l-.6.4C111.54,13,111.18,12.5,110.83,12Z" fill="#00b0f0"/><path d="M112.76,6.94h5.43c0-.6,0-1.24,0-1.92H119q0,1,0,1.92h3.35v.73H119q.19,4.92,1.64,6c.36.28.6.21.75-.24a11.7,11.7,0,0,0,.26-1.5c.31.11.57.19.79.25a14.61,14.61,0,0,1-.4,1.85.88.88,0,0,1-.9.67,1.89,1.89,0,0,1-1.34-.68q-1.39-1.48-1.59-6.33h-5.48Zm0,6.19c.74-.09,1.49-.18,2.27-.29V10.1h-1.9V9.37h4.58v.73h-1.88v2.63l2.33-.34c0,.25,0,.52,0,.79L113,14Zm6.92-7.53.47-.5c.47.34.94.73,1.42,1.15l-.55.58C120.64,6.41,120.19,6,119.72,5.6Z" fill="#00b0f0"/><path d="M122.75,8.31l.48-.57c.53.36,1.08.78,1.66,1.26-.23.27-.42.48-.56.63C123.65,9,123.12,8.59,122.75,8.31Zm.3,6a30.49,30.49,0,0,0,1-3.79,6.19,6.19,0,0,0,.79.3c-.29,1.13-.6,2.38-.94,3.75Zm.08-8.58.49-.52c.48.38,1,.83,1.6,1.35l-.58.57C124.1,6.62,123.59,6.15,123.13,5.76Zm3.09,4.36H127a7.76,7.76,0,0,1-.4,3,3.36,3.36,0,0,1-1.62,1.61,3.54,3.54,0,0,0-.5-.64,2.8,2.8,0,0,0,1.42-1.35A6.65,6.65,0,0,0,126.22,10.12Zm4.23-2.59c.51.59,1.07,1.3,1.69,2.14l-.7.46L131,9.45l-4.41.21a4.82,4.82,0,0,0-.78.12l-.33-.73a4.45,4.45,0,0,0,.68-.45A11.06,11.06,0,0,0,127.63,7h-2.17v-.7h3.1a12,12,0,0,0-.71-1l.65-.4c.24.3.51.66.82,1.07l-.51.33h3.32V7h-4.32l.65.27a19.39,19.39,0,0,1-1.7,1.64c1,0,2.3-.07,3.73-.13-.22-.3-.44-.58-.65-.85Zm-2.3,2.59h.73v4.36h-.73Zm1.78,0h.74v3.27c0,.3.11.45.35.45h.34c.2,0,.33-.16.38-.49s.07-.77.09-1.23c.23.1.47.19.73.28-.05.55-.09,1-.15,1.26a.86.86,0,0,1-.92.87h-.61c-.63,0-.95-.38-.95-1.15Z" fill="#00b0f0"/></g><path d="M66,32.83a11.78,11.78,0,0,1-16.84-2.29,12.56,12.56,0,0,1,2.24-17.29,11.82,11.82,0,0,1,16.84,2.3A12.54,12.54,0,0,1,66,32.83Zm3.66-18.41a13.57,13.57,0,0,0-19.36-2.63,14.43,14.43,0,0,0-2.55,19.87A13.55,13.55,0,0,0,67.13,34.3,14.45,14.45,0,0,0,69.69,14.42Z" fill="#008bfd"/><path d="M52.06,25.61a17,17,0,0,1-2-2.35,18.28,18.28,0,0,0-1.66,6.88c.11.16.11.29.23.45a13.4,13.4,0,0,0,2,2.05A14.14,14.14,0,0,1,52.06,25.61Z" fill="#008bfd"/><path d="M56.67,16.17a21,21,0,0,0-3.33,3,15.71,15.71,0,0,0-1.61,2.05,15.93,15.93,0,0,0,1.9,2.47,15.93,15.93,0,0,1,2.2-2.57A26.31,26.31,0,0,1,59,18.5C58.16,17.73,57.38,17,56.67,16.17Z" fill="#008bfd"/><path d="M68.14,15.37a12.47,12.47,0,0,0-1.73-1.82,12.55,12.55,0,0,0-8,1.54c.76.83,1.51,1.62,2.24,2.36C65,15,68.14,15.37,68.14,15.37Z" fill="#008bfd"/><path d="M55.9,25.79a22.67,22.67,0,0,1-2.27-2.13,13.15,13.15,0,0,0-1.14,1.95,25.16,25.16,0,0,0,2.09,1.9A19.15,19.15,0,0,0,67.14,31.9,9.13,9.13,0,0,0,68.68,30C67.45,30.21,62.19,30.9,55.9,25.79Z" fill="#008bfd"/><path d="M50.54,23.26a16.8,16.8,0,0,0,2,2.35,14.09,14.09,0,0,1,1.14-1.95,15.93,15.93,0,0,1-1.9-2.47A15.67,15.67,0,0,0,50.54,23.26Z" fill="#008bfd"/><path d="M59,18.49a98.68,98.68,0,0,0,11.15,8.83,10.76,10.76,0,0,0,.33-1.06,95,95,0,0,1-9.83-8.81A17.67,17.67,0,0,0,59,18.49Z" fill="#008bfd"/><path d="M58.38,15.08c-1.1-1.18-2.22-2.44-3.36-3.8a11.09,11.09,0,0,0-1.59.66,26.8,26.8,0,0,0,3.24,4.23A15.69,15.69,0,0,1,58.38,15.08Z" fill="#008bfd"/><path d="M58.45,15a18.74,18.74,0,0,0-1.87,1.19c.72.79,1.45,1.59,2.25,2.36.57-.41,1.34-.89,1.87-1.19C60,16.67,59.21,15.88,58.45,15Z" fill="#008bfd"/><path d="M58.25,14.94a14.89,14.89,0,0,0-1.67,1.13c.72.78,1.74,1.8,2.54,2.57a18.53,18.53,0,0,1,1.58-1.11C60,16.8,59,15.78,58.25,14.94Z" fill="#008bfd"/><path d="M64.3,21.49a2.71,2.71,0,0,0-.48,3.71,2.55,2.55,0,0,0,3.63.5A2.72,2.72,0,0,0,67.93,22,2.55,2.55,0,0,0,64.3,21.49Z" fill="#008bfd"/><path d="M59.24,27.83a2.51,2.51,0,0,0-.45,3.43,2.37,2.37,0,0,0,3.36.46,2.49,2.49,0,0,0,.44-3.43A2.35,2.35,0,0,0,59.24,27.83Z" fill="#008bfd"/><path d="M50,20.3a3.79,3.79,0,0,0-.68,5.21,3.57,3.57,0,0,0,5.1.69A3.8,3.8,0,0,0,55.08,21,3.58,3.58,0,0,0,50,20.3Z" fill="#008bfd"/><path d="M50.6,23.07A19.94,19.94,0,0,1,51.79,21a9.83,9.83,0,0,1-1.6-6.79,13.9,13.9,0,0,0-1.29,1.6C48.52,17.42,48.5,20,50.6,23.07Z" fill="#008bfd" fill-rule="evenodd"/><g style="isolation:isolate"><path d="M28.57,47.28H33v-1.1h-2.7v.46h-.74V41.9h2c-.31-.36-.65-.74-1-1.12l.56-.46c.48.46.9.89,1.27,1.28l-.36.3h2.29c.35-.48.72-1,1.08-1.55l.79.42c-.34.4-.66.78-1,1.13h2v4.74h-.74v-.46H33.75v1.1h4.43V48H33.75V50H33V48H28.57Zm1.72-3.58H33V42.58h-2.7Zm0,1.79H33V44.36h-2.7Zm6.18-2.91H33.75V43.7h2.72Zm-2.72,2.91h2.72V44.36H33.75Z" fill="#008bfd"/><path d="M38.53,49.33A8.15,8.15,0,0,0,42,48,3.31,3.31,0,0,0,43,45.27V44.18h.79v1.13a5.52,5.52,0,0,1-.25,1.75,48,48,0,0,1,4.48,2.21l-.5.74a44.85,44.85,0,0,0-4.27-2.29,3.45,3.45,0,0,1-.89,1A8.87,8.87,0,0,1,39,50.1,8.36,8.36,0,0,0,38.53,49.33Zm1.29-6.41h2.77c.09-.34.18-.78.3-1.31H38.72v-.73h9.35v.73H43.75c-.13.5-.26.94-.39,1.31h3.69v4.64h-.8V43.64H40.61v4h-.79Z" fill="#008bfd"/><path d="M53,40.68l.72-.38c.27.36.54.74.8,1.16l-.48.27h4v.75H50.4v2.39A7.9,7.9,0,0,1,49,50c-.16-.21-.35-.43-.57-.67q1.17-1.3,1.17-4.47V41.73h4.14C53.5,41.38,53.27,41,53,40.68Zm-2.66,8h4.51a46.21,46.21,0,0,0,1.62-5.34l.85.24q-.91,3.23-1.62,5.1h2.41v.74H50.35Zm.52-4.8.75-.25c.4,1.18.79,2.51,1.17,4l-.83.26C51.66,46.62,51.3,45.29,50.87,43.92Zm2.36-.49.75-.21a38.51,38.51,0,0,1,.9,3.93l-.86.23A39.42,39.42,0,0,0,53.23,43.43Z" fill="#008bfd"/><path d="M63.2,49.85V46.74H60.36a6.25,6.25,0,0,1-1.19,3.37c-.17-.21-.36-.44-.57-.67a5.29,5.29,0,0,0,.86-2,16.31,16.31,0,0,0,.21-3V41h8v7.77c0,.77-.37,1.16-1.1,1.16l-1.52,0c0-.22-.08-.49-.14-.81.56,0,1,.06,1.37.06s.61-.2.61-.58v-1.8H64v3.11ZM60.41,46H63.2V44.21H60.45A15.72,15.72,0,0,1,60.41,46Zm0-4.35v1.82H63.2V41.69Zm6.4,0H64v1.82h2.87ZM64,46h2.87V44.21H64Z" fill="#008bfd"/><path d="M68.44,47.29A10.76,10.76,0,0,0,69.93,44H68.56v-.64h1.52V41.78l-1.26.16a5.67,5.67,0,0,0-.2-.67A25,25,0,0,0,72,40.74l.21.68-1.39.26v1.63h1.35V44H70.79v1.29l.38-.33c.26.26.64.69,1.14,1.28l-.59.48c-.37-.49-.69-.88-.93-1.17V50h-.71V45.34a9.71,9.71,0,0,1-1.31,2.8C68.67,47.86,68.56,47.58,68.44,47.29Zm3.45,1.54h2.79V47.39H72.47v-.66h2.21V45.41H72.23v-.66h5.69v.66H75.46v1.32h2.22v.66H75.46v1.44h2.8v.66H71.89Zm.78-8h4.84v3.34h-.74v-.4H73.41v.4h-.74Zm4.1.66H73.41v1.62h3.36Z" fill="#008bfd"/><path d="M83,40.66l.7-.38a11.35,11.35,0,0,1,.71,1l-.47.28h4.16v.71H80.35v2.66A8.11,8.11,0,0,1,79,50.06a7.6,7.6,0,0,0-.56-.66c.72-.83,1.08-2.26,1.08-4.28V41.56h4.11A9.39,9.39,0,0,0,83,40.66Zm-2.41,5h3.43c-.6-.45-1.18-.84-1.73-1.18l.47-.5c.49.3.95.59,1.39.88l1.77-1H81.2v-.7h6.17v.71l-2.53,1.49.24.16-.26.19H88v.72l-.85,1.75c-.19-.1-.43-.22-.72-.35l.69-1.41H84.81v2.33c0,.79-.38,1.18-1.12,1.18l-1.47,0q0-.33-.12-.84a10.42,10.42,0,0,0,1.35.11.5.5,0,0,0,.56-.56v-2.2H80.62Z" fill="#008bfd"/></g><path d="M191.76,10.11h-20.5a1.1,1.1,0,0,0-1.09,1.11V28a1.09,1.09,0,0,0,1.09,1.1h5.28a3.29,3.29,0,0,0,3.21,2.27,3.37,3.37,0,0,0,0-6.74,3.29,3.29,0,0,0-3.21,2.27h-4.19v-12h18.31v12h-3.45a7.61,7.61,0,0,0-7.46-6.57,8.25,8.25,0,0,0-3.64.92l1,2a5.28,5.28,0,0,1,2.55-.68,5.46,5.46,0,0,1,0,10.92,5.28,5.28,0,0,1-2.55-.68l-1,2a7.51,7.51,0,0,0,3.64.92,7.61,7.61,0,0,0,7.46-6.57h4.55a1.09,1.09,0,0,0,1.09-1.1V11.22A1.14,1.14,0,0,0,191.76,10.11Z" fill="#008bfd"/><g style="isolation:isolate"><path d="M168.9,48.63h-1.08l-.77-2.07H163.9l-.72,2.07H162.1L165,41.07h1Zm-2.15-2.93-1.14-3.14a2.86,2.86,0,0,1-.12-.53h0a2.71,2.71,0,0,1-.13.53l-1.13,3.14Z" fill="#008bfd"/><path d="M171,45.8v2.83h-1V41.07h2.15a2.77,2.77,0,0,1,1.9.59,2.11,2.11,0,0,1,.67,1.69,2.27,2.27,0,0,1-.79,1.8,2.71,2.71,0,0,1-2,.65Zm0-3.88v3h.91a2,2,0,0,0,1.35-.4,1.45,1.45,0,0,0,.47-1.16c0-1-.58-1.46-1.73-1.46Z" fill="#008bfd"/><path d="M177.09,41.07v7.56h-1V41.07Z" fill="#008bfd"/><path d="M185.68,40.61l.71-.38a10.28,10.28,0,0,1,.8,1.16l-.47.27h4v.74h-7.61v2.4A7.92,7.92,0,0,1,181.64,50a6.21,6.21,0,0,0-.56-.67c.78-.87,1.17-2.37,1.17-4.47V41.66h4.13A12,12,0,0,0,185.68,40.61Zm-2.67,8h4.52a48.33,48.33,0,0,0,1.61-5.33l.85.24q-.92,3.21-1.62,5.09h2.41v.75H183Zm.53-4.79.74-.26q.6,1.78,1.17,4l-.83.25C184.32,46.54,184,45.22,183.54,43.85Zm2.35-.49.75-.21a38.51,38.51,0,0,1,.9,3.93l-.86.23A39.42,39.42,0,0,0,185.89,43.36Z" fill="#008bfd"/><path d="M195.86,49.78V46.67H193A6.36,6.36,0,0,1,191.84,50a8.37,8.37,0,0,0-.58-.67,5.33,5.33,0,0,0,.86-2,16,16,0,0,0,.22-3V40.9h7.95v7.76c0,.78-.36,1.16-1.1,1.16-.45,0-.95,0-1.51,0,0-.22-.08-.49-.15-.82q.85.06,1.38.06t.6-.57v-1.8h-2.87v3.11ZM193.07,46h2.79V44.14h-2.74A15.73,15.73,0,0,1,193.07,46Zm.05-4.35v1.82h2.74V41.62Zm6.39,0h-2.87v1.82h2.87ZM196.64,46h2.87V44.14h-2.87Z" fill="#008bfd"/></g><path d="M161.69,18.87l8.05,4-8,4a9,9,0,0,0,0-8" fill="#505050"/><path d="M7.85,15.21a4.49,4.49,0,0,0-3,5.66c.66,2.55,3,4.22,5.27,3.66a4.49,4.49,0,0,0,3-5.66C12.57,16.2,10.16,14.54,7.85,15.21Z" fill="#008bfd"/><path d="M12.79,25.22c-.44,0-.88.78-1.54,1.11s-1.32.89-3.18,0S6,24.66,4.44,24.66.38,27.44.38,31.55H16a12.09,12.09,0,0,0-1.1-4.22C13.77,25.22,13.23,25.22,12.79,25.22Z" fill="#008bfd"/><path d="M14.19,20.28H10.07a.71.71,0,0,0-.65.65v2.85a.73.73,0,0,0,.76.66h.76v5.15a1,1,0,0,0,1,1.1,1,1,0,0,0,1-1h.21V29c0-.22.33-.33.33-.33v-.33c-.33-.1-.54-.32-.54-.43v-.33l.21-.22a3.53,3.53,0,0,0,.33-.55,2.4,2.4,0,0,1-.33-.55c-.1-.11-.1-.33-.21-.44v-.21a2.51,2.51,0,0,1,.76-1.1h.54a.71.71,0,0,0,.65-.66v-3A.63.63,0,0,0,14.19,20.28ZM11.8,29.81c0,.22,0,.33-.21.33s-.22-.22-.22-.33V25c0-.22.11-.33.22-.33s.21.22.21.33ZM12.13,22a.66.66,0,0,1,0-1.32.71.71,0,0,1,.65.66A.63.63,0,0,1,12.13,22Z" fill="#008bfd" stroke="gray" stroke-linecap="round" stroke-linejoin="round" stroke-width="0.75"/><path d="M11.57,30.12a.25.25,0,0,1-.22-.23v-5a.22.22,0,1,1,.44,0V30C11.79,30.12,11.68,30.12,11.57,30.12Z" fill="#fff"/><ellipse cx="12.14" cy="21.35" rx="0.66" ry="0.67" fill="#fff"/><line x1="72.53" y1="22.87" x2="162.7" y2="22.87" fill="none" stroke="#505050" stroke-miterlimit="10"/></svg>