<svg xmlns="http://www.w3.org/2000/svg" viewBox="0 0 205.55 55.68"><defs><style>.cls-1,.cls-4{fill:#fff;}.cls-1{stroke:#000;stroke-width:0.24px;}.cls-1,.cls-3{stroke-linecap:round;stroke-linejoin:round;}.cls-2,.cls-3{fill:#008bfd;}.cls-3{stroke:gray;stroke-width:0.75px;}.cls-5{fill:#505050;}.cls-6{fill:#00b0f0;}</style></defs><title>OJ104546506</title><g id="shapes"><g id="shape1000-1"><path class="cls-1" d="M16,9.82.12,21.25,6.2,39.73H25.86l6.08-18.48Z"/></g><g id="group1216-3"><g id="group1217-4"><g id="group1218-5"><g id="group1219-6"><g id="shape1220-7"><path class="cls-2" d="M15.7,16.94a4.49,4.49,0,0,0-3,5.66c.66,2.55,3,4.22,5.27,3.67a4.5,4.5,0,0,0,3-5.67C20.42,17.94,18,16.27,15.7,16.94Z"/></g></g><g id="group1221-9"><g id="shape1222-10"><path class="cls-2" d="M20.64,27c-.44,0-.88.78-1.54,1.11s-1.32.89-3.18,0-2.09-1.66-3.63-1.66-4.06,2.77-4.06,6.88H23.82a12.09,12.09,0,0,0-1.1-4.22C21.62,27,21.08,27,20.64,27Z"/></g></g></g></g><g id="group1223-12"><g id="shape1224-13"><path class="cls-3" d="M22.05,22H17.93a.71.71,0,0,0-.65.66v2.85a.72.72,0,0,0,.76.65h.76v5.15a1,1,0,0,0,1,1.1,1,1,0,0,0,1-1H21v-.65c0-.22.33-.33.33-.33v-.33c-.33-.11-.54-.33-.54-.44v-.33l.21-.22a3.55,3.55,0,0,0,.33-.54A2.4,2.4,0,0,1,21,28c-.1-.11-.1-.33-.21-.44v-.22a2.51,2.51,0,0,1,.76-1.1h.54a.7.7,0,0,0,.65-.65v-3A.63.63,0,0,0,22.05,22Zm-2.39,9.53c0,.22,0,.33-.21.33s-.22-.22-.22-.33V26.72c0-.22.11-.33.22-.33s.21.22.21.33ZM20,23.76a.69.69,0,0,1-.65-.65.7.7,0,0,1,.65-.66.71.71,0,0,1,.65.66A.62.62,0,0,1,20,23.76Z"/></g><g id="shape1225-15"><path class="cls-4" d="M19.43,31.85a.24.24,0,0,1-.22-.22v-5a.22.22,0,0,1,.44,0v5.11C19.65,31.85,19.54,31.85,19.43,31.85Z"/></g><g id="shape1226-17"><ellipse class="cls-4" cx="20" cy="23.09" rx="0.66" ry="0.67"/></g></g></g><g id="shape1229-25"><path class="cls-2" d="M77.23,9.3H56.73a1.09,1.09,0,0,0-1.09,1.1V27.14a1.1,1.1,0,0,0,1.09,1.11H62a3.29,3.29,0,0,0,3.21,2.27,3.38,3.38,0,0,0,0-6.75A3.29,3.29,0,0,0,62,26H57.82v-12H76.13V26H72.68a7.61,7.61,0,0,0-7.46-6.56,8.25,8.25,0,0,0-3.64.92l1,2a5.27,5.27,0,0,1,2.55-.67,5.46,5.46,0,0,1,0,10.91,5.27,5.27,0,0,1-2.55-.67l-1,2a7.51,7.51,0,0,0,3.64.92,7.61,7.61,0,0,0,7.46-6.56h4.55a1.1,1.1,0,0,0,1.09-1.11V10.4A1.14,1.14,0,0,0,77.23,9.3Z"/></g><g id="shape1227-19"><path class="cls-2" d="M192.6,8.81H172.1A1.09,1.09,0,0,0,171,9.91V26.65a1.1,1.1,0,0,0,1.09,1.11h5.28A3.29,3.29,0,0,0,180.59,30a3.38,3.38,0,0,0,0-6.75,3.29,3.29,0,0,0-3.21,2.27h-4.19v-12H191.5v12h-3.45A7.61,7.61,0,0,0,180.59,19a8.25,8.25,0,0,0-3.64.92l1,2a5.27,5.27,0,0,1,2.55-.67,5.46,5.46,0,0,1,0,10.91,5.27,5.27,0,0,1-2.55-.67l-1,2a7.51,7.51,0,0,0,3.64.92,7.61,7.61,0,0,0,7.46-6.56h4.55a1.1,1.1,0,0,0,1.09-1.11V9.91A1.14,1.14,0,0,0,192.6,8.81Z"/></g><g id="shape1230-28"><g id="lend5"><path class="cls-5" d="M162.52,17.59l8.06,4-7.94,4a9,9,0,0,0-.06-8"/></g></g></g><g id="text"><path d="M169.74,47.32h-1.08l-.77-2.07h-3.15L164,47.32h-1.08l2.88-7.57h1Zm-2.15-2.93-1.14-3.14a3.08,3.08,0,0,1-.12-.53h0a2.92,2.92,0,0,1-.13.53l-1.13,3.14Z"/><path d="M171.81,44.49v2.83h-1V39.75H173a2.82,2.82,0,0,1,1.9.59,2.14,2.14,0,0,1,.67,1.69,2.29,2.29,0,0,1-.79,1.81,2.76,2.76,0,0,1-2,.65Zm0-3.88v3h.91a2,2,0,0,0,1.35-.4,1.46,1.46,0,0,0,.47-1.16c0-1-.58-1.46-1.73-1.46Z"/><path d="M177.93,39.75v7.57h-1V39.75Z"/><path d="M186.52,39.29l.71-.38a12.48,12.48,0,0,1,.8,1.16l-.47.28h4v.74h-7.61v2.39a7.93,7.93,0,0,1-1.43,5.17,6.25,6.25,0,0,0-.56-.68q1.17-1.3,1.17-4.47V40.35h4.13C187,40,186.77,39.64,186.52,39.29Zm-2.67,8h4.52A49,49,0,0,0,190,42l.85.23q-.92,3.23-1.62,5.1h2.41v.74h-7.77Zm.53-4.79.74-.26c.4,1.19.79,2.51,1.17,4l-.83.25C185.16,45.23,184.8,43.9,184.38,42.54Zm2.35-.49.75-.22a38.73,38.73,0,0,1,.9,3.94l-.86.22A39.24,39.24,0,0,0,186.73,42.05Z"/><path d="M196.7,48.46v-3.1h-2.84a6.3,6.3,0,0,1-1.18,3.37c-.17-.22-.36-.44-.58-.68a5.13,5.13,0,0,0,.86-2,16.07,16.07,0,0,0,.22-3V39.59h7.95v7.76c0,.77-.36,1.16-1.1,1.16l-1.51,0q0-.31-.15-.81.85.06,1.38.06c.4,0,.6-.19.6-.58V45.36h-2.87v3.1Zm-2.79-3.81h2.79V42.83H194A15.49,15.49,0,0,1,193.91,44.65Zm.05-4.34v1.82h2.74V40.31Zm6.39,0h-2.87v1.82h2.87Zm-2.87,4.34h2.87V42.83h-2.87Z"/><path d="M54.37,47.81H53.29l-.77-2.07H49.37l-.73,2.07H47.56l2.88-7.57h1.05Zm-2.15-2.93-1.15-3.14a4.52,4.52,0,0,1-.11-.53h0a2.34,2.34,0,0,1-.12.53l-1.13,3.14Z"/><path d="M56.44,45v2.83h-1V40.24h2.15a2.81,2.81,0,0,1,1.9.59,2.14,2.14,0,0,1,.68,1.69,2.27,2.27,0,0,1-.79,1.81,2.75,2.75,0,0,1-2,.65Zm0-3.88v3h.9a2,2,0,0,0,1.36-.4,1.46,1.46,0,0,0,.46-1.16c0-1-.57-1.46-1.72-1.46Z"/><path d="M62.56,40.24v7.57h-1V40.24Z"/><path d="M71.14,39.78l.71-.38a13.35,13.35,0,0,1,.81,1.17l-.48.27h4v.74H68.53V44a7.93,7.93,0,0,1-1.42,5.17,7.87,7.87,0,0,0-.57-.67c.78-.88,1.17-2.37,1.17-4.48V40.84h4.14C71.63,40.48,71.4,40.13,71.14,39.78Zm-2.66,8H73a46,46,0,0,0,1.62-5.33l.85.23q-.92,3.22-1.62,5.1h2.41v.74H68.48ZM69,43l.75-.26q.6,1.78,1.17,4l-.83.25C69.79,45.72,69.43,44.39,69,43Zm2.36-.49.75-.22a39.36,39.36,0,0,1,.9,3.94l-.86.22A39.24,39.24,0,0,0,71.36,42.54Z"/><path d="M81.33,49v-3.1H78.49a6.28,6.28,0,0,1-1.19,3.37c-.17-.22-.36-.44-.57-.68a5.29,5.29,0,0,0,.86-2,16.23,16.23,0,0,0,.21-3V40.08h8v7.76c0,.78-.37,1.16-1.1,1.16l-1.52,0c0-.21-.08-.48-.14-.81.56,0,1,.06,1.37.06S85,48,85,47.65v-1.8H82.11V49Zm-2.79-3.8h2.79V43.32H78.58A15.77,15.77,0,0,1,78.54,45.15Zm0-4.35v1.82h2.75V40.8Zm6.4,0H82.11v1.82H85Zm-2.87,4.35H85V43.32H82.11Z"/><path class="cls-6" d="M109.89,9.75a16.63,16.63,0,0,0,2.41-4.69l.79.27c-.29.76-.6,1.47-.91,2.12v7.24h-.8V9a15,15,0,0,1-1.16,1.68C110.13,10.36,110,10.07,109.89,9.75Zm2.83-1.28L115,8.21c-.07-.82-.13-1.85-.16-3.09h.85c0,1,0,2,.12,3l3.58-.39.09.72-3.59.39q.56,4.05,2.13,4.85c.28.12.47,0,.55-.28a13.53,13.53,0,0,0,.32-1.57,7.41,7.41,0,0,0,.78.28,16.9,16.9,0,0,1-.35,1.68,1,1,0,0,1-1,.83,2.21,2.21,0,0,1-1.6-1,9.2,9.2,0,0,1-1.58-4.69l-2.28.25Zm3.9-2.58.51-.52c.57.44,1.16.92,1.76,1.46l-.6.6A21.59,21.59,0,0,0,116.62,5.89Z"/><path class="cls-6" d="M128.46,10.42l.53.67-2.18,1.1a6.2,6.2,0,0,0,2.88,1.24c-.22.29-.41.55-.55.78a6.37,6.37,0,0,1-4.52-3.87,9.76,9.76,0,0,1-1.13,1.2v2.09c.86-.28,1.65-.57,2.39-.87,0,.28,0,.56,0,.84-.78.27-1.59.56-2.42.88a5,5,0,0,0-.52.26l-.46-.72a.63.63,0,0,0,.27-.54V12.13a13,13,0,0,1-2.29,1.38,5.15,5.15,0,0,0-.5-.68,9.92,9.92,0,0,0,4-2.77h-3.86V9.39h4.37v-1h-3.68V7.72h3.68v-1h-4.07V6.09h4.07V5h.77v1.1h4.1v.67h-4.1v1h3.68v.67h-3.68v1h4.37v.67h-4.34a5.81,5.81,0,0,0,1,1.65A19.1,19.1,0,0,0,128.46,10.42Z"/><path class="cls-6" d="M130,8.3l.49-.56c.53.36,1.08.78,1.66,1.26q-.35.4-.57.63C130.87,9,130.34,8.58,130,8.3Zm.3,6a32.83,32.83,0,0,0,1-3.79c.29.12.55.22.79.3-.29,1.13-.61,2.38-.95,3.75Zm.08-8.59.5-.51c.48.37,1,.82,1.59,1.34l-.57.58A20.5,20.5,0,0,0,130.34,5.75Zm3.1,4.37h.74a7.83,7.83,0,0,1-.4,3,3.49,3.49,0,0,1-1.62,1.61,4.14,4.14,0,0,0-.5-.65,2.86,2.86,0,0,0,1.42-1.34A6.65,6.65,0,0,0,133.44,10.12Zm4.23-2.59c.5.59,1.07,1.3,1.69,2.14-.24.15-.48.3-.71.46l-.47-.69-4.41.22a3.81,3.81,0,0,0-.78.12L132.66,9a3.34,3.34,0,0,0,.68-.45A10.52,10.52,0,0,0,134.84,7h-2.16V6.31h3.1c-.25-.38-.49-.72-.71-1l.64-.4c.24.31.52.67.82,1.08l-.5.33h3.32V7H135l.64.28A19.46,19.46,0,0,1,134,8.92l3.74-.13c-.23-.31-.44-.59-.65-.85Zm-2.31,2.59h.73v4.35h-.73Zm1.79,0h.73v3.27c0,.3.12.45.35.45h.34c.21,0,.33-.17.39-.5s.07-.76.08-1.23a5.4,5.4,0,0,0,.74.28q-.08.83-.15,1.26a.87.87,0,0,1-.93.87h-.6c-.64,0-.95-.38-.95-1.14Z"/><rect class="cls-5" x="78.32" y="20.68" width="85.23" height="1.75"/></g></svg>