<svg xmlns="http://www.w3.org/2000/svg" viewBox="0 0 204.71 64.78"><title>OJ104440671</title><path d="M191.76,17.85h-20.5A1.1,1.1,0,0,0,170.17,19V35.7a1.09,1.09,0,0,0,1.09,1.1h5.28a3.29,3.29,0,0,0,3.21,2.27,3.37,3.37,0,0,0,0-6.74,3.29,3.29,0,0,0-3.21,2.26h-4.19v-12h18.31v12h-3.45A7.61,7.61,0,0,0,179.75,28a8.25,8.25,0,0,0-3.64.92l1,2a5.39,5.39,0,0,1,2.55-.67,5.46,5.46,0,0,1,0,10.92,5.28,5.28,0,0,1-2.55-.68l-1,2a7.4,7.4,0,0,0,3.64.92,7.61,7.61,0,0,0,7.46-6.56h4.55a1.09,1.09,0,0,0,1.09-1.1V19A1.14,1.14,0,0,0,191.76,17.85Z" fill="#008bfd" fill-rule="evenodd"/><path d="M161.7,26.59l8,4-8,4a9,9,0,0,0,0-8" fill="#505050" fill-rule="evenodd"/><path d="M7.85,22.77a4.5,4.5,0,0,0-3,5.67c.66,2.55,3,4.21,5.27,3.66a4.49,4.49,0,0,0,3-5.66C12.57,23.77,10.16,22.11,7.85,22.77Z" fill="#008bfd" fill-rule="evenodd"/><path d="M12.79,32.79c-.44,0-.88.77-1.54,1.11s-1.32.88-3.18,0S6,32.23,4.44,32.23.38,35,.38,39.11H16a12.05,12.05,0,0,0-1.1-4.21C13.77,32.79,13.23,32.79,12.79,32.79Z" fill="#008bfd" fill-rule="evenodd"/><path d="M14.19,27.84H10.07a.71.71,0,0,0-.65.66v2.85a.73.73,0,0,0,.76.66h.76v5.15a1,1,0,0,0,1,1.09,1,1,0,0,0,1-1h.21v-.66c0-.22.33-.33.33-.33V36c-.33-.11-.54-.33-.54-.44v-.32L13.1,35a3.53,3.53,0,0,0,.33-.55,2.4,2.4,0,0,1-.33-.55c-.1-.11-.1-.33-.21-.44v-.22a2.52,2.52,0,0,1,.76-1.09h.54a.71.71,0,0,0,.65-.66v-3A.63.63,0,0,0,14.19,27.84ZM11.8,37.38c0,.22,0,.33-.21.33s-.22-.22-.22-.33V32.56c0-.22.11-.33.22-.33s.21.22.21.33Zm.33-7.78a.66.66,0,0,1,0-1.32.71.71,0,0,1,.65.66A.63.63,0,0,1,12.13,29.6Z" fill="#008bfd" stroke="gray" stroke-linecap="round" stroke-linejoin="round" stroke-width="0.75" fill-rule="evenodd"/><path d="M11.57,37.68a.24.24,0,0,1-.22-.22v-5a.22.22,0,1,1,.44,0v5.1C11.79,37.68,11.68,37.68,11.57,37.68Z" fill="#fff" fill-rule="evenodd"/><ellipse cx="12.14" cy="28.92" rx="0.66" ry="0.67" fill="#fff"/><rect x="72.98" y="29.74" width="91.04" height="1.75" rx="0.76" fill="#505050"/><rect x="65.1" y="0.38" width="114.21" height="20" fill="none"/><path d="M46,50.22l-2.12,7.57H42.7l-1.53-5.45a4,4,0,0,1-.12-.78h0a3.87,3.87,0,0,1-.13.77l-1.54,5.46H38.23L36,50.22h1.08l1.54,5.72a3.34,3.34,0,0,1,.12.77h0a4.82,4.82,0,0,1,.16-.77l1.64-5.72h1L43.13,56a4.73,4.73,0,0,1,.13.72h0a3.38,3.38,0,0,1,.14-.74l1.48-5.74Z"/><path d="M51.08,55.33H47.3a1.93,1.93,0,0,0,.47,1.34,1.67,1.67,0,0,0,1.26.47,2.7,2.7,0,0,0,1.66-.58v.85a3.2,3.2,0,0,1-1.89.5A2.3,2.3,0,0,1,47,57.17,3.43,3.43,0,0,1,47,53.06a2.31,2.31,0,0,1,1.79-.8,2.1,2.1,0,0,1,1.65.68,2.79,2.79,0,0,1,.6,1.91Zm-1-.77a1.7,1.7,0,0,0-.35-1.13,1.19,1.19,0,0,0-1-.4,1.33,1.33,0,0,0-1,.43,1.93,1.93,0,0,0-.52,1.1Z"/><path d="M53.31,57v.77h-1v-8h1v3.53h0A2.17,2.17,0,0,1,56.8,53a3,3,0,0,1,.59,2,3.26,3.26,0,0,1-.67,2.17,2.19,2.19,0,0,1-1.79.81,1.76,1.76,0,0,1-1.6-.89Zm0-1.46a1.53,1.53,0,0,0,.43,1.11,1.4,1.4,0,0,0,1.06.45A1.38,1.38,0,0,0,56,56.54a2.66,2.66,0,0,0,.43-1.62,2.15,2.15,0,0,0-.4-1.37,1.32,1.32,0,0,0-1.09-.5,1.51,1.51,0,0,0-1.16.5,1.86,1.86,0,0,0-.46,1.28Z"/><path d="M65.48,49.76l.71-.38a12.48,12.48,0,0,1,.8,1.16l-.47.28h4v.74H62.87V54a7.93,7.93,0,0,1-1.42,5.17,6.57,6.57,0,0,0-.57-.67c.78-.88,1.17-2.37,1.17-4.48V50.82h4.13A11.39,11.39,0,0,0,65.48,49.76Zm-2.67,8h4.52A46.57,46.57,0,0,0,69,52.47l.85.23q-.92,3.22-1.62,5.1h2.41v.74H62.81ZM63.34,53l.74-.26c.41,1.19.8,2.51,1.18,4l-.83.25C64.13,55.7,63.76,54.37,63.34,53Zm2.36-.49.75-.22c.34,1.17.63,2.49.9,3.94l-.86.22C66.3,55.17,66,53.86,65.7,52.52Z"/><path d="M75.67,58.93v-3.1H72.82a6.27,6.27,0,0,1-1.18,3.37c-.17-.22-.36-.44-.57-.68a5.29,5.29,0,0,0,.86-2,16.23,16.23,0,0,0,.21-3V50.06h8v7.76c0,.77-.37,1.16-1.1,1.16l-1.52,0c0-.21-.08-.48-.14-.81.56,0,1,.06,1.37.06s.61-.19.61-.57v-1.8H76.45v3.1Zm-2.79-3.8h2.79V53.3H72.92A15.77,15.77,0,0,1,72.88,55.13Zm0-4.35V52.6h2.75V50.78Zm6.4,0H76.45V52.6h2.87Zm-2.87,4.35h2.87V53.3H76.45Z"/><path d="M168.9,56.37h-1.08l-.77-2.07H163.9l-.73,2.07H162.1L165,48.81h1Zm-2.15-2.93-1.14-3.14a2.86,2.86,0,0,1-.12-.53h0a2.21,2.21,0,0,1-.12.53l-1.13,3.14Z"/><path d="M171,53.54v2.83h-1V48.81h2.14a2.78,2.78,0,0,1,1.91.59,2.11,2.11,0,0,1,.67,1.69,2.27,2.27,0,0,1-.79,1.8,2.73,2.73,0,0,1-2,.65Zm0-3.87v3h.91a2,2,0,0,0,1.35-.4,1.44,1.44,0,0,0,.47-1.15c0-1-.58-1.46-1.73-1.46Z"/><path d="M177.09,48.81v7.56h-1V48.81Z"/><path d="M185.67,48.35l.72-.38a11.78,11.78,0,0,1,.8,1.16l-.48.27h4v.74h-7.6v2.4a7.92,7.92,0,0,1-1.43,5.16,6.21,6.21,0,0,0-.56-.67q1.17-1.31,1.17-4.47V49.4h4.13A10.19,10.19,0,0,0,185.67,48.35Zm-2.66,8h4.52a48.33,48.33,0,0,0,1.61-5.33l.85.24q-.92,3.21-1.62,5.09h2.41v.75H183Zm.53-4.79.74-.26q.6,1.79,1.17,4l-.83.25C184.32,54.28,184,53,183.54,51.59Zm2.35-.49.75-.21a38.51,38.51,0,0,1,.9,3.93l-.86.23A39.42,39.42,0,0,0,185.89,51.1Z"/><path d="M195.86,57.52V54.41H193a6.33,6.33,0,0,1-1.18,3.37c-.17-.21-.36-.44-.58-.67a5.33,5.33,0,0,0,.86-2,16.11,16.11,0,0,0,.21-3V48.64h8V56.4c0,.78-.36,1.17-1.1,1.17l-1.51,0c0-.22-.08-.49-.15-.81.57,0,1,.05,1.38.05s.6-.19.6-.57v-1.8h-2.87v3.11Zm-2.79-3.81h2.79V51.88h-2.74A15.73,15.73,0,0,1,193.07,53.71Zm.05-4.35v1.82h2.74V49.36Zm6.39,0h-2.87v1.82h2.87Zm-2.87,4.35h2.87V51.88h-2.87Z"/><path d="M92.23,10.41l1.25-.57V7.64H92.31V7h1.17V5.07h.72V7h1.11v.68H94.2V9.49l1-.5c0,.33,0,.59.08.78l-1,.54v3.24c0,.69-.32,1-1,1h-.76q0-.39-.12-.81l.74,0a.33.33,0,0,0,.38-.38V10.67l-1.15.6Zm3.62.36v-.69H101v.68A6.32,6.32,0,0,1,99.18,13a7.25,7.25,0,0,0,2.86.87c-.22.29-.4.55-.56.79a7.53,7.53,0,0,1-3-1.19,9.6,9.6,0,0,1-3.31,1.25,7.21,7.21,0,0,0-.47-.71,9.59,9.59,0,0,0,3.18-1,5.52,5.52,0,0,1-1.46-2.23Zm-.37-2.48h4.19c.35-.61.68-1.23,1-1.86l.75.32c-.29.53-.6,1-.92,1.54h1.27v1.5H101V9H96.22v.82h-.74Zm.2-1.82c0-.23-.08-.46-.14-.71,2.2,0,4.19-.17,6-.35l.14.7C99.64,6.27,97.65,6.39,95.68,6.47ZM96,6.9l.61-.3c.27.4.52.83.77,1.28l-.64.34A11.89,11.89,0,0,0,96,6.9Zm4.13,3.87h-2.9a4.67,4.67,0,0,0,1.36,1.82A4.88,4.88,0,0,0,100.09,10.77Zm-2.19-4,.61-.28c.28.48.52.93.72,1.33l-.67.3A14.08,14.08,0,0,0,97.9,6.73Z" fill="#00b0f0"/><path d="M102.21,11.27a11.42,11.42,0,0,0,1.5-3.41h-1.4V7.17h1.52V5.1h.75V7.17H106v.69h-1.37V9.15l.42-.39a18.14,18.14,0,0,1,1.41,1.47l-.58.55c-.44-.56-.86-1-1.25-1.46V14.7h-.75V9.35a11.22,11.22,0,0,1-1.28,2.78C102.45,11.85,102.34,11.56,102.21,11.27Zm3.55-4.8V5.74h5.55v.71a11.33,11.33,0,0,1-2.07,5.48A8,8,0,0,0,112,13.69a6.56,6.56,0,0,0-.66.81,9.68,9.68,0,0,1-2.67-1.93,11.41,11.41,0,0,1-3.11,2.16,6,6,0,0,0-.54-.74,11.07,11.07,0,0,0,3.14-2.05,10.41,10.41,0,0,1-1.83-5.47Zm4.72,0h-3.33a9.49,9.49,0,0,0,1.57,4.86A10.43,10.43,0,0,0,110.48,6.47Z" fill="#00b0f0"/><path d="M112.17,9.74a16.85,16.85,0,0,0,2.42-4.68l.78.27c-.29.76-.59,1.46-.91,2.11v7.24h-.8V8.94a16.39,16.39,0,0,1-1.15,1.68C112.42,10.36,112.3,10.06,112.17,9.74ZM115,8.46l2.31-.25c-.08-.83-.14-1.86-.16-3.1H118a28.1,28.1,0,0,0,.13,3l3.58-.39.08.72-3.58.4q.54,4,2.12,4.85c.29.12.47,0,.56-.28.12-.47.22-1,.31-1.58a7.56,7.56,0,0,0,.78.29,16.9,16.9,0,0,1-.35,1.68,1,1,0,0,1-1,.83,2.21,2.21,0,0,1-1.6-1,9.33,9.33,0,0,1-1.58-4.69l-2.28.25Zm3.89-2.57.51-.52c.57.43,1.16.92,1.76,1.45l-.6.61A18.34,18.34,0,0,0,118.9,5.89Z" fill="#00b0f0"/><path d="M122.23,10.48A10.93,10.93,0,0,0,124,6.71h-1.44V6h3.65v.73h-1.46A14.88,14.88,0,0,1,123.93,9h1.89v5.29h-.7v-.67H123.9v.8h-.69V10.34a7.54,7.54,0,0,1-.55.8A5.09,5.09,0,0,0,122.23,10.48Zm2.89-.82H123.9V13h1.22Zm1.09,1.93h4.12v.7h-4.12Zm1.57-4.88-.25,2.86h2.3l.32-3.22h-3.6v-.7H131l-.41,3.92h1c0,1.32-.11,2.47-.16,3.43s-.52,1.46-1.38,1.46l-1.47,0c0-.24-.08-.51-.14-.81a12.88,12.88,0,0,0,1.43.09c.5,0,.77-.28.81-.83q.08-1.08.12-2.61h-4.07l.3-3.56Z" fill="#00b0f0"/><path d="M132.24,8.3l.49-.57c.53.37,1.08.79,1.66,1.26l-.56.64C133.15,9,132.62,8.58,132.24,8.3Zm.31,6a30.49,30.49,0,0,0,1-3.79,8.47,8.47,0,0,0,.79.31c-.29,1.12-.61,2.37-.94,3.75Zm.07-8.58.5-.52q.72.57,1.59,1.35l-.57.58A20.5,20.5,0,0,0,132.62,5.75Zm3.1,4.36h.74a7.76,7.76,0,0,1-.4,3,3.45,3.45,0,0,1-1.62,1.61,3.54,3.54,0,0,0-.5-.64,2.84,2.84,0,0,0,1.42-1.35A6.62,6.62,0,0,0,135.72,10.11ZM140,7.53c.51.58,1.07,1.3,1.69,2.14-.24.14-.48.3-.71.45l-.47-.68c-1.6.07-3.07.14-4.41.22a3.71,3.71,0,0,0-.78.11L134.94,9a3.34,3.34,0,0,0,.68-.45A11.06,11.06,0,0,0,137.13,7H135V6.31h3.1a12.32,12.32,0,0,0-.71-1l.65-.4L138.82,6l-.51.34h3.32V7h-4.32l.65.27a20.9,20.9,0,0,1-1.7,1.64L140,8.79c-.23-.31-.44-.59-.65-.85Zm-2.31,2.58h.74v4.36h-.74Zm1.79,0h.73v3.27c0,.3.12.45.35.45h.35c.2,0,.33-.17.38-.5s.07-.76.09-1.23a6.18,6.18,0,0,0,.73.28q-.08.83-.15,1.26a.87.87,0,0,1-.93.87h-.6c-.63,0-.95-.38-.95-1.14Z" fill="#00b0f0"/><path d="M52.06,33.18a16.47,16.47,0,0,1-2-2.35,18.32,18.32,0,0,0-1.66,6.89c.11.16.11.28.23.44a13.4,13.4,0,0,0,2,2.05A14.18,14.18,0,0,1,52.06,33.18Z" fill="#008bfd" fill-rule="evenodd"/><path d="M56.67,23.75a21,21,0,0,0-3.33,3,16.41,16.41,0,0,0-1.61,2.05,15,15,0,0,0,1.9,2.47,16.84,16.84,0,0,1,2.2-2.57A27.32,27.32,0,0,1,59,26.07C58.16,25.31,57.38,24.54,56.67,23.75Z" fill="#008bfd" fill-rule="evenodd"/><path d="M68.14,23a12.55,12.55,0,0,0-1.73-1.83,12.55,12.55,0,0,0-8,1.54c.76.84,1.51,1.62,2.24,2.36C65,22.59,68.14,23,68.14,23Z" fill="#008bfd" fill-rule="evenodd"/><path d="M50.54,30.59a18.83,18.83,0,0,1,1.19-2.06,9.86,9.86,0,0,1-1.6-6.8,13.19,13.19,0,0,0-1.29,1.61C48.46,25,48.44,27.5,50.54,30.59Z" fill="#008bfd" fill-rule="evenodd"/><path d="M55.9,33.36a21.57,21.57,0,0,1-2.27-2.13,13.68,13.68,0,0,0-1.14,1.95,23.54,23.54,0,0,0,2.09,1.91,19.18,19.18,0,0,0,12.56,4.38,9,9,0,0,0,1.54-1.94C67.45,37.79,62.19,38.47,55.9,33.36Z" fill="#008bfd" fill-rule="evenodd"/><path d="M50.54,30.83a16.24,16.24,0,0,0,2,2.35,14.7,14.7,0,0,1,1.14-1.95,15,15,0,0,1-1.9-2.47A16.34,16.34,0,0,0,50.54,30.83Z" fill="#008bfd" fill-rule="evenodd"/><path d="M59,26.07a98.21,98.21,0,0,0,11.15,8.82,9.82,9.82,0,0,0,.33-1A96.8,96.8,0,0,1,60.61,25,16,16,0,0,0,59,26.07Z" fill="#008bfd" fill-rule="evenodd"/><path d="M58.38,22.65Q56.73,20.88,55,18.86a10.05,10.05,0,0,0-1.59.66,26.74,26.74,0,0,0,3.24,4.22A15.69,15.69,0,0,1,58.38,22.65Z" fill="#008bfd" fill-rule="evenodd"/><path d="M58.45,22.62a18.74,18.74,0,0,0-1.87,1.19c.72.78,1.45,1.59,2.25,2.35.57-.4,1.34-.89,1.87-1.19C60,24.24,59.21,23.46,58.45,22.62Z" fill="#008bfd" fill-rule="evenodd"/><path d="M58.25,22.51a14.89,14.89,0,0,0-1.67,1.13c.72.79,1.74,1.81,2.54,2.57.57-.4,1.05-.81,1.58-1.11C60,24.37,59,23.35,58.25,22.51Z" fill="#008bfd" fill-rule="evenodd"/><path d="M64.3,29.07a2.7,2.7,0,0,0-.48,3.7,2.55,2.55,0,0,0,3.63.5,2.71,2.71,0,0,0,.48-3.71A2.54,2.54,0,0,0,64.3,29.07Z" fill="#008bfd" fill-rule="evenodd"/><path d="M49.18,35.81A2.52,2.52,0,0,0,49,39.27a2.38,2.38,0,0,0,3.39.18A2.51,2.51,0,0,0,52.56,36,2.35,2.35,0,0,0,49.18,35.81Z" fill="#008bfd" fill-rule="evenodd"/><path d="M50,27.87a3.79,3.79,0,0,0-.68,5.21,3.58,3.58,0,0,0,5.1.7,3.8,3.8,0,0,0,.67-5.23A3.58,3.58,0,0,0,50,27.87Z" fill="#008bfd" fill-rule="evenodd"/><path d="M66,40.41a11.81,11.81,0,0,1-16.84-2.29,12.55,12.55,0,0,1,2.24-17.29,11.72,11.72,0,0,1,7.29-2.54,11.89,11.89,0,0,1,9.55,4.84A12.54,12.54,0,0,1,66,40.41ZM69.69,22a13.57,13.57,0,0,0-19.36-2.64,14.45,14.45,0,0,0-2.55,19.88,13.65,13.65,0,0,0,11,5.55,13.45,13.45,0,0,0,8.39-2.92A14.44,14.44,0,0,0,69.69,22Z" fill="#008bfd" fill-rule="evenodd"/></svg>