<svg xmlns="http://www.w3.org/2000/svg" viewBox="0 0 205.55 55.68"><title>OJ104546506</title><path d="M16,9.82.12,21.25,6.2,39.73H25.86l6.08-18.48Z" fill="#fff" stroke="#000" stroke-linecap="round" stroke-linejoin="round" stroke-width="0.24"/><path d="M15.7,16.94a4.49,4.49,0,0,0-3,5.66c.66,2.55,3,4.22,5.27,3.67a4.5,4.5,0,0,0,3-5.67C20.42,17.94,18,16.27,15.7,16.94Z" fill="#008bfd"/><path d="M20.64,27c-.44,0-.88.78-1.54,1.11s-1.32.89-3.18,0-2.09-1.66-3.63-1.66-4.06,2.77-4.06,6.88H23.82a12.09,12.09,0,0,0-1.1-4.22C21.62,27,21.08,27,20.64,27Z" fill="#008bfd"/><path d="M22.05,22H17.93a.71.71,0,0,0-.65.66v2.85a.72.72,0,0,0,.76.65h.76v5.15a1,1,0,0,0,1,1.1,1,1,0,0,0,1-1H21v-.65c0-.22.33-.33.33-.33v-.33c-.33-.11-.54-.33-.54-.44v-.33l.21-.22a3.55,3.55,0,0,0,.33-.54A2.4,2.4,0,0,1,21,28c-.1-.11-.1-.33-.21-.44v-.22a2.51,2.51,0,0,1,.76-1.1h.54a.7.7,0,0,0,.65-.65v-3A.63.63,0,0,0,22.05,22Zm-2.39,9.53c0,.22,0,.33-.21.33s-.22-.22-.22-.33V26.72c0-.22.11-.33.22-.33s.21.22.21.33ZM20,23.76a.69.69,0,0,1-.65-.65.7.7,0,0,1,.65-.66.71.71,0,0,1,.65.66A.62.62,0,0,1,20,23.76Z" fill="#008bfd" stroke="gray" stroke-linecap="round" stroke-linejoin="round" stroke-width="0.75"/><path d="M19.43,31.85a.24.24,0,0,1-.22-.22v-5a.22.22,0,0,1,.44,0v5.11C19.65,31.85,19.54,31.85,19.43,31.85Z" fill="#fff"/><ellipse cx="20" cy="23.09" rx="0.66" ry="0.67" fill="#fff"/><path d="M192.6,8.81H172.1A1.09,1.09,0,0,0,171,9.91V26.65a1.1,1.1,0,0,0,1.09,1.11h5.28A3.29,3.29,0,0,0,180.59,30a3.38,3.38,0,0,0,0-6.75,3.29,3.29,0,0,0-3.21,2.27h-4.19v-12H191.5v12h-3.45A7.61,7.61,0,0,0,180.59,19a8.25,8.25,0,0,0-3.64.92l1,2a5.27,5.27,0,0,1,2.55-.67,5.46,5.46,0,0,1,0,10.91,5.27,5.27,0,0,1-2.55-.67l-1,2a7.51,7.51,0,0,0,3.64.92,7.61,7.61,0,0,0,7.46-6.56h4.55a1.1,1.1,0,0,0,1.09-1.11V9.91A1.14,1.14,0,0,0,192.6,8.81Z" fill="#008bfd"/><g style="isolation:isolate"><path d="M169.74,47.32h-1.07l-.78-2.08h-3.15L164,47.32h-1.08l2.88-7.57h1Zm-2.15-2.93-1.14-3.14a2.86,2.86,0,0,1-.12-.53h0a2.92,2.92,0,0,1-.13.53l-1.13,3.14Z" fill="#008bfd"/><path d="M171.81,44.49v2.83h-1V39.75H173a2.82,2.82,0,0,1,1.9.59,2.14,2.14,0,0,1,.67,1.69,2.29,2.29,0,0,1-.79,1.81,2.75,2.75,0,0,1-2,.65Zm0-3.88v3h.91a2.08,2.08,0,0,0,1.36-.4,1.49,1.49,0,0,0,.46-1.16c0-1-.58-1.46-1.73-1.46Z" fill="#008bfd"/><path d="M177.93,39.75v7.57h-1V39.75Z" fill="#008bfd"/><path d="M186.52,39.29l.71-.38a12.48,12.48,0,0,1,.8,1.16l-.47.28h4v.74h-7.61v2.39a7.93,7.93,0,0,1-1.43,5.17,6.25,6.25,0,0,0-.56-.68q1.17-1.3,1.17-4.47V40.35h4.13C187,40,186.77,39.64,186.52,39.29Zm-2.67,8h4.52A46.86,46.86,0,0,0,190,42l.85.23q-.92,3.23-1.62,5.1h2.41v.74h-7.77Zm.53-4.8.74-.25c.4,1.19.79,2.51,1.17,4l-.83.25Q185,44.58,184.38,42.53Zm2.35-.48.75-.22a38.73,38.73,0,0,1,.9,3.94l-.86.22A39.24,39.24,0,0,0,186.73,42.05Z" fill="#008bfd"/><path d="M196.7,48.46v-3.1h-2.84a6.3,6.3,0,0,1-1.18,3.37c-.17-.22-.36-.44-.58-.68a5.13,5.13,0,0,0,.86-2,16.07,16.07,0,0,0,.22-3V39.59h8v7.76c0,.77-.37,1.16-1.11,1.16l-1.51,0q0-.31-.15-.81.85.06,1.38.06c.4,0,.6-.19.6-.58V45.36h-2.87v3.1Zm-2.79-3.81h2.79V42.83H194A15.49,15.49,0,0,1,193.91,44.65Zm.05-4.34v1.81h2.74V40.31Zm6.39,0h-2.87v1.81h2.87Zm-2.87,4.34h2.87V42.83h-2.87Z" fill="#008bfd"/></g><g style="isolation:isolate"><path d="M106,9.75a16.63,16.63,0,0,0,2.41-4.69l.78.27c-.29.76-.59,1.47-.9,2.12v7.24h-.81V9a14.93,14.93,0,0,1-1.15,1.68C106.23,10.36,106.12,10.07,106,9.75Zm2.83-1.28,2.31-.26c-.08-.82-.13-1.85-.16-3.09h.85c0,1,0,2,.12,3l3.58-.4.09.73L112,8.85c.37,2.7,1.08,4.31,2.12,4.85a.37.37,0,0,0,.56-.28,13.64,13.64,0,0,0,.31-1.57c.28.11.54.21.78.28a12.64,12.64,0,0,1-.35,1.68,1,1,0,0,1-1,.83,2.19,2.19,0,0,1-1.6-1,9.24,9.24,0,0,1-1.58-4.69l-2.28.25Zm3.9-2.58.51-.52c.57.44,1.15.92,1.75,1.46l-.59.6A21.59,21.59,0,0,0,112.72,5.89Z" fill="#00b0f0"/><path d="M124.55,10.42l.54.67-2.18,1.1a6.11,6.11,0,0,0,2.88,1.24,6.76,6.76,0,0,0-.55.78,6.35,6.35,0,0,1-4.52-3.87,9.14,9.14,0,0,1-1.14,1.2v2.09c.86-.28,1.66-.57,2.4-.88a8,8,0,0,0,0,.85c-.78.27-1.59.56-2.43.88a4.09,4.09,0,0,0-.51.26l-.46-.72a.63.63,0,0,0,.27-.54V12.13a13.37,13.37,0,0,1-2.29,1.38,6.23,6.23,0,0,0-.5-.68,9.88,9.88,0,0,0,4-2.77h-3.85V9.39h4.37v-1h-3.68V7.72h3.68v-1h-4.07V6.08h4.07V5h.77V6.08h4.09v.68h-4.09v1H125v.67h-3.67v1h4.37v.67h-4.34a5.81,5.81,0,0,0,1.05,1.65A19,19,0,0,0,124.55,10.42Z" fill="#00b0f0"/><path d="M126.06,8.3l.49-.57c.52.37,1.08.79,1.66,1.26-.24.28-.43.49-.57.64C127,9,126.44,8.58,126.06,8.3Zm.3,6a32.83,32.83,0,0,0,1-3.79c.28.12.55.22.79.3-.29,1.13-.61,2.38-.95,3.75Zm.08-8.59.5-.52q.7.57,1.59,1.35l-.58.58A20.51,20.51,0,0,0,126.44,5.75Zm3.1,4.37h.74a8,8,0,0,1-.4,3,3.49,3.49,0,0,1-1.62,1.61,4.14,4.14,0,0,0-.5-.65,2.81,2.81,0,0,0,1.41-1.35A6.52,6.52,0,0,0,129.54,10.12Zm4.22-2.59c.51.59,1.07,1.3,1.69,2.14l-.7.46-.47-.69-4.41.22a3.81,3.81,0,0,0-.78.12L128.75,9a3.71,3.71,0,0,0,.69-.45A11.6,11.6,0,0,0,130.94,7h-2.17V6.31h3.1c-.24-.38-.48-.72-.7-1l.64-.4L132.63,6l-.51.33h3.32V7h-4.31l.64.28a19.46,19.46,0,0,1-1.7,1.64l3.74-.13-.65-.85Zm-2.3,2.59h.73v4.35h-.73Zm1.79,0H134v3.27c0,.3.12.45.35.45h.34c.2,0,.33-.17.38-.5a10.38,10.38,0,0,0,.09-1.23,5.26,5.26,0,0,0,.73.28c0,.55-.09,1-.14,1.26a.87.87,0,0,1-.93.87h-.61c-.63,0-.94-.38-.94-1.14Z" fill="#00b0f0"/></g><path d="M77.23,9.3H56.73a1.09,1.09,0,0,0-1.09,1.1V27.14a1.1,1.1,0,0,0,1.09,1.11H62a3.29,3.29,0,0,0,3.21,2.27,3.38,3.38,0,0,0,0-6.75A3.29,3.29,0,0,0,62,26H57.82v-12H76.13V26H72.68a7.61,7.61,0,0,0-7.46-6.56,8.25,8.25,0,0,0-3.64.92l1,2a5.27,5.27,0,0,1,2.55-.67,5.46,5.46,0,0,1,0,10.91,5.27,5.27,0,0,1-2.55-.67l-1,2a7.51,7.51,0,0,0,3.64.92,7.61,7.61,0,0,0,7.46-6.56h4.55a1.1,1.1,0,0,0,1.09-1.11V10.4A1.14,1.14,0,0,0,77.23,9.3Z" fill="#008bfd"/><g style="isolation:isolate"><path d="M54.37,47.81H53.29l-.77-2.07H49.37l-.73,2.07H47.56l2.88-7.57h1.05Zm-2.15-2.93-1.15-3.14a4.52,4.52,0,0,1-.11-.53h0a3,3,0,0,1-.12.53l-1.13,3.14Z" fill="#008bfd"/><path d="M56.44,45v2.83h-1V40.24h2.15a2.81,2.81,0,0,1,1.9.59,2.14,2.14,0,0,1,.68,1.69,2.27,2.27,0,0,1-.79,1.81,2.75,2.75,0,0,1-2,.65Zm0-3.88v3h.9a2.06,2.06,0,0,0,1.36-.4,1.46,1.46,0,0,0,.46-1.16c0-1-.57-1.46-1.72-1.46Z" fill="#008bfd"/><path d="M62.56,40.24v7.57h-1V40.24Z" fill="#008bfd"/><path d="M71.14,39.78l.71-.38a13.35,13.35,0,0,1,.81,1.17l-.48.27h4v.74H68.53V44a7.93,7.93,0,0,1-1.42,5.17,6.57,6.57,0,0,0-.57-.67c.78-.88,1.17-2.37,1.17-4.48V40.84h4.13A11.39,11.39,0,0,0,71.14,39.78Zm-2.66,8H73a46.57,46.57,0,0,0,1.62-5.33l.85.23q-.92,3.22-1.62,5.1h2.41v.74H68.48ZM69,43l.75-.26c.4,1.19.79,2.51,1.17,4l-.83.25C69.79,45.72,69.43,44.39,69,43Zm2.36-.49.75-.22a38.73,38.73,0,0,1,.9,3.94l-.86.22C72,45.19,71.69,43.88,71.36,42.54Z" fill="#008bfd"/><path d="M81.33,49v-3.1H78.49a6.36,6.36,0,0,1-1.19,3.37c-.17-.22-.36-.44-.57-.68a5.29,5.29,0,0,0,.86-2,16.23,16.23,0,0,0,.21-3V40.08h8v7.76c0,.77-.37,1.16-1.1,1.16l-1.52,0c0-.21-.08-.48-.14-.81.56,0,1,.06,1.37.06S85,48,85,47.65v-1.8H82.11V49Zm-2.79-3.8h2.79V43.32H78.58A15.77,15.77,0,0,1,78.54,45.15Zm0-4.35v1.82h2.75V40.8Zm6.4,0H82.11v1.82H85Zm-2.87,4.35H85V43.32H82.11Z" fill="#008bfd"/></g><path d="M162.52,17.59l8.06,4-7.94,4a9,9,0,0,0-.06-8" fill="#505050"/><line x1="78.32" y1="21.56" x2="163.55" y2="21.56" fill="none" stroke="#505050" stroke-miterlimit="10"/></svg>