<svg xmlns="http://www.w3.org/2000/svg" viewBox="0 0 204.71 64.78"><title>OJ104440671</title><path d="M66,40.4a11.81,11.81,0,0,1-16.84-2.29,12.56,12.56,0,0,1,2.24-17.29,11.82,11.82,0,0,1,16.84,2.3A12.54,12.54,0,0,1,66,40.4ZM69.69,22a13.57,13.57,0,0,0-19.36-2.63,14.43,14.43,0,0,0-2.55,19.87,13.62,13.62,0,0,0,11,5.55,13.45,13.45,0,0,0,8.39-2.92A14.44,14.44,0,0,0,69.69,22Z" fill="#008bfd"/><path d="M52.06,33.18a17,17,0,0,1-2-2.35,18.28,18.28,0,0,0-1.66,6.88c.11.16.11.29.23.44a12.55,12.55,0,0,0,2,2.05A14.13,14.13,0,0,1,52.06,33.18Z" fill="#008bfd"/><path d="M56.67,23.74a21,21,0,0,0-3.33,3,15.71,15.71,0,0,0-1.61,2.05,15.42,15.42,0,0,0,1.9,2.46,16.32,16.32,0,0,1,2.2-2.56A26.47,26.47,0,0,1,59,26.06C58.16,25.3,57.38,24.53,56.67,23.74Z" fill="#008bfd"/><path d="M68.14,22.94a12,12,0,0,0-1.73-1.82,12.53,12.53,0,0,0-8,1.53c.76.84,1.51,1.63,2.24,2.36C65,22.58,68.14,22.94,68.14,22.94Z" fill="#008bfd"/><path d="M50.34,31a19.82,19.82,0,0,1,1.19-2.06,9.84,9.84,0,0,1-1.6-6.79,13.09,13.09,0,0,0-1.29,1.6C48.26,25.33,48.24,27.89,50.34,31Z" fill="#008bfd"/><path d="M55.9,33.36a21.6,21.6,0,0,1-2.27-2.14,14.25,14.25,0,0,0-1.14,2,23.54,23.54,0,0,0,2.09,1.91,19.12,19.12,0,0,0,12.56,4.38,9,9,0,0,0,1.54-1.94C67.45,37.78,62.19,38.47,55.9,33.36Z" fill="#008bfd"/><path d="M50.54,30.82a15.72,15.72,0,0,0,2,2.35,15.36,15.36,0,0,1,1.14-2,15.42,15.42,0,0,1-1.9-2.46A15.58,15.58,0,0,0,50.54,30.82Z" fill="#008bfd"/><path d="M59,26.06a97,97,0,0,0,11.15,8.82,9.82,9.82,0,0,0,.33-1.05A95.51,95.51,0,0,1,60.61,25Q59.82,25.46,59,26.06Z" fill="#008bfd"/><path d="M58.38,22.65q-1.65-1.77-3.36-3.8a10.05,10.05,0,0,0-1.59.66,26.3,26.3,0,0,0,3.24,4.22A17.22,17.22,0,0,1,58.38,22.65Z" fill="#008bfd"/><path d="M58.45,22.61a18.74,18.74,0,0,0-1.87,1.19c.72.78,1.45,1.59,2.25,2.35.57-.4,1.34-.88,1.87-1.18C60,24.24,59.21,23.45,58.45,22.61Z" fill="#008bfd"/><path d="M58.25,22.51a16.24,16.24,0,0,0-1.67,1.12c.72.79,1.74,1.81,2.54,2.57.57-.4,1.05-.8,1.58-1.11C60,24.37,59,23.34,58.25,22.51Z" fill="#008bfd"/><path d="M64.3,29.06a2.7,2.7,0,0,0-.48,3.7,2.56,2.56,0,0,0,3.63.51,2.72,2.72,0,0,0,.48-3.72A2.55,2.55,0,0,0,64.3,29.06Z" fill="#008bfd"/><path d="M59.13,35.19a2.52,2.52,0,0,0-.45,3.44,2.37,2.37,0,0,0,3.36.45,2.49,2.49,0,0,0,.44-3.43A2.36,2.36,0,0,0,59.13,35.19Z" fill="#008bfd"/><path d="M50,27.86a3.79,3.79,0,0,0-.68,5.21,3.58,3.58,0,0,0,5.1.7,3.8,3.8,0,0,0,.67-5.23A3.59,3.59,0,0,0,50,27.86Z" fill="#008bfd"/><g style="isolation:isolate"><path d="M46.22,50.22,44.1,57.79H43l-1.52-5.45a4,4,0,0,1-.13-.78h0a3.87,3.87,0,0,1-.13.77l-1.54,5.46H38.49L36.3,50.22h1.08l1.54,5.72a3.34,3.34,0,0,1,.12.77h0a4.82,4.82,0,0,1,.16-.77l1.64-5.72h1L43.39,56a3.75,3.75,0,0,1,.13.72h0a4.1,4.1,0,0,1,.14-.74l1.49-5.74Z" fill="#008bfd"/><path d="M51.34,55.33H47.56A1.93,1.93,0,0,0,48,56.67a1.67,1.67,0,0,0,1.26.47A2.7,2.7,0,0,0,51,56.56v.85a3.16,3.16,0,0,1-1.89.5,2.3,2.3,0,0,1-1.83-.74,3,3,0,0,1-.65-2.06,2.92,2.92,0,0,1,.72-2,2.29,2.29,0,0,1,1.79-.81,2.08,2.08,0,0,1,1.65.68,2.79,2.79,0,0,1,.6,1.91Zm-1-.77A1.7,1.7,0,0,0,50,53.43a1.16,1.16,0,0,0-1-.4,1.33,1.33,0,0,0-1,.43,2,2,0,0,0-.52,1.1Z" fill="#008bfd"/><path d="M53.57,57v.77h-1v-8h1v3.53h0A2.17,2.17,0,0,1,57.06,53a3,3,0,0,1,.6,2A3.31,3.31,0,0,1,57,57.11a2.21,2.21,0,0,1-1.78.8A1.77,1.77,0,0,1,53.59,57Zm0-1.45a1.57,1.57,0,0,0,.43,1.1,1.5,1.5,0,0,0,2.26-.13,2.74,2.74,0,0,0,.42-1.62,2.1,2.1,0,0,0-.4-1.36,1.3,1.3,0,0,0-1.09-.51,1.52,1.52,0,0,0-1.16.5,1.88,1.88,0,0,0-.46,1.28Z" fill="#008bfd"/><path d="M65.74,49.76l.72-.38c.27.36.54.75.8,1.17l-.48.27h4v.74H63.13V54a7.93,7.93,0,0,1-1.42,5.17,6.57,6.57,0,0,0-.57-.67c.78-.88,1.17-2.37,1.17-4.48V50.82h4.14C66.23,50.46,66,50.11,65.74,49.76Zm-2.66,8h4.51a46,46,0,0,0,1.62-5.33l.85.23q-.91,3.22-1.62,5.1h2.41v.74H63.08ZM63.6,53l.75-.26q.6,1.78,1.17,4l-.83.25C64.39,55.7,64,54.37,63.6,53ZM66,52.52l.75-.22a39.36,39.36,0,0,1,.9,3.94l-.86.22A39.24,39.24,0,0,0,66,52.52Z" fill="#008bfd"/><path d="M75.93,58.93v-3.1H73.09A6.28,6.28,0,0,1,71.9,59.2c-.17-.22-.36-.44-.57-.68a5.22,5.22,0,0,0,.86-2,16.23,16.23,0,0,0,.21-3V50.06h8v7.76c0,.78-.37,1.16-1.1,1.16l-1.52,0c0-.21-.08-.48-.14-.81.56,0,1,.06,1.37.06s.61-.19.61-.57v-1.8H76.71v3.1Zm-2.79-3.8h2.79V53.3H73.18A15.77,15.77,0,0,1,73.14,55.13Zm0-4.35V52.6h2.75V50.78Zm6.4,0H76.71V52.6h2.87Zm-2.87,4.35h2.87V53.3H76.71Z" fill="#008bfd"/></g><rect x="65.1" y="0.37" width="114.21" height="20" fill="none"/><g style="isolation:isolate"><path d="M92.73,10.41,94,9.84V7.64H92.81V7H94V5.07h.71V7H95.8v.68H94.69V9.49l1-.5a5.9,5.9,0,0,0,.08.78l-1.06.54v3.24c0,.68-.32,1-1,1H93a6.1,6.1,0,0,0-.12-.81c.32,0,.56,0,.75,0a.34.34,0,0,0,.38-.38V10.67l-1.15.6Zm3.61.36v-.69h5.12v.68A6.55,6.55,0,0,1,99.68,13a7.25,7.25,0,0,0,2.85.87c-.21.29-.4.55-.55.79a7.64,7.64,0,0,1-3-1.19,9.62,9.62,0,0,1-3.3,1.25c-.13-.22-.29-.46-.47-.71a9.85,9.85,0,0,0,3.17-1,5.63,5.63,0,0,1-1.46-2.23ZM96,8.29h4.2c.35-.61.67-1.23,1-1.86l.75.32c-.3.52-.6,1-.93,1.54h1.28v1.5h-.74V9H96.71v.82H96Zm.2-1.82c0-.23-.08-.46-.13-.71,2.19,0,4.19-.17,6-.35l.14.7Q99.13,6.35,96.17,6.47Zm.29.43.6-.3a14.45,14.45,0,0,1,.77,1.28l-.64.34A10.43,10.43,0,0,0,96.46,6.9Zm4.13,3.87h-2.9a4.58,4.58,0,0,0,1.36,1.82A5,5,0,0,0,100.59,10.77Zm-2.2-4L99,6.45c.28.48.51.93.71,1.33l-.66.3C98.85,7.61,98.63,7.15,98.39,6.73Z" fill="#00b0f0"/><path d="M102.71,11.27a11.77,11.77,0,0,0,1.49-3.41h-1.39V7.17h1.52V5.1h.74V7.17h1.38v.69h-1.38V9.15l.42-.39a16.85,16.85,0,0,1,1.42,1.47l-.59.55a18,18,0,0,0-1.25-1.46V14.7h-.74V9.35A10.88,10.88,0,0,1,103,12.13,8.38,8.38,0,0,0,102.71,11.27Zm3.54-4.8V5.74h5.55v.71a11.33,11.33,0,0,1-2.07,5.48,8,8,0,0,0,2.79,1.76,5.6,5.6,0,0,0-.65.81,10.11,10.11,0,0,1-2.68-1.93,11.35,11.35,0,0,1-3.1,2.16,7.39,7.39,0,0,0-.55-.74,11.07,11.07,0,0,0,3.14-2.05,10.32,10.32,0,0,1-1.82-5.47Zm4.72,0h-3.33a9.42,9.42,0,0,0,1.57,4.85A10.23,10.23,0,0,0,111,6.47Z" fill="#00b0f0"/><path d="M112.67,9.74a16.83,16.83,0,0,0,2.41-4.68l.78.27c-.29.76-.59,1.46-.91,2.11v7.24h-.8V8.94A14.93,14.93,0,0,1,113,10.62C112.91,10.36,112.8,10.06,112.67,9.74Zm2.83-1.28,2.31-.25c-.08-.83-.13-1.86-.16-3.1h.85c0,1,0,2,.12,3l3.58-.39.09.72-3.59.4q.55,4,2.12,4.85c.29.12.48,0,.56-.29a13.22,13.22,0,0,0,.31-1.57c.28.12.54.21.78.29a12.64,12.64,0,0,1-.35,1.68,1,1,0,0,1-1,.83,2.19,2.19,0,0,1-1.6-1,9.24,9.24,0,0,1-1.58-4.69l-2.28.25Zm3.9-2.57.51-.52c.57.43,1.15.92,1.75,1.45l-.59.61A21.43,21.43,0,0,0,119.4,5.89Z" fill="#00b0f0"/><path d="M122.73,10.48a11,11,0,0,0,1.72-3.77H123V6h3.65v.73H125.2A13.29,13.29,0,0,1,124.42,9h1.89v5.29h-.69v-.67H124.4v.8h-.7V10.34a9.31,9.31,0,0,1-.54.8A6.44,6.44,0,0,0,122.73,10.48Zm2.89-.83H124.4V13h1.22Zm1.08,1.94h4.12v.7H126.7Zm1.57-4.88L128,9.57h2.3l.33-3.22H127v-.7h4.43l-.41,3.92h1C132,10.89,132,12,131.94,13s-.52,1.46-1.39,1.46l-1.47,0c0-.24-.08-.51-.13-.81a12.72,12.72,0,0,0,1.42.09c.51,0,.78-.28.81-.83.06-.73.1-1.59.12-2.61h-4.07l.3-3.56Z" fill="#00b0f0"/><path d="M132.74,8.3l.49-.57c.52.37,1.08.79,1.66,1.26l-.57.64C133.64,9,133.12,8.58,132.74,8.3Zm.3,6a32.29,32.29,0,0,0,1-3.79,7.51,7.51,0,0,0,.79.31c-.3,1.12-.61,2.37-.95,3.75Zm.08-8.58.5-.52q.7.57,1.59,1.35l-.58.57C134.09,6.61,133.59,6.14,133.12,5.75Zm3.09,4.36H137a8,8,0,0,1-.4,3,3.43,3.43,0,0,1-1.63,1.61,3.5,3.5,0,0,0-.49-.64,2.81,2.81,0,0,0,1.41-1.35A6.62,6.62,0,0,0,136.21,10.11Zm4.23-2.58c.51.58,1.07,1.29,1.69,2.13l-.7.46L141,9.44l-4.41.21a4.92,4.92,0,0,0-.79.12L135.43,9a3.71,3.71,0,0,0,.69-.45A11.6,11.6,0,0,0,137.62,7h-2.17V6.31h3.1a10.28,10.28,0,0,0-.71-1l.65-.4c.24.3.51.66.82,1.07l-.51.34h3.32V7h-4.31l.64.27a19.39,19.39,0,0,1-1.7,1.64l3.74-.12-.65-.85Zm-2.3,2.58h.73v4.36h-.73Zm1.78,0h.74v3.28c0,.3.11.45.35.45h.34c.2,0,.33-.17.38-.5a10.38,10.38,0,0,0,.09-1.23,6.93,6.93,0,0,0,.73.28c0,.55-.09,1-.14,1.26a.87.87,0,0,1-.93.87h-.61c-.63,0-1-.38-1-1.14Z" fill="#00b0f0"/></g><path d="M191.76,17.85h-20.5A1.1,1.1,0,0,0,170.17,19V35.7a1.09,1.09,0,0,0,1.09,1.1h5.28a3.29,3.29,0,0,0,3.21,2.27,3.37,3.37,0,0,0,0-6.74,3.29,3.29,0,0,0-3.21,2.26h-4.19v-12h18.31v12h-3.45A7.61,7.61,0,0,0,179.75,28a8.25,8.25,0,0,0-3.64.92l1,2a5.39,5.39,0,0,1,2.55-.67,5.46,5.46,0,0,1,0,10.92,5.28,5.28,0,0,1-2.55-.68l-1,2a7.4,7.4,0,0,0,3.64.92,7.61,7.61,0,0,0,7.46-6.56h4.55a1.09,1.09,0,0,0,1.09-1.1V19A1.14,1.14,0,0,0,191.76,17.85Z" fill="#008bfd"/><g style="isolation:isolate"><path d="M169.45,56.37h-1.08l-.77-2.07h-3.15l-.73,2.07h-1.08l2.88-7.56h1Zm-2.16-2.93-1.14-3.14a4.52,4.52,0,0,1-.11-.53h0a4,4,0,0,1-.12.53l-1.13,3.14Z" fill="#008bfd"/><path d="M171.52,53.54v2.83h-1V48.81h2.15a2.76,2.76,0,0,1,1.9.59,2.11,2.11,0,0,1,.68,1.69,2.3,2.3,0,0,1-.79,1.8,2.75,2.75,0,0,1-2,.65Zm0-3.88v3h.9a2,2,0,0,0,1.36-.4,1.44,1.44,0,0,0,.46-1.16c0-1-.57-1.46-1.73-1.46Z" fill="#008bfd"/><path d="M177.64,48.81v7.56h-1V48.81Z" fill="#008bfd"/><path d="M186.22,48.35l.71-.38a10.28,10.28,0,0,1,.8,1.16l-.47.27h4v.74h-7.61v2.4a7.92,7.92,0,0,1-1.42,5.16,7.87,7.87,0,0,0-.57-.67c.78-.87,1.17-2.37,1.17-4.47V49.4h4.13A10.08,10.08,0,0,0,186.22,48.35Zm-2.67,8h4.52a46,46,0,0,0,1.62-5.33l.85.24q-.91,3.21-1.62,5.09h2.41v.75h-7.78Zm.53-4.79.74-.26c.41,1.19.8,2.52,1.18,4l-.83.25C184.87,54.28,184.5,53,184.08,51.59Zm2.36-.49.75-.21a38.51,38.51,0,0,1,.9,3.93l-.86.23C187,53.76,186.77,52.44,186.44,51.1Z" fill="#008bfd"/><path d="M196.41,57.52V54.41h-2.85a6.24,6.24,0,0,1-1.18,3.37c-.17-.21-.36-.44-.57-.67a5.33,5.33,0,0,0,.86-2,16.19,16.19,0,0,0,.21-3V48.64h8V56.4c0,.78-.37,1.17-1.1,1.17l-1.52,0c0-.22-.08-.49-.14-.81.56,0,1,.05,1.37.05s.61-.19.61-.57v-1.8h-2.87v3.11Zm-2.79-3.81h2.79V51.88h-2.75A15.77,15.77,0,0,1,193.62,53.71Zm0-4.35v1.82h2.75V49.36Zm6.4,0h-2.87v1.82h2.87Zm-2.87,4.35h2.87V51.88h-2.87Z" fill="#008bfd"/></g><path d="M161.7,26.59l8,4-8,4a9,9,0,0,0,0-8" fill="#505050"/><path d="M7.85,22.77a4.5,4.5,0,0,0-3,5.67c.66,2.55,3,4.21,5.27,3.66a4.49,4.49,0,0,0,3-5.66C12.57,23.77,10.16,22.11,7.85,22.77Z" fill="#008bfd"/><path d="M12.79,32.79c-.44,0-.88.77-1.54,1.11s-1.32.88-3.18,0S6,32.23,4.44,32.23.38,35,.38,39.11H16a12.05,12.05,0,0,0-1.1-4.21C13.77,32.79,13.23,32.79,12.79,32.79Z" fill="#008bfd"/><path d="M14.19,27.84H10.07a.71.71,0,0,0-.65.66v2.85a.73.73,0,0,0,.76.66h.76v5.15a1,1,0,0,0,1,1.09,1,1,0,0,0,1-1h.21v-.66c0-.22.33-.33.33-.33V36c-.33-.11-.54-.33-.54-.44v-.32L13.1,35a3.53,3.53,0,0,0,.33-.55,2.4,2.4,0,0,1-.33-.55c-.1-.11-.1-.33-.21-.44v-.22a2.52,2.52,0,0,1,.76-1.09h.54a.71.71,0,0,0,.65-.66v-3A.63.63,0,0,0,14.19,27.84ZM11.8,37.38c0,.22,0,.33-.21.33s-.22-.22-.22-.33V32.56c0-.22.11-.33.22-.33s.21.22.21.33Zm.33-7.78a.66.66,0,0,1,0-1.32.71.71,0,0,1,.65.66A.63.63,0,0,1,12.13,29.6Z" fill="#008bfd" stroke="gray" stroke-linecap="round" stroke-linejoin="round" stroke-width="0.75"/><path d="M11.57,37.68a.24.24,0,0,1-.22-.22v-5a.22.22,0,1,1,.44,0v5.1C11.79,37.68,11.68,37.68,11.57,37.68Z" fill="#fff"/><ellipse cx="12.14" cy="28.92" rx="0.66" ry="0.67" fill="#fff"/><line x1="162.7" y1="30.61" x2="72.52" y2="30.61" fill="none" stroke="#505050" stroke-miterlimit="10"/></svg>