<?xml version="1.0" encoding="utf-8"?>
<!-- Generator: Adobe Illustrator 23.0.1, SVG Export Plug-In . SVG Version: 6.00 Build 0)  -->
<svg version="1.1" xmlns="http://www.w3.org/2000/svg" xmlns:xlink="http://www.w3.org/1999/xlink" x="0px" y="0px"
	 viewBox="0 0 247.3 64.5" style="enable-background:new 0 0 247.3 64.5;" xml:space="preserve">
<style type="text/css">
	.st0{fill-rule:evenodd;clip-rule:evenodd;fill:#008BFD;}
	.st1{display:none;}
	.st2{display:inline;enable-background:new    ;}
	.st3{display:none;enable-background:new    ;}
	.st4{display:inline;}
	
		.st5{fill-rule:evenodd;clip-rule:evenodd;fill:#008BFD;stroke:#808080;stroke-width:0.75;stroke-linecap:round;stroke-linejoin:round;stroke-miterlimit:3;}
	.st6{fill-rule:evenodd;clip-rule:evenodd;fill:#FFFFFF;}
	.st7{fill-rule:evenodd;clip-rule:evenodd;fill:#505050;}
	.st8{fill:#505050;}
	.st9{enable-background:new    ;}
	.st10{fill:none;}
	.st11{fill:#00B0F0;}
</style>
<g id="shapes" xmlns:ev="http://www.w3.org/2001/xml-events" xmlns:v="http://schemas.microsoft.com/visio/2003/SVGExtensions/">
	<g id="group1549-1_1_" transform="translate(43.141,-20.0036)">
		<g id="group1550-2_1_">
			<g id="shape1551-3_1_">
				<path class="st0" d="M16.9,60.1c-2.2,1.7-4.8,2.5-7.3,2.5c-3.6,0-7.2-1.7-9.6-4.8c-4-5.4-3-13.1,2.2-17.3C4.5,38.9,7,38,9.6,38
					c3.6,0,7.2,1.7,9.5,4.8C23.2,48.3,22.2,56,16.9,60.1z M20.5,41.7c-2.7-3.6-6.8-5.5-11-5.5c-2.9,0-5.9,1-8.4,2.9
					C-4.9,43.9-6,52.8-1.4,59c2.7,3.6,6.8,5.5,11,5.5c2.9,0,5.9-0.9,8.4-2.9C24,56.8,25.2,48,20.5,41.7z"/>
			</g>
		</g>
		<g id="group1552-5_1_" transform="translate(4.95554,-4.39536)">
			<g id="group1553-6_1_" transform="translate(0.341805,-0.176482)">
				<g id="group1554-7_1_" transform="translate(0.437248,3.2685E-13)">
					<g id="shape1555-8_1_">
						<path class="st0" d="M-2.4,57.5c-0.8-0.8-1.4-1.6-2-2.3C-5.5,57.6-5.9,60.1-6,62c0.1,0.2,0.1,0.3,0.2,0.4c0.6,0.8,1.3,1.5,2,2
							C-3.9,62.9-3.7,60.3-2.4,57.5z"/>
					</g>
				</g>
				<g id="shape1556-10_1_" transform="translate(3.29213,-8.97695)">
					<path class="st0" d="M-1.1,57c-1.1,0.8-2.2,1.8-3.3,3C-5,60.7-5.5,61.4-6,62.1c0.5,0.8,1.1,1.6,1.9,2.5
						c0.6-0.9,1.3-1.7,2.2-2.6c1.1-1.1,2.2-1.9,3.1-2.6C0.4,58.6-0.3,57.8-1.1,57z"/>
				</g>
				<g id="group1557-12_1_" transform="translate(9.93516,-15.1958)">
					<g id="shape1558-13_1_">
						<path class="st0" d="M3.8,62.5c-0.5-0.7-1.1-1.3-1.7-1.8c-1.9-0.3-4.7-0.3-8,1.5c0.8,0.8,1.5,1.6,2.2,2.4
							C0.6,62.1,3.8,62.5,3.8,62.5z"/>
					</g>
				</g>
				<g id="group1559-15_1_" transform="translate(1.10162E-13,-9.38012)">
					<g id="shape1560-16_1_">
						<path class="st0" d="M-3.9,64.5c0.3-0.7,0.7-1.4,1.2-2.1c-1.9-3.1-1.8-5.6-1.6-6.8c-0.5,0.5-0.9,1-1.3,1.6
							C-6,58.9-6,61.4-3.9,64.5z"/>
					</g>
				</g>
				<g id="group1561-18_1_" transform="translate(4.05148,-0.740211)">
					<g id="shape1562-19_1_">
						<path class="st0" d="M-2.6,58.4c-0.9-0.7-1.6-1.4-2.3-2.1c-0.5,0.7-0.8,1.3-1.1,2c0.6,0.6,1.3,1.3,2.1,1.9
							c4.9,4,9.8,4.4,12.6,4.4c0.2,0,1-1.2,1.5-1.9C9,62.8,3.7,63.5-2.6,58.4z"/>
					</g>
				</g>
				<g id="group1563-21_1_" transform="translate(2.10339,-7.03041)">
					<g id="shape1564-22_1_">
						<path class="st0" d="M-6,62.2c0.5,0.8,1.2,1.5,2,2.4c0.3-0.6,0.7-1.3,1.1-2c-0.8-0.8-1.4-1.7-1.9-2.5
							C-5.3,60.8-5.7,61.5-6,62.2z"/>
					</g>
				</g>
				<g id="group1565-24_1_" transform="translate(10.5195,-5.3233)">
					<g id="shape1566-25_1_">
						<path class="st0" d="M-6,55.7c4.5,4.3,9.8,7.9,11.1,8.8c0.1-0.3,0.2-0.7,0.3-1c-1.4-1.1-5.3-4.2-9.8-8.8
							C-4.9,55-5.4,55.3-6,55.7z"/>
					</g>
				</g>
				<g id="group1567-27_1_" transform="translate(4.98729,-16.4714)">
					<g id="shape1568-28_1_">
						<path class="st0" d="M-1.1,63.4c-1.1-1.2-2.2-2.4-3.4-3.8C-5,59.8-5.5,60-6,60.3c0.8,1.4,2,2.8,3.2,4.2
							C-2.2,64.1-1.6,63.7-1.1,63.4z"/>
					</g>
				</g>
				<g id="shape1569-30_1_" transform="translate(8.13763,-14.0503)">
					<path class="st0" d="M-4.1,61c-0.6,0.3-1.3,0.8-1.9,1.2c0.7,0.8,1.5,1.6,2.3,2.4c0.6-0.4,1.3-0.9,1.9-1.2
						C-2.6,62.6-3.4,61.8-4.1,61z"/>
				</g>
				<g id="shape1570-32_1_" transform="translate(8.1369,-14.0039)">
					<path class="st0" d="M-4.3,60.8C-4.9,61.1-5.4,61.5-6,62c0.7,0.8,1.7,1.8,2.5,2.6c0.6-0.4,1-0.8,1.6-1.1
						C-2.6,62.7-3.6,61.7-4.3,60.8z"/>
				</g>
			</g>
			<g id="group1571-34_1_" transform="translate(14.8617,-6.23662)">
				<g id="shape1572-35_1_">
					<path class="st0" d="M-4.7,59.4C-5.8,60.3-6,62-5.1,63.1c0.9,1.2,2.5,1.4,3.6,0.5c1.1-0.9,1.3-2.5,0.5-3.7
						C-1.9,58.8-3.5,58.5-4.7,59.4z"/>
				</g>
			</g>
			<g id="group1573-37_1_" transform="translate(9.65099,-2.13163E-13)">
				<g id="shape1574-38_1_">
					<path class="st0" d="M-4.8,59.8c-1,0.8-1.2,2.4-0.5,3.4c0.8,1.1,2.3,1.3,3.4,0.5c1-0.8,1.2-2.4,0.4-3.4
						C-2.2,59.2-3.7,59-4.8,59.8z"/>
				</g>
			</g>
			<g id="group1575-40_1_" transform="translate(0,-5.36433)">
				<g id="shape1576-41_1_">
					<path class="st0" d="M-4.1,57.4c-1.6,1.3-1.9,3.6-0.7,5.2c1.2,1.6,3.5,2,5.1,0.7S2.2,59.7,1,58C-0.2,56.4-2.5,56.1-4.1,57.4z"
						/>
				</g>
			</g>
		</g>
		<g id="shape1549-43_1_" class="st1">
			<g class="st2">
				<path d="M-2.4,77.3c0,0,0,0.1-0.1,0.1c0,0-0.1,0-0.1,0.1c0,0-0.1,0-0.2,0s-0.1,0-0.2,0c-0.1,0-0.2,0-0.3,0s-0.1,0-0.2,0
					c0,0-0.1,0-0.1-0.1c0,0,0-0.1-0.1-0.1l-1.3-4.8h0l-1.2,4.8c0,0,0,0.1,0,0.1c0,0-0.1,0-0.1,0.1c0,0-0.1,0-0.2,0s-0.2,0-0.3,0
					c-0.1,0-0.2,0-0.3,0s-0.1,0-0.2,0c0,0-0.1,0-0.1-0.1c0,0,0-0.1-0.1-0.1l-1.7-5.8c0-0.1,0-0.1,0-0.2s0-0.1,0-0.1s0.1,0,0.1,0
					s0.1,0,0.2,0c0.1,0,0.2,0,0.2,0s0.1,0,0.1,0s0.1,0,0.1,0.1s0,0.1,0,0.1l1.4,5.3h0l1.3-5.3c0,0,0-0.1,0-0.1s0,0,0.1-0.1
					s0.1,0,0.1,0s0.1,0,0.2,0c0.1,0,0.2,0,0.2,0s0.1,0,0.1,0s0.1,0,0.1,0.1s0,0.1,0,0.1l1.5,5.3h0l1.4-5.3c0,0,0-0.1,0-0.1
					s0,0,0.1-0.1s0.1,0,0.1,0s0.1,0,0.2,0c0.1,0,0.2,0,0.2,0c0.1,0,0.1,0,0.1,0s0,0.1,0,0.1s0,0.1,0,0.2L-2.4,77.3z"/>
				<path d="M3.8,75c0,0.1,0,0.2-0.1,0.3s-0.1,0.1-0.2,0.1H0.6c0,0.2,0,0.5,0.1,0.7c0,0.2,0.1,0.4,0.2,0.5c0.1,0.1,0.3,0.2,0.4,0.3
					C1.5,76.9,1.7,77,2,77c0.2,0,0.4,0,0.6-0.1s0.3-0.1,0.4-0.1c0.1,0,0.2-0.1,0.3-0.1c0.1,0,0.1-0.1,0.2-0.1c0,0,0,0,0.1,0
					c0,0,0,0,0,0.1s0,0.1,0,0.1c0,0,0,0.1,0,0.1c0,0,0,0.1,0,0.1c0,0,0,0.1,0,0.1s0,0,0,0.1s0,0,0,0.1c0,0-0.1,0-0.2,0.1
					c-0.1,0-0.2,0.1-0.3,0.1s-0.3,0.1-0.5,0.1c-0.2,0-0.4,0-0.6,0c-0.4,0-0.7-0.1-0.9-0.2S0.5,77.2,0.3,77S0,76.6-0.1,76.3
					s-0.1-0.6-0.1-1c0-0.4,0-0.7,0.1-1c0.1-0.3,0.2-0.6,0.4-0.8S0.7,73.1,1,73s0.6-0.2,0.9-0.2c0.3,0,0.6,0.1,0.9,0.2
					s0.4,0.3,0.6,0.4c0.2,0.2,0.3,0.4,0.3,0.7c0.1,0.3,0.1,0.5,0.1,0.8V75z M3,74.8c0-0.4-0.1-0.8-0.3-1c-0.2-0.2-0.5-0.4-0.9-0.4
					c-0.2,0-0.4,0-0.5,0.1c-0.2,0.1-0.3,0.2-0.4,0.3s-0.2,0.3-0.2,0.4c-0.1,0.2-0.1,0.3-0.1,0.5H3z"/>
				<path d="M9,75.2c0,0.4,0,0.7-0.1,1c-0.1,0.3-0.2,0.6-0.4,0.8S8.2,77.3,8,77.5s-0.5,0.2-0.8,0.2c-0.1,0-0.3,0-0.4,0
					c-0.1,0-0.2-0.1-0.3-0.1s-0.2-0.1-0.3-0.2S5.8,77,5.7,76.9v0.5c0,0,0,0,0,0.1s0,0-0.1,0c0,0-0.1,0-0.1,0s-0.1,0-0.2,0
					c-0.1,0-0.1,0-0.2,0s-0.1,0-0.1,0c0,0,0,0-0.1,0s0,0,0-0.1v-6.5c0,0,0,0,0-0.1s0,0,0.1,0s0.1,0,0.1,0s0.1,0,0.2,0
					c0.1,0,0.1,0,0.2,0s0.1,0,0.1,0s0.1,0,0.1,0s0,0,0,0.1v2.6c0.1-0.1,0.3-0.2,0.4-0.3S6.4,73,6.5,73c0.1-0.1,0.2-0.1,0.4-0.1
					s0.2,0,0.4,0c0.3,0,0.6,0.1,0.8,0.2s0.4,0.3,0.6,0.5c0.1,0.2,0.2,0.5,0.3,0.8S9,74.8,9,75.2z M8.2,75.2c0-0.2,0-0.4-0.1-0.7
					c0-0.2-0.1-0.4-0.2-0.6s-0.2-0.3-0.3-0.4c-0.1-0.1-0.3-0.1-0.5-0.1c-0.1,0-0.2,0-0.3,0c-0.1,0-0.2,0.1-0.3,0.1
					c-0.1,0.1-0.2,0.2-0.3,0.3c-0.1,0.1-0.2,0.2-0.4,0.4v1.8c0.2,0.3,0.4,0.5,0.6,0.6s0.4,0.2,0.6,0.2c0.2,0,0.4,0,0.5-0.1
					c0.1-0.1,0.3-0.2,0.4-0.4c0.1-0.2,0.2-0.3,0.2-0.5S8.2,75.4,8.2,75.2z"/>
				<path d="M12.8,68.7h8v10h-8V68.7z M13.3,77.8l3.2-4.1l-3.2-4.1V77.8z M19.9,69.2h-6.4l3.2,4.1L19.9,69.2z M19.9,78.2l-3.2-4.1
					l-3.2,4.1H19.9z M20.3,77.8v-8.2l-3.2,4.1L20.3,77.8z"/>
				<path d="M30.7,69.8v7.6c0,0.9-0.4,0.9-2.3,0.9c0-0.2-0.1-0.5-0.2-0.7c0.4,0,0.7,0,1,0c0.8,0,0.9,0,0.9-0.3v-2.2h-2.9v3h-0.6v-3
					h-2.6c-0.1,1.1-0.5,2.3-1.3,3.2c-0.1-0.1-0.4-0.4-0.5-0.4c1.1-1.3,1.2-3.1,1.2-4.5v-3.7H30.7z M23.9,73.5c0,0.4,0,0.7,0,1.1h2.6
					v-1.7h-2.5V73.5z M26.5,70.5h-2.5v1.8h2.5V70.5z M30,72.2v-1.8h-2.9v1.8H30z M27.1,74.6H30v-1.7h-2.9V74.6z"/>
				<v:paragraph  v:horizAlign="1"></v:paragraph>
				<v:tabList></v:tabList>
			</g>
		</g>
	</g>
	<g id="shape1578-49_1_" transform="translate(214.796,-21.421)">
		<path class="st0" d="M17.3,39H-3.2c-0.6,0-1.1,0.5-1.1,1.1v16.7c0,0.6,0.5,1.1,1.1,1.1H2c0.4,1.4,1.7,2.3,3.2,2.3
			c1.8,0,3.3-1.5,3.3-3.4s-1.5-3.4-3.3-3.4c-1.5,0-2.8,0.9-3.2,2.3h-4.2v-12h18.3v12h-3.4c-0.5-3.7-3.7-6.6-7.5-6.6
			c-1.3,0-2.5,0.4-3.6,0.9l1,2c0.7-0.4,1.7-0.7,2.6-0.7c2.9,0,5.4,2.4,5.4,5.5c0,3-2.4,5.5-5.4,5.5c-0.9,0-1.8-0.3-2.6-0.7l-1,2
			c1.1,0.6,2.4,0.9,3.6,0.9c3.8,0,7-2.9,7.5-6.6h4.5c0.6,0,1.1-0.5,1.1-1.1V40.1C18.3,39.6,17.9,39,17.3,39z"/>
		<g class="st3">
			<path class="st4" d="M-3.4,77.2c0,0.1,0,0.1,0,0.2c0,0,0,0.1,0,0.1s-0.1,0-0.1,0c-0.1,0-0.1,0-0.2,0s-0.2,0-0.2,0
				c-0.1,0-0.1,0-0.1,0c0,0-0.1,0-0.1,0c0,0,0,0,0-0.1l-0.5-1.5h-2.6L-8,77.4c0,0,0,0.1,0,0.1c0,0,0,0-0.1,0.1c0,0-0.1,0-0.1,0
				c-0.1,0-0.1,0-0.2,0c-0.1,0-0.2,0-0.2,0c-0.1,0-0.1,0-0.1,0c0,0,0-0.1,0-0.1c0,0,0-0.1,0-0.2l2.1-5.9c0,0,0-0.1,0.1-0.1
				c0,0,0.1,0,0.1-0.1c0,0,0.1,0,0.2,0c0.1,0,0.1,0,0.2,0c0.1,0,0.2,0,0.3,0s0.1,0,0.2,0s0.1,0,0.1,0.1s0,0.1,0.1,0.1L-3.4,77.2z
				 M-6.2,72.1L-6.2,72.1l-1.1,3.1h2.2L-6.2,72.1z"/>
			<path class="st4" d="M1.5,73.1c0,0.3-0.1,0.6-0.2,0.9s-0.3,0.5-0.4,0.6c-0.2,0.2-0.4,0.3-0.7,0.4c-0.3,0.1-0.6,0.1-1,0.1h-0.7
				v2.3c0,0,0,0,0,0.1c0,0,0,0-0.1,0c0,0-0.1,0-0.1,0c-0.1,0-0.1,0-0.2,0s-0.1,0-0.2,0c-0.1,0-0.1,0-0.1,0c0,0-0.1,0-0.1,0
				s0,0,0-0.1v-5.8c0-0.1,0-0.2,0.1-0.3s0.1-0.1,0.2-0.1h1.4c0.1,0,0.3,0,0.4,0c0.1,0,0.3,0,0.4,0.1c0.2,0,0.3,0.1,0.5,0.2
				c0.2,0.1,0.3,0.2,0.5,0.4s0.2,0.3,0.3,0.5C1.5,72.6,1.5,72.8,1.5,73.1z M0.6,73.1c0-0.3,0-0.5-0.1-0.6c-0.1-0.2-0.2-0.3-0.4-0.4
				C0,72-0.2,72-0.3,71.9c-0.2,0-0.3,0-0.4,0h-0.8v2.5h0.8c0.3,0,0.5,0,0.6-0.1c0.2-0.1,0.3-0.2,0.4-0.3c0.1-0.1,0.2-0.3,0.3-0.4
				S0.6,73.3,0.6,73.1z"/>
			<path class="st4" d="M3.6,77.4C3.6,77.4,3.6,77.5,3.6,77.4c0,0.1-0.1,0.1-0.1,0.1c0,0-0.1,0-0.1,0c-0.1,0-0.1,0-0.2,0
				c-0.1,0-0.1,0-0.2,0c-0.1,0-0.1,0-0.1,0c0,0-0.1,0-0.1,0s0,0,0-0.1v-6.1c0,0,0,0,0-0.1c0,0,0,0,0.1,0c0,0,0.1,0,0.1,0
				c0.1,0,0.1,0,0.2,0c0.1,0,0.1,0,0.2,0c0.1,0,0.1,0,0.1,0c0,0,0.1,0,0.1,0s0,0,0,0.1V77.4z"/>
			<path class="st4" d="M7.7,68.7h8v10h-8V68.7z M8.2,77.8l3.2-4.1l-3.2-4.1V77.8z M14.9,69.2H8.5l3.2,4.1L14.9,69.2z M14.9,78.2
				l-3.2-4.1l-3.2,4.1H14.9z M15.2,77.8v-8.2L12,73.7L15.2,77.8z"/>
			<path class="st4" d="M25.6,69.8v7.6c0,0.9-0.4,0.9-2.3,0.9c0-0.2-0.1-0.5-0.2-0.7c0.4,0,0.7,0,1,0c0.8,0,0.9,0,0.9-0.3v-2.2h-2.9
				v3h-0.6v-3h-2.6c-0.2,1.1-0.5,2.3-1.3,3.2c-0.1-0.1-0.4-0.4-0.5-0.4c1.1-1.3,1.2-3.1,1.2-4.5v-3.7H25.6z M18.9,73.5
				c0,0.4,0,0.7,0,1.1h2.6v-1.7h-2.5V73.5z M21.4,70.5h-2.5v1.8h2.5V70.5z M24.9,72.2v-1.8h-2.9v1.8H24.9z M22.1,74.6h2.9v-1.7h-2.9
				V74.6z"/>
			<v:paragraph  v:horizAlign="1"></v:paragraph>
			<v:tabList></v:tabList>
		</g>
	</g>
	<g id="group1580-58_1_" transform="translate(0.375,-25.6729)">
		<g id="group1581-59_1_">
			<g id="group1582-60_1_">
				<g id="group1583-61_1_" transform="translate(3.8518,-6.4617)">
					<g id="shape1584-62_1_">
						<path class="st0" d="M3.6,54.6c-2.3,0.6-3.6,3.1-3,5.7c0.7,2.6,3,4.2,5.3,3.7c2.3-0.6,3.6-3.1,3-5.7C8.3,55.6,5.9,54,3.6,54.6
							z"/>
					</g>
				</g>
				<g id="group1585-64_1_">
					<g id="shape1586-65_1_">
						<path class="st0" d="M12.4,58.2c-0.4,0-0.9,0.8-1.5,1.1c-0.7,0.3-1.3,0.9-3.2,0c-1.9-0.9-2.1-1.7-3.6-1.7
							c-1.5,0-4.1,2.8-4.1,6.9h15.6c0,0-0.2-2.8-1.1-4.2C13.4,58.2,12.9,58.2,12.4,58.2z"/>
					</g>
				</g>
			</g>
		</g>
		<g id="group1587-67_1_" transform="translate(9.0485,-0.85947)">
			<g id="shape1588-68_1_">
				<path class="st5" d="M4.8,54.1H0.7c-0.3,0-0.6,0.3-0.6,0.7v2.8c0,0.3,0.3,0.7,0.8,0.7h0.8v5.2c0,0.6,0.4,1.1,1,1.1s1-0.4,1-1
					c0.1,0,0.2,0,0.2,0s0-0.5,0-0.7c0-0.2,0.3-0.3,0.3-0.3v-0.3c-0.3-0.1-0.5-0.3-0.5-0.4v-0.3c0.1-0.1,0.2-0.2,0.2-0.2
					C3.8,61.1,4,60.7,4,60.7s-0.3-0.4-0.3-0.5c-0.1-0.1-0.1-0.3-0.2-0.4v-0.2c0.1-0.5,0.8-1.1,0.8-1.1h0.5c0.3,0,0.7-0.3,0.7-0.7v-3
					C5.4,54.4,5.2,54.1,4.8,54.1z M2.4,63.7c0,0.2,0,0.3-0.2,0.3C2,64,2,63.8,2,63.7v-4.8c0-0.2,0.1-0.3,0.2-0.3
					c0.2,0,0.2,0.2,0.2,0.3V63.7z M2.7,55.9c-0.3,0-0.7-0.3-0.7-0.7c0-0.3,0.3-0.7,0.7-0.7c0.3,0,0.6,0.3,0.6,0.7
					C3.4,55.5,3.1,55.9,2.7,55.9z"/>
			</g>
			<g id="shape1589-70_1_" transform="translate(1.92482,-0.570755)">
				<path class="st6" d="M0.2,64.5c-0.1,0-0.2-0.1-0.2-0.2v-5c0-0.1,0.1-0.2,0.2-0.2s0.2,0.1,0.2,0.2v5.1
					C0.4,64.5,0.3,64.5,0.2,64.5z"/>
			</g>
			<g id="shape1590-72_1_" transform="translate(2.05993,-8.66317)">
				<ellipse class="st6" cx="0.7" cy="63.9" rx="0.7" ry="0.7"/>
			</g>
		</g>
	</g>
	<g id="Arrow">
		<g id="shape1579-52_1_" transform="translate(73.5133,-41.2635)">
			<g transform="scale(-2.68,-2.68) ">
				<g id="lend5_1_">
					<path class="st7" d="M126.8,67.6l8,4l-8,4C128.1,73.1,128.1,70.1,126.8,67.6"/>
				</g>
			</g>
		</g>
		<path class="st8" d="M201.6,31.1c-6.8,0-12.9,0-19.3,0c-6.5,0-13.4,0-19.9,0c-6.4,0-11.3,0-19.1,0c-6.5,0-13.1,0-19.6,0
			c-6.4,0-12.5,0-18.9,0c-6.5,0-13.4,0-19.9,0c-6.2,0-8.8,0-15.6,0c-0.2,0-1.5-0.2-1.5-0.8c0-0.6,1.4-0.8,1.7-0.8
			c3,0,86.7,0,132.2,0"/>
	</g>
</g>
<g id="txt" xmlns:ev="http://www.w3.org/2001/xml-events" xmlns:v="http://schemas.microsoft.com/visio/2003/SVGExtensions/">
	<g id="group1549-1_2_" transform="translate(43.141,-20.0036)">
		<g id="shape1549-43_2_">
			<g class="st9">
				<path d="M-1.2,70l-2.1,7.6h-1.1l-1.5-5.4C-6,71.8-6,71.6-6.1,71.3h0c0,0.3-0.1,0.5-0.1,0.8l-1.5,5.5h-1.1l-2.2-7.6h1.1l1.5,5.7
					c0.1,0.3,0.1,0.5,0.1,0.8h0c0-0.2,0.1-0.5,0.2-0.8l1.6-5.7h1l1.6,5.8c0.1,0.2,0.1,0.4,0.1,0.7h0c0-0.2,0.1-0.5,0.1-0.7l1.5-5.7
					H-1.2z"/>
				<path d="M4,75.1H0.2c0,0.6,0.2,1,0.5,1.3c0.3,0.3,0.7,0.5,1.3,0.5c0.6,0,1.2-0.2,1.7-0.6v0.9c-0.5,0.3-1.1,0.5-1.9,0.5
					c-0.8,0-1.4-0.2-1.8-0.7s-0.7-1.2-0.7-2.1c0-0.8,0.2-1.5,0.7-2S1,72,1.7,72c0.7,0,1.3,0.2,1.7,0.7S4,73.8,4,74.6V75.1z M3,74.3
					c0-0.5-0.1-0.9-0.3-1.1s-0.5-0.4-1-0.4c-0.4,0-0.7,0.1-1,0.4s-0.5,0.7-0.5,1.1H3z"/>
				<path d="M6.2,76.8v0.8h-1v-8h1v3.5h0c0.4-0.7,1-1.1,1.9-1.1c0.7,0,1.2,0.2,1.6,0.7c0.4,0.5,0.6,1.1,0.6,2c0,0.9-0.2,1.6-0.7,2.2
					c-0.4,0.5-1,0.8-1.8,0.8C7.1,77.7,6.6,77.4,6.2,76.8L6.2,76.8z M6.2,75.3c0,0.4,0.1,0.8,0.4,1.1c0.3,0.3,0.6,0.5,1.1,0.5
					c0.5,0,0.9-0.2,1.2-0.6s0.4-0.9,0.4-1.6c0-0.6-0.1-1-0.4-1.4s-0.6-0.5-1.1-0.5c-0.5,0-0.9,0.2-1.2,0.5s-0.5,0.8-0.5,1.3V75.3z"
					/>
				<path d="M18.4,69.5l0.7-0.4c0.3,0.4,0.5,0.7,0.8,1.2l-0.5,0.3h4v0.7h-7.6v2.4c0,2.3-0.5,4-1.4,5.2c-0.2-0.2-0.3-0.4-0.6-0.7
					c0.8-0.9,1.2-2.4,1.2-4.5v-3.2h4.1C18.9,70.2,18.6,69.9,18.4,69.5z M15.7,77.5h4.5c0.5-1.3,1-3.1,1.6-5.3l0.8,0.2
					c-0.6,2.1-1.1,3.8-1.6,5.1h2.4v0.7h-7.8V77.5z M16.2,72.7l0.7-0.3c0.4,1.2,0.8,2.5,1.2,4l-0.8,0.3C17,75.4,16.7,74.1,16.2,72.7z
					 M18.6,72.3l0.8-0.2c0.3,1.2,0.6,2.5,0.9,3.9l-0.9,0.2C19.2,74.9,18.9,73.6,18.6,72.3z"/>
				<path d="M28.6,78.7v-3.1h-2.8c-0.1,1.4-0.5,2.5-1.2,3.4c-0.2-0.2-0.4-0.4-0.6-0.7c0.4-0.6,0.7-1.3,0.9-2c0.1-0.7,0.2-1.7,0.2-3
					v-3.5h8v7.8c0,0.8-0.4,1.2-1.1,1.2c-0.4,0-1,0-1.5,0c0-0.2-0.1-0.5-0.1-0.8c0.6,0,1,0.1,1.4,0.1c0.4,0,0.6-0.2,0.6-0.6v-1.8
					h-2.9v3.1H28.6z M25.8,74.9h2.8V73h-2.7C25.8,73.7,25.8,74.3,25.8,74.9z M25.8,70.5v1.8h2.7v-1.8H25.8z M32.2,70.5h-2.9v1.8h2.9
					V70.5z M29.3,74.9h2.9V73h-2.9V74.9z"/>
				<v:paragraph  v:horizAlign="1"></v:paragraph>
				<v:tabList></v:tabList>
			</g>
		</g>
	</g>
	<g id="shape1578-49_2_" transform="translate(214.796,-21.421)">
		<g class="st9">
			<path d="M-3.8,77.5h-1.1l-0.8-2.1h-3.1l-0.7,2.1h-1.1l2.9-7.6h1L-3.8,77.5z M-5.9,74.6L-7,71.5c0-0.1-0.1-0.3-0.1-0.5h0
				c0,0.2-0.1,0.4-0.1,0.5l-1.1,3.1H-5.9z"/>
			<path d="M-1.7,74.7v2.8h-1V70h2.1c0.8,0,1.5,0.2,1.9,0.6c0.5,0.4,0.7,1,0.7,1.7c0,0.7-0.3,1.3-0.8,1.8c-0.5,0.5-1.2,0.7-2,0.7
				H-1.7z M-1.7,70.8v3h0.9c0.6,0,1-0.1,1.4-0.4S1,72.8,1,72.3c0-1-0.6-1.5-1.7-1.5H-1.7z"/>
			<path d="M4.4,70v7.6h-1V70H4.4z"/>
			<path d="M13,69.5l0.7-0.4c0.3,0.4,0.5,0.7,0.8,1.2l-0.5,0.3h4v0.7h-7.6v2.4c0,2.3-0.5,4-1.4,5.2c-0.2-0.2-0.3-0.4-0.6-0.7
				c0.8-0.9,1.2-2.4,1.2-4.5v-3.2h4.1C13.5,70.2,13.3,69.9,13,69.5z M10.4,77.5h4.5c0.5-1.3,1-3.1,1.6-5.3l0.8,0.2
				c-0.6,2.1-1.1,3.8-1.6,5.1h2.4v0.7h-7.8V77.5z M10.9,72.8l0.7-0.3c0.4,1.2,0.8,2.5,1.2,4L12,76.7C11.7,75.4,11.3,74.1,10.9,72.8z
				 M13.2,72.3L14,72c0.3,1.2,0.6,2.5,0.9,3.9L14,76.2C13.8,74.9,13.6,73.6,13.2,72.3z"/>
			<path d="M23.2,78.7v-3.1h-2.8c-0.1,1.4-0.5,2.5-1.2,3.4c-0.2-0.2-0.4-0.4-0.6-0.7c0.4-0.6,0.7-1.3,0.9-2c0.1-0.7,0.2-1.7,0.2-3
				v-3.5h8v7.8c0,0.8-0.4,1.2-1.1,1.2c-0.4,0-1,0-1.5,0c0-0.2-0.1-0.5-0.1-0.8c0.6,0,1,0.1,1.4,0.1c0.4,0,0.6-0.2,0.6-0.6v-1.8H24
				v3.1H23.2z M20.4,74.9h2.8V73h-2.7C20.5,73.7,20.5,74.3,20.4,74.9z M20.5,70.5v1.8h2.7v-1.8H20.5z M26.9,70.5H24v1.8h2.9V70.5z
				 M24,74.9h2.9V73H24V74.9z"/>
			<v:paragraph  v:horizAlign="1"></v:paragraph>
			<v:tabList></v:tabList>
		</g>
	</g>
	<g>
		<rect x="131.4" y="1.9" class="st10" width="73.6" height="21.6"/>
		<path class="st11" d="M158.3,6.9c0.4-0.2,0.8-0.4,1.3-0.6V4.2h-1.2V3.5h1.2V1.6h0.7v1.9h1.1v0.7h-1.1V6c0.3-0.2,0.6-0.3,1-0.5
			c0,0.3,0,0.6,0.1,0.8c-0.3,0.2-0.7,0.3-1.1,0.5v3.2c0,0.7-0.3,1-1,1c-0.2,0-0.5,0-0.8,0c0-0.3-0.1-0.5-0.1-0.8c0.3,0,0.6,0,0.7,0
			c0.3,0,0.4-0.1,0.4-0.4V7.2c-0.4,0.2-0.7,0.4-1.2,0.6L158.3,6.9z M161.9,7.3V6.6h5.1v0.7c-0.4,0.9-1,1.6-1.8,2.3
			c0.8,0.4,1.7,0.7,2.9,0.9c-0.2,0.3-0.4,0.5-0.6,0.8c-1.2-0.2-2.2-0.6-3-1.2c-0.9,0.6-2,1-3.3,1.3c-0.1-0.2-0.3-0.5-0.5-0.7
			c1.3-0.2,2.3-0.5,3.2-1c-0.6-0.6-1.1-1.3-1.5-2.2H161.9z M161.6,4.8h4.2c0.3-0.6,0.7-1.2,1-1.9l0.8,0.3c-0.3,0.5-0.6,1-0.9,1.5
			h1.3v1.5h-0.7V5.5h-4.8v0.8h-0.7V4.8z M161.8,3c0-0.2-0.1-0.5-0.1-0.7c2.2-0.1,4.2-0.2,6-0.4l0.1,0.7C165.7,2.8,163.7,2.9,161.8,3
			z M162,3.4l0.6-0.3c0.3,0.4,0.5,0.8,0.8,1.3l-0.6,0.3C162.6,4.3,162.3,3.8,162,3.4z M166.2,7.3h-2.9c0.3,0.7,0.8,1.3,1.4,1.8
			C165.3,8.6,165.8,8,166.2,7.3z M164,3.2l0.6-0.3c0.3,0.5,0.5,0.9,0.7,1.3l-0.7,0.3C164.4,4.1,164.2,3.7,164,3.2z"/>
		<path class="st11" d="M168.3,7.8c0.7-1,1.2-2.2,1.5-3.4h-1.4V3.7h1.5V1.6h0.7v2.1h1.4v0.7h-1.4v1.3l0.4-0.4c0.6,0.6,1.1,1,1.4,1.5
			l-0.6,0.5c-0.4-0.6-0.9-1-1.3-1.5v5.4h-0.7V5.9c-0.4,1.1-0.8,2-1.3,2.8C168.5,8.4,168.4,8.1,168.3,7.8z M171.8,3V2.3h5.5V3
			c-0.3,2.3-1,4.1-2.1,5.5c0.7,0.7,1.6,1.3,2.8,1.8c-0.3,0.3-0.5,0.6-0.7,0.8c-1.1-0.6-2-1.2-2.7-1.9c-0.7,0.8-1.8,1.5-3.1,2.2
			c-0.1-0.2-0.3-0.5-0.5-0.7c1.4-0.6,2.4-1.3,3.1-2.1c-1-1.2-1.6-3.1-1.8-5.5H171.8z M176.6,3h-3.3c0.2,2.1,0.7,3.7,1.6,4.9
			C175.7,6.6,176.3,5,176.6,3z"/>
		<path class="st11" d="M153.3,18.3c1-1.4,1.8-2.9,2.4-4.7l0.8,0.3c-0.3,0.8-0.6,1.5-0.9,2.1v7.2h-0.8v-5.7
			c-0.4,0.6-0.8,1.2-1.2,1.7C153.5,18.9,153.4,18.6,153.3,18.3z M156.1,17l2.3-0.3c-0.1-0.8-0.1-1.9-0.2-3.1h0.8c0,1,0,2,0.1,3
			l3.6-0.4l0.1,0.7l-3.6,0.4c0.4,2.7,1.1,4.3,2.1,4.8c0.3,0.1,0.5,0,0.6-0.3c0.1-0.5,0.2-1,0.3-1.6c0.3,0.1,0.5,0.2,0.8,0.3
			c-0.1,0.6-0.2,1.2-0.4,1.7c-0.2,0.6-0.5,0.8-1,0.8c-0.6,0-1.1-0.4-1.6-1c-0.8-0.9-1.3-2.4-1.6-4.7l-2.3,0.2L156.1,17z M160,14.4
			l0.5-0.5c0.6,0.4,1.2,0.9,1.8,1.5l-0.6,0.6C161.1,15.4,160.6,14.9,160,14.4z"/>
		<path class="st11" d="M163.3,19c0.8-1.1,1.4-2.4,1.7-3.8h-1.4v-0.7h3.7v0.7h-1.5c-0.2,0.8-0.5,1.6-0.8,2.3h1.9v5.3h-0.7v-0.7H165
			v0.8h-0.7v-4.1c-0.2,0.3-0.4,0.5-0.5,0.8C163.6,19.5,163.5,19.3,163.3,19z M166.2,18.2H165v3.3h1.2V18.2z M167.3,20.1h4.1v0.7
			h-4.1V20.1z M168.9,15.2l-0.3,2.9h2.3l0.3-3.2h-3.6v-0.7h4.4l-0.4,3.9h1c-0.1,1.3-0.1,2.5-0.2,3.4c-0.1,1-0.5,1.5-1.4,1.5
			c-0.4,0-0.9,0-1.5,0c0-0.2-0.1-0.5-0.1-0.8c0.5,0.1,1,0.1,1.4,0.1c0.5,0,0.8-0.3,0.8-0.8c0.1-0.7,0.1-1.6,0.1-2.6h-4.1l0.3-3.6
			H168.9z"/>
		<path class="st11" d="M173.3,16.8l0.5-0.6c0.5,0.4,1.1,0.8,1.7,1.3c-0.2,0.3-0.4,0.5-0.6,0.6C174.2,17.5,173.7,17.1,173.3,16.8z
			 M173.6,22.9c0.4-1.1,0.7-2.4,1-3.8c0.3,0.1,0.5,0.2,0.8,0.3c-0.3,1.1-0.6,2.4-0.9,3.8L173.6,22.9z M173.7,14.3l0.5-0.5
			c0.5,0.4,1,0.8,1.6,1.3l-0.6,0.6C174.7,15.1,174.2,14.7,173.7,14.3z M176.8,18.6h0.7c0,1.4-0.1,2.4-0.4,3
			c-0.3,0.6-0.8,1.2-1.6,1.6c-0.1-0.2-0.3-0.5-0.5-0.6c0.7-0.4,1.2-0.8,1.4-1.3C176.7,20.8,176.8,19.9,176.8,18.6z M181,16
			c0.5,0.6,1.1,1.3,1.7,2.1c-0.2,0.1-0.5,0.3-0.7,0.5c-0.2-0.2-0.3-0.5-0.5-0.7c-1.6,0.1-3.1,0.1-4.4,0.2c-0.2,0-0.5,0-0.8,0.1
			l-0.3-0.7c0.2-0.1,0.5-0.3,0.7-0.4c0.5-0.4,1-1,1.5-1.6H176v-0.7h3.1c-0.2-0.4-0.5-0.7-0.7-1l0.6-0.4c0.2,0.3,0.5,0.7,0.8,1.1
			l-0.5,0.3h3.3v0.7h-4.3l0.6,0.3c-0.6,0.7-1.2,1.2-1.7,1.6c1.1,0,2.3-0.1,3.7-0.1c-0.2-0.3-0.4-0.6-0.6-0.8L181,16z M178.7,18.6
			h0.7V23h-0.7V18.6z M180.5,18.6h0.7v3.3c0,0.3,0.1,0.4,0.4,0.4h0.3c0.2,0,0.3-0.2,0.4-0.5c0-0.4,0.1-0.8,0.1-1.2
			c0.2,0.1,0.5,0.2,0.7,0.3c0,0.5-0.1,1-0.1,1.3c-0.1,0.6-0.4,0.9-0.9,0.9h-0.6c-0.6,0-0.9-0.4-0.9-1.1V18.6z"/>
	</g>
	<g>
		<path class="st8" d="M201.6,30.4c0-2-0.8-3.1-1.4-4.3c2.8,1.5,5.5,2.9,8.2,4.3c-2.7,1.4-5.4,2.8-8.2,4.3
			C200.8,33.2,201.5,32.1,201.6,30.4z"/>
	</g>
</g>
<g id="source" xmlns:ev="http://www.w3.org/2001/xml-events" xmlns:v="http://schemas.microsoft.com/visio/2003/SVGExtensions/" class="st1">
	<g class="st4">
		<g id="group1549-1" transform="translate(43.141,-20.0036)">
			<g id="group1550-2">
				<g id="shape1551-3">
					<path class="st0" d="M22.9,60.1c-2.2,1.7-4.8,2.5-7.3,2.5c-3.6,0-7.2-1.7-9.6-4.8c-4-5.4-3-13.1,2.2-17.3
						c2.2-1.7,4.8-2.5,7.3-2.5c3.6,0,7.2,1.7,9.5,4.8C29.2,48.3,28.2,56,22.9,60.1z M26.5,41.7c-2.7-3.6-6.8-5.5-11-5.5
						c-2.9,0-5.9,1-8.4,2.9C1.1,43.9,0,52.8,4.6,59c2.7,3.6,6.8,5.5,11,5.5c2.9,0,5.9-0.9,8.4-2.9C30,56.8,31.2,48,26.5,41.7z"/>
				</g>
			</g>
			<g id="group1552-5" transform="translate(4.95554,-4.39536)">
				<g id="group1553-6" transform="translate(0.341805,-0.176482)">
					<g id="group1554-7" transform="translate(0.437248,3.2685E-13)">
						<g id="shape1555-8">
							<path class="st0" d="M3.6,57.5c-0.8-0.8-1.4-1.6-2-2.3C0.5,57.6,0.1,60.1,0,62c0.1,0.2,0.1,0.3,0.2,0.4c0.6,0.8,1.3,1.5,2,2
								C2.1,62.9,2.3,60.3,3.6,57.5z"/>
						</g>
					</g>
					<g id="shape1556-10" transform="translate(3.29213,-8.97695)">
						<path class="st0" d="M4.9,57c-1.1,0.8-2.2,1.8-3.3,3C1,60.7,0.5,61.4,0,62.1c0.5,0.8,1.1,1.6,1.9,2.5c0.6-0.9,1.3-1.7,2.2-2.6
							c1.1-1.1,2.2-1.9,3.1-2.6C6.4,58.6,5.7,57.8,4.9,57z"/>
					</g>
					<g id="group1557-12" transform="translate(9.93516,-15.1958)">
						<g id="shape1558-13">
							<path class="st0" d="M9.8,62.5c-0.5-0.7-1.1-1.3-1.7-1.8c-1.9-0.3-4.7-0.3-8,1.5c0.8,0.8,1.5,1.6,2.2,2.4
								C6.6,62.1,9.8,62.5,9.8,62.5z"/>
						</g>
					</g>
					<g id="group1559-15" transform="translate(1.10162E-13,-9.38012)">
						<g id="shape1560-16">
							<path class="st0" d="M2.1,64.5c0.3-0.7,0.7-1.4,1.2-2.1c-1.9-3.1-1.8-5.6-1.6-6.8c-0.5,0.5-0.9,1-1.3,1.6
								C0,58.9,0,61.4,2.1,64.5z"/>
						</g>
					</g>
					<g id="group1561-18" transform="translate(4.05148,-0.740211)">
						<g id="shape1562-19">
							<path class="st0" d="M3.4,58.4c-0.9-0.7-1.6-1.4-2.3-2.1c-0.5,0.7-0.8,1.3-1.1,2c0.6,0.6,1.3,1.3,2.1,1.9
								c4.9,4,9.8,4.4,12.6,4.4c0.2,0,1-1.2,1.5-1.9C15,62.8,9.7,63.5,3.4,58.4z"/>
						</g>
					</g>
					<g id="group1563-21" transform="translate(2.10339,-7.03041)">
						<g id="shape1564-22">
							<path class="st0" d="M0,62.2c0.5,0.8,1.1,1.5,2,2.4c0.3-0.6,0.7-1.3,1.1-2c-0.8-0.8-1.4-1.7-1.9-2.5
								C0.7,60.8,0.3,61.5,0,62.2z"/>
						</g>
					</g>
					<g id="group1565-24" transform="translate(10.5195,-5.3233)">
						<g id="shape1566-25">
							<path class="st0" d="M0,55.7c4.5,4.3,9.8,7.9,11.1,8.8c0.1-0.3,0.2-0.7,0.3-1c-1.4-1.1-5.3-4.2-9.8-8.8
								C1.1,55,0.6,55.3,0,55.7z"/>
						</g>
					</g>
					<g id="group1567-27" transform="translate(4.98729,-16.4714)">
						<g id="shape1568-28">
							<path class="st0" d="M4.9,63.4c-1.1-1.2-2.2-2.4-3.4-3.8C1,59.8,0.5,60,0,60.3c0.8,1.4,2,2.8,3.2,4.2
								C3.8,64.1,4.4,63.7,4.9,63.4z"/>
						</g>
					</g>
					<g id="shape1569-30" transform="translate(8.13763,-14.0503)">
						<path class="st0" d="M1.9,61c-0.6,0.3-1.3,0.8-1.9,1.2c0.7,0.8,1.5,1.6,2.3,2.4c0.6-0.4,1.3-0.9,1.9-1.2
							C3.4,62.6,2.6,61.8,1.9,61z"/>
					</g>
					<g id="shape1570-32" transform="translate(8.1369,-14.0039)">
						<path class="st0" d="M1.7,60.8C1.1,61.1,0.6,61.5,0,62c0.7,0.8,1.7,1.8,2.5,2.6c0.6-0.4,1-0.8,1.6-1.1
							C3.4,62.7,2.4,61.7,1.7,60.8z"/>
					</g>
				</g>
				<g id="group1571-34" transform="translate(14.8617,-6.23662)">
					<g id="shape1572-35">
						<path class="st0" d="M1.3,59.4C0.2,60.3,0,62,0.9,63.1c0.9,1.2,2.5,1.4,3.6,0.5c1.1-0.9,1.3-2.5,0.5-3.7
							C4.1,58.8,2.5,58.5,1.3,59.4z"/>
					</g>
				</g>
				<g id="group1573-37" transform="translate(9.65099,-2.13163E-13)">
					<g id="shape1574-38">
						<path class="st0" d="M1.2,59.8c-1,0.8-1.2,2.4-0.4,3.4c0.8,1.1,2.3,1.3,3.4,0.5c1-0.8,1.2-2.4,0.4-3.4
							C3.8,59.2,2.3,59,1.2,59.8z"/>
					</g>
				</g>
				<g id="group1575-40" transform="translate(0,-5.36433)">
					<g id="shape1576-41">
						<path class="st0" d="M1.9,57.4c-1.6,1.3-1.9,3.6-0.7,5.2c1.2,1.6,3.5,2,5.1,0.7S8.2,59.7,7,58C5.8,56.4,3.5,56.1,1.9,57.4z"/>
					</g>
				</g>
			</g>
			<g id="shape1549-43">
				<g class="st9">
					<path d="M3.6,77.3c0,0,0,0.1-0.1,0.1c0,0-0.1,0-0.1,0.1c0,0-0.1,0-0.2,0s-0.1,0-0.2,0c-0.1,0-0.2,0-0.3,0s-0.1,0-0.2,0
						c0,0-0.1,0-0.1-0.1c0,0,0-0.1-0.1-0.1l-1.3-4.8h0l-1.2,4.8c0,0,0,0.1,0,0.1c0,0-0.1,0-0.1,0.1c0,0-0.1,0-0.2,0s-0.2,0-0.3,0
						c-0.1,0-0.2,0-0.3,0s-0.1,0-0.2,0c0,0-0.1,0-0.1-0.1c0,0,0-0.1-0.1-0.1l-1.7-5.8c0-0.1,0-0.1,0-0.2s0-0.1,0-0.1s0.1,0,0.1,0
						s0.1,0,0.2,0c0.1,0,0.2,0,0.2,0s0.1,0,0.1,0s0.1,0,0.1,0.1s0,0.1,0,0.1l1.4,5.3h0l1.3-5.3c0,0,0-0.1,0-0.1s0,0,0.1-0.1
						s0.1,0,0.1,0s0.1,0,0.2,0c0.1,0,0.2,0,0.2,0s0.1,0,0.1,0s0.1,0,0.1,0.1s0,0.1,0,0.1l1.5,5.3h0l1.4-5.3c0,0,0-0.1,0-0.1
						s0,0,0.1-0.1s0.1,0,0.1,0s0.1,0,0.2,0c0.1,0,0.2,0,0.2,0c0.1,0,0.1,0,0.1,0s0,0.1,0,0.1s0,0.1,0,0.2L3.6,77.3z"/>
					<path d="M9.8,75c0,0.1,0,0.2-0.1,0.3s-0.1,0.1-0.2,0.1H6.6c0,0.2,0,0.5,0.1,0.7c0,0.2,0.1,0.4,0.2,0.5c0.1,0.1,0.3,0.2,0.4,0.3
						C7.5,76.9,7.7,77,8,77c0.2,0,0.4,0,0.6-0.1s0.3-0.1,0.4-0.1c0.1,0,0.2-0.1,0.3-0.1c0.1,0,0.1-0.1,0.2-0.1c0,0,0,0,0.1,0
						c0,0,0,0,0,0.1s0,0.1,0,0.1c0,0,0,0.1,0,0.1c0,0,0,0.1,0,0.1c0,0,0,0.1,0,0.1s0,0,0,0.1s0,0,0,0.1c0,0-0.1,0-0.2,0.1
						c-0.1,0-0.2,0.1-0.3,0.1s-0.3,0.1-0.5,0.1c-0.2,0-0.4,0-0.6,0c-0.4,0-0.7-0.1-0.9-0.2S6.5,77.2,6.3,77S6,76.6,5.9,76.3
						s-0.1-0.6-0.1-1c0-0.4,0-0.7,0.1-1c0.1-0.3,0.2-0.6,0.4-0.8S6.7,73.1,7,73s0.6-0.2,0.9-0.2c0.3,0,0.6,0.1,0.9,0.2
						s0.4,0.3,0.6,0.4c0.2,0.2,0.3,0.4,0.3,0.7c0.1,0.3,0.1,0.5,0.1,0.8V75z M9,74.8c0-0.4-0.1-0.8-0.3-1c-0.2-0.2-0.5-0.4-0.9-0.4
						c-0.2,0-0.4,0-0.5,0.1c-0.2,0.1-0.3,0.2-0.4,0.3s-0.2,0.3-0.2,0.4c-0.1,0.2-0.1,0.3-0.1,0.5H9z"/>
					<path d="M15,75.2c0,0.4,0,0.7-0.1,1c-0.1,0.3-0.2,0.6-0.4,0.8s-0.4,0.4-0.6,0.5s-0.5,0.2-0.8,0.2c-0.1,0-0.3,0-0.4,0
						c-0.1,0-0.2-0.1-0.3-0.1s-0.2-0.1-0.3-0.2s-0.2-0.2-0.4-0.3v0.5c0,0,0,0,0,0.1s0,0-0.1,0c0,0-0.1,0-0.1,0s-0.1,0-0.2,0
						c-0.1,0-0.1,0-0.2,0s-0.1,0-0.1,0c0,0,0,0-0.1,0s0,0,0-0.1v-6.5c0,0,0,0,0-0.1s0,0,0.1,0s0.1,0,0.1,0s0.1,0,0.2,0
						c0.1,0,0.1,0,0.2,0s0.1,0,0.1,0s0.1,0,0.1,0s0,0,0,0.1v2.6c0.1-0.1,0.3-0.2,0.4-0.3s0.2-0.2,0.4-0.2c0.1-0.1,0.2-0.1,0.4-0.1
						s0.2,0,0.4,0c0.3,0,0.6,0.1,0.8,0.2s0.4,0.3,0.6,0.5c0.1,0.2,0.2,0.5,0.3,0.8S15,74.8,15,75.2z M14.2,75.2c0-0.2,0-0.4-0.1-0.7
						c0-0.2-0.1-0.4-0.2-0.6s-0.2-0.3-0.3-0.4c-0.1-0.1-0.3-0.1-0.5-0.1c-0.1,0-0.2,0-0.3,0c-0.1,0-0.2,0.1-0.3,0.1
						c-0.1,0.1-0.2,0.2-0.3,0.3c-0.1,0.1-0.2,0.2-0.4,0.4v1.8c0.2,0.3,0.4,0.5,0.6,0.6s0.4,0.2,0.6,0.2c0.2,0,0.4,0,0.5-0.1
						c0.1-0.1,0.3-0.2,0.4-0.4c0.1-0.2,0.2-0.3,0.2-0.5S14.2,75.4,14.2,75.2z"/>
					<path d="M18.8,68.7h8v10h-8V68.7z M19.3,77.8l3.2-4.1l-3.2-4.1V77.8z M25.9,69.2h-6.4l3.2,4.1L25.9,69.2z M25.9,78.2l-3.2-4.1
						l-3.2,4.1H25.9z M26.3,77.8v-8.2l-3.2,4.1L26.3,77.8z"/>
					<path d="M36.7,69.8v7.6c0,0.9-0.4,0.9-2.3,0.9c0-0.2-0.1-0.5-0.2-0.7c0.4,0,0.7,0,1,0c0.8,0,0.9,0,0.9-0.3v-2.2h-2.9v3h-0.6v-3
						h-2.6c-0.1,1.1-0.5,2.3-1.3,3.2c-0.1-0.1-0.4-0.4-0.5-0.4c1.1-1.3,1.2-3.1,1.2-4.5v-3.7H36.7z M29.9,73.5c0,0.4,0,0.7,0,1.1
						h2.6v-1.7h-2.5V73.5z M32.5,70.5h-2.5v1.8h2.5V70.5z M36,72.2v-1.8h-2.9v1.8H36z M33.1,74.6H36v-1.7h-2.9V74.6z"/>
					<v:paragraph  v:horizAlign="1"></v:paragraph>
					<v:tabList></v:tabList>
				</g>
			</g>
		</g>
		<g id="shape1577-45" transform="translate(132.748,-42.5233)">
			<rect x="0" y="44.5" class="st10" width="80.5" height="20"/>
			<g class="st9">
				<path class="st11" d="M15.9,48.2l-1,0.3v3c0,0.8-0.4,0.8-1.7,0.8c0-0.2-0.1-0.5-0.2-0.6c0.2,0,0.4,0,0.6,0c0.7,0,0.7,0,0.7-0.2
					v-2.8l-1.1,0.3c0,0.1-0.1,0.1-0.1,0.2l-0.2-0.8c0.4-0.1,0.9-0.2,1.5-0.4v-2.3h-1.4v-0.6h1.4v-2.1l0.8,0c0,0.1-0.1,0.1-0.2,0.1
					v1.9h1.2v0.6h-1.2v2.1l0.9-0.3L15.9,48.2z M20.9,48l0.4,0.2c0,0-0.1,0.1-0.1,0.1c-0.4,1-1,1.8-1.8,2.5c0.8,0.5,1.7,0.8,2.7,1
					c-0.2,0.1-0.3,0.4-0.4,0.6c-1.1-0.2-2.1-0.6-2.9-1.2c-0.9,0.6-1.9,0.9-3,1.2c0-0.2-0.2-0.5-0.3-0.6c1-0.2,2-0.5,2.8-1
					c-0.6-0.5-1.1-1.2-1.4-2l0.5-0.2h-1V48h4.3L20.9,48z M20,46c0.4-0.5,0.8-1.2,1.1-1.8l0.7,0.3c0,0.1-0.1,0.1-0.2,0.1
					c-0.3,0.5-0.7,1.1-1,1.6H22v1.7h-0.6v-1.1h-4.7v1.1H16v-1.7h4.4L20,46z M21.6,43.6c0,0-0.1,0-0.1,0c0,0-0.1,0-0.1,0
					c-1.2,0.4-3.4,0.6-5.3,0.7c0-0.2-0.1-0.4-0.2-0.5c1.8-0.1,4-0.4,5.1-0.8L21.6,43.6z M17.1,46.1c-0.1-0.4-0.3-0.9-0.6-1.4
					l0.5-0.2c0.3,0.4,0.5,1,0.6,1.3L17.1,46.1z M17.6,48.6c0.3,0.7,0.8,1.3,1.4,1.8c0.6-0.5,1.2-1.1,1.5-1.8H17.6z M18.7,46
					c0-0.4-0.2-1-0.4-1.5l0.5-0.1c0.2,0.5,0.4,1.1,0.4,1.4L18.7,46z"/>
				<path class="st11" d="M25.3,47c0.4,0.3,1.4,1.2,1.6,1.4l-0.4,0.6c-0.2-0.3-0.8-0.9-1.2-1.4v4.6h-0.7v-4.9
					c-0.4,1.2-1,2.4-1.5,3.1c-0.1-0.2-0.3-0.4-0.4-0.6c0.7-0.9,1.5-2.6,1.8-4h-1.6v-0.6h1.7v-2.2l0.9,0.1c0,0.1-0.1,0.1-0.2,0.1v2
					h1.4v0.6h-1.4V47z M31.5,44l0.4,0.2c0,0-0.1,0.1-0.1,0.1c-0.4,2.3-1.1,4.1-2.1,5.5c0.6,0.8,1.5,1.4,2.5,2.1
					c-0.2,0.1-0.4,0.4-0.5,0.6c-1-0.6-1.8-1.3-2.4-2.1c-0.8,0.9-1.7,1.6-2.8,2.1c-0.1-0.2-0.3-0.4-0.4-0.6c1-0.4,2-1.1,2.8-2.1
					C28,48.5,27.4,47,27.1,45l0.6-0.1c0.3,1.8,0.8,3.2,1.6,4.4c0.8-1.2,1.5-2.7,1.8-4.5h-4.5V44h4.7L31.5,44z"/>
			</g>
			<g class="st9">
				<path class="st11" d="M22.3,58.6c-0.4,0.6-0.9,1.2-1.3,1.7c-0.1-0.2-0.3-0.5-0.4-0.6c1-1,2.1-2.8,2.7-4.5l0.8,0.3
					c0,0.1-0.1,0.1-0.2,0.1c-0.3,0.7-0.6,1.4-1,2.1l0.3,0.1c0,0.1-0.1,0.1-0.2,0.1v6.5h-0.7V58.6z M30,58.5l-3.2,0.4
					c0.4,2.7,1.3,4.8,2.3,4.8c0.3,0,0.5-0.5,0.5-1.9c0.2,0.1,0.4,0.3,0.6,0.4c-0.2,1.7-0.4,2.2-1.1,2.2c-1.5,0-2.4-2.4-2.9-5.5
					l-2.5,0.3l-0.1-0.6l2.5-0.3c-0.1-1-0.2-2.1-0.2-3.1l0.9,0c0,0.1-0.1,0.1-0.2,0.2c0,1,0.1,1.9,0.2,2.9l3.2-0.4L30,58.5z
					 M27.9,55.3c0.6,0.5,1.4,1.1,1.8,1.6l-0.5,0.4c-0.4-0.4-1.1-1.1-1.7-1.6L27.9,55.3z"/>
				<path class="st11" d="M31.4,54.7h8v10h-8V54.7z M31.9,63.8l3.2-4.1l-3.2-4.1V63.8z M38.5,55.2h-6.4l3.2,4.1L38.5,55.2z
					 M38.5,64.2l-3.2-4.1l-3.2,4.1H38.5z M38.9,63.8v-8.2l-3.2,4.1L38.9,63.8z"/>
				<path class="st11" d="M41.1,57.9c0.6,0.3,1.5,0.7,1.9,1l-0.4,0.6c-0.4-0.3-1.2-0.8-1.8-1.1L41.1,57.9z M41,63.8
					c0.5-0.8,1.3-2.1,1.8-3.3l0.5,0.4c-0.5,1.1-1.2,2.3-1.6,3.1c0,0,0,0.1,0,0.1s0,0.1,0,0.1L41,63.8z M41.6,55.2
					c0.6,0.3,1.4,0.7,1.8,1.1L43,56.8c-0.4-0.4-1.2-0.9-1.8-1.2L41.6,55.2z M45,60.9c0,1.1-0.2,2.4-1.5,3.4
					c-0.1-0.2-0.3-0.4-0.5-0.5c1.3-0.9,1.4-2,1.4-3v-1.1l0.8,0c0,0.1-0.1,0.1-0.2,0.1V60.9z M43.6,58.8l1.2,0
					c0.3-0.5,0.7-1.2,0.9-1.7h-2.2v-0.6h2.7v-1.3l0.9,0c0,0.1-0.1,0.1-0.2,0.1v1.1h3.1V57h-3.4c0,0.1-0.1,0.1-0.2,0.1
					c-0.2,0.5-0.6,1.1-0.9,1.6c0.9,0,1.9-0.1,2.9-0.1c-0.3-0.3-0.6-0.6-0.9-0.9l0.5-0.3c0.7,0.6,1.5,1.5,1.9,2.1l-0.5,0.3
					c-0.1-0.2-0.3-0.5-0.5-0.7c-1.8,0.1-3.7,0.2-4.9,0.3c0,0.1-0.1,0.1-0.1,0.1L43.6,58.8z M46.2,63.9v-4L47,60
					c0,0.1-0.1,0.1-0.2,0.1v3.8H46.2z M48.6,63.3c0,0.4,0,0.4,0.2,0.4h0.3c0.3,0,0.3-0.1,0.3-0.3c0-0.2,0-0.5,0-1
					c0.1,0.1,0.3,0.2,0.5,0.3c0,1.2,0,1.6-0.8,1.6h-0.5c-0.7,0-0.7-0.5-0.7-1v-3.3l0.8,0c0,0.1-0.1,0.1-0.2,0.1V63.3z"/>
			</g>
			<v:paragraph  v:horizAlign="1"></v:paragraph>
			<v:tabList></v:tabList>
		</g>
		<g id="shape1578-49" transform="translate(214.796,-21.421)">
			<path class="st0" d="M21.6,39H1.1C0.5,39,0,39.5,0,40.1v16.7C0,57.5,0.5,58,1.1,58h5.3c0.4,1.4,1.7,2.3,3.2,2.3
				c1.8,0,3.3-1.5,3.3-3.4s-1.5-3.4-3.3-3.4c-1.5,0-2.8,0.9-3.2,2.3H2.2v-12h18.3v12H17c-0.5-3.7-3.7-6.6-7.5-6.6
				c-1.3,0-2.5,0.4-3.6,0.9l1,2c0.7-0.4,1.7-0.7,2.6-0.7c2.9,0,5.4,2.4,5.4,5.5c0,3-2.4,5.5-5.4,5.5c-0.9,0-1.8-0.3-2.6-0.7l-1,2
				c1.1,0.6,2.4,0.9,3.6,0.9c3.8,0,7-2.9,7.5-6.6h4.5c0.6,0,1.1-0.5,1.1-1.1V40.1C22.7,39.6,22.2,39,21.6,39z"/>
			<g class="st9">
				<path d="M0.9,77.2c0,0.1,0,0.1,0,0.2c0,0,0,0.1,0,0.1s-0.1,0-0.1,0c-0.1,0-0.1,0-0.2,0s-0.2,0-0.2,0c-0.1,0-0.1,0-0.1,0
					c0,0-0.1,0-0.1,0c0,0,0,0,0-0.1l-0.5-1.5h-2.6l-0.5,1.5c0,0,0,0.1,0,0.1c0,0,0,0-0.1,0.1c0,0-0.1,0-0.1,0c-0.1,0-0.1,0-0.2,0
					c-0.1,0-0.2,0-0.2,0c-0.1,0-0.1,0-0.1,0c0,0,0-0.1,0-0.1c0,0,0-0.1,0-0.2l2.1-5.9c0,0,0-0.1,0.1-0.1c0,0,0.1,0,0.1-0.1
					c0,0,0.1,0,0.2,0c0.1,0,0.1,0,0.2,0c0.1,0,0.2,0,0.3,0s0.1,0,0.2,0s0.1,0,0.1,0.1s0,0.1,0.1,0.1L0.9,77.2z M-1.8,72.1L-1.8,72.1
					l-1.1,3.1h2.2L-1.8,72.1z"/>
				<path d="M5.8,73.1c0,0.3-0.1,0.6-0.2,0.9s-0.3,0.5-0.4,0.6C5,74.7,4.8,74.9,4.5,75c-0.3,0.1-0.6,0.1-1,0.1H2.8v2.3
					c0,0,0,0,0,0.1c0,0,0,0-0.1,0c0,0-0.1,0-0.1,0c-0.1,0-0.1,0-0.2,0s-0.1,0-0.2,0c-0.1,0-0.1,0-0.1,0c0,0-0.1,0-0.1,0s0,0,0-0.1
					v-5.8c0-0.1,0-0.2,0.1-0.3s0.1-0.1,0.2-0.1h1.4c0.1,0,0.3,0,0.4,0c0.1,0,0.3,0,0.4,0.1c0.2,0,0.3,0.1,0.5,0.2
					c0.2,0.1,0.3,0.2,0.5,0.4s0.2,0.3,0.3,0.5C5.8,72.6,5.8,72.8,5.8,73.1z M5,73.1c0-0.3,0-0.5-0.1-0.6c-0.1-0.2-0.2-0.3-0.4-0.4
					C4.3,72,4.2,72,4,71.9c-0.2,0-0.3,0-0.4,0H2.8v2.5h0.8c0.3,0,0.5,0,0.6-0.1c0.2-0.1,0.3-0.2,0.4-0.3c0.1-0.1,0.2-0.3,0.3-0.4
					S5,73.3,5,73.1z"/>
				<path d="M8,77.4C8,77.4,8,77.5,8,77.4c0,0.1-0.1,0.1-0.1,0.1c0,0-0.1,0-0.1,0c-0.1,0-0.1,0-0.2,0c-0.1,0-0.1,0-0.2,0
					c-0.1,0-0.1,0-0.1,0c0,0-0.1,0-0.1,0s0,0,0-0.1v-6.1c0,0,0,0,0-0.1c0,0,0,0,0.1,0c0,0,0.1,0,0.1,0c0.1,0,0.1,0,0.2,0
					c0.1,0,0.1,0,0.2,0c0.1,0,0.1,0,0.1,0c0,0,0.1,0,0.1,0s0,0,0,0.1V77.4z"/>
				<path d="M12.1,68.7h8v10h-8V68.7z M12.6,77.8l3.2-4.1l-3.2-4.1V77.8z M19.2,69.2h-6.4l3.2,4.1L19.2,69.2z M19.2,78.2l-3.2-4.1
					l-3.2,4.1H19.2z M19.6,77.8v-8.2l-3.2,4.1L19.6,77.8z"/>
				<path d="M30,69.8v7.6c0,0.9-0.4,0.9-2.3,0.9c0-0.2-0.1-0.5-0.2-0.7c0.4,0,0.7,0,1,0c0.8,0,0.9,0,0.9-0.3v-2.2h-2.9v3h-0.6v-3
					h-2.6c-0.2,1.1-0.5,2.3-1.3,3.2c-0.1-0.1-0.4-0.4-0.5-0.4c1.1-1.3,1.2-3.1,1.2-4.5v-3.7H30z M23.2,73.5c0,0.4,0,0.7,0,1.1h2.6
					v-1.7h-2.5V73.5z M25.8,70.5h-2.5v1.8h2.5V70.5z M29.3,72.2v-1.8h-2.9v1.8H29.3z M26.4,74.6h2.9v-1.7h-2.9V74.6z"/>
				<v:paragraph  v:horizAlign="1"></v:paragraph>
				<v:tabList></v:tabList>
			</g>
		</g>
		<g id="shape1579-52" transform="translate(73.5133,-41.2635)">
			<g transform="scale(-2.68,-2.68) ">
				<g id="lend5">
					<path class="st7" d="M132.8,67.6l8,4l-8,4C134.1,73.1,134.1,70.1,132.8,67.6"/>
				</g>
			</g>
		</g>
		<g id="group1580-58" transform="translate(0.375,-25.6729)">
			<g id="group1581-59">
				<g id="group1582-60">
					<g id="group1583-61" transform="translate(3.8518,-6.4617)">
						<g id="shape1584-62">
							<path class="st0" d="M3.6,54.6c-2.3,0.6-3.6,3.1-3,5.7c0.7,2.6,3,4.2,5.3,3.7c2.3-0.6,3.6-3.1,3-5.7
								C8.3,55.6,5.9,54,3.6,54.6z"/>
						</g>
					</g>
					<g id="group1585-64">
						<g id="shape1586-65">
							<path class="st0" d="M12.4,58.2c-0.4,0-0.9,0.8-1.5,1.1c-0.7,0.3-1.3,0.9-3.2,0c-1.9-0.9-2.1-1.7-3.6-1.7
								c-1.5,0-4.1,2.8-4.1,6.9h15.6c0,0-0.2-2.8-1.1-4.2C13.4,58.2,12.9,58.2,12.4,58.2z"/>
						</g>
					</g>
				</g>
			</g>
			<g id="group1587-67" transform="translate(9.0485,-0.85947)">
				<g id="shape1588-68">
					<path class="st5" d="M4.8,54.1H0.7c-0.3,0-0.6,0.3-0.6,0.7v2.8c0,0.3,0.3,0.7,0.8,0.7h0.8v5.2c0,0.6,0.4,1.1,1,1.1s1-0.4,1-1
						c0.1,0,0.2,0,0.2,0s0-0.5,0-0.7c0-0.2,0.3-0.3,0.3-0.3v-0.3c-0.3-0.1-0.5-0.3-0.5-0.4v-0.3c0.1-0.1,0.2-0.2,0.2-0.2
						C3.8,61.1,4,60.7,4,60.7s-0.3-0.4-0.3-0.5c-0.1-0.1-0.1-0.3-0.2-0.4v-0.2c0.1-0.5,0.8-1.1,0.8-1.1h0.5c0.3,0,0.7-0.3,0.7-0.7
						v-3C5.4,54.4,5.2,54.1,4.8,54.1z M2.4,63.7c0,0.2,0,0.3-0.2,0.3C2,64,2,63.8,2,63.7v-4.8c0-0.2,0.1-0.3,0.2-0.3
						c0.2,0,0.2,0.2,0.2,0.3V63.7z M2.7,55.9c-0.3,0-0.7-0.3-0.7-0.7c0-0.3,0.3-0.7,0.7-0.7c0.3,0,0.6,0.3,0.6,0.7
						C3.4,55.5,3.1,55.9,2.7,55.9z"/>
				</g>
				<g id="shape1589-70" transform="translate(1.92482,-0.570755)">
					<path class="st6" d="M0.2,64.5c-0.1,0-0.2-0.1-0.2-0.2v-5c0-0.1,0.1-0.2,0.2-0.2s0.2,0.1,0.2,0.2v5.1
						C0.4,64.5,0.3,64.5,0.2,64.5z"/>
				</g>
				<g id="shape1590-72" transform="translate(2.05993,-8.66317)">
					<ellipse class="st6" cx="0.7" cy="63.9" rx="0.7" ry="0.7"/>
				</g>
			</g>
		</g>
	</g>
</g>
</svg>
