<svg xmlns="http://www.w3.org/2000/svg" xmlns:xlink="http://www.w3.org/1999/xlink" viewBox="0 0 316 315.2"><defs><style>.cls-1,.cls-3{fill:#fff;}.cls-15,.cls-2,.cls-5{fill:#3c3c41;}.cls-2{opacity:0.05;}.cls-2,.cls-3,.cls-4,.cls-5{isolation:isolate;}.cls-3{opacity:0.6;}.cls-14,.cls-16,.cls-17,.cls-30,.cls-4{fill:none;}.cls-4{stroke:#75757a;stroke-width:0.5px;opacity:0.5;}.cls-14,.cls-16,.cls-17,.cls-4{stroke-miterlimit:10;}.cls-5{opacity:0.2;}.cls-6{fill:#ccc;fill-opacity:0.3;}.cls-7{fill:url(#Degradado_sin_nombre);}.cls-8{fill:#50e6ff;}.cls-9{fill:#c3f1ff;}.cls-10{fill:#9cebff;}.cls-11{fill:url(#Degradado_sin_nombre_2);}.cls-12{fill:url(#Degradado_sin_nombre_3);}.cls-13{fill:url(#Degradado_sin_nombre_4);}.cls-14,.cls-16,.cls-17{stroke:#3c3c41;}.cls-16{stroke-dasharray:1.46 2.43;}.cls-17{stroke-dasharray:1.31 2.19;}.cls-18{fill:url(#Degradado_sin_nombre_5);}.cls-19{fill:url(#Degradado_sin_nombre_6);}.cls-20{fill:url(#Degradado_sin_nombre_7);}.cls-21{fill:#1490df;}.cls-22{fill:url(#Degradado_sin_nombre_8);}.cls-23{fill:url(#Degradado_sin_nombre_9);}.cls-24{fill:url(#Degradado_sin_nombre_10);}.cls-25{fill:url(#Degradado_sin_nombre_11);}.cls-26{fill:url(#Degradado_sin_nombre_12);}.cls-27{fill:url(#Degradado_sin_nombre_13);}.cls-28{fill:url(#Degradado_sin_nombre_14);}.cls-29{fill:url(#Degradado_sin_nombre_15);}.cls-31{fill:#6ebcdb;}.cls-32{fill:#5db4d7;}.cls-33{fill:#e6e6e6;}.cls-34{fill:#86d633;}.cls-35{fill:#1e1e1e;}</style><linearGradient id="Degradado_sin_nombre" x1="39.57" y1="240.22" x2="39.57" y2="221.46" gradientTransform="translate(0 -74.26)" gradientUnits="userSpaceOnUse"><stop offset="0" stop-color="#0078d4"/><stop offset="0.82" stop-color="#5ea0ef"/></linearGradient><linearGradient id="Degradado_sin_nombre_2" x1="39.57" y1="247.46" x2="39.57" y2="240.22" gradientTransform="translate(0 -74.26)" gradientUnits="userSpaceOnUse"><stop offset="0.15" stop-color="#ccc"/><stop offset="1" stop-color="#707070"/></linearGradient><linearGradient id="Degradado_sin_nombre_3" x1="76.43" y1="240.22" x2="76.43" y2="221.46" xlink:href="#Degradado_sin_nombre"/><linearGradient id="Degradado_sin_nombre_4" x1="76.43" y1="247.46" x2="76.43" y2="240.22" xlink:href="#Degradado_sin_nombre_2"/><linearGradient id="Degradado_sin_nombre_5" x1="24.5" y1="301.79" x2="26.87" y2="304.15" gradientTransform="translate(3.03 -74.68)" gradientUnits="userSpaceOnUse"><stop offset="0" stop-color="#86d633"/><stop offset="0.24" stop-color="#83d232"/><stop offset="0.5" stop-color="#7cc52f"/><stop offset="0.76" stop-color="#6fb02a"/><stop offset="1" stop-color="#5e9624"/></linearGradient><linearGradient id="Degradado_sin_nombre_6" x1="19.15" y1="301.79" x2="21.51" y2="304.15" xlink:href="#Degradado_sin_nombre_5"/><linearGradient id="Degradado_sin_nombre_7" x1="13.81" y1="301.78" x2="16.17" y2="304.15" xlink:href="#Degradado_sin_nombre_5"/><linearGradient id="Degradado_sin_nombre_8" x1="139.57" y1="240.22" x2="139.57" y2="221.46" xlink:href="#Degradado_sin_nombre"/><linearGradient id="Degradado_sin_nombre_9" x1="139.57" y1="247.46" x2="139.57" y2="240.22" xlink:href="#Degradado_sin_nombre_2"/><linearGradient id="Degradado_sin_nombre_10" x1="176.43" y1="240.22" x2="176.43" y2="221.46" xlink:href="#Degradado_sin_nombre"/><linearGradient id="Degradado_sin_nombre_11" x1="176.43" y1="247.46" x2="176.43" y2="240.22" xlink:href="#Degradado_sin_nombre_2"/><linearGradient id="Degradado_sin_nombre_12" x1="239.57" y1="240.22" x2="239.57" y2="221.46" xlink:href="#Degradado_sin_nombre"/><linearGradient id="Degradado_sin_nombre_13" x1="239.57" y1="247.46" x2="239.57" y2="240.22" xlink:href="#Degradado_sin_nombre_2"/><linearGradient id="Degradado_sin_nombre_14" x1="276.43" y1="240.22" x2="276.43" y2="221.46" xlink:href="#Degradado_sin_nombre"/><linearGradient id="Degradado_sin_nombre_15" x1="276.43" y1="247.46" x2="276.43" y2="240.22" xlink:href="#Degradado_sin_nombre_2"/></defs><title>OJ104903206</title><g id="Target"><g id="Shapes"><rect class="cls-1" width="316" height="315.2"/><rect class="cls-1" x="0.5" y="75.2" width="315" height="151.85" rx="5"/><rect class="cls-2" x="0.5" y="75.2" width="315" height="151.85" rx="5"/><rect class="cls-3" x="10.5" y="15.2" width="95" height="200"/><rect class="cls-4" x="10.5" y="15.2" width="95" height="200"/><rect class="cls-1" x="15.99" y="120.2" width="84.51" height="90" rx="0.3"/><rect class="cls-5" x="15.99" y="120.2" width="84.51" height="90" rx="0.3"/><rect class="cls-6" x="160.5" y="240.2" width="155" height="35"/><rect class="cls-6" x="160.5" y="280.2" width="155" height="35"/><rect class="cls-7" x="25.5" y="147.2" width="28.14" height="18.76" rx="0.94"/><polygon class="cls-8" points="44.26 153.85 44.26 159.3 39.57 162.05 39.57 156.58 44.26 153.85"/><polygon class="cls-9" points="44.26 153.85 39.57 156.6 34.88 153.85 39.57 151.11 44.26 153.85"/><polygon class="cls-10" points="39.57 156.6 39.57 162.05 34.88 159.3 34.88 153.85 39.57 156.6"/><polygon class="cls-9" points="34.88 159.3 39.57 156.58 39.57 162.05 34.88 159.3"/><polygon class="cls-10" points="44.26 159.3 39.57 156.58 39.57 162.05 44.26 159.3"/><path class="cls-11" d="M45.21,171.64c-2.78-.44-2.89-2.44-2.89-5.68H36.8c0,3.24-.09,5.24-2.87,5.68a1.55,1.55,0,0,0-1.39,1.56H46.61A1.57,1.57,0,0,0,45.21,171.64Z"/><rect class="cls-12" x="62.36" y="147.2" width="28.14" height="18.76" rx="0.94"/><polygon class="cls-8" points="81.12 153.85 81.12 159.3 76.43 162.05 76.43 156.58 81.12 153.85"/><polygon class="cls-9" points="81.12 153.85 76.43 156.6 71.74 153.85 76.43 151.11 81.12 153.85"/><polygon class="cls-10" points="76.43 156.6 76.43 162.05 71.74 159.3 71.74 153.85 76.43 156.6"/><polygon class="cls-9" points="71.74 159.3 76.43 156.58 76.43 162.05 71.74 159.3"/><polygon class="cls-10" points="81.12 159.3 76.43 156.58 76.43 162.05 81.12 159.3"/><path class="cls-13" d="M82.07,171.64c-2.78-.44-2.89-2.44-2.89-5.68H73.66c0,3.24-.09,5.24-2.87,5.68a1.57,1.57,0,0,0-1.4,1.56H83.46A1.55,1.55,0,0,0,82.07,171.64Z"/><line class="cls-14" x1="58.25" y1="120.2" x2="58.25" y2="55.2"/><line class="cls-14" x1="50.72" y1="112.67" x2="50.72" y2="100.98"/><polygon class="cls-15" points="53.71 101.85 50.72 96.67 47.73 101.85 53.71 101.85"/><line class="cls-14" x1="65.77" y1="108.37" x2="65.77" y2="107.62"/><line class="cls-16" x1="65.77" y1="105.19" x2="65.77" y2="98.64"/><line class="cls-14" x1="65.77" y1="97.42" x2="65.77" y2="96.67"/><polygon class="cls-15" points="68.76 107.49 65.77 112.67 62.78 107.49 68.76 107.49"/><line class="cls-14" x1="169.81" y1="250.2" x2="180.93" y2="250.2"/><polygon class="cls-15" points="170.68 253.19 165.5 250.2 170.68 247.21 170.68 253.19"/><line class="cls-14" x1="176.19" y1="290.2" x2="175.44" y2="290.2"/><line class="cls-17" x1="173.25" y1="290.2" x2="167.34" y2="290.2"/><line class="cls-14" x1="166.25" y1="290.2" x2="165.5" y2="290.2"/><polygon class="cls-15" points="175.32 287.21 180.5 290.2 175.32 293.19 175.32 287.21"/><circle class="cls-18" cx="28.4" cy="227.97" r="1.67"/><circle class="cls-19" cx="23.06" cy="227.99" r="1.67"/><circle class="cls-20" cx="17.72" cy="227.99" r="1.67"/><path class="cls-8" d="M18.93,234.68l-1,1a.43.43,0,0,1-.61,0h0l-7.09-7.08a.88.88,0,0,1,0-1.22h0l1-1h0l7.71,7.69a.43.43,0,0,1,0,.61h0Z"/><path class="cls-21" d="M17.83,220.35l1,1a.43.43,0,0,1,0,.61h0l-7.57,7.6h0l-1-1a.89.89,0,0,1,0-1.23h0l7-7A.43.43,0,0,1,17.83,220.35Z"/><path class="cls-8" d="M34.78,226.37l1,1a.87.87,0,0,1,0,1.23h0l-7.1,7.07a.43.43,0,0,1-.61,0h0l-1-1a.43.43,0,0,1,0-.61h0Z"/><path class="cls-21" d="M35.74,228.55l-1,1h0L27.17,222a.43.43,0,0,1,0-.61h0l1-1a.43.43,0,0,1,.61,0h0l7,7a.89.89,0,0,1,0,1.23h0Z"/><rect class="cls-1" x="40.75" y="20.2" width="35" height="35"/><rect class="cls-5" x="40.75" y="20.2" width="35" height="35"/><rect class="cls-3" x="110.5" y="15.2" width="95" height="200"/><rect class="cls-4" x="110.5" y="15.2" width="95" height="200"/><rect class="cls-1" x="115.99" y="120.2" width="84.51" height="90" rx="0.3"/><rect class="cls-5" x="115.99" y="120.2" width="84.51" height="90" rx="0.3"/><rect class="cls-22" x="125.5" y="147.2" width="28.14" height="18.76" rx="0.94"/><polygon class="cls-8" points="144.26 153.85 144.26 159.3 139.57 162.05 139.57 156.58 144.26 153.85"/><polygon class="cls-9" points="144.26 153.85 139.57 156.6 134.88 153.85 139.57 151.11 144.26 153.85"/><polygon class="cls-10" points="139.57 156.6 139.57 162.05 134.88 159.3 134.88 153.85 139.57 156.6"/><polygon class="cls-9" points="134.88 159.3 139.57 156.58 139.57 162.05 134.88 159.3"/><polygon class="cls-10" points="144.26 159.3 139.57 156.58 139.57 162.05 144.26 159.3"/><path class="cls-23" d="M145.21,171.64c-2.78-.44-2.89-2.44-2.89-5.68H136.8c0,3.24-.09,5.24-2.87,5.68a1.55,1.55,0,0,0-1.39,1.56h14.07A1.57,1.57,0,0,0,145.21,171.64Z"/><rect class="cls-24" x="162.36" y="147.2" width="28.14" height="18.76" rx="0.94"/><polygon class="cls-8" points="181.12 153.85 181.12 159.3 176.43 162.05 176.43 156.58 181.12 153.85"/><polygon class="cls-9" points="181.12 153.85 176.43 156.6 171.74 153.85 176.43 151.11 181.12 153.85"/><polygon class="cls-10" points="176.43 156.6 176.43 162.05 171.74 159.3 171.74 153.85 176.43 156.6"/><polygon class="cls-9" points="171.74 159.3 176.43 156.58 176.43 162.05 171.74 159.3"/><polygon class="cls-10" points="181.12 159.3 176.43 156.58 176.43 162.05 181.12 159.3"/><path class="cls-25" d="M182.07,171.64c-2.78-.44-2.89-2.44-2.89-5.68h-5.52c0,3.24-.09,5.24-2.87,5.68a1.57,1.57,0,0,0-1.4,1.56h14.07A1.55,1.55,0,0,0,182.07,171.64Z"/><line class="cls-14" x1="158.25" y1="120.2" x2="158.25" y2="55.2"/><line class="cls-14" x1="150.72" y1="112.67" x2="150.72" y2="100.98"/><polygon class="cls-15" points="153.71 101.85 150.72 96.67 147.73 101.85 153.71 101.85"/><line class="cls-14" x1="165.77" y1="108.37" x2="165.77" y2="107.62"/><line class="cls-16" x1="165.77" y1="105.19" x2="165.77" y2="98.64"/><line class="cls-14" x1="165.77" y1="97.42" x2="165.77" y2="96.67"/><polygon class="cls-15" points="168.76 107.49 165.77 112.67 162.78 107.49 168.76 107.49"/><rect class="cls-1" x="140.75" y="20.2" width="35" height="35"/><rect class="cls-5" x="140.75" y="20.2" width="35" height="35"/><rect class="cls-3" x="210.5" y="15.2" width="95" height="200"/><rect class="cls-4" x="210.5" y="15.2" width="95" height="200"/><rect class="cls-1" x="215.99" y="120.2" width="84.51" height="90" rx="0.3"/><rect class="cls-5" x="215.99" y="120.2" width="84.51" height="90" rx="0.3"/><rect class="cls-26" x="225.5" y="147.2" width="28.14" height="18.76" rx="0.94"/><polygon class="cls-8" points="244.26 153.85 244.26 159.3 239.57 162.05 239.57 156.58 244.26 153.85"/><polygon class="cls-9" points="244.26 153.85 239.57 156.6 234.88 153.85 239.57 151.11 244.26 153.85"/><polygon class="cls-10" points="239.57 156.6 239.57 162.05 234.88 159.3 234.88 153.85 239.57 156.6"/><polygon class="cls-9" points="234.88 159.3 239.57 156.58 239.57 162.05 234.88 159.3"/><polygon class="cls-10" points="244.26 159.3 239.57 156.58 239.57 162.05 244.26 159.3"/><path class="cls-27" d="M245.21,171.64c-2.78-.44-2.89-2.44-2.89-5.68H236.8c0,3.24-.09,5.24-2.87,5.68a1.55,1.55,0,0,0-1.39,1.56h14.07A1.57,1.57,0,0,0,245.21,171.64Z"/><rect class="cls-28" x="262.36" y="147.2" width="28.14" height="18.76" rx="0.94"/><polygon class="cls-8" points="281.12 153.85 281.12 159.3 276.43 162.05 276.43 156.58 281.12 153.85"/><polygon class="cls-9" points="281.12 153.85 276.43 156.6 271.74 153.85 276.43 151.11 281.12 153.85"/><polygon class="cls-10" points="276.43 156.6 276.43 162.05 271.74 159.3 271.74 153.85 276.43 156.6"/><polygon class="cls-9" points="271.74 159.3 276.43 156.58 276.43 162.05 271.74 159.3"/><polygon class="cls-10" points="281.12 159.3 276.43 156.58 276.43 162.05 281.12 159.3"/><path class="cls-29" d="M282.07,171.64c-2.78-.44-2.89-2.44-2.89-5.68h-5.52c0,3.24-.09,5.24-2.87,5.68a1.57,1.57,0,0,0-1.4,1.56h14.07A1.55,1.55,0,0,0,282.07,171.64Z"/><line class="cls-14" x1="258.25" y1="120.2" x2="258.25" y2="55.2"/><line class="cls-14" x1="250.72" y1="112.67" x2="250.72" y2="100.98"/><polygon class="cls-15" points="253.71 101.85 250.72 96.67 247.73 101.85 253.71 101.85"/><line class="cls-14" x1="265.77" y1="108.37" x2="265.77" y2="107.62"/><line class="cls-16" x1="265.77" y1="105.19" x2="265.77" y2="98.64"/><line class="cls-14" x1="265.77" y1="97.42" x2="265.77" y2="96.67"/><polygon class="cls-15" points="268.76 107.49 265.77 112.67 262.78 107.49 268.76 107.49"/><rect class="cls-1" x="240.75" y="20.2" width="35" height="35"/><rect class="cls-5" x="240.75" y="20.2" width="35" height="35"/><rect class="cls-30" x="0.5" y="75.2" width="315" height="151.85" rx="5"/><path class="cls-15" d="M309.34,227.55h-1v-1h1Zm-3,0h-1v-1h1Zm-3,0h-1v-1h1Zm-3,0h-1v-1h1Zm-3,0h-1v-1h1Zm-3,0h-1v-1h1Zm-3,0h-1v-1h1Zm-3,0h-1v-1h1Zm-3,0h-1v-1h1Zm-3,0h-1v-1h1Zm-3,0h-1v-1h1Zm-3,0h-1v-1h1Zm-3,0h-1v-1h1Zm-3,0h-1v-1h1Zm-3,0h-1v-1h1Zm-3,0h-1v-1h1Zm-3,0h-1v-1h1Zm-3,0h-1v-1h1Zm-3,0h-1v-1h1Zm-3,0h-1v-1h1Zm-3,0h-1v-1h1Zm-3,0h-1v-1h1Zm-3,0h-1v-1h1Zm-3,0h-1v-1h1Zm-3,0h-1v-1h1Zm-3,0h-1v-1h1Zm-3,0h-1v-1h1Zm-3,0h-1v-1h1Zm-3,0h-1v-1h1Zm-3,0h-1v-1h1Zm-3,0h-1v-1h1Zm-3,0h-1v-1h1Zm-3,0h-1v-1h1Zm-3,0h-1v-1h1Zm-3,0h-1v-1h1Zm-3,0h-1v-1h1Zm-3,0h-1v-1h1Zm-3,0h-1v-1h1Zm-3,0h-1v-1h1Zm-3,0h-1v-1h1Zm-3,0h-1v-1h1Zm-3,0h-1v-1h1Zm-3,0h-1v-1h1Zm-3,0h-1v-1h1Zm-3,0h-1v-1h1Zm-3,0h-1v-1h1Zm-3,0h-1v-1h1Zm-3,0h-1v-1h1Zm-3,0h-1v-1h1Zm-3,0h-1v-1h1Zm-3,0h-1v-1h1Zm-3,0h-1v-1h1Zm-3,0h-1v-1h1Zm-3,0h-1v-1h1Zm-3,0h-1v-1h1Zm-3,0h-1v-1h1Zm-3,0h-1v-1h1Zm-3,0h-1v-1h1Zm-3,0h-1v-1h1Zm-3,0h-1v-1h1Zm-3,0h-1v-1h1Zm-3,0h-1v-1h1Zm-3,0h-1v-1h1Zm-3,0h-1v-1h1Zm-3,0h-1v-1h1Zm-3,0h-1v-1h1Zm-3,0h-1v-1h1Zm-3,0h-1v-1h1Zm-3,0h-1v-1h1Zm-3,0h-1v-1h1Zm-3,0h-1v-1h1Zm-3,0h-1v-1h1Zm-3,0h-1v-1h1Zm-3,0h-1v-1h1Zm-3,0h-1v-1h1Zm-3,0h-1v-1h1Zm-3,0h-1v-1h1Zm-3,0h-1v-1h1Zm-3,0h-1v-1h1Zm-3,0h-1v-1h1Zm-3,0h-1v-1h1Zm-3,0h-1v-1h1Zm-3,0h-1v-1h1Zm-3,0h-1v-1h1Zm-3,0h-1v-1h1Zm-3,0h-1v-1h1Zm-3,0h-1v-1h1Zm-3,0H47v-1h1Zm-3,0H44v-1h1Zm-3,0H41v-1h1Zm-3,0H38v-1h1Zm-33,0H5l.1-1H6Zm305.42-.08-.16-1a4.4,4.4,0,0,0,.86-.24l.37.93a5.64,5.64,0,0,1-1.41.31ZM3.2,226.87a6.34,6.34,0,0,1-.91-.62l.65-.77a4.7,4.7,0,0,0,.74.52ZM314.32,226l-.69-.72a4.82,4.82,0,0,0,.58-.69l.82.57A5.18,5.18,0,0,1,314.32,226ZM.6,224.54a5.09,5.09,0,0,1-.4-1l1-.27a4.31,4.31,0,0,0,.33.84Zm315.29-1.39-1-.2a4.58,4.58,0,0,0,.09-.9l1-.06v.06A5.06,5.06,0,0,1,315.89,223.15ZM1,221.39H0v-1H1ZM316,220h-1v-1h1ZM1,218.39H0v-1H1ZM316,217h-1v-1h1ZM1,215.38H0v-1H1ZM316,214h-1v-1h1ZM1,212.38H0v-1H1ZM316,211h-1v-1h1ZM1,209.38H0v-1H1ZM316,208h-1v-1h1ZM1,206.37H0v-1H1ZM316,205h-1v-1h1ZM1,203.37H0v-1H1ZM316,202h-1v-1h1ZM1,200.37H0v-1H1ZM316,199h-1v-1h1ZM1,197.36H0v-1H1ZM316,196h-1v-1h1ZM1,194.36H0v-1H1ZM316,193h-1v-1h1ZM1,191.36H0v-1H1ZM316,190h-1v-1h1ZM1,188.35H0v-1H1ZM316,187h-1v-1h1ZM1,185.35H0v-1H1ZM316,184h-1v-1h1ZM1,182.35H0v-1H1ZM316,181h-1v-1h1ZM1,179.34H0v-1H1Zm315-1.4h-1v-1h1ZM1,176.34H0v-1H1Zm315-1.4h-1v-1h1ZM1,173.34H0v-1H1Zm315-1.4h-1v-1h1ZM1,170.33H0v-1H1Zm315-1.4h-1v-1h1ZM1,167.33H0v-1H1Zm315-1.4h-1v-1h1ZM1,164.33H0v-1H1Zm315-1.4h-1v-1h1ZM1,161.32H0v-1H1Zm315-1.4h-1v-1h1ZM1,158.32H0v-1H1Zm315-1.4h-1v-1h1ZM1,155.32H0v-1H1Zm315-1.4h-1v-1h1ZM1,152.31H0v-1H1Zm315-1.4h-1v-1h1ZM1,149.31H0v-1H1Zm315-1.4h-1v-1h1ZM1,146.3H0v-1H1Zm315-1.39h-1v-1h1ZM1,143.3H0v-1H1Zm315-1.4h-1v-1h1ZM1,140.3H0v-1H1Zm315-1.4h-1v-1h1ZM1,137.29H0v-1H1Zm315-1.39h-1v-1h1ZM1,134.29H0v-1H1Zm315-1.4h-1v-1h1ZM1,131.29H0v-1H1Zm315-1.4h-1v-1h1ZM1,128.28H0v-1H1Zm315-1.39h-1v-1h1ZM1,125.28H0v-1H1Zm315-1.4h-1v-1h1ZM1,122.28H0v-1H1Zm315-1.4h-1v-1h1ZM1,119.27H0v-1H1Zm315-1.39h-1v-1h1ZM1,116.27H0v-1H1Zm315-1.4h-1v-1h1ZM1,113.27H0v-1H1Zm315-1.4h-1v-1h1ZM1,110.26H0v-1H1Zm315-1.39h-1v-1h1ZM1,107.26H0v-1H1Zm315-1.4h-1v-1h1ZM1,104.26H0v-1H1Zm315-1.4h-1v-1h1ZM1,101.25H0v-1H1Zm315-1.39h-1v-1h1ZM1,98.25H0v-1H1Zm315-1.4h-1v-1h1ZM1,95.25H0v-1H1Zm315-1.4h-1v-1h1ZM1,92.24H0v-1H1Zm315-1.4h-1v-1h1ZM1,89.24H0v-1H1Zm315-1.4h-1v-1h1ZM1,86.24H0v-1H1Zm315-1.4h-1v-1h1ZM1,83.23H0v-1H1Zm315-1.4h-1v-1h1ZM0,80.23H0a6.24,6.24,0,0,1,.1-1.06l1,.19a4.81,4.81,0,0,0-.1.84ZM314.83,79a4,4,0,0,0-.33-.83l.89-.46a5.09,5.09,0,0,1,.4,1Zm-313-1.3L1,77.12a6.24,6.24,0,0,1,.7-.84l.7.71a5.09,5.09,0,0,0-.62.69Zm311.6-.93a4.58,4.58,0,0,0-.74-.5l.48-.88a5.48,5.48,0,0,1,.9.61ZM3.85,76l-.36-.93a5,5,0,0,1,1-.29l.18,1A4.73,4.73,0,0,0,3.85,76Zm307.08-.29H310v-1h1.05Zm-3,0h-1v-1h1Zm-3,0h-1v-1h1Zm-3,0h-1v-1h1Zm-3,0h-1v-1h1Zm-3,0h-1v-1h1Zm-3,0h-1v-1h1Zm-3,0h-1v-1h1Zm-3,0h-1v-1h1Zm-3,0h-1v-1h1Zm-3,0h-1v-1h1Zm-3,0h-1v-1h1Zm-3,0h-1v-1h1Zm-3,0h-1v-1h1Zm-3,0h-1v-1h1Zm-3,0h-1v-1h1Zm-3,0h-1v-1h1Zm-3,0h-1v-1h1Zm-3,0h-1v-1h1Zm-3,0h-1v-1h1Zm-3,0h-1v-1h1Zm-3,0h-1v-1h1Zm-3,0h-1v-1h1Zm-3,0h-1v-1h1Zm-3,0h-1v-1h1Zm-3,0h-1v-1h1Zm-3,0h-1v-1h1Zm-3,0h-1v-1h1Zm-3,0h-1v-1h1Zm-3,0h-1v-1h1Zm-3,0h-1v-1h1Zm-3,0h-1v-1h1Zm-3,0h-1v-1h1Zm-3,0h-1v-1h1Zm-3,0h-1v-1h1Zm-3,0h-1v-1h1Zm-3,0h-1v-1h1Zm-3,0h-1v-1h1Zm-3,0h-1v-1h1Zm-3,0h-1v-1h1Zm-3,0h-1v-1h1Zm-3,0h-1v-1h1Zm-3,0h-1v-1h1Zm-3,0h-1v-1h1Zm-3,0h-1v-1h1Zm-3,0h-1v-1h1Zm-3,0h-1v-1h1Zm-3,0h-1v-1h1Zm-3,0h-1v-1h1Zm-3,0h-1v-1h1Zm-3,0h-1v-1h1Zm-3,0h-1v-1h1Zm-3,0h-1v-1h1Zm-3,0h-1v-1h1Zm-3,0h-1v-1h1Zm-3,0h-1v-1h1Zm-3,0h-1v-1h1Zm-3,0h-1v-1h1Zm-3,0h-1v-1h1Zm-3,0h-1v-1h1Zm-3,0h-1v-1h1Zm-3,0h-1v-1h1Zm-3,0h-1v-1h1Zm-3,0h-1v-1h1Zm-3,0h-1v-1h1Zm-3,0h-1v-1h1Zm-3,0h-1v-1h1Zm-3,0h-1v-1h1Zm-3,0h-1v-1h1Zm-3,0h-1v-1h1Zm-3,0h-1v-1h1Zm-3,0h-1v-1h1Zm-3,0h-1v-1h1Zm-3,0h-1v-1h1Zm-3,0h-1v-1h1Zm-3,0h-1v-1h1Zm-3,0h-1v-1h1Zm-3,0h-1v-1h1Zm-3,0h-1v-1h1Zm-3,0h-1v-1h1Zm-3,0h-1v-1h1Zm-3,0h-1v-1h1Zm-3,0h-1v-1h1Zm-3,0h-1v-1h1Zm-3,0h-1v-1h1Zm-3,0h-1v-1h1Zm-3,0h-1v-1h1Zm-3,0h-1v-1h1Zm-3,0h-1v-1h1Zm-3,0h-1v-1h1Zm-3,0h-1v-1h1Zm-3,0h-1v-1h1Zm-3,0h-1v-1h1Zm-3,0h-1v-1h1Zm-3,0h-1v-1h1Zm-3,0h-1v-1h1Zm-3,0h-1v-1h1Zm-3,0h-1v-1h1Zm-3,0h-1v-1h1Zm-3,0h-1v-1h1Zm-3,0h-1v-1h1Zm-3,0h-1v-1h1Z"/><g id="ad94e297-0e86-4eaf-aac0-d146ee9aea65"><path class="cls-31" d="M54.12,83.24,49.43,78.4a2.28,2.28,0,0,1-.77.14,2.43,2.43,0,1,1,2.24-3.33h4.61v1.62H51a3.64,3.64,0,0,1-.25.57L55,81.86l2.34-3.56V67.12H54.22l4-4,4,4H59v8.73l5.93-9-6-6a1,1,0,0,0-1.41-.05l-.05.05h0L43,75.28a1,1,0,0,0,0,1.41l0,0h0l14.48,14.5-5.17-5.17Z"/><path class="cls-32" d="M57.37,83.45V78.28L55,81.86l1.72,1.85A1.68,1.68,0,0,1,57.37,83.45Z"/><path class="cls-32" d="M73.4,75.28l-8.48-8.47-5.93,9v7.62a1.57,1.57,0,0,1,.54.29l6.22-6.29a2.53,2.53,0,0,1-.31-.64H60.77V75.21h4.74a2.41,2.41,0,1,1,2.24,3.33,3.1,3.1,0,0,1-.68-.1L60.46,85.1a2.59,2.59,0,0,1,.1.62,2.43,2.43,0,1,1-4.84.44,2.18,2.18,0,0,1,0-.25,2.24,2.24,0,0,1,.13-.89l-1.72-1.73-1.85,2.76,5.17,5.17a1,1,0,0,0,1.41,0l0,0L73.36,76.75a1,1,0,0,0,0-1.41s0,0,0,0Z"/><path class="cls-33" d="M65.51,75.21H60.77v1.62h4.67A2.21,2.21,0,0,1,65.51,75.21Z"/><path class="cls-33" d="M51,76.83h4.55V75.21H50.9a2.54,2.54,0,0,1,.19.9A2.19,2.19,0,0,1,51,76.83Z"/><path class="cls-33" d="M60.46,85.1l6.61-6.66a2.44,2.44,0,0,1-1.32-1l-6.22,6.29A2.33,2.33,0,0,1,60.46,85.1Z"/><path class="cls-33" d="M56.81,83.71l-1.73-1.85L50.71,77.4a2.45,2.45,0,0,1-1.28,1l4.69,4.84L55.84,85A2.32,2.32,0,0,1,56.81,83.71Z"/><path class="cls-1" d="M62.13,67.12l-3.93-4-4,4h3.15V83.45a1.68,1.68,0,0,0-.56.26,2.38,2.38,0,0,0-1,1.31,2.41,2.41,0,0,0,4.62,1.39,2.3,2.3,0,0,0,.1-.69,2.59,2.59,0,0,0-.1-.62,2.36,2.36,0,0,0-.93-1.34,1.57,1.57,0,0,0-.54-.29V67.12ZM58.2,87.07a1.35,1.35,0,1,1,1.34-1.36h0a1.34,1.34,0,0,1-1.33,1.35Z"/><path class="cls-1" d="M50.71,77.4a3.64,3.64,0,0,0,.25-.57,2.48,2.48,0,0,0,.13-.72,2.54,2.54,0,0,0-.19-.9,2.42,2.42,0,1,0-2.24,3.33,2.28,2.28,0,0,0,.77-.14A2.45,2.45,0,0,0,50.71,77.4Zm-2.05,0A1.35,1.35,0,1,1,50,76v0h0a1.34,1.34,0,0,1-1.29,1.39h-.05Z"/><path class="cls-1" d="M67.07,78.44a3.1,3.1,0,0,0,.68.1,2.43,2.43,0,1,0-2.24-3.33,2.21,2.21,0,0,0-.07,1.62,2.53,2.53,0,0,0,.31.64A2.39,2.39,0,0,0,67.07,78.44Zm.68-3.66a1.33,1.33,0,1,1-.31,0A1.61,1.61,0,0,1,67.75,74.78Z"/><path class="cls-34" d="M58.2,84.38a1.35,1.35,0,1,0,1.34,1.36v0h0A1.34,1.34,0,0,0,58.2,84.38Z"/><circle class="cls-34" cx="48.66" cy="76.11" r="1.34"/><path class="cls-34" d="M67.75,77.45a1.34,1.34,0,1,0-1.35-1.34h0a1.34,1.34,0,0,0,1.34,1.34Z"/></g><g id="ad94e297-0e86-4eaf-aac0-d146ee9aea65-2"><path class="cls-31" d="M154.18,83.24l-4.69-4.84a2.28,2.28,0,0,1-.77.14A2.43,2.43,0,1,1,151,75.21h4.61v1.62H151a3.64,3.64,0,0,1-.25.57l4.32,4.46,2.34-3.56V67.12h-3.15l4-4,4,4H159.1v8.73l5.93-9-6-6a1,1,0,0,0-1.41-.05l-.05.05h0L143.06,75.28a1,1,0,0,0-.05,1.41l.05,0h0l14.48,14.48-5.17-5.17Z"/><path class="cls-32" d="M157.43,83.45V78.28l-2.34,3.58,1.72,1.85A1.61,1.61,0,0,1,157.43,83.45Z"/><path class="cls-32" d="M173.46,75.28,165,66.81l-5.93,9v7.62a2.16,2.16,0,0,1,.54.29l6.22-6.29a2.53,2.53,0,0,1-.31-.64h-4.67V75.21h4.74a2.41,2.41,0,1,1,2.23,3.33,3,3,0,0,1-.67-.1l-6.61,6.66a2.59,2.59,0,0,1,.1.62,2.43,2.43,0,1,1-4.84.44,2.18,2.18,0,0,1,0-.25,2.24,2.24,0,0,1,.13-.89l-1.72-1.73-1.85,2.76,5.17,5.17a1,1,0,0,0,1.41,0l0,0,14.47-14.47a1,1,0,0,0,.05-1.41s0,0-.05,0Z"/><path class="cls-33" d="M165.57,75.21h-4.74v1.62h4.67A2.21,2.21,0,0,1,165.57,75.21Z"/><path class="cls-33" d="M151,76.83h4.55V75.21H151a2.33,2.33,0,0,1,.18.9A2.24,2.24,0,0,1,151,76.83Z"/><path class="cls-33" d="M160.52,85.1l6.61-6.66a2.41,2.41,0,0,1-1.32-1l-6.22,6.29A2.33,2.33,0,0,1,160.52,85.1Z"/><path class="cls-33" d="M156.86,83.71l-1.72-1.85-4.37-4.46a2.45,2.45,0,0,1-1.28,1l4.69,4.84L155.9,85A2.39,2.39,0,0,1,156.86,83.71Z"/><path class="cls-1" d="M162.19,67.12l-3.93-4-4,4h3.15V83.45a1.73,1.73,0,0,0-.57.26,2.41,2.41,0,1,0,2.71,4,2.35,2.35,0,0,0,.95-1.28,2.25,2.25,0,0,0,0-1.31,2.36,2.36,0,0,0-.93-1.34,2.16,2.16,0,0,0-.54-.29V67.12Zm-3.93,19.95a1.35,1.35,0,1,1,1.34-1.36h0a1.34,1.34,0,0,1-1.33,1.35Z"/><path class="cls-1" d="M150.77,77.4a3.64,3.64,0,0,0,.25-.57,2.18,2.18,0,0,0,.12-.72,2.33,2.33,0,0,0-.18-.9,2.42,2.42,0,1,0-2.24,3.33,2.28,2.28,0,0,0,.77-.14A2.45,2.45,0,0,0,150.77,77.4Zm-2.05,0A1.35,1.35,0,1,1,150.06,76v0h0a1.34,1.34,0,0,1-1.29,1.39h-.05Z"/><path class="cls-1" d="M167.13,78.44a3,3,0,0,0,.67.1,2.43,2.43,0,1,0-2.23-3.33,2.21,2.21,0,0,0-.07,1.62,2.53,2.53,0,0,0,.31.64A2.39,2.39,0,0,0,167.13,78.44Zm.67-3.66a1.35,1.35,0,0,1,1.2,1.48h0a1.34,1.34,0,1,1-1.49-1.49A1.41,1.41,0,0,1,167.8,74.78Z"/><path class="cls-34" d="M158.26,84.38a1.35,1.35,0,1,0,1.34,1.36v0h0A1.34,1.34,0,0,0,158.26,84.38Z"/><circle class="cls-34" cx="148.72" cy="76.11" r="1.34"/><path class="cls-34" d="M167.8,77.45a1.34,1.34,0,1,0-1.34-1.34h0A1.34,1.34,0,0,0,167.8,77.45Z"/></g><g id="ad94e297-0e86-4eaf-aac0-d146ee9aea65-3"><path class="cls-31" d="M254.21,83.24l-4.68-4.84a2.29,2.29,0,0,1-.78.14A2.43,2.43,0,1,1,251,75.21h4.62v1.62h-4.55a3.68,3.68,0,0,1-.26.57l4.33,4.46,2.34-3.56V67.12h-3.15l4-4,3.94,4h-3.15v8.73l5.93-9-6-6a1,1,0,0,0-1.41-.05l-.05.05h0L243.1,75.28a1,1,0,0,0,0,1.41l0,0h0l14.47,14.48-5.17-5.17Z"/><path class="cls-32" d="M257.47,83.45V78.28l-2.34,3.58,1.72,1.85A1.61,1.61,0,0,1,257.47,83.45Z"/><path class="cls-32" d="M273.49,75.28,265,66.81l-5.93,9v7.62a1.83,1.83,0,0,1,.53.29l6.22-6.29a2.91,2.91,0,0,1-.31-.64h-4.67V75.21h4.74a2.42,2.42,0,1,1,2.24,3.33,3,3,0,0,1-.67-.1l-6.62,6.66a2.18,2.18,0,0,1,.11.62,2.43,2.43,0,0,1-4.86.21,2.55,2.55,0,0,1,.14-.91l-1.73-1.73-1.84,2.76,5.17,5.17a1,1,0,0,0,1.41,0l0,0,14.47-14.47a1,1,0,0,0,.05-1.41l-.05,0Z"/><path class="cls-33" d="M265.6,75.21h-4.74v1.62h4.67a2.93,2.93,0,0,1-.12-.72A2.3,2.3,0,0,1,265.6,75.21Z"/><path class="cls-33" d="M251.06,76.83h4.55V75.21H251a2.21,2.21,0,0,1,.07,1.62Z"/><path class="cls-33" d="M260.55,85.1l6.62-6.66a2.43,2.43,0,0,1-1.33-1l-6.22,6.29A2.27,2.27,0,0,1,260.55,85.1Z"/><path class="cls-33" d="M256.9,83.71l-1.72-1.85L250.8,77.4a2.46,2.46,0,0,1-1.27,1l4.68,4.84L255.94,85A2.35,2.35,0,0,1,256.9,83.71Z"/><path class="cls-1" d="M262.23,67.12l-3.93-4-4,4h3.15V83.45a1.73,1.73,0,0,0-.57.26,2.34,2.34,0,0,0-1,1.31,2.41,2.41,0,0,0,4.55,1.6l.06-.21a2.31,2.31,0,0,0,.11-.69,2.18,2.18,0,0,0-.11-.62,2.24,2.24,0,0,0-.93-1.34,1.83,1.83,0,0,0-.53-.29V67.12ZM258.3,87.07a1.35,1.35,0,1,1,1.34-1.36h0a1.34,1.34,0,0,1-1.33,1.35Z"/><path class="cls-1" d="M250.8,77.4a3.68,3.68,0,0,0,.26-.57,2.21,2.21,0,0,0-.07-1.62,2.41,2.41,0,1,0-2.24,3.33,2.29,2.29,0,0,0,.78-.14A2.46,2.46,0,0,0,250.8,77.4Zm-2.05,0a1.35,1.35,0,0,1,0-2.69,1.37,1.37,0,0,1,1.35,1.35h0a1.36,1.36,0,0,1-1.3,1.39h-.05Z"/><path class="cls-1" d="M267.17,78.44a3,3,0,0,0,.67.1,2.43,2.43,0,1,0-2.24-3.33,2.3,2.3,0,0,0-.19.9,2.53,2.53,0,0,0,.43,1.36A2.45,2.45,0,0,0,267.17,78.44Zm.67-3.66a1.34,1.34,0,1,1-1.49,1.5h0a1.35,1.35,0,0,1,1.19-1.49,1.5,1.5,0,0,1,.3,0Z"/><path class="cls-34" d="M258.3,84.38a1.35,1.35,0,1,0,1.34,1.36v0h0A1.34,1.34,0,0,0,258.3,84.38Z"/><circle class="cls-34" cx="248.75" cy="76.11" r="1.34"/><path class="cls-34" d="M267.84,77.45a1.34,1.34,0,1,0-1.34-1.34h0A1.34,1.34,0,0,0,267.84,77.45Z"/></g></g></g><g id="Text"><path class="cls-35" d="M51.68,31.7v3.39H50.51V26h2.58a3.31,3.31,0,0,1,2.28.71,2.53,2.53,0,0,1,.81,2,2.75,2.75,0,0,1-1,2.17,3.31,3.31,0,0,1-2.37.78Zm0-4.65v3.62h1.08a2.42,2.42,0,0,0,1.63-.48A1.76,1.76,0,0,0,55,28.8c0-1.17-.69-1.75-2.07-1.75Z"/><path class="cls-35" d="M59,26v9.07H57.85V26Z"/><path class="cls-35" d="M62.55,31.7v3.39H61.38V26H64a3.31,3.31,0,0,1,2.28.71,2.53,2.53,0,0,1,.81,2,2.75,2.75,0,0,1-1,2.17,3.31,3.31,0,0,1-2.37.78Zm0-4.65v3.62h1.08a2.42,2.42,0,0,0,1.63-.48,1.76,1.76,0,0,0,.56-1.39c0-1.17-.69-1.75-2.08-1.75Z"/><path class="cls-35" d="M54.92,48.25H53.63l-.93-2.49H48.92l-.87,2.49h-1.3l3.46-9.08h1.26Zm-2.58-3.51L51,41a3.42,3.42,0,0,1-.14-.63h0a3.67,3.67,0,0,1-.15.63l-1.36,3.78Z"/><path class="cls-35" d="M62.6,39.52l-5.23,7.69h5.12v1H55.66v-.4l5.19-7.64H56.07v-1H62.6Z"/><path class="cls-35" d="M66.22,48.25V40.48a4,4,0,0,1-.91.61,5.45,5.45,0,0,1-1.19.46V40.43a7.44,7.44,0,0,0,1.54-.64A6.39,6.39,0,0,0,66.92,39h.44v9.28Z"/><path class="cls-35" d="M151.6,31.7v3.39h-1.18V26H153a3.31,3.31,0,0,1,2.28.71,2.5,2.5,0,0,1,.82,2,2.75,2.75,0,0,1-.95,2.17,3.35,3.35,0,0,1-2.38.78Zm0-4.65v3.62h1.08a2.42,2.42,0,0,0,1.63-.48,1.76,1.76,0,0,0,.56-1.39c0-1.17-.7-1.75-2.08-1.75Z"/><path class="cls-35" d="M158.94,26v9.07h-1.17V26Z"/><path class="cls-35" d="M162.46,31.7v3.39h-1.17V26h2.58a3.31,3.31,0,0,1,2.28.71,2.53,2.53,0,0,1,.81,2,2.75,2.75,0,0,1-.94,2.17,3.35,3.35,0,0,1-2.38.78Zm0-4.65v3.62h1.09a2.44,2.44,0,0,0,1.63-.48,1.76,1.76,0,0,0,.55-1.39c0-1.17-.69-1.75-2.07-1.75Z"/><path class="cls-35" d="M154.84,48.25h-1.3l-.92-2.49h-3.78L148,48.25h-1.3l3.46-9.08h1.25Zm-2.59-3.51L150.88,41a4.54,4.54,0,0,1-.14-.63h0a3.82,3.82,0,0,1-.14.63l-1.36,3.78Z"/><path class="cls-35" d="M162.52,39.52l-5.23,7.69h5.11v1h-6.83v-.4l5.2-7.64H156v-1h6.54Z"/><path class="cls-35" d="M167.79,41.55a1.46,1.46,0,0,0-.46-1.15,1.81,1.81,0,0,0-1.26-.42,2.47,2.47,0,0,0-1.14.29,3.69,3.69,0,0,0-1.07.82V40a3.31,3.31,0,0,1,1-.71A3.4,3.4,0,0,1,166.2,39a2.89,2.89,0,0,1,2,.66,2.25,2.25,0,0,1,.75,1.78,3.18,3.18,0,0,1-.46,1.74,5.83,5.83,0,0,1-1.57,1.5,16.3,16.3,0,0,0-1.52,1.12,2.16,2.16,0,0,0-.54.65,1.75,1.75,0,0,0-.15.76h4.51v1h-5.71v-.46a3.53,3.53,0,0,1,.22-1.33,3.2,3.2,0,0,1,.7-1.06A9.75,9.75,0,0,1,166,44.15a5.88,5.88,0,0,0,1.45-1.32A2.18,2.18,0,0,0,167.79,41.55Z"/><path class="cls-35" d="M18.82,10.16H17.53L16.6,7.68H12.82L12,10.16H10.66l3.45-9.07h1.26ZM16.24,6.65,14.87,2.88a4.54,4.54,0,0,1-.14-.63h0a2.92,2.92,0,0,1-.15.63L13.19,6.65Z"/><path class="cls-35" d="M26.51,1.44,21.27,9.12h5.12v1H19.56v-.4l5.19-7.63H20v-1h6.54Z"/><path class="cls-35" d="M30.12,10.16V2.4a3.72,3.72,0,0,1-.91.6A5.52,5.52,0,0,1,28,3.47V2.35a8,8,0,0,0,1.54-.64A6.88,6.88,0,0,0,30.82.89h.44v9.27Z"/><path class="cls-35" d="M118.87,10.16h-1.3l-.92-2.48h-3.78L112,10.16H110.7l3.45-9.07h1.26Zm-2.59-3.51-1.37-3.77a4.54,4.54,0,0,1-.14-.63h0a2.92,2.92,0,0,1-.15.63l-1.36,3.77Z"/><path class="cls-35" d="M126.55,1.44l-5.24,7.68h5.12v1H119.6v-.4l5.2-7.63H120v-1h6.54Z"/><path class="cls-35" d="M131.82,3.46a1.48,1.48,0,0,0-.46-1.15,1.81,1.81,0,0,0-1.26-.42,2.54,2.54,0,0,0-1.14.29,3.87,3.87,0,0,0-1.07.82V1.89a3,3,0,0,1,1-.71,3.22,3.22,0,0,1,1.33-.25,2.89,2.89,0,0,1,2,.66A2.27,2.27,0,0,1,133,3.38a3.26,3.26,0,0,1-.46,1.73,5.47,5.47,0,0,1-1.58,1.5c-.75.52-1.26.9-1.52,1.13a2.14,2.14,0,0,0-.53.65,1.7,1.7,0,0,0-.15.75h4.51v1h-5.71V9.71a3.71,3.71,0,0,1,.21-1.33,3.44,3.44,0,0,1,.71-1.07A10.4,10.4,0,0,1,130,6.07a5.88,5.88,0,0,0,1.45-1.32A2.23,2.23,0,0,0,131.82,3.46Z"/><path class="cls-35" d="M251.64,31.7v3.39h-1.17V26H253a3.32,3.32,0,0,1,2.29.71,2.53,2.53,0,0,1,.81,2,2.75,2.75,0,0,1-.95,2.17,3.31,3.31,0,0,1-2.37.78Zm0-4.65v3.62h1.08a2.42,2.42,0,0,0,1.63-.48,1.76,1.76,0,0,0,.56-1.39c0-1.17-.69-1.75-2.08-1.75Z"/><path class="cls-35" d="M259,26v9.07h-1.17V26Z"/><path class="cls-35" d="M262.51,31.7v3.39h-1.17V26h2.57a3.34,3.34,0,0,1,2.29.71,2.53,2.53,0,0,1,.81,2,2.75,2.75,0,0,1-.95,2.17,3.32,3.32,0,0,1-2.37.78Zm0-4.65v3.62h1.08a2.42,2.42,0,0,0,1.63-.48,1.76,1.76,0,0,0,.56-1.39c0-1.17-.69-1.75-2.08-1.75Z"/><path class="cls-35" d="M254.88,48.25h-1.29l-.93-2.49h-3.78L248,48.25h-1.3l3.46-9.08h1.25Zm-2.58-3.51L250.93,41a3.42,3.42,0,0,1-.14-.63h0a4.94,4.94,0,0,1-.15.63l-1.36,3.78Z"/><path class="cls-35" d="M262.56,39.52l-5.23,7.69h5.12v1h-6.84v-.4l5.2-7.64H256v-1h6.54Z"/><path class="cls-35" d="M263.68,46.73a3.34,3.34,0,0,0,2.1.72,2.2,2.2,0,0,0,1.48-.46,1.52,1.52,0,0,0,.55-1.23c0-1.15-.82-1.73-2.46-1.73h-.76v-1h.72c1.46,0,2.19-.54,2.19-1.61s-.56-1.5-1.67-1.5a2.91,2.91,0,0,0-1.8.65V39.53a4.08,4.08,0,0,1,2.08-.51,2.77,2.77,0,0,1,1.86.6,2,2,0,0,1,.7,1.58,2.21,2.21,0,0,1-1.81,2.29v0a2.41,2.41,0,0,1,1.55.7,2,2,0,0,1,.57,1.46,2.46,2.46,0,0,1-.88,2,3.5,3.5,0,0,1-2.34.75,4,4,0,0,1-2.08-.48Z"/><path class="cls-35" d="M83,90.26H81.72l-.93-2.48H77l-.87,2.48h-1.3l3.46-9.07h1.26Zm-2.58-3.51L79.06,83a3.42,3.42,0,0,1-.14-.63h0a3.67,3.67,0,0,1-.15.63l-1.36,3.77Z"/><path class="cls-35" d="M90.69,81.54l-5.23,7.68h5.12v1H83.74v-.4l5.2-7.63H84.15v-1h6.54Z"/><path class="cls-35" d="M94.31,90.26V82.5a3.72,3.72,0,0,1-.91.6,5.72,5.72,0,0,1-1.19.47V82.45a8,8,0,0,0,1.54-.64A6.88,6.88,0,0,0,95,81h.44v9.27Z"/><path class="cls-35" d="M36.34,203.28H35l-.92-2.48H30.34l-.87,2.48h-1.3l3.46-9.07h1.25Zm-2.59-3.51L32.38,196a4.54,4.54,0,0,1-.14-.63h0a3.82,3.82,0,0,1-.14.63l-1.36,3.77Z"/><path class="cls-35" d="M44,194.56l-5.23,7.69H43.9v1H37.07v-.4l5.2-7.63H37.48v-1H44Z"/><path class="cls-35" d="M47.64,203.28v-7.76a3.82,3.82,0,0,1-.92.6,5,5,0,0,1-1.18.47v-1.12a8.3,8.3,0,0,0,1.54-.64,6.88,6.88,0,0,0,1.26-.82h.43v9.27Z"/><path class="cls-35" d="M182.93,90.26h-1.3l-.92-2.48h-3.78l-.88,2.48h-1.29l3.46-9.07h1.25Zm-2.59-3.51L179,83a4.54,4.54,0,0,1-.14-.63h0a3.82,3.82,0,0,1-.14.63l-1.36,3.77Z"/><path class="cls-35" d="M190.61,81.54l-5.23,7.68h5.11v1h-6.83v-.4l5.2-7.63h-4.79v-1h6.54Z"/><path class="cls-35" d="M195.88,83.56a1.48,1.48,0,0,0-.46-1.15,1.81,1.81,0,0,0-1.26-.42,2.6,2.6,0,0,0-1.14.29,3.87,3.87,0,0,0-1.07.82V82a3,3,0,0,1,1-.71,3.39,3.39,0,0,1,1.33-.25,2.89,2.89,0,0,1,2,.66,2.27,2.27,0,0,1,.75,1.79,3.17,3.17,0,0,1-.46,1.73,5.55,5.55,0,0,1-1.57,1.5,15.84,15.84,0,0,0-1.52,1.13,2,2,0,0,0-.54.65,1.7,1.7,0,0,0-.15.75h4.51v1h-5.71v-.45a3.49,3.49,0,0,1,.22-1.33,3.23,3.23,0,0,1,.7-1.07A10.4,10.4,0,0,1,194,86.17a5.88,5.88,0,0,0,1.45-1.32A2.23,2.23,0,0,0,195.88,83.56Z"/><path class="cls-35" d="M283,90.26h-1.3l-.92-2.48H277l-.87,2.48h-1.3l3.46-9.07h1.25Zm-2.58-3.51L279,83a4.54,4.54,0,0,1-.14-.63h0a3.82,3.82,0,0,1-.14.63l-1.36,3.77Z"/><path class="cls-35" d="M290.65,81.54l-5.23,7.68h5.11v1H283.7v-.4l5.2-7.63h-4.79v-1h6.54Z"/><path class="cls-35" d="M291.76,88.74a3.39,3.39,0,0,0,2.11.72,2.2,2.2,0,0,0,1.48-.46,1.49,1.49,0,0,0,.55-1.23c0-1.15-.82-1.72-2.47-1.72h-.75v-1h.72c1.46,0,2.18-.54,2.18-1.62S295,82,293.92,82a2.9,2.9,0,0,0-1.8.64V81.55A4,4,0,0,1,294.2,81a2.78,2.78,0,0,1,1.86.61,2,2,0,0,1,.7,1.57A2.2,2.2,0,0,1,295,85.5v0a2.46,2.46,0,0,1,1.55.69,2,2,0,0,1,.57,1.47,2.44,2.44,0,0,1-.88,2,3.51,3.51,0,0,1-2.35.75,4,4,0,0,1-2.08-.48Z"/><path class="cls-35" d="M218.91,10.16h-1.3l-.92-2.48h-3.78L212,10.16h-1.3l3.46-9.07h1.25Zm-2.59-3.51L215,2.88a4.54,4.54,0,0,1-.14-.63h0a3.82,3.82,0,0,1-.14.63l-1.36,3.77Z"/><path class="cls-35" d="M226.59,1.44l-5.23,7.68h5.11v1h-6.83v-.4l5.2-7.63h-4.79v-1h6.54Z"/><path class="cls-35" d="M227.7,8.64a3.37,3.37,0,0,0,2.11.72,2.2,2.2,0,0,0,1.48-.46,1.49,1.49,0,0,0,.55-1.23c0-1.15-.82-1.72-2.47-1.72h-.75V5h.72c1.45,0,2.18-.54,2.18-1.62s-.55-1.49-1.67-1.49a2.94,2.94,0,0,0-1.8.64V1.45a4,4,0,0,1,2.08-.52,2.79,2.79,0,0,1,1.87.61,2,2,0,0,1,.7,1.57,2.2,2.2,0,0,1-1.82,2.29v0a2.46,2.46,0,0,1,1.56.69A2,2,0,0,1,233,7.59a2.44,2.44,0,0,1-.88,2,3.51,3.51,0,0,1-2.35.75,4,4,0,0,1-2.08-.48Z"/><path class="cls-35" d="M140.54,130.24h5.58v-1.33l3.44-2.54H141.8v-.91h9.36v1l-4,3v.86h5.25v.91h-5.25V135a1.46,1.46,0,0,1-1.68,1.63l-1.9,0c0-.32-.08-.69-.14-1.1a17.79,17.79,0,0,0,1.85.12c.57,0,.85-.29.85-.88v-3.57h-5.58Z"/><path class="cls-35" d="M154.61,128l.71-.38c.48.77,1,1.55,1.42,2.35a25,25,0,0,0,1-2.53l.82.31a33.54,33.54,0,0,1-1.31,3.1c.46.79.92,1.6,1.37,2.43l-.82.44c-.33-.64-.67-1.28-1-1.93a25.45,25.45,0,0,1-1.59,2.65l-.72-.42v2.53h-.9v-11.1h10.22v9.74c0,.87-.46,1.3-1.38,1.3l-1.83,0c0-.26-.1-.58-.17-1,.67.06,1.24.08,1.71.08s.77-.22.77-.66v-8.62h-8.42V134a30.74,30.74,0,0,0,1.82-3.06C155.75,130,155.2,129,154.61,128Zm4,.58.69-.41c.4.66.82,1.35,1.25,2.08a24.38,24.38,0,0,0,1.16-2.74l.82.32c-.45,1.15-.95,2.26-1.48,3.3.5.88,1,1.81,1.57,2.79l-.81.46c-.4-.77-.81-1.55-1.25-2.33a29.71,29.71,0,0,1-1.58,2.56l-.73-.48a33.5,33.5,0,0,0,1.82-3C159.6,130.33,159.12,129.47,158.61,128.6Z"/><path class="cls-35" d="M169.6,135.1v-9.41h2.73a3,3,0,0,1,1.95.59,1.92,1.92,0,0,1,.73,1.57,2.24,2.24,0,0,1-.43,1.37,2.35,2.35,0,0,1-1.2.85v0a2.36,2.36,0,0,1,1.52.73,2.24,2.24,0,0,1,.56,1.56,2.47,2.47,0,0,1-.86,2,3.23,3.23,0,0,1-2.2.75Zm1.2-8.35v2.95h1.09a2,2,0,0,0,1.36-.43,1.5,1.5,0,0,0,.5-1.19c0-.89-.59-1.33-1.75-1.33Zm0,4V134h1.44a2.13,2.13,0,0,0,1.45-.44,1.52,1.52,0,0,0,.51-1.22q0-1.62-2.16-1.62Z"/><path class="cls-35" d="M40.07,130.43h5.58V129.1l3.44-2.54H41.33v-.91h9.36v.94l-4,3v.86h5.25v.91H46.67v3.83A1.47,1.47,0,0,1,45,136.8l-1.9,0c0-.32-.08-.69-.14-1.1a17.77,17.77,0,0,0,1.84.12.77.77,0,0,0,.86-.88v-3.57H40.07Z"/><path class="cls-35" d="M54.14,128.21l.71-.38c.47.77.95,1.55,1.42,2.35a25,25,0,0,0,1-2.53l.82.3a32.62,32.62,0,0,1-1.31,3.11c.46.79.92,1.6,1.37,2.43l-.82.44c-.33-.64-.67-1.28-1-1.93-.5.93-1,1.82-1.59,2.65l-.72-.42v2.53h-.9v-11.1H63.32v9.74c0,.87-.46,1.3-1.38,1.3l-1.84,0c0-.26-.09-.58-.16-1,.67.05,1.24.08,1.71.08s.77-.22.77-.66v-8.62H54v7.64a30.61,30.61,0,0,0,1.81-3.06C55.28,130.15,54.72,129.18,54.14,128.21Zm4,.58.69-.41c.4.66.82,1.35,1.24,2.08a24.49,24.49,0,0,0,1.17-2.74l.82.32c-.45,1.15-1,2.26-1.48,3.3.5.88,1,1.81,1.56,2.78l-.8.47c-.4-.77-.82-1.55-1.25-2.34a28.43,28.43,0,0,1-1.58,2.57l-.73-.48c.68-1,1.29-2,1.82-3C59.13,130.52,58.64,129.66,58.14,128.79Z"/><path class="cls-35" d="M76.42,135.28H75.1l-.95-2.57H70.28l-.89,2.57H68.06l3.54-9.4h1.28Zm-2.64-3.63-1.4-3.91a3.69,3.69,0,0,1-.15-.66h0a3.27,3.27,0,0,1-.15.66l-1.39,3.91Z"/><path class="cls-35" d="M239.94,130.24h5.58v-1.33l3.44-2.54H241.2v-.91h9.36v1l-4,3v.86h5.25v.91h-5.25V135a1.46,1.46,0,0,1-1.68,1.63l-1.9,0c0-.32-.08-.69-.14-1.1a17.79,17.79,0,0,0,1.85.12c.57,0,.85-.29.85-.88v-3.57h-5.58Z"/><path class="cls-35" d="M254,128l.71-.38c.48.77.95,1.55,1.42,2.35a22.87,22.87,0,0,0,1-2.53l.82.31a33.54,33.54,0,0,1-1.31,3.1c.46.79.92,1.6,1.37,2.43l-.81.44-1-1.93a25.45,25.45,0,0,1-1.59,2.65l-.72-.42v2.53H253v-11.1h10.22v9.74c0,.87-.46,1.3-1.38,1.3l-1.83,0c0-.26-.1-.58-.17-1,.67.06,1.24.08,1.71.08s.77-.22.77-.66v-8.62h-8.42V134a30.74,30.74,0,0,0,1.82-3.06C255.16,130,254.6,129,254,128Zm4,.58.69-.41c.4.66.82,1.35,1.25,2.08a24.49,24.49,0,0,0,1.17-2.74l.81.32a34.31,34.31,0,0,1-1.48,3.3c.5.88,1,1.81,1.57,2.79l-.81.46c-.4-.77-.81-1.55-1.25-2.33a29.71,29.71,0,0,1-1.58,2.56l-.73-.48a33.5,33.5,0,0,0,1.82-3C259,130.33,258.52,129.47,258,128.6Z"/><path class="cls-35" d="M275.36,134.71a5.54,5.54,0,0,1-2.58.54,4.14,4.14,0,0,1-3.19-1.28,4.78,4.78,0,0,1-1.19-3.4,5,5,0,0,1,1.34-3.65,4.53,4.53,0,0,1,3.41-1.39,5.62,5.62,0,0,1,2.21.38v1.27a4.46,4.46,0,0,0-2.19-.56,3.33,3.33,0,0,0-2.54,1,4,4,0,0,0-1,2.83,3.8,3.8,0,0,0,.91,2.68,3.09,3.09,0,0,0,2.39,1,4.47,4.47,0,0,0,2.4-.63Z"/><path class="cls-35" d="M37.72,180.92l-3.34,9.22H33.07l-3.28-9.22H31.1l2.45,7.21a4.28,4.28,0,0,1,.18.83h0a3.23,3.23,0,0,1,.21-.84l2.49-7.2Z"/><path class="cls-35" d="M47.21,190.14V184c0-.5,0-1.11.09-1.81h0a5.65,5.65,0,0,1-.27.93l-3,7h-.65l-3-6.94a6.61,6.61,0,0,1-.27-1h0c0,.43.06,1.05.06,1.87v6H39v-9.22h1.59l2.69,6.32a8.31,8.31,0,0,1,.41,1.13h0c.2-.56.35-1,.43-1.15l2.73-6.3h1.52v9.22Z"/><path class="cls-35" d="M73,203.28H71.71l-.93-2.48H67l-.87,2.48h-1.3l3.46-9.07h1.25Zm-2.58-3.51L69.05,196a3.42,3.42,0,0,1-.14-.63h0a4.94,4.94,0,0,1-.15.63l-1.36,3.77Z"/><path class="cls-35" d="M80.68,194.56l-5.23,7.69h5.12v1H73.73v-.4l5.2-7.63H74.14v-1h6.54Z"/><path class="cls-35" d="M84.3,203.28v-7.76a3.94,3.94,0,0,1-.91.6,5.22,5.22,0,0,1-1.19.47v-1.12a8.3,8.3,0,0,0,1.54-.64A6.88,6.88,0,0,0,85,194h.44v9.27Z"/><path class="cls-35" d="M74.39,180.92,71,190.14H69.73l-3.28-9.22h1.31l2.45,7.21a4.28,4.28,0,0,1,.18.83h0a3.23,3.23,0,0,1,.21-.84l2.5-7.2Z"/><path class="cls-35" d="M83.87,190.14V184c0-.5,0-1.11.09-1.81h0a5.65,5.65,0,0,1-.27.93l-3,7H80l-3-6.94a6.61,6.61,0,0,1-.27-1h0c0,.43.06,1.05.06,1.87v6H75.63v-9.22h1.6l2.68,6.32a8.31,8.31,0,0,1,.41,1.13h0c.21-.56.35-1,.43-1.15l2.74-6.3H85v9.22Z"/><path class="cls-35" d="M136.29,203.28H135l-.93-2.48h-3.77l-.88,2.48h-1.29l3.45-9.07h1.26Zm-2.59-3.51L132.33,196a4.54,4.54,0,0,1-.14-.63h0a2.92,2.92,0,0,1-.15.63l-1.36,3.77Z"/><path class="cls-35" d="M144,194.56l-5.24,7.69h5.12v1H137v-.4l5.2-7.63h-4.79v-1H144Z"/><path class="cls-35" d="M149.24,196.59a1.49,1.49,0,0,0-.46-1.16,1.81,1.81,0,0,0-1.26-.42,2.54,2.54,0,0,0-1.14.29,3.87,3.87,0,0,0-1.07.82V195a3,3,0,0,1,1-.71,3.39,3.39,0,0,1,1.33-.25,2.89,2.89,0,0,1,2,.66,2.27,2.27,0,0,1,.75,1.79,3.24,3.24,0,0,1-.46,1.73,5.47,5.47,0,0,1-1.58,1.5c-.75.53-1.26.9-1.52,1.13a2.14,2.14,0,0,0-.53.65,1.7,1.7,0,0,0-.15.75h4.51v1h-5.71v-.45a3.71,3.71,0,0,1,.21-1.33,3.44,3.44,0,0,1,.71-1.07,10.4,10.4,0,0,1,1.54-1.24,5.88,5.88,0,0,0,1.45-1.32A2.2,2.2,0,0,0,149.24,196.59Z"/><path class="cls-35" d="M137.67,180.92l-3.35,9.22H133l-3.28-9.22H131l2.46,7.21a4.28,4.28,0,0,1,.18.83h0a3.66,3.66,0,0,1,.2-.84l2.5-7.2Z"/><path class="cls-35" d="M147.16,190.14V184c0-.5,0-1.11.09-1.81h0a8.81,8.81,0,0,1-.27.93l-3,7h-.65l-3-6.94a6.61,6.61,0,0,1-.27-1h0c0,.43.06,1.05.06,1.87v6h-1.12v-9.22h1.59l2.69,6.32a8,8,0,0,1,.4,1.13h.05c.2-.56.34-1,.43-1.15l2.73-6.3h1.52v9.22Z"/><path class="cls-35" d="M173.14,203.28h-1.3l-.92-2.48h-3.78l-.87,2.48H165l3.46-9.07h1.25Zm-2.59-3.51L169.18,196a4.54,4.54,0,0,1-.14-.63h0a3.82,3.82,0,0,1-.14.63l-1.36,3.77Z"/><path class="cls-35" d="M180.82,194.56l-5.23,7.69h5.11v1h-6.83v-.4l5.2-7.63h-4.79v-1h6.54Z"/><path class="cls-35" d="M186.09,196.59a1.49,1.49,0,0,0-.46-1.16,1.81,1.81,0,0,0-1.26-.42,2.6,2.6,0,0,0-1.14.29,3.87,3.87,0,0,0-1.07.82V195a3.15,3.15,0,0,1,1-.71,3.39,3.39,0,0,1,1.33-.25,2.89,2.89,0,0,1,2,.66,2.27,2.27,0,0,1,.75,1.79,3.15,3.15,0,0,1-.46,1.73,5.55,5.55,0,0,1-1.57,1.5,17.82,17.82,0,0,0-1.52,1.13,2,2,0,0,0-.54.65,1.7,1.7,0,0,0-.15.75h4.51v1h-5.71v-.45a3.49,3.49,0,0,1,.22-1.33,3.23,3.23,0,0,1,.7-1.07,10.4,10.4,0,0,1,1.54-1.24,5.88,5.88,0,0,0,1.45-1.32A2.2,2.2,0,0,0,186.09,196.59Z"/><path class="cls-35" d="M174.52,180.92l-3.34,9.22h-1.31l-3.28-9.22h1.31l2.45,7.21a4.28,4.28,0,0,1,.18.83h0a3.23,3.23,0,0,1,.21-.84l2.49-7.2Z"/><path class="cls-35" d="M184,190.14V184c0-.5,0-1.11.09-1.81h0a5.65,5.65,0,0,1-.27.93l-3,7h-.65l-3-6.94a6.61,6.61,0,0,1-.27-1h0c0,.43.06,1.05.06,1.87v6h-1.12v-9.22h1.59l2.69,6.32a8.31,8.31,0,0,1,.41,1.13h0c.2-.56.35-1,.43-1.15l2.73-6.3h1.52v9.22Z"/><path class="cls-35" d="M236.42,203.28h-1.29l-.93-2.48h-3.78l-.87,2.48h-1.3l3.46-9.07H233Zm-2.58-3.51L232.47,196a3.42,3.42,0,0,1-.14-.63h0a3.67,3.67,0,0,1-.15.63l-1.36,3.77Z"/><path class="cls-35" d="M244.1,194.56l-5.23,7.69H244v1h-6.83v-.4l5.19-7.63h-4.78v-1h6.53Z"/><path class="cls-35" d="M245.22,201.76a3.29,3.29,0,0,0,2.1.73,2.29,2.29,0,0,0,1.49-.46,1.55,1.55,0,0,0,.54-1.24c0-1.15-.82-1.72-2.46-1.72h-.76v-.95h.72q2.19,0,2.19-1.62c0-1-.56-1.49-1.67-1.49a2.9,2.9,0,0,0-1.8.64v-1.08a4.11,4.11,0,0,1,2.08-.52,2.78,2.78,0,0,1,1.86.61,2,2,0,0,1,.71,1.57,2.21,2.21,0,0,1-1.82,2.29v0a2.48,2.48,0,0,1,1.56.69,2,2,0,0,1,.57,1.47,2.45,2.45,0,0,1-.89,2,3.48,3.48,0,0,1-2.34.75,4,4,0,0,1-2.08-.48Z"/><path class="cls-35" d="M237.81,180.92l-3.35,9.22h-1.3l-3.29-9.22h1.31l2.45,7.21a3.65,3.65,0,0,1,.18.83h0a3.69,3.69,0,0,1,.21-.84l2.5-7.2Z"/><path class="cls-35" d="M247.29,190.14V184c0-.5,0-1.11.09-1.81h0a5.65,5.65,0,0,1-.27.93l-3,7h-.66l-3-6.94a6.61,6.61,0,0,1-.27-1h0c0,.43.06,1.05.06,1.87v6h-1.13v-9.22h1.6l2.69,6.32a9.52,9.52,0,0,1,.4,1.13h0c.21-.56.35-1,.43-1.15l2.74-6.3h1.51v9.22Z"/><path class="cls-35" d="M273.18,203.28h-1.29L271,200.8h-3.78l-.87,2.48H265l3.46-9.07h1.25Zm-2.58-3.51L269.23,196a4.2,4.2,0,0,1-.15-.63h0a4.94,4.94,0,0,1-.15.63l-1.36,3.77Z"/><path class="cls-35" d="M280.86,194.56l-5.23,7.69h5.12v1h-6.84v-.4l5.2-7.63h-4.79v-1h6.54Z"/><path class="cls-35" d="M282,201.76a3.29,3.29,0,0,0,2.1.73,2.26,2.26,0,0,0,1.48-.46,1.53,1.53,0,0,0,.55-1.24c0-1.15-.82-1.72-2.46-1.72h-.76v-.95h.72q2.19,0,2.19-1.62c0-1-.56-1.49-1.67-1.49a2.9,2.9,0,0,0-1.8.64v-1.08a4.09,4.09,0,0,1,2.08-.52,2.78,2.78,0,0,1,1.86.61,2,2,0,0,1,.7,1.57,2.2,2.2,0,0,1-1.81,2.29v0a2.46,2.46,0,0,1,1.55.69,2,2,0,0,1,.57,1.47,2.44,2.44,0,0,1-.88,2,3.5,3.5,0,0,1-2.34.75A4,4,0,0,1,282,203Z"/><path class="cls-35" d="M274.57,180.92l-3.35,9.22h-1.31l-3.28-9.22h1.31l2.45,7.21a4.28,4.28,0,0,1,.18.83h0a3.23,3.23,0,0,1,.21-.84l2.5-7.2Z"/><path class="cls-35" d="M284.05,190.14V184c0-.5,0-1.11.09-1.81h0a5.65,5.65,0,0,1-.27.93l-3,7h-.65l-3-6.94a6.61,6.61,0,0,1-.27-1h0c0,.43.06,1.05.06,1.87v6h-1.13v-9.22h1.6l2.68,6.32a8.31,8.31,0,0,1,.41,1.13h0c.2-.56.35-1,.43-1.15l2.74-6.3h1.51v9.22Z"/><path class="cls-35" d="M13.92,243.51v2.85q0,3.81-1.53,5.62c-.2-.25-.43-.5-.67-.76A7.35,7.35,0,0,0,13,246.51V242.7h4v-2.46h.94v.93h4.75V242H17.9v.75h5.36l-.08,1.93-.9,0,.09-1.09Zm-.22,7.28h3v-3.5h.92v3.5h1.48v-3.53H20v3.53h3.3v.81H13.7Zm.53-6.13,2.57-.16v-.8h.87v.75l3.53-.21.05.77-3.58.21v.3c0,.36.24.54.71.54h2.36c.54,0,.84-.19.92-.56a6.07,6.07,0,0,0,.14-.84c.26.11.54.21.85.32-.07.35-.14.65-.21.88-.17.66-.69,1-1.57,1H18.21c-.94,0-1.41-.42-1.41-1.25v-.33l-2.53.15Zm0,3.37.7-.46q.71.92,1.38,2l-.79.51C15.09,249.32,14.66,248.64,14.24,248Zm6.16,1.46a16,16,0,0,0,1.41-2l.8.48c-.51.74-1,1.43-1.51,2.05Z"/><path class="cls-35" d="M23.87,246.62c.48-.13,1-.28,1.59-.46v-2.69H24v-.8h1.46v-2.3h.89v2.3h1.38v.8H26.35v2.4l1.43-.48c0,.39,0,.7,0,.92l-1.4.47v3.82c0,.79-.34,1.2-1,1.24-.38,0-.77,0-1.18,0,0-.3-.09-.63-.15-1a7.55,7.55,0,0,0,.95.07.46.46,0,0,0,.51-.53v-3.31l-1.46.52Zm7.07.22a5,5,0,0,0,.31.92c-.7.65-1.42,1.33-2.17,2.05a4.48,4.48,0,0,0-.54.68l-.61-.79a1.63,1.63,0,0,0,.36-1.09v-7.34h.9v7.26C29.63,248.14,30.21,247.57,30.94,246.84Zm2.19-6.36H34q0,2-.06,3.57a14.84,14.84,0,0,1-.61,4.38c.85,1,1.61,1.88,2.27,2.73l-.78.65c-.61-.85-1.24-1.69-1.9-2.52a8,8,0,0,1-2.87,2.78,5.14,5.14,0,0,0-.65-.75,6.78,6.78,0,0,0,3-3.16,12.29,12.29,0,0,0,.6-4.12C33.09,242.85,33.11,241.66,33.13,240.48Zm-3.36.13.76-.4c.59,1.07,1.09,2,1.52,2.93l-.83.47C30.69,242.43,30.2,241.43,29.77,240.61Z"/><path class="cls-35" d="M13.7,256.68l.69-.37c.47.75.93,1.51,1.4,2.3a26.55,26.55,0,0,0,1-2.48l.8.3c-.39,1.06-.82,2.08-1.28,3,.45.78.89,1.57,1.34,2.39l-.8.43c-.33-.63-.66-1.26-1-1.9a24.5,24.5,0,0,1-1.56,2.6l-.7-.41v2.48h-.89V254.18h10v9.55c0,.85-.45,1.27-1.36,1.27l-1.8,0c0-.26-.09-.57-.16-.93.66.05,1.22.08,1.68.08s.75-.22.75-.65V255H13.56v7.49a31.46,31.46,0,0,0,1.78-3C14.82,258.58,14.27,257.63,13.7,256.68Zm3.91.57.69-.41c.39.65.79,1.33,1.21,2.05a24.41,24.41,0,0,0,1.15-2.69l.8.31c-.44,1.13-.93,2.21-1.45,3.24q.73,1.29,1.53,2.73l-.79.45c-.39-.75-.79-1.52-1.22-2.29A28.75,28.75,0,0,1,18,263.16l-.72-.47a32.39,32.39,0,0,0,1.79-2.92Q18.36,258.52,17.61,257.25Z"/><path class="cls-35" d="M25.41,260.54c.82-.08,1.59-.18,2.32-.28,0,.36-.06.63-.08.81-1.39.18-2.48.32-3.27.44l-.19-.87A9.59,9.59,0,0,0,26.08,258l-1.82.14-.24-.78a19.49,19.49,0,0,0,1.92-3.85l.92.33A36.26,36.26,0,0,1,25,257.3l1.48,0c.28-.52.59-1.11.91-1.75l.87.38A53.17,53.17,0,0,1,25.41,260.54ZM24,263.32c1.31-.25,2.66-.55,4.08-.88a8.6,8.6,0,0,0-.05.91c-1.26.28-2.51.59-3.77.91Zm3.92-5.88a16.35,16.35,0,0,0,2.17-4.05l.88.3c-.15.36-.31.72-.48,1.06h4.21v.84a10.12,10.12,0,0,1-2.17,2.63,13,13,0,0,0,3.05,1.27,7.69,7.69,0,0,0-.47,1,12.69,12.69,0,0,1-3.33-1.71,15.81,15.81,0,0,1-3.51,1.85c-.16-.27-.35-.54-.56-.83a14.41,14.41,0,0,0,3.34-1.64,7,7,0,0,1-1.39-1.83,17,17,0,0,1-1.13,1.72A8.36,8.36,0,0,0,27.94,257.44Zm.91,3.16h5.81v4.63h-.91v-.6h-4v.6h-.9Zm4.9.85h-4v2.32h4Zm-.1-5.89h-3.5a7.22,7.22,0,0,0,1.63,2.1A8.61,8.61,0,0,0,33.65,255.56Z"/><path class="cls-35" d="M190.13,248.23c.64.46,1.36,1,2.15,1.64-.28.34-.51.6-.69.79-.78-.69-1.47-1.27-2.07-1.73Zm.85,3.41a3.94,3.94,0,0,0,.86.41c-.33,1.38-.71,3-1.12,4.75l-.94-.32Q190.49,254,191,251.64Zm-.32-6.55c.64.48,1.3,1,2,1.65-.29.28-.53.53-.73.75-.71-.7-1.34-1.28-1.88-1.73Zm4.42,2.91h1.59q.26-.69.51-1.44h-3.09v3.51q0,4.8-1.88,6.88a5.53,5.53,0,0,0-.71-.76c1.12-1.25,1.69-3.29,1.69-6.1v-4.36h8.47v.83h-3.43q-.33.74-.69,1.44h3.23v5h-.88v-.31h-1.58v2.86c0,.88-.42,1.31-1.27,1.31H196c0-.25-.1-.53-.17-.84.41,0,.76.05,1.06.05s.56-.2.56-.59v-2.78H196V253h-.88ZM194,255.89a14.24,14.24,0,0,0,1.84-2.51l.78.48a20.7,20.7,0,0,1-1.9,2.59Zm5.92-7.09H196v1.14h3.93ZM196,251.88h3.93v-1.16H196Zm5.67,3.89-.77.59a28.19,28.19,0,0,0-1.88-2.54l.71-.5C200.43,254.18,201.08,255,201.63,255.77Z"/><path class="cls-35" d="M202.64,246.94h1.23c.3-.74.55-1.42.74-2l1,.29c-.26.63-.51,1.2-.75,1.74h2.45v9.71h-1v-.95h-2.75v1h-1Zm3.72.91h-2.75v3h2.75Zm-2.75,6.94h2.75V251.7h-2.75Zm3.91-5.35a18.08,18.08,0,0,0,1.94-4.53l1,.26c-.21.61-.42,1.19-.64,1.73h3.93c-.1,4.18-.18,6.82-.24,7.9a1.79,1.79,0,0,1-2,1.92c-.74,0-1.49,0-2.26-.08a7.43,7.43,0,0,0-.19-1.09h0a15.27,15.27,0,0,0,2.23.18,1.1,1.1,0,0,0,1.2-1.18q.14-1.81.19-6.73h-3.27a16.49,16.49,0,0,1-1.1,2.07A5.32,5.32,0,0,0,207.52,249.44Zm1.07.83.75-.55c.9,1.07,1.62,2,2.16,2.77l-.91.64A27.08,27.08,0,0,0,208.59,250.27Z"/><path class="cls-35" d="M214.69,249l.61-.7c.66.45,1.35,1,2.07,1.57-.29.34-.53.61-.71.79C215.82,249.87,215.16,249.31,214.69,249Zm.37,7.55a37.69,37.69,0,0,0,1.27-4.74c.36.16.69.28,1,.38-.36,1.41-.76,3-1.18,4.69Zm.1-10.73.63-.65q.89.7,2,1.68l-.72.73A24.15,24.15,0,0,0,215.16,245.78Zm3.87,5.45H220a9.86,9.86,0,0,1-.5,3.75,4.3,4.3,0,0,1-2,2,4.23,4.23,0,0,0-.62-.81,3.54,3.54,0,0,0,1.77-1.68A8.3,8.3,0,0,0,219,251.23Zm5.29-3.23c.63.73,1.34,1.62,2.11,2.67-.3.19-.6.38-.88.58l-.59-.86-5.51.27a5.46,5.46,0,0,0-1,.15l-.42-.92a4.38,4.38,0,0,0,.86-.56,14,14,0,0,0,1.88-2h-2.71v-.87H222c-.31-.48-.61-.9-.89-1.25l.81-.5c.3.38.64.83,1,1.34l-.63.41h4.15v.87H221l.81.34a23.19,23.19,0,0,1-2.13,2l4.67-.16c-.28-.38-.55-.73-.81-1.06Zm-2.88,3.23h.91v5.45h-.91Zm2.23,0h.92v4.09c0,.38.14.57.44.57h.42c.26,0,.41-.21.48-.63s.09-1,.11-1.53a9.6,9.6,0,0,0,.91.35,14.46,14.46,0,0,1-.18,1.57,1.08,1.08,0,0,1-1.16,1.09h-.76c-.78,0-1.18-.48-1.18-1.43Z"/><path class="cls-35" d="M227.49,247h5.86q-.61-1.17-1-1.71l1-.45c.23.35.57.92,1,1.71l-.9.45h5.79V248h-7.4q0,1.11-.09,1.89h5.89c-.1,1.77-.2,3.3-.32,4.6-.09,1.48-.8,2.21-2.14,2.21-.62,0-1.45,0-2.48-.09,0-.31-.1-.69-.18-1.13a19.5,19.5,0,0,0,2.51.21c.75,0,1.17-.44,1.26-1.33s.18-2.15.25-3.55H231.7A7.93,7.93,0,0,1,228,257c-.22-.26-.47-.54-.75-.83a7.11,7.11,0,0,0,3.46-5.69c.06-.64.1-1.49.14-2.54h-3.33Z"/><path class="cls-35" d="M241.73,256.81h-.95v-10h3.6c.2-.6.4-1.23.58-1.89l1,.29c-.21.57-.42,1.1-.62,1.6h5.71v8.58a1.22,1.22,0,0,1-1.38,1.38l-1.85,0c0-.29-.1-.6-.17-1,.7.06,1.29.09,1.78.09s.67-.24.67-.71v-7.46h-8.42Zm1.67-7.36h5v4.29h-4.12v.84h-.93Zm4.13.88h-3.2v2.53h3.2Z"/><path class="cls-35" d="M192.34,270.65a8.41,8.41,0,0,1-2.05-5.75,8.76,8.76,0,0,1,2.05-5.85h1.06a9,9,0,0,0-2.06,5.84,8.72,8.72,0,0,0,2,5.76Z"/><path class="cls-35" d="M196.12,259l-.2,2.94h-.82l-.19-2.94Zm1.65,0-.19,2.94h-.83l-.2-2.94Z"/><path class="cls-35" d="M203.5,262.94a1.43,1.43,0,0,0-.83-.22,1.34,1.34,0,0,0-1.14.66,2.93,2.93,0,0,0-.45,1.71v3.42h-1.2v-6.75h1.2v1.37h0a1.85,1.85,0,0,1,1.77-1.49,1.75,1.75,0,0,1,.63.09Z"/><path class="cls-35" d="M210.06,265.43h-4.72a2.43,2.43,0,0,0,.59,1.67,2,2,0,0,0,1.57.59,3.35,3.35,0,0,0,2.08-.72V268a4.07,4.07,0,0,1-2.36.62,2.92,2.92,0,0,1-2.29-.92,3.75,3.75,0,0,1-.82-2.58,3.7,3.7,0,0,1,.9-2.56,2.88,2.88,0,0,1,2.24-1,2.61,2.61,0,0,1,2.07.85,3.51,3.51,0,0,1,.74,2.38Zm-1.19-.95a2.15,2.15,0,0,0-.44-1.42,1.49,1.49,0,0,0-1.2-.5,1.7,1.7,0,0,0-1.24.53,2.54,2.54,0,0,0-.65,1.39Z"/><path class="cls-35" d="M217.6,271.61h-1.19v-4.24h0a2.4,2.4,0,0,1-2.28,1.29,2.54,2.54,0,0,1-2-.9,3.69,3.69,0,0,1-.77-2.47,4.07,4.07,0,0,1,.84-2.69,2.81,2.81,0,0,1,2.26-1,2.12,2.12,0,0,1,2,1.07h0v-.91h1.19Zm-1.19-7.1a2,2,0,0,0-.51-1.36,1.74,1.74,0,0,0-1.35-.56,1.8,1.8,0,0,0-1.5.7,3.18,3.18,0,0,0-.54,2A2.76,2.76,0,0,0,213,267a1.69,1.69,0,0,0,1.37.65,1.84,1.84,0,0,0,1.47-.64,2.39,2.39,0,0,0,.54-1.59Z"/><path class="cls-35" d="M225.4,268.51h-1.2v-1.07h0a2.21,2.21,0,0,1-2.08,1.22c-1.6,0-2.4-1-2.4-2.86v-4h1.19v3.86c0,1.37.52,2.06,1.57,2.06a1.58,1.58,0,0,0,1.26-.58,2.22,2.22,0,0,0,.49-1.46v-3.88h1.2Z"/><path class="cls-35" d="M233.12,265.43h-4.73a2.43,2.43,0,0,0,.59,1.67,2.05,2.05,0,0,0,1.57.59,3.35,3.35,0,0,0,2.08-.72V268a4.07,4.07,0,0,1-2.36.62,2.89,2.89,0,0,1-2.28-.92,3.76,3.76,0,0,1-.83-2.58,3.7,3.7,0,0,1,.9-2.56,2.9,2.9,0,0,1,2.24-1,2.61,2.61,0,0,1,2.07.85,3.47,3.47,0,0,1,.75,2.38Zm-1.2-.95a2.15,2.15,0,0,0-.43-1.42,1.52,1.52,0,0,0-1.21-.5,1.69,1.69,0,0,0-1.23.53,2.49,2.49,0,0,0-.66,1.39Z"/><path class="cls-35" d="M234.42,267.05a3.28,3.28,0,0,0,1.94.65c.93,0,1.4-.31,1.4-.92a.8.8,0,0,0-.3-.64,4.87,4.87,0,0,0-1.24-.6,3.44,3.44,0,0,1-1.46-.9,1.67,1.67,0,0,1-.34-1.07,1.69,1.69,0,0,1,.76-1.43,3.15,3.15,0,0,1,1.87-.54,4.38,4.38,0,0,1,1.6.29v1.16a3,3,0,0,0-1.71-.49,1.58,1.58,0,0,0-.94.25.78.78,0,0,0-.36.66.8.8,0,0,0,.26.63,5,5,0,0,0,1.15.58,3.9,3.9,0,0,1,1.53.87,1.65,1.65,0,0,1,.4,1.12,1.71,1.71,0,0,1-.76,1.46,3.34,3.34,0,0,1-2,.53,4,4,0,0,1-1.83-.39Z"/><path class="cls-35" d="M243.91,268.44a2.24,2.24,0,0,1-1.06.21c-1.2,0-1.81-.67-1.81-2v-3.9h-1.16v-1H241v-1.63l1.19-.38v2h1.68v1h-1.68v3.69a1.56,1.56,0,0,0,.23.95.9.9,0,0,0,.75.29,1.13,1.13,0,0,0,.7-.23Z"/><path class="cls-35" d="M246.85,259l-.2,2.94h-.82l-.19-2.94Zm1.65,0-.19,2.94h-.83l-.2-2.94Z"/><path class="cls-35" d="M250,270.65a8.71,8.71,0,0,0,2.06-5.76,9,9,0,0,0-2.07-5.84h1.06a8.68,8.68,0,0,1,2.06,5.85,8.33,8.33,0,0,1-2.06,5.75Z"/><path class="cls-35" d="M194.71,296.41l3,0,4-.08c-.09.26-.2.59-.34,1h-3.93l-3,0a3.17,3.17,0,0,1-2.92-1.41,18.45,18.45,0,0,0-1.47,1.63l-.5-1c.72-.7,1.24-1.2,1.57-1.5v-4.1H189.7V290h2.4v5.23A2.85,2.85,0,0,0,194.71,296.41Zm-3.59-10.53c.42.5,1,1.27,1.71,2.31l-.87.61c-.66-1-1.2-1.83-1.62-2.4Zm4.06,5.32.59-.63c.87.64,1.69,1.27,2.48,1.88a8,8,0,0,0,1.61-2.52H195a8.22,8.22,0,0,1-1.72,5.51,7,7,0,0,0-.65-.77,7.15,7.15,0,0,0,1.45-4.82V286.5a50,50,0,0,0,7-.52l.34.95q-3.15.33-6.42.43v1.72h5.91v.86a8.66,8.66,0,0,1-1.85,3.11c.85.67,1.64,1.32,2.36,2l-.73.79c-.78-.7-1.56-1.39-2.34-2.05a13.46,13.46,0,0,1-3.52,2.2c-.18-.25-.38-.51-.61-.78a13.15,13.15,0,0,0,3.38-2.05Q196.36,292.13,195.18,291.2Z"/><path class="cls-35" d="M203,286.38h10.67v11.18h-1v-.78H204v.78h-1Zm9.65.9H204v8.62h8.62Zm-6.91,1.87h5.18v5.34h-.95v-.69h-3.28v.69h-1Zm4.23.86h-3.28V293h3.28Z"/><path class="cls-35" d="M215.32,287.67h1.23c.3-.74.55-1.41.75-2l1,.29c-.26.62-.5,1.2-.74,1.73H220v9.72h-1v-.95h-2.75v1h-1Zm3.72.92h-2.75v3H219Zm-2.75,6.93H219v-3.09h-2.75Zm3.91-5.34a18,18,0,0,0,1.94-4.53l1,.25c-.21.62-.42,1.2-.64,1.74h3.93c-.09,4.18-.18,6.81-.24,7.9a1.79,1.79,0,0,1-2,1.91c-.74,0-1.49,0-2.25-.07a8.93,8.93,0,0,0-.2-1.09h0a15.28,15.28,0,0,0,2.23.17,1.1,1.1,0,0,0,1.2-1.17q.14-1.82.19-6.74h-3.27a16,16,0,0,1-1.1,2.08A4.06,4.06,0,0,0,220.2,290.18Zm1.07.83.75-.55c.9,1.06,1.62,2,2.16,2.77l-.9.63A29.91,29.91,0,0,0,221.27,291Z"/><path class="cls-35" d="M227.37,289.7,228,289c.66.46,1.35,1,2.07,1.58-.29.34-.52.6-.7.79C228.5,290.6,227.84,290.05,227.37,289.7Zm.38,7.54a39.81,39.81,0,0,0,1.27-4.73c.36.15.68.28,1,.38-.36,1.4-.76,3-1.18,4.68Zm.09-10.73.63-.64c.59.47,1.25,1,2,1.68l-.72.72C229.06,287.59,228.43,287,227.84,286.51Zm3.87,5.46h.93a9.7,9.7,0,0,1-.5,3.75,4.26,4.26,0,0,1-2,2,4.64,4.64,0,0,0-.63-.8,3.52,3.52,0,0,0,1.77-1.69A8.28,8.28,0,0,0,231.71,292Zm5.29-3.23c.63.73,1.34,1.62,2.11,2.67l-.88.57-.59-.85-5.51.27a5.32,5.32,0,0,0-1,.14l-.41-.91a5.2,5.2,0,0,0,.85-.56,14,14,0,0,0,1.88-2h-2.71v-.87h3.88c-.31-.48-.61-.9-.89-1.26l.81-.5c.3.39.64.83,1,1.35l-.63.41h4.15v.87h-5.4l.81.34a26.15,26.15,0,0,1-2.12,2.05l4.66-.16c-.28-.38-.55-.74-.81-1.06ZM234.12,292H235v5.45h-.91Zm2.23-.05h.92V296c0,.38.15.56.44.56h.43c.25,0,.41-.2.47-.62a13.07,13.07,0,0,0,.11-1.54,9.8,9.8,0,0,0,.92.36c-.06.68-.12,1.2-.19,1.57a1.08,1.08,0,0,1-1.16,1.09h-.75c-.79,0-1.19-.48-1.19-1.43Z"/><path class="cls-35" d="M240.18,287.76H246c-.42-.78-.74-1.35-1-1.71l1-.45c.23.35.57.92,1,1.71l-.89.45h5.78v.93h-7.4q0,1.11-.09,1.89h5.89c-.09,1.77-.2,3.3-.31,4.6-.09,1.47-.81,2.21-2.15,2.21-.62,0-1.45,0-2.48-.1,0-.31-.1-.68-.18-1.12a19.5,19.5,0,0,0,2.51.21c.75,0,1.17-.45,1.26-1.33s.18-2.16.26-3.55h-4.87a8,8,0,0,1-3.73,6.25c-.22-.27-.47-.54-.74-.83a7.13,7.13,0,0,0,3.45-5.69c.06-.65.1-1.49.14-2.54h-3.32Z"/><path class="cls-35" d="M254.41,297.55h-.95v-10h3.6c.2-.6.4-1.23.59-1.89l1.05.29c-.22.57-.42,1.1-.63,1.6h5.72v8.58a1.22,1.22,0,0,1-1.38,1.38l-1.86,0c0-.28-.1-.6-.17-.95.7.06,1.29.09,1.78.09s.67-.24.67-.71v-7.46h-8.42Zm1.67-7.36h5.06v4.28H257v.85h-.93Zm4.13.88H257v2.53h3.2Z"/><path class="cls-35" d="M192.44,311.39a8.41,8.41,0,0,1-2.06-5.75,8.76,8.76,0,0,1,2.06-5.85h1.05a9,9,0,0,0-2.06,5.83,8.75,8.75,0,0,0,2,5.77Z"/><path class="cls-35" d="M196.22,299.78l-.2,2.94h-.82l-.2-2.94Zm1.65,0-.2,2.94h-.82l-.2-2.94Z"/><path class="cls-35" d="M203.59,303.68a1.33,1.33,0,0,0-.82-.22,1.35,1.35,0,0,0-1.15.65,3,3,0,0,0-.45,1.71v3.42H200v-6.75h1.2v1.38h0c.35-1,.94-1.49,1.77-1.49a1.68,1.68,0,0,1,.63.09Z"/><path class="cls-35" d="M210.16,306.17h-4.73a2.4,2.4,0,0,0,.6,1.67,2,2,0,0,0,1.56.59,3.3,3.3,0,0,0,2.08-.73v1.07a4,4,0,0,1-2.36.63,2.88,2.88,0,0,1-2.28-.93,3.72,3.72,0,0,1-.82-2.57,3.69,3.69,0,0,1,.9-2.56,2.87,2.87,0,0,1,2.23-1,2.61,2.61,0,0,1,2.07.85,3.51,3.51,0,0,1,.75,2.39Zm-1.2-1a2.12,2.12,0,0,0-.43-1.41,1.49,1.49,0,0,0-1.2-.5,1.66,1.66,0,0,0-1.24.53,2.43,2.43,0,0,0-.66,1.38Z"/><path class="cls-35" d="M213,308.29v4.06h-1.19v-9.86H213v1.17h0a2.54,2.54,0,0,1,2.32-1.33,2.49,2.49,0,0,1,2,.91,3.73,3.73,0,0,1,.73,2.43,4.18,4.18,0,0,1-.83,2.71,2.76,2.76,0,0,1-2.24,1,2.25,2.25,0,0,1-2-1.11Zm0-1.83a1.93,1.93,0,0,0,.53,1.39,1.77,1.77,0,0,0,1.33.56,1.75,1.75,0,0,0,1.49-.73,3.35,3.35,0,0,0,.54-2,2.68,2.68,0,0,0-.5-1.71,1.68,1.68,0,0,0-1.37-.62,1.89,1.89,0,0,0-1.46.63,2.35,2.35,0,0,0-.56,1.61Z"/><path class="cls-35" d="M219.9,309.24v-10h1.2v10Z"/><path class="cls-35" d="M228.82,302.49l-3.07,7.77c-.57,1.44-1.37,2.16-2.41,2.16a2.41,2.41,0,0,1-.76-.1v-1.05a1.83,1.83,0,0,0,.67.14,1.3,1.3,0,0,0,1.21-1l.52-1.23-2.65-6.74h1.33l1.76,5.07.15.56h0a3.3,3.3,0,0,1,.15-.54l1.84-5.09Z"/><path class="cls-35" d="M231.66,299.78l-.21,2.94h-.81l-.2-2.94Zm1.64,0-.19,2.94h-.83l-.2-2.94Z"/><path class="cls-35" d="M234.83,311.39a8.74,8.74,0,0,0,2.06-5.77,8.93,8.93,0,0,0-2.07-5.83h1.06a8.68,8.68,0,0,1,2.06,5.85,8.33,8.33,0,0,1-2.06,5.75Z"/></g></svg>