<svg xmlns="http://www.w3.org/2000/svg" xmlns:xlink="http://www.w3.org/1999/xlink" viewBox="0 0 578 261.17"><defs><style>.cls-1,.cls-2{fill:#fff;}.cls-19,.cls-2{stroke:#e6e6e6;stroke-width:0.75px;}.cls-3{fill:#3c3c41;opacity:0.08;}.cls-3,.cls-31,.cls-32,.cls-33,.cls-37,.cls-38,.cls-39,.cls-40,.cls-48,.cls-49,.cls-56,.cls-57,.cls-58{isolation:isolate;}.cls-4{fill:url(#Degradado_sin_nombre);}.cls-5{fill:#b4ec36;}.cls-6{fill:#5ea0ef;}.cls-7{fill:url(#Degradado_sin_nombre_2);}.cls-8{fill:#50e6ff;}.cls-9{fill:#c3f1ff;}.cls-10{fill:#9cebff;}.cls-11{fill:url(#Degradado_sin_nombre_3);}.cls-12{fill:url(#Degradado_sin_nombre_4);}.cls-13{fill:url(#Degradado_sin_nombre_5);}.cls-14{fill:url(#Degradado_sin_nombre_6);}.cls-15{fill:url(#Degradado_sin_nombre_7);}.cls-16{fill:url(#Degradado_sin_nombre_8);}.cls-17{fill:url(#Degradado_sin_nombre_9);}.cls-18,.cls-19,.cls-20,.cls-59{fill:none;}.cls-18,.cls-20,.cls-59{stroke:#e62323;}.cls-18,.cls-59{stroke-miterlimit:10;}.cls-18{stroke-dasharray:3 3;}.cls-20{stroke-dasharray:1.05 2.09;}.cls-21{fill:url(#Degradado_sin_nombre_10);}.cls-22{fill:url(#Degradado_sin_nombre_11);}.cls-23{fill:url(#Degradado_sin_nombre_12);}.cls-24{fill:url(#Degradado_sin_nombre_13);}.cls-25{fill:url(#Degradado_sin_nombre_14);}.cls-26{fill:url(#Degradado_sin_nombre_15);}.cls-27{fill:url(#Degradado_sin_nombre_16);}.cls-28{fill:url(#Degradado_sin_nombre_17);}.cls-29{fill:url(#Degradado_sin_nombre_18);}.cls-30{fill:url(#Degradado_sin_nombre_19);}.cls-31,.cls-32,.cls-33,.cls-37,.cls-38,.cls-39,.cls-40,.cls-48,.cls-49,.cls-56,.cls-57,.cls-58{opacity:0.5;}.cls-31{fill:url(#Degradado_sin_nombre_20);}.cls-32{fill:url(#Degradado_sin_nombre_21);}.cls-33{fill:url(#Degradado_sin_nombre_22);}.cls-34{fill:url(#Degradado_sin_nombre_23);}.cls-35{fill:url(#Degradado_sin_nombre_24);}.cls-36{fill:url(#Degradado_sin_nombre_25);}.cls-37{fill:url(#Degradado_sin_nombre_26);}.cls-38{fill:url(#Degradado_sin_nombre_27);}.cls-39{fill:url(#Degradado_sin_nombre_28);}.cls-40{fill:url(#Degradado_sin_nombre_29);}.cls-41{fill:url(#Degradado_sin_nombre_30);}.cls-42{fill:url(#Degradado_sin_nombre_31);}.cls-43{fill:url(#Degradado_sin_nombre_32);}.cls-44{fill:url(#Degradado_sin_nombre_33);}.cls-45{fill:url(#Degradado_sin_nombre_34);}.cls-46{fill:url(#Degradado_sin_nombre_35);}.cls-47{fill:url(#Degradado_sin_nombre_36);}.cls-48{fill:url(#Degradado_sin_nombre_37);}.cls-49{fill:url(#Degradado_sin_nombre_38);}.cls-50{fill:url(#Degradado_sin_nombre_39);}.cls-51{fill:url(#Degradado_sin_nombre_40);}.cls-52{fill:url(#Degradado_sin_nombre_41);}.cls-53{fill:url(#Degradado_sin_nombre_42);}.cls-54{fill:url(#Degradado_sin_nombre_43);}.cls-55{fill:url(#Degradado_sin_nombre_44);}.cls-56{fill:url(#Degradado_sin_nombre_45);}.cls-57{fill:url(#Degradado_sin_nombre_46);}.cls-58{fill:url(#Degradado_sin_nombre_47);}.cls-59{stroke-dasharray:1 2;}.cls-60{fill:#e62323;}.cls-61{fill:#e6e6e6;}.cls-62{fill:#107c10;}.cls-63{fill:#faa21d;}.cls-64{fill:url(#Degradado_sin_nombre_48);}.cls-65{fill:url(#Degradado_sin_nombre_49);}.cls-66{fill:url(#Degradado_sin_nombre_50);}.cls-67{fill:url(#Degradado_sin_nombre_51);}.cls-68{fill:url(#Degradado_sin_nombre_52);}.cls-69{fill:url(#Degradado_sin_nombre_53);}.cls-70{fill:url(#Degradado_sin_nombre_54);}.cls-71{fill:url(#Degradado_sin_nombre_55);}.cls-72{fill:url(#Degradado_sin_nombre_56);}.cls-73{fill:url(#Degradado_sin_nombre_57);}.cls-74{fill:url(#Degradado_sin_nombre_58);}.cls-75{fill:url(#Degradado_sin_nombre_59);}.cls-76{fill:url(#Degradado_sin_nombre_60);}.cls-77{fill:url(#Degradado_sin_nombre_61);}.cls-78{fill:url(#Degradado_sin_nombre_62);}.cls-79{fill:url(#Degradado_sin_nombre_63);}.cls-80{fill:url(#Degradado_sin_nombre_64);}.cls-81{fill:url(#Degradado_sin_nombre_65);}.cls-82{fill:url(#Degradado_sin_nombre_66);}.cls-83{fill:url(#Degradado_sin_nombre_67);}.cls-84{fill:url(#Degradado_sin_nombre_68);}.cls-85{fill:url(#Degradado_sin_nombre_69);}.cls-86{fill:url(#Degradado_sin_nombre_70);}.cls-87{fill:url(#Degradado_sin_nombre_71);}.cls-88{fill:url(#Degradado_sin_nombre_72);}.cls-89{fill:url(#Degradado_sin_nombre_73);}.cls-90{fill:url(#Degradado_sin_nombre_74);}.cls-91{fill:url(#Degradado_sin_nombre_75);}.cls-92{fill:url(#Degradado_sin_nombre_76);}.cls-93{fill:url(#Degradado_sin_nombre_77);}.cls-94{fill:url(#Degradado_sin_nombre_78);}.cls-95{fill:url(#Degradado_sin_nombre_79);}.cls-96{fill:url(#Degradado_sin_nombre_80);}.cls-97{fill:url(#Degradado_sin_nombre_81);}.cls-98{fill:url(#Degradado_sin_nombre_82);}.cls-99{fill:url(#Degradado_sin_nombre_83);}.cls-100{fill:url(#Degradado_sin_nombre_84);}.cls-101{fill:url(#Degradado_sin_nombre_85);}.cls-102{fill:url(#Degradado_sin_nombre_86);}.cls-103{fill:#6ebcdb;}.cls-104{fill:#5db4d7;}.cls-105{fill:#86d633;}.cls-106{fill:#1e1e1e;}.cls-107{fill:#3b3b3b;}</style><linearGradient id="Degradado_sin_nombre" x1="36.12" y1="280.98" x2="36.12" y2="241.57" gradientTransform="translate(0 -232.33)" gradientUnits="userSpaceOnUse"><stop offset="0" stop-color="#5e9624"/><stop offset="0.02" stop-color="#5f9724"/><stop offset="1" stop-color="#76bc2d"/></linearGradient><linearGradient id="Degradado_sin_nombre_2" x1="85.83" y1="439.45" x2="85.83" y2="427.9" gradientTransform="translate(0 -232.33)" gradientUnits="userSpaceOnUse"><stop offset="0" stop-color="#0078d4"/><stop offset="0.82" stop-color="#5ea0ef"/></linearGradient><linearGradient id="Degradado_sin_nombre_3" x1="85.83" y1="443.9" x2="85.83" y2="439.44" gradientTransform="translate(0 -232.33)" gradientUnits="userSpaceOnUse"><stop offset="0.15" stop-color="#ccc"/><stop offset="1" stop-color="#707070"/></linearGradient><linearGradient id="Degradado_sin_nombre_4" x1="142.21" y1="439.45" x2="142.21" y2="427.9" xlink:href="#Degradado_sin_nombre_2"/><linearGradient id="Degradado_sin_nombre_5" x1="142.21" y1="443.9" x2="142.21" y2="439.44" xlink:href="#Degradado_sin_nombre_3"/><linearGradient id="Degradado_sin_nombre_6" x1="197.38" y1="439.45" x2="197.38" y2="427.9" xlink:href="#Degradado_sin_nombre_2"/><linearGradient id="Degradado_sin_nombre_7" x1="197.38" y1="443.9" x2="197.38" y2="439.44" xlink:href="#Degradado_sin_nombre_3"/><linearGradient id="Degradado_sin_nombre_8" x1="252.4" y1="439.45" x2="252.4" y2="427.9" xlink:href="#Degradado_sin_nombre_2"/><linearGradient id="Degradado_sin_nombre_9" x1="252.4" y1="443.9" x2="252.4" y2="439.44" xlink:href="#Degradado_sin_nombre_3"/><linearGradient id="Degradado_sin_nombre_10" x1="81.17" y1="121.49" x2="81.17" y2="131.49" gradientTransform="matrix(1, 0, 0, -1, 0, 262.66)" gradientUnits="userSpaceOnUse"><stop offset="0" stop-color="#0078d4"/><stop offset="0.16" stop-color="#1380da"/><stop offset="0.53" stop-color="#3c91e5"/><stop offset="0.82" stop-color="#559cec"/><stop offset="1" stop-color="#5ea0ef"/></linearGradient><linearGradient id="Degradado_sin_nombre_11" x1="96.17" y1="121.49" x2="96.17" y2="131.49" xlink:href="#Degradado_sin_nombre_10"/><linearGradient id="Degradado_sin_nombre_12" x1="111.17" y1="121.49" x2="111.17" y2="131.49" xlink:href="#Degradado_sin_nombre_10"/><linearGradient id="Degradado_sin_nombre_13" x1="81.17" y1="106.49" x2="81.17" y2="116.49" xlink:href="#Degradado_sin_nombre_10"/><linearGradient id="Degradado_sin_nombre_14" x1="17.66" y1="8.99" x2="17.66" y2="18.99" xlink:href="#Degradado_sin_nombre_10"/><linearGradient id="Degradado_sin_nombre_15" x1="96.17" y1="106.49" x2="96.17" y2="116.49" xlink:href="#Degradado_sin_nombre_10"/><linearGradient id="Degradado_sin_nombre_16" x1="111.17" y1="106.49" x2="111.17" y2="116.49" xlink:href="#Degradado_sin_nombre_10"/><linearGradient id="Degradado_sin_nombre_17" x1="81.17" y1="136.49" x2="81.17" y2="146.49" xlink:href="#Degradado_sin_nombre_10"/><linearGradient id="Degradado_sin_nombre_18" x1="96.17" y1="136.49" x2="96.17" y2="146.49" xlink:href="#Degradado_sin_nombre_10"/><linearGradient id="Degradado_sin_nombre_19" x1="111.17" y1="136.49" x2="111.17" y2="146.49" xlink:href="#Degradado_sin_nombre_10"/><linearGradient id="Degradado_sin_nombre_20" x1="136.17" y1="121.49" x2="136.17" y2="131.49" xlink:href="#Degradado_sin_nombre_10"/><linearGradient id="Degradado_sin_nombre_21" x1="151.17" y1="121.49" x2="151.17" y2="131.49" xlink:href="#Degradado_sin_nombre_10"/><linearGradient id="Degradado_sin_nombre_22" x1="166.17" y1="121.49" x2="166.17" y2="131.49" xlink:href="#Degradado_sin_nombre_10"/><linearGradient id="Degradado_sin_nombre_23" x1="136.17" y1="106.49" x2="136.17" y2="116.49" xlink:href="#Degradado_sin_nombre_10"/><linearGradient id="Degradado_sin_nombre_24" x1="151.17" y1="106.49" x2="151.17" y2="116.49" xlink:href="#Degradado_sin_nombre_10"/><linearGradient id="Degradado_sin_nombre_25" x1="166.17" y1="106.49" x2="166.17" y2="116.49" xlink:href="#Degradado_sin_nombre_10"/><linearGradient id="Degradado_sin_nombre_26" x1="136.17" y1="136.49" x2="136.17" y2="146.49" xlink:href="#Degradado_sin_nombre_10"/><linearGradient id="Degradado_sin_nombre_27" x1="17.66" y1="23.99" x2="17.66" y2="33.99" xlink:href="#Degradado_sin_nombre_10"/><linearGradient id="Degradado_sin_nombre_28" x1="151.17" y1="136.49" x2="151.17" y2="146.49" xlink:href="#Degradado_sin_nombre_10"/><linearGradient id="Degradado_sin_nombre_29" x1="166.17" y1="136.49" x2="166.17" y2="146.49" xlink:href="#Degradado_sin_nombre_10"/><linearGradient id="Degradado_sin_nombre_30" x1="191.17" y1="121.49" x2="191.17" y2="131.49" xlink:href="#Degradado_sin_nombre_10"/><linearGradient id="Degradado_sin_nombre_31" x1="206.17" y1="121.49" x2="206.17" y2="131.49" xlink:href="#Degradado_sin_nombre_10"/><linearGradient id="Degradado_sin_nombre_32" x1="221.17" y1="121.49" x2="221.17" y2="131.49" xlink:href="#Degradado_sin_nombre_10"/><linearGradient id="Degradado_sin_nombre_33" x1="191.17" y1="106.49" x2="191.17" y2="116.49" xlink:href="#Degradado_sin_nombre_10"/><linearGradient id="Degradado_sin_nombre_34" x1="206.17" y1="106.49" x2="206.17" y2="116.49" xlink:href="#Degradado_sin_nombre_10"/><linearGradient id="Degradado_sin_nombre_35" x1="221.17" y1="106.49" x2="221.17" y2="116.49" xlink:href="#Degradado_sin_nombre_10"/><linearGradient id="Degradado_sin_nombre_36" x1="191.17" y1="136.49" x2="191.17" y2="146.49" xlink:href="#Degradado_sin_nombre_10"/><linearGradient id="Degradado_sin_nombre_37" x1="206.17" y1="136.49" x2="206.17" y2="146.49" xlink:href="#Degradado_sin_nombre_10"/><linearGradient id="Degradado_sin_nombre_38" x1="221.17" y1="136.49" x2="221.17" y2="146.49" xlink:href="#Degradado_sin_nombre_10"/><linearGradient id="Degradado_sin_nombre_39" x1="246.17" y1="121.49" x2="246.17" y2="131.49" xlink:href="#Degradado_sin_nombre_10"/><linearGradient id="Degradado_sin_nombre_40" x1="261.17" y1="121.49" x2="261.17" y2="131.49" xlink:href="#Degradado_sin_nombre_10"/><linearGradient id="Degradado_sin_nombre_41" x1="276.17" y1="121.49" x2="276.17" y2="131.49" xlink:href="#Degradado_sin_nombre_10"/><linearGradient id="Degradado_sin_nombre_42" x1="246.17" y1="106.49" x2="246.17" y2="116.49" xlink:href="#Degradado_sin_nombre_10"/><linearGradient id="Degradado_sin_nombre_43" x1="261.17" y1="106.49" x2="261.17" y2="116.49" xlink:href="#Degradado_sin_nombre_10"/><linearGradient id="Degradado_sin_nombre_44" x1="276.17" y1="106.49" x2="276.17" y2="116.49" xlink:href="#Degradado_sin_nombre_10"/><linearGradient id="Degradado_sin_nombre_45" x1="246.17" y1="136.49" x2="246.17" y2="146.49" xlink:href="#Degradado_sin_nombre_10"/><linearGradient id="Degradado_sin_nombre_46" x1="261.17" y1="136.49" x2="261.17" y2="146.49" xlink:href="#Degradado_sin_nombre_10"/><linearGradient id="Degradado_sin_nombre_47" x1="276.17" y1="136.49" x2="276.17" y2="146.49" xlink:href="#Degradado_sin_nombre_10"/><linearGradient id="Degradado_sin_nombre_48" x1="308.33" y1="439.45" x2="308.33" y2="427.9" xlink:href="#Degradado_sin_nombre_2"/><linearGradient id="Degradado_sin_nombre_49" x1="308.33" y1="443.9" x2="308.33" y2="439.44" xlink:href="#Degradado_sin_nombre_3"/><linearGradient id="Degradado_sin_nombre_50" x1="364.71" y1="439.45" x2="364.71" y2="427.9" xlink:href="#Degradado_sin_nombre_2"/><linearGradient id="Degradado_sin_nombre_51" x1="364.69" y1="443.9" x2="364.69" y2="439.44" xlink:href="#Degradado_sin_nombre_3"/><linearGradient id="Degradado_sin_nombre_52" x1="419.88" y1="439.45" x2="419.88" y2="427.9" xlink:href="#Degradado_sin_nombre_2"/><linearGradient id="Degradado_sin_nombre_53" x1="419.88" y1="443.9" x2="419.88" y2="439.44" xlink:href="#Degradado_sin_nombre_3"/><linearGradient id="Degradado_sin_nombre_54" x1="474.9" y1="439.45" x2="474.9" y2="427.9" xlink:href="#Degradado_sin_nombre_2"/><linearGradient id="Degradado_sin_nombre_55" x1="474.9" y1="443.9" x2="474.9" y2="439.44" xlink:href="#Degradado_sin_nombre_3"/><linearGradient id="Degradado_sin_nombre_56" x1="303.67" y1="121.49" x2="303.67" y2="131.49" xlink:href="#Degradado_sin_nombre_10"/><linearGradient id="Degradado_sin_nombre_57" x1="318.67" y1="121.49" x2="318.67" y2="131.49" xlink:href="#Degradado_sin_nombre_10"/><linearGradient id="Degradado_sin_nombre_58" x1="333.67" y1="121.49" x2="333.67" y2="131.49" xlink:href="#Degradado_sin_nombre_10"/><linearGradient id="Degradado_sin_nombre_59" x1="303.67" y1="106.49" x2="303.67" y2="116.49" xlink:href="#Degradado_sin_nombre_10"/><linearGradient id="Degradado_sin_nombre_60" x1="318.67" y1="106.49" x2="318.67" y2="116.49" xlink:href="#Degradado_sin_nombre_10"/><linearGradient id="Degradado_sin_nombre_61" x1="333.67" y1="106.49" x2="333.67" y2="116.49" xlink:href="#Degradado_sin_nombre_10"/><linearGradient id="Degradado_sin_nombre_62" x1="303.67" y1="136.49" x2="303.67" y2="146.49" xlink:href="#Degradado_sin_nombre_10"/><linearGradient id="Degradado_sin_nombre_63" x1="318.67" y1="136.49" x2="318.67" y2="146.49" xlink:href="#Degradado_sin_nombre_10"/><linearGradient id="Degradado_sin_nombre_64" x1="333.67" y1="136.49" x2="333.67" y2="146.49" xlink:href="#Degradado_sin_nombre_10"/><linearGradient id="Degradado_sin_nombre_65" x1="303.67" y1="151.49" x2="303.67" y2="161.49" xlink:href="#Degradado_sin_nombre_10"/><linearGradient id="Degradado_sin_nombre_66" x1="318.67" y1="151.49" x2="318.67" y2="161.49" xlink:href="#Degradado_sin_nombre_10"/><linearGradient id="Degradado_sin_nombre_67" x1="333.67" y1="151.49" x2="333.67" y2="161.49" xlink:href="#Degradado_sin_nombre_10"/><linearGradient id="Degradado_sin_nombre_68" x1="303.67" y1="166.49" x2="303.67" y2="176.49" xlink:href="#Degradado_sin_nombre_10"/><linearGradient id="Degradado_sin_nombre_69" x1="318.67" y1="166.49" x2="318.67" y2="176.49" xlink:href="#Degradado_sin_nombre_10"/><linearGradient id="Degradado_sin_nombre_70" x1="333.67" y1="166.49" x2="333.67" y2="176.49" xlink:href="#Degradado_sin_nombre_10"/><linearGradient id="Degradado_sin_nombre_71" x1="358.67" y1="106.49" x2="358.67" y2="116.49" xlink:href="#Degradado_sin_nombre_10"/><linearGradient id="Degradado_sin_nombre_72" x1="373.67" y1="106.49" x2="373.67" y2="116.49" xlink:href="#Degradado_sin_nombre_10"/><linearGradient id="Degradado_sin_nombre_73" x1="388.67" y1="106.49" x2="388.67" y2="116.49" xlink:href="#Degradado_sin_nombre_10"/><linearGradient id="Degradado_sin_nombre_74" x1="413.67" y1="121.49" x2="413.67" y2="131.49" xlink:href="#Degradado_sin_nombre_10"/><linearGradient id="Degradado_sin_nombre_75" x1="428.67" y1="121.49" x2="428.67" y2="131.49" xlink:href="#Degradado_sin_nombre_10"/><linearGradient id="Degradado_sin_nombre_76" x1="443.67" y1="121.49" x2="443.67" y2="131.49" xlink:href="#Degradado_sin_nombre_10"/><linearGradient id="Degradado_sin_nombre_77" x1="413.67" y1="106.49" x2="413.67" y2="116.49" xlink:href="#Degradado_sin_nombre_10"/><linearGradient id="Degradado_sin_nombre_78" x1="428.67" y1="106.49" x2="428.67" y2="116.49" xlink:href="#Degradado_sin_nombre_10"/><linearGradient id="Degradado_sin_nombre_79" x1="443.67" y1="106.49" x2="443.67" y2="116.49" xlink:href="#Degradado_sin_nombre_10"/><linearGradient id="Degradado_sin_nombre_80" x1="413.67" y1="136.49" x2="413.67" y2="146.49" xlink:href="#Degradado_sin_nombre_10"/><linearGradient id="Degradado_sin_nombre_81" x1="468.67" y1="121.49" x2="468.67" y2="131.49" xlink:href="#Degradado_sin_nombre_10"/><linearGradient id="Degradado_sin_nombre_82" x1="483.67" y1="121.49" x2="483.67" y2="131.49" xlink:href="#Degradado_sin_nombre_10"/><linearGradient id="Degradado_sin_nombre_83" x1="498.67" y1="121.49" x2="498.67" y2="131.49" xlink:href="#Degradado_sin_nombre_10"/><linearGradient id="Degradado_sin_nombre_84" x1="468.67" y1="106.49" x2="468.67" y2="116.49" xlink:href="#Degradado_sin_nombre_10"/><linearGradient id="Degradado_sin_nombre_85" x1="483.67" y1="106.49" x2="483.67" y2="116.49" xlink:href="#Degradado_sin_nombre_10"/><linearGradient id="Degradado_sin_nombre_86" x1="498.67" y1="106.49" x2="498.67" y2="116.49" xlink:href="#Degradado_sin_nombre_10"/></defs><title>OJ104903187</title><g id="Target"><g id="Shapes"><rect class="cls-1" width="578" height="261.17"/><rect class="cls-2" x="291.17" y="1.17" width="285.67" height="220"/><rect class="cls-2" x="1.17" y="1.17" width="285" height="220"/><rect class="cls-1" x="291.83" y="1.17" width="285" height="55"/><rect class="cls-3" x="291.83" y="1.17" width="285" height="55"/><rect class="cls-1" x="1.17" y="1.17" width="285" height="55"/><rect class="cls-3" x="1.17" y="1.17" width="285" height="55"/><path class="cls-4" d="M19.47,27.35,35.31,11.51a1.15,1.15,0,0,1,1.61,0h0L52.78,27.35a1.15,1.15,0,0,1,0,1.61h0L36.92,44.84a1.14,1.14,0,0,1-1.59,0L19.47,29a1.13,1.13,0,0,1,0-1.6h0Z"/><path class="cls-5" d="M40.28,18.72l-4-4a.23.23,0,0,0-.31,0l-4,4a.19.19,0,0,0,0,.27.18.18,0,0,0,.19.07h2.34a.21.21,0,0,1,.21.21v3.78a.21.21,0,0,0,.21.21h2.49a.21.21,0,0,0,.21-.21V19.27a.21.21,0,0,1,.21-.21h2.34a.19.19,0,0,0,.23-.13A.2.2,0,0,0,40.28,18.72Z"/><path class="cls-5" d="M26.68,23.65l-4,4a.19.19,0,0,0,0,.27h0l4,4a.22.22,0,0,0,.3,0h0a.23.23,0,0,0,.06-.16v-2.3a.23.23,0,0,1,.21-.21H31a.2.2,0,0,0,.19-.19h0V26.56a.2.2,0,0,0-.07-.26H27.31a.19.19,0,0,1-.21-.17h0V23.8a.22.22,0,0,0-.13-.28A.23.23,0,0,0,26.68,23.65Z"/><path class="cls-5" d="M45.72,31.94l4-4a.19.19,0,0,0,0-.27h0l-4-4a.22.22,0,0,0-.3,0,.28.28,0,0,0,0,.12v2.36a.18.18,0,0,1-.17.19H41.4a.2.2,0,0,0-.19.19v2.51a.19.19,0,0,0,.17.21h3.79a.21.21,0,0,1,.21.21v2.34a.2.2,0,0,0,.22.18h0A.17.17,0,0,0,45.72,31.94Z"/><path class="cls-1" d="M41.4,28.17a5.27,5.27,0,1,0-6.69,5V35a3.23,3.23,0,1,0,4.35,1.39h0A3.33,3.33,0,0,0,37.67,35V33.11A5.24,5.24,0,0,0,41.4,28.17Z"/><circle id="e99c3387-15c3-4f28-bd4b-cb209b430e06" class="cls-6" cx="36.14" cy="28.15" r="3.06"/><rect class="cls-7" x="77.17" y="195.57" width="17.32" height="11.55" rx="0.58"/><polygon class="cls-8" points="88.71 199.66 88.71 203.02 85.83 204.71 85.83 201.34 88.71 199.66"/><polygon class="cls-9" points="88.71 199.66 85.83 201.35 82.94 199.66 85.83 197.98 88.71 199.66"/><polygon class="cls-10" points="85.83 201.35 85.83 204.71 82.94 203.02 82.94 199.66 85.83 201.35"/><polygon class="cls-9" points="82.94 203.02 85.83 201.34 85.83 204.71 82.94 203.02"/><polygon class="cls-10" points="88.71 203.02 85.83 201.34 85.83 204.71 88.71 203.02"/><path class="cls-11" d="M89.3,210.61c-1.71-.27-1.78-1.5-1.78-3.49h-3.4c0,2-.05,3.22-1.77,3.49a1,1,0,0,0-.85,1h8.66A1,1,0,0,0,89.3,210.61Z"/><rect class="cls-12" x="133.55" y="195.57" width="17.32" height="11.55" rx="0.58"/><polygon class="cls-8" points="145.09 199.66 145.09 203.02 142.21 204.71 142.21 201.34 145.09 199.66"/><polygon class="cls-9" points="145.09 199.66 142.21 201.35 139.32 199.66 142.21 197.98 145.09 199.66"/><polygon class="cls-10" points="142.21 201.35 142.21 204.71 139.32 203.02 139.32 199.66 142.21 201.35"/><polygon class="cls-9" points="139.32 203.02 142.21 201.34 142.21 204.71 139.32 203.02"/><polygon class="cls-10" points="145.09 203.02 142.21 201.34 142.21 204.71 145.09 203.02"/><path class="cls-13" d="M145.68,210.61c-1.71-.27-1.78-1.5-1.78-3.49h-3.39c0,2-.06,3.22-1.77,3.49a1,1,0,0,0-.86,1h8.66A1,1,0,0,0,145.68,210.61Z"/><rect class="cls-14" x="188.72" y="195.57" width="17.32" height="11.55" rx="0.58"/><polygon class="cls-8" points="200.26 199.66 200.26 203.02 197.38 204.71 197.38 201.34 200.26 199.66"/><polygon class="cls-9" points="200.26 199.66 197.38 201.35 194.49 199.66 197.38 197.98 200.26 199.66"/><polygon class="cls-10" points="197.38 201.35 197.38 204.71 194.49 203.02 194.49 199.66 197.38 201.35"/><polygon class="cls-9" points="194.49 203.02 197.38 201.34 197.38 204.71 194.49 203.02"/><polygon class="cls-10" points="200.26 203.02 197.38 201.34 197.38 204.71 200.26 203.02"/><path class="cls-15" d="M200.85,210.61c-1.71-.27-1.78-1.5-1.78-3.49h-3.4c0,2-.06,3.22-1.77,3.49a1,1,0,0,0-.85,1h8.65A1,1,0,0,0,200.85,210.61Z"/><rect class="cls-16" x="243.74" y="195.57" width="17.32" height="11.55" rx="0.58"/><polygon class="cls-8" points="255.28 199.66 255.28 203.02 252.4 204.71 252.4 201.34 255.28 199.66"/><polygon class="cls-9" points="255.28 199.66 252.4 201.35 249.51 199.66 252.4 197.98 255.28 199.66"/><polygon class="cls-10" points="252.4 201.35 252.4 204.71 249.51 203.02 249.51 199.66 252.4 201.35"/><polygon class="cls-9" points="249.51 203.02 252.4 201.34 252.4 204.71 249.51 203.02"/><polygon class="cls-10" points="255.28 203.02 252.4 201.34 252.4 204.71 255.28 203.02"/><path class="cls-17" d="M255.87,210.61c-1.71-.27-1.78-1.5-1.78-3.49h-3.4c0,2-.05,3.22-1.77,3.49a1,1,0,0,0-.85,1h8.66A1,1,0,0,0,255.87,210.61Z"/><line class="cls-18" x1="1.17" y1="106.17" x2="285.42" y2="106.17"/><line class="cls-19" x1="1.17" y1="166.17" x2="286.17" y2="166.17"/><circle class="cls-1" cx="81.17" cy="88.67" r="5"/><circle class="cls-20" cx="81.17" cy="88.67" r="5"/><circle class="cls-1" cx="96.17" cy="88.67" r="5"/><circle class="cls-20" cx="96.17" cy="88.67" r="5"/><circle class="cls-1" cx="111.17" cy="88.67" r="5"/><circle class="cls-20" cx="111.17" cy="88.67" r="5"/><circle class="cls-1" cx="81.17" cy="73.67" r="5"/><circle class="cls-20" cx="81.17" cy="73.67" r="5"/><circle class="cls-1" cx="231.17" cy="233.67" r="5"/><circle class="cls-20" cx="231.17" cy="233.67" r="5"/><circle class="cls-1" cx="96.17" cy="73.67" r="5"/><circle class="cls-20" cx="96.17" cy="73.67" r="5"/><circle class="cls-1" cx="111.17" cy="73.67" r="5"/><circle class="cls-20" cx="111.17" cy="73.67" r="5"/><circle class="cls-21" cx="81.17" cy="136.17" r="5"/><circle class="cls-22" cx="96.17" cy="136.17" r="5"/><circle class="cls-23" cx="111.17" cy="136.17" r="5"/><circle class="cls-24" cx="81.17" cy="151.17" r="5"/><circle class="cls-25" cx="17.66" cy="248.67" r="5"/><circle class="cls-26" cx="96.17" cy="151.17" r="5"/><circle class="cls-27" cx="111.17" cy="151.17" r="5"/><circle class="cls-28" cx="81.17" cy="121.17" r="5"/><circle class="cls-29" cx="96.17" cy="121.17" r="5"/><circle class="cls-30" cx="111.17" cy="121.17" r="5"/><circle class="cls-31" cx="136.17" cy="136.17" r="5"/><circle class="cls-32" cx="151.17" cy="136.17" r="5"/><circle class="cls-33" cx="166.17" cy="136.17" r="5"/><circle class="cls-34" cx="136.17" cy="151.17" r="5"/><circle class="cls-35" cx="151.17" cy="151.17" r="5"/><circle class="cls-36" cx="166.17" cy="151.17" r="5"/><circle class="cls-37" cx="136.17" cy="121.17" r="5"/><circle class="cls-38" cx="17.66" cy="233.67" r="5"/><circle class="cls-39" cx="151.17" cy="121.17" r="5"/><circle class="cls-40" cx="166.17" cy="121.17" r="5"/><circle class="cls-41" cx="191.17" cy="136.17" r="5"/><circle class="cls-42" cx="206.17" cy="136.17" r="5"/><circle class="cls-43" cx="221.17" cy="136.17" r="5"/><circle class="cls-44" cx="191.17" cy="151.17" r="5"/><circle class="cls-45" cx="206.17" cy="151.17" r="5"/><circle class="cls-46" cx="221.17" cy="151.17" r="5"/><circle class="cls-47" cx="191.17" cy="121.17" r="5"/><circle class="cls-48" cx="206.17" cy="121.17" r="5"/><circle class="cls-49" cx="221.17" cy="121.17" r="5"/><circle class="cls-50" cx="246.17" cy="136.17" r="5"/><circle class="cls-51" cx="261.17" cy="136.17" r="5"/><circle class="cls-52" cx="276.17" cy="136.17" r="5"/><circle class="cls-53" cx="246.17" cy="151.17" r="5"/><circle class="cls-54" cx="261.17" cy="151.17" r="5"/><circle class="cls-55" cx="276.17" cy="151.17" r="5"/><circle class="cls-56" cx="246.17" cy="121.17" r="5"/><circle class="cls-57" cx="261.17" cy="121.17" r="5"/><circle class="cls-58" cx="276.17" cy="121.17" r="5"/><line class="cls-59" x1="141.17" y1="73.67" x2="121.17" y2="73.67"/><rect class="cls-60" x="76.53" y="176.17" width="40" height="10"/><rect class="cls-61" x="131.72" y="176.17" width="40" height="10"/><rect class="cls-62" x="131.72" y="176.17" width="10" height="10"/><rect class="cls-61" x="186.72" y="176.17" width="40" height="10"/><rect class="cls-63" x="186.72" y="176.17" width="25" height="10"/><rect class="cls-61" x="241.72" y="176.17" width="40" height="10"/><rect class="cls-62" x="241.72" y="176.17" width="25" height="10"/><line class="cls-19" x1="71.17" y1="56.17" x2="71.17" y2="221.17"/><line class="cls-19" x1="125.04" y1="106.17" x2="125.04" y2="221.17"/><line class="cls-19" x1="178.92" y1="106.17" x2="178.92" y2="221.17"/><line class="cls-19" x1="232.79" y1="106.17" x2="232.79" y2="221.17"/><rect class="cls-64" x="299.67" y="195.57" width="17.32" height="11.55" rx="0.58"/><polygon class="cls-8" points="311.21 199.66 311.21 203.02 308.33 204.71 308.33 201.34 311.21 199.66"/><polygon class="cls-9" points="311.21 199.66 308.33 201.35 305.44 199.66 308.33 197.98 311.21 199.66"/><polygon class="cls-10" points="308.33 201.35 308.33 204.71 305.44 203.02 305.44 199.66 308.33 201.35"/><polygon class="cls-9" points="305.44 203.02 308.33 201.34 308.33 204.71 305.44 203.02"/><polygon class="cls-10" points="311.21 203.02 308.33 201.34 308.33 204.71 311.21 203.02"/><path class="cls-65" d="M311.8,210.61c-1.71-.27-1.78-1.5-1.78-3.49h-3.4c0,2-.05,3.22-1.77,3.49a1,1,0,0,0-.85,1h8.66A1,1,0,0,0,311.8,210.61Z"/><rect class="cls-66" x="356.05" y="195.57" width="17.32" height="11.55" rx="0.58"/><polygon class="cls-8" points="367.6 199.66 367.6 203.02 364.71 204.71 364.71 201.34 367.6 199.66"/><polygon class="cls-9" points="367.6 199.66 364.71 201.35 361.82 199.66 364.71 197.98 367.6 199.66"/><polygon class="cls-10" points="364.71 201.35 364.71 204.71 361.82 203.02 361.82 199.66 364.71 201.35"/><polygon class="cls-9" points="361.82 203.02 364.71 201.34 364.71 204.71 361.82 203.02"/><polygon class="cls-10" points="367.6 203.02 364.71 201.34 364.71 204.71 367.6 203.02"/><path class="cls-67" d="M368.18,210.61c-1.71-.27-1.78-1.5-1.78-3.49H363c0,2-.06,3.22-1.77,3.49a1,1,0,0,0-.86,1H369A1,1,0,0,0,368.18,210.61Z"/><rect class="cls-68" x="411.22" y="195.57" width="17.32" height="11.55" rx="0.58"/><polygon class="cls-8" points="422.76 199.66 422.76 203.02 419.88 204.71 419.88 201.34 422.76 199.66"/><polygon class="cls-9" points="422.76 199.66 419.88 201.35 416.99 199.66 419.88 197.98 422.76 199.66"/><polygon class="cls-10" points="419.88 201.35 419.88 204.71 416.99 203.02 416.99 199.66 419.88 201.35"/><polygon class="cls-9" points="416.99 203.02 419.88 201.34 419.88 204.71 416.99 203.02"/><polygon class="cls-10" points="422.76 203.02 419.88 201.34 419.88 204.71 422.76 203.02"/><path class="cls-69" d="M423.35,210.61c-1.71-.27-1.78-1.5-1.78-3.49h-3.4c0,2-.06,3.22-1.77,3.49a1,1,0,0,0-.85,1h8.65A1,1,0,0,0,423.35,210.61Z"/><rect class="cls-70" x="466.24" y="195.57" width="17.32" height="11.55" rx="0.58"/><polygon class="cls-8" points="477.78 199.66 477.78 203.02 474.9 204.71 474.9 201.34 477.78 199.66"/><polygon class="cls-9" points="477.78 199.66 474.9 201.35 472.01 199.66 474.9 197.98 477.78 199.66"/><polygon class="cls-10" points="474.9 201.35 474.9 204.71 472.01 203.02 472.01 199.66 474.9 201.35"/><polygon class="cls-9" points="472.01 203.02 474.9 201.34 474.9 204.71 472.01 203.02"/><polygon class="cls-10" points="477.78 203.02 474.9 201.34 474.9 204.71 477.78 203.02"/><path class="cls-71" d="M478.37,210.61c-1.71-.27-1.78-1.5-1.78-3.49h-3.4c0,2-.05,3.22-1.77,3.49a1,1,0,0,0-.85,1h8.66A1,1,0,0,0,478.37,210.61Z"/><line class="cls-19" x1="291.17" y1="166.17" x2="576.83" y2="166.17"/><circle class="cls-72" cx="303.67" cy="136.17" r="5"/><circle class="cls-73" cx="318.67" cy="136.17" r="5"/><circle class="cls-74" cx="333.67" cy="136.17" r="5"/><circle class="cls-75" cx="303.67" cy="151.17" r="5"/><circle class="cls-76" cx="318.67" cy="151.17" r="5"/><circle class="cls-77" cx="333.67" cy="151.17" r="5"/><circle class="cls-78" cx="303.67" cy="121.17" r="5"/><circle class="cls-79" cx="318.67" cy="121.17" r="5"/><circle class="cls-80" cx="333.67" cy="121.17" r="5"/><circle class="cls-81" cx="303.67" cy="106.17" r="5"/><circle class="cls-82" cx="318.67" cy="106.17" r="5"/><circle class="cls-83" cx="333.67" cy="106.17" r="5"/><circle class="cls-84" cx="303.67" cy="91.17" r="5"/><circle class="cls-85" cx="318.67" cy="91.17" r="5"/><circle class="cls-86" cx="333.67" cy="91.17" r="5"/><circle class="cls-87" cx="358.67" cy="151.17" r="5"/><circle class="cls-88" cx="373.67" cy="151.17" r="5"/><circle class="cls-89" cx="388.67" cy="151.17" r="5"/><circle class="cls-90" cx="413.67" cy="136.17" r="5"/><circle class="cls-91" cx="428.67" cy="136.17" r="5"/><circle class="cls-92" cx="443.67" cy="136.17" r="5"/><circle class="cls-93" cx="413.67" cy="151.17" r="5"/><circle class="cls-94" cx="428.67" cy="151.17" r="5"/><circle class="cls-95" cx="443.67" cy="151.17" r="5"/><circle class="cls-96" cx="413.67" cy="121.17" r="5"/><circle class="cls-97" cx="468.67" cy="136.17" r="5"/><circle class="cls-98" cx="483.67" cy="136.17" r="5"/><circle class="cls-99" cx="498.67" cy="136.17" r="5"/><circle class="cls-100" cx="468.67" cy="151.17" r="5"/><circle class="cls-101" cx="483.67" cy="151.17" r="5"/><circle class="cls-102" cx="498.67" cy="151.17" r="5"/><rect class="cls-62" x="299.03" y="176.17" width="40" height="10"/><rect class="cls-61" x="354.22" y="176.17" width="40" height="10"/><rect class="cls-62" x="354.22" y="176.17" width="10" height="10"/><rect class="cls-61" x="409.22" y="176.17" width="40" height="10"/><rect class="cls-62" x="409.22" y="176.17" width="25" height="10"/><rect class="cls-61" x="464.22" y="176.17" width="40" height="10"/><rect class="cls-62" x="464.22" y="176.17" width="25" height="10"/><line class="cls-19" x1="347.54" y1="56.17" x2="347.54" y2="221.17"/><line class="cls-19" x1="401.42" y1="56.17" x2="401.42" y2="221.17"/><line class="cls-19" x1="455.29" y1="56.17" x2="455.29" y2="221.17"/><line class="cls-19" x1="511.83" y1="56.17" x2="511.83" y2="221.17"/><g id="ad94e297-0e86-4eaf-aac0-d146ee9aea65"><path class="cls-103" d="M315.37,36.09l-5.14-5.31a2.45,2.45,0,0,1-.85.15,2.66,2.66,0,1,1,2.45-3.64h5.07v1.77h-5a4.51,4.51,0,0,1-.29.63l4.75,4.89,2.57-3.91V18.41h-3.46L319.84,14l4.33,4.42h-3.46V28l6.5-9.92-6.55-6.56a1.15,1.15,0,0,0-1.61,0h0L303.18,27.36a1.15,1.15,0,0,0,0,1.61h0l15.87,15.87-5.67-5.67Z"/><path class="cls-104" d="M318.94,36.32V30.65l-2.57,3.93,1.89,2A1.88,1.88,0,0,1,318.94,36.32Z"/><path class="cls-104" d="M336.51,27.36l-9.3-9.29L320.71,28v8.35a2.25,2.25,0,0,1,.59.32l6.82-6.9a3,3,0,0,1-.34-.7h-5.12V27.29h5.2a2.64,2.64,0,1,1,2.45,3.64,2.58,2.58,0,0,1-.73-.11l-7.26,7.31a2.25,2.25,0,0,1,.11.68,2.66,2.66,0,0,1-5.32.21,2.61,2.61,0,0,1,.14-1l-1.88-1.89-2,3L319,44.84a1.14,1.14,0,0,0,1.59,0L336.47,29a1.13,1.13,0,0,0,0-1.6h0Z"/><path class="cls-61" d="M327.86,27.29h-5.2v1.77h5.12a2.67,2.67,0,0,1-.13-.79A2.37,2.37,0,0,1,327.86,27.29Z"/><path class="cls-61" d="M311.91,29.06h5V27.29h-5.07a2.46,2.46,0,0,1,.21,1A2.9,2.9,0,0,1,311.91,29.06Z"/><path class="cls-61" d="M322.32,38.13l7.26-7.31a2.65,2.65,0,0,1-1.46-1.06l-6.82,6.9A2.52,2.52,0,0,1,322.32,38.13Z"/><path class="cls-61" d="M318.31,36.6l-1.89-2-4.8-4.89a2.73,2.73,0,0,1-1.39,1.09l5.14,5.31L317.25,38A2.7,2.7,0,0,1,318.31,36.6Z"/><path class="cls-1" d="M324.15,18.41,319.84,14l-4.36,4.42h3.46v17.9a2.09,2.09,0,0,0-.63.28,2.65,2.65,0,1,0,4,3,2.79,2.79,0,0,0,.11-.76,2.25,2.25,0,0,0-.11-.68,2.49,2.49,0,0,0-1-1.47,2.25,2.25,0,0,0-.59-.32v-18Zm-4.31,21.88a1.48,1.48,0,1,1,1.48-1.48h0a1.48,1.48,0,0,1-1.48,1.48Z"/><path class="cls-1" d="M311.62,29.69a4.51,4.51,0,0,0,.29-.63,2.67,2.67,0,0,0,.13-.79,2.46,2.46,0,0,0-.21-1,2.65,2.65,0,1,0-2.45,3.64,2.45,2.45,0,0,0,.85-.15A2.69,2.69,0,0,0,311.62,29.69Zm-2.24,0a1.48,1.48,0,1,1,1.47-1.49h0a1.47,1.47,0,0,1-1.41,1.53h-.06Z"/><path class="cls-1" d="M329.58,30.82a2.58,2.58,0,0,0,.73.11,2.66,2.66,0,1,0-2.45-3.64,2.46,2.46,0,0,0-.21,1,2.67,2.67,0,0,0,.13.79,3,3,0,0,0,.34.7A2.65,2.65,0,0,0,329.58,30.82Zm.73-4a1.47,1.47,0,1,1-.33,0A.92.92,0,0,1,330.31,26.82Z"/><path class="cls-105" d="M319.84,37.34a1.48,1.48,0,1,0,1.48,1.48h0a1.47,1.47,0,0,0-1.47-1.47Z"/><circle class="cls-105" cx="309.38" cy="28.27" r="1.47"/><path class="cls-105" d="M330.31,29.74a1.47,1.47,0,1,0-1.47-1.47h0a1.47,1.47,0,0,0,1.47,1.47Z"/></g></g></g><g id="Text"><path class="cls-106" d="M69.58,19.72h1.64a7.85,7.85,0,0,1-.32,2.51q3.1,1.17,5.21,2.14l-1,1.62q-2.32-1.33-4.88-2.5A7.84,7.84,0,0,1,65.57,26a12.6,12.6,0,0,0-1.12-1.64,12.12,12.12,0,0,0,3.18-.87,3.11,3.11,0,0,0,1.57-1.38A5.51,5.51,0,0,0,69.58,19.72Zm-3.74,3.33v-4l-.15.12a17.18,17.18,0,0,0-1.21-1.31,20.29,20.29,0,0,0,3.79-3.51h1.94c-.19.29-.39.57-.61.85h4.05v1.29l-1.46,1.3H74.9V23H73.28V19.23H67.45v3.82Zm1.43-5.23h2.78l1.36-1.23H68.47Q67.9,17.22,67.27,17.82Z"/><path class="cls-106" d="M76.51,17.17h2.68v-.78h-2.3V15.27h2.3V14.4h1.52v.87h2.18v1.12H80.71v.78h2.53c0-.86,0-1.79,0-2.79h1.54c0,1,0,1.93.05,2.79H88.1v1.24H84.85c.07,1,.16,1.83.28,2.59a14.6,14.6,0,0,0,1.24-2.18l1.32.63a21.4,21.4,0,0,1-2.13,3.41c.26.8.49,1.2.7,1.2s.43-.69.48-2.08a9.12,9.12,0,0,0,1.43.72c-.18,2.09-.74,3.14-1.7,3.14a2.29,2.29,0,0,1-2.08-1.6c-.41.43-.83.84-1.26,1.22-.25-.27-.52-.54-.83-.82l-1.25,0v1.24H79.58V24.75l-2.78.13-.17-1.41,3-.06v-.83H77V21.27a6,6,0,0,0,.74-1h-.95V19.11h1.62l.27-.54h1.7l-.32.54H83v1.17H79.31c-.26.4-.52.78-.78,1.13h1v-.68h1.47v.68h1.77v1.17H81.05v.78c.67,0,1.28-.05,1.82-.09l0,.29a13.11,13.11,0,0,0,1-1,25.39,25.39,0,0,1-.53-4.18h-6.8Zm9.8-2.77c.43.47.91,1,1.42,1.73l-1.35.8a16.53,16.53,0,0,0-1.26-1.81Z"/><path class="cls-106" d="M88.79,25.11l-.31-1.77L89.81,23V19H88.72V17.42h1.09v-3h1.58v3h1v.82a14.94,14.94,0,0,0,1.72-3.93l1.6.18c-.15.5-.31,1-.48,1.46h4.5l-.1,5-.1,2.84a2.25,2.25,0,0,1-.44,1.41,1.51,1.51,0,0,1-1,.55c-.44,0-1.31.09-2.61.1-.1-.5-.23-1.09-.41-1.78.77.06,1.44.09,2,.09a1,1,0,0,0,.62-.19.89.89,0,0,0,.28-.69c0-.33,0-1,.07-2L98,17.42H94.58a16.86,16.86,0,0,1-1.19,2.18c-.3-.27-.64-.56-1-.86V19h-1v3.54l1.22-.37c0,.35,0,.91,0,1.69C90.94,24.38,89.68,24.78,88.79,25.11ZM93.42,24,93,22.25c1.43-.51,3-1.09,4.57-1.74,0,.61.06,1.18.11,1.69Q95.62,23,93.42,24ZM95,18.08c.68.54,1.33,1.09,1.93,1.66l-1.09,1.08c-.63-.64-1.25-1.22-1.85-1.74Z"/><path class="cls-106" d="M102.66,17.61l1.13.81c-.3.5-.61,1-.92,1.45v6.06h-1.3V21.64l-.66.79a16.59,16.59,0,0,0-.54-1.57A21.11,21.11,0,0,0,102.66,17.61Zm-.06-3.21,1.2.88c-.77,1-1.6,2.07-2.51,3.08-.28-.46-.58-.91-.89-1.33A16.93,16.93,0,0,0,102.6,14.4Zm5.51.87v1.06l-.53.77h1v4.39h-1.71q0,.29,0,.54H109v1.15h-2.26l1.75,1.12-.15.2,1.14.05c.34,0,.51-.21.51-.62V19.84h-1V18.41h3.16v1.43h-.67v4.37a1.89,1.89,0,0,1-.3,1.16,1,1,0,0,1-.84.42c-.36,0-.93,0-1.69,0q-.12-.54-.3-1.29l-.69.92q-.14-.15-1.44-1.23a6,6,0,0,1-2.38,1.73c-.15-.3-.41-.74-.77-1.35a3.63,3.63,0,0,0,2.12-1.4h-1.78V22h2.11a4.56,4.56,0,0,0,0-.54H103.8V17.55l-.56-.41a13,13,0,0,0,1.81-2.76l1.3.18-.36.71Zm-3.25,1.83h1.34l.54-.78h-1.37Q105.12,16.73,104.86,17.1Zm.1,1.77h.75v-.78H105Zm0,1.61h.75v-.76H105Zm2.51-2.39h-.75v.78h.75Zm0,2.39v-.76h-.75v.76Zm1.7-5.39H112v1.43h-2.82Z"/><path class="cls-106" d="M118.79,25.86v-3.8h2.44a5.53,5.53,0,0,1-2.9-1.41,5.34,5.34,0,0,1-3.13,1.41h2.67v3.82h-1.36v-.44h-1.86v.44h-1.36V22.31l-.51,0a8.3,8.3,0,0,0-.25-1.2c2.41-.06,3.86-.4,4.37-1h-4.22V19h4.78a5,5,0,0,0,.07-.59h1.64a3.65,3.65,0,0,1-.08.59h1.58l-.18-.46,1.5-.19.27.65H124v1.19h-4.61c.83.65,2.41,1,4.75,1a10.29,10.29,0,0,0-.31,1.21l-.48,0v3.53H122v-.44h-1.87v.42Zm-5.5-11h4.6v3.31h-4.6Zm3.22,8.38h-1.86v1h1.86ZM116.46,17v-.91h-1.74V17Zm2.34-2.11h4.58v3.31H118.8ZM122,23.26h-1.87v1H122ZM122,17v-.91h-1.71V17Z"/><path class="cls-106" d="M356.73,18.92c.59.22,1.07.38,1.47.49-.21.94-.5,1.44-.9,1.52a5.21,5.21,0,0,1-1.47.17H353.1c-1.14,0-1.72-.48-1.77-1.45l-1.7.1v1.87l.85-.45c.27.43.66,1.12,1.18,2.06V21.37h1.59v3h1v-3h1.6v2c.32-.58.67-1.29,1.06-2.12,0,0,.43.19,1.22.57-.51,1-.92,1.72-1.22,2.19l-1.06-.54v.91h2.66v1.24h-9.13V24.38h2.3v-1a12,12,0,0,1-1.11.56c-.14-.3-.46-.9-.94-1.81a7.41,7.41,0,0,1-1.25,3.92c-.4-.34-.84-.69-1.33-1a6.74,6.74,0,0,0,1.05-4V16.67h3.59V14.43h1.59v.67h4.54v1.1h-4.54v.47h5.43l-.27,2.21-1.62-.19.12-.78h-7.29v.78l1.7-.09v-.48h1.55v.4l3-.17,0,1-3,.19q0,.45.6.45h2.17c.59,0,.91-.1,1-.3A7,7,0,0,0,356.73,18.92Z"/><path class="cls-106" d="M359.24,16.65h1.16V14.49h1.52v2.16h.89v1.5h-.89V20l.93-.15a12.81,12.81,0,0,0,0,1.54l-.94.16v2.91a1.66,1.66,0,0,1-.29,1,1.23,1.23,0,0,1-.86.42c-.38,0-.83.06-1.36.07a10.16,10.16,0,0,0-.36-1.55l.75,0a.81.81,0,0,0,.5-.11.6.6,0,0,0,.1-.44V21.8l-1.16.25-.19-1.68q.57-.06,1.35-.18v-2h-1.16Zm5.51-1.75v6.56c.39-.27,1-.75,1.93-1.43,0,.69.09,1.27.14,1.72-1.53,1.1-2.62,1.93-3.26,2.49L362.63,23a2.06,2.06,0,0,0,.59-1.54V14.9Zm3.45-.14h1.55c0,2.24-.06,3.84-.15,4.79a10.65,10.65,0,0,1-.47,2.46l1.58,1.93-.83,1.86c-.36-.56-.87-1.31-1.54-2.25A10.41,10.41,0,0,1,365.48,26a15.92,15.92,0,0,0-1.11-1.28,11.87,11.87,0,0,0,2.16-1.58,4.69,4.69,0,0,0,1.1-1.6,6.72,6.72,0,0,0,.43-2C368.12,18.82,368.16,17.21,368.2,14.76Zm-1.84.49c.35.69.78,1.71,1.32,3.07l-1.41.55c-.29-.89-.7-1.93-1.22-3.12Z"/><path class="cls-106" d="M374.23,16.82l1,2.13c.31-.7.6-1.43.88-2.19l.79.36.63-.28.94,2.06c.3-.7.58-1.43.85-2.19l1.26.54c-.39,1.17-.83,2.3-1.31,3.38l1.23,2.74-1.32.66-.71-1.72c-.38.75-.78,1.48-1.19,2.18l-.52-.39-.63.31-.91-2.15c-.45.84-.92,1.63-1.41,2.36-.19-.18-.43-.39-.71-.62V26h-1.57v-11h10.65v9a2.43,2.43,0,0,1-.35,1.4,1.38,1.38,0,0,1-1,.57,22.84,22.84,0,0,1-2.33.08,16.71,16.71,0,0,0-.36-1.64c.55.05,1.12.08,1.69.08a.66.66,0,0,0,.75-.74V16.37h-7.51v1Zm-1.1.81V23c.48-.76.94-1.57,1.37-2.42C374,19.53,373.58,18.56,373.13,17.63Zm3.79,1c-.28.69-.56,1.36-.86,2l.82,1.76c.3-.58.6-1.18.89-1.8Z"/><path class="cls-106" d="M384.82,18.14l.7,0c.31-.53.62-1.14.94-1.82l1.38.64q-1.15,2-2.43,4.14l1.83-.25c-.06.52-.09,1-.1,1.45-1.61.21-2.72.39-3.34.54l-.46-1.31a10.44,10.44,0,0,0,1.41-2c-.44,0-.86.07-1.24.12l-.45-1.33a16.66,16.66,0,0,0,2-3.83l1.45.56C386,16.07,385.4,17.12,384.82,18.14Zm-1.48,7.22-.26-1.64c1-.1,2.45-.3,4.44-.61q-.07,1-.06,1.62C385.72,25,384.34,25.18,383.34,25.36Zm4.24-7.7a16.44,16.44,0,0,0,2.25-3.22l1.58.26c-.18.32-.37.62-.55.91h3.36V17a7.43,7.43,0,0,1-1.84,2.18,12.09,12.09,0,0,0,2.37.58,13.2,13.2,0,0,0-.35,1.53,13.51,13.51,0,0,1-3.46-1.19,18.57,18.57,0,0,1-3.42,1.21,11.78,11.78,0,0,0-.59-1.39,17.23,17.23,0,0,0,2.66-.77,6.7,6.7,0,0,1-.76-.82l-.5.51C388.14,18.51,387.89,18.12,387.58,17.66Zm.34,8.38V21.31h6V26h-1.52V25.5h-3V26Zm4.52-3.27h-3V24h3ZM390,17l-.24.31a5.17,5.17,0,0,0,1.19,1.19,4.4,4.4,0,0,0,1.45-1.5Z"/><path class="cls-106" d="M407.61,24.43h-2l-3.84-5.87a6.88,6.88,0,0,1-.43-.74h0c0,.31.05.8.05,1.45v5.16h-1.83V15.35h2.11l3.7,5.71.45.72h0a8.43,8.43,0,0,1-.06-1.25V15.35h1.83Z"/><path class="cls-106" d="M417.61,24.43H415.5l-.68-2.08h-3.3l-.66,2.08h-2.1l3.32-9.08h2.27Zm-3.24-3.57-1-3.15a4.06,4.06,0,0,1-.14-.79h-.05a3.4,3.4,0,0,1-.16.77l-1,3.17Z"/><path class="cls-106" d="M424.13,16.94h-2.59v7.49H419.6V16.94H417V15.35h7.12Z"/><path class="cls-107" d="M347.19,30.8h1.17V28.63h1.55V30.8h.84v1.5h-.84v1.75l.75-.21a13.3,13.3,0,0,0,0,1.59l-.77.21v2.93a2.12,2.12,0,0,1-.11.71,1.12,1.12,0,0,1-.32.46A1.15,1.15,0,0,1,349,40a10.83,10.83,0,0,1-1.64.12,10,10,0,0,0-.31-1.56l.71,0a.65.65,0,0,0,.46-.12.6.6,0,0,0,.12-.43v-2l-1.07.31L347,34.72c.44-.09.89-.18,1.34-.29V32.3h-1.17Zm11.44,3.81h-1.06a7,7,0,0,1-1.38,2.92c.76.4,1.57.85,2.44,1.35l-.94,1.36q-1.31-.9-2.58-1.65a9.24,9.24,0,0,1-3.85,1.66,10.78,10.78,0,0,0-.87-1.48,9.68,9.68,0,0,0,3.16-1.07c-.75-.4-1.48-.77-2.2-1.1a14.78,14.78,0,0,0,1-2H351V33.2h1.92c.15-.46.3-1,.43-1.46l1.59.43-.39,1h4.12Zm-5.19-5.74,1.73-.34.48,1.35h2.72v2.57H356.8V31.31h-4.08v1.1h-1.57V29.88h2.67A8.3,8.3,0,0,0,353.44,28.87Zm-.2,7.18,1.52.73a4.39,4.39,0,0,0,1.14-2.17h-2C353.69,35.14,353.46,35.62,353.24,36.05Z"/><path class="cls-107" d="M361.58,40.07h-1.45V36.35h3.37l.21-.68H359.2V34.56h11.35v1.11H365.1l-.22.68h4.78v2.48a1.15,1.15,0,0,1-1.29,1.31H367.2c-.06-.47-.13-.92-.2-1.36l.8,0c.28,0,.41-.17.41-.5v-.89H367v2.37h-1.42V37.42h-1.26v2.37h-1.42V37.42h-1.27Zm-2.12-9.47h4.7v-.49H360V29h9.79v1.11h-4.18v.49h4.7V33H369V31.68h-3.41v2.56h-1.43V31.68h-3.41V33h-1.29Zm1.13,2.73h3v.74h-3Zm.46-1.19h2.58v.72h-2.58Zm5.09,0h2.56v.72h-2.56Zm0,1.19h3v.74h-3Z"/><path class="cls-107" d="M380,32.61V29.67h1.64v4.48h-3.91V38h2.69V35.17h1.64v5h-1.64v-.55h-8.76V35.17h1.65V38H376V34.15h-3.89V29.67h1.64v2.94H376v-4h1.75v4Z"/><path class="cls-107" d="M386.66,32.4l1.71.34-1.09,4.57,1-.16c0,.74-.08,1.3-.08,1.69q-2.44.4-4.86.84l-.25-1.78,2.7-.37C386.1,36,386.39,34.26,386.66,32.4Zm-3.47-1.79h2.07c-.26-.61-.51-1.12-.72-1.52l1.61-.56c.24.4.55,1,.94,1.76l-.92.32h2.52v1.54h-5.5Zm1.74,2c.27,1.11.56,2.51.88,4.2l-1.55.31c-.23-1.39-.51-2.8-.83-4.22Zm9.78-2.05v1.53H392v1.76h2.21v6.28h-1.57v-.66h-2.53v.71h-1.57V33.85h1.77V28.58H392v2Zm-2,4.86h-2.53V37.9h2.53Z"/><path class="cls-107" d="M399.13,36.29a3.77,3.77,0,0,0,2.49.91,2.14,2.14,0,0,0,1.19-.27.81.81,0,0,0,.4-.7,1,1,0,0,0-.32-.7,5.8,5.8,0,0,0-1.67-.89c-1.42-.6-2.13-1.48-2.13-2.63a2.3,2.3,0,0,1,1-2,4.21,4.21,0,0,1,2.55-.7,6.26,6.26,0,0,1,2.23.34v1.82a3.74,3.74,0,0,0-2.14-.62,2.24,2.24,0,0,0-1.14.26.8.8,0,0,0-.43.7.9.9,0,0,0,.3.65,5.32,5.32,0,0,0,1.44.8,4.54,4.54,0,0,1,1.86,1.22,2.4,2.4,0,0,1,.51,1.54,2.34,2.34,0,0,1-.92,2,4.37,4.37,0,0,1-2.64.69,5.59,5.59,0,0,1-2.55-.51Z"/><path class="cls-107" d="M414.85,38.58h-2L409,32.71a6.88,6.88,0,0,1-.43-.74h0c0,.31.05.79.05,1.45v5.16h-1.83V29.5h2.11l3.7,5.71q.38.57.45.72h0a8.43,8.43,0,0,1-.06-1.25V29.5h1.84Z"/><path class="cls-107" d="M424.84,38.58h-2.11l-.68-2.08h-3.3l-.66,2.08H416l3.32-9.08h2.27ZM421.6,35l-1-3.14a4.21,4.21,0,0,1-.14-.79h-.05a3.21,3.21,0,0,1-.16.76l-1,3.17Z"/><path class="cls-107" d="M431.36,31.08h-2.59v7.5h-1.94v-7.5h-2.59V29.5h7.12Z"/><path class="cls-106" d="M106.18,196.41l-3.34,9.23h-1.31l-3.28-9.23h1.31l2.45,7.21a4.46,4.46,0,0,1,.18.83h0a3.44,3.44,0,0,1,.21-.84l2.5-7.2Z"/><path class="cls-106" d="M115.67,205.64v-6.11c0-.51,0-1.11.09-1.82h0a5.08,5.08,0,0,1-.27.93l-3,7h-.65l-3-6.95a5.93,5.93,0,0,1-.27-1h0c0,.43.06,1,.06,1.87v6.06h-1.12v-9.23H109l2.69,6.33a7.85,7.85,0,0,1,.41,1.13h0c.2-.57.35-1,.43-1.16l2.73-6.3h1.52v9.23Z"/><path class="cls-106" d="M162.65,196.41l-3.35,9.23H158l-3.28-9.23H156l2.45,7.21a4.46,4.46,0,0,1,.18.83h0a3.44,3.44,0,0,1,.21-.84l2.5-7.2Z"/><path class="cls-106" d="M172.13,205.64v-6.11c0-.51,0-1.11.09-1.82h0a5.08,5.08,0,0,1-.27.93l-3,7h-.66l-3-6.95a5.93,5.93,0,0,1-.27-1h0c0,.43.06,1,.06,1.87v6.06h-1.13v-9.23h1.6l2.68,6.33a7.85,7.85,0,0,1,.41,1.13h0l.43-1.16,2.74-6.3h1.51v9.23Z"/><path class="cls-106" d="M217.74,196.41l-3.35,9.23h-1.31l-3.28-9.23h1.31l2.45,7.21a4.46,4.46,0,0,1,.18.83h0a3.44,3.44,0,0,1,.21-.84l2.5-7.2Z"/><path class="cls-106" d="M227.22,205.64v-6.11c0-.51,0-1.11.09-1.82h0a5.08,5.08,0,0,1-.27.93l-3,7h-.66l-3-6.95a5.93,5.93,0,0,1-.27-1h0c0,.43.06,1,.06,1.87v6.06H219v-9.23h1.6l2.68,6.33a7.85,7.85,0,0,1,.41,1.13h0l.43-1.16,2.74-6.3h1.51v9.23Z"/><path class="cls-106" d="M272.74,196.41l-3.34,9.23h-1.31l-3.28-9.23h1.3l2.46,7.21a4.46,4.46,0,0,1,.18.83h0a3.92,3.92,0,0,1,.2-.84l2.5-7.2Z"/><path class="cls-106" d="M282.23,205.64v-6.11c0-.51,0-1.11.09-1.82h0a5.08,5.08,0,0,1-.27.93l-3,7h-.65l-3-6.95a5.93,5.93,0,0,1-.27-1h0c0,.43.06,1,.06,1.87v6.06H274v-9.23h1.59l2.69,6.33a9.32,9.32,0,0,1,.41,1.13h0c.2-.57.34-1,.43-1.16l2.73-6.3h1.52v9.23Z"/><path class="cls-106" d="M328.67,196.41l-3.35,9.23H324l-3.29-9.23H322l2.45,7.21a3.78,3.78,0,0,1,.18.83h0a4,4,0,0,1,.21-.84l2.5-7.2Z"/><path class="cls-106" d="M338.15,205.64v-6.11c0-.51,0-1.11.09-1.82h0a5.08,5.08,0,0,1-.27.93l-3,7h-.66l-3-6.95a4.83,4.83,0,0,1-.28-1h0c0,.43.06,1,.06,1.87v6.06h-1.13v-9.23h1.6l2.69,6.33a7.57,7.57,0,0,1,.4,1.13h0l.43-1.16,2.74-6.3h1.52v9.23Z"/><path class="cls-106" d="M385.12,196.41l-3.35,9.23h-1.31l-3.28-9.23h1.31l2.45,7.21a4.46,4.46,0,0,1,.18.83h0a3.44,3.44,0,0,1,.21-.84l2.5-7.2Z"/><path class="cls-106" d="M394.6,205.64v-6.11c0-.51,0-1.11.09-1.82h0a5.08,5.08,0,0,1-.27.93l-3,7h-.65l-3-6.95a5.93,5.93,0,0,1-.27-1h0c0,.43.06,1,.06,1.87v6.06h-1.13v-9.23H388l2.68,6.33a7.85,7.85,0,0,1,.41,1.13h0c.2-.57.35-1,.43-1.16l2.73-6.3h1.52v9.23Z"/><path class="cls-106" d="M440.08,196.41l-3.35,9.23h-1.3l-3.29-9.23h1.31l2.45,7.21a3.28,3.28,0,0,1,.18.83h0a4,4,0,0,1,.21-.84l2.5-7.2Z"/><path class="cls-106" d="M449.57,205.64v-6.11c0-.51,0-1.11.08-1.82h0a5.08,5.08,0,0,1-.27.93l-3,7h-.65l-3-6.95a5.62,5.62,0,0,1-.28-1h0c0,.43.06,1,.06,1.87v6.06h-1.12v-9.23h1.59l2.69,6.33a7.57,7.57,0,0,1,.4,1.13h0l.43-1.16,2.74-6.3h1.52v9.23Z"/><path class="cls-106" d="M495.26,196.41l-3.34,9.23h-1.31l-3.28-9.23h1.3l2.46,7.21a4.46,4.46,0,0,1,.18.83h0a3.92,3.92,0,0,1,.2-.84l2.5-7.2Z"/><path class="cls-106" d="M504.75,205.64v-6.11c0-.51,0-1.11.09-1.82h0a5.08,5.08,0,0,1-.27.93l-3,7h-.65l-3-6.95a5.93,5.93,0,0,1-.27-1h0c0,.43.06,1,.06,1.87v6.06h-1.12v-9.23h1.59l2.69,6.33a7.85,7.85,0,0,1,.41,1.13h0c.2-.57.34-1,.43-1.16l2.73-6.3h1.52v9.23Z"/><path class="cls-106" d="M24.28,134.94a14.83,14.83,0,0,0,4.14-4.74l.83.46A16.52,16.52,0,0,1,25,135.75,5,5,0,0,0,24.28,134.94Zm1.6.39H33.7c0,1.35-.1,2.67-.18,3.95-.09,1.49-.78,2.23-2.08,2.22q-.95,0-2-.06c-.05-.34-.1-.67-.16-1a17,17,0,0,0,2,.14c.78,0,1.22-.45,1.29-1.39s.11-1.85.15-3H29.11a7.79,7.79,0,0,1-.82,3.2,5.82,5.82,0,0,1-3,2.47,9.79,9.79,0,0,0-.67-.8,5.37,5.37,0,0,0,2.81-2.14,6.08,6.08,0,0,0,.71-2.73H25.88Zm4.87-5,.85-.37a8.92,8.92,0,0,0,4.54,4.77,7.45,7.45,0,0,0-.77.91A10.72,10.72,0,0,1,30.75,130.38Z"/><path class="cls-106" d="M36.9,133.16h1.61V131.6h-2v-.78h6.23v.78h-2v1.56h1.7v8.5h-.79v-.76h-4v.78H36.9Zm3.16,2.68v-1.92h-.8v.48a5,5,0,0,1-1,3.16l-.6-.59v1h4v-1.14H40.9C40.34,136.82,40.06,136.49,40.06,135.84Zm-2.37,1a3.74,3.74,0,0,0,.82-2.55v-.42h-.82Zm0,3.25h4v-1.43h-4Zm1.57-7h.8V131.6h-.8Zm2.47.76h-.91v1.66c0,.36.13.52.43.5h.48Zm1.65.73H46.5v-3.1H43.18v-.83h4.17V136H46.5v-.47H44.23v4.12c0,.63.26,1,.8,1h1.12a.72.72,0,0,0,.78-.71,13.08,13.08,0,0,0,.22-1.93c.21.11.51.25.88.4-.06.64-.14,1.25-.25,1.83a1.35,1.35,0,0,1-1.48,1.26H44.78c-.93,0-1.4-.56-1.4-1.68Z"/><path class="cls-106" d="M26.42,187.7h-.89v-3.9h3.83l.19-.93H24.42v-.74H36v.74H30.47l-.24.93H35v2.66a1,1,0,0,1-1.17,1.18c-.37,0-.78,0-1.23,0a6.81,6.81,0,0,0-.17-.92,11,11,0,0,0,1.14.07c.36,0,.53-.15.53-.47v-1.76H32v2.83H31.2v-2.83h-2v2.83h-.83v-2.83h-2ZM24.82,178h5v-.69H25.41v-.74h9.5v.74H30.62V178h5v2.21h-.91v-1.47H30.62v2.83h-.84v-2.83H25.73v1.47h-.91Zm1.58,1.43h2.76v.64H26.4Zm0,1.33h2.76v.65H26.4Zm4.84-1.33H34v.64H31.24Zm0,1.33H34v.65H31.24Z"/><path class="cls-106" d="M36.59,178.18h5.17V176h1v2.16h5.14V179H42.75v.74a12.4,12.4,0,0,0,1.36,2.43,20.86,20.86,0,0,0,2.31-2.38l.83.7c-1,1-1.82,1.77-2.56,2.41a10.83,10.83,0,0,0,3.37,2.67,9.81,9.81,0,0,0-.7.92,11.84,11.84,0,0,1-4.61-4.81v4.37a1.38,1.38,0,0,1-1.59,1.54l-1.57,0c0-.33-.11-.68-.18-1.06a13.64,13.64,0,0,0,1.51.1.76.76,0,0,0,.84-.87v-2.25c-1.85,1-3.46,1.84-4.84,2.62l-.5-1q2.46-1.15,5.34-2.75V179H36.59Zm1.73,1.57c.63.63,1.27,1.33,1.92,2.11l-.81.66c-.55-.72-1.15-1.45-1.81-2.19Zm5.51-3.1.56-.63a14.57,14.57,0,0,1,1.78,1.3l-.64.71C45.07,177.62,44.5,177.16,43.83,176.65Z"/><path class="cls-106" d="M532,135a14.59,14.59,0,0,0,4.14-4.74l.84.46a16.57,16.57,0,0,1-4.3,5.09A5,5,0,0,0,532,135Zm1.6.39h7.82c0,1.35-.1,2.67-.17,4-.1,1.48-.79,2.22-2.09,2.21q-.95,0-2-.06c-.05-.33-.1-.67-.16-1a15.25,15.25,0,0,0,2,.14c.78,0,1.22-.45,1.29-1.39s.11-1.85.15-3h-3.62a7.84,7.84,0,0,1-.82,3.21,5.78,5.78,0,0,1-3,2.46c-.2-.27-.43-.53-.67-.8a5.33,5.33,0,0,0,2.81-2.14,6.08,6.08,0,0,0,.71-2.73h-2.26Zm4.87-4.95.85-.37a8.85,8.85,0,0,0,4.54,4.77,8.3,8.3,0,0,0-.77.91A10.64,10.64,0,0,1,538.43,130.44Z"/><path class="cls-106" d="M544.58,133.22h1.61v-1.55h-2v-.79h6.23v.79h-2v1.55h1.7v8.51h-.78V141h-4v.77h-.79Zm3.16,2.68V134h-.8v.47a5,5,0,0,1-1,3.16l-.6-.58v1h4v-1.14h-.84C548,136.88,547.74,136.55,547.74,135.9ZM545.37,137a3.75,3.75,0,0,0,.82-2.56V134h-.82Zm0,3.24h4v-1.43h-4Zm1.57-7h.8v-1.55h-.8Zm2.48.77h-.92v1.65c0,.36.13.53.43.5h.49Zm1.64.72h3.12v-3.09h-3.32v-.84H555V136h-.85v-.46h-2.27v4.12c0,.62.26.94.8.94h1.12a.71.71,0,0,0,.78-.7,13.41,13.41,0,0,0,.22-1.93c.21.11.51.24.88.39-.06.64-.14,1.25-.25,1.83a1.35,1.35,0,0,1-1.48,1.27h-1.52c-.93,0-1.4-.56-1.4-1.68Z"/><path class="cls-106" d="M534.1,186.76h-.89v-3.91H537l.2-.93H532.1v-.74h11.58v.74h-5.53l-.24.93h4.72v2.67a1,1,0,0,1-1.17,1.18l-1.23,0a5.26,5.26,0,0,0-.17-.91c.47,0,.85.07,1.15.07s.52-.16.52-.48v-1.76h-2v2.83h-.83v-2.83h-2v2.83h-.83v-2.83h-2Zm-1.6-9.7h5v-.69h-4.37v-.74h9.5v.74H538.3v.69h5v2.22h-.91V177.8H538.3v2.84h-.84V177.8h-4.05v1.48h-.91Zm1.58,1.43h2.76v.64h-2.76Zm0,1.33h2.76v.65h-2.76Zm4.84-1.33h2.77v.64h-2.77Zm0,1.33h2.77v.65h-2.77Z"/><path class="cls-106" d="M544.27,177.23h5.17v-2.16h1v2.16h5.14v.86h-5.14v.73a12.94,12.94,0,0,0,1.36,2.43,19.32,19.32,0,0,0,2.31-2.38l.83.7c-1,1-1.82,1.78-2.56,2.41a10.83,10.83,0,0,0,3.37,2.67,8.68,8.68,0,0,0-.7.93,12,12,0,0,1-4.61-4.81v4.37q0,1.53-1.59,1.53l-1.57,0c0-.33-.11-.68-.18-1.06a14.2,14.2,0,0,0,1.51.11.76.76,0,0,0,.84-.87v-2.25q-2.78,1.44-4.84,2.62l-.5-1q2.46-1.16,5.34-2.75v-3.38h-5.17ZM546,178.8c.63.63,1.27,1.33,1.92,2.11-.24.21-.51.43-.81.67-.55-.73-1.15-1.46-1.81-2.2Zm5.51-3.1.56-.63a14.57,14.57,0,0,1,1.78,1.3l-.64.72C552.75,176.67,552.18,176.21,551.51,175.7Z"/><path class="cls-107" d="M75.83,37c-.32.46-.61.89-.87,1.3a11.75,11.75,0,0,1-1.75-1.19v.76H70.79v.72H75v1.23H65V38.6h4.22v-.72H66.7v-.71A13.28,13.28,0,0,1,65,38.31c-.23-.36-.52-.79-.88-1.29a8.67,8.67,0,0,0,2.48-1.39H64.27V34.4h2V30.84h-1.7V29.61h1.7v-1h1.61v1h4.14v-1h1.6v1h1.7v1.23h-1.7V34.4h2v1.23H73.38A9.83,9.83,0,0,0,75.83,37Zm-6.65-1.15h1.61v.82h1.9a11.47,11.47,0,0,1-1-1H68.33a13,13,0,0,1-1,1h1.9Zm-1.26-4.43h4.14v-.59H67.92Zm0,1.5h4.14v-.59H67.92Zm0,1.47h4.14v-.58H67.92Z"/><path class="cls-107" d="M76.3,33.28h4.94V31H77.16V29.29h9.71V31H83v2.32H87.7v1.66H83v2.57a2.79,2.79,0,0,1-.48,1.77,1.75,1.75,0,0,1-1.38.61l-2.47,0a17.65,17.65,0,0,0-.43-1.78,19.49,19.49,0,0,0,2,.11.86.86,0,0,0,1-1V34.94H76.3Z"/><path class="cls-107" d="M98,38.61H92.64V29.53h1.93V37H98Z"/><path class="cls-107" d="M99.21,38.61V29.53h3.23a4,4,0,0,1,2.28.56,1.8,1.8,0,0,1,.8,1.56A1.88,1.88,0,0,1,105,33a2.56,2.56,0,0,1-1.25.76v0a2.48,2.48,0,0,1,1.53.7,2,2,0,0,1,.59,1.47,2.46,2.46,0,0,1-.88,2,3.71,3.71,0,0,1-2.41.73ZM101.15,31v2.24h.92a1.59,1.59,0,0,0,1-.31,1.11,1.11,0,0,0,.38-.89c0-.69-.51-1-1.52-1Zm0,3.7v2.49h1.14a1.75,1.75,0,0,0,1.15-.34,1.13,1.13,0,0,0,.41-.94,1,1,0,0,0-.41-.89,1.86,1.86,0,0,0-1.16-.32Z"/><path class="cls-107" d="M111.17,31.87c.7.5,1.33,1,1.91,1.48L112,34.57a23.6,23.6,0,0,0-1.82-1.6Zm.46,3.17c.61.26,1.15.47,1.62.62-.39,1.3-.85,2.79-1.39,4.45l-1.63-.54C110.75,38.14,111.21,36.63,111.63,35Zm-.33-6.28a24.41,24.41,0,0,1,2,1.51l-1.08,1.19c-.63-.59-1.26-1.15-1.89-1.66Zm9.9,1.64c0,2.72-.08,4.29-.14,4.73a1.69,1.69,0,0,1-.44,1,3,3,0,0,1-1.75.41c-.12-.53-.25-1-.4-1.55.62,0,1,0,1-.11a12.06,12.06,0,0,0,.12-2.56l-1.35.32v5.17h-1.6V33l-1.16.26v4.53c0,.46.22.68.66.68H119a1.07,1.07,0,0,0,.79-.24,3.68,3.68,0,0,0,.39-1.67c.52.24,1,.46,1.58.66a4.09,4.09,0,0,1-.8,2.16,1.76,1.76,0,0,1-1.27.48h-4c-1.18,0-1.77-.65-1.77-1.94V33.66l-.68.16-.34-1.51,1-.24V29.63h1.59v2.08l1.16-.27V28.59h1.6v2.48Z"/><path class="cls-107" d="M122.16,38.2h1.46V29.26h8.8V38.2h1.42v1.51H122.16Zm8.58-7.43h-5.42v1.5h5.42Zm-5.42,4.45h5.42v-1.5h-5.42Zm0,3h5.42V36.68h-5.42Z"/><path class="cls-107" d="M144,35.46a18.2,18.2,0,0,0,1.8.68c-.19.94-.34,1.66-.46,2.15a1.71,1.71,0,0,1-.82,1.1,3.41,3.41,0,0,1-1.7.36h-5.09c-1.67,0-2.5-.88-2.5-2.63v-5H137v1.13h5.67V30.77H135v-1.6h9.47v5.68H137V37c0,.79.37,1.18,1.11,1.18h4.38a1.89,1.89,0,0,0,.88-.17.8.8,0,0,0,.42-.6C143.84,37.07,143.93,36.44,144,35.46Z"/><path class="cls-107" d="M151.11,33l-.37,3.9h-1.06l.24-2.45h-.8v4.27a1.25,1.25,0,0,1-1.28,1.42c-.27,0-.71,0-1.3,0-.09-.48-.2-1-.32-1.51.25,0,.5,0,.73,0,.43,0,.64-.22.64-.68V34.46h-1.45V33h1.62c-.5-.35-1-.68-1.42-1l.83-1.05,1.25,1,1-1.38h-3V29.22H151v1.5L149.38,33Zm2.61.71h1.48v.34a11.88,11.88,0,0,1-.28,2.91c1.06.74,2,1.48,2.93,2.2l-1.1,1.13a27.59,27.59,0,0,0-2.41-2,7.74,7.74,0,0,1-2.7,2.06c-.33-.5-.65-1-1-1.37a5.14,5.14,0,0,0,2.61-2,6.83,6.83,0,0,0,.44-2.9Zm-2.21,3.57V31.66h1.83l.18-1h-2.25V29.2h6.33v1.45h-2.49l-.23,1h2.52v5.63h-1.51V33.12H153v4.17Z"/><path class="cls-107" d="M169.92,32.93c-.33.4-.7.9-1.13,1.5-.28-.23-.56-.46-.83-.71-.11,2.5-.19,4-.25,4.53a1.76,1.76,0,0,1-.58,1.2,2,2,0,0,1-1.38.43c-.8,0-1.56,0-2.28,0q-.1-1-.24-1.77c1,.09,1.75.13,2.2.13a.48.48,0,0,0,.51-.36,19.09,19.09,0,0,0,.18-2.94h-2.89a8.3,8.3,0,0,1-.47,2.52A4.43,4.43,0,0,1,161.59,39a7.5,7.5,0,0,1-2,1.23c-.49-.65-.9-1.14-1.22-1.49a7.63,7.63,0,0,0,1.72-.92,3.33,3.33,0,0,0,1-1.08,5,5,0,0,0,.39-1.85h-1.67V34c-.19.15-.39.3-.59.43a12,12,0,0,0-1.07-1.32,12.53,12.53,0,0,0,4-4.43l1.57.68a14.24,14.24,0,0,1-3.08,4h6.86a16.23,16.23,0,0,1-3-3.87l1.45-.75A13,13,0,0,0,169.92,32.93Z"/><path class="cls-107" d="M170.33,29.21h6.08v1.34h-1.66v1h1.51V40.1H175v-.76h-3.13v.74h-1.24V31.57h1.51v-1h-1.83ZM171.69,35a4,4,0,0,0,.46-2.17h-.46Zm.87,1-.67-.56v.8H175v-.69h-.25a.92.92,0,0,1-1-1V32.8h-.53A6.9,6.9,0,0,1,172.56,36Zm-.67,2.13H175v-.73h-3.13Zm1.32-6.55h.53v-1h-.53Zm1.95,3h.08V32.8h-.49v1.31C174.75,34.41,174.88,34.56,175.16,34.56Zm5.25,1.54a13.44,13.44,0,0,0,1.49.54,21.11,21.11,0,0,1-.39,2.27,1.34,1.34,0,0,1-.53.78,1.76,1.76,0,0,1-1,.25h-1.52q-1.5,0-1.5-1.62V33h2.76V30.76h-2.94v-1.5h4.46v5.21H178.5v3.46c0,.35.17.53.5.53h.55a.59.59,0,0,0,.59-.32A9,9,0,0,0,180.41,36.1Z"/><path class="cls-107" d="M184.38,28.66l1.75.27-.53,1.6h2v2.28a21.6,21.6,0,0,0,1.81-4.17l1.61.42c-.17.52-.35,1-.55,1.52h3l-.14,6.75a5.78,5.78,0,0,1-.18,1.52,1.65,1.65,0,0,1-.47.72,2,2,0,0,1-.9.37,18.67,18.67,0,0,1-2.52.1,10.31,10.31,0,0,0-.45-1.77c.58,0,1.2.07,1.85.07a1.77,1.77,0,0,0,.49-.06.84.84,0,0,0,.33-.2.67.67,0,0,0,.18-.3,11.24,11.24,0,0,0,.08-1.44l.05-2.39c0-.75,0-1.35,0-1.82h-2c-.25.55-.53,1.08-.82,1.59a9.66,9.66,0,0,0-1.38-.72v7H186v-.84H184.3v.91h-1.63V30.53h1.24C184.13,29.76,184.29,29.14,184.38,28.66Zm1.58,3.4H184.3v2H186ZM184.3,37.6H186v-2H184.3Zm5.13-4.06c.56.67,1.17,1.49,1.82,2.45l-1.48,1a24.94,24.94,0,0,0-1.7-2.5Z"/><path class="cls-107" d="M203.18,32.63V29.69h1.64v4.49h-3.9v3.89h2.68V35.2h1.64v5H203.6v-.55h-8.75V35.2h1.64v2.87h2.67V34.18h-3.89V29.69h1.64v2.94h2.25v-4h1.76v4Z"/><path class="cls-107" d="M209.82,32.42l1.71.34-1.09,4.58,1-.16c-.05.74-.07,1.3-.08,1.69-1.63.26-3.24.55-4.85.84l-.26-1.78,2.71-.37C209.26,36,209.55,34.29,209.82,32.42Zm-3.47-1.78h2.07c-.26-.61-.5-1.12-.72-1.52l1.61-.56c.24.4.56,1,.95,1.75l-.92.33h2.51v1.54h-5.5Zm1.74,2c.27,1.11.56,2.52.88,4.21l-1.55.31c-.23-1.39-.5-2.8-.83-4.22Zm9.78-2.05v1.54h-2.69v1.76h2.21v6.28h-1.57V39.5h-2.53v.7h-1.57V33.88h1.77V28.6h1.69v2Zm-2.05,4.87h-2.53v2.48h2.53Z"/><path class="cls-107" d="M222.29,36.32a3.77,3.77,0,0,0,2.49.91A2.12,2.12,0,0,0,226,37a.83.83,0,0,0,.4-.7,1,1,0,0,0-.32-.7,5.66,5.66,0,0,0-1.67-.89c-1.41-.6-2.12-1.48-2.12-2.63a2.28,2.28,0,0,1,1-2,4.21,4.21,0,0,1,2.55-.7,6.26,6.26,0,0,1,2.23.34v1.82a3.63,3.63,0,0,0-2.13-.62,2.15,2.15,0,0,0-1.15.26.79.79,0,0,0-.42.7.9.9,0,0,0,.29.65,5.75,5.75,0,0,0,1.45.8,4.69,4.69,0,0,1,1.86,1.22,2.45,2.45,0,0,1,.5,1.54,2.34,2.34,0,0,1-.92,2,4.43,4.43,0,0,1-2.63.68,5.64,5.64,0,0,1-2.56-.5Z"/><path class="cls-107" d="M238,38.61h-2l-3.85-5.88a6.93,6.93,0,0,1-.43-.73h0a13,13,0,0,1,.05,1.44v5.17h-1.83V29.53h2.11l3.7,5.71q.38.57.45.72h0a8.5,8.5,0,0,1-.06-1.26V29.53H238Z"/><path class="cls-107" d="M248,38.61h-2.11l-.68-2.08h-3.29l-.67,2.08h-2.1l3.32-9.08h2.28ZM244.76,35l-1-3.15a2.88,2.88,0,0,1-.14-.79h-.06a2.78,2.78,0,0,1-.16.77l-1,3.17Z"/><path class="cls-107" d="M254.52,31.11h-2.59v7.5H250v-7.5h-2.58V29.53h7.11Z"/><path class="cls-106" d="M24.35,77.9a12,12,0,0,0,1.88-3.49H24.44v-.76h2.1V72.5H24.87v-.77h1.67V70.62H24.62v-.77h1.92V68.16h.8v1.69h1.8v.77h-1.8v1.11h1.59v.77H27.34v1.15h1.93v.76H27.34v1.31l.41-.4c.61.59,1.18,1.18,1.72,1.76l-.65.58A21.28,21.28,0,0,0,27.34,76v3.9h-.8V75.43a11.8,11.8,0,0,1-1.83,3.4A6,6,0,0,0,24.35,77.9Zm4.55-2.72,2.65-.25V72.78L29.34,73l-.06-.81L31.55,72v-2.2c-.67.07-1.37.14-2.11.2a5.35,5.35,0,0,0-.17-.87,52.51,52.51,0,0,0,5.65-.69l.22.91c-.8.12-1.7.24-2.71.35v2.22l2.72-.25.05.81-2.77.26v2.13l3.33-.32.05.81-3.38.33V78c0,.47.2.7.61.7h1.31c.36,0,.58-.24.66-.73s.13-1.07.17-1.61a8,8,0,0,0,.9.38c-.09.64-.17,1.15-.24,1.56a1.29,1.29,0,0,1-1.39,1.26H32.82c-.85,0-1.27-.48-1.27-1.45V75.75L29,76Z"/><path class="cls-106" d="M36.89,78.33c-.22-.25-.44-.51-.69-.77a9.3,9.3,0,0,0,1.73-5.78v-3h8.78V73h-.92v-.47h-2a6.7,6.7,0,0,0,4.27,3.75c-.26.34-.5.68-.72,1a8.68,8.68,0,0,1-4.52-4.78h-4A10.45,10.45,0,0,1,36.89,78.33Zm2-8.75v2.14h6.92V69.58Zm0,8.16.43-.83q2.58.81,5.59,1.87l-.47,1Q41.6,78.59,38.9,77.74ZM40,75.07l.42-.83c1.24.45,2.43.93,3.57,1.45l-.5,1C42.4,76.09,41.24,75.56,40,75.07Z"/><path class="cls-106" d="M25,85h.83v9.34H25Zm.69-1.71.6-.56c.56.52,1.09,1.06,1.61,1.63l-.68.63C26.72,84.37,26.21,83.8,25.69,83.27Zm.6,8.78c1.32-.12,2.62-.24,3.92-.39,0,.3,0,.57,0,.81l-3.82.39Zm3.85-.62a8,8,0,0,0,1.07-1,16.53,16.53,0,0,1-.59-3.63H26.49V86h4.08c0-.44,0-.92,0-1.42h.81c0,.5,0,1,.05,1.42h2.77v.76H31.44a19.5,19.5,0,0,0,.41,2.82,9.33,9.33,0,0,0,1.09-2.08l.8.35a12.9,12.9,0,0,1-1.59,2.68,3.75,3.75,0,0,0,.48.92c.28.31.45.31.52,0a10.94,10.94,0,0,0,.15-1.09,4.7,4.7,0,0,0,.8.27c-.09.68-.18,1.19-.26,1.53s-.31.72-.59.72-.88-.31-1.34-.94a3.25,3.25,0,0,1-.37-.67,12.58,12.58,0,0,1-1,1A4.46,4.46,0,0,0,30.14,91.43Zm-3.27-3.64H30V91h-.76v-.42H27.63v.54h-.76Zm2.4.72H27.63v1.38h1.64Zm-.52-4.3V83.4h6.7v9.37a1.31,1.31,0,0,1-1.51,1.46l-1.56,0a6.85,6.85,0,0,0-.18-.89c.64,0,1.16.07,1.56.07.57,0,.86-.27.86-.8V84.21Zm3,.67.44-.55c.44.31.85.62,1.25.94l-.51.61C32.69,85.63,32.29,85.3,31.78,84.88Z"/><path class="cls-106" d="M36.24,88.49a19,19,0,0,0,2.45-5.78l.87.26c-.32,1-.66,2-1,2.88v8.47h-.86V87.69a17,17,0,0,1-1.07,1.77C36.49,89.13,36.37,88.8,36.24,88.49Zm2.92,4.69h1.18V85.81h2.78V84.72H39.71v-.81h3.41V82.65H44v1.26h3.71v.81H44v1.09h2.85v7.37H48V94H39.16ZM46,86.59H41.21v1.07H46ZM41.21,89.5H46V88.43H41.21Zm0,1.83H46V90.26H41.21Zm0,1.85H46V92.09H41.21Z"/><path class="cls-106" d="M147.65,68.85h10.06v11h-.94v-.77h-8.18v.77h-.94Zm9.12.9h-8.18v8.46h8.18Zm-7.47,2.39h2.9v-2h.9v2h3V73h-3a4.53,4.53,0,0,1-.13.92q1.65,1.33,3.39,2.88l-.72.75c-.9-.92-1.88-1.86-2.93-2.8a5.93,5.93,0,0,1-3.09,3c-.21-.29-.42-.56-.62-.8,2-.93,3.11-2.25,3.21-4H149.3Z"/><path class="cls-106" d="M162.78,76.52a3.3,3.3,0,0,0,1.12.61,4.12,4.12,0,0,0,1.33.24q1.92,0,1.92-1.38a1.23,1.23,0,0,0-.21-.7,1.84,1.84,0,0,0-.56-.55A14.88,14.88,0,0,0,165,74a5.26,5.26,0,0,1-1.8-1.28,2.26,2.26,0,0,1-.44-1.36,2.15,2.15,0,0,1,.91-1.82,3.77,3.77,0,0,1,2.3-.67,4.58,4.58,0,0,1,2,.33v1.3a3.53,3.53,0,0,0-2.09-.58,2.37,2.37,0,0,0-1.36.36,1.1,1.1,0,0,0-.52,1,1.21,1.21,0,0,0,.36.91,6.81,6.81,0,0,0,1.58,1,5.61,5.61,0,0,1,1.88,1.3,2.21,2.21,0,0,1,.53,1.46,2.17,2.17,0,0,1-.87,1.86,4,4,0,0,1-2.41.65,6.37,6.37,0,0,1-1.27-.15,3,3,0,0,1-1.05-.38Z"/><path class="cls-106" d="M177.48,78.26h-1.39l-4.59-7.18a3.43,3.43,0,0,1-.31-.6h0a11.91,11.91,0,0,1,0,1.29v6.49H170V69h1.48l4.45,7a6.16,6.16,0,0,1,.38.64h0a10.77,10.77,0,0,1-.05-1.35V69h1.16Z"/><path class="cls-106" d="M186.87,78.26h-1.3l-.93-2.53h-3.79L180,78.26h-1.3L182.14,69h1.26Zm-2.59-3.57-1.38-3.84a4.43,4.43,0,0,1-.14-.64h0a2.88,2.88,0,0,1-.15.64l-1.36,3.84Z"/><path class="cls-106" d="M192.64,70.09H190v8.17h-1.18V70.09h-2.62V69h6.43Z"/><path class="cls-106" d="M196.35,77.89a12,12,0,0,0,1.88-3.49h-1.79v-.76h2.1V72.49h-1.67v-.77h1.67V70.6h-1.92v-.76h1.92V68.15h.8v1.69h1.8v.76h-1.8v1.12h1.58v.77h-1.58v1.15h1.93v.76h-1.93v1.31l.41-.4c.61.59,1.18,1.18,1.72,1.76l-.65.58A21.28,21.28,0,0,0,199.34,76v3.9h-.8V75.42a11.8,11.8,0,0,1-1.83,3.4A7.27,7.27,0,0,0,196.35,77.89Zm4.55-2.72,2.65-.25V72.77l-2.21.2-.06-.8,2.27-.21v-2.2c-.67.07-1.37.14-2.11.2a5.35,5.35,0,0,0-.17-.87,52.82,52.82,0,0,0,5.65-.69l.22.91c-.8.12-1.7.24-2.71.35v2.22l2.72-.25,0,.81-2.76.26v2.13l3.33-.32.05.81-3.38.33V78c0,.47.2.7.61.7h1.31c.36,0,.58-.24.66-.73s.13-1.07.17-1.61a7.29,7.29,0,0,0,.9.38c-.09.64-.17,1.15-.24,1.56a1.29,1.29,0,0,1-1.39,1.26h-1.63c-.85,0-1.27-.48-1.27-1.45V75.74L201,76Z"/><path class="cls-106" d="M208.88,78.32c-.21-.25-.43-.51-.68-.77a9.32,9.32,0,0,0,1.73-5.78v-3h8.78V73h-.92v-.47h-2a6.74,6.74,0,0,0,4.28,3.75c-.26.34-.5.68-.72,1a8.65,8.65,0,0,1-4.52-4.78h-4A10.38,10.38,0,0,1,208.88,78.32Zm2-8.75v2.14h6.92V69.57Zm0,8.16.43-.83q2.58.81,5.59,1.87l-.47,1Q213.6,78.58,210.9,77.73ZM212,75.06l.42-.84c1.24.46,2.43.94,3.56,1.46l-.49,1C214.4,76.08,213.24,75.55,212,75.06Z"/><path class="cls-106" d="M221,71.68h4c.18-.65.33-1.31.47-2h-5.05v-.88H231.7v.88h-5.21c-.19.68-.38,1.34-.59,2H231v6.69c0,.91-.4,1.37-1.22,1.37-.51,0-1,0-1.54,0q-.14-.84-.18-1a12.38,12.38,0,0,0,1.4.09c.43,0,.64-.22.64-.66V72.56H228v6.56h-.88V72.56h-2.14v6.56h-.88V72.56h-2.14v7.25H221Z"/><path class="cls-106" d="M232.13,75.45h8.22v-.87h1v.87h2.54v.85H241.3v1.94c0,.94-.51,1.42-1.53,1.42l-1.88,0q-.06-.44-.18-1c.72.06,1.32.08,1.79.08s.85-.24.85-.74V76.3h-8.22Zm3.12-2h6.17c.63,0,1-.2,1.09-.6a12.07,12.07,0,0,0,.26-1.33,9,9,0,0,0,.93.37c-.12.54-.23,1-.33,1.33a1.57,1.57,0,0,1-1.73,1.07h-6.58a1.37,1.37,0,0,1-1.56-1.54v-4H242v3.62H241v-.41h-6.63v.7C234.41,73.14,234.69,73.4,235.25,73.4Zm-.9,3.55.57-.62c.87.69,1.52,1.24,2,1.63l-.69.71C235.47,78,234.86,77.4,234.35,77Zm.06-7.43v1.57H241V69.52Z"/><path class="cls-106" d="M244.08,78.17l2.41-.25v-2h-2.15v-.84h2.15V73.57h.92v1.49h2.24v.84h-2.24v1.92l2.34-.3c0,.17,0,.45.06.85q-2.52.34-5.49.71Zm.16-9.4h5.55v.85h-2.7c-.55,1.15-1,2.06-1.44,2.74l2.54-.14c-.22-.48-.44-1-.67-1.41l.74-.36c.55,1,1.05,2.07,1.49,3.08l-.83.41-.39-1c-1.15.09-2.16.18-3,.27a6.76,6.76,0,0,0-.83.2l-.44-.82a2,2,0,0,0,.71-.67,19.51,19.51,0,0,0,1.19-2.35h-1.88Zm5.3,3.67A22.47,22.47,0,0,0,251.4,68l.86.3q-.34,1-.72,1.89h4v.85h-1.09a11.18,11.18,0,0,1-1.43,5.8,7.94,7.94,0,0,0,2.76,2.06c-.26.32-.49.61-.72.87a9.68,9.68,0,0,1-2.61-2.15,10.55,10.55,0,0,1-2.91,2.27c-.13-.2-.33-.47-.59-.8a9.55,9.55,0,0,0,3-2.19,9.59,9.59,0,0,1-1.46-4.54c-.13.23-.25.46-.38.68C250,72.9,249.78,72.68,249.54,72.44Zm3,3.7a10.73,10.73,0,0,0,1.09-5.07h-2.37A10.29,10.29,0,0,0,252.49,76.14Z"/><path class="cls-106" d="M256.48,70.09h1.19c.29-.72.53-1.38.71-2l1,.28c-.24.61-.48,1.17-.72,1.69H261v9.48h-.94v-.93h-2.65v1h-.94Zm3.59.9h-2.65v2.89h2.65Zm-2.65,6.76h2.65v-3h-2.65Zm3.76-5.22a17.45,17.45,0,0,0,1.87-4.41l1,.25c-.2.6-.4,1.16-.61,1.69h3.79q-.15,6.12-.24,7.7A1.73,1.73,0,0,1,265,79.63c-.71,0-1.44,0-2.17-.07a8.49,8.49,0,0,0-.19-1.06h0a15.72,15.72,0,0,0,2.16.17c.71,0,1.09-.38,1.15-1.15.08-1.18.15-3.37.19-6.57h-3.16A16.37,16.37,0,0,1,262,73,5.53,5.53,0,0,0,261.18,72.53Zm1,.81.72-.53c.87,1,1.56,1.94,2.08,2.7l-.87.62A29.88,29.88,0,0,0,262.22,73.34Z"/><path class="cls-106" d="M151.65,93.17l2.41.06,4.5-.11c-.14.32-.27.62-.39.92l-4.08,0L151.54,94a3.27,3.27,0,0,1-2.83-1.35,13.39,13.39,0,0,0-1.38,1.52l-.5-1c.49-.45,1-.88,1.46-1.3V87.72H147v-.86h2.25v5.19A3.14,3.14,0,0,0,151.65,93.17Zm-3.38-10.33c.55.69,1.07,1.4,1.57,2.13l-.84.6c-.46-.75-.95-1.49-1.48-2.22Zm1.88,7.27h3.95V88.45h-3.43v-.84a24.11,24.11,0,0,0,1.31-2.7h-1.69v-.83h2c.19-.5.36-1,.53-1.54l1,.22c-.17.45-.34.89-.52,1.32h4.81v.83H153c-.4,1-.81,1.85-1.24,2.71h2.37V85.56H155v2.06h3v.83h-3v1.66h3.34v.83H155v2h-.94v-2h-3.95Z"/><path class="cls-106" d="M158.78,89l1.62-.47V85.82h-1.48V85h1.48V82.73h.87V85h1.35v.86h-1.35v2.45c.37-.12.74-.24,1.09-.37,0,.36,0,.67.07.93l-1.16.39v3.67c0,.86-.38,1.29-1.14,1.3-.29,0-.66,0-1.11,0,0-.33-.08-.66-.14-1,.47,0,.81.07,1,.07.35,0,.52-.21.52-.63V89.51l-1.51.53Zm3.2,4.44a11.28,11.28,0,0,0,3.73-1.12c-.73-.33-1.52-.68-2.36-1,.34-.44.65-.89.94-1.33h-1.94v-.79h2.43q.38-.65.69-1.29l.87.37c-.19.32-.37.62-.56.92h4.52V90h-1.54a5.69,5.69,0,0,1-1.38,2.21q1.5.63,2.91,1.26l-.52.88c-.88-.47-1.92-1-3.11-1.55a11.25,11.25,0,0,1-4.24,1.6C162.31,94.1,162.16,93.79,162,93.45Zm.41-6.55H167c.5-.7.94-1.35,1.32-2l.88.49c-.4.49-.82,1-1.24,1.47h2.46v.8h-8Zm.46-2.89h3.32c-.19-.36-.38-.72-.58-1.07l.79-.37c.25.43.49.86.71,1.3l-.3.14h3.31v.8h-7.25Zm1.05,1.4.69-.46c.37.44.72.9,1.07,1.38l-.76.51A13.19,13.19,0,0,0,163.9,85.41Zm.68,5.61,1.92.79A4.23,4.23,0,0,0,167.81,90h-2.53Z"/><path class="cls-106" d="M170.7,93.5c2.91-1,4.65-2.43,5.22-4.31h-5v-.91h5.22c0-.54.09-1.35.11-2.4h-3.1a14,14,0,0,1-1.2,1.86,6,6,0,0,0-.74-.57,11.77,11.77,0,0,0,2.07-4l.92.28c-.18.55-.38,1.07-.6,1.57h2.67c0-.69,0-1.46,0-2.33h1c0,.85,0,1.63-.05,2.33h4.4v.91h-4.42c0,1,0,1.77-.08,2.4h5.15v.91h-5.06q1.13,3,5.23,4.08c-.26.34-.49.66-.71,1-2.64-.95-4.32-2.4-5.07-4.35-.62,1.82-2.35,3.32-5.2,4.52C171.27,94.19,171,93.89,170.7,93.5Z"/><path class="cls-106" d="M185,85.09h.84v2.54a18,18,0,0,1-.23,3.17l.37-.31c.76.78,1.39,1.48,1.9,2.11l-.76.57a24.5,24.5,0,0,0-1.61-2,5.59,5.59,0,0,1-2.27,3.09,7.46,7.46,0,0,0-.66-.79,4.77,4.77,0,0,0,1.93-2.08A8.92,8.92,0,0,0,185,88Zm-1.84-1.85h4.52V90.7h-.85V84.09H184v6.68h-.85Zm4.58,4a21,21,0,0,0,1.76-4.59l.88.27c-.2.64-.41,1.26-.63,1.85h4.35v.85H193c-.13,2.67-.65,4.64-1.58,5.9a6.1,6.1,0,0,0,3,1.86,9.39,9.39,0,0,0-.67,1,7.94,7.94,0,0,1-2.86-2.08,12.37,12.37,0,0,1-3,2.2,5,5,0,0,0-.61-.8,10.42,10.42,0,0,0,3.08-2.19A11,11,0,0,1,189,86.69c-.22.48-.44.94-.67,1.38A8.24,8.24,0,0,0,187.77,87.21Zm3.09,3.47a10.62,10.62,0,0,0,1.21-5.09h-2.41A12.48,12.48,0,0,0,190.86,90.68Z"/><path class="cls-106" d="M28.27,231h1v1.6h7v-3H27.84v-.87h9.42v5.45h-1v-.72h-7v3.41c0,.71.34,1.07,1,1.07h5.78c.67,0,1.08-.24,1.22-.72a10.25,10.25,0,0,0,.31-1.91,7.94,7.94,0,0,0,1,.35,18.66,18.66,0,0,1-.35,1.94,1.78,1.78,0,0,1-2,1.32H30.06a1.6,1.6,0,0,1-1.79-1.84Z"/><path class="cls-106" d="M39.84,230.65l.59-.52c.28.25.55.5.8.75l1.25-1.51H39.17v-.81h4.38v.81l-1.73,2.1.39.41-.47.4h2.13v.79a18.72,18.72,0,0,1-.59,2.08l-.8-.27A11.82,11.82,0,0,0,43,233.1H41.82V238a1.17,1.17,0,0,1-1.31,1.33H39.27c0-.28-.1-.59-.17-.94a9.34,9.34,0,0,0,1.18.07q.66,0,.66-.75V233.1H39.06v-.82h2.3A20.23,20.23,0,0,0,39.84,230.65Zm7,1.58h.86V234a6.88,6.88,0,0,1-.35,2.35c1.23.81,2.35,1.61,3.35,2.39l-.64.76c-1-.81-2-1.6-3.07-2.38l-.23.34a8.15,8.15,0,0,1-3,2.14q-.37-.48-.66-.78a6.86,6.86,0,0,0,2.94-2,4.67,4.67,0,0,0,.78-2.91Zm-2.39-1.29h2l.29-1.6H44v-.82h6.65v.82h-3l-.34,1.6H50.1v5.75h-.85v-4.94h-4v4.94h-.85Z"/><path class="cls-106" d="M50.9,232.72A14.57,14.57,0,0,0,55,228.06l.83.46a16.3,16.3,0,0,1-4.27,5A6.18,6.18,0,0,0,50.9,232.72Zm1.59.38h7.79c0,1.33-.1,2.62-.18,3.88-.09,1.46-.78,2.18-2.07,2.18-.63,0-1.3,0-2-.06-.05-.33-.11-.66-.17-1a13.73,13.73,0,0,0,2,.14c.78,0,1.21-.44,1.29-1.36s.1-1.81.14-2.91H55.7a7.39,7.39,0,0,1-.81,3.14,5.78,5.78,0,0,1-3,2.42,8,8,0,0,0-.66-.78A5.33,5.33,0,0,0,54,236.64a5.85,5.85,0,0,0,.71-2.67H52.49Zm4.85-4.86.84-.36a8.79,8.79,0,0,0,4.52,4.68,9.48,9.48,0,0,0-.76.89A10.46,10.46,0,0,1,57.34,228.24Z"/><path class="cls-106" d="M63.49,231h1.6v-1.53h-2v-.77h6.21v.77H67.39V231h1.7v8.35H68.3v-.75h-4v.76h-.78Zm3.15,2.63v-1.88h-.8v.47a4.83,4.83,0,0,1-1,3.1l-.6-.57v1h4v-1.12h-.83C66.92,234.56,66.64,234.24,66.64,233.6Zm-2.37,1a3.65,3.65,0,0,0,.82-2.51v-.41h-.82Zm0,3.18h4v-1.4h-4ZM65.84,231h.8v-1.53h-.8Zm2.46.75h-.91v1.63c0,.35.13.51.43.49h.48Zm1.64.72h3.11v-3H69.74v-.82h4.15v5.13h-.84v-.46H70.78v4.05c0,.61.27.92.8.92h1.11a.72.72,0,0,0,.79-.69,14.28,14.28,0,0,0,.21-1.89,9.47,9.47,0,0,0,.88.38c-.06.64-.14,1.24-.25,1.8a1.33,1.33,0,0,1-1.47,1.24H71.34c-.93,0-1.4-.55-1.4-1.64Z"/><path class="cls-106" d="M74.87,233.52A18.19,18.19,0,0,0,77.64,228l.94.31a28.92,28.92,0,0,1-1.26,3v8.09h-.89v-6.48a15.08,15.08,0,0,1-1.17,1.65Q75.1,234.09,74.87,233.52Zm3.32,4.32h8.37v.8H78.19Zm1.06-9.09h6.33v7.93h-.92v-.76H80.17v.76h-.92Zm5.41.82H80.17v2.36h4.49Zm-4.49,5.53h4.49v-2.37H80.17Z"/><path class="cls-106" d="M98.53,237.65c-.22.26-.44.55-.66.86a12.16,12.16,0,0,1-4.74-4v4.89h-.91v-4.88a15.93,15.93,0,0,1-4.76,4.1q-.22-.32-.63-.78a15.31,15.31,0,0,0,5-4H87V233h5.2v-2.2H87.71v-.87h4.51v-2h.91v2h4.56v.87H93.13V233h5.2v.86H93.46A11.54,11.54,0,0,0,98.53,237.65Z"/><path class="cls-106" d="M98.81,233.62a19.08,19.08,0,0,0,2.44-5.67l.86.26a30.69,30.69,0,0,1-1,2.91v8.35h-.83v-6.62a16.45,16.45,0,0,1-1.07,1.7C99.05,234.22,98.93,233.91,98.81,233.62Zm4.08,1.94.78-.44a5.94,5.94,0,0,0,1.35,1.56,4.2,4.2,0,0,0,.58-1.94h-3v-3.22h3.16v-1.15H102v-.8h3.75V228h.9v1.58h3.79v.8h-3.79v1.15h3.15v3.72h-.89v-.5h-2.36a5.81,5.81,0,0,1-.71,2.45s0,0,0,0a10.42,10.42,0,0,0,4.7,1.23c-.24.34-.45.66-.65,1a11,11,0,0,1-4.67-1.52,9.1,9.1,0,0,1-3,1.62c-.18-.25-.38-.51-.61-.79a8.56,8.56,0,0,0,2.86-1.37A7,7,0,0,1,102.89,235.56Zm2.79-1.6q0-.56,0-1.65h-2.27V234Zm.9,0h2.29v-1.65h-2.26Q106.61,232.76,106.58,234Z"/><path class="cls-106" d="M116.38,239.26v-3.71H113a7.44,7.44,0,0,1-1.42,4q-.3-.39-.69-.81a6.25,6.25,0,0,0,1-2.38,19.14,19.14,0,0,0,.26-3.58v-4.17h9.55v9.29c0,.93-.44,1.39-1.33,1.39-.54,0-1.14,0-1.81,0,0-.25-.1-.58-.18-1,.68.05,1.23.08,1.65.08s.73-.24.73-.69v-2.15h-3.44v3.71ZM113,234.7h3.34v-2.18h-3.29C113.11,233.27,113.09,234,113,234.7Zm0-5.2v2.18h3.29V229.5Zm7.67,0h-3.44v2.18h3.44Zm-3.44,5.2h3.44v-2.18h-3.44Z"/><path class="cls-106" d="M123.22,229.88h1.18c.29-.71.53-1.36.72-1.94l1,.28c-.25.59-.48,1.15-.71,1.66h2.34v9.3h-.94v-.91h-2.63v1h-.94Zm3.57.87h-2.63v2.84h2.63Zm-2.63,6.64h2.63v-3h-2.63Zm3.74-5.12a17,17,0,0,0,1.87-4.33l1,.24c-.2.59-.4,1.14-.61,1.66h3.77q-.14,6-.23,7.56a1.71,1.71,0,0,1-1.93,1.84c-.71,0-1.44,0-2.17-.07a8.14,8.14,0,0,0-.19-1h0a15.33,15.33,0,0,0,2.14.16,1.05,1.05,0,0,0,1.15-1.12q.14-1.74.19-6.45h-3.14a15.08,15.08,0,0,1-1.06,2A5,5,0,0,0,127.9,232.27Zm1,.8.71-.53a33.54,33.54,0,0,1,2.07,2.65l-.86.61A31.11,31.11,0,0,0,128.94,233.07Z"/><path class="cls-106" d="M138.77,236.19a3.19,3.19,0,0,0,1.12.59,4,4,0,0,0,1.32.24c1.27,0,1.91-.45,1.91-1.36a1.16,1.16,0,0,0-.21-.68,1.93,1.93,0,0,0-.56-.54,15,15,0,0,0-1.34-.72,5.13,5.13,0,0,1-1.8-1.26,2.16,2.16,0,0,1-.43-1.33,2.09,2.09,0,0,1,.91-1.79,3.77,3.77,0,0,1,2.29-.66,4.48,4.48,0,0,1,2,.33v1.28a3.56,3.56,0,0,0-2.07-.57,2.35,2.35,0,0,0-1.36.35,1.08,1.08,0,0,0-.52,1,1.19,1.19,0,0,0,.36.9,7.35,7.35,0,0,0,1.58.94,5.49,5.49,0,0,1,1.86,1.27,2.16,2.16,0,0,1,.54,1.43,2.12,2.12,0,0,1-.87,1.83,4,4,0,0,1-2.41.64,6.28,6.28,0,0,1-1.25-.15,3,3,0,0,1-1-.37Z"/><path class="cls-106" d="M153.49,237.89H152.1l-4.56-7a3.74,3.74,0,0,1-.31-.59h0a8.62,8.62,0,0,1,.05,1.26v6.37h-1.16v-9h1.47l4.44,6.92a4.31,4.31,0,0,1,.37.62h0a9.92,9.92,0,0,1-.06-1.32v-6.22h1.16Z"/><path class="cls-106" d="M162.92,237.89h-1.29l-.93-2.48h-3.77l-.88,2.48h-1.29l3.45-9h1.26Zm-2.58-3.5L159,230.62a4.54,4.54,0,0,1-.14-.63h0a2.64,2.64,0,0,1-.15.63l-1.35,3.77Z"/><path class="cls-106" d="M168.75,229.88h-2.62v8H165v-8h-2.61v-1h6.4Z"/><path class="cls-106" d="M176.36,231.94c-.15,1.15-.42,2.77-.83,4.86l1.11-.26c0,.3,0,.58,0,.83-.88.22-2.17.5-3.86.84l-.18-.88c.79-.13,1.5-.25,2.15-.38.38-2.34.64-4.06.77-5.16Zm-3.62-1.67h4V231h-4Zm.16,1.84.79-.18c.26,1.12.52,2.49.77,4.11l-.8.21A41,41,0,0,0,172.9,232.11Zm.8-3.74.72-.42a11.94,11.94,0,0,1,1.18,1.75l-.77.47A13.93,13.93,0,0,0,173.7,228.37Zm3,4h7.58v.76h-3.52l-.32,1.27h3.29v3.88c0,.67-.3,1-.89,1H182a4.15,4.15,0,0,0-.23-.86q.39,0,.81,0a.32.32,0,0,0,.35-.36v-3h-1.21v3.67h-.78v-3.67h-1.16v3.6H179v-3.6h-1.17v4.27H177v-5h2.61l.27-1.27h-3.16Zm5.89-.76v-.37h-5.29v-2.63h.82v1.91h1.81v-2.64h.85v2.64h1.81v-1.91h.82v3Z"/><path class="cls-106" d="M185.74,229.13H195V239h-1v-1.13h-7.29V239h-1ZM194,237v-7h-7.29v7Z"/><path class="cls-106" d="M196.65,234.72h1.78c.17-.3.34-.6.5-.92l.84.27-.37.65h2.87v.75a5.49,5.49,0,0,1-1.35,2l1.31.61-.51.81c-.49-.27-1-.55-1.51-.82a10.54,10.54,0,0,1-3.34,1.5c-.13-.25-.26-.53-.4-.82a9.58,9.58,0,0,0,2.89-1.11l-2.1-1.05q.38-.54.72-1.11h-1.33Zm.13-4h2.69v-2.61h.87v2.61h2.25v.78h-2.25v.71l.35-.4c.72.53,1.33,1,1.83,1.4l-.57.66c-.43-.41-1-.86-1.61-1.37v1.33h-.87v-1.63a11.75,11.75,0,0,1-2.48,2c-.15-.23-.32-.46-.51-.71a13,13,0,0,0,2.71-1.94h-2.41Zm.3-1.81.67-.45c.35.43.71.89,1.09,1.38l-.73.51C197.77,229.81,197.42,229.34,197.08,228.88Zm1.32,7.45,1.71.78a5.1,5.1,0,0,0,1.27-1.62h-2.44Zm3.66-8,.72.48c-.43.56-.85,1.08-1.28,1.55-.18-.15-.39-.32-.64-.49C201.27,229.44,201.67,228.92,202.06,228.37Zm2.13-.4.94.14a21.58,21.58,0,0,1-.58,2.12h3.59V231h-.74a13,13,0,0,1-1.5,5.46,7.42,7.42,0,0,0,2.41,2.1c-.25.35-.46.65-.63.93a9.3,9.3,0,0,1-2.38-2.2,11.1,11.1,0,0,1-2.56,2.31,7,7,0,0,0-.67-.73,10.33,10.33,0,0,0,2.66-2.45,10.29,10.29,0,0,1-1.25-3.77c-.17.29-.34.56-.52.81a7.93,7.93,0,0,0-.59-.75A11.32,11.32,0,0,0,204.19,228Zm2.27,3.05h-2.19a2.55,2.55,0,0,1-.13.29,10.71,10.71,0,0,0,1.17,4.25A11.11,11.11,0,0,0,206.46,231Z"/><path class="cls-106" d="M241.21,229h11.17v.91h-4.32c-.37.64-.87,1.41-1.49,2.3h.68v7.33h-1v-7a20,20,0,0,1-4.72,4.21q-.3-.42-.66-.84a18.06,18.06,0,0,0,5.95-6h-5.6Zm7.21,3.57q2.19,1.34,4.23,2.71l-.67.93c-1.61-1.2-3-2.14-4.14-2.84Z"/><path class="cls-106" d="M253,228.89h11.57v.89H262.6v7.92a1.38,1.38,0,0,1-1.53,1.58h-2.15a7.59,7.59,0,0,0-.19-1.06c.89.06,1.56.09,2,.09s.87-.31.87-.93v-7.59H253Zm1.3,2.62h5.17v4.62H255.2V237h-.93Zm4.24.83H255.2v3h3.31Z"/><path class="cls-106" d="M270.49,239.26v-3.71h-3.4a7.6,7.6,0,0,1-1.42,4c-.2-.26-.44-.53-.69-.81a6.41,6.41,0,0,0,1-2.38,19.14,19.14,0,0,0,.26-3.58v-4.17h9.54v9.29c0,.93-.44,1.39-1.32,1.39-.54,0-1.15,0-1.82,0,0-.25-.1-.58-.17-1,.68.05,1.23.08,1.65.08a.63.63,0,0,0,.72-.69v-2.15h-3.44v3.71Zm-3.34-4.56h3.34v-2.18H267.2A17.41,17.41,0,0,1,267.15,234.7Zm.05-5.2v2.18h3.29V229.5Zm7.67,0h-3.44v2.18h3.44Zm-3.44,5.2h3.44v-2.18h-3.44Z"/><path class="cls-106" d="M277.33,229.88h1.19c.29-.71.52-1.36.71-1.94l1,.28c-.25.59-.49,1.15-.72,1.66h2.34v9.3h-.93v-.91h-2.64v1h-.94Zm3.58.87h-2.64v2.84h2.64Zm-2.64,6.64h2.64v-3h-2.64Zm3.75-5.12a17.33,17.33,0,0,0,1.86-4.33l1,.24c-.2.59-.41,1.14-.61,1.66H288c-.1,4-.17,6.53-.24,7.56a1.71,1.71,0,0,1-1.93,1.84c-.71,0-1.43,0-2.17-.07a6.77,6.77,0,0,0-.18-1h0a15.47,15.47,0,0,0,2.15.16,1,1,0,0,0,1.14-1.12q.14-1.74.19-6.45h-3.14a16.39,16.39,0,0,1-1.05,2A5,5,0,0,0,282,232.27Zm1,.8.71-.53c.87,1,1.56,1.91,2.08,2.65l-.87.61A27.36,27.36,0,0,0,283.05,233.07Z"/><path class="cls-106" d="M292.89,236.19a3.14,3.14,0,0,0,1.11.59,4.06,4.06,0,0,0,1.32.24c1.28,0,1.91-.45,1.91-1.36a1.23,1.23,0,0,0-.2-.68,2.22,2.22,0,0,0-.56-.54c-.24-.16-.69-.39-1.34-.72a5,5,0,0,1-1.8-1.26,2.17,2.17,0,0,1-.44-1.33,2.12,2.12,0,0,1,.91-1.79,3.81,3.81,0,0,1,2.29-.66,4.56,4.56,0,0,1,2,.33v1.28a3.57,3.57,0,0,0-2.08-.57,2.34,2.34,0,0,0-1.35.35,1.09,1.09,0,0,0-.53,1,1.16,1.16,0,0,0,.37.9,7.2,7.2,0,0,0,1.57.94,5.66,5.66,0,0,1,1.87,1.27,2.3,2.3,0,0,1-.33,3.26,4,4,0,0,1-2.41.64,6.28,6.28,0,0,1-1.26-.15,3,3,0,0,1-1-.37Z"/><path class="cls-106" d="M307.6,237.89h-1.38l-4.57-7a4.82,4.82,0,0,1-.31-.59h0a10.43,10.43,0,0,1,.05,1.26v6.37H300.2v-9h1.47l4.43,6.92a4.83,4.83,0,0,1,.38.62h0a9.92,9.92,0,0,1-.06-1.32v-6.22h1.16Z"/><path class="cls-106" d="M317,237.89h-1.3l-.92-2.48H311l-.87,2.48h-1.3l3.46-9h1.25Zm-2.58-3.5-1.38-3.77c0-.12-.08-.33-.14-.63h0a4.21,4.21,0,0,1-.15.63l-1.36,3.77Z"/><path class="cls-106" d="M322.87,229.88h-2.62v8h-1.18v-8h-2.61v-1h6.41Z"/><path class="cls-106" d="M330.48,231.94q-.23,1.73-.84,4.86l1.12-.26a7.5,7.5,0,0,0,0,.83q-1.32.33-3.87.84l-.17-.88c.78-.13,1.5-.25,2.14-.38.38-2.34.64-4.06.77-5.16Zm-3.62-1.67h4V231h-4Zm.15,1.84.8-.18c.25,1.12.51,2.49.77,4.11l-.81.21A38.36,38.36,0,0,0,327,232.11Zm.81-3.74.71-.42a11.2,11.2,0,0,1,1.18,1.75l-.77.47A13.77,13.77,0,0,0,327.82,228.37Zm3,4h7.58v.76h-3.51l-.32,1.27h3.28v3.88c0,.67-.29,1-.89,1h-.85a4.86,4.86,0,0,0-.24-.86q.4,0,.81,0c.24,0,.35-.12.35-.36v-3h-1.2v3.67H335v-3.67h-1.16v3.6h-.78v-3.6h-1.17v4.27h-.82v-5h2.61l.27-1.27H330.8Zm5.9-.76v-.37h-5.3v-2.63h.82v1.91H334v-2.64h.84v2.64h1.82v-1.91h.82v3Z"/><path class="cls-106" d="M339.86,229.13h9.3V239h-1v-1.13h-7.28V239h-1Zm8.29,7.83v-7h-7.28v7Z"/><path class="cls-106" d="M353.35,240a8.05,8.05,0,0,1-2-5.52,8.34,8.34,0,0,1,2-5.59h1a8.55,8.55,0,0,0-2,5.58,8.4,8.4,0,0,0,2,5.53Z"/><path class="cls-106" d="M354.61,237.53a11.8,11.8,0,0,0,1.88-3.42h-1.78v-.75h2.08v-1.13h-1.66v-.75h1.66v-1.1h-1.91v-.75h1.91V228h.8v1.66h1.79v.75h-1.79v1.1h1.58v.75h-1.58v1.13h1.92v.75h-1.92v1.28L358,235c.61.58,1.18,1.16,1.71,1.72l-.64.58a21.38,21.38,0,0,0-1.48-1.66v3.82h-.8V235.1a11.4,11.4,0,0,1-1.81,3.34A7.43,7.43,0,0,0,354.61,237.53Zm4.54-2.68,2.63-.24v-2.1l-2.2.19-.06-.79,2.26-.2v-2.16l-2.09.2a5.27,5.27,0,0,0-.18-.86,54.77,54.77,0,0,0,5.63-.67l.22.88q-1.19.18-2.7.36v2.17l2.71-.25,0,.8-2.75.26v2.09l3.32-.32,0,.8-3.36.32v2.32c0,.46.2.69.61.69h1.3c.36,0,.58-.24.66-.73s.13-1,.17-1.57a7.05,7.05,0,0,0,.89.37c-.08.62-.16,1.13-.23,1.53a1.28,1.28,0,0,1-1.38,1.24h-1.63c-.85,0-1.27-.48-1.27-1.43v-2.33l-2.57.23Z"/><path class="cls-106" d="M367.18,238c-.21-.25-.43-.5-.68-.76a9,9,0,0,0,1.72-5.67v-3H377v4.21h-.91v-.47h-2a6.65,6.65,0,0,0,4.26,3.69c-.26.33-.5.67-.72,1a8.57,8.57,0,0,1-4.5-4.7h-3.95A10,10,0,0,1,367.18,238Zm2-8.59v2.11h6.89v-2.11Zm0,8,.43-.81c1.71.52,3.56,1.14,5.56,1.84l-.47.95Q371.88,238.21,369.19,237.37Zm1.13-2.62.42-.82c1.24.45,2.42.92,3.55,1.43l-.49.94C372.68,235.75,371.52,235.23,370.32,234.75Z"/><path class="cls-106" d="M378.51,240a8.36,8.36,0,0,0,2-5.53,8.5,8.5,0,0,0-2-5.58h1a8.31,8.31,0,0,1,2,5.59,8,8,0,0,1-2,5.52Z"/><path class="cls-106" d="M28.27,246.79h1v1.6h7v-3H27.84v-.87h9.42V250h-1v-.72h-7v3.4c0,.72.34,1.08,1,1.08h5.78c.67,0,1.08-.24,1.22-.72a10.39,10.39,0,0,0,.31-1.91,7.94,7.94,0,0,0,1,.35,18.66,18.66,0,0,1-.35,1.94,1.78,1.78,0,0,1-2,1.32H30.06a1.61,1.61,0,0,1-1.79-1.85Z"/><path class="cls-106" d="M39,249.41a19.08,19.08,0,0,0,2.44-5.67l.86.25a29.93,29.93,0,0,1-1,2.92v8.35h-.83v-6.63a15.61,15.61,0,0,1-1.07,1.71C39.25,250,39.14,249.7,39,249.41Zm4.08,1.94.78-.44a5.94,5.94,0,0,0,1.35,1.56,4.2,4.2,0,0,0,.58-1.94H42.76v-3.22h3.16v-1.15H42.17v-.8h3.75v-1.58h.9v1.58H50.6v.8H46.82v1.15H50V251h-.89v-.5H46.72A5.86,5.86,0,0,1,46,253a0,0,0,0,1,0,0,10.55,10.55,0,0,0,4.7,1.23c-.24.34-.45.66-.65,1a11,11,0,0,1-4.67-1.52,9.29,9.29,0,0,1-3,1.62c-.18-.25-.38-.51-.61-.79a8.36,8.36,0,0,0,2.86-1.38A6.81,6.81,0,0,1,43.1,251.35Zm2.78-1.61c0-.37,0-.92,0-1.64H43.65v1.64Zm.91,0h2.29V248.1H46.82C46.82,248.4,46.81,249,46.79,249.74Z"/><path class="cls-106" d="M56.59,255.05v-3.72H53.18a7.55,7.55,0,0,1-1.42,4q-.3-.39-.69-.81a6.25,6.25,0,0,0,1-2.38,19.22,19.22,0,0,0,.26-3.58v-4.17h9.55v9.29c0,.93-.44,1.39-1.33,1.39-.54,0-1.14,0-1.81,0,0-.25-.1-.58-.18-1,.68.05,1.23.07,1.65.07s.73-.23.73-.69v-2.15H57.53v3.72Zm-3.35-4.56h3.35v-2.18H53.3A19.5,19.5,0,0,1,53.24,250.49Zm.06-5.2v2.18h3.29v-2.18Zm7.67,0H57.53v2.18H61Zm-3.44,5.2H61v-2.18H57.53Z"/><path class="cls-106" d="M63.43,245.67h1.18q.44-1.06.72-1.95l1,.29c-.25.59-.48,1.14-.71,1.66h2.34V255H67v-.91H64.37v1h-.94Zm3.57.87H64.37v2.84H67Zm-2.63,6.64H67v-3H64.37Zm3.74-5.12A16.89,16.89,0,0,0,70,243.72l1,.25c-.2.59-.4,1.14-.61,1.66h3.77q-.14,6-.23,7.56A1.71,1.71,0,0,1,72,255c-.71,0-1.44,0-2.17-.07a8.14,8.14,0,0,0-.19-1h0a15.33,15.33,0,0,0,2.14.16A1.05,1.05,0,0,0,72.93,253c.08-1.16.15-3.31.19-6.45H70a15.08,15.08,0,0,1-1.06,2A5,5,0,0,0,68.11,248.06Zm1,.8.71-.53A33.54,33.54,0,0,1,71.93,251l-.86.61A31.11,31.11,0,0,0,69.15,248.86Z"/><path class="cls-106" d="M79,252a3.23,3.23,0,0,0,1.11.59,4.12,4.12,0,0,0,1.33.24c1.27,0,1.91-.46,1.91-1.36a1.16,1.16,0,0,0-.21-.68,1.81,1.81,0,0,0-.56-.54,13.86,13.86,0,0,0-1.34-.72,5.13,5.13,0,0,1-1.8-1.26,2.16,2.16,0,0,1-.43-1.33,2.09,2.09,0,0,1,.91-1.79,3.77,3.77,0,0,1,2.29-.66,4.48,4.48,0,0,1,2,.33v1.27a3.63,3.63,0,0,0-2.07-.56,2.35,2.35,0,0,0-1.36.35,1.08,1.08,0,0,0-.52,1,1.19,1.19,0,0,0,.36.9,7.35,7.35,0,0,0,1.58.94A5.49,5.49,0,0,1,84,249.93a2.16,2.16,0,0,1,.54,1.43,2.12,2.12,0,0,1-.87,1.83,4,4,0,0,1-2.41.64,6.19,6.19,0,0,1-1.25-.15,3,3,0,0,1-1-.37Z"/><path class="cls-106" d="M93.7,253.68H92.31l-4.56-7a3.74,3.74,0,0,1-.31-.59h0a10.43,10.43,0,0,1,0,1.26v6.37H86.29v-9.05h1.47l4.44,6.91a6.47,6.47,0,0,1,.37.63h0a9.92,9.92,0,0,1-.06-1.32v-6.22H93.7Z"/><path class="cls-106" d="M103.13,253.68h-1.29l-.93-2.48H97.14l-.88,2.48H95l3.45-9.05h1.26Zm-2.58-3.5-1.37-3.77a4.54,4.54,0,0,1-.14-.63h0a2.92,2.92,0,0,1-.15.63l-1.36,3.77Z"/><path class="cls-106" d="M109,245.67h-2.62v8h-1.18v-8h-2.6v-1H109Z"/><path class="cls-106" d="M116.57,247.73c-.15,1.15-.42,2.77-.83,4.85.4-.08.77-.17,1.11-.25,0,.3,0,.58,0,.83-.88.22-2.17.5-3.86.84l-.18-.88c.79-.13,1.5-.25,2.15-.38.38-2.34.64-4.06.77-5.16ZM113,246.06h4v.76h-4Zm.15,1.84.8-.18c.26,1.12.52,2.48.77,4.1l-.81.22A38.36,38.36,0,0,0,113.1,247.9Zm.81-3.74.72-.42a11.94,11.94,0,0,1,1.18,1.75L115,246A13.93,13.93,0,0,0,113.91,244.16Zm3,4h7.58v.76H121l-.32,1.28h3.29v3.88c0,.67-.3,1-.89,1h-.86a4,4,0,0,0-.23-.86q.39,0,.81,0a.32.32,0,0,0,.35-.36v-3H121.9v3.67h-.78v-3.67H120v3.6h-.79v-3.6H118v4.27h-.82v-5h2.61l.27-1.28H116.9Zm5.89-.76V247H117.5V244.4h.82v1.91h1.81v-2.64H121v2.64h1.81V244.4h.82v3Z"/><path class="cls-106" d="M126,244.92h9.3v9.84h-1v-1.14H127v1.14h-1Zm8.29,7.83v-7H127v7Z"/><path class="cls-106" d="M136.86,250.5h1.78c.17-.29.34-.6.5-.91l.84.27c-.12.22-.25.43-.37.64h2.87v.76a5.49,5.49,0,0,1-1.35,2l1.31.61-.51.81c-.49-.27-1-.55-1.51-.82a10.64,10.64,0,0,1-3.34,1.5c-.13-.25-.26-.53-.4-.82a9.68,9.68,0,0,0,2.89-1.11c-.67-.34-1.37-.7-2.1-1.05.24-.36.49-.73.72-1.11h-1.33Zm.12-4h2.7v-2.61h.87v2.61h2.24v.78h-2.24V248l.35-.4c.72.53,1.33,1,1.82,1.4l-.56.66c-.43-.41-1-.86-1.61-1.37v1.33h-.87V248a11.75,11.75,0,0,1-2.48,1.95q-.22-.34-.51-.72a12.6,12.6,0,0,0,2.71-1.93H137Zm.31-1.81.67-.45c.35.42.71.88,1.09,1.38l-.73.51C138,245.6,137.63,245.12,137.29,244.67Zm1.32,7.45,1.71.78a5.1,5.1,0,0,0,1.27-1.62h-2.44Zm3.66-8,.72.48c-.43.56-.86,1.08-1.29,1.55a7.78,7.78,0,0,0-.63-.49C141.48,245.22,141.88,244.71,142.27,244.16Zm2.13-.4.94.14a21.58,21.58,0,0,1-.58,2.12h3.59v.79h-.74a13,13,0,0,1-1.5,5.46,7.42,7.42,0,0,0,2.41,2.1c-.25.35-.46.65-.63.93a9.14,9.14,0,0,1-2.38-2.2,11.1,11.1,0,0,1-2.56,2.31,8.3,8.3,0,0,0-.67-.73,10.33,10.33,0,0,0,2.66-2.45,10.49,10.49,0,0,1-1.26-3.77,6.86,6.86,0,0,1-.51.8c-.16-.22-.35-.47-.59-.74A11.45,11.45,0,0,0,144.4,243.76Zm2.27,3.05h-2.19a2.55,2.55,0,0,1-.13.29,10.71,10.71,0,0,0,1.17,4.25A11.11,11.11,0,0,0,146.67,246.81Z"/></g></svg>