<svg xmlns="http://www.w3.org/2000/svg" xmlns:xlink="http://www.w3.org/1999/xlink" viewBox="0 0 171.02 202.65"><defs><style>.cls-1{fill:#fff;}.cls-2,.cls-3,.cls-4{fill:#3c3c41;}.cls-2{opacity:0.05;}.cls-2,.cls-4{isolation:isolate;}.cls-4{opacity:0.2;}.cls-5{fill:url(#Degradado_sin_nombre);}.cls-6{fill:#767676;}.cls-7{fill:#f2f2f2;}.cls-8{fill:url(#Degradado_sin_nombre_2);}.cls-9{fill:url(#Degradado_sin_nombre_3);}.cls-10{fill:url(#Degradado_sin_nombre_4);}.cls-11{fill:none;stroke:#3c3c41;stroke-miterlimit:10;}.cls-12{fill:url(#Degradado_sin_nombre_5);}.cls-13{fill:url(#Degradado_sin_nombre_6);}.cls-14{fill:url(#Degradado_sin_nombre_7);}.cls-15{fill:#50e6ff;}.cls-16{fill:#1490df;}.cls-17{fill:#6ebcdb;}.cls-18{fill:#5db4d7;}.cls-19{fill:#e6e6e6;}.cls-20{fill:#86d633;}.cls-21{fill:#1e1e1e;}</style><linearGradient id="Degradado_sin_nombre" x1="83.55" y1="-2014.2" x2="83.55" y2="-2001.41" gradientTransform="matrix(1, 0, 0, -1, 0, -1978.98)" gradientUnits="userSpaceOnUse"><stop offset="0" stop-color="#32bedd"/><stop offset="0.18" stop-color="#32caea"/><stop offset="0.41" stop-color="#32d2f2"/><stop offset="0.78" stop-color="#32d4f5"/></linearGradient><linearGradient id="Degradado_sin_nombre_2" x1="92.01" y1="-2020.48" x2="92.01" y2="-2007.69" xlink:href="#Degradado_sin_nombre"/><linearGradient id="Degradado_sin_nombre_3" x1="100.46" y1="-2026.76" x2="100.46" y2="-2013.96" xlink:href="#Degradado_sin_nombre"/><linearGradient id="Degradado_sin_nombre_4" x1="22.57" y1="299.48" x2="22.57" y2="278.9" gradientTransform="translate(0 -252.68)" xlink:href="#Degradado_sin_nombre"/><linearGradient id="Degradado_sin_nombre_5" x1="38.26" y1="428.03" x2="40.63" y2="430.4" gradientTransform="translate(2.9 -253.22)" gradientUnits="userSpaceOnUse"><stop offset="0" stop-color="#86d633"/><stop offset="0.24" stop-color="#83d232"/><stop offset="0.5" stop-color="#7cc52f"/><stop offset="0.76" stop-color="#6fb02a"/><stop offset="1" stop-color="#5e9624"/></linearGradient><linearGradient id="Degradado_sin_nombre_6" x1="32.91" y1="428.03" x2="35.27" y2="430.4" xlink:href="#Degradado_sin_nombre_5"/><linearGradient id="Degradado_sin_nombre_7" x1="27.56" y1="428.03" x2="29.92" y2="430.4" xlink:href="#Degradado_sin_nombre_5"/></defs><title>OJ104903208</title><g id="Target"><g id="Shapes"><rect class="cls-1" width="170.48" height="202.65"/><rect class="cls-1" x="15.52" y="120.49" width="155" height="55" rx="5"/><rect class="cls-2" x="15.52" y="120.49" width="155" height="55" rx="5"/><path class="cls-3" d="M164.37,176h-1v-1h1Zm-3,0h-1v-1h1Zm-3,0h-1v-1h1Zm-3,0h-1v-1h1Zm-3,0h-1v-1h1Zm-3,0h-1v-1h1Zm-3,0h-1v-1h1Zm-3,0h-1v-1h1Zm-3,0h-1v-1h1Zm-3,0h-1v-1h1Zm-3,0h-1v-1h1Zm-3,0h-1v-1h1Zm-3,0h-1v-1h1Zm-3,0h-1v-1h1Zm-3,0h-1v-1h1Zm-3,0h-1v-1h1Zm-3,0h-1v-1h1Zm-3,0h-1v-1h1Zm-3,0h-1v-1h1Zm-3,0h-1v-1h1Zm-3,0h-1v-1h1Zm-3,0h-1v-1h1Zm-3,0h-1v-1h1Zm-3,0h-1v-1h1Zm-3,0h-1v-1h1Zm-3,0h-1v-1h1Zm-3,0h-1v-1h1Zm-3,0h-1v-1h1Zm-3,0h-1v-1h1Zm-3,0h-1v-1h1Zm-3,0h-1v-1h1Zm-3,0h-1v-1h1Zm-3,0h-1v-1h1Zm-3,0h-1v-1h1Zm-3,0h-1v-1h1Zm-3,0h-1v-1h1Zm-3,0h-1v-1h1Zm-3,0h-1v-1h1Zm-33,0a5.75,5.75,0,0,1-1.09-.17l.26-1a3.76,3.76,0,0,0,.88.14Zm146.23-.07-.17-1a5.11,5.11,0,0,0,.87-.25l.36.94a5.19,5.19,0,0,1-1.16.29ZM17.17,174.84a5.16,5.16,0,0,1-.8-.75l.76-.66a4.77,4.77,0,0,0,.65.62Zm152.18-.41-.7-.71a4.24,4.24,0,0,0,.58-.69l.83.57a5.65,5.65,0,0,1-.71.83ZM15.29,172.19a5.61,5.61,0,0,1-.23-1.08l1-.11a5.31,5.31,0,0,0,.19.88Zm155.62-.61-1-.2a4.41,4.41,0,0,0,.09-.89l1-.06v.06a5,5,0,0,1-.09,1.09ZM16,169.06H15v-1h1Zm155-.63h-1v-1h1ZM16,166.05H15v-1h1Zm155-.62h-1v-1h1ZM16,163.05H15v-1h1Zm155-.63h-1v-1h1ZM16,160.05H15v-1h1Zm155-.63h-1v-1h1ZM16,157.05H15v-1h1Zm155-.63h-1v-1h1ZM16,154H15v-1h1Zm155-.62h-1v-1h1ZM16,151H15v-1h1Zm155-.63h-1v-1h1ZM16,148H15v-1h1Zm155-.63h-1v-1h1ZM16,145H15v-1h1Zm155-.63h-1v-1h1ZM16,142H15v-1h1Zm155-.62h-1v-1h1ZM16,139H15v-1h1Zm155-.63h-1v-1h1ZM16,136H15v-1h1Zm155-.63h-1v-1h1ZM16,133H15v-1h1Zm155-.63h-1v-1h1ZM16,130H15v-1h1Zm155-.62h-1v-1h1ZM16,127H15v-1h1Zm155-.63h-1v-.9l1-.11Zm-154.8-2.2-1-.3a5.2,5.2,0,0,1,.43-1l.88.48a4.17,4.17,0,0,0-.29.84Zm153.41-.53a3.77,3.77,0,0,0-.45-.78l.82-.58a4.83,4.83,0,0,1,.54,1ZM17.71,122l-.62-.78a5.2,5.2,0,0,1,.92-.6l.46.89A4.69,4.69,0,0,0,17.71,122Zm150.16-.32a4.6,4.6,0,0,0-.8-.4l.34-.93a4.6,4.6,0,0,1,1,.48ZM20.19,121l-.08-1h1v1h-1Zm145.08,0h-1v-1h1Zm-3,0h-1v-1h1Zm-3,0h-1v-1h1Zm-3,0h-1v-1h1Zm-3,0h-1v-1h1Zm-3,0h-1v-1h1Zm-3,0h-1v-1h1Zm-3,0h-1v-1h1Zm-3,0h-1v-1h1Zm-3,0h-1v-1h1Zm-3,0h-1v-1h1Zm-3,0h-1v-1h1Zm-3,0h-1v-1h1Zm-3,0h-1v-1h1Zm-3,0h-1v-1h1Zm-3,0h-1v-1h1Zm-3,0h-1v-1h1Zm-3,0h-1v-1h1Zm-3,0h-1v-1h1Zm-3,0h-1v-1h1Zm-3,0h-1v-1h1Zm-3,0h-1v-1h1Zm-3,0h-1v-1h1Zm-3,0h-1v-1h1Zm-3,0h-1v-1h1Zm-3,0h-1v-1h1Zm-3,0h-1v-1h1Zm-3,0h-1v-1h1Zm-3,0h-1v-1h1Zm-3,0h-1v-1h1Zm-3,0h-1v-1h1Zm-3,0h-1v-1h1Zm-3,0h-1v-1h1Zm-3,0h-1v-1h1Zm-3,0h-1v-1h1Zm-3,0h-1v-1h1Zm-3,0h-1v-1h1Zm-3,0h-1v-1h1Zm-3,0h-1v-1h1Zm-3,0h-1v-1h1Zm-3,0h-1v-1h1Zm-3,0h-1v-1h1Zm-3,0h-1v-1h1Zm-3,0h-1v-1h1Zm-3,0h-1v-1h1Zm-3,0h-1v-1h1Zm-3,0h-1v-1h1Zm-3,0h-1v-1h1Z"/><rect class="cls-1" x="25.22" y="130.51" width="65.69" height="30" rx="0.3"/><rect class="cls-4" x="25.22" y="130.51" width="65.69" height="30" rx="0.3"/><rect class="cls-1" x="95.59" y="130.51" width="65.69" height="30" rx="0.3"/><rect class="cls-4" x="95.59" y="130.51" width="65.69" height="30" rx="0.3"/><path class="cls-5" d="M72.72,22.43H94.39V34.52a.73.73,0,0,1-.73.72H73.45a.73.73,0,0,1-.73-.72h0Z"/><path class="cls-6" d="M73.45,17.8H93.66a.73.73,0,0,1,.73.73h0v3.9H72.72v-3.9A.73.73,0,0,1,73.45,17.8Z"/><rect class="cls-7" x="75.64" y="19.19" width="15.84" height="1.86" rx="0.36"/><path class="cls-8" d="M81.17,28.69h21.68V40.77a.73.73,0,0,1-.73.73H81.89a.72.72,0,0,1-.72-.72h0Z"/><path class="cls-6" d="M81.89,24.08H102.1a.73.73,0,0,1,.73.73h0v3.88H81.19V24.81A.72.72,0,0,1,81.89,24.08Z"/><rect class="cls-7" x="84.08" y="25.47" width="15.84" height="1.86" rx="0.36"/><path class="cls-9" d="M89.63,35h21.66V47.07a.72.72,0,0,1-.71.73H90.36a.73.73,0,0,1-.73-.73h0Z"/><path class="cls-6" d="M90.36,30.36h20.21a.72.72,0,0,1,.72.72h0V35H89.63V31.1a.73.73,0,0,1,.72-.74Z"/><circle class="cls-7" cx="105.34" cy="40.6" r="1.76"/><circle class="cls-7" cx="100.54" cy="40.6" r="1.76"/><circle class="cls-7" cx="95.59" cy="40.6" r="1.76"/><rect class="cls-7" x="92.54" y="31.75" width="15.84" height="1.86" rx="0.36"/><path class="cls-10" d="M5.14,26.22H40V45.63a1.17,1.17,0,0,1-1.17,1.17H6.31a1.17,1.17,0,0,1-1.17-1.17Z"/><path class="cls-6" d="M6.31,18.8H38.79A1.17,1.17,0,0,1,40,19.93v6.32H5.14V20a1.17,1.17,0,0,1,1.14-1.2Z"/><circle class="cls-7" cx="30.38" cy="35.23" r="2.83"/><circle class="cls-7" cx="22.67" cy="35.23" r="2.83"/><circle class="cls-7" cx="14.73" cy="35.23" r="2.83"/><rect class="cls-7" x="9.83" y="21.01" width="25.46" height="2.99" rx="0.57"/><line class="cls-11" x1="58.09" y1="130.51" x2="58.09" y2="107.89"/><polygon class="cls-3" points="61.83 108.99 58.09 102.51 54.35 108.99 61.83 108.99"/><path class="cls-11" d="M45.59,75.61H24.33a5,5,0,0,1-5-5V55.29"/><polygon class="cls-3" points="23.07 56.39 19.33 49.91 15.59 56.39 23.07 56.39"/><path class="cls-11" d="M97.34,55.29V70.61a5,5,0,0,1-5,5H69"/><polygon class="cls-3" points="93.6 56.39 97.34 49.91 101.08 56.39 93.6 56.39"/><circle class="cls-12" cx="42.11" cy="175.76" r="1.67"/><circle class="cls-13" cx="36.77" cy="175.78" r="1.67"/><circle class="cls-14" cx="31.43" cy="175.78" r="1.67"/><path class="cls-15" d="M32.64,182.47l-.95,1a.44.44,0,0,1-.62,0h0L24,176.36a.87.87,0,0,1,0-1.23h0l.95-1h0l7.71,7.69a.43.43,0,0,1,0,.61h0Z"/><path class="cls-16" d="M31.54,168.14l1,1a.44.44,0,0,1,0,.62L25,177.35h0l-1-1a.89.89,0,0,1,0-1.23h0l7-7A.43.43,0,0,1,31.54,168.14Z"/><path class="cls-15" d="M48.49,174.16l1,1a.87.87,0,0,1,0,1.23h0l-7.1,7.07a.43.43,0,0,1-.61,0h0l-1-1a.43.43,0,0,1,0-.61h0Z"/><path class="cls-16" d="M49.45,176.34l-1,.95h0l-7.58-7.59a.44.44,0,0,1,0-.62h0l1-1a.43.43,0,0,1,.61,0h0l7,7a.87.87,0,0,1,0,1.23h0Z"/><g id="ad94e297-0e86-4eaf-aac0-d146ee9aea65"><path class="cls-17" d="M54,92.24,49.31,87.4a2.56,2.56,0,0,1-.78.14,2.43,2.43,0,1,1,2.24-3.33h4.62v1.62H50.84a2.94,2.94,0,0,1-.26.57l4.33,4.46,2.34-3.57V76.11H54.1l4-4,3.94,4H58.87v8.74l5.93-9-6-6a1,1,0,0,0-1.41,0s0,0,0,0h0L42.88,84.28a1,1,0,0,0-.05,1.41l.05,0h0l14.48,14.47L52.19,95Z"/><path class="cls-18" d="M57.25,92.45V87.28l-2.34,3.58,1.72,1.84A1.76,1.76,0,0,1,57.25,92.45Z"/><path class="cls-18" d="M73.28,84.28,64.8,75.8l-5.93,9v7.61a1.91,1.91,0,0,1,.54.3l6.22-6.29a2.53,2.53,0,0,1-.31-.64H60.65V84.21h4.73a2.42,2.42,0,1,1,2.24,3.33,3,3,0,0,1-.67-.11L60.34,94.1a2.59,2.59,0,0,1,.1.62,2.43,2.43,0,1,1-4.84.44,2.18,2.18,0,0,1,0-.25,2.29,2.29,0,0,1,.13-.9L54,92.29l-1.85,2.76,5.17,5.17a1,1,0,0,0,1.41,0l0,0L73.24,85.74a1,1,0,0,0,.05-1.41s0,0-.05,0Z"/><path class="cls-19" d="M65.38,84.21H60.65v1.62h4.67a2.22,2.22,0,0,1-.12-.72A2.3,2.3,0,0,1,65.38,84.21Z"/><path class="cls-19" d="M50.84,85.83h4.55V84.21H50.77a2.14,2.14,0,0,1,.19.9A2.22,2.22,0,0,1,50.84,85.83Z"/><path class="cls-19" d="M60.34,94.1,67,87.43a2.44,2.44,0,0,1-1.32-1l-6.22,6.29A2.31,2.31,0,0,1,60.34,94.1Z"/><path class="cls-19" d="M56.68,92.7,55,90.86,50.58,86.4a2.42,2.42,0,0,1-1.27,1L54,92.24,55.72,94A2.41,2.41,0,0,1,56.68,92.7Z"/><path class="cls-1" d="M62,76.11l-3.93-4-4,4h3.15V92.45a1.71,1.71,0,0,0-.57.25,2.41,2.41,0,1,0,3.62,2.71,2.68,2.68,0,0,0,.1-.69,2.59,2.59,0,0,0-.1-.62,2.32,2.32,0,0,0-.93-1.34,1.91,1.91,0,0,0-.54-.3V76.11Zm-3.93,20a1.34,1.34,0,1,1,1.34-1.34h0a1.33,1.33,0,0,1-1.33,1.29Z"/><path class="cls-1" d="M50.58,86.4a2.94,2.94,0,0,0,.26-.57,2.22,2.22,0,0,0,.12-.72,2.14,2.14,0,0,0-.19-.9,2.41,2.41,0,1,0-2.24,3.33,2.56,2.56,0,0,0,.78-.14A2.42,2.42,0,0,0,50.58,86.4Zm-2,0a1.35,1.35,0,1,1,1.35-1.35h0a1.34,1.34,0,0,1-1.28,1.4h-.07Z"/><path class="cls-1" d="M67,87.43a3,3,0,0,0,.67.11,2.43,2.43,0,1,0-2.24-3.33,2.3,2.3,0,0,0-.18.9,2.22,2.22,0,0,0,.12.72,2.53,2.53,0,0,0,.31.64A2.46,2.46,0,0,0,67,87.43Zm.67-3.65a1.33,1.33,0,1,1-.33,0h0a1,1,0,0,1,.25,0Z"/><path class="cls-20" d="M58.08,93.38a1.34,1.34,0,1,0,1.34,1.34h0A1.34,1.34,0,0,0,58.08,93.38Z"/><circle class="cls-20" cx="48.53" cy="85.11" r="1.34"/><path class="cls-20" d="M67.62,86.45a1.35,1.35,0,1,0-1.34-1.36v0h0A1.34,1.34,0,0,0,67.62,86.45Z"/></g></g></g><g id="Text"><path class="cls-21" d="M40.63,144.1h5.58v-1.34l3.44-2.54H41.89v-.91h9.36v.95l-4,3v.87h5.25V145H47.23v3.82a1.46,1.46,0,0,1-1.68,1.63l-1.9,0c0-.33-.08-.7-.14-1.11a17.79,17.79,0,0,0,1.85.12.76.76,0,0,0,.85-.87V145H40.63Z"/><path class="cls-21" d="M54.7,141.87l.71-.37c.48.76,1,1.54,1.42,2.34a25,25,0,0,0,1-2.53l.82.31a32.42,32.42,0,0,1-1.31,3.1c.46.79.92,1.61,1.37,2.44l-.82.43c-.33-.64-.67-1.28-1-1.93a25.45,25.45,0,0,1-1.59,2.65l-.72-.42v2.53h-.9v-11.1H63.88v9.74c0,.87-.46,1.3-1.38,1.3l-1.84,0c0-.26-.09-.58-.16-1q1,.09,1.71.09c.51,0,.77-.23.77-.67V140.2H54.56v7.64a32,32,0,0,0,1.82-3.07C55.84,143.81,55.29,142.85,54.7,141.87Zm4,.59.69-.42c.4.66.82,1.35,1.24,2.09a25.31,25.31,0,0,0,1.17-2.74l.82.31c-.45,1.16-.95,2.26-1.48,3.31.5.87,1,1.8,1.56,2.78l-.8.46c-.4-.77-.82-1.55-1.25-2.33a28.25,28.25,0,0,1-1.58,2.56l-.73-.47c.68-1,1.29-2,1.82-3C59.69,144.18,59.2,143.32,58.7,142.46Z"/><path class="cls-21" d="M71.9,149v-8a3.66,3.66,0,0,1-.93.63,5.41,5.41,0,0,1-1.21.48v-1.16a8,8,0,0,0,1.57-.66,7.18,7.18,0,0,0,1.29-.85h.45V149Z"/><path class="cls-21" d="M26.1,190.6v2.91q0,3.88-1.56,5.73l-.68-.78a7.48,7.48,0,0,0,1.3-4.79v-3.89h4v-2.52h1v1H35v.8H30.15v.77h5.48l-.09,2c-.31,0-.61,0-.91,0l.08-1.11ZM25.87,198H29v-3.58h.94V198H31.4v-3.6h.94V198h3.37v.82H25.87Zm.54-6.26,2.63-.16v-.81h.89v.76l3.6-.21,0,.78-3.64.22v.31q0,.54.72.54h2.41q.81,0,.93-.57a6,6,0,0,0,.15-.86c.26.11.55.22.86.33q-.11.54-.21.9c-.17.67-.7,1-1.6,1H30.48c-1,0-1.44-.43-1.44-1.28v-.33l-2.58.15Zm0,3.44.72-.46q.72.93,1.41,2l-.81.52Q27.07,196.14,26.42,195.21Zm6.29,1.49a15.91,15.91,0,0,0,1.44-2l.82.49c-.52.76-1,1.46-1.55,2.09Z"/><path class="cls-21" d="M36.31,193.77c.48-.13,1-.28,1.62-.47v-2.74H36.44v-.82h1.49V187.4h.91v2.34h1.41v.82H38.84V193l1.45-.49c0,.4,0,.71,0,.94l-1.43.48v3.89c0,.81-.35,1.23-1,1.27H36.6c0-.3-.09-.64-.16-1a7.83,7.83,0,0,0,1,.07c.35,0,.52-.18.52-.55v-3.37l-1.49.53Zm7.21.22a5.29,5.29,0,0,0,.31.95c-.71.66-1.45,1.35-2.2,2.09a5.22,5.22,0,0,0-.56.69l-.62-.8a1.65,1.65,0,0,0,.37-1.12v-7.48h.91v7.4C42.18,195.32,42.78,194.75,43.52,194Zm2.23-6.48h.91c0,1.39,0,2.6-.06,3.64a15.23,15.23,0,0,1-.62,4.46c.87,1,1.64,1.93,2.32,2.79l-.81.67c-.61-.87-1.26-1.72-1.93-2.57a8.17,8.17,0,0,1-2.93,2.84,6.09,6.09,0,0,0-.66-.77,6.91,6.91,0,0,0,3.1-3.23,12.7,12.7,0,0,0,.61-4.2C45.71,189.92,45.74,188.71,45.75,187.51Zm-3.43.13.78-.4c.6,1.09,1.12,2.08,1.55,3l-.84.47C43.26,189.5,42.77,188.48,42.32,187.64Z"/><path class="cls-21" d="M50.56,190.57l.71-.38c.48.77.95,1.55,1.42,2.35a25.14,25.14,0,0,0,1-2.53l.81.3a30.23,30.23,0,0,1-1.31,3.11c.46.79.92,1.6,1.37,2.43l-.81.44-1-1.93A26.54,26.54,0,0,1,51.14,197l-.72-.42v2.53h-.9V188H59.74v9.74c0,.86-.46,1.3-1.38,1.3l-1.83,0c0-.26-.1-.57-.17-.94.67,0,1.24.08,1.72.08s.76-.22.76-.67v-8.61H50.42v7.64a29.77,29.77,0,0,0,1.82-3.07C51.71,192.51,51.15,191.54,50.56,190.57Zm4,.58.7-.41c.4.65.81,1.35,1.24,2.08a25.31,25.31,0,0,0,1.17-2.74l.81.32A35.46,35.46,0,0,1,57,193.7c.51.88,1,1.8,1.57,2.78l-.81.46c-.4-.76-.81-1.54-1.24-2.33-.5.9-1,1.76-1.59,2.57l-.73-.48a32.6,32.6,0,0,0,1.82-3C55.56,192.88,55.07,192,54.56,191.15Z"/><path class="cls-21" d="M62.58,194.5c.83-.08,1.62-.17,2.36-.28,0,.37-.06.64-.08.83-1.42.18-2.53.33-3.34.45l-.19-.89a9.84,9.84,0,0,0,1.93-2.68l-1.86.14-.24-.8a20.8,20.8,0,0,0,2-3.92l.93.34a35.29,35.29,0,0,1-1.87,3.51l1.5,0c.29-.54.6-1.13.94-1.79l.88.39C64.54,191.5,63.57,193.08,62.58,194.5Zm-1.42,2.85c1.33-.26,2.71-.56,4.15-.9,0,.39,0,.69,0,.92q-1.92.44-3.84.93Zm4-6a16.77,16.77,0,0,0,2.2-4.13l.9.3c-.15.37-.32.73-.48,1.08h4.29v.86a10.51,10.51,0,0,1-2.21,2.68A12.72,12.72,0,0,0,73,193.43a8.87,8.87,0,0,0-.48,1,12.77,12.77,0,0,1-3.4-1.75,16.41,16.41,0,0,1-3.57,1.89c-.17-.27-.36-.55-.58-.85a15,15,0,0,0,3.41-1.67,7.22,7.22,0,0,1-1.43-1.87A17.78,17.78,0,0,1,65.78,192,8.64,8.64,0,0,0,65.16,191.35Zm.92,3.21H72v4.73h-.93v-.61H67v.61h-.92Zm5,.88H67v2.37h4.08Zm-.11-6H67.41a7.46,7.46,0,0,0,1.66,2.14A8.53,8.53,0,0,0,71,189.43Z"/><path class="cls-21" d="M54.72,65.3H53.34l-4.55-7.17a4.31,4.31,0,0,1-.31-.6h0a9,9,0,0,1,.05,1.29V65.3H47.33V56.08H48.8l4.43,7.05a6.47,6.47,0,0,1,.37.63h0a10.18,10.18,0,0,1-.06-1.34V56.08h1.15Z"/><path class="cls-21" d="M64.23,65.3H62.94L62,62.78H58.25l-.87,2.52H56.09l3.44-9.22h1.25Zm-2.58-3.57L60.29,57.9a3.58,3.58,0,0,1-.14-.64h0a3.82,3.82,0,0,1-.15.64l-1.35,3.83Z"/><path class="cls-21" d="M70.14,57.14H67.53V65.3H66.35V57.14h-2.6V56.08h6.39Z"/><path class="cls-21" d="M3.56,6.36A13.92,13.92,0,0,0,7.45,1.25l.92.39A16.24,16.24,0,0,1,4.31,7.12,5.36,5.36,0,0,0,3.56,6.36Zm7.6,1.47c1.13,1.49,2.07,2.84,2.84,4.05l-.88.6c-.22-.37-.45-.75-.7-1.14q-3.86.2-6.27.39a8.72,8.72,0,0,0-1.07.2l-.52-1a2.79,2.79,0,0,0,1-.66,25.15,25.15,0,0,0,3-4.75L9.5,6a45,45,0,0,1-3.09,4.74c1.61-.05,3.43-.13,5.46-.22-.44-.69-.93-1.41-1.47-2.18Zm-1-6.4L11,1.08A9.37,9.37,0,0,0,15.24,6a9,9,0,0,0-.72.93A11.24,11.24,0,0,1,10.16,1.43Z"/><path class="cls-21" d="M19.53,8.86l.72.76a44.08,44.08,0,0,1-4,2.67,9.32,9.32,0,0,0-.62-.82A26.88,26.88,0,0,0,19.53,8.86ZM15.62,7.35h3V4.06H16.08v-.9h2.55V.87h1V3.16h3.54V.86h1v2.3h2.55v.9H24.09V7.35h3v.9H15.62Zm4,0h3.54V4.06H19.59Zm2.79,2.33.6-.75c1.34.81,2.62,1.65,3.86,2.51l-.67.87C24.94,11.37,23.67,10.49,22.38,9.68Z"/><path class="cls-21" d="M33.22,1.64v9.23H32.05V1.64Z"/><path class="cls-21" d="M36.74,7.42v3.45H35.57V1.64h2.57a3.32,3.32,0,0,1,2.28.72,2.62,2.62,0,0,1,.81,2.06,2.8,2.8,0,0,1-.95,2.2,3.27,3.27,0,0,1-2.37.8Zm0-4.73V6.37h1.08a2.36,2.36,0,0,0,1.62-.49A1.79,1.79,0,0,0,40,4.47c0-1.19-.69-1.78-2.07-1.78Z"/><path class="cls-21" d="M75.19,1.64v9.23H74V1.64Z"/><path class="cls-21" d="M78.71,7.42v3.45H77.54V1.64h2.57a3.29,3.29,0,0,1,2.27.72,2.62,2.62,0,0,1,.81,2.06,2.79,2.79,0,0,1-.94,2.2,3.27,3.27,0,0,1-2.37.8Zm0-4.73V6.37h1.08a2.36,2.36,0,0,0,1.62-.49A1.79,1.79,0,0,0,82,4.47c0-1.19-.69-1.78-2.07-1.78Z"/><path class="cls-21" d="M87.51,2.54h3.77a10.74,10.74,0,0,0-1-1.35L91,.68a17.73,17.73,0,0,1,1.17,1.46l-.58.4h3.19l-.46-.27A10.09,10.09,0,0,0,95.43.65l.89.53c-.36.5-.72,1-1.08,1.36h3.7v.83H87.51Zm1.66,9.93h-.89V4.54H93.4v6.65a1,1,0,0,1-1.18,1.15l-1.35,0a7.62,7.62,0,0,0-.17-.88q.7.06,1.32.06c.33,0,.49-.15.49-.49V9.49H89.17Zm3.34-7.12H89.17V6.62h3.34ZM89.17,8.69h3.34V7.42H89.17Zm5.62-4h.89v5.36h-.89Zm2.41-.57h.91v6.65c0,1-.46,1.47-1.36,1.48-.41,0-.93,0-1.54,0,0-.33-.09-.66-.16-1a14,14,0,0,0,1.4.09.67.67,0,0,0,.75-.77Z"/><path class="cls-21" d="M99.33,10.19c1-.13,2.15-.31,3.5-.52a6,6,0,0,0-.08.75c-1.36.28-2.43.5-3.21.68Zm1.38-2.44c.37,0,1-.07,2-.17l-.09.78q-2.3.2-2.91.3l-.16-.75a12.1,12.1,0,0,0,1.55-2.43c-.6,0-1.12.09-1.55.13l-.23-.75a23.65,23.65,0,0,0,2-4.1l.91.34q-1,2.13-1.89,3.69l1.14,0,.65-1.34.84.38C102,5.64,101.22,7,100.71,7.75Zm2.19.78.52-.53c.43.35.86.72,1.27,1.09a8.66,8.66,0,0,0,.71-1.71h-2.46v-.8h3.27v.79a9.25,9.25,0,0,1-.89,2.29c.38.35.75.7,1.12,1.07l-.63.63c-.31-.33-.63-.65-.94-1a8.74,8.74,0,0,1-2.12,2.08,7.69,7.69,0,0,0-.62-.66,8.05,8.05,0,0,0,2.12-2C103.81,9.36,103.36,8.94,102.9,8.53ZM103,3.17l.52-.51c.45.37.87.74,1.27,1.11a5.41,5.41,0,0,0,.79-1.64H103v-.8h3.46v.78a7,7,0,0,1-1,2.21c.37.35.73.7,1.06,1l-.62.62c-.27-.32-.59-.66-.95-1a7.62,7.62,0,0,1-1.78,1.42,7.14,7.14,0,0,0-.53-.68,7.15,7.15,0,0,0,1.73-1.31C103.93,4,103.5,3.6,103,3.17Zm3.5,4.24v-.8h3.93v.78a7.72,7.72,0,0,1-1.4,2.91A6.29,6.29,0,0,0,111,11.57c-.21.31-.39.58-.53.84a7.24,7.24,0,0,1-2-1.45,8.48,8.48,0,0,1-2.17,1.54c-.17-.24-.36-.47-.56-.71a7.93,7.93,0,0,0,2.17-1.49,7.11,7.11,0,0,1-1.17-2.89Zm.11-4.23.51-.55c.53.41,1,.82,1.56,1.24a5.81,5.81,0,0,0,.92-1.74h-2.77v-.8h3.65v.73a7.07,7.07,0,0,1-1.16,2.33c.48.4,1,.81,1.42,1.23l-.64.67c-.42-.42-.86-.84-1.32-1.27A8.29,8.29,0,0,1,107,6.45a4.76,4.76,0,0,0-.52-.71,7,7,0,0,0,1.74-1.27C107.69,4,107.18,3.61,106.64,3.18Zm3,4.23h-2.06a5.77,5.77,0,0,0,1,2.23A6.13,6.13,0,0,0,109.6,7.41Z"/><path class="cls-21" d="M111,144.1h5.58v-1.34l3.44-2.54h-7.76v-.91h9.36v.95l-4,3v.87h5.25V145h-5.25v3.82a1.46,1.46,0,0,1-1.68,1.63l-1.9,0c0-.33-.08-.7-.14-1.11a17.79,17.79,0,0,0,1.85.12.76.76,0,0,0,.85-.87V145H111Z"/><path class="cls-21" d="M125.05,141.87l.71-.37c.47.76.95,1.54,1.42,2.34a25,25,0,0,0,1-2.53l.82.31a32.42,32.42,0,0,1-1.31,3.1c.46.79.92,1.61,1.37,2.44l-.82.43c-.33-.64-.67-1.28-1-1.93a29.48,29.48,0,0,1-1.59,2.65l-.72-.42v2.53H124v-11.1h10.22v9.74c0,.87-.46,1.3-1.38,1.3l-1.84,0c0-.26-.09-.58-.16-1q1,.09,1.71.09c.51,0,.77-.23.77-.67V140.2h-8.42v7.64a31.91,31.91,0,0,0,1.81-3.07C126.19,143.81,125.63,142.85,125.05,141.87Zm4,.59.69-.42c.4.66.82,1.35,1.24,2.09a25.31,25.31,0,0,0,1.17-2.74l.82.31c-.45,1.16-.95,2.26-1.48,3.31.5.87,1,1.8,1.56,2.78l-.8.46c-.4-.77-.82-1.55-1.25-2.33a28.25,28.25,0,0,1-1.58,2.56l-.73-.47c.68-1,1.29-2,1.82-3C130,144.18,129.55,143.32,129.05,142.46Z"/><path class="cls-21" d="M144,142a1.57,1.57,0,0,0-.47-1.2,1.85,1.85,0,0,0-1.29-.43,2.58,2.58,0,0,0-1.17.3,3.89,3.89,0,0,0-1.09.85v-1.16a3.18,3.18,0,0,1,1-.73,3.37,3.37,0,0,1,1.36-.26,2.94,2.94,0,0,1,2,.69,2.35,2.35,0,0,1,.77,1.85,3.26,3.26,0,0,1-.48,1.79,5.59,5.59,0,0,1-1.61,1.56c-.77.54-1.29.93-1.55,1.16a2.13,2.13,0,0,0-.55.68,1.67,1.67,0,0,0-.16.78h4.62V149h-5.84v-.47a3.77,3.77,0,0,1,.22-1.38,3.29,3.29,0,0,1,.72-1.11,12.14,12.14,0,0,1,1.57-1.29,6,6,0,0,0,1.49-1.36A2.27,2.27,0,0,0,144,142Z"/></g></svg>