<svg xmlns="http://www.w3.org/2000/svg" xmlns:xlink="http://www.w3.org/1999/xlink" viewBox="0 0 299.16 285.86"><defs><style>.cls-1{fill:#fff;}.cls-2{fill:#ccc;fill-opacity:0.3;}.cls-22,.cls-23,.cls-25,.cls-3,.cls-4,.cls-8{fill:none;stroke-miterlimit:10;}.cls-22,.cls-3,.cls-4{stroke:#3c3c41;}.cls-4{stroke-dasharray:1.31 2.19;}.cls-5,.cls-6,.cls-7{fill:#3c3c41;}.cls-6{opacity:0.2;}.cls-33,.cls-34,.cls-6,.cls-7,.cls-8{isolation:isolate;}.cls-7{opacity:0.02;}.cls-23,.cls-25,.cls-8{stroke:#365615;}.cls-8{stroke-width:0.5px;opacity:0.5;}.cls-9{fill:url(#Degradado_sin_nombre);}.cls-10{fill:#50e6ff;}.cls-11{fill:#c3f1ff;}.cls-12{fill:#9cebff;}.cls-13{fill:url(#Degradado_sin_nombre_2);}.cls-14{fill:url(#Degradado_sin_nombre_3);}.cls-15{fill:url(#Degradado_sin_nombre_4);}.cls-16{fill:#005ba1;}.cls-17{fill:#0078d4;}.cls-18{fill:url(#Degradado_sin_nombre_5);}.cls-19{fill:url(#Degradado_sin_nombre_6);}.cls-20{fill:url(#Degradado_sin_nombre_7);}.cls-21{fill:url(#Degradado_sin_nombre_8);}.cls-22,.cls-25{stroke-dasharray:1.46 2.43;}.cls-24{fill:#365615;}.cls-26{fill:url(#Degradado_sin_nombre_9);}.cls-27{fill:url(#Degradado_sin_nombre_10);}.cls-28{fill:url(#Degradado_sin_nombre_11);}.cls-29{fill:#1490df;}.cls-30{fill:url(#Degradado_sin_nombre_12);}.cls-31{fill:#b4ec36;}.cls-32{fill:#5ea0ef;}.cls-33{fill:#9bf00b;}.cls-33,.cls-34{opacity:0.4;}.cls-34,.cls-35{fill:#6ebcdb;}.cls-36{fill:#5db4d7;}.cls-37{fill:#e6e6e6;}.cls-38{fill:#86d633;}.cls-39{fill:#1e1e1e;}</style><linearGradient id="Degradado_sin_nombre" x1="99.67" y1="476.24" x2="99.67" y2="457.48" gradientTransform="translate(0 -322.62)" gradientUnits="userSpaceOnUse"><stop offset="0" stop-color="#0078d4"/><stop offset="0.82" stop-color="#5ea0ef"/></linearGradient><linearGradient id="Degradado_sin_nombre_2" x1="99.67" y1="483.48" x2="99.67" y2="476.24" gradientTransform="translate(0 -322.62)" gradientUnits="userSpaceOnUse"><stop offset="0.15" stop-color="#ccc"/><stop offset="1" stop-color="#707070"/></linearGradient><linearGradient id="Degradado_sin_nombre_3" x1="140.38" y1="476.24" x2="140.38" y2="457.48" xlink:href="#Degradado_sin_nombre"/><linearGradient id="Degradado_sin_nombre_4" x1="140.36" y1="483.48" x2="140.36" y2="476.24" xlink:href="#Degradado_sin_nombre_2"/><linearGradient id="Degradado_sin_nombre_5" x1="267.03" y1="464.26" x2="267.03" y2="453.92" xlink:href="#Degradado_sin_nombre"/><linearGradient id="Degradado_sin_nombre_6" x1="267.07" y1="468.25" x2="267.07" y2="464.26" xlink:href="#Degradado_sin_nombre_2"/><linearGradient id="Degradado_sin_nombre_7" x1="219.33" y1="464.24" x2="219.33" y2="445.48" xlink:href="#Degradado_sin_nombre"/><linearGradient id="Degradado_sin_nombre_8" x1="219.35" y1="471.48" x2="219.35" y2="464.24" xlink:href="#Degradado_sin_nombre_2"/><linearGradient id="Degradado_sin_nombre_9" x1="71.05" y1="523.53" x2="73.42" y2="525.9" gradientTransform="translate(2.85 -323.95)" gradientUnits="userSpaceOnUse"><stop offset="0" stop-color="#86d633"/><stop offset="0.24" stop-color="#83d232"/><stop offset="0.5" stop-color="#7cc52f"/><stop offset="0.76" stop-color="#6fb02a"/><stop offset="1" stop-color="#5e9624"/></linearGradient><linearGradient id="Degradado_sin_nombre_10" x1="65.71" y1="523.53" x2="68.06" y2="525.9" xlink:href="#Degradado_sin_nombre_9"/><linearGradient id="Degradado_sin_nombre_11" x1="60.36" y1="523.53" x2="62.72" y2="525.9" xlink:href="#Degradado_sin_nombre_9"/><linearGradient id="Degradado_sin_nombre_12" x1="86.49" y1="388.4" x2="86.49" y2="352.46" gradientTransform="translate(0 -322.62)" gradientUnits="userSpaceOnUse"><stop offset="0" stop-color="#5e9624"/><stop offset="0.02" stop-color="#5f9724"/><stop offset="1" stop-color="#76bc2d"/></linearGradient></defs><title>OJ104903209</title><g id="Target"><g id="Shapes"><rect class="cls-1" width="299.16" height="285.86"/><rect class="cls-2" x="143.16" y="210.86" width="155" height="35"/><rect class="cls-2" x="143.16" y="250.86" width="155" height="35"/><line class="cls-3" x1="158.86" y1="260.86" x2="158.11" y2="260.86"/><line class="cls-4" x1="155.92" y1="260.86" x2="150.01" y2="260.86"/><line class="cls-3" x1="148.91" y1="260.86" x2="148.16" y2="260.86"/><polygon class="cls-5" points="157.98 257.86 163.16 260.86 157.98 263.85 157.98 257.86"/><path class="cls-5" d="M292.5,200.86h-1v-1h1Zm-3,0h-1v-1h1Zm-3,0h-1v-1h1Zm-3,0h-1v-1h1Zm-3,0h-1v-1h1Zm-3,0h-1v-1h1Zm-3,0h-1v-1h1Zm-3,0h-1v-1h1Zm-3,0h-1v-1h1Zm-3,0h-1v-1h1Zm-3,0h-1v-1h1Zm-3,0h-1v-1h1Zm-3,0h-1v-1h1Zm-3,0h-1v-1h1Zm-3,0h-1v-1h1Zm-3,0h-1v-1h1Zm-3,0h-1v-1h1Zm-3,0h-1v-1h1Zm-3,0h-1v-1h1Zm-3,0h-1v-1h1Zm-3,0h-1v-1h1Zm-3,0h-1v-1h1Zm-3,0h-1v-1h1Zm-3,0h-1v-1h1Zm-3,0h-1v-1h1Zm-3,0h-1v-1h1Zm-3,0h-1v-1h1Zm-3,0h-1v-1h1Zm-3,0h-1v-1h1Zm-3,0h-1v-1h1Zm-3,0h-1v-1h1Zm-3,0h-1v-1h1Zm-3,0h-1v-1h1Zm-3,0h-1v-1h1Zm-3,0h-1v-1h1Zm-3,0h-1v-1h1Zm-3,0h-1v-1h1Zm-3,0h-1v-1h1Zm-3,0h-1v-1h1Zm-3,0h-1v-1h1Zm-3,0h-1v-1h1Zm-3,0h-1v-1h1Zm-3,0h-1v-1h1Zm-3,0h-1v-1h1Zm-3,0h-1v-1h1Zm-3,0h-1v-1h1Zm-3,0h-1v-1h1Zm-3,0h-1v-1h1Zm-3,0h-1v-1h1Zm-3,0h-1v-1h1Zm-3,0h-1v-1h1Zm-3,0h-1v-1h1Zm-3,0h-1v-1h1Zm-3,0h-1v-1h1Zm-3,0h-1v-1h1Zm-3,0h-1v-1h1Zm-3,0h-1v-1h1Zm-3,0h-1v-1h1Zm-3,0h-1v-1h1Zm-3,0h-1v-1h1Zm-3,0h-1v-1h1Zm-3,0h-1v-1h1Zm-3,0h-1v-1h1Zm-3,0h-1v-1h1Zm-3,0h-1v-1h1Zm-3,0h-1v-1h1Zm-3,0h-1v-1h1Zm-3,0h-1v-1h1Zm-3,0h-1v-1h1Zm-3,0h-1v-1h1Zm-30,0h-1v-1h1Zm239.48-.08-.16-1a4.4,4.4,0,0,0,.86-.24l.37.93a4.94,4.94,0,0,1-1.42.31ZM52,200.59a6,6,0,0,1-1-.45l.49-.87a4.09,4.09,0,0,0,.83.36Zm245.52-1.29-.7-.72a5.35,5.35,0,0,0,.58-.68l.83.56a6.54,6.54,0,0,1-.74.84Zm-248.18-.59a5.06,5.06,0,0,1-.58-.94l.89-.44a5.41,5.41,0,0,0,.48.76Zm249.74-2.26-1-.2a4.41,4.41,0,0,0,.09-.89l1-.06v.06a5,5,0,0,1-.12,1.09Zm-250.88-.8v-1h1v1Zm251-2.36h-1v-1h1Zm-250-.67h-1v-1h1Zm250-2.33h-1v-1h1Zm-250-.67h-1v-1h1Zm250-2.34h-1v-1h1Zm-250-.67h-1v-1h1Zm250-2.33h-1v-1h1Zm-250-.67h-1v-1h1Zm250-2.34h-1v-1h1Zm-250-.67h-1v-1h1Zm250-2.33h-1v-1h1Zm-250-.67h-1v-1h1Zm250-2.34h-1v-1h1Zm-250-.67h-1v-1h1Zm250-2.33h-1v-1h1Zm-250-.67h-1v-1h1Zm250-2.34h-1v-1h1Zm-250-.67h-1v-1h1Zm250-2.33h-1v-1h1Zm-250-.67h-1v-1h1Zm250-2.34h-1v-1h1Zm-250-.67h-1v-1h1Zm250-2.33h-1v-1h1Zm-250-.67h-1v-1h1Zm250-2.34h-1v-1h1Zm-250-.67h-1v-1h1Zm250-2.33h-1v-1h1Zm-250-.67h-1v-1h1Zm250-2.34h-1v-1h1Zm-250-.67h-1v-1h1Zm250-2.33h-1v-1h1Zm-250-.67h-1v-1h1Zm250-2.34h-1v-1h1Zm-250-.67h-1v-1h1Zm250-2.33h-1v-1h1Zm-250-.67h-1v-1h1Zm250-2.34h-1v-1h1Zm-250-.67h-1v-1h1Zm250-2.33h-1v-1h1Zm-250-.67h-1v-1h1Zm250-2.34h-1v-1h1Zm-250-.67h-1v-1h1Zm250-2.33h-1v-1h1Zm-250-.67h-1v-1h1Zm250-2.34h-1v-1h1Zm-250-.67h-1v-1h1Zm250-2.33h-1v-1h1Zm-250-.67h-1v-1h1Zm250-2.34h-1v-1h1Zm-250-.67h-1v-1h1Zm250-2.33h-1v-1h1Zm-250-.67h-1v-1h1Zm250-2.34h-1v-1h1Zm-250-.67h-1v-1h1Zm250-2.33h-1v-1h1Zm-250-.67h-1v-1h1Zm250-2.34h-1v-1h1Zm-250-.67h-1v-1h1Zm250-2.33h-1v-1h1Zm-250-.67h-1v-1h1Zm250-2.34h-1v-1h1Zm-250-.67h-1v-1h1Zm250-2.33h-1v-1h1Zm-250-.67h-1v-1h1Zm250-2.34h-1v-1h1Zm-250-.67h-1v-1h1Zm250-2.33h-1v-1h1Zm-250-.67h-1v-1h1Zm250-2.34h-1v-1h1Zm-250-.67h-1v-1h1Zm250-2.33h-1v-1h1Zm-250-.67h-1v-1h1Zm250-2.34h-1v-1h1Zm-250-.67h-1v-1h1Zm250-2.33h-1v-1h1Zm-250-.68h-1v-1h1Zm250-2.33h-1v-1h1Zm-250-.67h-1v-1h1Zm250-2.33h-1v-1h1Zm-250-.67h-1v-1h1Zm250-2.34h-1v-1h1Zm-250-.67h-1v-1h1Zm250-2.33h-1v-1h1Zm-250-.68h-1v-1h1Zm250-2.33h-1v-1h1Zm-250-.67h-1v-1h1Zm250-2.33h-1v-1h1Zm-250-.68h-1v-1h1Zm250-2.33h-1v-1h1Zm-250-.67h-1v-1h1Zm250-2.33h-1v-1h1Zm-250-.68h-1v-1h1Zm250-2.33h-1v-1h1Zm-250-.67h-1v-1h1Zm250-2.34h-1v-1l1-.06v1.06Zm-251-.67h0a5.47,5.47,0,0,1,.11-1.07l1,.2a4.28,4.28,0,0,0-.09.87Zm249.53-2a3.75,3.75,0,0,0-.48-.76L298,48a5.62,5.62,0,0,1,.59.93ZM49.94,48.84l-.83-.57a6.31,6.31,0,0,1,.71-.84l.7.72A4.24,4.24,0,0,0,49.94,48.84Zm245.91-1.41a4,4,0,0,0-.82-.36l.3-1a5.2,5.2,0,0,1,1,.43ZM52,47.17l-.37-.93a4.92,4.92,0,0,1,1.06-.3l.18,1A4.29,4.29,0,0,0,52,47.17Zm241.18-.31h-1v-1h1Zm-3,0h-1v-1h1Zm-3,0h-1v-1h1Zm-3,0h-1v-1h1Zm-3,0h-1v-1h1Zm-3,0h-1v-1h1Zm-3,0h-1v-1h1Zm-3,0h-1v-1h1Zm-3,0h-1v-1h1Zm-3,0h-1v-1h1Zm-3,0h-1v-1h1Zm-3,0h-1v-1h1Zm-3,0h-1v-1h1Zm-3,0h-1v-1h1Zm-3,0h-1v-1h1Zm-3,0h-1v-1h1Zm-3,0h-1v-1h1Zm-3,0h-1v-1h1Zm-3,0h-1v-1h1Zm-3,0h-1v-1h1Zm-27,0h-1v-1h1Zm-3,0h-1v-1h1Zm-3,0h-1v-1h1Zm-3,0h-1v-1h1Zm-3,0h-1v-1h1Zm-3,0h-1v-1h1Zm-3,0h-1v-1h1Zm-3,0h-1v-1h1Zm-3,0h-1v-1h1Zm-3,0h-1v-1h1Zm-3,0h-1v-1h1Zm-3,0h-1v-1h1Zm-3,0h-1v-1h1Zm-3,0h-1v-1h1Zm-3,0h-1v-1h1Zm-3,0h-1v-1h1Zm-3,0h-1v-1h1Zm-3,0h-1v-1h1Zm-3,0h-1v-1h1Zm-3,0h-1v-1h1Zm-3,0h-1v-1h1Zm-3,0h-1v-1h1Zm-3,0h-1v-1h1Zm-3,0h-1v-1h1Zm-3,0h-1v-1h1Zm-3,0h-1v-1h1Zm-3,0h-1v-1h1Zm-3,0h-1v-1h1Zm-3,0h-1v-1h1Zm-3,0h-1v-1h1Zm-3,0h-1v-1h1Zm-3,0h-1v-1h1Zm-3,0h-1v-1h1Zm-3,0h-1v-1h1Zm-3,0h-1v-1h1Zm-3,0h-1v-1h1Zm-3,0h-1v-1h1Zm-3,0h-1v-1h1Zm-3,0h-1v-1h1Zm-3,0h-1v-1h1Zm-3,0h-1v-1h1Zm-3,0h-1v-1h1Zm-3,0h-1v-1h1Zm-3,0h-1v-1h1Zm-3,0h-1v-1h1Zm-3,0h-1v-1h1Zm-3,0h-1v-1h1Zm-3,0h-1v-1h1Zm-3,0h-1v-1h1Zm-3,0h-1v-1h1Zm-3,0h-1v-1h1Zm-3,0h-1v-1h1Z"/><rect class="cls-1" x="58.16" y="90.86" width="125" height="95"/><rect class="cls-6" x="58.16" y="90.86" width="125" height="95"/><rect class="cls-1" x="63.16" y="110.86" width="115" height="70"/><rect class="cls-7" x="63.16" y="110.86" width="115" height="70"/><rect class="cls-8" x="63.16" y="110.86" width="115" height="70"/><rect class="cls-9" x="85.6" y="134.86" width="28.14" height="18.76" rx="0.94"/><polygon class="cls-10" points="104.36 141.5 104.36 146.96 99.67 149.71 99.67 144.24 104.36 141.5"/><polygon class="cls-11" points="104.36 141.5 99.67 144.25 94.98 141.5 99.67 138.76 104.36 141.5"/><polygon class="cls-12" points="99.67 144.25 99.67 149.71 94.98 146.96 94.98 141.5 99.67 144.25"/><polygon class="cls-11" points="94.98 146.96 99.67 144.24 99.67 149.71 94.98 146.96"/><polygon class="cls-12" points="104.36 146.96 99.67 144.24 99.67 149.71 104.36 146.96"/><path class="cls-13" d="M105.32,159.29c-2.79-.44-2.89-2.44-2.89-5.67H96.91c0,3.23-.1,5.23-2.88,5.67a1.56,1.56,0,0,0-1.39,1.57h14.07A1.56,1.56,0,0,0,105.32,159.29Z"/><rect class="cls-14" x="126.31" y="134.86" width="28.14" height="18.76" rx="0.94"/><polygon class="cls-10" points="145.07 141.5 145.07 146.96 140.38 149.71 140.38 144.24 145.07 141.5"/><polygon class="cls-11" points="145.07 141.5 140.38 144.25 135.69 141.5 140.38 138.76 145.07 141.5"/><polygon class="cls-12" points="140.38 144.25 140.38 149.71 135.69 146.96 135.69 141.5 140.38 144.25"/><polygon class="cls-11" points="135.69 146.96 140.38 144.24 140.38 149.71 135.69 146.96"/><polygon class="cls-12" points="145.07 146.96 140.38 144.24 140.38 149.71 145.07 146.96"/><path class="cls-15" d="M146,159.29c-2.78-.44-2.89-2.44-2.89-5.67h-5.52c0,3.23-.09,5.23-2.88,5.67a1.56,1.56,0,0,0-1.39,1.57h14.07A1.56,1.56,0,0,0,146,159.29Z"/><rect class="cls-1" x="193.16" y="90.86" width="95" height="95"/><rect class="cls-6" x="193.16" y="90.86" width="95" height="95"/><rect class="cls-16" x="248.76" y="119.63" width="15.46" height="10.32" rx="0.52"/><polygon class="cls-10" points="259.07 123.28 259.07 126.3 256.5 127.79 256.5 124.8 259.07 123.28"/><polygon class="cls-11" points="259.07 123.28 256.5 124.8 253.92 123.28 256.5 121.77 259.07 123.28"/><polygon class="cls-12" points="256.5 124.8 256.5 127.79 253.92 126.3 253.92 123.28 256.5 124.8"/><rect class="cls-17" x="254.83" y="125.55" width="15.46" height="10.32" rx="0.52"/><polygon class="cls-10" points="265.14 129.22 265.14 132.21 262.57 133.73 262.57 130.72 265.14 129.22"/><polygon class="cls-11" points="265.14 129.22 262.57 130.72 259.99 129.22 262.57 127.7 265.14 129.22"/><polygon class="cls-12" points="262.57 130.72 262.57 133.73 259.99 132.21 259.99 129.22 262.57 130.72"/><rect class="cls-18" x="259.3" y="131.3" width="15.46" height="10.32" rx="0.52"/><polygon class="cls-10" points="269.61 134.97 269.61 137.96 267.04 139.48 267.04 136.47 269.61 134.97"/><polygon class="cls-11" points="269.61 134.97 267.04 136.48 264.45 134.97 267.04 133.45 269.61 134.97"/><polygon class="cls-12" points="267.04 136.48 267.04 139.48 264.45 137.96 264.45 134.97 267.04 136.48"/><polygon class="cls-11" points="264.45 137.96 267.04 136.47 267.04 139.48 264.45 137.96"/><polygon class="cls-12" points="269.61 137.96 267.04 136.47 267.04 139.48 269.61 137.96"/><path class="cls-19" d="M270.13,144.75c-1.53-.24-1.53-1.34-1.53-3.05h-3.06c0,1.77,0,2.87-1.53,3.05a.91.91,0,0,0-.76.88h7.64A.91.91,0,0,0,270.13,144.75Z"/><rect class="cls-20" x="205.26" y="122.86" width="28.14" height="18.76" rx="0.94"/><polygon class="cls-10" points="224.02 129.5 224.02 134.96 219.33 137.71 219.33 132.24 224.02 129.5"/><polygon class="cls-11" points="224.02 129.5 219.33 132.25 214.64 129.5 219.33 126.76 224.02 129.5"/><polygon class="cls-12" points="219.33 132.25 219.33 137.71 214.64 134.96 214.64 129.5 219.33 132.25"/><polygon class="cls-11" points="214.64 134.96 219.33 132.24 219.33 137.71 214.64 134.96"/><polygon class="cls-12" points="224.02 134.96 219.33 132.24 219.33 137.71 224.02 134.96"/><path class="cls-21" d="M225,147.29c-2.78-.44-2.89-2.44-2.89-5.67h-5.52c0,3.23-.1,5.23-2.88,5.67a1.56,1.56,0,0,0-1.39,1.57h14.07A1.56,1.56,0,0,0,225,147.29Z"/><line class="cls-3" x1="170.03" y1="91.21" x2="170.03" y2="64.14"/><line class="cls-3" x1="162.5" y1="85.68" x2="162.5" y2="73.98"/><polygon class="cls-5" points="165.5 74.86 162.5 69.68 159.51 74.86 165.5 74.86"/><line class="cls-3" x1="177.55" y1="81.37" x2="177.55" y2="80.62"/><line class="cls-22" x1="177.55" y1="78.19" x2="177.55" y2="71.64"/><line class="cls-3" x1="177.55" y1="70.43" x2="177.55" y2="69.68"/><polygon class="cls-5" points="180.55 80.5 177.55 85.68 174.56 80.5 180.55 80.5"/><line class="cls-3" x1="210.69" y1="91.21" x2="210.69" y2="64.14"/><line class="cls-3" x1="203.16" y1="85.68" x2="203.16" y2="73.98"/><polygon class="cls-5" points="206.16 74.86 203.16 69.68 200.17 74.86 206.16 74.86"/><line class="cls-3" x1="218.21" y1="81.37" x2="218.21" y2="80.62"/><line class="cls-22" x1="218.21" y1="78.19" x2="218.21" y2="71.64"/><line class="cls-3" x1="218.21" y1="70.43" x2="218.21" y2="69.68"/><polygon class="cls-5" points="221.21 80.5 218.21 85.68 215.22 80.5 221.21 80.5"/><line class="cls-23" x1="86.41" y1="110.86" x2="86.41" y2="19.87"/><line class="cls-23" x1="80.04" y1="82.55" x2="80.04" y2="70.86"/><polygon class="cls-24" points="83.03 81.67 80.04 86.86 77.05 81.67 83.03 81.67"/><line class="cls-23" x1="93.15" y1="86.86" x2="93.15" y2="86.11"/><line class="cls-25" x1="93.15" y1="83.68" x2="93.15" y2="77.12"/><line class="cls-23" x1="93.15" y1="75.91" x2="93.15" y2="75.16"/><polygon class="cls-24" points="96.14 76.04 93.15 70.86 90.16 76.04 96.14 76.04"/><line class="cls-3" x1="191.87" y1="38.29" x2="191.87" y2="18.79"/><line class="cls-3" x1="154.17" y1="222.93" x2="165.3" y2="222.93"/><polygon class="cls-5" points="155.05 225.93 149.87 222.93 155.05 219.94 155.05 225.93"/><path class="cls-3" d="M188,41,150.24,29.65a4.28,4.28,0,0,1-2.87-3.86v-7"/><path class="cls-3" d="M196.18,41l43.29-11.43a4.12,4.12,0,0,0,2.9-3.76v-7"/><circle class="cls-26" cx="74.9" cy="200.57" r="1.67"/><circle class="cls-27" cx="69.56" cy="200.59" r="1.67"/><circle class="cls-28" cx="64.22" cy="200.59" r="1.67"/><path class="cls-10" d="M65.44,207.28l-1,1a.44.44,0,0,1-.62,0h0l-7.09-7.07a.87.87,0,0,1,0-1.23h0l1-1h0l7.7,7.69a.45.45,0,0,1,0,.61Z"/><path class="cls-29" d="M64.33,193l1,1a.44.44,0,0,1,0,.62l-7.57,7.59h0l-1-1a.86.86,0,0,1,0-1.22h0l7-7A.43.43,0,0,1,64.33,193Z"/><path class="cls-10" d="M81.28,199l1,1a.87.87,0,0,1,0,1.23h0l-7.1,7.07a.43.43,0,0,1-.61,0h0l-1-1a.43.43,0,0,1,0-.61h0Z"/><path class="cls-29" d="M82.24,201.15l-1,.95h0l-7.58-7.59a.44.44,0,0,1,0-.62h0l1-1a.44.44,0,0,1,.62,0h0l7,7a.87.87,0,0,1,0,1.23h0Z"/><path class="cls-30" d="M71.32,46.35,85.76,31.9a1,1,0,0,1,1.41,0l0,0h0l14.45,14.45a1,1,0,0,1,0,1.41l0,.05h0L87.23,62.3a1,1,0,0,1-1.41,0l0,0L71.32,47.83a1,1,0,0,1,0-1.41l0-.05Z"/><path class="cls-31" d="M90.29,38.48l-3.65-3.63a.2.2,0,0,0-.27,0l-3.66,3.63a.16.16,0,0,0,0,.24.16.16,0,0,0,.18.07H85a.21.21,0,0,1,.19.19v3.45a.2.2,0,0,0,.19.19h2.27a.21.21,0,0,0,.19-.19V39a.2.2,0,0,1,.19-.19h2.13a.15.15,0,0,0,.2-.1v0A.18.18,0,0,0,90.29,38.48Z"/><path class="cls-31" d="M77.89,43l-3.61,3.66a.19.19,0,0,0,0,.26l3.61,3.64a.19.19,0,0,0,.27,0h0a.2.2,0,0,0,.06-.14V48.28a.2.2,0,0,1,.19-.19h3.44a.18.18,0,0,0,.18-.17V45.63a.19.19,0,0,0-.06-.24H78.46a.18.18,0,0,1-.19-.15V43.11a.19.19,0,0,0-.11-.25h0a.19.19,0,0,0-.25.12Z"/><path class="cls-31" d="M95.25,50.54l3.67-3.65a.19.19,0,0,0,0-.26L95.25,43A.2.2,0,0,0,95,43a.21.21,0,0,0,0,.11v2.16a.18.18,0,0,1-.17.17H91.31a.18.18,0,0,0-.18.17V47.9a.17.17,0,0,0,.16.19h3.46a.2.2,0,0,1,.19.19h0v2.14a.2.2,0,0,0,.21.16Z"/><path class="cls-1" d="M91.31,47.09a4.81,4.81,0,1,0-6.1,4.6v1.64a3,3,0,1,0,4,1.33,3.05,3.05,0,0,0-1.33-1.33V51.6A4.78,4.78,0,0,0,91.31,47.09Z"/><circle id="e99c3387-15c3-4f28-bd4b-cb209b430e06" class="cls-32" cx="86.52" cy="47.08" r="2.79"/><rect class="cls-1" x="130.02" width="35" height="20.86"/><rect class="cls-6" x="130.02" width="35" height="20.86"/><rect class="cls-1" x="68.16" width="35" height="20.86"/><rect class="cls-33" x="68.16" width="35" height="20.86"/><rect class="cls-1" x="174.87" width="35" height="20.86"/><rect class="cls-6" x="174.87" width="35" height="20.86"/><rect class="cls-1" x="219.87" width="45" height="20.86"/><rect class="cls-6" x="219.87" width="45" height="20.86"/><rect class="cls-1" x="156.87" y="53.97" width="70" height="10"/><rect class="cls-34" x="156.87" y="53.97" width="70" height="10"/><g id="ad94e297-0e86-4eaf-aac0-d146ee9aea65"><path class="cls-35" d="M187.8,54.32l-4.69-4.84a2.28,2.28,0,0,1-.77.14,2.43,2.43,0,1,1,2.24-3.33h4.61v1.62h-4.54a3.68,3.68,0,0,1-.26.57l4.32,4.46,2.34-3.56V38.19H187.9l4-4,4,4h-3.16v8.74l5.93-9-6-6a1,1,0,0,0-1.41-.05s0,0,0,.05h0L176.69,46.36a1,1,0,0,0-.05,1.41l.05,0h0l14.47,14.47L186,57.15Z"/><path class="cls-36" d="M191.05,54.53V49.36l-2.34,3.58,1.72,1.85A1.61,1.61,0,0,1,191.05,54.53Z"/><path class="cls-36" d="M207.08,46.36l-8.48-8.48-5.93,9v7.61a1.78,1.78,0,0,1,.54.3l6.22-6.29a2.53,2.53,0,0,1-.31-.64h-4.67V46.29h4.74a2.41,2.41,0,1,1,2.24,3.33,2.61,2.61,0,0,1-.68-.11l-6.61,6.67a2.17,2.17,0,0,1,.1.62,2.43,2.43,0,1,1-4.84.44,2.18,2.18,0,0,1,0-.25,2.49,2.49,0,0,1,.13-.9l-1.72-1.72L186,57.13l5.17,5.17a1,1,0,0,0,1.41,0l0,0L207,47.82a1,1,0,0,0,.05-1.41s0,0-.05,0Z"/><path class="cls-37" d="M199.19,46.29h-4.74v1.62h4.67a2.22,2.22,0,0,1-.12-.72A2.14,2.14,0,0,1,199.19,46.29Z"/><path class="cls-37" d="M184.65,47.91h4.54V46.29h-4.61a2.54,2.54,0,0,1,.19.9A2.93,2.93,0,0,1,184.65,47.91Z"/><path class="cls-37" d="M194.14,56.18l6.61-6.67a2.44,2.44,0,0,1-1.32-1l-6.22,6.29A2.25,2.25,0,0,1,194.14,56.18Z"/><path class="cls-37" d="M190.49,54.79l-1.73-1.85-4.37-4.46a2.45,2.45,0,0,1-1.28,1l4.69,4.84L189.52,56A2.37,2.37,0,0,1,190.49,54.79Z"/><path class="cls-1" d="M195.81,38.19l-3.93-4-4,4H191V54.53a1.68,1.68,0,0,0-.56.26,2.36,2.36,0,0,0-1,1.3,2.41,2.41,0,1,0,4.62,1.4,2.3,2.3,0,0,0,.1-.69,2.17,2.17,0,0,0-.1-.62,2.21,2.21,0,0,0-.93-1.34,1.78,1.78,0,0,0-.54-.3V38.19Zm-3.93,20a1.34,1.34,0,1,1,1.35-1.34h0a1.35,1.35,0,0,1-1.35,1.29Z"/><path class="cls-1" d="M184.39,48.48a3.68,3.68,0,0,0,.26-.57,2.93,2.93,0,0,0,.12-.72,2.54,2.54,0,0,0-.19-.9,2.42,2.42,0,1,0-2.24,3.33,2.28,2.28,0,0,0,.77-.14A2.45,2.45,0,0,0,184.39,48.48Zm-2,0a1.35,1.35,0,1,1,1.34-1.36v0h0a1.34,1.34,0,0,1-1.29,1.39h0Z"/><path class="cls-1" d="M200.75,49.51a2.61,2.61,0,0,0,.68.11,2.43,2.43,0,1,0-2.24-3.33,2.14,2.14,0,0,0-.19.9,2.22,2.22,0,0,0,.12.72,2.53,2.53,0,0,0,.31.64A2.46,2.46,0,0,0,200.75,49.51Zm.68-3.65a1.34,1.34,0,1,1-.31,0Z"/><path class="cls-38" d="M191.88,55.46a1.34,1.34,0,1,0,1.35,1.34h0A1.36,1.36,0,0,0,191.88,55.46Z"/><circle class="cls-38" cx="182.34" cy="47.19" r="1.34"/><path class="cls-38" d="M201.43,48.53a1.35,1.35,0,1,0-1.35-1.35h0a1.34,1.34,0,0,0,1.34,1.34Z"/></g></g></g><g id="Text"><path class="cls-39" d="M96.68,164.12l-3.35,9.22H92l-3.28-9.22h1.31l2.45,7.21a4.28,4.28,0,0,1,.18.83h0a3.23,3.23,0,0,1,.21-.84l2.5-7.2Z"/><path class="cls-39" d="M106.16,173.34v-6.11c0-.5,0-1.11.09-1.81h0a5.65,5.65,0,0,1-.27.93l-3,7h-.66l-3-6.94a6.61,6.61,0,0,1-.27-1h0c0,.43.06,1.05.06,1.87v6.05H97.92v-9.22h1.6l2.68,6.32a8.31,8.31,0,0,1,.41,1.13h0c.2-.56.35-.95.43-1.15l2.74-6.3h1.51v9.22Z"/><path class="cls-39" d="M138.52,164.12l-3.35,9.22h-1.3l-3.29-9.22h1.31l2.45,7.21a3.65,3.65,0,0,1,.18.83h0a3.69,3.69,0,0,1,.21-.84l2.5-7.2Z"/><path class="cls-39" d="M148,173.34v-6.11c0-.5,0-1.11.09-1.81h0a5.65,5.65,0,0,1-.27.93l-3,7h-.66l-3-6.94a6.61,6.61,0,0,1-.27-1h0c0,.43.06,1.05.06,1.87v6.05h-1.13v-9.22h1.6l2.69,6.32a8,8,0,0,1,.4,1.13h0c.21-.56.35-.95.43-1.15l2.74-6.3h1.51v9.22Z"/><path class="cls-39" d="M217.53,156.54l-3.35,9.22h-1.3l-3.29-9.22h1.31l2.45,7.21a4.25,4.25,0,0,1,.19.83h0a3.69,3.69,0,0,1,.21-.84l2.5-7.2Z"/><path class="cls-39" d="M227,165.76v-6.11c0-.5,0-1.11.09-1.81h0a5.65,5.65,0,0,1-.27.93l-3,7h-.66l-3-6.94a4.77,4.77,0,0,1-.27-1h0c0,.43.06,1,.06,1.87v6h-1.13v-9.22h1.6l2.69,6.32a8,8,0,0,1,.4,1.13h0c.21-.56.35-1,.43-1.15l2.74-6.3h1.52v9.22Z"/><path class="cls-39" d="M253,156.73,249.64,166h-1.3l-3.28-9.22h1.3l2.46,7.21a4.28,4.28,0,0,1,.18.83h0a3.66,3.66,0,0,1,.2-.84l2.5-7.2Z"/><path class="cls-39" d="M262.48,166v-6.11c0-.5,0-1.11.09-1.81h0a8.81,8.81,0,0,1-.27.93l-3,7h-.65l-3-6.94a6.61,6.61,0,0,1-.27-1h0c0,.43.06,1.05.06,1.87v6h-1.12v-9.22h1.59l2.69,6.32a8,8,0,0,1,.4,1.13H259c.2-.56.34-1,.43-1.15l2.73-6.3h1.52V166Z"/><path class="cls-39" d="M265.55,164.22a3.25,3.25,0,0,0,1.11.61,4.12,4.12,0,0,0,1.33.24c1.28,0,1.92-.47,1.92-1.39a1.27,1.27,0,0,0-.2-.69,2,2,0,0,0-.57-.55,14.88,14.88,0,0,0-1.35-.73,5.12,5.12,0,0,1-1.8-1.29,2.21,2.21,0,0,1-.44-1.35,2.16,2.16,0,0,1,.91-1.82,3.78,3.78,0,0,1,2.3-.68,4.55,4.55,0,0,1,2,.34v1.3a3.52,3.52,0,0,0-2.08-.58,2.49,2.49,0,0,0-1.37.35,1.13,1.13,0,0,0-.52,1,1.23,1.23,0,0,0,.36.91,7.9,7.9,0,0,0,1.58,1,5.47,5.47,0,0,1,1.88,1.3,2.34,2.34,0,0,1-.33,3.32,4,4,0,0,1-2.42.65,6.28,6.28,0,0,1-1.26-.15,3.24,3.24,0,0,1-1.05-.38Z"/><path class="cls-39" d="M272.46,164.22a3.21,3.21,0,0,0,1.12.61,4.12,4.12,0,0,0,1.33.24c1.28,0,1.92-.47,1.92-1.39a1.2,1.2,0,0,0-.21-.69,2.1,2.1,0,0,0-.56-.55,14.88,14.88,0,0,0-1.35-.73,5.18,5.18,0,0,1-1.81-1.29,2.2,2.2,0,0,1-.43-1.35,2.13,2.13,0,0,1,.91-1.82,3.76,3.76,0,0,1,2.3-.68,4.47,4.47,0,0,1,2,.34v1.3a3.48,3.48,0,0,0-2.08-.58,2.45,2.45,0,0,0-1.36.35,1.14,1.14,0,0,0-.53,1,1.24,1.24,0,0,0,.37.91,7.6,7.6,0,0,0,1.58,1,5.57,5.57,0,0,1,1.88,1.3,2.24,2.24,0,0,1,.53,1.46,2.19,2.19,0,0,1-.87,1.86,4,4,0,0,1-2.42.65,6.28,6.28,0,0,1-1.26-.15,3.24,3.24,0,0,1-1.05-.38Z"/><path class="cls-39" d="M230.79,5.89h3.78a12.74,12.74,0,0,0-1-1.33l.74-.5A17.81,17.81,0,0,1,235.5,5.5l-.58.39h3.2l-.47-.26A9.77,9.77,0,0,0,238.73,4l.89.52c-.36.49-.72.94-1.08,1.34h3.71v.82H230.79Zm1.66,9.77h-.89V7.85h5.13v6.56a1,1,0,0,1-1.18,1.12l-1.35,0c0-.31-.1-.6-.17-.87q.7.06,1.32.06a.42.42,0,0,0,.49-.48V12.73h-3.35Zm3.35-7h-3.35V9.91h3.35Zm-3.35,3.29h3.35V10.69h-3.35ZM238.09,8H239v5.28h-.89Zm2.41-.56h.92V14c0,1-.46,1.45-1.36,1.45-.42,0-.93,0-1.55,0a8.75,8.75,0,0,0-.17-1q.87.09,1.41.09a.67.67,0,0,0,.75-.76Z"/><path class="cls-39" d="M242.65,13.42c1-.13,2.15-.3,3.5-.51-.05.33-.07.58-.08.73l-3.21.67ZM244,11c.37,0,1-.07,2-.17,0,.33-.07.59-.1.77-1.53.13-2.5.23-2.92.29l-.16-.74a10.72,10.72,0,0,0,1.55-2.39l-1.55.13-.22-.74a22.9,22.9,0,0,0,2-4l.91.33a39.61,39.61,0,0,1-1.9,3.63l1.15,0c.2-.4.42-.84.65-1.32l.84.38C245.29,8.94,244.54,10.24,244,11Zm2.19.76.53-.52c.43.35.85.71,1.27,1.07a8.07,8.07,0,0,0,.71-1.67h-2.46V9.87h3.28v.77a9,9,0,0,1-.9,2.25L249.77,14l-.63.62c-.31-.33-.63-.64-.95-1a8.45,8.45,0,0,1-2.12,2.05,7.58,7.58,0,0,0-.62-.65,7.81,7.81,0,0,0,2.13-2C247.14,12.6,246.68,12.19,246.22,11.78Zm.13-5.27.53-.51c.44.37.87.74,1.27,1.1a5.37,5.37,0,0,0,.79-1.61h-2.61V4.7h3.46v.76a6.88,6.88,0,0,1-1,2.18l1.07,1-.63.61c-.27-.31-.59-.65-1-1a7.88,7.88,0,0,1-1.79,1.4c-.2-.28-.38-.5-.52-.67a7.29,7.29,0,0,0,1.73-1.29C247.26,7.32,246.83,6.93,246.35,6.51Zm3.51,4.17V9.89h3.94v.78a7.58,7.58,0,0,1-1.4,2.86,6.29,6.29,0,0,0,1.94,1.25c-.21.3-.39.57-.54.82a7.16,7.16,0,0,1-2-1.42,8.28,8.28,0,0,1-2.18,1.51c-.17-.23-.36-.46-.56-.7a8.14,8.14,0,0,0,2.18-1.46,6.87,6.87,0,0,1-1.18-2.85ZM250,6.52l.52-.54c.53.4,1,.8,1.57,1.22A5.85,5.85,0,0,0,253,5.49h-2.78V4.7h3.67v.72a6.81,6.81,0,0,1-1.17,2.29c.48.4,1,.8,1.43,1.21l-.65.66c-.41-.42-.86-.83-1.32-1.25a8.53,8.53,0,0,1-1.84,1.41,4.3,4.3,0,0,0-.53-.7,7.17,7.17,0,0,0,1.75-1.25C251,7.36,250.51,6.94,250,6.52Zm3,4.16h-2.08a5.8,5.8,0,0,0,1,2.2A6.26,6.26,0,0,0,253,10.68Z"/><path class="cls-39" d="M185.38,10.69v3.39H184.2V5h2.58a3.31,3.31,0,0,1,2.28.71,2.53,2.53,0,0,1,.82,2,2.75,2.75,0,0,1-.95,2.17,3.35,3.35,0,0,1-2.38.78Zm0-4.65V9.66h1.08a2.44,2.44,0,0,0,1.63-.48,1.76,1.76,0,0,0,.55-1.39c0-1.17-.69-1.75-2.07-1.75Z"/><path class="cls-39" d="M192.72,5v9.07h-1.18V5Z"/><path class="cls-39" d="M196.24,10.69v3.39h-1.17V5h2.58a3.31,3.31,0,0,1,2.28.71,2.53,2.53,0,0,1,.81,2,2.72,2.72,0,0,1-1,2.17,3.31,3.31,0,0,1-2.37.78Zm0-4.65V9.66h1.09A2.44,2.44,0,0,0,199,9.18a1.76,1.76,0,0,0,.55-1.39c0-1.17-.69-1.75-2.07-1.75Z"/><path class="cls-39" d="M140.79,10.69v3.39h-1.18V5h2.58a3.31,3.31,0,0,1,2.28.71,2.5,2.5,0,0,1,.82,2,2.75,2.75,0,0,1-.95,2.17,3.35,3.35,0,0,1-2.38.78Zm0-4.65V9.66h1.08a2.44,2.44,0,0,0,1.63-.48,1.76,1.76,0,0,0,.56-1.39c0-1.17-.7-1.75-2.08-1.75Z"/><path class="cls-39" d="M148.13,5v9.07H147V5Z"/><path class="cls-39" d="M151.65,10.69v3.39h-1.17V5h2.58a3.31,3.31,0,0,1,2.28.71,2.53,2.53,0,0,1,.81,2,2.75,2.75,0,0,1-.94,2.17,3.35,3.35,0,0,1-2.38.78Zm0-4.65V9.66h1.09a2.44,2.44,0,0,0,1.63-.48,1.76,1.76,0,0,0,.55-1.39c0-1.17-.69-1.75-2.07-1.75Z"/><path class="cls-39" d="M79,10.69v3.39H77.85V5h2.57a3.36,3.36,0,0,1,2.29.71,2.53,2.53,0,0,1,.81,2,2.75,2.75,0,0,1-1,2.17,3.33,3.33,0,0,1-2.38.78ZM79,6V9.66H80.1a2.42,2.42,0,0,0,1.63-.48,1.76,1.76,0,0,0,.56-1.39C82.29,6.62,81.6,6,80.21,6Z"/><path class="cls-39" d="M86.36,5v9.07H85.19V5Z"/><path class="cls-39" d="M89.89,10.69v3.39H88.71V5h2.58a3.31,3.31,0,0,1,2.28.71,2.5,2.5,0,0,1,.82,2,2.75,2.75,0,0,1-1,2.17,3.35,3.35,0,0,1-2.38.78Zm0-4.65V9.66H91a2.42,2.42,0,0,0,1.63-.48,1.76,1.76,0,0,0,.56-1.39c0-1.17-.7-1.75-2.08-1.75Z"/><path class="cls-39" d="M11.22,30.8H15.5q.59-.59,1.47-1.62H12.82a16.43,16.43,0,0,1-2.54,2.26,7.37,7.37,0,0,0-.69-.7,16.78,16.78,0,0,0,3.75-3.66l.95.35c-.25.32-.49.63-.73.92h4.66v.78c-.5.58-1,1.13-1.53,1.67h3.22v5.08H19V31.63H12.15V36h-.93Zm-1.46,7a11.73,11.73,0,0,0,4.43-1.55,2.44,2.44,0,0,0,.88-2.21V32.19H16v1.68a7.31,7.31,0,0,1-.11,1.34A53.29,53.29,0,0,1,21,37.86l-.63.87c-1.64-1-3.21-1.91-4.69-2.65q-.87,1.74-5.35,2.67C10.14,38.46,10,38.15,9.76,37.84Z"/><path class="cls-39" d="M26.81,37.86a11.76,11.76,0,0,0,2.5-2.29A18.11,18.11,0,0,1,28.55,31h-6.9v-.79h2.91V29.14H22.13v-.73h2.43v-1.2h.87v1.2h2.31v.73H25.43v1.09H28.5c-.05-.93-.09-1.95-.13-3.08h.9c0,1.1,0,2.13.09,3.08h3.9V31H29.41A16.91,16.91,0,0,0,30,34.7a16,16,0,0,0,1.55-2.8l.81.37a18.46,18.46,0,0,1-2,3.43,5.6,5.6,0,0,0,.85,1.45.82.82,0,0,0,.56.35c.21,0,.35-.16.43-.47s.18-1,.26-1.59a6.5,6.5,0,0,0,.85.31c-.1.67-.22,1.26-.34,1.77-.2.7-.54,1-1,1a2.11,2.11,0,0,1-1.63-1.09,5.86,5.86,0,0,1-.58-1,12.59,12.59,0,0,1-2.17,2A3.15,3.15,0,0,0,26.81,37.86ZM23.3,34.32h1.6V33.24h.83v1.08H28v.74H25.73v1.09L28,36a6.51,6.51,0,0,0,0,.77c-.7,0-1.44.1-2.23.17v1.71H24.9V37c-.92.08-1.88.17-2.9.28l-.19-.84c.93,0,2-.12,3.09-.2V35.06H22.32V34.3a15.55,15.55,0,0,0,.94-1.37H21.93v-.74h1.75c.2-.35.38-.71.57-1.1l.86.27c-.16.29-.31.57-.46.83H28v.74H24.21C23.88,33.46,23.58,33.92,23.3,34.32ZM30.06,28l.57-.58c.79.6,1.43,1.12,1.93,1.58l-.67.68A16.74,16.74,0,0,0,30.06,28Z"/><path class="cls-39" d="M33.56,36.28c.6-.21,1.18-.43,1.74-.64V31H33.73v-.83H35.3V27.22h.86v2.93h1.53V31H36.16v4.33l1.63-.67c0,.39,0,.71.06,1-1.26.48-2.58,1-4,1.57Zm4.06-4.45a20.56,20.56,0,0,0,2.05-4.73l.94.29c-.19.53-.38,1.05-.58,1.54h4.65q-.16,6.18-.25,7.6a1.76,1.76,0,0,1-2,1.86c-.77,0-1.46,0-2.06,0,0-.31-.11-.64-.19-1h0a21.44,21.44,0,0,0,2.15.13,1,1,0,0,0,1.16-1.11c.08-1.33.16-3.53.23-6.58H39.67a22.74,22.74,0,0,1-1.24,2.47C38.18,32.11,37.91,32,37.62,31.83Zm.5,3.65c1.57-.62,3.2-1.3,4.89-2,0,.36.08.68.13.93q-2.18.91-4.66,2Zm1.17-3.85.65-.58c.68.63,1.33,1.25,2,1.88l-.76.67C40.54,32.91,39.93,32.25,39.29,31.63Z"/><path class="cls-39" d="M45.49,30.3a11.41,11.41,0,0,0,2.31-3.23l.75.48a16.73,16.73,0,0,1-2.62,3.6A8.6,8.6,0,0,0,45.49,30.3Zm0,3.67a14.26,14.26,0,0,0,2.28-3.75l.72.42c-.3.6-.59,1.16-.87,1.66v6.35h-.8v-5a13.4,13.4,0,0,1-.95,1.3C45.77,34.6,45.65,34.29,45.5,34Zm2.64-4a14,14,0,0,0,2-2.73l.73.28-.3.49H53v.63l-.68,1h1.26v4.64h-.72V34H49.61v.37h-.73v-4l-.19.21A7.13,7.13,0,0,0,48.14,30Zm.35,4.93h2.3a5.78,5.78,0,0,0,.05-.75h.79q0,.4,0,.75h2.15v.75H51.46a1.21,1.21,0,0,1-.05.18c.73.43,1.42.85,2.06,1.25l-.49.72c-.54-.39-1.17-.82-1.9-1.31a6.25,6.25,0,0,1-2.43,1.8l-.49-.73a4.42,4.42,0,0,0,2.45-1.91H48.49ZM52,28.78H50.09l-.65.87h2Zm-2.39,2.71h1.3v-1.1h-1.3Zm0,1.77h1.3V32.17h-1.3Zm3.28-2.87h-1.3v1.1h1.3Zm-1.3,2.87h1.3V32.17h-1.3Zm2.29-1.83h3.34v.85H56v5c0,.86-.4,1.29-1.2,1.31H53.57q0-.28-.18-.87c.45,0,.84.07,1.17.07s.65-.2.65-.61V32.28H53.88ZM54.2,28h2.7v.84H54.2Z"/><path class="cls-39" d="M58,32h4.74a3.4,3.4,0,0,0,.23-1l.85.12a5.93,5.93,0,0,1-.21.9h2.56c-.32-.23-.65-.45-1-.67l.48-.53c.51.31,1,.61,1.39.92l-.26.28h2.18v.77H64.42q1.35,1.32,4.8,1.26-.27.48-.48.9l-.59-.06v3.58h-.83v-.64h-2.5v.63H64V34.86h3.73c-2.24-.3-3.66-1-4.28-2h-.22q-.65,1.39-4.25,2h3.75v3.62h-.82v-.63H59.44v.64h-.82V34.93l-.65.12c-.11-.23-.27-.51-.45-.83,2.61-.34,4.17-.81,4.7-1.41H58Zm.64-4.27h4.11v3.41H61.9v-.36H59.43v.48h-.82Zm3.29.73H59.43v1.59H61.9Zm0,7.09H59.44v1.53h2.47ZM64,27.77h4.15v3.46h-.82v-.41h-2.5v.36H64Zm3.33.73h-2.5v1.59h2.5Zm0,7.09h-2.5v1.53h2.5Z"/><path class="cls-39" d="M219.32,49.72h-1.39l-4.56-7.06a3,3,0,0,1-.31-.59h0a10.76,10.76,0,0,1,0,1.27v6.38h-1.16V40.65h1.47l4.44,6.94a6.51,6.51,0,0,1,.38.62h0a9.82,9.82,0,0,1-.06-1.32V40.65h1.16Z"/><path class="cls-39" d="M228.8,49.72h-1.3l-.92-2.48H222.8l-.88,2.48h-1.29l3.45-9.07h1.26Zm-2.59-3.5-1.37-3.78a4.54,4.54,0,0,1-.14-.63h0a2.92,2.92,0,0,1-.15.63l-1.35,3.78Z"/><path class="cls-39" d="M234.66,41.69H232v8h-1.18v-8h-2.6v-1h6.4Z"/><path class="cls-39" d="M101.91,101.17h5.58V99.83l3.45-2.54h-7.77v-.91h9.36v1l-4,3v.86h5.26v.91h-5.26v3.83q0,1.62-1.68,1.62c-.37,0-1,0-1.89,0q0-.48-.15-1.11a15.49,15.49,0,0,0,1.85.13.77.77,0,0,0,.85-.88v-3.57h-5.58Z"/><path class="cls-39" d="M116,99l.7-.38c.48.77,1,1.55,1.43,2.34a26.37,26.37,0,0,0,1-2.52l.81.3a32.6,32.6,0,0,1-1.3,3.11c.46.79.91,1.6,1.36,2.43l-.81.44c-.33-.64-.68-1.29-1-1.93a26.37,26.37,0,0,1-1.59,2.64l-.72-.41v2.53h-.9V96.4h10.22v9.74c0,.86-.46,1.3-1.38,1.3l-1.83,0c0-.26-.1-.57-.17-.94.67,0,1.24.08,1.72.08s.76-.22.76-.67V97.27h-8.42v7.64a29.05,29.05,0,0,0,1.82-3.07C117.13,100.88,116.57,99.92,116,99Zm4,.58.7-.41c.4.65.81,1.35,1.24,2.08a25.31,25.31,0,0,0,1.17-2.74l.81.32a35.46,35.46,0,0,1-1.48,3.3c.51.87,1,1.8,1.57,2.78l-.81.46c-.4-.77-.81-1.54-1.24-2.33-.5.9-1,1.75-1.59,2.56l-.73-.47a31.4,31.4,0,0,0,1.82-3C121,101.25,120.49,100.4,120,99.53Z"/><path class="cls-39" d="M138.27,106h-1.33l-.94-2.57h-3.87l-.9,2.57h-1.32l3.54-9.41h1.28Zm-2.65-3.64-1.4-3.91a4.66,4.66,0,0,1-.14-.65h0a5,5,0,0,1-.15.65l-1.4,3.91Z"/><path class="cls-39" d="M223.19,101.13h5.45V99.85L232,97.41h-7.58v-.88h9.14v.91l-3.92,2.86v.83h5.13V102h-5.13v3.68c0,1-.55,1.57-1.64,1.57l-1.85,0c0-.32-.08-.67-.15-1.07a17.37,17.37,0,0,0,1.81.12.74.74,0,0,0,.83-.84V102h-5.45Z"/><path class="cls-39" d="M236.93,99l.69-.37c.47.74.93,1.49,1.39,2.26a24.22,24.22,0,0,0,1-2.43l.8.29c-.39,1-.82,2-1.28,3,.45.76.89,1.54,1.33,2.34l-.79.42-1-1.86a26.58,26.58,0,0,1-1.55,2.55l-.71-.4v2.43h-.88V96.54h10v9.37c0,.84-.45,1.26-1.34,1.26l-1.8,0c0-.25-.09-.55-.16-.91.66,0,1.21.08,1.67.08s.75-.21.75-.64V97.38h-8.22v7.35a29.64,29.64,0,0,0,1.78-3C238.05,100.86,237.5,99.93,236.93,99Zm3.9.56.68-.4c.39.63.8,1.3,1.21,2a25.65,25.65,0,0,0,1.15-2.63l.79.3q-.66,1.67-1.44,3.18c.49.84,1,1.73,1.53,2.68l-.79.44c-.39-.74-.8-1.49-1.22-2.24-.48.86-1,1.68-1.54,2.46l-.72-.45a31.64,31.64,0,0,0,1.78-2.87C241.81,101.22,241.33,100.39,240.83,99.56Z"/><path class="cls-39" d="M251.56,105.8v-9h2.67a3,3,0,0,1,1.9.57,1.83,1.83,0,0,1,.72,1.51,2.11,2.11,0,0,1-.43,1.32,2.29,2.29,0,0,1-1.16.82v0a2.3,2.3,0,0,1,1.48.7,2.13,2.13,0,0,1,.55,1.5,2.37,2.37,0,0,1-.84,1.89,3.19,3.19,0,0,1-2.15.72Zm1.17-8v2.84h1.07a2,2,0,0,0,1.33-.41,1.44,1.44,0,0,0,.48-1.15c0-.85-.57-1.28-1.71-1.28Zm0,3.86v3.15h1.41a2.17,2.17,0,0,0,1.42-.42,1.49,1.49,0,0,0,.5-1.18c0-1-.71-1.55-2.12-1.55Z"/><path class="cls-39" d="M60,217.34v2.85q0,3.81-1.53,5.62c-.2-.25-.42-.5-.67-.76a7.32,7.32,0,0,0,1.29-4.7v-3.82h4v-2.46H64V215h4.75v.78H64v.75h5.36l-.08,1.93-.89,0,.08-1.09Zm-.22,7.28h3v-3.5h.92v3.5h1.48V221.1h.92v3.52h3.31v.81H59.76Zm.53-6.13,2.58-.16v-.8h.87v.76l3.53-.22,0,.78-3.57.2v.31c0,.35.23.53.7.53h2.37c.53,0,.84-.18.91-.56a4.86,4.86,0,0,0,.14-.84c.26.11.55.22.85.32a9,9,0,0,1-.21.88c-.16.66-.69,1-1.56,1H64.28c-.94,0-1.41-.42-1.41-1.25v-.32l-2.53.14Zm0,3.37.71-.45c.47.61.93,1.27,1.37,2l-.78.51C61.16,223.15,60.72,222.47,60.3,221.86Zm6.16,1.46a14.42,14.42,0,0,0,1.42-2l.8.48c-.51.75-1,1.43-1.52,2.05Z"/><path class="cls-39" d="M69.94,220.45c.47-.12,1-.28,1.58-.46V217.3H70.06v-.8h1.46v-2.3h.9v2.3h1.37v.8H72.42v2.4l1.42-.47c0,.38,0,.69,0,.91l-1.4.47v3.82c0,.79-.34,1.21-1,1.24-.37,0-.76,0-1.17,0,0-.29-.09-.62-.16-1a7.69,7.69,0,0,0,1,.07c.33,0,.5-.17.5-.53v-3.31l-1.46.52Zm7.06.22a6.34,6.34,0,0,0,.31.93q-1.05,1-2.16,2a6,6,0,0,0-.55.68l-.61-.78a1.61,1.61,0,0,0,.37-1.1v-7.33h.89v7.25C75.69,222,76.28,221.41,77,220.67Zm2.19-6.36h.9q0,2-.06,3.57a15.12,15.12,0,0,1-.61,4.38c.85,1,1.6,1.88,2.27,2.73l-.79.65c-.61-.84-1.24-1.68-1.9-2.51a8,8,0,0,1-2.87,2.78,5.76,5.76,0,0,0-.64-.75,6.87,6.87,0,0,0,3-3.17,12.25,12.25,0,0,0,.6-4.12C79.15,216.68,79.18,215.49,79.19,214.31Zm-3.36.13.76-.39c.59,1.06,1.1,2,1.52,2.92l-.82.47C76.75,216.26,76.27,215.26,75.83,214.44Z"/><path class="cls-39" d="M59.76,230.51l.69-.37c.47.75.94,1.52,1.4,2.3a24,24,0,0,0,1-2.48l.8.3c-.39,1.07-.82,2.08-1.28,3,.45.78.9,1.58,1.34,2.39l-.8.43c-.33-.63-.66-1.26-1-1.9a24.5,24.5,0,0,1-1.56,2.6l-.7-.41v2.48h-.88V228h10v9.55c0,.85-.45,1.27-1.35,1.27l-1.8,0c0-.26-.1-.56-.17-.93.66.06,1.22.08,1.68.08s.76-.21.76-.65v-8.44H59.62v7.49a30.75,30.75,0,0,0,1.78-3C60.88,232.41,60.33,231.46,59.76,230.51Zm3.92.57.68-.4c.39.64.8,1.32,1.22,2A24.29,24.29,0,0,0,66.72,230l.8.31a34.17,34.17,0,0,1-1.45,3.24c.49.86,1,1.77,1.54,2.73l-.79.45c-.39-.75-.8-1.52-1.23-2.29A27.34,27.34,0,0,1,64,237l-.72-.47a32.39,32.39,0,0,0,1.79-2.92C64.65,232.77,64.18,231.93,63.68,231.08Z"/><path class="cls-39" d="M71.48,234.37c.81-.08,1.58-.17,2.31-.28,0,.36-.06.63-.08.81-1.39.18-2.48.32-3.27.44l-.19-.87a9.77,9.77,0,0,0,1.9-2.63q-1.12.07-1.83.15l-.23-.79A20.65,20.65,0,0,0,72,227.35l.91.34a35,35,0,0,1-1.83,3.44l1.47,0c.28-.52.59-1.1.92-1.75l.87.38A54.1,54.1,0,0,1,71.48,234.37Zm-1.39,2.78c1.3-.25,2.66-.54,4.07-.88,0,.38,0,.69,0,.91-1.25.28-2.51.59-3.76.92ZM74,231.27a16.64,16.64,0,0,0,2.16-4.05l.88.3c-.15.37-.31.72-.47,1.06h4.2v.85a10.42,10.42,0,0,1-2.16,2.62,12.69,12.69,0,0,0,3,1.27,10.17,10.17,0,0,0-.47,1,12.11,12.11,0,0,1-3.33-1.71,16,16,0,0,1-3.5,1.86c-.17-.27-.35-.55-.57-.84A14.21,14.21,0,0,0,77.13,232a7.27,7.27,0,0,1-1.39-1.83,18.92,18.92,0,0,1-1.12,1.72C74.47,231.73,74.26,231.52,74,231.27Zm.9,3.16h5.81v4.63h-.9v-.6h-4v.6h-.91Zm4.91.85h-4v2.33h4Zm-.11-5.89H76.22a6.9,6.9,0,0,0,1.63,2.1A8.41,8.41,0,0,0,79.71,229.39Z"/><path class="cls-39" d="M173,218.87c.63.46,1.35,1,2.15,1.64-.29.34-.52.61-.7.79-.78-.69-1.47-1.27-2.06-1.73Zm.84,3.41a3.42,3.42,0,0,0,.87.41c-.34,1.39-.71,3-1.12,4.75l-.95-.31Q173.4,224.63,173.88,222.28Zm-.32-6.54c.65.48,1.31,1,2,1.64-.28.28-.53.53-.73.75-.71-.7-1.33-1.27-1.88-1.72Zm4.42,2.9h1.59c.17-.46.35-.94.51-1.44H177v3.52c0,3.2-.62,5.49-1.88,6.87a6.83,6.83,0,0,0-.7-.76q1.68-1.87,1.68-6.1v-4.36h8.47v.83h-3.42q-.34.74-.69,1.44h3.22v5h-.88v-.32h-1.57v2.87a1.14,1.14,0,0,1-1.27,1.3h-1.06q-.06-.36-.18-.84c.41,0,.77,0,1.07,0s.56-.2.56-.59v-2.78h-1.48v.32H178Zm-1.11,7.89a13.42,13.42,0,0,0,1.84-2.51l.79.48a20,20,0,0,1-1.91,2.59Zm5.92-7.08h-3.93v1.13h3.93Zm-3.93,3.07h3.93v-1.16h-3.93Zm5.68,3.9-.77.58c-.58-.87-1.21-1.71-1.88-2.54l.71-.5C183.34,224.83,184,225.64,184.54,226.42Z"/><path class="cls-39" d="M185.54,217.58h1.23c.31-.74.55-1.42.75-2l1,.3c-.25.62-.5,1.2-.74,1.73h2.44v9.72h-1v-1h-2.74v1h-1Zm3.72.92h-2.74v3h2.74Zm-2.74,6.93h2.74v-3.09h-2.74Zm3.9-5.35a17.38,17.38,0,0,0,1.94-4.53l1,.26c-.21.61-.42,1.19-.64,1.73h3.94q-.15,6.28-.25,7.9a1.78,1.78,0,0,1-2,1.92c-.74,0-1.5,0-2.26-.08a7.21,7.21,0,0,0-.2-1.08h0a16.81,16.81,0,0,0,2.23.17,1.09,1.09,0,0,0,1.2-1.17c.09-1.22.15-3.46.2-6.74h-3.28a17.15,17.15,0,0,1-1.09,2.07A5,5,0,0,0,190.42,220.08Zm1.08.83.74-.55a33.59,33.59,0,0,1,2.16,2.77l-.9.64A30.4,30.4,0,0,0,191.5,220.91Z"/><path class="cls-39" d="M197.59,219.61l.61-.71c.66.45,1.35,1,2.08,1.57-.3.34-.53.61-.71.8C198.72,220.51,198.06,220,197.59,219.61Zm.38,7.54a39.48,39.48,0,0,0,1.27-4.74c.36.16.69.28,1,.38-.37,1.41-.76,3-1.19,4.69Zm.1-10.73.62-.65c.59.48,1.26,1,2,1.69l-.72.72C199.28,217.49,198.65,216.91,198.07,216.42Zm3.87,5.46h.92a9.61,9.61,0,0,1-.5,3.74,4.23,4.23,0,0,1-2,2,5.76,5.76,0,0,0-.62-.81,3.63,3.63,0,0,0,1.77-1.68A8.28,8.28,0,0,0,201.94,221.88Zm5.28-3.24c.64.73,1.34,1.62,2.11,2.67-.3.19-.59.38-.87.58l-.6-.86-5.51.27a5.37,5.37,0,0,0-1,.15l-.42-.92a4.69,4.69,0,0,0,.86-.56,13.93,13.93,0,0,0,1.87-2H201v-.86h3.87c-.31-.48-.6-.9-.88-1.26l.8-.5c.3.38.64.83,1,1.34l-.64.42h4.15V218h-5.39l.8.34a23.47,23.47,0,0,1-2.12,2.06l4.67-.16-.81-1.07Zm-2.88,3.24h.92v5.44h-.92Zm2.24,0h.91v4.09c0,.37.15.56.44.56h.43c.25,0,.41-.21.47-.62a13.23,13.23,0,0,0,.11-1.54,7.65,7.65,0,0,0,.92.35c-.06.69-.12,1.21-.18,1.58a1.09,1.09,0,0,1-1.16,1.08h-.76c-.79,0-1.18-.47-1.18-1.43Z"/><path class="cls-39" d="M210.4,217.67h5.86a18,18,0,0,0-1-1.71l1-.46c.22.35.57.92,1,1.71l-.89.46h5.79v.92h-7.41q0,1.11-.09,1.89h5.9c-.1,1.77-.21,3.3-.32,4.61-.09,1.47-.81,2.21-2.15,2.21-.62,0-1.44,0-2.48-.1,0-.31-.1-.69-.18-1.12a21.14,21.14,0,0,0,2.52.2c.74,0,1.16-.44,1.25-1.33s.19-2.15.26-3.55H214.6a7.9,7.9,0,0,1-3.72,6.25c-.22-.26-.47-.54-.75-.83a7.1,7.1,0,0,0,3.45-5.69c.06-.64.11-1.49.15-2.54H210.4Z"/><path class="cls-39" d="M224.63,227.46h-.95v-10h3.6c.21-.6.4-1.23.59-1.89l1,.29c-.21.57-.42,1.11-.62,1.6H234V226a1.22,1.22,0,0,1-1.38,1.38c-.51,0-1.13,0-1.86,0,0-.28-.09-.6-.17-1,.7.05,1.3.08,1.78.08a.61.61,0,0,0,.68-.7v-7.46h-8.43Zm1.68-7.37h5.05v4.29h-4.13v.84h-.92Zm4.12.88h-3.2v2.53h3.2Z"/><path class="cls-39" d="M175.25,241.3a8.46,8.46,0,0,1-2.06-5.76,8.8,8.8,0,0,1,2.06-5.85h1.05a9,9,0,0,0-2.06,5.84,8.75,8.75,0,0,0,2,5.77Z"/><path class="cls-39" d="M179,229.68l-.2,2.94H178l-.2-2.94Zm1.65,0-.2,2.94h-.82l-.2-2.94Z"/><path class="cls-39" d="M186.4,233.58a1.4,1.4,0,0,0-.82-.21,1.34,1.34,0,0,0-1.15.65,2.93,2.93,0,0,0-.45,1.71v3.42h-1.2V232.4H184v1.37h0a1.86,1.86,0,0,1,1.77-1.49,1.68,1.68,0,0,1,.63.09Z"/><path class="cls-39" d="M193,236.08h-4.73a2.46,2.46,0,0,0,.59,1.67,2.09,2.09,0,0,0,1.57.59,3.36,3.36,0,0,0,2.08-.73v1.07a4,4,0,0,1-2.36.63,2.88,2.88,0,0,1-2.28-.93,3.75,3.75,0,0,1-.82-2.58,3.68,3.68,0,0,1,.9-2.55,2.84,2.84,0,0,1,2.23-1,2.58,2.58,0,0,1,2.07.85,3.48,3.48,0,0,1,.75,2.38Zm-1.2-1a2.17,2.17,0,0,0-.43-1.42,1.52,1.52,0,0,0-1.21-.5,1.69,1.69,0,0,0-1.23.53,2.49,2.49,0,0,0-.66,1.39Z"/><path class="cls-39" d="M200.51,242.25h-1.2V238h0a2.42,2.42,0,0,1-2.29,1.3,2.54,2.54,0,0,1-2-.9,3.71,3.71,0,0,1-.76-2.48,4,4,0,0,1,.84-2.68,2.76,2.76,0,0,1,2.26-1,2.14,2.14,0,0,1,2,1.07h0v-.91h1.2Zm-1.2-7.09a1.89,1.89,0,0,0-.51-1.37,1.74,1.74,0,0,0-1.34-.56,1.78,1.78,0,0,0-1.5.7,3.2,3.2,0,0,0-.54,2,2.74,2.74,0,0,0,.52,1.78,1.7,1.7,0,0,0,1.37.64,1.84,1.84,0,0,0,1.47-.64,2.32,2.32,0,0,0,.53-1.59Z"/><path class="cls-39" d="M208.3,239.15h-1.2v-1.06h0a2.25,2.25,0,0,1-2.09,1.22c-1.59,0-2.39-1-2.39-2.87v-4h1.18v3.86c0,1.37.52,2.06,1.57,2.06a1.55,1.55,0,0,0,1.27-.58,2.19,2.19,0,0,0,.48-1.45V232.4h1.2Z"/><path class="cls-39" d="M216,236.08H211.3a2.42,2.42,0,0,0,.59,1.67,2.07,2.07,0,0,0,1.57.59,3.38,3.38,0,0,0,2.08-.73v1.07a4,4,0,0,1-2.36.63,2.9,2.9,0,0,1-2.29-.93,3.75,3.75,0,0,1-.82-2.58,3.68,3.68,0,0,1,.9-2.55,2.86,2.86,0,0,1,2.24-1,2.61,2.61,0,0,1,2.07.85,3.53,3.53,0,0,1,.74,2.38Zm-1.2-1a2.11,2.11,0,0,0-.43-1.42,1.49,1.49,0,0,0-1.2-.5,1.7,1.7,0,0,0-1.24.53,2.48,2.48,0,0,0-.65,1.39Z"/><path class="cls-39" d="M217.32,237.69a3.29,3.29,0,0,0,2,.65c.93,0,1.4-.3,1.4-.91a.83.83,0,0,0-.31-.65,4.53,4.53,0,0,0-1.24-.6,3.63,3.63,0,0,1-1.46-.89,1.75,1.75,0,0,1-.33-1.07,1.67,1.67,0,0,1,.76-1.44,3.13,3.13,0,0,1,1.87-.54,4.22,4.22,0,0,1,1.6.3v1.15a3.17,3.17,0,0,0-1.72-.49,1.65,1.65,0,0,0-.93.25.78.78,0,0,0-.36.66.77.77,0,0,0,.26.63,4.28,4.28,0,0,0,1.15.58,3.85,3.85,0,0,1,1.52.87,1.62,1.62,0,0,1,.4,1.12,1.67,1.67,0,0,1-.76,1.46,3.33,3.33,0,0,1-2,.54,4,4,0,0,1-1.83-.4Z"/><path class="cls-39" d="M226.81,239.08a2.22,2.22,0,0,1-1.05.21c-1.21,0-1.81-.66-1.81-2v-3.9h-1.16v-1H224v-1.63l1.19-.37v2h1.67v1h-1.67v3.68a1.54,1.54,0,0,0,.22,1,.87.87,0,0,0,.75.29,1.1,1.1,0,0,0,.7-.22Z"/><path class="cls-39" d="M229.76,229.68l-.2,2.94h-.82l-.2-2.94Zm1.65,0-.2,2.94h-.82l-.2-2.94Z"/><path class="cls-39" d="M232.93,241.3a8.71,8.71,0,0,0,2.06-5.77,9,9,0,0,0-2.07-5.84H234a8.68,8.68,0,0,1,2.07,5.85A8.35,8.35,0,0,1,234,241.3Z"/><path class="cls-39" d="M177.3,267.18l3,0,4-.09c-.09.27-.2.59-.34,1h-3.93l-3,0a3.16,3.16,0,0,1-2.92-1.42,20.66,20.66,0,0,0-1.47,1.64l-.5-1c.72-.7,1.24-1.2,1.57-1.5v-4.11h-1.46v-.9h2.4V266A2.86,2.86,0,0,0,177.3,267.18Zm-3.59-10.53q.61.75,1.71,2.31l-.87.61q-1-1.56-1.62-2.4Zm4.06,5.32.59-.63c.87.64,1.69,1.27,2.48,1.88a8,8,0,0,0,1.61-2.52h-4.91a8.22,8.22,0,0,1-1.72,5.51,7,7,0,0,0-.65-.77,7.17,7.17,0,0,0,1.44-4.82v-3.35a51.63,51.63,0,0,0,7-.52l.34.95q-3.15.33-6.42.43v1.72h5.91v.86a8.62,8.62,0,0,1-1.85,3.1c.85.68,1.63,1.33,2.36,2l-.73.79c-.78-.71-1.56-1.39-2.34-2.05a13.63,13.63,0,0,1-3.52,2.2c-.18-.25-.38-.51-.61-.78a13.15,13.15,0,0,0,3.38-2.05Q179,262.9,177.77,262Z"/><path class="cls-39" d="M185.55,257.15h10.67v11.18h-1v-.78h-8.62v.78h-1Zm9.65.9h-8.62v8.62h8.62Zm-6.91,1.87h5.18v5.33h-.95v-.68h-3.28v.68h-1Zm4.23.85h-3.28v3h3.28Z"/><path class="cls-39" d="M197.91,258.44h1.23c.3-.74.55-1.41.75-2l1,.29c-.26.62-.5,1.2-.74,1.73h2.44v9.72h-1v-1h-2.75v1h-1Zm3.72.92h-2.75v3h2.75Zm-2.75,6.93h2.75V263.2h-2.75Zm3.91-5.34a18,18,0,0,0,1.94-4.53l1,.25c-.21.62-.42,1.2-.64,1.74h3.93c-.09,4.18-.18,6.81-.24,7.89a1.79,1.79,0,0,1-2,1.92c-.74,0-1.49,0-2.25-.07a8.93,8.93,0,0,0-.2-1.09h0a15.28,15.28,0,0,0,2.23.17,1.1,1.1,0,0,0,1.2-1.17q.13-1.81.19-6.74h-3.27a16,16,0,0,1-1.1,2.08A4.06,4.06,0,0,0,202.79,261Zm1.07.83.75-.55c.9,1.06,1.62,2,2.16,2.77l-.9.63A29.91,29.91,0,0,0,203.86,261.78Z"/><path class="cls-39" d="M210,260.47l.61-.71c.66.46,1.35,1,2.07,1.58-.29.34-.52.6-.7.79C211.09,261.37,210.43,260.82,210,260.47Zm.38,7.54a39.81,39.81,0,0,0,1.27-4.73c.35.15.68.28,1,.38-.36,1.4-.76,3-1.18,4.68Zm.09-10.73.63-.64c.59.47,1.25,1,2,1.68l-.72.72C211.65,258.36,211,257.77,210.43,257.28Zm3.87,5.46h.93a9.7,9.7,0,0,1-.5,3.75,4.26,4.26,0,0,1-2,2,4.64,4.64,0,0,0-.63-.8,3.52,3.52,0,0,0,1.77-1.69A8.28,8.28,0,0,0,214.3,262.74Zm5.29-3.23c.63.73,1.34,1.62,2.11,2.67l-.88.57-.59-.85-5.51.27a4.58,4.58,0,0,0-1,.14l-.41-.91a5.94,5.94,0,0,0,.85-.56,14,14,0,0,0,1.88-2h-2.71V258h3.88c-.31-.48-.61-.9-.89-1.26l.81-.5c.3.38.64.83,1,1.34l-.63.42h4.15v.87h-5.4l.81.34a28,28,0,0,1-2.12,2.05l4.66-.16c-.28-.38-.55-.74-.81-1.06Zm-2.88,3.23h.91v5.44h-.91Zm2.23-.05h.92v4.09c0,.37.14.56.44.56h.43c.25,0,.41-.21.47-.62s.09-1,.11-1.54a9.8,9.8,0,0,0,.92.36c-.06.68-.12,1.2-.19,1.57a1.08,1.08,0,0,1-1.16,1.09h-.75c-.79,0-1.19-.48-1.19-1.43Z"/><path class="cls-39" d="M222.77,258.53h5.86c-.42-.78-.74-1.35-1-1.71l1-.45c.23.35.57.92,1,1.71l-.89.45h5.78v.93h-7.4q0,1.11-.09,1.89h5.89c-.09,1.76-.2,3.3-.31,4.6-.09,1.47-.81,2.21-2.15,2.21-.62,0-1.45,0-2.48-.1,0-.31-.1-.68-.18-1.12a19.5,19.5,0,0,0,2.51.21c.75,0,1.17-.45,1.26-1.33s.18-2.16.25-3.56H227a7.92,7.92,0,0,1-3.73,6.25c-.22-.26-.47-.53-.74-.83A7.1,7.1,0,0,0,226,262c.06-.65.1-1.49.14-2.54h-3.32Z"/><path class="cls-39" d="M237,268.32h-.95v-10h3.6c.2-.61.4-1.24.59-1.9l1,.3c-.22.57-.42,1.1-.63,1.6h5.72v8.58a1.22,1.22,0,0,1-1.38,1.38l-1.86,0c0-.28-.1-.6-.17-1,.7.06,1.29.09,1.78.09s.67-.24.67-.71V259.2H237Zm1.67-7.36h5.06v4.28H239.6v.84h-.93Zm4.13.88h-3.2v2.52h3.2Z"/><path class="cls-39" d="M175,282.16A8.42,8.42,0,0,1,173,276.4a8.76,8.76,0,0,1,2.06-5.84h1.05a9,9,0,0,0-2.06,5.83,8.75,8.75,0,0,0,2,5.77Z"/><path class="cls-39" d="M178.81,270.54l-.2,2.95h-.82l-.2-2.95Zm1.65,0-.2,2.95h-.82l-.21-2.95Z"/><path class="cls-39" d="M186.18,274.44a1.4,1.4,0,0,0-.82-.21,1.35,1.35,0,0,0-1.15.65,3,3,0,0,0-.45,1.71V280h-1.2v-6.75h1.2v1.37h0a1.86,1.86,0,0,1,1.77-1.49,1.65,1.65,0,0,1,.63.1Z"/><path class="cls-39" d="M192.75,276.94H188a2.44,2.44,0,0,0,.59,1.67,2.09,2.09,0,0,0,1.57.59,3.3,3.3,0,0,0,2.08-.73v1.07a4,4,0,0,1-2.36.63,2.88,2.88,0,0,1-2.28-.93,3.75,3.75,0,0,1-.83-2.57,3.69,3.69,0,0,1,.91-2.56,2.87,2.87,0,0,1,2.23-1A2.62,2.62,0,0,1,192,274a3.51,3.51,0,0,1,.75,2.39Zm-1.2-1a2.12,2.12,0,0,0-.43-1.41,1.49,1.49,0,0,0-1.21-.5,1.65,1.65,0,0,0-1.23.53A2.43,2.43,0,0,0,188,276Z"/><path class="cls-39" d="M195.62,279.06v4.06h-1.19v-9.86h1.19v1.17h0A2.54,2.54,0,0,1,198,273.1a2.46,2.46,0,0,1,2,.91,3.73,3.73,0,0,1,.73,2.43,4.19,4.19,0,0,1-.83,2.71,2.76,2.76,0,0,1-2.24,1,2.25,2.25,0,0,1-2-1.11Zm0-1.83a1.93,1.93,0,0,0,.53,1.39,1.77,1.77,0,0,0,1.33.56,1.75,1.75,0,0,0,1.49-.73,3.38,3.38,0,0,0,.53-2,2.6,2.6,0,0,0-.5-1.71,1.65,1.65,0,0,0-1.36-.62,1.89,1.89,0,0,0-1.46.63,2.35,2.35,0,0,0-.56,1.61Z"/><path class="cls-39" d="M202.49,280V270h1.2v10Z"/><path class="cls-39" d="M211.41,273.26,208.34,281c-.57,1.44-1.37,2.16-2.41,2.16a2.41,2.41,0,0,1-.76-.1v-1a1.83,1.83,0,0,0,.67.14,1.3,1.3,0,0,0,1.21-.95l.52-1.23-2.65-6.74h1.33l1.76,5.07.15.56h0a4.36,4.36,0,0,1,.14-.54l1.85-5.09Z"/><path class="cls-39" d="M214.25,270.54l-.21,2.95h-.81l-.2-2.95Zm1.64,0-.19,2.95h-.83l-.2-2.95Z"/><path class="cls-39" d="M217.42,282.16a8.74,8.74,0,0,0,2.06-5.77,8.93,8.93,0,0,0-2.07-5.83h1.06a8.67,8.67,0,0,1,2.06,5.84,8.34,8.34,0,0,1-2.06,5.76Z"/><path class="cls-39" d="M111.26,125.83h-4.9v-9.41h1.2v8.33h3.7Z"/><path class="cls-39" d="M112.63,125.83v-9.41h2.73a3,3,0,0,1,2,.59,1.92,1.92,0,0,1,.73,1.57,2.24,2.24,0,0,1-.43,1.37,2.35,2.35,0,0,1-1.2.85v0a2.41,2.41,0,0,1,1.52.73,2.2,2.2,0,0,1,.56,1.56,2.47,2.47,0,0,1-.86,2,3.23,3.23,0,0,1-2.2.75Zm1.2-8.35v3h1.09a2,2,0,0,0,1.36-.43,1.5,1.5,0,0,0,.5-1.19c0-.88-.59-1.33-1.75-1.33Zm0,4v3.28h1.44a2.13,2.13,0,0,0,1.45-.44,1.52,1.52,0,0,0,.51-1.22q0-1.62-2.16-1.62Z"/><path class="cls-39" d="M123.47,118.82c.73.54,1.42,1.09,2.07,1.64-.3.36-.53.63-.7.81-.59-.56-1.26-1.14-2-1.74Zm1.13,3.54a10.94,10.94,0,0,0,1,.49q-.63,2.06-1.35,4.44l-1.08-.49A33,33,0,0,0,124.6,122.36ZM124,115.7c.79.63,1.48,1.2,2.08,1.72l-.72.77c-.6-.59-1.26-1.2-2-1.82Zm5.88-.18h.94v3l3.2-.73c-.06,1.79-.1,3-.13,3.73a2.61,2.61,0,0,1-.37,1.44,1.39,1.39,0,0,1-1.13.39h-1c0-.32-.11-.65-.18-1a7.26,7.26,0,0,0,1.09.09c.38,0,.58-.31.61-.92,0-.42.06-1.29.09-2.58l-2.23.52v5.42h-.94v-5.2l-2.06.48v5a.82.82,0,0,0,.92.94h3.76a.93.93,0,0,0,1-.82c.08-.44.17-1.07.25-1.89.32.13.65.24,1,.35-.1.74-.22,1.4-.35,2a1.59,1.59,0,0,1-1.72,1.31H128.6a1.5,1.5,0,0,1-1.68-1.7v-5l-1,.22-.16-.9,1.13-.25v-2.47h.94v2.25l2.06-.47Z"/></g></svg>