<svg xmlns="http://www.w3.org/2000/svg" xmlns:xlink="http://www.w3.org/1999/xlink" viewBox="0 0 221 285.86"><defs><style>.cls-1{fill:#fff;}.cls-2,.cls-3,.cls-4{fill:#3c3c41;}.cls-2{opacity:0.05;}.cls-2,.cls-26,.cls-4{isolation:isolate;}.cls-4{opacity:0.2;}.cls-5{fill:#ccc;fill-opacity:0.3;}.cls-6{fill:url(#Degradado_sin_nombre);}.cls-7{fill:#50e6ff;}.cls-8{fill:#c3f1ff;}.cls-9{fill:#9cebff;}.cls-10{fill:url(#Degradado_sin_nombre_2);}.cls-11{fill:url(#Degradado_sin_nombre_3);}.cls-12{fill:url(#Degradado_sin_nombre_4);}.cls-13{fill:#005ba1;}.cls-14{fill:#0078d4;}.cls-15{fill:url(#Degradado_sin_nombre_5);}.cls-16{fill:url(#Degradado_sin_nombre_6);}.cls-17{fill:url(#Degradado_sin_nombre_7);}.cls-18{fill:url(#Degradado_sin_nombre_8);}.cls-19,.cls-20,.cls-21{fill:none;stroke:#3c3c41;stroke-miterlimit:10;}.cls-20{stroke-dasharray:1.46 2.43;}.cls-21{stroke-dasharray:1.31 2.19;}.cls-22{fill:url(#Degradado_sin_nombre_9);}.cls-23{fill:url(#Degradado_sin_nombre_10);}.cls-24{fill:url(#Degradado_sin_nombre_11);}.cls-25{fill:#1490df;}.cls-26,.cls-27{fill:#6ebcdb;}.cls-26{opacity:0.4;}.cls-28{fill:#5db4d7;}.cls-29{fill:#e6e6e6;}.cls-30{fill:#86d633;}.cls-31{fill:#1e1e1e;}</style><linearGradient id="Degradado_sin_nombre" x1="37.07" y1="254.57" x2="37.07" y2="235.81" gradientTransform="translate(0 -112.95)" gradientUnits="userSpaceOnUse"><stop offset="0" stop-color="#0078d4"/><stop offset="0.82" stop-color="#5ea0ef"/></linearGradient><linearGradient id="Degradado_sin_nombre_2" x1="37.05" y1="261.8" x2="37.05" y2="254.57" gradientTransform="translate(0 -112.95)" gradientUnits="userSpaceOnUse"><stop offset="0.15" stop-color="#ccc"/><stop offset="1" stop-color="#707070"/></linearGradient><linearGradient id="Degradado_sin_nombre_3" x1="77.43" y1="254.57" x2="77.43" y2="235.81" xlink:href="#Degradado_sin_nombre"/><linearGradient id="Degradado_sin_nombre_4" x1="77.43" y1="261.8" x2="77.43" y2="254.57" xlink:href="#Degradado_sin_nombre_2"/><linearGradient id="Degradado_sin_nombre_5" x1="188.87" y1="257.81" x2="188.87" y2="247.47" xlink:href="#Degradado_sin_nombre"/><linearGradient id="Degradado_sin_nombre_6" x1="188.94" y1="261.8" x2="188.94" y2="257.81" xlink:href="#Degradado_sin_nombre_2"/><linearGradient id="Degradado_sin_nombre_7" x1="141.17" y1="254.57" x2="141.17" y2="235.81" xlink:href="#Degradado_sin_nombre"/><linearGradient id="Degradado_sin_nombre_8" x1="141.17" y1="261.8" x2="141.17" y2="254.57" xlink:href="#Degradado_sin_nombre_2"/><linearGradient id="Degradado_sin_nombre_9" x1="23.52" y1="313.02" x2="25.89" y2="315.39" gradientTransform="translate(3 -113.27)" gradientUnits="userSpaceOnUse"><stop offset="0" stop-color="#86d633"/><stop offset="0.24" stop-color="#83d232"/><stop offset="0.5" stop-color="#7cc52f"/><stop offset="0.76" stop-color="#6fb02a"/><stop offset="1" stop-color="#5e9624"/></linearGradient><linearGradient id="Degradado_sin_nombre_10" x1="18.17" y1="313.02" x2="20.53" y2="315.38" xlink:href="#Degradado_sin_nombre_9"/><linearGradient id="Degradado_sin_nombre_11" x1="12.83" y1="313.02" x2="15.18" y2="315.39" xlink:href="#Degradado_sin_nombre_9"/></defs><title>OJ104903287</title><g id="Target"><rect class="cls-1" x="0.54" width="220.46" height="285.86"/><rect class="cls-1" x="0.5" y="46.36" width="220" height="154" rx="5"/><rect class="cls-2" x="0.5" y="46.36" width="220" height="154" rx="5"/><path class="cls-3" d="M214.34,200.86h-1v-1h1Zm-3,0h-1v-1h1Zm-3,0h-1v-1h1Zm-3,0h-1v-1h1Zm-3,0h-1v-1h1Zm-3,0h-1v-1h1Zm-3,0h-1v-1h1Zm-3,0h-1v-1h1Zm-3,0h-1v-1h1Zm-3,0h-1v-1h1Zm-3,0h-1v-1h1Zm-3,0h-1v-1h1Zm-3,0h-1v-1h1Zm-3,0h-1v-1h1Zm-3,0h-1v-1h1Zm-3,0h-1v-1h1Zm-3,0h-1v-1h1Zm-3,0h-1v-1h1Zm-3,0h-1v-1h1Zm-3,0h-1v-1h1Zm-3,0h-1v-1h1Zm-3,0h-1v-1h1Zm-3,0h-1v-1h1Zm-3,0h-1v-1h1Zm-3,0h-1v-1h1Zm-3,0h-1v-1h1Zm-3,0h-1v-1h1Zm-3,0h-1v-1h1Zm-3,0h-1v-1h1Zm-3,0h-1v-1h1Zm-3,0h-1v-1h1Zm-3,0h-1v-1h1Zm-3,0h-1v-1h1Zm-3,0h-1v-1h1Zm-3,0h-1v-1h1Zm-3,0h-1v-1h1Zm-3,0h-1v-1h1Zm-3,0h-1v-1h1Zm-3,0h-1v-1h1Zm-3,0h-1v-1h1Zm-3,0h-1v-1h1Zm-3,0h-1v-1h1Zm-3,0h-1v-1h1Zm-3,0h-1v-1h1Zm-3,0h-1v-1h1Zm-3,0h-1v-1h1Zm-3,0h-1v-1h1Zm-3,0h-1v-1h1Zm-3,0h-1v-1h1Zm-3,0h-1v-1h1Zm-3,0h-1v-1h1Zm-3,0h-1v-1h1Zm-3,0h-1v-1h1Zm-3,0H54v-1h1Zm-3,0H51v-1h1Zm-3,0H48v-1h1Zm-3,0H45v-1h1Zm-3,0H42v-1h1Zm-3,0H39v-1h1Zm-3,0H36v-1h1Zm-30,0H6v-1H7Zm209.46-.08-.17-1a4.31,4.31,0,0,0,.87-.24l.36.94a5.86,5.86,0,0,1-1.44.3ZM4.2,200.59a5.24,5.24,0,0,1-1-.44l.49-.87a4,4,0,0,0,.82.36Zm215.5-1.29-.69-.72a5.35,5.35,0,0,0,.58-.68l.82.56a5,5,0,0,1-1.09.84ZM1.16,198.72a5.62,5.62,0,0,1-.59-.93l.9-.44a3.75,3.75,0,0,0,.48.76Zm219.73-2.27-1-.2a4.41,4.41,0,0,0,.09-.89l1-.06v.06A6.59,6.59,0,0,1,220.89,196.45ZM0,195.68v-1H1v1Zm221-2.39h-1v-1h1ZM1,192.64H0v-1H1Zm220-2.35h-1v-1h1ZM1,189.64H0v-1H1Zm220-2.36h-1v-1h1ZM1,186.63H0v-1H1Zm220-2.35h-1v-1h1ZM1,183.63H0v-1H1Zm220-2.36h-1v-1h1ZM1,180.62H0v-1H1Zm220-2.35h-1v-1h1ZM1,177.62H0v-1H1Zm220-2.36h-1v-1h1ZM1,174.61H0v-1H1Zm220-2.36h-1v-1h1ZM1,171.6H0v-1H1Zm220-2.35h-1v-1h1ZM1,168.6H0v-1H1Zm220-2.36h-1v-1h1ZM1,165.59H0v-1H1Zm220-2.35h-1v-1h1ZM1,162.59H0v-1H1Zm220-2.36h-1v-1h1ZM1,159.58H0v-1H1Zm220-2.35h-1v-1h1ZM1,156.58H0v-1H1Zm220-2.36h-1v-1h1ZM1,153.57H0v-1H1Zm220-2.35h-1v-1h1ZM1,150.57H0v-1H1Zm220-2.36h-1v-1h1ZM1,147.56H0v-1H1Zm220-2.35h-1v-1h1ZM1,144.55H0v-1H1Zm220-2.35h-1v-1h1ZM1,141.55H0v-1H1Zm220-2.36h-1v-1h1ZM1,138.54H0v-1H1Zm220-2.35h-1v-1h1ZM1,135.54H0v-1H1Zm220-2.36h-1v-1h1ZM1,132.53H0v-1H1Zm220-2.35h-1v-1h1ZM1,129.53H0v-1H1Zm220-2.36h-1v-1h1ZM1,126.52H0v-1H1Zm220-2.35h-1v-1h1ZM1,123.52H0v-1H1Zm220-2.36h-1v-1h1ZM1,120.51H0v-1H1Zm220-2.35h-1v-1h1ZM1,117.51H0v-1H1Zm220-2.36h-1v-1h1ZM1,114.5H0v-1H1Zm220-2.35h-1v-1h1ZM1,111.49H0v-1H1Zm220-2.35h-1v-1h1ZM1,108.49H0v-1H1Zm220-2.36h-1v-1h1ZM1,105.48H0v-1H1Zm220-2.35h-1v-1h1ZM1,102.48H0v-1H1Zm220-2.36h-1v-1h1ZM1,99.47H0v-1H1Zm220-2.35h-1v-1h1ZM1,96.47H0v-1H1Zm220-2.36h-1v-1h1ZM1,93.46H0v-1H1Zm220-2.35h-1v-1h1ZM1,90.46H0v-1H1ZM221,88.1h-1v-1h1ZM1,87.45H0v-1H1ZM221,85.1h-1v-1h1ZM1,84.44H0v-1H1Zm220-2.35h-1v-1h1ZM1,81.44H0v-1H1Zm220-2.36h-1v-1h1ZM1,78.43H0v-1H1Zm220-2.35h-1v-1h1ZM1,75.43H0v-1H1Zm220-2.36h-1v-1h1ZM1,72.42H0v-1H1Zm220-2.35h-1v-1h1ZM1,69.42H0v-1H1Zm220-2.36h-1v-1h1ZM1,66.41H0v-1H1Zm220-2.35h-1v-1h1ZM1,63.41H0v-1H1Zm220-2.36h-1v-1h1ZM1,60.4H0v-1H1Zm220-2.35h-1V57h1ZM1,57.4H0v-1H1ZM221,55h-1V54h1ZM1,54.39H0v-1H1ZM221,52h-1v-.68a1.41,1.41,0,0,0,0-.29l1-.07v1ZM0,51.38H0a6.36,6.36,0,0,1,.1-1.07l1,.2a5.12,5.12,0,0,0-.08.87Zm219.52-2a4.63,4.63,0,0,0-.48-.76l.78-.62a5,5,0,0,1,.59.93ZM1.78,48.84,1,48.27a6.31,6.31,0,0,1,.71-.84l.7.72A4.57,4.57,0,0,0,1.78,48.84Zm215.89-1.42a4.09,4.09,0,0,0-.83-.36l.31-1a6.28,6.28,0,0,1,1,.43ZM3.86,47.17l-.37-.93a4.92,4.92,0,0,1,1.06-.3l.17,1A4.37,4.37,0,0,0,3.86,47.17ZM215,46.86h-1v-1h1Zm-3,0h-1v-1h1Zm-3,0h-1v-1h1Zm-3,0h-1v-1h1Zm-3,0h-1v-1h1Zm-3,0h-1v-1h1Zm-3,0h-1v-1h1Zm-3,0h-1v-1h1Zm-3,0h-1v-1h1Zm-3,0h-1v-1h1Zm-3,0h-1v-1h1Zm-3,0h-1v-1h1Zm-3,0h-1v-1h1Zm-3,0h-1v-1h1Zm-3,0h-1v-1h1Zm-3,0h-1v-1h1Zm-3,0h-1v-1h1Zm-3,0h-1v-1h1Zm-3,0h-1v-1h1Zm-3,0h-1v-1h1Zm-3,0h-1v-1h1Zm-27,0h-1v-1h1Zm-3,0h-1v-1h1Zm-3,0h-1v-1h1Zm-3,0h-1v-1h1Zm-3,0h-1v-1h1Zm-3,0h-1v-1h1Zm-3,0h-1v-1h1Zm-3,0h-1v-1h1Zm-3,0h-1v-1h1Zm-3,0h-1v-1h1Zm-3,0H97v-1h1Zm-3,0H94v-1h1Zm-3,0H91v-1h1Zm-3,0H88v-1h1Zm-3,0H85v-1h1Zm-3,0H82v-1h1Zm-3,0H79v-1h1Zm-3,0H76v-1h1Zm-3,0H73v-1h1Zm-3,0H70v-1h1Zm-3,0H67v-1h1Zm-3,0H64v-1h1Zm-3,0H61v-1h1Zm-3,0H58v-1h1Zm-3,0H55v-1h1Zm-3,0H52v-1h1Zm-3,0H49v-1h1Zm-3,0H46v-1h1Zm-3,0H43v-1h1Zm-3,0H40v-1h1Zm-3,0H37v-1h1Zm-3,0H34v-1h1Zm-3,0H31v-1h1Zm-3,0H28v-1h1Zm-3,0H25v-1h1Zm-3,0H22v-1h1Zm-3,0H19v-1h1Zm-3,0H16v-1h1Zm-3,0H13v-1h1Zm-3,0H10v-1h1Zm-3,0H7v-1H8Z"/><rect class="cls-1" x="10" y="90.86" width="95" height="95" rx="0.3"/><rect class="cls-4" x="10" y="90.86" width="95" height="95" rx="0.3"/><rect class="cls-5" x="65" y="210.86" width="155" height="35"/><rect class="cls-5" x="65" y="250.86" width="155" height="35"/><rect class="cls-6" x="23" y="122.86" width="28.14" height="18.76" rx="0.94"/><polygon class="cls-7" points="41.76 129.5 41.76 134.96 37.07 137.71 37.07 132.24 41.76 129.5"/><polygon class="cls-8" points="41.76 129.5 37.07 132.25 32.38 129.5 37.07 126.76 41.76 129.5"/><polygon class="cls-9" points="37.07 132.25 37.07 137.71 32.38 134.96 32.38 129.5 37.07 132.25"/><polygon class="cls-8" points="32.38 134.96 37.07 132.24 37.07 137.71 32.38 134.96"/><polygon class="cls-9" points="41.76 134.96 37.07 132.24 37.07 137.71 41.76 134.96"/><path class="cls-10" d="M42.71,147.29c-2.78-.44-2.89-2.44-2.89-5.67H34.3c0,3.23-.09,5.23-2.87,5.67A1.56,1.56,0,0,0,30,148.86H44.11A1.58,1.58,0,0,0,42.71,147.29Z"/><rect class="cls-11" x="63.36" y="122.86" width="28.14" height="18.76" rx="0.94"/><polygon class="cls-7" points="82.12 129.5 82.12 134.96 77.43 137.71 77.43 132.24 82.12 129.5"/><polygon class="cls-8" points="82.12 129.5 77.43 132.25 72.74 129.5 77.43 126.76 82.12 129.5"/><polygon class="cls-9" points="77.43 132.25 77.43 137.71 72.74 134.96 72.74 129.5 77.43 132.25"/><polygon class="cls-8" points="72.74 134.96 77.43 132.24 77.43 137.71 72.74 134.96"/><polygon class="cls-9" points="82.12 134.96 77.43 132.24 77.43 137.71 82.12 134.96"/><path class="cls-12" d="M83.07,147.29c-2.78-.44-2.89-2.44-2.89-5.67H74.66c0,3.23-.09,5.23-2.88,5.67a1.56,1.56,0,0,0-1.39,1.57H84.46A1.56,1.56,0,0,0,83.07,147.29Z"/><rect class="cls-1" x="115" y="90.86" width="95" height="95"/><rect class="cls-4" x="115" y="90.86" width="95" height="95"/><rect class="cls-13" x="170.6" y="122.86" width="15.46" height="10.32" rx="0.52"/><polygon class="cls-7" points="180.91 126.51 180.91 129.52 178.34 131.02 178.34 128.03 180.91 126.51"/><polygon class="cls-8" points="180.91 126.51 178.34 128.03 175.75 126.51 178.34 125 180.91 126.51"/><polygon class="cls-9" points="178.34 128.03 178.34 131.02 175.75 129.52 175.75 126.51 178.34 128.03"/><rect class="cls-14" x="176.67" y="128.77" width="15.46" height="10.32" rx="0.52"/><polygon class="cls-7" points="186.98 132.44 186.98 135.44 184.41 136.96 184.41 133.94 186.98 132.44"/><polygon class="cls-8" points="186.98 132.44 184.41 133.94 181.82 132.44 184.41 130.93 186.98 132.44"/><polygon class="cls-9" points="184.41 133.94 184.41 136.96 181.82 135.44 181.82 132.44 184.41 133.94"/><rect class="cls-15" x="181.14" y="134.52" width="15.46" height="10.32" rx="0.52"/><polygon class="cls-7" points="191.44 138.19 191.44 141.19 188.88 142.71 188.88 139.69 191.44 138.19"/><polygon class="cls-8" points="191.44 138.19 188.88 139.71 186.29 138.19 188.88 136.68 191.44 138.19"/><polygon class="cls-9" points="188.88 139.71 188.88 142.71 186.29 141.19 186.29 138.19 188.88 139.71"/><polygon class="cls-8" points="186.29 141.19 188.88 139.69 188.88 142.71 186.29 141.19"/><polygon class="cls-9" points="191.44 141.19 188.88 139.69 188.88 142.71 191.44 141.19"/><path class="cls-16" d="M192,148c-1.52-.24-1.52-1.34-1.52-3.06h-3.06c0,1.78,0,2.88-1.53,3.06a.91.91,0,0,0-.77.88h7.65A.91.91,0,0,0,192,148Z"/><rect class="cls-17" x="127.1" y="122.86" width="28.14" height="18.76" rx="0.94"/><polygon class="cls-7" points="145.86 129.5 145.86 134.96 141.17 137.71 141.17 132.24 145.86 129.5"/><polygon class="cls-8" points="145.86 129.5 141.17 132.25 136.48 129.5 141.17 126.76 145.86 129.5"/><polygon class="cls-9" points="141.17 132.25 141.17 137.71 136.48 134.96 136.48 129.5 141.17 132.25"/><polygon class="cls-8" points="136.48 134.96 141.17 132.24 141.17 137.71 136.48 134.96"/><polygon class="cls-9" points="145.86 134.96 141.17 132.24 141.17 137.71 145.86 134.96"/><path class="cls-18" d="M146.81,147.29c-2.78-.44-2.89-2.44-2.89-5.67H138.4c0,3.23-.09,5.23-2.87,5.67a1.58,1.58,0,0,0-1.4,1.57h14.08A1.58,1.58,0,0,0,146.81,147.29Z"/><line class="cls-19" x1="90.37" y1="90.71" x2="90.37" y2="63.64"/><line class="cls-19" x1="82.84" y1="85.18" x2="82.84" y2="73.48"/><polygon class="cls-3" points="85.83 74.36 82.84 69.18 79.85 74.36 85.83 74.36"/><line class="cls-19" x1="97.89" y1="80.87" x2="97.89" y2="80.12"/><line class="cls-20" x1="97.89" y1="77.69" x2="97.89" y2="71.14"/><line class="cls-19" x1="97.89" y1="69.93" x2="97.89" y2="69.18"/><polygon class="cls-3" points="100.88 80 97.89 85.18 94.9 80 100.88 80"/><line class="cls-19" x1="129.52" y1="90.71" x2="129.52" y2="63.64"/><line class="cls-19" x1="122" y1="85.18" x2="122" y2="73.48"/><polygon class="cls-3" points="124.99 74.36 122 69.18 119.01 74.36 124.99 74.36"/><line class="cls-19" x1="137.05" y1="80.87" x2="137.05" y2="80.12"/><line class="cls-20" x1="137.05" y1="77.69" x2="137.05" y2="71.14"/><line class="cls-19" x1="137.05" y1="69.93" x2="137.05" y2="69.18"/><polygon class="cls-3" points="140.04 80 137.05 85.18 134.06 80 140.04 80"/><line class="cls-19" x1="109.7" y1="38.29" x2="109.7" y2="18.79"/><line class="cls-19" x1="74.31" y1="220.86" x2="85.43" y2="220.86"/><polygon class="cls-3" points="75.18 223.85 70 220.85 75.18 217.86 75.18 223.85"/><line class="cls-19" x1="80.69" y1="260.86" x2="79.94" y2="260.86"/><line class="cls-21" x1="77.75" y1="260.86" x2="71.84" y2="260.86"/><line class="cls-19" x1="70.75" y1="260.86" x2="70" y2="260.86"/><polygon class="cls-3" points="79.82 257.86 85 260.86 79.82 263.85 79.82 257.86"/><path class="cls-19" d="M105.83,41,68.08,29.65a4.3,4.3,0,0,1-2.88-3.86v-7"/><path class="cls-19" d="M114,41l43.3-11.45a4.1,4.1,0,0,0,2.9-3.76v-7"/><circle class="cls-22" cx="27.4" cy="200.63" r="1.67"/><circle class="cls-23" cx="22.06" cy="200.64" r="1.67"/><circle class="cls-24" cx="16.72" cy="200.64" r="1.67"/><path class="cls-7" d="M17.93,207.34l-1,1a.43.43,0,0,1-.61,0h0l-7.09-7.08a.88.88,0,0,1,0-1.22h0l1-1h0l7.71,7.69a.43.43,0,0,1,0,.61h0Z"/><path class="cls-25" d="M16.83,193l1,1a.43.43,0,0,1,0,.61h0l-7.57,7.6h0l-1-1a.88.88,0,0,1,0-1.22h0l7-7A.43.43,0,0,1,16.83,193Z"/><path class="cls-7" d="M33.78,199l1,1a.86.86,0,0,1,0,1.22h0l-7.1,7.08a.43.43,0,0,1-.61,0h0l-1-1a.44.44,0,0,1,0-.62h0Z"/><path class="cls-25" d="M34.74,201.2l-1,1h0l-7.57-7.6a.43.43,0,0,1,0-.61h0l1-1a.43.43,0,0,1,.61,0h0l7,7a.88.88,0,0,1,0,1.22h0Z"/><rect class="cls-1" x="47.35" width="35" height="20.86"/><rect class="cls-4" x="47.35" width="35" height="20.86"/><rect class="cls-1" x="92.7" width="35" height="20.86"/><rect class="cls-4" x="92.7" width="35" height="20.86"/><rect class="cls-1" x="137.7" width="45" height="20.86"/><rect class="cls-4" x="137.7" width="45" height="20.86"/><rect class="cls-1" x="74.7" y="53.5" width="70" height="10"/><rect class="cls-26" x="74.7" y="53.5" width="70" height="10"/><g id="ad94e297-0e86-4eaf-aac0-d146ee9aea65"><path class="cls-27" d="M105.63,53.85,101,49a2.28,2.28,0,0,1-.78.13,2.43,2.43,0,1,1,2.24-3.32H107v1.62h-4.55a3.68,3.68,0,0,1-.26.57l4.33,4.46,2.34-3.57V37.72h-3.15l4-4,3.94,4H110.5v8.74l5.93-9.05-6-6a1,1,0,0,0-1.41-.05l0,.05h0L94.52,45.89a1,1,0,0,0,0,1.41l0,.05h0L109,61.84l-5.16-5.17Z"/><path class="cls-28" d="M108.89,54.05V48.89l-2.34,3.58,1.72,1.84A2,2,0,0,1,108.89,54.05Z"/><path class="cls-28" d="M124.91,45.89l-8.47-8.48-5.93,9.05v7.61a2.1,2.1,0,0,1,.53.29l6.22-6.28a3.15,3.15,0,0,1-.31-.64h-4.67V45.82H117a2.42,2.42,0,1,1,2.24,3.32,2.53,2.53,0,0,1-.67-.1L112,55.71a2.18,2.18,0,0,1,.11.62,2.43,2.43,0,0,1-4.86.19h0a2.5,2.5,0,0,1,.14-.9l-1.73-1.72-1.84,2.76L109,61.82a1,1,0,0,0,1.41,0l0,0,14.47-14.47a1,1,0,0,0,0-1.41l0,0Z"/><path class="cls-29" d="M117,45.82h-4.74v1.62H117a2.93,2.93,0,0,1-.12-.72A2.28,2.28,0,0,1,117,45.82Z"/><path class="cls-29" d="M102.48,47.44H107V45.82h-4.62a2.14,2.14,0,0,1,.19.9A2.19,2.19,0,0,1,102.48,47.44Z"/><path class="cls-29" d="M112,55.71,118.59,49a2.43,2.43,0,0,1-1.33-1L111,54.36A2.28,2.28,0,0,1,112,55.71Z"/><path class="cls-29" d="M108.32,54.31l-1.72-1.84L102.22,48A2.49,2.49,0,0,1,101,49l4.68,4.84,1.73,1.72A2.48,2.48,0,0,1,108.32,54.31Z"/><path class="cls-1" d="M113.65,37.72l-3.93-4-4,4h3.15V54.05a2.09,2.09,0,0,0-.57.26,2.41,2.41,0,1,0,2.81,3.92A2.45,2.45,0,0,0,112,57a2.31,2.31,0,0,0,.11-.69,2.18,2.18,0,0,0-.11-.62,2.26,2.26,0,0,0-.93-1.35,2.1,2.1,0,0,0-.53-.29V37.72Zm-3.93,20a1.35,1.35,0,1,1,1.34-1.36v0h0a1.34,1.34,0,0,1-1.34,1.29Z"/><path class="cls-1" d="M102.22,48a3.68,3.68,0,0,0,.26-.57,2.22,2.22,0,0,0,.12-.72,2.14,2.14,0,0,0-.19-.9,2.41,2.41,0,1,0-2.24,3.32A2.36,2.36,0,0,0,101,49,2.49,2.49,0,0,0,102.22,48Zm-2,0a1.35,1.35,0,1,1,1.35-1.35h0a1.35,1.35,0,0,1-1.29,1.4h-.06Z"/><path class="cls-1" d="M118.59,49a2.53,2.53,0,0,0,.67.1A2.43,2.43,0,1,0,117,45.82a2.3,2.3,0,0,0-.19.9,2.93,2.93,0,0,0,.12.72,3.15,3.15,0,0,0,.31.64A2.5,2.5,0,0,0,118.59,49Zm.67-3.65a1.56,1.56,0,1,1-.28,0h0Z"/><path class="cls-30" d="M109.72,55a1.35,1.35,0,0,0-1.46,1.23,1.34,1.34,0,0,0,1.23,1.46.89.89,0,0,0,.23,0,1.34,1.34,0,0,0,1.34-1.34h0A1.36,1.36,0,0,0,109.72,55Z"/><circle class="cls-30" cx="100.17" cy="46.72" r="1.34"/><path class="cls-30" d="M119.26,48.06a1.35,1.35,0,1,0-1.34-1.36v0h0A1.34,1.34,0,0,0,119.26,48.06Z"/></g></g><g id="Text"><path class="cls-31" d="M148.66,5.92h3.79a13,13,0,0,0-1-1.33l.74-.5a17.81,17.81,0,0,1,1.17,1.44l-.58.39H156l-.47-.26a11.73,11.73,0,0,0,1.08-1.59l.89.51a15.41,15.41,0,0,1-1.09,1.34h3.71v.82H148.66Zm1.66,9.77h-.89V7.89h5.14v6.55c0,.76-.4,1.14-1.19,1.12l-1.34,0q-.07-.46-.18-.87.72.06,1.32.06a.43.43,0,0,0,.5-.48V12.76h-3.36Zm3.36-7h-3.36V9.94h3.36ZM150.32,12h3.36V10.72h-3.36ZM156,8.07h.89v5.28H156Zm2.42-.56h.91v6.55c0,1-.45,1.45-1.36,1.45-.41,0-.93,0-1.55,0,0-.32-.09-.65-.16-1q.87.09,1.41.09a.67.67,0,0,0,.75-.76Z"/><path class="cls-31" d="M160.52,13.45c1-.13,2.15-.3,3.5-.51,0,.33-.07.58-.08.73l-3.21.67Zm1.38-2.4c.37,0,1-.07,2-.16,0,.32-.07.58-.09.76-1.54.13-2.51.23-2.92.29l-.17-.74a11,11,0,0,0,1.56-2.39l-1.56.13-.22-.74a22.9,22.9,0,0,0,2-4l.92.33c-.66,1.4-1.29,2.61-1.9,3.63.25,0,.63,0,1.14,0,.21-.4.42-.84.65-1.31l.84.37Q162.66,9.89,161.9,11.05Zm2.19.76.53-.51c.43.34.86.7,1.27,1.06a7.56,7.56,0,0,0,.71-1.67h-2.46V9.9h3.28v.77a9.35,9.35,0,0,1-.89,2.25c.37.35.75.7,1.11,1.06l-.63.62c-.31-.32-.62-.64-.94-.95a8.46,8.46,0,0,1-2.13,2,5.34,5.34,0,0,0-.62-.64,8,8,0,0,0,2.13-2C165,12.63,164.56,12.22,164.09,11.81Zm.13-5.27.53-.51c.45.38.87.74,1.27,1.1a5.14,5.14,0,0,0,.79-1.61H164.2V4.73h3.47v.76a7.13,7.13,0,0,1-1.06,2.18c.38.35.73.69,1.07,1l-.62.61c-.27-.31-.59-.65-1-1a7.82,7.82,0,0,1-1.78,1.4c-.21-.28-.38-.5-.53-.67a6.85,6.85,0,0,0,1.73-1.29C165.13,7.36,164.7,7,164.22,6.54Zm3.52,4.17V9.92h3.94v.78a7.73,7.73,0,0,1-1.4,2.86,6.13,6.13,0,0,0,1.93,1.25c-.21.3-.39.57-.53.82a7.07,7.07,0,0,1-2-1.42,8.67,8.67,0,0,1-2.17,1.52c-.18-.24-.36-.47-.57-.71a7.77,7.77,0,0,0,2.18-1.46A6.86,6.86,0,0,1,168,10.71Zm.1-4.16.52-.54c.53.4,1,.81,1.57,1.22a5.62,5.62,0,0,0,.91-1.71h-2.77V4.73h3.66v.72a6.88,6.88,0,0,1-1.16,2.29L172,9l-.64.66c-.42-.42-.86-.83-1.33-1.24a8.57,8.57,0,0,1-1.84,1.4,4.69,4.69,0,0,0-.52-.7,6.92,6.92,0,0,0,1.74-1.25C168.91,7.4,168.39,7,167.84,6.55Zm3,4.16h-2.07a5.63,5.63,0,0,0,1,2.2A6.26,6.26,0,0,0,170.82,10.71Z"/><path class="cls-31" d="M103.41,10.72v3.39h-1.18V5h2.58a3.36,3.36,0,0,1,2.29.71,2.54,2.54,0,0,1,.81,2,2.75,2.75,0,0,1-1,2.17,3.35,3.35,0,0,1-2.38.78Zm0-4.65V9.69h1.08a2.42,2.42,0,0,0,1.63-.48,1.76,1.76,0,0,0,.56-1.39c0-1.17-.7-1.75-2.08-1.75Z"/><path class="cls-31" d="M110.75,5v9.07h-1.17V5Z"/><path class="cls-31" d="M114.28,10.72v3.39H113.1V5h2.58a3.31,3.31,0,0,1,2.28.71,2.55,2.55,0,0,1,.82,2,2.75,2.75,0,0,1-1,2.17,3.35,3.35,0,0,1-2.38.78Zm0-4.65V9.69h1.08A2.44,2.44,0,0,0,117,9.21a1.76,1.76,0,0,0,.55-1.39c0-1.17-.69-1.75-2.07-1.75Z"/><path class="cls-31" d="M138.64,49.86h-1.39l-4.57-7.06a3.74,3.74,0,0,1-.31-.59h0a11.46,11.46,0,0,1,0,1.27v6.38h-1.16V40.79h1.48l4.44,6.93a6.47,6.47,0,0,1,.37.63h0a9.92,9.92,0,0,1-.06-1.32V40.79h1.16Z"/><path class="cls-31" d="M148.11,49.86h-1.29l-.93-2.48h-3.78l-.87,2.48h-1.3l3.46-9.07h1.25Zm-2.58-3.51-1.37-3.77A3.42,3.42,0,0,1,144,42h0a4.94,4.94,0,0,1-.15.63l-1.36,3.77Z"/><path class="cls-31" d="M154,41.83h-2.62v8h-1.18v-8h-2.61v-1H154Z"/><path class="cls-31" d="M58.12,10.72v3.39H57V5h2.58a3.31,3.31,0,0,1,2.28.71,2.54,2.54,0,0,1,.81,2,2.72,2.72,0,0,1-.95,2.17,3.31,3.31,0,0,1-2.37.78Zm0-4.65V9.69h1.09a2.46,2.46,0,0,0,1.63-.48,1.76,1.76,0,0,0,.55-1.39c0-1.17-.69-1.75-2.07-1.75Z"/><path class="cls-31" d="M65.46,5v9.07H64.29V5Z"/><path class="cls-31" d="M69,10.72v3.39H67.82V5H70.4a3.31,3.31,0,0,1,2.28.71,2.54,2.54,0,0,1,.81,2,2.72,2.72,0,0,1-.95,2.17,3.31,3.31,0,0,1-2.37.78Zm0-4.65V9.69h1.09a2.41,2.41,0,0,0,1.62-.48,1.73,1.73,0,0,0,.56-1.39c0-1.17-.69-1.75-2.07-1.75Z"/><path class="cls-31" d="M39.23,101.16h5.58V99.82l3.45-2.54H40.49v-.91h9.36v.95l-4,3v.86h5.26v.91H45.83v3.83q0,1.62-1.68,1.62c-.37,0-1,0-1.89,0q0-.48-.15-1.11a15.49,15.49,0,0,0,1.85.13.77.77,0,0,0,.85-.88v-3.57H39.23Z"/><path class="cls-31" d="M53.31,98.94l.7-.38c.48.76,1,1.55,1.43,2.34a26.37,26.37,0,0,0,1-2.52l.81.3a32.4,32.4,0,0,1-1.3,3.1c.46.8.91,1.61,1.36,2.44l-.81.44c-.33-.64-.68-1.29-1-1.93a26.37,26.37,0,0,1-1.59,2.64l-.72-.42v2.54h-.9V96.39H62.48v9.74c0,.86-.46,1.3-1.38,1.3l-1.83,0c0-.26-.1-.57-.17-1,.67.06,1.24.09,1.72.09s.76-.22.76-.67V97.26H53.16v7.64A29.05,29.05,0,0,0,55,101.83C54.45,100.87,53.89,99.91,53.31,98.94Zm4,.58.7-.41c.4.65.81,1.35,1.24,2.08a25.31,25.31,0,0,0,1.17-2.74l.81.32a35.46,35.46,0,0,1-1.48,3.3c.51.87,1,1.8,1.57,2.78l-.81.46c-.4-.77-.81-1.54-1.24-2.33-.5.9-1,1.75-1.59,2.56l-.73-.47a31.4,31.4,0,0,0,1.82-3C58.3,101.24,57.81,100.39,57.3,99.52Z"/><path class="cls-31" d="M75.59,106H74.26l-.94-2.57H69.45l-.9,2.57H67.23l3.54-9.41h1.28Zm-2.65-3.64-1.4-3.91a4.66,4.66,0,0,1-.14-.65h0a5,5,0,0,1-.15.65l-1.4,3.91Z"/><path class="cls-31" d="M145.61,101.12h5.45V99.84l3.36-2.44h-7.58v-.88H156v.91l-3.92,2.86v.83h5.13V102h-5.13v3.68c0,1-.55,1.57-1.64,1.57l-1.85,0c0-.31-.08-.66-.15-1.06a17.37,17.37,0,0,0,1.81.12.74.74,0,0,0,.83-.84V102h-5.45Z"/><path class="cls-31" d="M159.35,99l.69-.37c.47.74.93,1.49,1.39,2.26a24.22,24.22,0,0,0,1-2.43l.8.29c-.39,1.05-.82,2-1.28,3,.45.76.89,1.54,1.33,2.34l-.79.42-1-1.86a26.58,26.58,0,0,1-1.55,2.55l-.71-.4v2.43h-.88V96.53h10v9.37c0,.84-.45,1.26-1.34,1.26l-1.8,0c0-.25-.09-.55-.16-.91.66,0,1.21.08,1.67.08s.75-.21.75-.64V97.37h-8.22v7.35a30.83,30.83,0,0,0,1.78-3C160.47,100.85,159.92,99.92,159.35,99Zm3.9.56.68-.4c.39.63.8,1.3,1.21,2a25.65,25.65,0,0,0,1.15-2.63l.79.3q-.66,1.67-1.44,3.18c.49.84,1,1.73,1.53,2.68l-.79.44c-.39-.74-.8-1.49-1.22-2.24-.48.86-1,1.68-1.54,2.46l-.72-.45a31.64,31.64,0,0,0,1.78-2.87C164.23,101.21,163.75,100.38,163.25,99.55Z"/><path class="cls-31" d="M174,105.79V96.74h2.67a3,3,0,0,1,1.9.57,1.83,1.83,0,0,1,.72,1.51,2.11,2.11,0,0,1-.43,1.32,2.27,2.27,0,0,1-1.16.81v0a2.3,2.3,0,0,1,1.48.7,2.13,2.13,0,0,1,.55,1.5,2.37,2.37,0,0,1-.84,1.89,3.19,3.19,0,0,1-2.15.72Zm1.17-8v2.84h1.07a2,2,0,0,0,1.33-.41A1.44,1.44,0,0,0,178,99c0-.85-.57-1.28-1.71-1.28Zm0,3.86v3.15h1.41a2.17,2.17,0,0,0,1.42-.42,1.49,1.49,0,0,0,.5-1.18c0-1-.71-1.55-2.12-1.55Z"/><path class="cls-31" d="M33.9,156.7l-3.35,9.22H29.24L26,156.7h1.31l2.45,7.21a4.28,4.28,0,0,1,.18.83h0a3.23,3.23,0,0,1,.21-.84l2.5-7.2Z"/><path class="cls-31" d="M43.38,165.92v-6.11c0-.5,0-1.11.09-1.81h0a5.65,5.65,0,0,1-.27.93l-3,7h-.66l-3-6.94a6.61,6.61,0,0,1-.27-1h0c0,.43.06,1.05.06,1.87v6H35.14V156.7h1.6L39.42,163a8.31,8.31,0,0,1,.41,1.13h0c.21-.56.35-1,.43-1.15L43,156.7h1.51v9.22Z"/><path class="cls-31" d="M75.64,156.7l-3.34,9.22H71l-3.28-9.22H69l2.45,7.21a4.28,4.28,0,0,1,.18.83h0a3.23,3.23,0,0,1,.21-.84l2.5-7.2Z"/><path class="cls-31" d="M85.13,165.92v-6.11c0-.5,0-1.11.09-1.81h0a5.65,5.65,0,0,1-.27.93l-3,7h-.65l-3-6.94a6.61,6.61,0,0,1-.27-1h0c0,.43.05,1.05.05,1.87v6H76.89V156.7h1.59L81.17,163a8.31,8.31,0,0,1,.41,1.13h0c.2-.56.35-1,.43-1.15l2.73-6.3H86.3v9.22Z"/><path class="cls-31" d="M139.23,156.7l-3.35,9.22h-1.3l-3.29-9.22h1.31l2.45,7.21a4.25,4.25,0,0,1,.19.83h0a3.69,3.69,0,0,1,.21-.84l2.5-7.2Z"/><path class="cls-31" d="M148.71,165.92v-6.11c0-.5,0-1.11.09-1.81h0a5.65,5.65,0,0,1-.27.93l-3,7h-.66l-3-6.94a4.77,4.77,0,0,1-.27-1h0c0,.43.06,1.05.06,1.87v6h-1.13V156.7h1.6l2.69,6.32a8,8,0,0,1,.4,1.13h0c.21-.56.35-1,.43-1.15l2.74-6.3h1.52v9.22Z"/><path class="cls-31" d="M174.8,156.7l-3.34,9.22h-1.31l-3.28-9.22h1.3l2.46,7.21a4.28,4.28,0,0,1,.18.83h0a3.66,3.66,0,0,1,.2-.84l2.5-7.2Z"/><path class="cls-31" d="M184.29,165.92v-6.11c0-.5,0-1.11.09-1.81h0a5.65,5.65,0,0,1-.27.93l-3,7h-.65l-3-6.94a6.61,6.61,0,0,1-.27-1h0c0,.43.06,1.05.06,1.87v6h-1.12V156.7h1.59l2.69,6.32a10,10,0,0,1,.41,1.13h0c.2-.56.34-1,.43-1.15l2.73-6.3h1.52v9.22Z"/><path class="cls-31" d="M187.36,164.19a3.42,3.42,0,0,0,1.11.61,4.38,4.38,0,0,0,1.33.23q1.92,0,1.92-1.38a1.24,1.24,0,0,0-.2-.69,2,2,0,0,0-.57-.55,14.88,14.88,0,0,0-1.35-.73,5.12,5.12,0,0,1-1.8-1.29,2.21,2.21,0,0,1-.44-1.35,2.13,2.13,0,0,1,.92-1.82,3.74,3.74,0,0,1,2.3-.68,4.36,4.36,0,0,1,2,.34v1.3a3.5,3.5,0,0,0-2.08-.58,2.43,2.43,0,0,0-1.36.35,1.12,1.12,0,0,0-.53,1,1.23,1.23,0,0,0,.36.91,7.9,7.9,0,0,0,1.58,1,5.61,5.61,0,0,1,1.88,1.29,2.24,2.24,0,0,1,.54,1.46,2.21,2.21,0,0,1-.87,1.87,4,4,0,0,1-2.42.65,5.7,5.7,0,0,1-1.26-.16,3,3,0,0,1-1-.37Z"/><path class="cls-31" d="M194.27,164.19a3.38,3.38,0,0,0,1.12.61,4.38,4.38,0,0,0,1.33.23q1.92,0,1.92-1.38a1.17,1.17,0,0,0-.21-.69,2,2,0,0,0-.56-.55,14.88,14.88,0,0,0-1.35-.73,5.18,5.18,0,0,1-1.81-1.29,2.2,2.2,0,0,1-.43-1.35,2.12,2.12,0,0,1,.91-1.82,3.76,3.76,0,0,1,2.3-.68,4.33,4.33,0,0,1,2,.34v1.3a3.48,3.48,0,0,0-2.08-.58A2.45,2.45,0,0,0,196,158a1.14,1.14,0,0,0-.53,1,1.24,1.24,0,0,0,.37.91,7.6,7.6,0,0,0,1.58,1,5.72,5.72,0,0,1,1.88,1.29,2.28,2.28,0,0,1,.53,1.46,2.21,2.21,0,0,1-.87,1.87,4,4,0,0,1-2.42.65,5.7,5.7,0,0,1-1.26-.16,3,3,0,0,1-1-.37Z"/><path class="cls-31" d="M13.2,216.7v2.85q0,3.81-1.52,5.62c-.21-.25-.43-.5-.68-.76a7.35,7.35,0,0,0,1.29-4.71v-3.81h3.95v-2.46h.94v.93h4.75v.78H17.18v.75h5.36l-.08,1.93-.89,0,.08-1.09ZM13,224h3v-3.5h.92V224H18.4v-3.53h.92V224h3.31v.81H13Zm.53-6.13,2.58-.16v-.8H17v.75l3.53-.21,0,.77-3.57.21v.3c0,.36.23.54.7.54H20c.53,0,.84-.19.91-.56a5.9,5.9,0,0,0,.15-.84c.25.11.54.21.84.32-.07.35-.14.65-.21.88q-.24,1-1.56,1H17.5c-.94,0-1.41-.42-1.41-1.25v-.33l-2.53.15Zm0,3.37.71-.46a23.7,23.7,0,0,1,1.37,2l-.78.51C14.38,222.51,14,221.83,13.52,221.22Zm6.17,1.46a16,16,0,0,0,1.41-2l.8.48c-.51.74-1,1.43-1.52,2.05Z"/><path class="cls-31" d="M23.16,219.81c.47-.13,1-.28,1.58-.46v-2.7H23.29v-.79h1.45v-2.3h.9v2.3H27v.79H25.64v2.41l1.42-.48c0,.39,0,.7,0,.92l-1.4.47v3.82c0,.79-.34,1.2-1,1.24-.37,0-.76,0-1.17,0q-.06-.45-.15-1a7.43,7.43,0,0,0,.95.07c.34,0,.5-.18.5-.53v-3.31l-1.45.52Zm7.07.21a4.83,4.83,0,0,0,.3.93c-.7.65-1.42,1.33-2.16,2.05a4.48,4.48,0,0,0-.54.68l-.62-.79a1.58,1.58,0,0,0,.37-1.09v-7.34h.89v7.26C28.91,221.33,29.5,220.76,30.23,220Zm2.18-6.35h.9q0,2-.06,3.57a15.1,15.1,0,0,1-.61,4.37c.85,1,1.61,1.89,2.27,2.74l-.79.65c-.6-.85-1.24-1.69-1.89-2.52a8.08,8.08,0,0,1-2.87,2.78,6.73,6.73,0,0,0-.65-.75,6.8,6.8,0,0,0,3-3.16,12.29,12.29,0,0,0,.6-4.12C32.37,216,32.4,214.85,32.41,213.67Zm-3.36.13.76-.4c.59,1.07,1.1,2,1.52,2.93l-.82.47C30,215.62,29.49,214.62,29.05,213.8Z"/><path class="cls-31" d="M13,229.87l.7-.37c.46.75.93,1.51,1.39,2.3a24,24,0,0,0,1-2.48l.8.3a32.24,32.24,0,0,1-1.28,3c.45.78.9,1.57,1.34,2.39l-.8.42c-.33-.62-.66-1.25-1-1.89a27.45,27.45,0,0,1-1.55,2.6l-.71-.41v2.48H12V227.37H22v9.55c0,.85-.45,1.27-1.35,1.27l-1.8,0c0-.26-.1-.57-.17-.93.66,0,1.22.08,1.68.08s.76-.22.76-.65v-8.45H12.84v7.49a29.49,29.49,0,0,0,1.78-3C14.1,231.77,13.55,230.82,13,229.87Zm3.92.57.68-.41c.39.65.8,1.33,1.22,2.05a24.29,24.29,0,0,0,1.14-2.69l.81.31c-.45,1.13-.93,2.21-1.46,3.24.5.86,1,1.77,1.54,2.73l-.79.45c-.39-.76-.8-1.52-1.22-2.29q-.74,1.32-1.56,2.52l-.71-.47A32.22,32.22,0,0,0,18.33,233C17.87,232.13,17.4,231.29,16.9,230.44Z"/><path class="cls-31" d="M24.7,233.72c.81-.08,1.59-.17,2.31-.27,0,.36-.05.63-.08.81-1.39.17-2.48.32-3.27.44l-.19-.87a9.55,9.55,0,0,0,1.9-2.63l-1.83.14-.23-.78a20.65,20.65,0,0,0,1.92-3.85l.91.33a34,34,0,0,1-1.83,3.45l1.47,0c.29-.52.59-1.11.92-1.75l.87.38A53.86,53.86,0,0,1,24.7,233.72Zm-1.39,2.79c1.3-.25,2.66-.55,4.07-.88,0,.38-.05.68-.05.91-1.25.28-2.51.59-3.76.91Zm3.92-5.88a16.64,16.64,0,0,0,2.16-4l.88.3c-.15.36-.31.72-.47,1.06H34v.84a10.29,10.29,0,0,1-2.16,2.63,12.69,12.69,0,0,0,3,1.27,9.22,9.22,0,0,0-.47,1A13,13,0,0,1,31.08,232a16,16,0,0,1-3.5,1.85c-.17-.27-.35-.54-.57-.83a14.48,14.48,0,0,0,3.35-1.64,7.08,7.08,0,0,1-1.4-1.83,20.42,20.42,0,0,1-1.12,1.72A8.36,8.36,0,0,0,27.23,230.63Zm.9,3.15h5.81v4.64H33v-.6H29v.6h-.91Zm4.91.86H29V237h4Zm-.11-5.89H29.44a7.15,7.15,0,0,0,1.63,2.1A8.57,8.57,0,0,0,32.93,228.75Z"/><path class="cls-31" d="M94.59,218.77c.63.45,1.35,1,2.14,1.63-.28.35-.51.61-.69.8-.78-.69-1.47-1.27-2.06-1.74Zm.84,3.4a3.47,3.47,0,0,0,.87.42c-.34,1.38-.71,3-1.13,4.75l-.94-.32C94.7,225.35,95.1,223.74,95.43,222.17Zm-.32-6.54c.64.48,1.31,1,2,1.65-.28.28-.53.52-.73.74-.71-.7-1.34-1.27-1.88-1.72Zm4.42,2.91h1.59q.25-.69.51-1.44H98.54v3.51c0,3.2-.62,5.49-1.88,6.87a5.44,5.44,0,0,0-.71-.75c1.13-1.26,1.69-3.29,1.69-6.11v-4.35h8.47v.83h-3.42l-.69,1.44h3.22v5h-.88v-.32h-1.57v2.87a1.14,1.14,0,0,1-1.27,1.31h-1.07c0-.25-.09-.53-.17-.85.41,0,.76.05,1.06.05a.51.51,0,0,0,.57-.58v-2.79h-1.48v.32h-.88Zm-1.11,7.88a13.34,13.34,0,0,0,1.84-2.5l.78.48a19.61,19.61,0,0,1-1.9,2.58Zm5.92-7.08h-3.93v1.14h3.93Zm-3.93,3.08h3.93v-1.16h-3.93Zm5.68,3.89-.77.59c-.58-.87-1.21-1.72-1.88-2.54l.7-.5C104.89,224.72,105.53,225.54,106.09,226.31Z"/><path class="cls-31" d="M107.09,217.47h1.23c.3-.74.55-1.41.75-2l1,.29c-.26.62-.5,1.2-.74,1.73h2.44v9.72h-1v-.95h-2.75v1h-1Zm3.72.92h-2.75v3h2.75Zm-2.75,6.93h2.75v-3.09h-2.75ZM112,220a18,18,0,0,0,1.94-4.53l1,.25c-.21.62-.42,1.2-.64,1.74h3.93c-.09,4.18-.18,6.81-.24,7.9a1.79,1.79,0,0,1-2,1.91c-.74,0-1.49,0-2.25-.07a8.93,8.93,0,0,0-.2-1.09h0a15.28,15.28,0,0,0,2.23.17,1.1,1.1,0,0,0,1.2-1.17q.14-1.82.19-6.74h-3.27a16,16,0,0,1-1.1,2.08A4.06,4.06,0,0,0,112,220Zm1.07.83.75-.55c.9,1.06,1.62,2,2.16,2.77l-.9.63A29.91,29.91,0,0,0,113,220.81Z"/><path class="cls-31" d="M119.14,219.5l.61-.71c.66.46,1.35,1,2.07,1.58-.29.34-.53.6-.7.79C120.27,220.4,119.61,219.85,119.14,219.5Zm.38,7.54a41.81,41.81,0,0,0,1.27-4.73c.35.15.68.28,1,.38-.36,1.4-.76,3-1.18,4.68Zm.09-10.73.63-.64c.59.47,1.25,1,2,1.68l-.72.72C120.83,217.39,120.2,216.8,119.61,216.31Zm3.87,5.46h.93a9.7,9.7,0,0,1-.5,3.75,4.24,4.24,0,0,1-2,2,4.16,4.16,0,0,0-.62-.8A3.52,3.52,0,0,0,123,225,8.28,8.28,0,0,0,123.48,221.77Zm5.29-3.23c.63.73,1.34,1.62,2.11,2.67l-.88.57-.59-.85-5.51.27a5.32,5.32,0,0,0-1,.14l-.41-.91a5.2,5.2,0,0,0,.85-.56,14,14,0,0,0,1.88-2h-2.71V217h3.88c-.31-.48-.61-.9-.89-1.26l.81-.5c.3.39.64.83,1,1.35l-.63.41h4.15v.87h-5.4l.81.34a26.15,26.15,0,0,1-2.12,2.05l4.66-.16c-.28-.38-.55-.74-.81-1.06Zm-2.88,3.23h.91v5.45h-.91Zm2.23-.05H129v4.09c0,.38.14.56.44.56h.43c.25,0,.41-.2.47-.62s.09-.95.11-1.54a9.8,9.8,0,0,0,.92.36c-.06.68-.12,1.2-.19,1.57a1.08,1.08,0,0,1-1.16,1.09h-.75c-.79,0-1.19-.48-1.19-1.43Z"/><path class="cls-31" d="M132,217.56h5.86c-.42-.78-.74-1.35-1-1.71l.95-.45c.23.35.57.92,1,1.71l-.89.45h5.78v.93h-7.4q0,1.11-.09,1.89h5.89c-.09,1.77-.2,3.3-.31,4.6-.09,1.47-.81,2.21-2.15,2.21-.62,0-1.45,0-2.48-.1,0-.31-.1-.68-.18-1.12a19.5,19.5,0,0,0,2.51.21c.75,0,1.17-.45,1.26-1.33s.18-2.16.26-3.55h-4.87a8,8,0,0,1-3.73,6.25c-.22-.27-.47-.54-.74-.83a7.11,7.11,0,0,0,3.45-5.69c.06-.65.11-1.49.14-2.54H132Z"/><path class="cls-31" d="M146.18,227.35h-1v-10h3.6c.2-.6.4-1.23.59-1.89l1,.29c-.21.57-.41,1.1-.62,1.6h5.72v8.58a1.22,1.22,0,0,1-1.38,1.38l-1.86,0c0-.28-.1-.6-.17-.95.7.06,1.29.09,1.78.09s.67-.24.67-.71v-7.46h-8.42Zm1.67-7.36h5.06v4.28h-4.13v.85h-.93Zm4.13.88h-3.2v2.52H152Z"/><path class="cls-31" d="M96.8,241.19a8.37,8.37,0,0,1-2.06-5.76,8.7,8.7,0,0,1,2.06-5.84h1a9,9,0,0,0-2.06,5.83,8.75,8.75,0,0,0,2,5.77Z"/><path class="cls-31" d="M100.58,229.58l-.21,2.94h-.81l-.2-2.94Zm1.64,0-.19,2.94h-.83l-.2-2.94Z"/><path class="cls-31" d="M108,233.48a1.33,1.33,0,0,0-.82-.22,1.35,1.35,0,0,0-1.15.65,3,3,0,0,0-.45,1.71V239h-1.2v-6.75h1.2v1.38h0a1.84,1.84,0,0,1,1.77-1.49,1.75,1.75,0,0,1,.63.09Z"/><path class="cls-31" d="M114.51,236h-4.72a2.44,2.44,0,0,0,.59,1.67,2.09,2.09,0,0,0,1.57.59,3.3,3.3,0,0,0,2.08-.73v1.07a4,4,0,0,1-2.36.63,2.9,2.9,0,0,1-2.29-.93,3.77,3.77,0,0,1-.82-2.57,3.69,3.69,0,0,1,.9-2.56,2.89,2.89,0,0,1,2.24-1,2.64,2.64,0,0,1,2.07.85,3.51,3.51,0,0,1,.74,2.39Zm-1.19-1a2.12,2.12,0,0,0-.44-1.41,1.46,1.46,0,0,0-1.2-.5,1.64,1.64,0,0,0-1.23.53,2.43,2.43,0,0,0-.66,1.38Z"/><path class="cls-31" d="M122.05,242.15h-1.19v-4.24h0a2.4,2.4,0,0,1-2.28,1.29,2.54,2.54,0,0,1-2-.9,3.69,3.69,0,0,1-.77-2.47,4.07,4.07,0,0,1,.84-2.69,2.82,2.82,0,0,1,2.26-1,2.12,2.12,0,0,1,2,1.08h0v-.92h1.19Zm-1.19-7.1a2,2,0,0,0-.51-1.36,1.74,1.74,0,0,0-1.35-.57,1.78,1.78,0,0,0-1.49.71,3.18,3.18,0,0,0-.55,2,2.73,2.73,0,0,0,.53,1.77,1.66,1.66,0,0,0,1.37.64,1.81,1.81,0,0,0,1.46-.64,2.36,2.36,0,0,0,.54-1.59Z"/><path class="cls-31" d="M129.85,239h-1.2V238h0a2.23,2.23,0,0,1-2.08,1.22c-1.6,0-2.4-1-2.4-2.87v-4h1.19v3.87c0,1.37.52,2.05,1.57,2.05a1.6,1.6,0,0,0,1.27-.57,2.21,2.21,0,0,0,.48-1.46v-3.89h1.2Z"/><path class="cls-31" d="M137.57,236h-4.73a2.4,2.4,0,0,0,.6,1.67,2,2,0,0,0,1.56.59,3.3,3.3,0,0,0,2.08-.73v1.07a4,4,0,0,1-2.36.63,2.88,2.88,0,0,1-2.28-.93,3.72,3.72,0,0,1-.82-2.57,3.69,3.69,0,0,1,.9-2.56,2.87,2.87,0,0,1,2.23-1,2.61,2.61,0,0,1,2.07.85,3.51,3.51,0,0,1,.75,2.39Zm-1.2-1a2.12,2.12,0,0,0-.43-1.41,1.49,1.49,0,0,0-1.2-.5,1.66,1.66,0,0,0-1.24.53,2.43,2.43,0,0,0-.66,1.38Z"/><path class="cls-31" d="M138.87,237.58a3.23,3.23,0,0,0,1.95.66c.93,0,1.39-.31,1.39-.92a.8.8,0,0,0-.3-.64,4.87,4.87,0,0,0-1.24-.6,3.55,3.55,0,0,1-1.46-.9,1.73,1.73,0,0,1-.34-1.07,1.7,1.7,0,0,1,.76-1.44,3.15,3.15,0,0,1,1.87-.54,4.18,4.18,0,0,1,1.6.3v1.16a3,3,0,0,0-1.71-.49,1.57,1.57,0,0,0-.93.25.74.74,0,0,0-.37.66.81.81,0,0,0,.26.63,5,5,0,0,0,1.15.58,3.83,3.83,0,0,1,1.53.87,1.6,1.6,0,0,1,.4,1.12,1.72,1.72,0,0,1-.76,1.46,3.42,3.42,0,0,1-2,.53,3.92,3.92,0,0,1-1.83-.4Z"/><path class="cls-31" d="M148.36,239a2.1,2.1,0,0,1-1.05.22c-1.21,0-1.82-.67-1.82-2v-3.9h-1.16v-1h1.16v-1.62l1.19-.38v2h1.68v1h-1.68V237a1.56,1.56,0,0,0,.23.95.9.9,0,0,0,.75.29,1.13,1.13,0,0,0,.7-.23Z"/><path class="cls-31" d="M151.31,229.58l-.21,2.94h-.81l-.2-2.94Zm1.64,0-.19,2.94h-.83l-.2-2.94Z"/><path class="cls-31" d="M154.48,241.19a8.74,8.74,0,0,0,2.06-5.77,8.93,8.93,0,0,0-2.07-5.83h1.06a8.67,8.67,0,0,1,2.06,5.84,8.34,8.34,0,0,1-2.06,5.76Z"/><path class="cls-31" d="M99.07,266.89l3.05,0,4-.09c-.09.27-.2.59-.34,1h-3.93l-3,0a3.15,3.15,0,0,1-2.91-1.42A18.32,18.32,0,0,0,94.45,268l-.5-1,1.56-1.49v-4.11H94.06v-.9h2.39v5.22A2.91,2.91,0,0,0,99.07,266.89Zm-3.59-10.54q.61.76,1.71,2.31l-.87.61c-.66-1-1.2-1.83-1.62-2.39Zm4.06,5.33.59-.64c.87.65,1.69,1.28,2.48,1.89a8,8,0,0,0,1.61-2.52H99.31a8.19,8.19,0,0,1-1.72,5.5,9.9,9.9,0,0,0-.65-.77,7.13,7.13,0,0,0,1.44-4.82V257a51.65,51.65,0,0,0,7-.53l.34.95c-2.1.22-4.24.37-6.42.43v1.72h5.91v.87a8.86,8.86,0,0,1-1.85,3.1c.85.67,1.63,1.33,2.36,2l-.73.8c-.78-.71-1.56-1.4-2.34-2.06a13.37,13.37,0,0,1-3.52,2.2c-.18-.25-.38-.51-.61-.78a13,13,0,0,0,3.38-2.05C101.12,262.93,100.33,262.29,99.54,261.68Z"/><path class="cls-31" d="M107.32,256.85H118V268h-1v-.79h-8.61V268h-1Zm9.64.91h-8.61v8.62H117Zm-6.91,1.87h5.19V265h-.95v-.68H111V265h-1Zm4.24.85H111v2.94h3.28Z"/><path class="cls-31" d="M119.67,258.15h1.24c.3-.74.55-1.42.74-2l1,.29c-.26.63-.51,1.2-.75,1.74h2.45v9.71h-1v-.95h-2.75v1h-1Zm3.73.91h-2.75v3h2.75ZM120.65,266h2.75v-3.09h-2.75Zm3.91-5.35a18.08,18.08,0,0,0,1.94-4.53l1,.26c-.2.61-.41,1.19-.63,1.73h3.93c-.1,4.18-.18,6.82-.24,7.9a1.79,1.79,0,0,1-2,1.92c-.74,0-1.49,0-2.26-.08a8.86,8.86,0,0,0-.19-1.08h0a16.69,16.69,0,0,0,2.23.17,1.1,1.1,0,0,0,1.2-1.18q.13-1.81.19-6.73H126.5a16.49,16.49,0,0,1-1.1,2.07A5.32,5.32,0,0,0,124.56,260.65Zm1.07.83.75-.55c.9,1.07,1.62,2,2.16,2.77l-.91.64A27.08,27.08,0,0,0,125.63,261.48Z"/><path class="cls-31" d="M131.73,260.17l.61-.7c.66.45,1.35,1,2.07,1.57-.29.34-.53.61-.71.79C132.86,261.08,132.2,260.52,131.73,260.17Zm.37,7.55a37.69,37.69,0,0,0,1.27-4.74c.36.16.69.28,1,.38-.36,1.41-.76,3-1.18,4.69Zm.1-10.73.63-.65c.59.47,1.25,1,2,1.69l-.72.72A24.15,24.15,0,0,0,132.2,257Zm3.87,5.45H137a9.83,9.83,0,0,1-.5,3.75,4.3,4.3,0,0,1-2,2,4.57,4.57,0,0,0-.62-.81,3.54,3.54,0,0,0,1.77-1.68A8.3,8.3,0,0,0,136.07,262.44Zm5.29-3.23c.63.73,1.34,1.62,2.11,2.67l-.88.58-.59-.86-5.51.27a5.46,5.46,0,0,0-1,.15l-.42-.92a4.38,4.38,0,0,0,.86-.56,14,14,0,0,0,1.88-2h-2.71v-.87H139c-.31-.48-.61-.9-.89-1.25l.81-.5c.3.38.64.83,1,1.34l-.63.41h4.15v.87h-5.4l.81.34a23.19,23.19,0,0,1-2.13,2.05l4.67-.16c-.28-.38-.55-.73-.81-1.06Zm-2.88,3.23h.91v5.45h-.91Zm2.23,0h.92v4.09c0,.37.14.56.44.56h.42c.26,0,.41-.21.48-.63s.09-.95.11-1.53a9.6,9.6,0,0,0,.91.35,14.46,14.46,0,0,1-.18,1.57,1.08,1.08,0,0,1-1.16,1.09h-.76c-.78,0-1.18-.47-1.18-1.43Z"/><path class="cls-31" d="M144.53,258.23h5.86q-.62-1.17-1-1.71l.95-.45c.23.35.57.92,1,1.71l-.9.45h5.79v.93h-7.4c0,.74-.06,1.37-.1,1.89h5.9c-.1,1.77-.2,3.3-.32,4.61-.09,1.47-.8,2.2-2.14,2.2-.62,0-1.45,0-2.48-.09,0-.31-.1-.69-.19-1.13a19.78,19.78,0,0,0,2.52.21c.75,0,1.17-.44,1.26-1.33s.18-2.15.25-3.55h-4.86a7.93,7.93,0,0,1-3.73,6.25c-.22-.26-.47-.54-.75-.83a7.13,7.13,0,0,0,3.46-5.69c.06-.64.1-1.49.14-2.54h-3.33Z"/><path class="cls-31" d="M158.77,268h-1V258h3.6c.2-.6.4-1.23.58-1.89l1.05.29c-.21.57-.42,1.11-.62,1.6h5.71v8.58a1.22,1.22,0,0,1-1.38,1.38l-1.85,0c0-.29-.1-.6-.17-.95.7.05,1.29.08,1.78.08s.67-.23.67-.71V258.9h-8.42Zm1.67-7.36h5.05V265h-4.12v.84h-.93Zm4.13.88h-3.2v2.53h3.2Z"/><path class="cls-31" d="M96.8,281.86a8.37,8.37,0,0,1-2.06-5.75,8.73,8.73,0,0,1,2.06-5.85h1a9,9,0,0,0-2.06,5.84,8.72,8.72,0,0,0,2,5.76Z"/><path class="cls-31" d="M100.58,270.25l-.21,2.94h-.81l-.2-2.94Zm1.64,0-.19,2.94h-.83l-.2-2.94Z"/><path class="cls-31" d="M108,274.15a1.4,1.4,0,0,0-.82-.21,1.33,1.33,0,0,0-1.15.65,2.93,2.93,0,0,0-.45,1.71v3.42h-1.2V273h1.2v1.37h0a1.85,1.85,0,0,1,1.77-1.49,1.75,1.75,0,0,1,.63.09Z"/><path class="cls-31" d="M114.51,276.65h-4.72a2.46,2.46,0,0,0,.59,1.67,2.08,2.08,0,0,0,1.57.58,3.35,3.35,0,0,0,2.08-.72v1.07a4,4,0,0,1-2.36.62,2.89,2.89,0,0,1-2.29-.92,3.8,3.8,0,0,1-.82-2.58,3.72,3.72,0,0,1,.9-2.56,2.88,2.88,0,0,1,2.24-1,2.61,2.61,0,0,1,2.07.85,3.48,3.48,0,0,1,.74,2.38Zm-1.19-1a2.17,2.17,0,0,0-.44-1.42,1.49,1.49,0,0,0-1.2-.5,1.67,1.67,0,0,0-1.23.53,2.49,2.49,0,0,0-.66,1.39Z"/><path class="cls-31" d="M117.39,278.76v4.06h-1.2V273h1.2v1.16h0a2.54,2.54,0,0,1,2.32-1.32,2.46,2.46,0,0,1,2,.9,3.78,3.78,0,0,1,.74,2.44,4.17,4.17,0,0,1-.83,2.7,2.77,2.77,0,0,1-2.25,1,2.24,2.24,0,0,1-2-1.11Zm0-1.83a1.92,1.92,0,0,0,.54,1.39,1.72,1.72,0,0,0,1.33.57,1.76,1.76,0,0,0,1.49-.74,3.39,3.39,0,0,0,.53-2,2.6,2.6,0,0,0-.5-1.71,1.64,1.64,0,0,0-1.36-.62,1.91,1.91,0,0,0-1.46.62,2.32,2.32,0,0,0-.57,1.62Z"/><path class="cls-31" d="M124.26,279.72v-10h1.2v10Z"/><path class="cls-31" d="M133.17,273l-3.06,7.77c-.57,1.44-1.37,2.16-2.41,2.16a2.88,2.88,0,0,1-.77-.1v-1.05a1.9,1.9,0,0,0,.68.13,1.3,1.3,0,0,0,1.21-.95l.52-1.23L126.69,273H128l1.76,5.07.15.55h0a5.51,5.51,0,0,1,.14-.54L132,273Z"/><path class="cls-31" d="M136,270.25l-.2,2.94H135l-.19-2.94Zm1.65,0-.2,2.94h-.82l-.2-2.94Z"/><path class="cls-31" d="M139.19,281.86a8.71,8.71,0,0,0,2.06-5.76,9,9,0,0,0-2.07-5.84h1.06a8.73,8.73,0,0,1,2.06,5.85,8.36,8.36,0,0,1-2.06,5.75Z"/></g></svg>