<svg xmlns="http://www.w3.org/2000/svg" xmlns:xlink="http://www.w3.org/1999/xlink" viewBox="0 0 332.33 285.86"><defs><style>.cls-1{fill:#fff;}.cls-2{fill:#ccc;fill-opacity:0.3;}.cls-23,.cls-24,.cls-26,.cls-3,.cls-35,.cls-37,.cls-4,.cls-9{fill:none;stroke-miterlimit:10;}.cls-23,.cls-3,.cls-4{stroke:#3c3c41;}.cls-4{stroke-dasharray:1.31 2.19;}.cls-5,.cls-6,.cls-7,.cls-8{fill:#3c3c41;}.cls-6{opacity:0.05;}.cls-34,.cls-38,.cls-39,.cls-6,.cls-7,.cls-8,.cls-9{isolation:isolate;}.cls-7{opacity:0.2;}.cls-8{opacity:0.02;}.cls-24,.cls-26,.cls-9{stroke:#365615;}.cls-9{stroke-width:0.5px;opacity:0.5;}.cls-10{fill:url(#Degradado_sin_nombre);}.cls-11{fill:#50e6ff;}.cls-12{fill:#c3f1ff;}.cls-13{fill:#9cebff;}.cls-14{fill:url(#Degradado_sin_nombre_2);}.cls-15{fill:url(#Degradado_sin_nombre_3);}.cls-16{fill:url(#Degradado_sin_nombre_4);}.cls-17{fill:#005ba1;}.cls-18{fill:#0078d4;}.cls-19{fill:url(#Degradado_sin_nombre_5);}.cls-20{fill:url(#Degradado_sin_nombre_6);}.cls-21{fill:url(#Degradado_sin_nombre_7);}.cls-22{fill:url(#Degradado_sin_nombre_8);}.cls-23,.cls-26,.cls-37{stroke-dasharray:1.46 2.43;}.cls-25{fill:#365615;}.cls-27{fill:url(#Degradado_sin_nombre_9);}.cls-28{fill:url(#Degradado_sin_nombre_10);}.cls-29{fill:url(#Degradado_sin_nombre_11);}.cls-30{fill:#1490df;}.cls-31{fill:url(#Degradado_sin_nombre_12);}.cls-32{fill:#b4ec36;}.cls-33{fill:#5ea0ef;}.cls-34{fill:#9bf00b;}.cls-34,.cls-38,.cls-39{opacity:0.4;}.cls-35,.cls-37{stroke:#003067;}.cls-36{fill:#003067;}.cls-38{fill:#83b9f9;}.cls-39,.cls-40{fill:#6ebcdb;}.cls-41{fill:#5db4d7;}.cls-42{fill:#e6e6e6;}.cls-43{fill:#86d633;}.cls-44{fill:#1e1e1e;}.cls-45{fill:#767676;}</style><linearGradient id="Degradado_sin_nombre" x1="132.84" y1="445.76" x2="132.84" y2="427" gradientTransform="translate(0 -292.14)" gradientUnits="userSpaceOnUse"><stop offset="0" stop-color="#0078d4"/><stop offset="0.82" stop-color="#5ea0ef"/></linearGradient><linearGradient id="Degradado_sin_nombre_2" x1="132.84" y1="453" x2="132.84" y2="445.76" gradientTransform="translate(0 -292.14)" gradientUnits="userSpaceOnUse"><stop offset="0.15" stop-color="#ccc"/><stop offset="1" stop-color="#707070"/></linearGradient><linearGradient id="Degradado_sin_nombre_3" x1="173.92" y1="445.76" x2="173.92" y2="427" xlink:href="#Degradado_sin_nombre"/><linearGradient id="Degradado_sin_nombre_4" x1="173.94" y1="453" x2="173.94" y2="445.76" xlink:href="#Degradado_sin_nombre_2"/><linearGradient id="Degradado_sin_nombre_5" x1="300.19" y1="433.76" x2="300.19" y2="423.44" xlink:href="#Degradado_sin_nombre"/><linearGradient id="Degradado_sin_nombre_6" x1="300.24" y1="437.77" x2="300.24" y2="433.77" xlink:href="#Degradado_sin_nombre_2"/><linearGradient id="Degradado_sin_nombre_7" x1="252.5" y1="433.76" x2="252.5" y2="415" xlink:href="#Degradado_sin_nombre"/><linearGradient id="Degradado_sin_nombre_8" x1="252.5" y1="441" x2="252.5" y2="433.76" xlink:href="#Degradado_sin_nombre_2"/><linearGradient id="Degradado_sin_nombre_9" x1="75.68" y1="492.87" x2="78.04" y2="495.24" gradientTransform="translate(2.87 -293.36)" gradientUnits="userSpaceOnUse"><stop offset="0" stop-color="#86d633"/><stop offset="0.24" stop-color="#83d232"/><stop offset="0.5" stop-color="#7cc52f"/><stop offset="0.76" stop-color="#6fb02a"/><stop offset="1" stop-color="#5e9624"/></linearGradient><linearGradient id="Degradado_sin_nombre_10" x1="70.33" y1="492.87" x2="72.69" y2="495.24" xlink:href="#Degradado_sin_nombre_9"/><linearGradient id="Degradado_sin_nombre_11" x1="64.99" y1="492.87" x2="67.35" y2="495.24" xlink:href="#Degradado_sin_nombre_9"/><linearGradient id="Degradado_sin_nombre_12" x1="84.67" y1="357.92" x2="84.67" y2="321.98" gradientTransform="translate(0 -292.14)" gradientUnits="userSpaceOnUse"><stop offset="0" stop-color="#5e9624"/><stop offset="0.02" stop-color="#5f9724"/><stop offset="1" stop-color="#76bc2d"/></linearGradient></defs><title>OJ104903191</title><g id="Target"><g id="Shapes"><rect class="cls-1" width="332.33" height="285.86"/><rect class="cls-2" x="176.33" y="210.86" width="155" height="35"/><rect class="cls-2" x="176.33" y="250.86" width="155" height="35"/><line class="cls-3" x1="192.02" y1="260.86" x2="191.27" y2="260.86"/><line class="cls-4" x1="189.08" y1="260.86" x2="183.17" y2="260.86"/><line class="cls-3" x1="182.08" y1="260.86" x2="181.33" y2="260.86"/><polygon class="cls-5" points="191.15 257.86 196.33 260.86 191.15 263.85 191.15 257.86"/><path class="cls-1" d="M331.83,46.5v149a5,5,0,0,1-5,5h-270a5,5,0,0,1-5-5V46.5"/><path class="cls-6" d="M331.83,46.5v149a5,5,0,0,1-5,5h-270a5,5,0,0,1-5-5V46.5"/><path class="cls-5" d="M325.67,201h-1v-1h1Zm-3,0h-1v-1h1Zm-3,0h-1v-1h1Zm-3,0h-1v-1h1Zm-3,0h-1v-1h1Zm-3,0h-1v-1h1Zm-3,0h-1v-1h1Zm-3,0h-1v-1h1Zm-3,0h-1v-1h1Zm-3,0h-1v-1h1Zm-3,0h-1v-1h1Zm-3,0h-1v-1h1Zm-3,0h-1v-1h1Zm-3,0h-1v-1h1Zm-3,0h-1v-1h1Zm-3,0h-1v-1h1Zm-3,0h-1v-1h1Zm-3,0h-1v-1h1Zm-3,0h-1v-1h1Zm-3,0h-1v-1h1Zm-3,0h-1v-1h1Zm-3,0h-1v-1h1Zm-3,0h-1v-1h1Zm-3,0h-1v-1h1Zm-3,0h-1v-1h1Zm-3,0h-1v-1h1Zm-3,0h-1v-1h1Zm-3,0h-1v-1h1Zm-3,0h-1v-1h1Zm-3,0h-1v-1h1Zm-3,0h-1v-1h1Zm-3,0h-1v-1h1Zm-3,0h-1v-1h1Zm-3,0h-1v-1h1Zm-3,0h-1v-1h1Zm-3,0h-1v-1h1Zm-3,0h-1v-1h1Zm-3,0h-1v-1h1Zm-3,0h-1v-1h1Zm-3,0h-1v-1h1Zm-3,0h-1v-1h1Zm-3,0h-1v-1h1Zm-3,0h-1v-1h1Zm-3,0h-1v-1h1Zm-3,0h-1v-1h1Zm-3,0h-1v-1h1Zm-3,0h-1v-1h1Zm-3,0h-1v-1h1Zm-3,0h-1v-1h1Zm-3,0h-1v-1h1Zm-3,0h-1v-1h1Zm-3,0h-1v-1h1Zm-3,0h-1v-1h1Zm-3,0h-1v-1h1Zm-3,0h-1v-1h1Zm-3,0h-1v-1h1Zm-3,0h-1v-1h1Zm-3,0h-1v-1h1Zm-3,0h-1v-1h1Zm-3,0h-1v-1h1Zm-3,0h-1v-1h1Zm-3,0h-1v-1h1Zm-3,0h-1v-1h1Zm-3,0h-1v-1h1Zm-3,0h-1v-1h1Zm-3,0h-1v-1h1Zm-3,0h-1v-1h1Zm-3,0h-1v-1h1Zm-3,0h-1v-1h1Zm-3,0h-1v-1h1Zm-3,0h-1v-1h1Zm-3,0h-1v-1h1Zm-3,0h-1v-1h1Zm-3,0h-1v-1h1Zm-3,0h-1v-1h1Zm-3,0h-1v-1h1Zm-3,0h-1v-1h1Zm-3,0h-1v-1h1Zm-3,0h-1v-1h1Zm-33,0h-1v-1h1Zm269.5-.08-.17-1a4.31,4.31,0,0,0,.87-.24l.36.93a5.74,5.74,0,0,1-1.48.31Zm-272.64-.2a4.5,4.5,0,0,1-1-.45l.5-.86a4,4,0,0,0,.82.37Zm275.54-1.27-.69-.72A4.82,4.82,0,0,0,331,198l.82.57a6.26,6.26,0,0,1-1.13.84Zm-278.19-.61a6.1,6.1,0,0,1-.58-.94l.9-.44a4.66,4.66,0,0,0,.47.77Zm279.76-2.24-1-.21a4.41,4.41,0,0,0,.09-.89l1-.06v.06a5.77,5.77,0,0,1-.51,1.1Zm-280.88-.82v-1h1v1Zm281-2.34h-1v-1h1Zm-280-.69h-1v-1h1Zm280-2.32h-1v-1h1Zm-280-.68h-1v-1h1Zm280-2.32h-1v-1h1Zm-280-.69h-1v-1h1Zm280-2.32h-1v-1h1Zm-280-.68h-1v-1h1Zm280-2.32h-1v-1h1Zm-280-.69h-1v-1h1Zm280-2.31h-1v-1h1Zm-280-.69h-1v-1h1Zm280-2.32h-1v-1h1Zm-280-.69h-1v-1h1Zm280-2.31h-1v-1h1Zm-280-.69h-1v-1h1Zm280-2.32h-1v-1h1Zm-280-.69h-1v-1h1Zm280-2.31h-1v-1h1Zm-280-.69h-1v-1h1Zm280-2.32h-1v-1h1Zm-280-.69h-1v-1h1Zm280-2.31h-1v-1h1Zm-280-.69h-1v-1h1Zm280-2.32h-1v-1h1Zm-280-.69h-1v-1h1Zm280-2.31h-1v-1h1Zm-280-.69h-1v-1h1Zm280-2.32h-1v-1h1Zm-280-.69h-1v-1h1Zm280-2.31h-1v-1h1Zm-280-.69h-1v-1h1Zm280-2.32h-1v-1h1Zm-280-.68h-1v-1h1Zm280-2.32h-1v-1h1Zm-280-.69h-1v-1h1Zm280-2.32h-1v-1h1Zm-280-.68h-1v-1h1Zm280-2.32h-1v-1h1Zm-280-.69h-1v-1h1Zm280-2.32h-1v-1h1Zm-280-.68h-1v-1h1Zm280-2.32h-1v-1h1Zm-280-.69h-1v-1h1Zm280-2.32h-1v-1h1Zm-280-.68h-1v-1h1Zm280-2.32h-1v-1h1Zm-280-.69h-1v-1h1Zm280-2.31h-1v-1h1Zm-280-.69h-1v-1h1Zm280-2.32h-1v-1h1Zm-280-.69h-1v-1h1Zm280-2.31h-1v-1h1Zm-280-.69h-1v-1h1Zm280-2.32h-1v-1h1Zm-280-.69h-1v-1h1Zm280-2.31h-1v-1h1Zm-280-.69h-1v-1h1Zm280-2.32h-1v-1h1Zm-280-.69h-1v-1h1Zm280-2.31h-1v-1h1Zm-280-.69h-1v-1h1Zm280-2.32h-1v-1h1Zm-280-.69h-1v-1h1Zm280-2.31h-1v-1h1Zm-280-.69h-1v-1h1Zm280-2.32h-1v-1h1Zm-280-.69h-1v-1h1Zm280-2.31h-1v-1h1Zm-280-.69h-1v-1h1Zm280-2.32h-1v-1h1Zm-280-.68h-1v-1h1Zm280-2.32h-1v-1h1Zm-280-.69h-1v-1h1Zm280-2.32h-1v-1h1Zm-280-.68h-1v-1h1Zm280-2.32h-1v-1h1Zm-280-.69h-1v-1h1Zm280-2.32h-1v-1h1Zm-280-.68h-1v-1h1Zm280-2.32h-1v-1h1Zm-280-.69h-1v-1h1Zm280-2.31h-1v-1h1Zm-280-.69h-1v-1h1Zm280-2.32h-1v-1h1Zm-280-.69h-1v-1h1Zm280-2.31h-1v-1h1Zm-280-.69h-1v-1h1Zm280-2.32h-1v-1h1Zm-280-.69h-1v-1h1Zm280-2.31h-1v-1h1Zm-280-.69h-1v-1h1Zm280-2.32h-1v-1h1Zm-280-.69h-1v-1h1Zm280-2.31h-1v-1l1-.05v1Zm-281-.69h0a5.36,5.36,0,0,1,.1-1.06l1,.19a5.12,5.12,0,0,0-.08.87Zm279.53-2a4,4,0,0,0-.48-.76l.79-.61a5,5,0,0,1,.59.93ZM53.1,49l-.82-.56a6.24,6.24,0,0,1,.7-.84l.7.71A4.82,4.82,0,0,0,53.1,49ZM329,47.58a4,4,0,0,0-.82-.36l.3-.95a5.24,5.24,0,0,1,1,.44ZM55.18,47.31l-.36-.93a6.41,6.41,0,0,1,1.06-.3l.17,1A4.29,4.29,0,0,0,55.18,47.31ZM326.38,47h-1V46h1Zm-3,0h-1V46h1Zm-3,0h-1V46h1Zm-3,0h-1V46h1Zm-3,0h-1V46h1Zm-3,0h-1V46h1Zm-3,0h-1V46h1Zm-3,0h-1V46h1Zm-3,0h-1V46h1Zm-3,0h-1V46h1Zm-3,0h-1V46h1Zm-3,0h-1V46h1Zm-3,0h-1V46h1Zm-3,0h-1V46h1Zm-3,0h-1V46h1Zm-3,0h-1V46h1Zm-3,0h-1V46h1Zm-3,0h-1V46h1Zm-3,0h-1V46h1Zm-3,0h-1V46h1Zm-27,0h-1V46h1Zm-3,0h-1V46h1Zm-3,0h-1V46h1Zm-3,0h-1V46h1Zm-3,0h-1V46h1Zm-3,0h-1V46h1Zm-3,0h-1V46h1Zm-3,0h-1V46h1Zm-3,0h-1V46h1Zm-3,0h-1V46h1Zm-3,0h-1V46h1Zm-3,0h-1V46h1Zm-3,0h-1V46h1Zm-3,0h-1V46h1Zm-3,0h-1V46h1Zm-3,0h-1V46h1Zm-3,0h-1V46h1Zm-3,0h-1V46h1Zm-3,0h-1V46h1Zm-3,0h-1V46h1Zm-3,0h-1V46h1Zm-3,0h-1V46h1Zm-3,0h-1V46h1Zm-3,0h-1V46h1Zm-3,0h-1V46h1Zm-3,0h-1V46h1Zm-3,0h-1V46h1Zm-3,0h-1V46h1Zm-3,0h-1V46h1Zm-3,0h-1V46h1Zm-3,0h-1V46h1Zm-3,0h-1V46h1Zm-3,0h-1V46h1Zm-3,0h-1V46h1Zm-3,0h-1V46h1Zm-3,0h-1V46h1Zm-3,0h-1V46h1Zm-3,0h-1V46h1Zm-3,0h-1V46h1Zm-3,0h-1V46h1Zm-3,0h-1V46h1Zm-3,0h-1V46h1Zm-3,0h-1V46h1Zm-3,0h-1V46h1Zm-3,0h-1V46h1Zm-3,0h-1V46h1Zm-3,0h-1V46h1Zm-3,0h-1V46h1Zm-3,0H97V46h1Zm-3,0H94V46h1Zm-3,0H91V46h1Zm-3,0H88V46h1Zm-3,0H85V46h1Zm-3,0H82V46h1Zm-3,0H79V46h1Zm-3,0H76V46h1Zm-3,0H73V46h1Zm-3,0H70V46h1Zm-3,0H67V46h1Zm-3,0H64V46h1Zm-3,0H61V46h1Zm-3,0H58V46h1Z"/><rect class="cls-1" x="61.33" y="90.86" width="155" height="95"/><rect class="cls-7" x="61.33" y="90.86" width="155" height="95"/><rect class="cls-1" x="66.33" y="110.86" width="145" height="70"/><rect class="cls-8" x="66.33" y="110.86" width="145" height="70"/><rect class="cls-9" x="66.33" y="110.86" width="145" height="70"/><rect class="cls-10" x="118.77" y="134.86" width="28.14" height="18.76" rx="0.94"/><polygon class="cls-11" points="137.53 141.5 137.53 146.96 132.84 149.71 132.84 144.24 137.53 141.5"/><polygon class="cls-12" points="137.53 141.5 132.84 144.25 128.15 141.5 132.84 138.76 137.53 141.5"/><polygon class="cls-13" points="132.84 144.25 132.84 149.71 128.15 146.96 128.15 141.5 132.84 144.25"/><polygon class="cls-12" points="128.15 146.96 132.84 144.24 132.84 149.71 128.15 146.96"/><polygon class="cls-13" points="137.53 146.96 132.84 144.24 132.84 149.71 137.53 146.96"/><path class="cls-14" d="M138.48,159.29c-2.78-.44-2.89-2.44-2.89-5.67h-5.52c0,3.23-.09,5.23-2.88,5.67a1.56,1.56,0,0,0-1.39,1.57h14.07A1.56,1.56,0,0,0,138.48,159.29Z"/><rect class="cls-15" x="159.85" y="134.86" width="28.14" height="18.76" rx="0.94"/><polygon class="cls-11" points="178.61 141.5 178.61 146.96 173.92 149.71 173.92 144.24 178.61 141.5"/><polygon class="cls-12" points="178.61 141.5 173.92 144.25 169.23 141.5 173.92 138.76 178.61 141.5"/><polygon class="cls-13" points="173.92 144.25 173.92 149.71 169.23 146.96 169.23 141.5 173.92 144.25"/><polygon class="cls-12" points="169.23 146.96 173.92 144.24 173.92 149.71 169.23 146.96"/><polygon class="cls-13" points="178.61 146.96 173.92 144.24 173.92 149.71 178.61 146.96"/><path class="cls-16" d="M179.56,159.29c-2.78-.44-2.89-2.44-2.89-5.67h-5.52c0,3.23-.09,5.23-2.87,5.67a1.58,1.58,0,0,0-1.4,1.57H181A1.57,1.57,0,0,0,179.56,159.29Z"/><rect class="cls-1" x="226.33" y="90.86" width="95" height="95"/><rect class="cls-7" x="226.33" y="90.86" width="95" height="95"/><rect class="cls-17" x="281.93" y="119.63" width="15.46" height="10.32" rx="0.52"/><polygon class="cls-11" points="292.24 123.28 292.24 126.3 289.67 127.79 289.67 124.8 292.24 123.28"/><polygon class="cls-12" points="292.24 123.28 289.67 124.8 287.08 123.28 289.67 121.77 292.24 123.28"/><polygon class="cls-13" points="289.67 124.8 289.67 127.79 287.08 126.3 287.08 123.28 289.67 124.8"/><rect class="cls-18" x="288" y="125.55" width="15.46" height="10.32" rx="0.52"/><polygon class="cls-11" points="298.31 129.22 298.31 132.21 295.74 133.73 295.74 130.72 298.31 129.22"/><polygon class="cls-12" points="298.31 129.22 295.74 130.72 293.15 129.22 295.74 127.7 298.31 129.22"/><polygon class="cls-13" points="295.74 130.72 295.74 133.73 293.15 132.21 293.15 129.22 295.74 130.72"/><rect class="cls-19" x="292.46" y="131.3" width="15.46" height="10.32" rx="0.52"/><polygon class="cls-11" points="302.77 134.97 302.77 137.96 300.2 139.48 300.2 136.47 302.77 134.97"/><polygon class="cls-12" points="302.77 134.97 300.2 136.48 297.62 134.97 300.2 133.45 302.77 134.97"/><polygon class="cls-13" points="300.2 136.48 300.2 139.48 297.62 137.96 297.62 134.97 300.2 136.48"/><polygon class="cls-12" points="297.62 137.96 300.2 136.47 300.2 139.48 297.62 137.96"/><polygon class="cls-13" points="302.77 137.96 300.2 136.47 300.2 139.48 302.77 137.96"/><path class="cls-20" d="M303.29,144.75c-1.53-.24-1.53-1.34-1.53-3.05H298.7c0,1.77,0,2.87-1.52,3.05a.91.91,0,0,0-.77.88h7.65A.91.91,0,0,0,303.29,144.75Z"/><rect class="cls-21" x="238.43" y="122.86" width="28.14" height="18.76" rx="0.94"/><polygon class="cls-11" points="257.19 129.5 257.19 134.96 252.5 137.71 252.5 132.24 257.19 129.5"/><polygon class="cls-12" points="257.19 129.5 252.5 132.25 247.81 129.5 252.5 126.76 257.19 129.5"/><polygon class="cls-13" points="252.5 132.25 252.5 137.71 247.81 134.96 247.81 129.5 252.5 132.25"/><polygon class="cls-12" points="247.81 134.96 252.5 132.24 252.5 137.71 247.81 134.96"/><polygon class="cls-13" points="257.19 134.96 252.5 132.24 252.5 137.71 257.19 134.96"/><path class="cls-22" d="M258.14,147.29c-2.78-.44-2.89-2.44-2.89-5.67h-5.52c0,3.23-.09,5.23-2.88,5.67a1.56,1.56,0,0,0-1.39,1.57h14.07A1.56,1.56,0,0,0,258.14,147.29Z"/><line class="cls-3" x1="203.19" y1="91.21" x2="203.19" y2="64.14"/><line class="cls-3" x1="195.67" y1="85.68" x2="195.67" y2="73.98"/><polygon class="cls-5" points="198.66 74.86 195.67 69.68 192.68 74.86 198.66 74.86"/><line class="cls-3" x1="210.72" y1="81.37" x2="210.72" y2="80.62"/><line class="cls-23" x1="210.72" y1="78.19" x2="210.72" y2="71.64"/><line class="cls-3" x1="210.72" y1="70.43" x2="210.72" y2="69.68"/><polygon class="cls-5" points="213.71 80.5 210.72 85.68 207.73 80.5 213.71 80.5"/><line class="cls-3" x1="243.85" y1="91.21" x2="243.85" y2="64.14"/><line class="cls-3" x1="236.33" y1="85.68" x2="236.33" y2="73.98"/><polygon class="cls-5" points="239.32 74.86 236.33 69.68 233.34 74.86 239.32 74.86"/><line class="cls-3" x1="251.38" y1="81.37" x2="251.38" y2="80.62"/><line class="cls-23" x1="251.38" y1="78.19" x2="251.38" y2="71.64"/><line class="cls-3" x1="251.38" y1="70.43" x2="251.38" y2="69.68"/><polygon class="cls-5" points="254.37 80.5 251.38 85.68 248.39 80.5 254.37 80.5"/><line class="cls-24" x1="84.57" y1="110.86" x2="84.57" y2="19.87"/><line class="cls-24" x1="78.2" y1="79.27" x2="78.2" y2="67.58"/><polygon class="cls-25" points="81.2 78.4 78.2 83.58 75.21 78.4 81.2 78.4"/><line class="cls-24" x1="91.31" y1="83.58" x2="91.31" y2="82.83"/><line class="cls-26" x1="91.31" y1="80.4" x2="91.31" y2="73.85"/><line class="cls-24" x1="91.31" y1="72.63" x2="91.31" y2="71.88"/><polygon class="cls-25" points="94.3 72.76 91.31 67.58 88.32 72.76 94.3 72.76"/><line class="cls-3" x1="225.03" y1="38.29" x2="225.03" y2="18.79"/><line class="cls-3" x1="187.34" y1="222.93" x2="198.46" y2="222.93"/><polygon class="cls-5" points="188.21 225.93 183.03 222.93 188.21 219.94 188.21 225.93"/><path class="cls-3" d="M221.15,41,183.41,29.65a4.3,4.3,0,0,1-2.88-3.86v-7"/><path class="cls-3" d="M229.35,41l43.28-11.43a4.1,4.1,0,0,0,2.9-3.76v-7"/><circle class="cls-27" cx="79.53" cy="200.49" r="1.67"/><circle class="cls-28" cx="74.18" cy="200.5" r="1.67"/><circle class="cls-29" cx="68.84" cy="200.5" r="1.67"/><path class="cls-11" d="M70.06,207.2l-1,1a.43.43,0,0,1-.61,0h0l-7.1-7.08a.86.86,0,0,1,0-1.22h0l1-1h0l7.71,7.69a.43.43,0,0,1,0,.61Z"/><path class="cls-30" d="M69,192.86l1,1a.43.43,0,0,1,0,.61h0L62.34,202h0l-1-1a.87.87,0,0,1,0-1.23h0l7-7a.44.44,0,0,1,.61,0Z"/><path class="cls-11" d="M85.9,198.88l1,1a.86.86,0,0,1,0,1.22h0l-7.09,7.08a.44.44,0,0,1-.62,0h0l-1-1a.45.45,0,0,1,0-.61h0l7.7-7.69Z"/><path class="cls-30" d="M86.86,201.06l-1,1h0l-7.58-7.6a.43.43,0,0,1,0-.61h0l1-1a.43.43,0,0,1,.61,0h0l7,7a.87.87,0,0,1,0,1.23h0Z"/><path class="cls-31" d="M69.48,46.35,83.93,31.9a1,1,0,0,1,1.41,0l0,0h0L99.85,46.35a1,1,0,0,1,.05,1.41l-.05.05h0L85.39,62.3a1,1,0,0,1-1.41,0l0,0L69.48,47.83a1,1,0,0,1,0-1.41s0,0,0-.05Z"/><path class="cls-32" d="M88.46,38.48,84.8,34.85a.2.2,0,0,0-.27,0l-3.65,3.63a.17.17,0,0,0,.14.31h2.13a.2.2,0,0,1,.19.19h0v3.45a.21.21,0,0,0,.19.19H85.8a.2.2,0,0,0,.19-.19h0V39a.21.21,0,0,1,.19-.19h2.14a.17.17,0,0,0,.21-.12h0A.19.19,0,0,0,88.46,38.48Z"/><path class="cls-32" d="M76.06,43l-3.62,3.66a.19.19,0,0,0,0,.26l3.62,3.64a.19.19,0,0,0,.27,0h0a.17.17,0,0,0,0-.14V48.28a.2.2,0,0,1,.19-.19H80a.18.18,0,0,0,.17-.17V45.63a.18.18,0,0,0-.06-.24H76.63a.17.17,0,0,1-.19-.15h0V43.11a.21.21,0,0,0-.12-.25.19.19,0,0,0-.25.12Z"/><path class="cls-32" d="M93.41,50.54l3.67-3.65a.19.19,0,0,0,0-.26L93.41,43a.18.18,0,0,0-.25,0h0a.22.22,0,0,0-.05.11v2.16a.18.18,0,0,1-.17.17H89.47a.18.18,0,0,0-.17.17V47.9a.17.17,0,0,0,.15.19h3.47a.19.19,0,0,1,.18.19v2.14a.21.21,0,0,0,.22.16Z"/><path class="cls-1" d="M89.47,47.09a4.81,4.81,0,1,0-6.09,4.6v1.64a2.94,2.94,0,1,0,2.7,0V51.6A4.76,4.76,0,0,0,89.47,47.09Z"/><circle id="e99c3387-15c3-4f28-bd4b-cb209b430e06" class="cls-33" cx="84.68" cy="47.08" r="2.79"/><rect class="cls-1" x="163" width="35" height="20.86"/><rect class="cls-7" x="163" width="35" height="20.86"/><rect class="cls-1" x="66.33" width="35" height="20.86"/><rect class="cls-34" x="66.33" width="35" height="20.86"/><rect class="cls-1" x="208.03" width="35" height="20.86"/><rect class="cls-7" x="208.03" width="35" height="20.86"/><rect class="cls-1" x="253.03" width="45" height="20.86"/><rect class="cls-7" x="253.03" width="45" height="20.86"/><line class="cls-35" x1="127.18" y1="79.27" x2="127.18" y2="67.58"/><polygon class="cls-36" points="130.17 78.4 127.18 83.58 124.19 78.4 130.17 78.4"/><line class="cls-35" x1="140.93" y1="83.58" x2="140.93" y2="82.83"/><line class="cls-37" x1="140.93" y1="80.4" x2="140.93" y2="73.85"/><line class="cls-35" x1="140.93" y1="72.63" x2="140.93" y2="71.88"/><polygon class="cls-36" points="143.93 72.76 140.93 67.58 137.94 72.76 143.93 72.76"/><line class="cls-35" x1="134.06" y1="135" x2="134.06" y2="19.86"/><rect class="cls-1" x="122.83" width="23.5" height="20.86"/><rect class="cls-38" x="122.83" width="23.5" height="20.86"/><rect class="cls-1" x="190.03" y="53.97" width="70" height="10"/><rect class="cls-39" x="190.03" y="53.97" width="70" height="10"/><g id="ad94e297-0e86-4eaf-aac0-d146ee9aea65"><path class="cls-40" d="M221,54.32l-4.68-4.84a2.29,2.29,0,0,1-.78.14,2.43,2.43,0,1,1,2.24-3.33h4.62v1.62h-4.55a3.68,3.68,0,0,1-.26.57l4.33,4.46,2.34-3.56V38.19h-3.15l4-4,3.94,4H225.9v8.74l5.92-9-6-6a1,1,0,0,0-1.41-.06l-.06.06h0l-14.5,14.43a1,1,0,0,0,0,1.41l0,0h0l14.47,14.47-5.17-5.16Z"/><path class="cls-41" d="M224.22,54.53V49.36l-2.34,3.58,1.72,1.85A1.61,1.61,0,0,1,224.22,54.53Z"/><path class="cls-41" d="M240.24,46.36l-8.48-8.48-5.92,9v7.61a1.86,1.86,0,0,1,.53.3l6.22-6.29a2.91,2.91,0,0,1-.31-.64h-4.67V46.29h4.74a2.42,2.42,0,1,1,2.24,3.33,2.54,2.54,0,0,1-.67-.11l-6.62,6.67a2.6,2.6,0,0,1,.11.62,2.43,2.43,0,0,1-4.86.19h0a2.3,2.3,0,0,1,.14-.9L221,54.37l-1.84,2.76,5.17,5.17a1,1,0,0,0,1.41,0l0,0,14.48-14.48a1,1,0,0,0,.05-1.41s0,0-.05,0Z"/><path class="cls-42" d="M232.35,46.29h-4.74v1.62h4.67a2.53,2.53,0,0,1-.12-.72A2.3,2.3,0,0,1,232.35,46.29Z"/><path class="cls-42" d="M217.81,47.91h4.55V46.29h-4.62a2.3,2.3,0,0,1,.19.9A2.22,2.22,0,0,1,217.81,47.91Z"/><path class="cls-42" d="M227.3,56.18l6.62-6.67a2.43,2.43,0,0,1-1.33-1l-6.22,6.29A2.21,2.21,0,0,1,227.3,56.18Z"/><path class="cls-42" d="M223.65,54.79l-1.72-1.85-4.38-4.46a2.46,2.46,0,0,1-1.27,1L221,54.32,222.69,56A2.3,2.3,0,0,1,223.65,54.79Z"/><path class="cls-1" d="M229,38.19l-3.92-4-4,4h3.15V54.53a1.35,1.35,0,0,0-.57.26,2.28,2.28,0,0,0-1,1.3,2.41,2.41,0,0,0,4.57,1.54c0-.05,0-.09,0-.14a2.31,2.31,0,0,0,.11-.69,2.6,2.6,0,0,0-.11-.62,2.21,2.21,0,0,0-.93-1.34,1.86,1.86,0,0,0-.53-.3V38.19Zm-3.92,20a1.34,1.34,0,1,1,1.34-1.34h0a1.34,1.34,0,0,1-1.37,1.29Z"/><path class="cls-1" d="M217.55,48.48a3.68,3.68,0,0,0,.26-.57,2.22,2.22,0,0,0,.12-.72,2.3,2.3,0,0,0-.19-.9,2.41,2.41,0,1,0-2.24,3.33,2.29,2.29,0,0,0,.78-.14A2.46,2.46,0,0,0,217.55,48.48Zm-2.05,0a1.35,1.35,0,1,1,1.34-1.36v0h0a1.33,1.33,0,0,1-1.27,1.39h-.07Z"/><path class="cls-1" d="M233.92,49.51a2.54,2.54,0,0,0,.67.11,2.43,2.43,0,1,0-2.24-3.33,2.3,2.3,0,0,0-.19.9,2.53,2.53,0,0,0,.12.72,2.91,2.91,0,0,0,.31.64A2.48,2.48,0,0,0,233.92,49.51Zm.67-3.65a1.35,1.35,0,1,1-.3,0Z"/><path class="cls-43" d="M225.05,55.46a1.34,1.34,0,1,0,1.34,1.34h0A1.34,1.34,0,0,0,225.05,55.46Z"/><circle class="cls-43" cx="215.5" cy="47.19" r="1.34"/><path class="cls-43" d="M234.59,48.53a1.35,1.35,0,1,0-1.34-1.36v0h0A1.34,1.34,0,0,0,234.59,48.53Z"/></g></g></g><g id="Text"><path class="cls-44" d="M129.39,164.12l-3.34,9.22h-1.31l-3.28-9.22h1.3l2.46,7.21a4.28,4.28,0,0,1,.18.83h0a3.66,3.66,0,0,1,.2-.84l2.5-7.2Z"/><path class="cls-44" d="M138.88,173.34v-6.11c0-.5,0-1.11.09-1.81h0a6.88,6.88,0,0,1-.27.93l-3,7H135l-3-6.94a6.61,6.61,0,0,1-.27-1h0c0,.43.06,1.05.06,1.87v6.05h-1.12v-9.22h1.59l2.69,6.32a10,10,0,0,1,.41,1.13h0c.2-.56.34-.95.43-1.15l2.73-6.3h1.52v9.22Z"/><path class="cls-44" d="M174.39,164.12,171,173.34h-1.3l-3.28-9.22h1.3l2.46,7.21a4.28,4.28,0,0,1,.18.83h0a3.66,3.66,0,0,1,.2-.84l2.5-7.2Z"/><path class="cls-44" d="M183.88,173.34v-6.11c0-.5,0-1.11.09-1.81h0a6.88,6.88,0,0,1-.27.93l-3,7H180l-3-6.94a6.61,6.61,0,0,1-.27-1h0c0,.43.06,1.05.06,1.87v6.05h-1.12v-9.22h1.59l2.69,6.32a10,10,0,0,1,.41,1.13h0c.2-.56.34-.95.43-1.15l2.73-6.3h1.52v9.22Z"/><path class="cls-44" d="M250.5,156.54l-3.35,9.22h-1.31l-3.28-9.22h1.31l2.45,7.21a4.28,4.28,0,0,1,.18.83h0a3.23,3.23,0,0,1,.21-.84l2.5-7.2Z"/><path class="cls-44" d="M260,165.76v-6.11c0-.5,0-1.11.09-1.81h0a5.65,5.65,0,0,1-.27.93l-3,7h-.66l-3-6.94a6.61,6.61,0,0,1-.27-1h0c0,.43.06,1,.06,1.87v6h-1.13v-9.22h1.6l2.69,6.32a9.52,9.52,0,0,1,.4,1.13h0c.21-.56.35-1,.43-1.15l2.74-6.3h1.51v9.22Z"/><path class="cls-44" d="M286.09,156.73,282.74,166h-1.31l-3.28-9.22h1.31l2.45,7.21a4.28,4.28,0,0,1,.18.83h0a3.23,3.23,0,0,1,.21-.84l2.5-7.2Z"/><path class="cls-44" d="M295.57,166v-6.11c0-.5,0-1.11.09-1.81h0a5.65,5.65,0,0,1-.27.93l-3,7h-.66l-3-6.94a6.61,6.61,0,0,1-.27-1h0c0,.43.06,1.05.06,1.87v6h-1.13v-9.22h1.6l2.68,6.32a8.31,8.31,0,0,1,.41,1.13h0c.2-.56.35-1,.43-1.15l2.74-6.3h1.51V166Z"/><path class="cls-44" d="M298.64,164.22a3.21,3.21,0,0,0,1.12.61,4.12,4.12,0,0,0,1.33.24c1.28,0,1.92-.47,1.92-1.39a1.2,1.2,0,0,0-.21-.69,2.1,2.1,0,0,0-.56-.55,14.88,14.88,0,0,0-1.35-.73,5.08,5.08,0,0,1-1.81-1.29,2.2,2.2,0,0,1-.43-1.35,2.13,2.13,0,0,1,.91-1.82,3.76,3.76,0,0,1,2.3-.68,4.5,4.5,0,0,1,2,.34v1.3a3.5,3.5,0,0,0-2.08-.58,2.43,2.43,0,0,0-1.36.35,1.14,1.14,0,0,0-.53,1,1.2,1.2,0,0,0,.37.91,7.6,7.6,0,0,0,1.58,1,5.57,5.57,0,0,1,1.88,1.3,2.24,2.24,0,0,1,.53,1.46,2.19,2.19,0,0,1-.87,1.86,4,4,0,0,1-2.42.65,6.28,6.28,0,0,1-1.26-.15,3.24,3.24,0,0,1-1.05-.38Z"/><path class="cls-44" d="M305.56,164.22a3.25,3.25,0,0,0,1.11.61,4.12,4.12,0,0,0,1.33.24c1.28,0,1.92-.47,1.92-1.39a1.27,1.27,0,0,0-.2-.69,2,2,0,0,0-.57-.55,14.88,14.88,0,0,0-1.35-.73,5.12,5.12,0,0,1-1.8-1.29,2.21,2.21,0,0,1-.44-1.35,2.16,2.16,0,0,1,.91-1.82,3.78,3.78,0,0,1,2.3-.68,4.55,4.55,0,0,1,2,.34v1.3a3.5,3.5,0,0,0-2.08-.58,2.49,2.49,0,0,0-1.37.35,1.13,1.13,0,0,0-.52,1,1.23,1.23,0,0,0,.36.91,7.76,7.76,0,0,0,1.59,1,5.51,5.51,0,0,1,1.87,1.3,2.34,2.34,0,0,1-.33,3.32,4,4,0,0,1-2.42.65,6.28,6.28,0,0,1-1.26-.15,3.24,3.24,0,0,1-1.05-.38Z"/><path class="cls-44" d="M263.75,5.89h3.79a14.37,14.37,0,0,0-1-1.33l.73-.5a16.19,16.19,0,0,1,1.18,1.44l-.58.39h3.2l-.47-.26A9.77,9.77,0,0,0,271.7,4l.89.52c-.36.49-.72.94-1.08,1.34h3.71v.82H263.75Zm1.67,9.77h-.89V7.85h5.13v6.56a1,1,0,0,1-1.18,1.12l-1.35,0q-.08-.47-.18-.87c.48,0,.92.06,1.33.06a.42.42,0,0,0,.49-.48V12.73h-3.35Zm3.35-7h-3.35V9.91h3.35Zm-3.35,3.29h3.35V10.69h-3.35ZM271.06,8H272v5.28h-.89Zm2.41-.56h.91V14c0,1-.45,1.45-1.36,1.45-.41,0-.93,0-1.54,0,0-.32-.1-.65-.17-1q.87.09,1.41.09a.67.67,0,0,0,.75-.76Z"/><path class="cls-44" d="M275.61,13.42q1.49-.2,3.51-.51a5.77,5.77,0,0,0-.08.73l-3.21.67ZM277,11c.36,0,1-.07,2-.17,0,.33-.07.59-.09.77-1.53.13-2.5.23-2.92.29l-.16-.74a11.09,11.09,0,0,0,1.55-2.39l-1.55.13-.22-.74a22.9,22.9,0,0,0,2-4l.91.33c-.66,1.4-1.29,2.61-1.9,3.63l1.14,0q.32-.6.66-1.32l.84.38C278.26,8.94,277.5,10.24,277,11Zm2.19.76.53-.52c.43.35.85.71,1.27,1.07a8.07,8.07,0,0,0,.71-1.67h-2.46V9.87h3.28v.77a9,9,0,0,1-.9,2.25L282.74,14l-.63.62c-.31-.33-.63-.64-.95-1A8.62,8.62,0,0,1,279,15.66a7.58,7.58,0,0,0-.62-.65,8,8,0,0,0,2.13-2C280.11,12.6,279.65,12.19,279.19,11.78Zm.13-5.27.52-.51c.45.37.87.74,1.28,1.1a5.37,5.37,0,0,0,.79-1.61h-2.62V4.7h3.47v.76a6.88,6.88,0,0,1-1.05,2.18c.37.35.73.69,1.06,1l-.62.61c-.27-.31-.59-.65-.95-1a7.88,7.88,0,0,1-1.79,1.4,8.3,8.3,0,0,0-.53-.67,7.16,7.16,0,0,0,1.74-1.29C280.23,7.32,279.79,6.93,279.32,6.51Zm3.51,4.17V9.89h3.94v.78a7.58,7.58,0,0,1-1.4,2.86,6.18,6.18,0,0,0,1.94,1.25c-.21.3-.39.57-.54.82a7.37,7.37,0,0,1-2-1.42,8.23,8.23,0,0,1-2.17,1.51c-.17-.23-.36-.46-.56-.7a8.14,8.14,0,0,0,2.18-1.46,6.87,6.87,0,0,1-1.18-2.85Zm.11-4.16.51-.54c.54.4,1.06.8,1.57,1.22a5.65,5.65,0,0,0,.92-1.71h-2.78V4.7h3.67v.72a6.81,6.81,0,0,1-1.17,2.29c.48.4,1,.8,1.43,1.21l-.65.66c-.42-.42-.86-.83-1.32-1.25a8.53,8.53,0,0,1-1.84,1.41,5,5,0,0,0-.53-.7,7.17,7.17,0,0,0,1.75-1.25C284,7.36,283.48,6.94,282.94,6.52Zm3,4.16h-2.08a5.65,5.65,0,0,0,1,2.2A6.26,6.26,0,0,0,285.92,10.68Z"/><path class="cls-44" d="M218.79,10.69v3.39h-1.18V5h2.58a3.31,3.31,0,0,1,2.28.71,2.53,2.53,0,0,1,.82,2,2.75,2.75,0,0,1-.95,2.17,3.35,3.35,0,0,1-2.38.78Zm0-4.65V9.66h1.08a2.44,2.44,0,0,0,1.63-.48,1.76,1.76,0,0,0,.55-1.39c0-1.17-.69-1.75-2.07-1.75Z"/><path class="cls-44" d="M226.13,5v9.07H225V5Z"/><path class="cls-44" d="M229.65,10.69v3.39h-1.17V5h2.58a3.31,3.31,0,0,1,2.28.71,2.53,2.53,0,0,1,.81,2,2.75,2.75,0,0,1-.94,2.17,3.35,3.35,0,0,1-2.38.78Zm0-4.65V9.66h1.09a2.44,2.44,0,0,0,1.63-.48,1.76,1.76,0,0,0,.55-1.39c0-1.17-.69-1.75-2.07-1.75Z"/><path class="cls-44" d="M173.82,10.69v3.39h-1.17V5h2.57a3.36,3.36,0,0,1,2.29.71,2.53,2.53,0,0,1,.81,2,2.75,2.75,0,0,1-.95,2.17,3.32,3.32,0,0,1-2.37.78Zm0-4.65V9.66h1.08a2.42,2.42,0,0,0,1.63-.48,1.76,1.76,0,0,0,.56-1.39C177.09,6.62,176.4,6,175,6Z"/><path class="cls-44" d="M181.16,5v9.07H180V5Z"/><path class="cls-44" d="M184.69,10.69v3.39h-1.18V5h2.58a3.36,3.36,0,0,1,2.29.71,2.53,2.53,0,0,1,.81,2,2.75,2.75,0,0,1-.95,2.17,3.35,3.35,0,0,1-2.38.78Zm0-4.65V9.66h1.08a2.42,2.42,0,0,0,1.63-.48A1.76,1.76,0,0,0,188,7.79c0-1.17-.7-1.75-2.08-1.75Z"/><path class="cls-44" d="M128.28,10.69v3.39h-1.17V5h2.58a3.31,3.31,0,0,1,2.28.71,2.53,2.53,0,0,1,.81,2,2.75,2.75,0,0,1-.95,2.17,3.31,3.31,0,0,1-2.37.78Zm0-4.65V9.66h1.08A2.42,2.42,0,0,0,131,9.18a1.76,1.76,0,0,0,.56-1.39c0-1.17-.69-1.75-2.07-1.75Z"/><path class="cls-44" d="M135.62,5v9.07h-1.17V5Z"/><path class="cls-44" d="M139.15,10.69v3.39H138V5h2.58a3.31,3.31,0,0,1,2.28.71,2.53,2.53,0,0,1,.81,2,2.75,2.75,0,0,1-1,2.17,3.31,3.31,0,0,1-2.37.78Zm0-4.65V9.66h1.08a2.42,2.42,0,0,0,1.63-.48,1.76,1.76,0,0,0,.56-1.39c0-1.17-.69-1.75-2.08-1.75Z"/><path class="cls-45" d="M114.52,5v9.07h-1.17V5Z"/><path class="cls-45" d="M121.67,14.08h-4.79V5h1.17v8h3.62Z"/><path class="cls-44" d="M77.12,10.69v3.39H76V5h2.58a3.31,3.31,0,0,1,2.28.71,2.53,2.53,0,0,1,.81,2,2.72,2.72,0,0,1-1,2.17,3.31,3.31,0,0,1-2.37.78Zm0-4.65V9.66h1.09a2.46,2.46,0,0,0,1.63-.48,1.76,1.76,0,0,0,.55-1.39C80.39,6.62,79.7,6,78.32,6Z"/><path class="cls-44" d="M84.46,5v9.07H83.29V5Z"/><path class="cls-44" d="M88,10.69v3.39H86.82V5H89.4a3.31,3.31,0,0,1,2.28.71,2.53,2.53,0,0,1,.81,2,2.72,2.72,0,0,1-.95,2.17,3.31,3.31,0,0,1-2.37.78ZM88,6V9.66h1.09a2.41,2.41,0,0,0,1.62-.48,1.73,1.73,0,0,0,.56-1.39c0-1.17-.69-1.75-2.07-1.75Z"/><path class="cls-44" d="M11,29.6h4.29c.39-.39.87-.93,1.47-1.62H12.6a16.43,16.43,0,0,1-2.54,2.26c-.18-.2-.41-.44-.69-.7a16.78,16.78,0,0,0,3.75-3.66l.94.35c-.24.32-.48.63-.72.92H18v.78c-.51.58-1,1.13-1.53,1.67h3.22v5.08h-.94V30.43H11.93v4.32H11Zm-1.45,7A11.79,11.79,0,0,0,14,35.09a2.44,2.44,0,0,0,.88-2.21V31h1v1.68A7.31,7.31,0,0,1,15.69,34a53.09,53.09,0,0,1,5,2.65l-.62.87c-1.65-1-3.21-1.91-4.7-2.65-.57,1.16-2.36,2-5.34,2.67C9.92,37.26,9.74,37,9.54,36.64Z"/><path class="cls-44" d="M26.59,36.66a11.76,11.76,0,0,0,2.5-2.29,18.11,18.11,0,0,1-.76-4.55H21.42V29h2.92V27.94H21.9V27.2h2.44V26h.87V27.2h2.31v.74H25.21V29h3.07c-.05-.93-.09-2-.13-3.08h.9c0,1.1,0,2.13.09,3.08H33v.79H29.19a17.59,17.59,0,0,0,.55,3.68,16,16,0,0,0,1.56-2.8l.81.37a18.48,18.48,0,0,1-2,3.43A5.91,5.91,0,0,0,30.94,36a.82.82,0,0,0,.56.35c.21,0,.35-.16.42-.47a15.19,15.19,0,0,0,.27-1.59,6.5,6.5,0,0,0,.85.31c-.1.67-.22,1.26-.34,1.77q-.3,1.05-1.05,1A2.1,2.1,0,0,1,30,36.28a5,5,0,0,1-.58-1,12.26,12.26,0,0,1-2.17,2A3.15,3.15,0,0,0,26.59,36.66Zm-3.51-3.54h1.6V32h.83v1.08h2.22v.74H25.51V35l2.27-.19a6.51,6.51,0,0,0,0,.77c-.7,0-1.45.1-2.23.17v1.71h-.83V35.77c-.92.08-1.89.17-2.9.28l-.19-.84c.93-.05,2-.12,3.09-.2V33.86H22.1V33.1A15.55,15.55,0,0,0,23,31.73H21.71V31h1.75c.19-.35.38-.71.57-1.1l.86.27c-.16.29-.31.57-.47.83h3.4v.74H24C23.66,32.26,23.36,32.72,23.08,33.12Zm6.76-6.31.57-.58a24.76,24.76,0,0,1,1.92,1.58l-.66.68A17.71,17.71,0,0,0,29.84,26.81Z"/><path class="cls-44" d="M33.34,35.08c.6-.21,1.18-.43,1.74-.64V29.78H33.51V29h1.57V26h.86V29h1.53v.83H35.94v4.33l1.63-.67c0,.39,0,.71.06,1-1.26.48-2.58,1-4,1.57Zm4.06-4.45a20.56,20.56,0,0,0,2.05-4.73l.93.29c-.18.53-.37,1-.57,1.54h4.65q-.16,6.18-.25,7.6a1.76,1.76,0,0,1-2,1.86c-.77,0-1.46,0-2.06,0,0-.31-.11-.64-.19-1h0a21.44,21.44,0,0,0,2.15.13,1,1,0,0,0,1.16-1.11c.08-1.33.16-3.53.23-6.58H39.45a22.74,22.74,0,0,1-1.24,2.47C38,30.91,37.69,30.77,37.4,30.63Zm.5,3.65c1.57-.62,3.2-1.3,4.89-2,0,.36.08.68.13.93q-2.18.91-4.66,2Zm1.17-3.85.65-.58c.68.63,1.33,1.25,2,1.88l-.77.67C40.32,31.71,39.71,31.05,39.07,30.43Z"/><path class="cls-44" d="M45.27,29.1a11.41,11.41,0,0,0,2.31-3.23l.75.48A16.73,16.73,0,0,1,45.71,30,8.6,8.6,0,0,0,45.27,29.1Zm0,3.67A14.26,14.26,0,0,0,47.56,29l.72.42c-.3.6-.59,1.16-.88,1.66v6.35h-.79v-5a13.4,13.4,0,0,1-1,1.3C45.55,33.4,45.42,33.09,45.28,32.77Zm2.64-4a14,14,0,0,0,2-2.73l.72.28-.29.49h2.43v.63l-.68,1h1.26v4.64h-.72v-.3H49.38v.37h-.72v-4l-.19.21A7.13,7.13,0,0,0,47.92,28.79Zm.35,4.93h2.3a5.78,5.78,0,0,0,0-.75h.79q0,.41,0,.75h2.15v.75H51.24a1.21,1.21,0,0,1-.05.18c.73.43,1.42.85,2.06,1.25l-.49.72c-.54-.39-1.17-.82-1.9-1.31a6.22,6.22,0,0,1-2.44,1.8l-.48-.73a4.42,4.42,0,0,0,2.45-1.91H48.27Zm3.51-6.14H49.87c-.21.29-.42.57-.66.87h2Zm-2.4,2.71h1.31v-1.1H49.38Zm0,1.77h1.31V31H49.38Zm3.29-2.87h-1.3v1.1h1.3Zm-1.3,2.87h1.3V31h-1.3Zm2.29-1.83H57v.85H55.78v5c0,.86-.4,1.29-1.2,1.31H53.35c0-.19-.09-.48-.18-.87.45,0,.84.07,1.17.07s.65-.2.65-.61V31.08H53.66ZM54,26.81h2.69v.84H54Z"/><path class="cls-44" d="M57.75,30.84h4.74a3.47,3.47,0,0,0,.23-1l.84.12a4.94,4.94,0,0,1-.2.9h2.55c-.31-.23-.64-.45-1-.67l.48-.53c.52.31,1,.61,1.4.92l-.26.28h2.18v.77H64.2q1.35,1.32,4.8,1.26a10.15,10.15,0,0,0-.48.9l-.6-.06v3.58H67.1v-.64H64.6v.63h-.82V33.66h3.73c-2.24-.3-3.66-1-4.29-2H63q-.65,1.39-4.25,2h3.75v3.62h-.82v-.63H59.22v.64H58.4V33.73l-.65.12c-.12-.23-.27-.51-.46-.83q3.91-.51,4.7-1.41H57.75Zm.63-4.27H62.5V30h-.82v-.36H59.21v.48h-.83Zm3.3.73H59.21v1.59h2.47Zm0,7.09H59.22v1.53h2.47Zm2.07-7.82h4.15V30h-.82v-.41H64.58V30h-.82Zm3.33.73H64.58v1.59h2.51Zm0,7.09H64.6v1.53h2.5Z"/><path class="cls-44" d="M252.48,49.72h-1.39l-4.56-7.06a2.57,2.57,0,0,1-.31-.59h0a10.76,10.76,0,0,1,0,1.27v6.38h-1.16V40.65h1.47L251,47.59a4.31,4.31,0,0,1,.37.62h0a9.82,9.82,0,0,1-.06-1.32V40.65h1.16Z"/><path class="cls-44" d="M262,49.72h-1.29l-.93-2.48H256l-.87,2.48h-1.29l3.45-9.07h1.26Zm-2.58-3.5L258,42.44a4.54,4.54,0,0,1-.14-.63h0a2.92,2.92,0,0,1-.15.63l-1.36,3.78Z"/><path class="cls-44" d="M267.82,41.69H265.2v8H264v-8h-2.6v-1h6.4Z"/><path class="cls-44" d="M167.62,101.17h5.58V99.83l3.44-2.54h-7.76v-.91h9.36v1l-4,3v.86h5.25v.91h-5.25v3.83q0,1.62-1.68,1.62c-.37,0-1,0-1.9,0,0-.32-.08-.69-.14-1.11a15.34,15.34,0,0,0,1.85.13.77.77,0,0,0,.85-.88v-3.57h-5.58Z"/><path class="cls-44" d="M181.69,99l.71-.38c.48.77.95,1.55,1.42,2.34a24,24,0,0,0,1-2.52l.82.3a32.62,32.62,0,0,1-1.31,3.11c.46.79.92,1.6,1.37,2.43l-.82.44c-.33-.64-.67-1.29-1-1.93a26.37,26.37,0,0,1-1.59,2.64l-.72-.41v2.53h-.9V96.4h10.22v9.74c0,.86-.46,1.3-1.38,1.3l-1.83,0c0-.26-.1-.57-.17-.94.67,0,1.24.08,1.71.08s.77-.22.77-.67V97.27h-8.42v7.64a30.87,30.87,0,0,0,1.82-3.07C182.83,100.88,182.28,99.92,181.69,99Zm4,.58.69-.41c.4.65.82,1.35,1.25,2.08a27.33,27.33,0,0,0,1.16-2.74l.82.32a35.46,35.46,0,0,1-1.48,3.3c.5.87,1,1.8,1.56,2.78l-.8.46c-.4-.77-.81-1.54-1.25-2.33a28.25,28.25,0,0,1-1.58,2.56l-.73-.47a33.62,33.62,0,0,0,1.82-3C186.68,101.25,186.2,100.4,185.69,99.53Z"/><path class="cls-44" d="M204,106h-1.33l-1-2.57h-3.87l-.89,2.57h-1.33l3.54-9.41h1.29Zm-2.65-3.64-1.4-3.91a3.33,3.33,0,0,1-.15-.65h0a3,3,0,0,1-.15.65l-1.39,3.91Z"/><path class="cls-44" d="M256.88,101.13h5.45V99.85l3.36-2.44h-7.58v-.88h9.14v.91l-3.93,2.86v.83h5.13V102h-5.13v3.68c0,1-.54,1.57-1.64,1.57l-1.85,0c0-.32-.08-.67-.14-1.07a17,17,0,0,0,1.81.12.74.74,0,0,0,.83-.84V102h-5.45Z"/><path class="cls-44" d="M270.62,99l.69-.37c.46.74.93,1.49,1.39,2.26a24.1,24.1,0,0,0,1-2.43l.8.29c-.39,1-.81,2-1.27,3,.44.76.89,1.54,1.33,2.34l-.8.42c-.32-.61-.65-1.23-1-1.86a26.58,26.58,0,0,1-1.55,2.55l-.7-.4v2.43h-.88V96.54h10v9.37q0,1.26-1.35,1.26l-1.79,0c0-.25-.09-.55-.16-.91.65,0,1.21.08,1.67.08s.75-.21.75-.64V97.38h-8.22v7.35a27.74,27.74,0,0,0,1.77-3C271.73,100.86,271.19,99.93,270.62,99Zm3.9.56.68-.4c.39.63.79,1.3,1.21,2a23.52,23.52,0,0,0,1.14-2.63l.8.3A33,33,0,0,1,276.9,102c.49.84,1,1.73,1.53,2.68l-.78.44c-.39-.74-.8-1.49-1.22-2.24-.49.86-1,1.68-1.55,2.46l-.71-.45c.67-1,1.26-1.93,1.78-2.87C275.49,101.22,275,100.39,274.52,99.56Z"/><path class="cls-44" d="M285.25,105.8v-9h2.66a3,3,0,0,1,1.91.57,1.83,1.83,0,0,1,.72,1.51,2.17,2.17,0,0,1-.43,1.32,2.28,2.28,0,0,1-1.17.82v0a2.28,2.28,0,0,1,1.48.7,2.09,2.09,0,0,1,.55,1.5,2.37,2.37,0,0,1-.84,1.89,3.18,3.18,0,0,1-2.15.72Zm1.17-8v2.84h1.06a2,2,0,0,0,1.34-.41,1.44,1.44,0,0,0,.48-1.15c0-.85-.57-1.28-1.71-1.28Zm0,3.86v3.15h1.4a2.13,2.13,0,0,0,1.42-.42,1.46,1.46,0,0,0,.5-1.18c0-1-.7-1.55-2.11-1.55Z"/><path class="cls-44" d="M65.16,216.33v2.85q0,3.81-1.53,5.62c-.2-.25-.42-.5-.67-.76a7.35,7.35,0,0,0,1.29-4.71v-3.81h4v-2.46h.94V214h4.75v.78H69.14v.75H74.5l-.08,1.93-.89,0,.08-1.09Zm-.22,7.28h3v-3.5h.92v3.5h1.48v-3.52h.92v3.52h3.3v.81H64.94Zm.53-6.13,2.57-.16v-.8h.88v.75l3.52-.21,0,.77-3.57.21v.31c0,.35.23.53.7.53H72c.53,0,.83-.18.91-.56a6.07,6.07,0,0,0,.14-.84c.26.11.54.22.85.32a9,9,0,0,1-.21.88c-.17.66-.69,1-1.57,1H69.46c-.94,0-1.42-.42-1.42-1.25v-.32l-2.52.14Zm0,3.37.71-.46c.47.62.93,1.27,1.37,2l-.79.51C66.33,222.14,65.9,221.46,65.48,220.85Zm6.16,1.46a14.42,14.42,0,0,0,1.42-2l.8.48c-.51.75-1,1.43-1.52,2Z"/><path class="cls-44" d="M75.11,219.44c.48-.13,1-.28,1.59-.46v-2.69H75.24v-.8H76.7v-2.3h.9v2.3H79v.8H77.6v2.4l1.42-.47c0,.38,0,.69,0,.91l-1.4.47v3.82c0,.79-.34,1.21-1,1.24-.37,0-.77,0-1.17,0,0-.29-.09-.62-.16-1a7.69,7.69,0,0,0,1,.07c.33,0,.5-.18.5-.53v-3.31l-1.46.52Zm7.07.22a5.34,5.34,0,0,0,.31.93q-1,1-2.16,2a5.06,5.06,0,0,0-.55.68l-.61-.78a1.61,1.61,0,0,0,.37-1.1V214.1h.89v7.25C80.87,221,81.45,220.39,82.18,219.66Zm2.19-6.36h.9q0,2-.06,3.57a15.12,15.12,0,0,1-.61,4.38c.85,1,1.6,1.88,2.27,2.73l-.79.65c-.61-.85-1.24-1.69-1.9-2.51a8.08,8.08,0,0,1-2.87,2.78,5.76,5.76,0,0,0-.64-.75,6.87,6.87,0,0,0,3-3.17,12.25,12.25,0,0,0,.6-4.12C84.33,215.67,84.36,214.48,84.37,213.3Zm-3.36.13.76-.4c.59,1.07,1.1,2.05,1.52,2.93l-.82.47C81.93,215.25,81.45,214.25,81,213.43Z"/><path class="cls-44" d="M64.94,229.5l.69-.37c.47.75.93,1.52,1.4,2.3A26.55,26.55,0,0,0,68,229l.8.3c-.39,1.07-.82,2.08-1.28,3,.45.78.89,1.57,1.34,2.39l-.8.43c-.33-.63-.66-1.26-1-1.9a24.5,24.5,0,0,1-1.56,2.6l-.7-.41v2.48h-.88V227h10v9.55c0,.85-.45,1.27-1.35,1.27l-1.8,0c0-.26-.1-.57-.17-.93.66.06,1.22.08,1.68.08s.76-.22.76-.65v-8.45H64.8v7.5a30.75,30.75,0,0,0,1.78-3C66.06,231.4,65.51,230.45,64.94,229.5Zm3.92.57.68-.41c.39.65.8,1.33,1.22,2.05A24.29,24.29,0,0,0,71.9,229l.8.31a34.17,34.17,0,0,1-1.45,3.24c.49.86,1,1.77,1.54,2.73l-.79.45c-.4-.75-.8-1.52-1.23-2.29A27.34,27.34,0,0,1,69.22,236l-.72-.47a32.39,32.39,0,0,0,1.79-2.92C69.83,231.76,69.35,230.92,68.86,230.07Z"/><path class="cls-44" d="M76.66,233.36c.81-.08,1.58-.17,2.31-.28,0,.36-.06.63-.08.81-1.39.18-2.48.32-3.27.44l-.19-.87a9.77,9.77,0,0,0,1.9-2.63L75.5,231l-.23-.78a20,20,0,0,0,1.91-3.85l.92.34a37.22,37.22,0,0,1-1.83,3.44l1.47,0c.28-.52.59-1.1.92-1.75l.87.38C78.58,230.42,77.63,232,76.66,233.36Zm-1.39,2.78c1.3-.25,2.66-.54,4.07-.88,0,.38,0,.68,0,.91-1.25.28-2.51.59-3.76.91Zm3.91-5.88a16.35,16.35,0,0,0,2.17-4l.88.3c-.15.36-.31.72-.48,1.06H86v.84A10.29,10.29,0,0,1,83.8,231a12.69,12.69,0,0,0,3,1.27,10.17,10.17,0,0,0-.47,1A12.4,12.4,0,0,1,83,231.62a16.43,16.43,0,0,1-3.5,1.86q-.26-.4-.57-.84A14.21,14.21,0,0,0,82.31,231a7,7,0,0,1-1.39-1.83,18.92,18.92,0,0,1-1.12,1.72C79.65,230.72,79.44,230.51,79.18,230.26Zm.91,3.16H85.9v4.63H85v-.6H81v.6h-.91Zm4.91.85H81v2.33h4Zm-.11-5.89H81.4a7,7,0,0,0,1.62,2.1A8.43,8.43,0,0,0,84.89,228.38Z"/><path class="cls-44" d="M206.13,218.87c.64.46,1.35,1,2.15,1.64-.28.34-.51.61-.69.79-.79-.69-1.47-1.27-2.07-1.73Zm.85,3.41a3.53,3.53,0,0,0,.86.41c-.33,1.39-.71,3-1.12,4.75l-.94-.31Q206.49,224.63,207,222.28Zm-.32-6.54c.64.48,1.3,1,2,1.64-.29.28-.53.53-.73.75-.71-.7-1.34-1.27-1.88-1.72Zm4.42,2.9h1.58c.18-.46.35-.94.52-1.44h-3.09v3.52q0,4.8-1.88,6.87a7,7,0,0,0-.71-.76c1.12-1.25,1.69-3.28,1.69-6.1v-4.36h8.47v.83h-3.43q-.33.74-.69,1.44h3.23v5h-.88v-.32h-1.58v2.87a1.13,1.13,0,0,1-1.27,1.3H212c0-.24-.1-.52-.17-.84.41,0,.76,0,1.06,0s.56-.2.56-.59v-2.78H212v.32h-.88ZM210,226.53a13.88,13.88,0,0,0,1.84-2.51l.78.48a20,20,0,0,1-1.9,2.59Zm5.92-7.08H212v1.13h3.93ZM212,222.52h3.93v-1.16H212Zm5.67,3.9-.77.58a29.68,29.68,0,0,0-1.88-2.54l.71-.5C216.43,224.83,217.08,225.64,217.63,226.42Z"/><path class="cls-44" d="M218.64,217.58h1.23c.3-.74.55-1.42.74-2l1,.3c-.26.62-.51,1.2-.75,1.73h2.44v9.72h-1v-1h-2.75v1h-1Zm3.72.92h-2.75v3h2.75Zm-2.75,6.93h2.75v-3.09h-2.75Zm3.91-5.35a18.08,18.08,0,0,0,1.94-4.53l1,.26c-.2.61-.41,1.19-.63,1.73h3.93q-.15,6.28-.24,7.9a1.79,1.79,0,0,1-2,1.92c-.74,0-1.49,0-2.26-.08a8.86,8.86,0,0,0-.19-1.08h0a16.69,16.69,0,0,0,2.23.17,1.1,1.1,0,0,0,1.2-1.17c.09-1.22.15-3.46.19-6.74h-3.27a15.82,15.82,0,0,1-1.1,2.07A5.32,5.32,0,0,0,223.52,220.08Zm1.07.83.75-.55c.9,1.07,1.62,2,2.16,2.77l-.91.64A27.08,27.08,0,0,0,224.59,220.91Z"/><path class="cls-44" d="M230.69,219.61l.61-.71c.66.45,1.35,1,2.07,1.57-.29.34-.53.61-.71.8C231.82,220.51,231.16,220,230.69,219.61Zm.37,7.54a37.69,37.69,0,0,0,1.27-4.74c.36.16.69.28,1,.38-.36,1.41-.76,3-1.18,4.69Zm.1-10.73.63-.65c.59.48,1.25,1,2,1.69l-.72.72A24.15,24.15,0,0,0,231.16,216.42Zm3.87,5.46H236a9.8,9.8,0,0,1-.5,3.74,4.26,4.26,0,0,1-2,2,4.57,4.57,0,0,0-.62-.81,3.54,3.54,0,0,0,1.77-1.68A8.28,8.28,0,0,0,235,221.88Zm5.29-3.24c.63.73,1.34,1.62,2.11,2.67-.3.19-.6.38-.88.58L241,221l-5.51.27a5.46,5.46,0,0,0-1,.15l-.42-.92a4.38,4.38,0,0,0,.86-.56,14,14,0,0,0,1.88-2h-2.71v-.86H238c-.31-.48-.61-.9-.89-1.26l.81-.5c.3.38.64.83,1,1.34l-.63.42h4.15V218H237l.81.34a24.86,24.86,0,0,1-2.13,2.06l4.67-.16c-.28-.39-.55-.74-.81-1.07Zm-2.88,3.24h.91v5.44h-.91Zm2.23,0h.92v4.09c0,.37.14.56.44.56h.42c.26,0,.41-.21.48-.62s.09-1,.11-1.54a7.49,7.49,0,0,0,.91.35,14.71,14.71,0,0,1-.18,1.58,1.08,1.08,0,0,1-1.16,1.08h-.76c-.78,0-1.18-.47-1.18-1.43Z"/><path class="cls-44" d="M243.49,217.67h5.86q-.61-1.18-1-1.71l1-.46c.23.35.57.92,1,1.71l-.9.46h5.79v.92h-7.4q0,1.11-.09,1.89h5.89c-.1,1.77-.2,3.3-.32,4.61-.09,1.47-.8,2.21-2.14,2.21-.62,0-1.45,0-2.48-.1,0-.31-.1-.69-.18-1.12a21.15,21.15,0,0,0,2.51.2c.75,0,1.17-.44,1.26-1.33s.18-2.15.25-3.55H247.7a7.92,7.92,0,0,1-3.73,6.25c-.22-.26-.47-.54-.75-.83a7.11,7.11,0,0,0,3.46-5.69c.06-.64.1-1.49.14-2.54h-3.33Z"/><path class="cls-44" d="M257.73,227.46h-1v-10h3.6c.2-.6.4-1.23.58-1.89l1.05.29c-.21.57-.42,1.11-.62,1.6h5.71V226a1.22,1.22,0,0,1-1.38,1.38c-.51,0-1.13,0-1.85,0,0-.28-.1-.6-.17-1,.7.05,1.29.08,1.78.08s.67-.23.67-.7v-7.46h-8.42Zm1.67-7.37h5.05v4.29h-4.12v.84h-.93Zm4.13.88h-3.2v2.53h3.2Z"/><path class="cls-44" d="M208.34,241.3a8.45,8.45,0,0,1-2.05-5.76,8.79,8.79,0,0,1,2.05-5.85h1.06a9,9,0,0,0-2.06,5.84,8.75,8.75,0,0,0,2,5.77Z"/><path class="cls-44" d="M212.12,229.68l-.2,2.94h-.82l-.19-2.94Zm1.65,0-.19,2.94h-.83l-.2-2.94Z"/><path class="cls-44" d="M219.5,233.58a1.44,1.44,0,0,0-.83-.21,1.33,1.33,0,0,0-1.14.65,2.93,2.93,0,0,0-.45,1.71v3.42h-1.2V232.4h1.2v1.37h0a1.85,1.85,0,0,1,1.77-1.49,1.75,1.75,0,0,1,.63.09Z"/><path class="cls-44" d="M226.06,236.08h-4.72a2.46,2.46,0,0,0,.59,1.67,2.07,2.07,0,0,0,1.57.59,3.38,3.38,0,0,0,2.08-.73v1.07a4,4,0,0,1-2.36.63,2.9,2.9,0,0,1-2.29-.93,3.75,3.75,0,0,1-.82-2.58,3.68,3.68,0,0,1,.9-2.55,2.86,2.86,0,0,1,2.24-1,2.61,2.61,0,0,1,2.07.85,3.53,3.53,0,0,1,.74,2.38Zm-1.19-1a2.17,2.17,0,0,0-.44-1.42,1.49,1.49,0,0,0-1.2-.5,1.7,1.7,0,0,0-1.24.53,2.54,2.54,0,0,0-.65,1.39Z"/><path class="cls-44" d="M233.6,242.25h-1.19V238h0a2.4,2.4,0,0,1-2.28,1.3,2.54,2.54,0,0,1-2-.9,3.72,3.72,0,0,1-.77-2.48,4,4,0,0,1,.84-2.68,2.79,2.79,0,0,1,2.26-1,2.13,2.13,0,0,1,2,1.07h0v-.91h1.19Zm-1.19-7.09a2,2,0,0,0-.51-1.37,1.78,1.78,0,0,0-1.35-.56,1.8,1.8,0,0,0-1.5.7,3.2,3.2,0,0,0-.54,2,2.79,2.79,0,0,0,.52,1.78,1.71,1.71,0,0,0,1.37.64,1.84,1.84,0,0,0,1.47-.64,2.37,2.37,0,0,0,.54-1.59Z"/><path class="cls-44" d="M241.4,239.15h-1.2v-1.06h0a2.23,2.23,0,0,1-2.08,1.22c-1.6,0-2.4-1-2.4-2.87v-4h1.19v3.86c0,1.37.52,2.06,1.57,2.06a1.55,1.55,0,0,0,1.26-.58,2.19,2.19,0,0,0,.49-1.45V232.4h1.2Z"/><path class="cls-44" d="M249.12,236.08h-4.73a2.46,2.46,0,0,0,.59,1.67,2.09,2.09,0,0,0,1.57.59,3.36,3.36,0,0,0,2.08-.73v1.07a4,4,0,0,1-2.36.63,2.86,2.86,0,0,1-2.28-.93,3.76,3.76,0,0,1-.83-2.58,3.68,3.68,0,0,1,.9-2.55,2.88,2.88,0,0,1,2.24-1,2.61,2.61,0,0,1,2.07.85,3.48,3.48,0,0,1,.75,2.38Zm-1.2-1a2.17,2.17,0,0,0-.43-1.42,1.52,1.52,0,0,0-1.21-.5,1.69,1.69,0,0,0-1.23.53,2.49,2.49,0,0,0-.66,1.39Z"/><path class="cls-44" d="M250.42,237.69a3.28,3.28,0,0,0,1.94.65c.93,0,1.4-.3,1.4-.91a.82.82,0,0,0-.3-.65,4.87,4.87,0,0,0-1.24-.6,3.55,3.55,0,0,1-1.46-.89,1.79,1.79,0,0,1,.42-2.51,3.15,3.15,0,0,1,1.87-.54,4.18,4.18,0,0,1,1.6.3v1.15a3.11,3.11,0,0,0-1.71-.49,1.66,1.66,0,0,0-.94.25.78.78,0,0,0-.36.66.8.8,0,0,0,.26.63,4.64,4.64,0,0,0,1.15.58,3.9,3.9,0,0,1,1.53.87,1.67,1.67,0,0,1,.4,1.12,1.7,1.7,0,0,1-.76,1.46,3.35,3.35,0,0,1-2,.54,4,4,0,0,1-1.83-.4Z"/><path class="cls-44" d="M259.91,239.08a2.24,2.24,0,0,1-1.06.21c-1.2,0-1.81-.66-1.81-2v-3.9h-1.16v-1H257v-1.63l1.19-.37v2h1.68v1h-1.68v3.68a1.54,1.54,0,0,0,.23,1,.87.87,0,0,0,.75.29,1.12,1.12,0,0,0,.7-.22Z"/><path class="cls-44" d="M262.85,229.68l-.2,2.94h-.82l-.19-2.94Zm1.65,0-.19,2.94h-.83l-.2-2.94Z"/><path class="cls-44" d="M266,241.3a8.76,8.76,0,0,0,2.06-5.77,9,9,0,0,0-2.07-5.84h1.06a8.68,8.68,0,0,1,2.06,5.85,8.34,8.34,0,0,1-2.06,5.76Z"/><path class="cls-44" d="M210.52,267.18l3,0,4-.09c-.09.27-.2.59-.34,1h-3.93l-3,0a3.17,3.17,0,0,1-2.92-1.42,20.66,20.66,0,0,0-1.47,1.64l-.5-1c.72-.7,1.25-1.2,1.57-1.5v-4.11h-1.46v-.9h2.4V266A2.86,2.86,0,0,0,210.52,267.18Zm-3.59-10.53c.41.5,1,1.27,1.71,2.31l-.87.61q-1-1.56-1.62-2.4ZM211,262l.58-.63c.87.64,1.69,1.27,2.48,1.88a8,8,0,0,0,1.61-2.52h-4.91a8.22,8.22,0,0,1-1.72,5.51,7,7,0,0,0-.65-.77,7.12,7.12,0,0,0,1.44-4.82v-3.35a51.63,51.63,0,0,0,7-.52l.34.95q-3.15.33-6.42.43v1.72h5.91v.86a8.62,8.62,0,0,1-1.85,3.1c.85.68,1.64,1.33,2.36,2l-.73.79c-.78-.71-1.56-1.39-2.34-2.05a13.46,13.46,0,0,1-3.52,2.2c-.18-.25-.38-.51-.61-.78a13.15,13.15,0,0,0,3.38-2.05C212.57,263.23,211.78,262.59,211,262Z"/><path class="cls-44" d="M218.77,257.15h10.67v11.18h-1v-.78H219.8v.78h-1Zm9.65.9H219.8v8.62h8.62Zm-6.91,1.87h5.19v5.33h-1v-.68h-3.28v.68h-1Zm4.23.85h-3.28v3h3.28Z"/><path class="cls-44" d="M231.13,258.44h1.23c.3-.74.55-1.41.75-2l1,.29c-.25.62-.5,1.2-.74,1.73h2.44v9.72h-1v-1H232.1v1h-1Zm3.72.92H232.1v3h2.75Zm-2.75,6.93h2.75V263.2H232.1ZM236,261a18,18,0,0,0,1.94-4.53l1,.25c-.21.62-.42,1.2-.64,1.74h3.93c-.09,4.18-.18,6.81-.24,7.89a1.79,1.79,0,0,1-2,1.92c-.74,0-1.49,0-2.25-.07a8.93,8.93,0,0,0-.2-1.09h0a15.28,15.28,0,0,0,2.23.17,1.1,1.1,0,0,0,1.2-1.17q.14-1.81.19-6.74H238a16,16,0,0,1-1.1,2.08A4.06,4.06,0,0,0,236,261Zm1.07.83.75-.55c.9,1.06,1.62,2,2.16,2.77l-.9.63A29.91,29.91,0,0,0,237.08,261.78Z"/><path class="cls-44" d="M243.18,260.47l.61-.71c.66.46,1.35,1,2.07,1.58-.29.34-.52.6-.7.79C244.31,261.37,243.65,260.82,243.18,260.47Zm.38,7.54a39.81,39.81,0,0,0,1.27-4.73c.36.15.68.28,1,.38-.37,1.4-.77,3-1.19,4.68Zm.1-10.73.62-.64c.59.47,1.26,1,2,1.68l-.72.72C244.87,258.36,244.24,257.77,243.66,257.28Zm3.86,5.46h.93a9.7,9.7,0,0,1-.5,3.75,4.26,4.26,0,0,1-2,2,4.64,4.64,0,0,0-.63-.8,3.52,3.52,0,0,0,1.77-1.69A8.28,8.28,0,0,0,247.52,262.74Zm5.29-3.23c.64.73,1.34,1.62,2.11,2.67l-.88.57-.59-.85-5.51.27a4.58,4.58,0,0,0-1,.14l-.41-.91a5.94,5.94,0,0,0,.85-.56,14,14,0,0,0,1.88-2h-2.71V258h3.88c-.31-.48-.61-.9-.89-1.26l.81-.5c.3.38.64.83,1,1.34l-.63.42h4.15v.87h-5.4l.81.34a26.22,26.22,0,0,1-2.12,2.05l4.67-.16c-.29-.38-.56-.74-.82-1.06Zm-2.88,3.23h.91v5.44h-.91Zm2.23-.05h.92v4.09c0,.37.15.56.44.56H254c.25,0,.41-.21.47-.62a13.07,13.07,0,0,0,.11-1.54,9.8,9.8,0,0,0,.92.36c-.06.68-.12,1.2-.19,1.57a1.08,1.08,0,0,1-1.16,1.09h-.75c-.79,0-1.19-.48-1.19-1.43Z"/><path class="cls-44" d="M256,258.53h5.86c-.42-.78-.74-1.35-1-1.71l.95-.45c.23.35.57.92,1,1.71l-.89.45h5.78v.93h-7.4q0,1.11-.09,1.89h5.89c-.09,1.76-.2,3.3-.31,4.6-.09,1.47-.81,2.21-2.15,2.21-.62,0-1.45,0-2.48-.1,0-.31-.1-.68-.18-1.12a19.5,19.5,0,0,0,2.51.21c.75,0,1.17-.45,1.26-1.33s.18-2.16.26-3.56h-4.87a7.92,7.92,0,0,1-3.73,6.25c-.22-.26-.47-.53-.74-.83a7.08,7.08,0,0,0,3.45-5.68c.06-.65.11-1.49.14-2.54H256Z"/><path class="cls-44" d="M270.22,268.32h-1v-10h3.6c.2-.61.4-1.24.59-1.9l1.05.3c-.22.57-.42,1.1-.63,1.6h5.72v8.58a1.22,1.22,0,0,1-1.38,1.38l-1.86,0c0-.28-.1-.6-.17-1,.7.06,1.29.09,1.78.09s.67-.24.67-.71V259.2h-8.42Zm1.67-7.36H277v4.28h-4.13v.84h-.93Zm4.13.88h-3.2v2.52H276Z"/><path class="cls-44" d="M208.25,282.16a8.42,8.42,0,0,1-2.06-5.76,8.76,8.76,0,0,1,2.06-5.84h1.05a9,9,0,0,0-2.06,5.83,8.75,8.75,0,0,0,2,5.77Z"/><path class="cls-44" d="M212,270.54l-.2,2.95H211l-.2-2.95Zm1.65,0-.2,2.95h-.82l-.2-2.95Z"/><path class="cls-44" d="M219.4,274.44a1.4,1.4,0,0,0-.82-.21,1.37,1.37,0,0,0-1.15.65,3,3,0,0,0-.45,1.71V280h-1.2v-6.75H217v1.37h0a1.86,1.86,0,0,1,1.77-1.49,1.65,1.65,0,0,1,.63.1Z"/><path class="cls-44" d="M226,276.94h-4.73a2.44,2.44,0,0,0,.59,1.67,2.09,2.09,0,0,0,1.57.59,3.3,3.3,0,0,0,2.08-.73v1.07a4,4,0,0,1-2.36.63,2.88,2.88,0,0,1-2.28-.93,3.74,3.74,0,0,1-.82-2.57,3.69,3.69,0,0,1,.9-2.56,2.87,2.87,0,0,1,2.23-1,2.61,2.61,0,0,1,2.07.85,3.51,3.51,0,0,1,.75,2.39Zm-1.2-1a2.12,2.12,0,0,0-.43-1.41,1.49,1.49,0,0,0-1.21-.5,1.65,1.65,0,0,0-1.23.53,2.43,2.43,0,0,0-.66,1.38Z"/><path class="cls-44" d="M228.84,279.06v4.06h-1.19v-9.86h1.19v1.17h0a2.54,2.54,0,0,1,2.32-1.33,2.46,2.46,0,0,1,2,.91,3.73,3.73,0,0,1,.73,2.43,4.19,4.19,0,0,1-.83,2.71,2.75,2.75,0,0,1-2.24,1,2.25,2.25,0,0,1-2-1.11Zm0-1.83a1.93,1.93,0,0,0,.53,1.39,1.77,1.77,0,0,0,1.33.56,1.75,1.75,0,0,0,1.49-.73,3.37,3.37,0,0,0,.54-2,2.66,2.66,0,0,0-.5-1.71,1.68,1.68,0,0,0-1.37-.62,1.85,1.85,0,0,0-1.45.63,2.31,2.31,0,0,0-.57,1.61Z"/><path class="cls-44" d="M235.71,280V270h1.2v10Z"/><path class="cls-44" d="M244.63,273.26,241.56,281c-.57,1.44-1.37,2.16-2.41,2.16a2.41,2.41,0,0,1-.76-.1v-1a1.83,1.83,0,0,0,.67.14,1.3,1.3,0,0,0,1.21-.95l.52-1.23-2.65-6.74h1.33l1.76,5.07.15.56h0a3.3,3.3,0,0,1,.15-.54l1.84-5.09Z"/><path class="cls-44" d="M247.47,270.54l-.21,2.95h-.81l-.2-2.95Zm1.64,0-.19,2.95h-.83l-.2-2.95Z"/><path class="cls-44" d="M250.64,282.16a8.74,8.74,0,0,0,2.06-5.77,8.93,8.93,0,0,0-2.07-5.83h1.06a8.67,8.67,0,0,1,2.06,5.84,8.34,8.34,0,0,1-2.06,5.76Z"/><path class="cls-44" d="M77.13,125.83h-4.9v-9.41h1.2v8.33h3.7Z"/><path class="cls-44" d="M78.5,125.83v-9.41h2.73a3.05,3.05,0,0,1,2,.59,2,2,0,0,1,.73,1.57,2.24,2.24,0,0,1-.44,1.37,2.36,2.36,0,0,1-1.19.85v0a2.38,2.38,0,0,1,1.51.73,2.21,2.21,0,0,1,.57,1.56,2.5,2.5,0,0,1-.86,2,3.25,3.25,0,0,1-2.21.75Zm1.2-8.35v3h1.09a2,2,0,0,0,1.37-.43,1.49,1.49,0,0,0,.49-1.19c0-.88-.58-1.33-1.75-1.33Zm0,4v3.28h1.44a2.16,2.16,0,0,0,1.46-.44,1.52,1.52,0,0,0,.51-1.22c0-1.08-.72-1.62-2.17-1.62Z"/><path class="cls-44" d="M89.34,118.82c.74.54,1.43,1.09,2.08,1.64-.3.36-.53.63-.7.81q-.9-.84-2-1.74Zm1.14,3.54a10.94,10.94,0,0,0,1,.49c-.42,1.37-.88,2.85-1.36,4.44l-1.08-.49A33.1,33.1,0,0,0,90.48,122.36Zm-.56-6.66c.79.63,1.48,1.2,2.07,1.72l-.72.77c-.6-.59-1.26-1.2-2-1.82Zm5.87-.18h.94v3l3.2-.73c-.05,1.79-.1,3-.13,3.73a2.53,2.53,0,0,1-.37,1.44,1.38,1.38,0,0,1-1.13.39h-1c0-.32-.1-.65-.18-1a7.39,7.39,0,0,0,1.1.09c.37,0,.58-.31.61-.92,0-.42.06-1.29.08-2.58l-2.23.52v5.42h-.94v-5.2l-2.06.48v5a.83.83,0,0,0,.92.94h3.76a.92.92,0,0,0,1-.82c.09-.44.17-1.07.25-1.89.32.13.66.24,1,.35a16.85,16.85,0,0,1-.35,2A1.58,1.58,0,0,1,98.64,127H94.47a1.5,1.5,0,0,1-1.68-1.7v-5l-1,.22-.15-.9,1.12-.25v-2.47h.94v2.25l2.06-.47Z"/></g></svg>