<svg xmlns="http://www.w3.org/2000/svg" xmlns:xlink="http://www.w3.org/1999/xlink" viewBox="0 0 221 285.86"><defs><style>.cls-1{fill:#fff;}.cls-2,.cls-3{fill:#3c3c41;}.cls-3{opacity:0.2;}.cls-25,.cls-29,.cls-3{isolation:isolate;}.cls-4{fill:#ccc;fill-opacity:0.3;}.cls-5{fill:url(#Degradado_sin_nombre);}.cls-6{fill:#50e6ff;}.cls-7{fill:#c3f1ff;}.cls-8{fill:#9cebff;}.cls-9{fill:url(#Degradado_sin_nombre_2);}.cls-10{fill:url(#Degradado_sin_nombre_3);}.cls-11{fill:url(#Degradado_sin_nombre_4);}.cls-12{fill:#005ba1;}.cls-13{fill:#0078d4;}.cls-14{fill:url(#Degradado_sin_nombre_5);}.cls-15{fill:url(#Degradado_sin_nombre_6);}.cls-16{fill:url(#Degradado_sin_nombre_7);}.cls-17{fill:url(#Degradado_sin_nombre_8);}.cls-18,.cls-19,.cls-20,.cls-26,.cls-28{fill:none;stroke-miterlimit:10;}.cls-18,.cls-19,.cls-20{stroke:#3c3c41;}.cls-19,.cls-28{stroke-dasharray:1.46 2.43;}.cls-20{stroke-dasharray:1.31 2.19;}.cls-21{fill:url(#Degradado_sin_nombre_9);}.cls-22{fill:url(#Degradado_sin_nombre_10);}.cls-23{fill:url(#Degradado_sin_nombre_11);}.cls-24{fill:#1490df;}.cls-25{fill:#83b9f9;}.cls-25,.cls-29{opacity:0.4;}.cls-26,.cls-28{stroke:#003067;}.cls-27{fill:#003067;}.cls-29,.cls-30{fill:#6ebcdb;}.cls-31{fill:#5db4d7;}.cls-32{fill:#e6e6e6;}.cls-33{fill:#86d633;}.cls-34{fill:#1e1e1e;}.cls-35{fill:#767676;}</style><linearGradient id="Degradado_sin_nombre" x1="37.07" y1="418.22" x2="37.07" y2="399.46" gradientTransform="translate(0 -276.6)" gradientUnits="userSpaceOnUse"><stop offset="0" stop-color="#0078d4"/><stop offset="0.82" stop-color="#5ea0ef"/></linearGradient><linearGradient id="Degradado_sin_nombre_2" x1="37.05" y1="425.46" x2="37.05" y2="418.22" gradientTransform="translate(0 -276.6)" gradientUnits="userSpaceOnUse"><stop offset="0.15" stop-color="#ccc"/><stop offset="1" stop-color="#707070"/></linearGradient><linearGradient id="Degradado_sin_nombre_3" x1="77.43" y1="418.22" x2="77.43" y2="399.46" xlink:href="#Degradado_sin_nombre"/><linearGradient id="Degradado_sin_nombre_4" x1="77.43" y1="425.46" x2="77.43" y2="418.22" xlink:href="#Degradado_sin_nombre_2"/><linearGradient id="Degradado_sin_nombre_5" x1="188.87" y1="421.46" x2="188.87" y2="411.12" xlink:href="#Degradado_sin_nombre"/><linearGradient id="Degradado_sin_nombre_6" x1="188.94" y1="425.46" x2="188.94" y2="421.46" xlink:href="#Degradado_sin_nombre_2"/><linearGradient id="Degradado_sin_nombre_7" x1="141.17" y1="418.22" x2="141.17" y2="399.46" xlink:href="#Degradado_sin_nombre"/><linearGradient id="Degradado_sin_nombre_8" x1="141.17" y1="425.46" x2="141.17" y2="418.22" xlink:href="#Degradado_sin_nombre_2"/><linearGradient id="Degradado_sin_nombre_9" x1="23.52" y1="477.64" x2="25.89" y2="480.01" gradientTransform="translate(2.88 -278.01)" gradientUnits="userSpaceOnUse"><stop offset="0" stop-color="#86d633"/><stop offset="0.24" stop-color="#83d232"/><stop offset="0.5" stop-color="#7cc52f"/><stop offset="0.76" stop-color="#6fb02a"/><stop offset="1" stop-color="#5e9624"/></linearGradient><linearGradient id="Degradado_sin_nombre_10" x1="18.18" y1="477.64" x2="20.53" y2="480.01" xlink:href="#Degradado_sin_nombre_9"/><linearGradient id="Degradado_sin_nombre_11" x1="12.83" y1="477.64" x2="15.19" y2="480.01" xlink:href="#Degradado_sin_nombre_9"/></defs><title>OJ104903192</title><g id="Target"><g id="Shapes"><rect class="cls-1" width="221" height="285.86"/><path class="cls-2" d="M214.34,201.17h-1v-1h1Zm-3,0h-1v-1h1Zm-3,0h-1v-1h1Zm-3,0h-1v-1h1Zm-3,0h-1v-1h1Zm-3,0h-1v-1h1Zm-3,0h-1v-1h1Zm-3,0h-1v-1h1Zm-3,0h-1v-1h1Zm-3,0h-1v-1h1Zm-3,0h-1v-1h1Zm-3,0h-1v-1h1Zm-3,0h-1v-1h1Zm-3,0h-1v-1h1Zm-3,0h-1v-1h1Zm-3,0h-1v-1h1Zm-3,0h-1v-1h1Zm-3,0h-1v-1h1Zm-3,0h-1v-1h1Zm-3,0h-1v-1h1Zm-3,0h-1v-1h1Zm-3,0h-1v-1h1Zm-3,0h-1v-1h1Zm-3,0h-1v-1h1Zm-3,0h-1v-1h1Zm-3,0h-1v-1h1Zm-3,0h-1v-1h1Zm-3,0h-1v-1h1Zm-3,0h-1v-1h1Zm-3,0h-1v-1h1Zm-3,0h-1v-1h1Zm-3,0h-1v-1h1Zm-3,0h-1v-1h1Zm-3,0h-1v-1h1Zm-3,0h-1v-1h1Zm-3,0h-1v-1h1Zm-3,0h-1v-1h1Zm-3,0h-1v-1h1Zm-3,0h-1v-1h1Zm-3,0h-1v-1h1Zm-3,0h-1v-1h1Zm-3,0h-1v-1h1Zm-3,0h-1v-1h1Zm-3,0h-1v-1h1Zm-3,0h-1v-1h1Zm-3,0h-1v-1h1Zm-3,0h-1v-1h1Zm-3,0h-1v-1h1Zm-3,0h-1v-1h1Zm-3,0h-1v-1h1Zm-3,0h-1v-1h1Zm-3,0h-1v-1h1Zm-3,0h-1v-1h1Zm-3,0H54v-1h1Zm-3,0H51v-1h1Zm-3,0H48v-1h1Zm-3,0H45v-1h1Zm-3,0H42v-1h1Zm-3,0H39v-1h1Zm-3,0H36v-1h1Zm-30,0H6v-1H7Zm209.46-.08-.17-1a4.29,4.29,0,0,0,.87-.23l.36.93a5.86,5.86,0,0,1-1.44.3Zm-213-.19a5.91,5.91,0,0,1-1-.43l.49-.88a4,4,0,0,0,.82.36Zm215.5-1.29-.69-.71a4.82,4.82,0,0,0,.58-.69l.82.57A5.65,5.65,0,0,1,219.32,199.61ZM1.16,199a5.71,5.71,0,0,1-.59-.94l.9-.44a3.75,3.75,0,0,0,.48.76Zm219.73-2.28-1-.2a4.41,4.41,0,0,0,.09-.89l1-.06v.06a5.33,5.33,0,0,1-.09,1.13ZM0,196v-1H1v1Zm221-2.38h-1v-1h1ZM1,193H0v-1H1Zm220-2.35h-1v-1h1ZM1,190H0v-1H1Zm220-2.36h-1v-1h1Zm-220-.7H0v-1H1Zm220-2.35h-1v-1h1ZM1,183.94H0v-1H1Zm220-2.36h-1v-1h1ZM1,180.93H0v-1H1Zm220-2.35h-1v-1h1ZM1,177.93H0v-1H1Zm220-2.36h-1v-1h1ZM1,174.92H0v-1H1Zm220-2.35h-1v-1h1ZM1,171.92H0v-1H1Zm220-2.36h-1v-1h1ZM1,168.91H0v-1H1Zm220-2.35h-1v-1h1ZM1,165.9H0v-1H1Zm220-2.35h-1v-1h1ZM1,162.9H0v-1H1Zm220-2.35h-1v-1h1ZM1,159.89H0v-1H1Zm220-2.35h-1v-1h1ZM1,156.89H0v-1H1Zm220-2.36h-1v-1h1ZM1,153.88H0v-1H1Zm220-2.35h-1v-1h1ZM1,150.88H0v-1H1Zm220-2.36h-1v-1h1ZM1,147.87H0v-1H1Zm220-2.35h-1v-1h1ZM1,144.87H0v-1H1Zm220-2.36h-1v-1h1ZM1,141.86H0v-1H1Zm220-2.35h-1v-1h1ZM1,138.86H0v-1H1Zm220-2.36h-1v-1h1ZM1,135.85H0v-1H1Zm220-2.35h-1v-1h1ZM1,132.85H0v-1H1Zm220-2.36h-1v-1h1ZM1,129.84H0v-1H1Zm220-2.36h-1v-1h1ZM1,126.83H0v-1H1Zm220-2.35h-1v-1h1ZM1,123.83H0v-1H1Zm220-2.36h-1v-1h1ZM1,120.82H0v-1H1Zm220-2.35h-1v-1h1ZM1,117.82H0v-1H1Zm220-2.36h-1v-1h1ZM1,114.81H0v-1H1Zm220-2.35h-1v-1h1ZM1,111.81H0v-1H1Zm220-2.36h-1v-1h1ZM1,108.8H0v-1H1Zm220-2.35h-1v-1h1ZM1,105.8H0v-1H1Zm220-2.36h-1v-1h1ZM1,102.79H0v-1H1Zm220-2.35h-1v-1h1ZM1,99.78H0v-1H1Zm220-2.35h-1v-1h1ZM1,96.78H0v-1H1Zm220-2.36h-1v-1h1ZM1,93.77H0v-1H1Zm220-2.35h-1v-1h1ZM1,90.77H0v-1H1Zm220-2.36h-1v-1h1ZM1,87.76H0v-1H1Zm220-2.35h-1v-1h1ZM1,84.76H0v-1H1ZM221,82.4h-1v-1h1ZM1,81.75H0v-1H1ZM221,79.4h-1v-1h1ZM1,78.75H0v-1H1Zm220-2.36h-1v-1h1ZM1,75.74H0v-1H1Zm220-2.35h-1v-1h1ZM1,72.73H0v-1H1Zm220-2.35h-1v-1h1ZM1,69.73H0v-1H1Zm220-2.35h-1v-1h1ZM1,66.72H0v-1H1Zm220-2.35h-1v-1h1ZM1,63.72H0v-1H1Zm220-2.36h-1v-1h1ZM1,60.71H0v-1H1Zm220-2.35h-1v-1h1ZM1,57.71H0v-1H1Zm220-2.36h-1v-1h1ZM1,54.7H0v-1H1Zm220-2.35h-1v-.68a1.41,1.41,0,0,0,0-.29l1-.07v1ZM0,51.7H0a5.77,5.77,0,0,1,.1-1.1l1,.2a5.12,5.12,0,0,0-.08.87Zm219.52-2.05a5.41,5.41,0,0,0-.48-.76l.78-.62a5,5,0,0,1,.59.93ZM1.78,49.15,1,48.59a5.25,5.25,0,0,1,.71-.85l.7.72A4.57,4.57,0,0,0,1.78,49.15Zm215.89-1.42a4.09,4.09,0,0,0-.83-.36l.31-.95a5.91,5.91,0,0,1,1,.43ZM3.86,47.48l-.37-.93a4.92,4.92,0,0,1,1.06-.3l.17,1A5.2,5.2,0,0,0,3.86,47.48ZM215,47.17h-1v-1h1Zm-3,0h-1v-1h1Zm-3,0h-1v-1h1Zm-3,0h-1v-1h1Zm-3,0h-1v-1h1Zm-3,0h-1v-1h1Zm-3,0h-1v-1h1Zm-3,0h-1v-1h1Zm-3,0h-1v-1h1Zm-3,0h-1v-1h1Zm-3,0h-1v-1h1Zm-3,0h-1v-1h1Zm-3,0h-1v-1h1Zm-3,0h-1v-1h1Zm-3,0h-1v-1h1Zm-3,0h-1v-1h1Zm-3,0h-1v-1h1Zm-3,0h-1v-1h1Zm-3,0h-1v-1h1Zm-3,0h-1v-1h1Zm-3,0h-1v-1h1Zm-27,0h-1v-1h1Zm-3,0h-1v-1h1Zm-3,0h-1v-1h1Zm-3,0h-1v-1h1Zm-3,0h-1v-1h1Zm-3,0h-1v-1h1Zm-3,0h-1v-1h1Zm-3,0h-1v-1h1Zm-3,0h-1v-1h1Zm-3,0h-1v-1h1Zm-3,0H97v-1h1Zm-3,0H94v-1h1Zm-3,0H91v-1h1Zm-3,0H88v-1h1Zm-3,0H85v-1h1Zm-3,0H82v-1h1Zm-3,0H79v-1h1Zm-3,0H76v-1h1Zm-3,0H73v-1h1Zm-3,0H70v-1h1Zm-3,0H67v-1h1Zm-3,0H64v-1h1Zm-3,0H61v-1h1Zm-3,0H58v-1h1Zm-3,0H55v-1h1Zm-3,0H52v-1h1Zm-3,0H49v-1h1Zm-3,0H46v-1h1Zm-3,0H43v-1h1Zm-3,0H40v-1h1Zm-3,0H37v-1h1Zm-3,0H34v-1h1Zm-3,0H31v-1h1Zm-3,0H28v-1h1Zm-3,0H25v-1h1Zm-3,0H22v-1h1Zm-3,0H19v-1h1Zm-3,0H16v-1h1Zm-3,0H13v-1h1Zm-3,0H10v-1h1Zm-3,0H7v-1H8Z"/><rect class="cls-1" x="10" y="90.86" width="95" height="95" rx="0.3"/><rect class="cls-3" x="10" y="90.86" width="95" height="95" rx="0.3"/><rect class="cls-4" x="65" y="210.86" width="155" height="35"/><rect class="cls-4" x="65" y="250.86" width="155" height="35"/><rect class="cls-5" x="23" y="122.86" width="28.14" height="18.76" rx="0.94"/><polygon class="cls-6" points="41.76 129.5 41.76 134.96 37.07 137.71 37.07 132.24 41.76 129.5"/><polygon class="cls-7" points="41.76 129.5 37.07 132.25 32.38 129.5 37.07 126.76 41.76 129.5"/><polygon class="cls-8" points="37.07 132.25 37.07 137.71 32.38 134.96 32.38 129.5 37.07 132.25"/><polygon class="cls-7" points="32.38 134.96 37.07 132.24 37.07 137.71 32.38 134.96"/><polygon class="cls-8" points="41.76 134.96 37.07 132.24 37.07 137.71 41.76 134.96"/><path class="cls-9" d="M42.71,147.29c-2.78-.44-2.89-2.44-2.89-5.67H34.3c0,3.23-.09,5.23-2.87,5.67A1.56,1.56,0,0,0,30,148.86H44.11A1.58,1.58,0,0,0,42.71,147.29Z"/><rect class="cls-10" x="63.36" y="122.86" width="28.14" height="18.76" rx="0.94"/><polygon class="cls-6" points="82.12 129.5 82.12 134.96 77.43 137.71 77.43 132.24 82.12 129.5"/><polygon class="cls-7" points="82.12 129.5 77.43 132.25 72.74 129.5 77.43 126.76 82.12 129.5"/><polygon class="cls-8" points="77.43 132.25 77.43 137.71 72.74 134.96 72.74 129.5 77.43 132.25"/><polygon class="cls-7" points="72.74 134.96 77.43 132.24 77.43 137.71 72.74 134.96"/><polygon class="cls-8" points="82.12 134.96 77.43 132.24 77.43 137.71 82.12 134.96"/><path class="cls-11" d="M83.07,147.29c-2.78-.44-2.89-2.44-2.89-5.67H74.66c0,3.23-.09,5.23-2.88,5.67a1.56,1.56,0,0,0-1.39,1.57H84.46A1.56,1.56,0,0,0,83.07,147.29Z"/><rect class="cls-1" x="115" y="90.86" width="95" height="95"/><rect class="cls-3" x="115" y="90.86" width="95" height="95"/><rect class="cls-12" x="170.6" y="122.86" width="15.46" height="10.32" rx="0.52"/><polygon class="cls-6" points="180.91 126.51 180.91 129.52 178.34 131.02 178.34 128.03 180.91 126.51"/><polygon class="cls-7" points="180.91 126.51 178.34 128.03 175.75 126.51 178.34 125 180.91 126.51"/><polygon class="cls-8" points="178.34 128.03 178.34 131.02 175.75 129.52 175.75 126.51 178.34 128.03"/><rect class="cls-13" x="176.67" y="128.77" width="15.46" height="10.32" rx="0.52"/><polygon class="cls-6" points="186.98 132.44 186.98 135.44 184.41 136.96 184.41 133.94 186.98 132.44"/><polygon class="cls-7" points="186.98 132.44 184.41 133.94 181.82 132.44 184.41 130.93 186.98 132.44"/><polygon class="cls-8" points="184.41 133.94 184.41 136.96 181.82 135.44 181.82 132.44 184.41 133.94"/><rect class="cls-14" x="181.14" y="134.52" width="15.46" height="10.32" rx="0.52"/><polygon class="cls-6" points="191.44 138.19 191.44 141.19 188.88 142.71 188.88 139.69 191.44 138.19"/><polygon class="cls-7" points="191.44 138.19 188.88 139.71 186.29 138.19 188.88 136.68 191.44 138.19"/><polygon class="cls-8" points="188.88 139.71 188.88 142.71 186.29 141.19 186.29 138.19 188.88 139.71"/><polygon class="cls-7" points="186.29 141.19 188.88 139.69 188.88 142.71 186.29 141.19"/><polygon class="cls-8" points="191.44 141.19 188.88 139.69 188.88 142.71 191.44 141.19"/><path class="cls-15" d="M192,148c-1.52-.24-1.52-1.34-1.52-3.06h-3.06c0,1.78,0,2.88-1.53,3.06a.91.91,0,0,0-.77.88h7.65A.91.91,0,0,0,192,148Z"/><rect class="cls-16" x="127.1" y="122.86" width="28.14" height="18.76" rx="0.94"/><polygon class="cls-6" points="145.86 129.5 145.86 134.96 141.17 137.71 141.17 132.24 145.86 129.5"/><polygon class="cls-7" points="145.86 129.5 141.17 132.25 136.48 129.5 141.17 126.76 145.86 129.5"/><polygon class="cls-8" points="141.17 132.25 141.17 137.71 136.48 134.96 136.48 129.5 141.17 132.25"/><polygon class="cls-7" points="136.48 134.96 141.17 132.24 141.17 137.71 136.48 134.96"/><polygon class="cls-8" points="145.86 134.96 141.17 132.24 141.17 137.71 145.86 134.96"/><path class="cls-17" d="M146.81,147.29c-2.78-.44-2.89-2.44-2.89-5.67H138.4c0,3.23-.09,5.23-2.87,5.67a1.58,1.58,0,0,0-1.4,1.57h14.08A1.58,1.58,0,0,0,146.81,147.29Z"/><line class="cls-18" x1="90.37" y1="90.71" x2="90.37" y2="63.64"/><line class="cls-18" x1="82.84" y1="85.18" x2="82.84" y2="73.48"/><polygon class="cls-2" points="85.83 74.36 82.84 69.18 79.85 74.36 85.83 74.36"/><line class="cls-18" x1="97.89" y1="80.87" x2="97.89" y2="80.12"/><line class="cls-19" x1="97.89" y1="77.69" x2="97.89" y2="71.14"/><line class="cls-18" x1="97.89" y1="69.93" x2="97.89" y2="69.18"/><polygon class="cls-2" points="100.88 80 97.89 85.18 94.9 80 100.88 80"/><line class="cls-18" x1="129.52" y1="90.71" x2="129.52" y2="63.64"/><line class="cls-18" x1="122" y1="85.18" x2="122" y2="73.48"/><polygon class="cls-2" points="124.99 74.36 122 69.18 119.01 74.36 124.99 74.36"/><line class="cls-18" x1="137.05" y1="80.87" x2="137.05" y2="80.12"/><line class="cls-19" x1="137.05" y1="77.69" x2="137.05" y2="71.14"/><line class="cls-18" x1="137.05" y1="69.93" x2="137.05" y2="69.18"/><polygon class="cls-2" points="140.04 80 137.05 85.18 134.06 80 140.04 80"/><line class="cls-18" x1="109.7" y1="38.29" x2="109.7" y2="18.79"/><line class="cls-18" x1="74.31" y1="220.86" x2="85.43" y2="220.86"/><polygon class="cls-2" points="75.18 223.85 70 220.85 75.18 217.86 75.18 223.85"/><line class="cls-18" x1="80.69" y1="260.86" x2="79.94" y2="260.86"/><line class="cls-20" x1="77.75" y1="260.86" x2="71.84" y2="260.86"/><line class="cls-18" x1="70.75" y1="260.86" x2="70" y2="260.86"/><polygon class="cls-2" points="79.82 257.86 85 260.86 79.82 263.85 79.82 257.86"/><path class="cls-18" d="M105.83,41,65.74,29.61a4.21,4.21,0,0,1-2.89-3.82v-7"/><path class="cls-18" d="M114,41l43.3-11.45a4.1,4.1,0,0,0,2.9-3.76v-7"/><circle class="cls-21" cx="27.4" cy="200.63" r="1.67"/><circle class="cls-22" cx="22.06" cy="200.64" r="1.67"/><circle class="cls-23" cx="16.72" cy="200.64" r="1.67"/><path class="cls-6" d="M17.93,207.34l-1,1a.43.43,0,0,1-.61,0h0l-7.09-7.08a.88.88,0,0,1,0-1.22h0l1-1h0l7.71,7.69a.43.43,0,0,1,0,.61h0Z"/><path class="cls-24" d="M16.83,193l1,1a.43.43,0,0,1,0,.61h0l-7.57,7.6h0l-1-1a.88.88,0,0,1,0-1.22h0l7-7A.43.43,0,0,1,16.83,193Z"/><path class="cls-6" d="M33.78,199l1,1a.86.86,0,0,1,0,1.22h0l-7.1,7.08a.43.43,0,0,1-.61,0h0l-1-1a.44.44,0,0,1,0-.62h0Z"/><path class="cls-24" d="M34.74,201.2l-1,1h0l-7.57-7.6a.43.43,0,0,1,0-.61h0l1-1a.43.43,0,0,1,.61,0h0l7,7a.88.88,0,0,1,0,1.22h0Z"/><rect class="cls-1" x="45.35" width="35" height="20.86"/><rect class="cls-3" x="45.35" width="35" height="20.86"/><rect class="cls-1" x="92.7" width="35" height="20.86"/><rect class="cls-3" x="92.7" width="35" height="20.86"/><rect class="cls-1" x="137.7" width="45" height="20.86"/><rect class="cls-3" x="137.7" width="45" height="20.86"/><rect class="cls-1" x="13.69" width="23.5" height="20.86"/><rect class="cls-25" x="13.69" width="23.5" height="20.86"/><line class="cls-26" x1="24.92" y1="90.71" x2="24.92" y2="21.02"/><line class="cls-26" x1="18.04" y1="80.44" x2="18.04" y2="68.74"/><polygon class="cls-27" points="21.03 79.56 18.04 84.75 15.05 79.56 21.03 79.56"/><line class="cls-26" x1="31.8" y1="84.74" x2="31.8" y2="83.99"/><line class="cls-28" x1="31.8" y1="81.57" x2="31.8" y2="75.01"/><line class="cls-26" x1="31.8" y1="73.8" x2="31.8" y2="73.05"/><polygon class="cls-27" points="34.79 73.93 31.8 68.75 28.8 73.93 34.79 73.93"/><rect class="cls-1" x="74.82" y="53.67" width="70" height="10"/><rect class="cls-29" x="74.82" y="53.67" width="70" height="10"/><g id="ad94e297-0e86-4eaf-aac0-d146ee9aea65"><path class="cls-30" d="M105.75,54l-4.68-4.84a2.28,2.28,0,0,1-.78.13A2.43,2.43,0,1,1,102.53,46h4.62v1.62H102.6a3.68,3.68,0,0,1-.26.57l4.33,4.46L109,49.07V37.89h-3.15l4-4,3.94,4h-3.15v8.74l5.93-9.05-6-6a1,1,0,0,0-1.41,0l0,0h0L94.64,46.06a1,1,0,0,0,0,1.41l0,.05h0L109.11,62l-5.17-5.17Z"/><path class="cls-31" d="M109,54.22V49.05l-2.34,3.59,1.72,1.84A2,2,0,0,1,109,54.22Z"/><path class="cls-31" d="M125,46.06l-8.47-8.48-5.93,9.05v7.61a2.1,2.1,0,0,1,.53.29l6.22-6.28a3.15,3.15,0,0,1-.31-.64H112.4V46h4.74a2.41,2.41,0,1,1,2.24,3.32,2.53,2.53,0,0,1-.67-.1l-6.62,6.67a2.18,2.18,0,0,1,.11.62,2.43,2.43,0,0,1-4.86.19,2.5,2.5,0,0,1,.14-.9l-1.73-1.72-1.84,2.76L109.08,62a1,1,0,0,0,1.41,0l0,0L125,47.52a1,1,0,0,0,0-1.41Z"/><path class="cls-32" d="M117.14,46H112.4v1.62h4.67a3,3,0,0,1-.12-.73A2.26,2.26,0,0,1,117.14,46Z"/><path class="cls-32" d="M102.6,47.61h4.55V46h-4.62a2.09,2.09,0,0,1,.19.89A2.22,2.22,0,0,1,102.6,47.61Z"/><path class="cls-32" d="M112.09,55.88l6.62-6.67a2.43,2.43,0,0,1-1.33-1l-6.22,6.28A2.24,2.24,0,0,1,112.09,55.88Z"/><path class="cls-32" d="M108.44,54.48l-1.72-1.84-4.38-4.46a2.51,2.51,0,0,1-1.27,1L105.75,54l1.73,1.72A2.37,2.37,0,0,1,108.44,54.48Z"/><path class="cls-1" d="M113.76,37.89l-3.92-4-4,4H109V54.22a1.73,1.73,0,0,0-.57.26,2.41,2.41,0,1,0,3.65,2.71,2.31,2.31,0,0,0,.11-.69,2.18,2.18,0,0,0-.11-.62,2.26,2.26,0,0,0-.93-1.35,2.1,2.1,0,0,0-.53-.29V37.89Zm-3.92,20a1.35,1.35,0,1,1,1.34-1.36v0h0a1.34,1.34,0,0,1-1.34,1.29Z"/><path class="cls-1" d="M102.34,48.18a3.68,3.68,0,0,0,.26-.57,2.28,2.28,0,0,0,.12-.73,2.09,2.09,0,0,0-.19-.89,2.41,2.41,0,1,0-2.24,3.32,2.28,2.28,0,0,0,.78-.13A2.51,2.51,0,0,0,102.34,48.18Zm-2,0a1.35,1.35,0,1,1,1.35-1.35h0a1.36,1.36,0,0,1-1.3,1.4h0Z"/><path class="cls-1" d="M118.71,49.21a2.53,2.53,0,0,0,.67.1A2.43,2.43,0,1,0,117.14,46a2.26,2.26,0,0,0-.19.89,3,3,0,0,0,.12.73,3.15,3.15,0,0,0,.31.64A2.46,2.46,0,0,0,118.71,49.21Zm.67-3.65a1.34,1.34,0,0,1,0,2.67,1.34,1.34,0,1,1-.3-2.67A1.5,1.5,0,0,1,119.38,45.56Z"/><path class="cls-33" d="M109.84,55.15a1.35,1.35,0,1,0,1.34,1.36h0A1.36,1.36,0,0,0,109.84,55.15Z"/><circle class="cls-33" cx="100.29" cy="46.88" r="1.34"/><path class="cls-33" d="M119.38,48.23A1.35,1.35,0,1,0,118,46.88h0a1.34,1.34,0,0,0,1.33,1.35Z"/></g></g></g><g id="Text"><path class="cls-34" d="M139.36,156.68,136,165.9h-1.3l-3.28-9.22h1.3l2.45,7.21a3.63,3.63,0,0,1,.19.83h0a3.66,3.66,0,0,1,.2-.84l2.5-7.2Z"/><path class="cls-34" d="M148.85,165.9v-6.11c0-.5,0-1.11.08-1.82h0a5.78,5.78,0,0,1-.28.93l-3,7H145L142,159a6.49,6.49,0,0,1-.27-1h0c0,.43.06,1.06.06,1.87v6.06h-1.12v-9.22h1.59l2.69,6.32a7.57,7.57,0,0,1,.4,1.13h0c.21-.57.35-.95.43-1.15l2.74-6.3H150v9.22Z"/><path class="cls-34" d="M75.44,156.68,72.1,165.9H70.79l-3.28-9.22h1.31l2.45,7.21a4.28,4.28,0,0,1,.18.83h0a3.23,3.23,0,0,1,.21-.84l2.5-7.2Z"/><path class="cls-34" d="M84.93,165.9v-6.11c0-.5,0-1.11.09-1.82h0a5.08,5.08,0,0,1-.27.93l-3,7h-.65l-3-6.94a6.49,6.49,0,0,1-.27-1h0c0,.43.06,1.06.06,1.87v6.06H76.69v-9.22h1.59L81,163a7.85,7.85,0,0,1,.41,1.13h0c.2-.57.35-.95.43-1.15l2.73-6.3H86.1v9.22Z"/><path class="cls-34" d="M33.63,156.68l-3.34,9.22H29l-3.28-9.22H27l2.45,7.21a4.28,4.28,0,0,1,.18.83h0a3.23,3.23,0,0,1,.21-.84l2.5-7.2Z"/><path class="cls-34" d="M43.12,165.9v-6.11c0-.5,0-1.11.09-1.82h0a5.08,5.08,0,0,1-.27.93l-3,7h-.65l-3-6.94a6.49,6.49,0,0,1-.27-1h0c0,.43.06,1.06.06,1.87v6.06H34.88v-9.22h1.59L39.16,163a7.85,7.85,0,0,1,.41,1.13h0c.2-.57.35-.95.43-1.15l2.73-6.3h1.52v9.22Z"/><path class="cls-34" d="M174.89,156.68l-3.35,9.22h-1.31L167,156.68h1.31l2.45,7.21a4.28,4.28,0,0,1,.18.83h0a3.23,3.23,0,0,1,.21-.84l2.5-7.2Z"/><path class="cls-34" d="M184.37,165.9v-6.11c0-.5,0-1.11.09-1.82h0a5.08,5.08,0,0,1-.27.93l-3,7h-.66l-3-6.94a6.49,6.49,0,0,1-.27-1h0c0,.43.06,1.06.06,1.87v6.06h-1.13v-9.22h1.6l2.68,6.32a7.85,7.85,0,0,1,.41,1.13h0c.21-.57.35-.95.43-1.15l2.74-6.3h1.51v9.22Z"/><path class="cls-34" d="M187.44,164.17a3.2,3.2,0,0,0,1.12.6,4.12,4.12,0,0,0,1.33.24q1.92,0,1.92-1.38a1.23,1.23,0,0,0-.21-.7,2.22,2.22,0,0,0-.56-.54,14.25,14.25,0,0,0-1.35-.74,5.19,5.19,0,0,1-1.81-1.28,2.22,2.22,0,0,1-.43-1.35,2.15,2.15,0,0,1,.91-1.83,3.82,3.82,0,0,1,2.3-.67,4.5,4.5,0,0,1,2,.33v1.3a3.57,3.57,0,0,0-2.08-.57,2.35,2.35,0,0,0-1.36.35,1.13,1.13,0,0,0-.53,1,1.2,1.2,0,0,0,.37.91,7.26,7.26,0,0,0,1.58.95,5.87,5.87,0,0,1,1.88,1.3,2.28,2.28,0,0,1,.53,1.46,2.21,2.21,0,0,1-.87,1.87,4,4,0,0,1-2.42.64,6.28,6.28,0,0,1-1.26-.15,2.83,2.83,0,0,1-1.05-.38Z"/><path class="cls-34" d="M194.36,164.17a3.24,3.24,0,0,0,1.11.6,4.12,4.12,0,0,0,1.33.24q1.92,0,1.92-1.38a1.3,1.3,0,0,0-.2-.7,2.12,2.12,0,0,0-.57-.54,14.25,14.25,0,0,0-1.35-.74,5.12,5.12,0,0,1-1.8-1.28,2.23,2.23,0,0,1-.44-1.35,2.16,2.16,0,0,1,.92-1.83,3.8,3.8,0,0,1,2.3-.67,4.53,4.53,0,0,1,2,.33v1.3a3.57,3.57,0,0,0-2.08-.57,2.35,2.35,0,0,0-1.36.35,1.11,1.11,0,0,0-.53,1,1.23,1.23,0,0,0,.36.91,7.54,7.54,0,0,0,1.58.95,5.76,5.76,0,0,1,1.88,1.3,2.24,2.24,0,0,1,.54,1.46,2.21,2.21,0,0,1-.87,1.87,4,4,0,0,1-2.42.64,6.28,6.28,0,0,1-1.26-.15,2.83,2.83,0,0,1-1-.38Z"/><path class="cls-34" d="M148.32,6h3.79a13,13,0,0,0-1-1.33l.74-.5A14.33,14.33,0,0,1,153,5.57l-.58.39h3.21l-.47-.26a11.73,11.73,0,0,0,1.08-1.59l.89.51A15.73,15.73,0,0,1,156.08,6h3.7v.82H148.32ZM150,15.73h-.89V7.93h5.13v6.55a1,1,0,0,1-1.18,1.12c-.33,0-.78,0-1.35,0q-.07-.45-.18-.87c.48,0,.92.06,1.33.06a.42.42,0,0,0,.49-.48V12.8H150Zm3.35-7H150V10h3.35ZM150,12h3.35V10.76H150Zm5.63-3.9h.89v5.27h-.89ZM158,7.55H159V14.1c0,1-.45,1.45-1.36,1.46-.41,0-.93,0-1.54,0,0-.32-.1-.64-.17-1q.87.09,1.41.09a.67.67,0,0,0,.75-.76Z"/><path class="cls-34" d="M160.18,13.49c1-.13,2.15-.3,3.51-.51-.05.33-.08.58-.09.74l-3.21.66Zm1.39-2.4c.36,0,1-.07,2-.16,0,.33-.07.58-.09.76-1.53.13-2.5.23-2.92.29l-.16-.74A10.83,10.83,0,0,0,162,8.85L160.42,9l-.23-.74a22.9,22.9,0,0,0,2-4l.92.33c-.66,1.4-1.29,2.61-1.9,3.63h1.14c.21-.41.43-.85.65-1.32l.85.37C162.83,9,162.07,10.31,161.57,11.09Zm2.19.76.52-.51c.44.35.86.7,1.28,1.06a8,8,0,0,0,.7-1.67H163.8V9.94h3.28v.78a9,9,0,0,1-.89,2.25c.38.34.75.69,1.12,1l-.64.62c-.3-.32-.62-.64-.94-1a8.29,8.29,0,0,1-2.13,2,5.32,5.32,0,0,0-.62-.64,8.2,8.2,0,0,0,2.14-2Zm.13-5.27.52-.5c.45.37.87.73,1.27,1.09a5.28,5.28,0,0,0,.8-1.61h-2.62V4.78h3.47v.76a6.83,6.83,0,0,1-1.05,2.17c.37.35.73.69,1.06,1l-.62.61c-.27-.32-.59-.65-.95-1A7.61,7.61,0,0,1,164,9.73a8.3,8.3,0,0,0-.53-.67,6.91,6.91,0,0,0,1.74-1.29C164.8,7.4,164.36,7,163.89,6.58Zm3.51,4.17V10h3.94v.77a7.58,7.58,0,0,1-1.4,2.86,6.18,6.18,0,0,0,1.94,1.25c-.21.3-.39.57-.54.82a7.16,7.16,0,0,1-2-1.42,8.49,8.49,0,0,1-2.17,1.52c-.17-.24-.36-.47-.56-.71a7.92,7.92,0,0,0,2.18-1.46,6.81,6.81,0,0,1-1.18-2.85Zm.11-4.16.51-.54c.53.4,1.06.81,1.57,1.22a5.65,5.65,0,0,0,.92-1.71h-2.78V4.78h3.67v.71a7.24,7.24,0,0,1-1.17,2.3c.48.39,1,.79,1.43,1.2l-.65.66c-.42-.41-.86-.83-1.32-1.24a8.5,8.5,0,0,1-1.84,1.4,5.61,5.61,0,0,0-.53-.7,7.17,7.17,0,0,0,1.75-1.25C168.57,7.44,168.05,7,167.51,6.59Zm3,4.16h-2.07a5.58,5.58,0,0,0,1,2.2A6,6,0,0,0,170.48,10.75Z"/><path class="cls-34" d="M103.45,10.76v3.4h-1.17V5.08h2.57a3.37,3.37,0,0,1,2.29.71,2.55,2.55,0,0,1,.81,2A2.73,2.73,0,0,1,107,10a3.31,3.31,0,0,1-2.37.78Zm0-4.65V9.73h1.08a2.42,2.42,0,0,0,1.63-.48,1.75,1.75,0,0,0,.56-1.39c0-1.16-.69-1.75-2.08-1.75Z"/><path class="cls-34" d="M110.79,5.08v9.08h-1.17V5.08Z"/><path class="cls-34" d="M114.32,10.76v3.4h-1.17V5.08h2.57a3.37,3.37,0,0,1,2.29.71,2.55,2.55,0,0,1,.81,2,2.73,2.73,0,0,1-.95,2.16,3.31,3.31,0,0,1-2.37.78Zm0-4.65V9.73h1.08A2.42,2.42,0,0,0,117,9.25a1.75,1.75,0,0,0,.56-1.39c0-1.16-.69-1.75-2.08-1.75Z"/><path class="cls-34" d="M56.08,10.76v3.4H54.91V5.08h2.58a3.36,3.36,0,0,1,2.28.71,2.55,2.55,0,0,1,.81,2A2.73,2.73,0,0,1,59.63,10a3.31,3.31,0,0,1-2.37.78Zm0-4.65V9.73h1.08a2.42,2.42,0,0,0,1.63-.48,1.75,1.75,0,0,0,.56-1.39c0-1.16-.69-1.75-2.07-1.75Z"/><path class="cls-34" d="M63.42,5.08v9.08H62.25V5.08Z"/><path class="cls-34" d="M67,10.76v3.4H65.78V5.08h2.58a3.36,3.36,0,0,1,2.28.71,2.55,2.55,0,0,1,.81,2,2.73,2.73,0,0,1-1,2.16,3.31,3.31,0,0,1-2.37.78Zm0-4.65V9.73H68a2.42,2.42,0,0,0,1.63-.48,1.75,1.75,0,0,0,.56-1.39c0-1.16-.69-1.75-2.07-1.75Z"/><path class="cls-34" d="M19,10.76v3.4H17.83V5.08h2.58a3.41,3.41,0,0,1,2.29.71,2.55,2.55,0,0,1,.81,2,2.73,2.73,0,0,1-1,2.16,3.35,3.35,0,0,1-2.38.78Zm0-4.65V9.73h1.08a2.42,2.42,0,0,0,1.63-.48,1.75,1.75,0,0,0,.56-1.39c0-1.16-.7-1.75-2.08-1.75Z"/><path class="cls-34" d="M26.35,5.08v9.08H25.18V5.08Z"/><path class="cls-34" d="M29.88,10.76v3.4H28.7V5.08h2.58a3.36,3.36,0,0,1,2.28.71,2.52,2.52,0,0,1,.82,2,2.73,2.73,0,0,1-1,2.16,3.35,3.35,0,0,1-2.38.78Zm0-4.65V9.73H31a2.44,2.44,0,0,0,1.63-.48,1.75,1.75,0,0,0,.56-1.39c0-1.16-.7-1.75-2.08-1.75Z"/><path class="cls-35" d="M5.34,5.08v9.08H4.17V5.08Z"/><path class="cls-35" d="M12.49,14.16H7.7V5.08H8.87v8h3.62Z"/><path class="cls-34" d="M138.56,50h-1.39l-4.56-7.06a3.74,3.74,0,0,1-.31-.59h0a8.7,8.7,0,0,1,.05,1.27V50h-1.16V40.91h1.47l4.44,6.94c.21.33.34.54.38.63h0a10,10,0,0,1-.06-1.33V40.91h1.16Z"/><path class="cls-34" d="M148,50h-1.3l-.92-2.49H142L141.17,50h-1.3l3.46-9.08h1.25Zm-2.59-3.51-1.37-3.78a4.54,4.54,0,0,1-.14-.63h0a3.38,3.38,0,0,1-.14.63l-1.36,3.78Z"/><path class="cls-34" d="M153.9,42h-2.62v8h-1.17V42H147.5v-1h6.4Z"/><path class="cls-34" d="M39.73,101.12h5.58V99.78l3.44-2.54H41v-.91h9.36v1l-4,3v.87h5.25V102H46.33v3.82a1.46,1.46,0,0,1-1.68,1.63l-1.9,0c0-.33-.08-.7-.14-1.11a15.4,15.4,0,0,0,1.85.12.76.76,0,0,0,.85-.87V102H39.73Z"/><path class="cls-34" d="M53.8,98.89l.71-.37c.47.76,1,1.54,1.42,2.34a24.87,24.87,0,0,0,1-2.52l.82.3a32.42,32.42,0,0,1-1.31,3.1c.46.8.92,1.61,1.37,2.44l-.82.43c-.33-.64-.67-1.28-1-1.93a29.48,29.48,0,0,1-1.59,2.65l-.72-.42v2.53h-.9V96.34H63v9.74c0,.87-.46,1.3-1.38,1.3-.51,0-1.12,0-1.84,0,0-.26-.09-.58-.16-1q1,.09,1.71.09c.51,0,.77-.23.77-.67V97.22H53.66v7.64a31.91,31.91,0,0,0,1.81-3.07C54.94,100.83,54.38,99.87,53.8,98.89Zm4,.59.69-.42c.4.66.82,1.35,1.24,2.09a25.31,25.31,0,0,0,1.17-2.74l.82.31c-.45,1.16-.95,2.26-1.48,3.31.5.87,1,1.8,1.56,2.78l-.8.46c-.4-.77-.82-1.55-1.25-2.33a28.25,28.25,0,0,1-1.58,2.56l-.73-.47c.68-1,1.29-2,1.82-3C58.79,101.2,58.3,100.34,57.8,99.48Z"/><path class="cls-34" d="M76.08,106H74.76l-1-2.58H69.94L69.05,106H67.72l3.54-9.41h1.29Zm-2.64-3.64L72,98.42a3.48,3.48,0,0,1-.15-.66h0a3,3,0,0,1-.15.66l-1.39,3.91Z"/><path class="cls-34" d="M144.77,101.08h5.45V99.8l3.36-2.45H146v-.87h9.14v.91l-3.92,2.86v.83h5.13V102h-5.13v3.68c0,1-.55,1.57-1.64,1.57l-1.85,0c0-.31-.08-.66-.15-1.06a17.37,17.37,0,0,0,1.81.12.74.74,0,0,0,.83-.85V102h-5.45Z"/><path class="cls-34" d="M158.51,98.94l.69-.36c.47.74.93,1.49,1.39,2.26a24.22,24.22,0,0,0,1-2.43l.8.29c-.39,1-.82,2-1.28,3,.45.77.89,1.55,1.33,2.35l-.79.42c-.33-.62-.66-1.24-1-1.86a26.58,26.58,0,0,1-1.55,2.55l-.71-.41v2.44h-.88V96.49h10v9.37c0,.84-.45,1.25-1.34,1.25-.5,0-1.1,0-1.8,0,0-.25-.09-.55-.16-.91.66,0,1.21.08,1.67.08s.75-.21.75-.64V97.33h-8.22v7.35a30.83,30.83,0,0,0,1.78-3C159.63,100.81,159.08,99.88,158.51,98.94Zm3.9.56.68-.39c.39.63.8,1.3,1.21,2a25.65,25.65,0,0,0,1.15-2.63l.79.3q-.66,1.66-1.44,3.18c.49.84,1,1.73,1.53,2.68l-.79.44c-.39-.74-.8-1.49-1.22-2.24-.48.86-1,1.68-1.54,2.46l-.72-.45a31.64,31.64,0,0,0,1.78-2.87C163.39,101.16,162.91,100.34,162.41,99.5Z"/><path class="cls-34" d="M173.14,105.75v-9h2.67a3,3,0,0,1,1.9.57,1.83,1.83,0,0,1,.72,1.51,2.11,2.11,0,0,1-.43,1.32,2.27,2.27,0,0,1-1.16.81v0a2.34,2.34,0,0,1,1.48.69,2.17,2.17,0,0,1,.55,1.51A2.37,2.37,0,0,1,178,105a3.19,3.19,0,0,1-2.15.72Zm1.17-8v2.84h1.07a2,2,0,0,0,1.33-.42,1.41,1.41,0,0,0,.48-1.14c0-.85-.57-1.28-1.71-1.28Zm0,3.85v3.16h1.41a2.11,2.11,0,0,0,1.42-.43,1.45,1.45,0,0,0,.5-1.17c0-1-.71-1.56-2.12-1.56Z"/><path class="cls-34" d="M13.27,217.29v2.85q0,3.81-1.53,5.62c-.21-.25-.43-.5-.67-.76a7.41,7.41,0,0,0,1.28-4.71v-3.81h4V214h.94V215H22v.78H17.24v.75h5.37l-.08,1.93-.9,0,.08-1.09ZM13,224.57h3v-3.5H17v3.5h1.49V221h.91v3.53h3.31v.81H13Zm.53-6.14,2.58-.15v-.8H17v.75l3.53-.21.05.77L17,219v.3c0,.36.24.54.71.54h2.36c.53,0,.84-.19.92-.56a7.89,7.89,0,0,0,.14-.85c.26.12.54.22.85.33-.07.35-.15.65-.22.88q-.24,1-1.56,1H17.56c-.94,0-1.41-.42-1.41-1.25v-.33l-2.53.15Zm0,3.37.7-.45q.71.92,1.38,2l-.79.51Q14.22,222.73,13.59,221.8Zm6.16,1.47a16,16,0,0,0,1.41-2l.8.48c-.51.74-1,1.43-1.52,2.05Z"/><path class="cls-34" d="M23.22,220.4c.47-.13,1-.28,1.59-.47v-2.69H23.35v-.79h1.46v-2.3h.89v2.3h1.38v.79H25.7v2.41l1.42-.48c0,.39,0,.7,0,.92l-1.4.47v3.82c0,.79-.34,1.2-1,1.24-.38,0-.77,0-1.18,0q-.06-.45-.15-1a7.43,7.43,0,0,0,.95.07.46.46,0,0,0,.51-.53v-3.31l-1.46.52Zm7.07.21a5.64,5.64,0,0,0,.3.93l-2.16,2.05a4.48,4.48,0,0,0-.54.68l-.61-.79a1.63,1.63,0,0,0,.36-1.09v-7.34h.9v7.25C29,221.92,29.56,221.35,30.29,220.61Zm2.19-6.35h.89c0,1.36,0,2.55-.06,3.57a14.76,14.76,0,0,1-.61,4.37c.85,1,1.61,1.89,2.27,2.74l-.79.65q-.9-1.28-1.89-2.52a8,8,0,0,1-2.87,2.78,5.83,5.83,0,0,0-.65-.75,6.78,6.78,0,0,0,3-3.16,12.55,12.55,0,0,0,.6-4.12C32.44,216.62,32.46,215.44,32.48,214.26Zm-3.37.13.77-.4c.59,1.07,1.09,2,1.51,2.93l-.82.47C30,216.21,29.55,215.21,29.11,214.39Z"/><path class="cls-34" d="M13,230.46l.7-.37c.47.75.93,1.51,1.39,2.3a24,24,0,0,0,1-2.48l.8.3a29.8,29.8,0,0,1-1.28,3c.45.78.9,1.57,1.34,2.39l-.8.42c-.32-.62-.66-1.25-1-1.89a25.55,25.55,0,0,1-1.56,2.6l-.71-.41v2.48H12V228H22v9.55c0,.85-.45,1.27-1.35,1.27l-1.8,0c0-.26-.09-.57-.16-.93.65,0,1.22.08,1.68.08s.75-.22.75-.65v-8.45H12.9v7.49a29.62,29.62,0,0,0,1.79-3C14.16,232.36,13.62,231.41,13,230.46ZM17,231l.68-.41c.4.65.8,1.33,1.22,2A26.49,26.49,0,0,0,20,230l.8.31c-.45,1.13-.93,2.21-1.46,3.24.5.86,1,1.77,1.54,2.73l-.79.45c-.39-.76-.8-1.52-1.22-2.29-.49.88-1,1.72-1.55,2.51l-.72-.46c.67-1,1.27-2,1.79-2.92Q17.71,232.31,17,231Z"/><path class="cls-34" d="M24.76,234.31c.82-.08,1.59-.17,2.32-.27,0,.36-.06.63-.08.81-1.39.17-2.48.32-3.27.44l-.19-.87a9.59,9.59,0,0,0,1.89-2.63l-1.82.14-.24-.78a20.05,20.05,0,0,0,1.92-3.85l.92.33a36.26,36.26,0,0,1-1.84,3.45l1.47,0c.29-.52.59-1.11.92-1.75l.87.38A53.86,53.86,0,0,1,24.76,234.31Zm-1.39,2.79c1.3-.25,2.66-.55,4.07-.88,0,.38,0,.68,0,.91-1.26.28-2.51.59-3.77.91Zm3.92-5.88a16.3,16.3,0,0,0,2.16-4.05l.89.3c-.16.36-.32.72-.48,1.06h4.2v.84A10.09,10.09,0,0,1,31.9,232,12.78,12.78,0,0,0,35,233.27a6.6,6.6,0,0,0-.47,1,12.69,12.69,0,0,1-3.33-1.71,16.27,16.27,0,0,1-3.51,1.85c-.16-.27-.35-.54-.56-.83A14.41,14.41,0,0,0,30.42,232a7.08,7.08,0,0,1-1.4-1.83,18.21,18.21,0,0,1-1.12,1.72A8.36,8.36,0,0,0,27.29,231.22Zm.91,3.15H34V239H33.1v-.6h-4v.6h-.9Zm4.9.86h-4v2.32h4ZM33,229.34H29.5a7.32,7.32,0,0,0,1.63,2.1A8.37,8.37,0,0,0,33,229.34Z"/><path class="cls-34" d="M94.74,218.69c.64.46,1.36,1,2.15,1.64-.28.34-.51.61-.69.79-.78-.69-1.47-1.27-2.07-1.73Zm.85,3.41a3.58,3.58,0,0,0,.86.42c-.33,1.38-.7,3-1.12,4.74l-.94-.31Q95.1,224.45,95.59,222.1Zm-.32-6.54c.64.48,1.31,1,2,1.65-.29.27-.53.52-.73.74-.71-.7-1.34-1.27-1.88-1.72Zm4.42,2.9h1.58c.18-.46.35-.94.52-1.44H98.7v3.52q0,4.8-1.88,6.87a7,7,0,0,0-.71-.76c1.12-1.25,1.69-3.28,1.69-6.1v-4.36h8.47V217h-3.43q-.33.73-.69,1.44h3.23v5h-.88v-.32h-1.58V226a1.14,1.14,0,0,1-1.27,1.31l-1.06,0c0-.24-.1-.52-.17-.84.41,0,.76.05,1.06.05s.56-.2.56-.59v-2.78h-1.47v.32h-.88Zm-1.11,7.89a14.16,14.16,0,0,0,1.84-2.5l.78.47a20,20,0,0,1-1.9,2.59Zm5.92-7.08h-3.93v1.13h3.93Zm-3.93,3.08h3.93v-1.17h-3.93Zm5.67,3.89-.77.58a28.06,28.06,0,0,0-1.88-2.53l.71-.5C105,224.65,105.69,225.47,106.24,226.24Z"/><path class="cls-34" d="M107.25,217.4h1.23c.3-.74.55-1.42.74-2l1,.3c-.26.62-.51,1.2-.75,1.73H112v9.72h-1v-1h-2.75v1h-1Zm3.72.92h-2.75v3H111Zm-2.75,6.93H111v-3.09h-2.75Zm3.91-5.35a18.08,18.08,0,0,0,1.94-4.53l1,.26c-.21.62-.42,1.19-.64,1.73h3.93q-.15,6.28-.24,7.9a1.79,1.79,0,0,1-2,1.92c-.74,0-1.49,0-2.25-.07a8.93,8.93,0,0,0-.2-1.09h0a16.69,16.69,0,0,0,2.23.17,1.1,1.1,0,0,0,1.2-1.17q.13-1.82.19-6.74h-3.27a15.82,15.82,0,0,1-1.1,2.07A5.32,5.32,0,0,0,112.13,219.9Zm1.07.83.75-.55c.9,1.07,1.62,2,2.16,2.78l-.9.63A30,30,0,0,0,113.2,220.73Z"/><path class="cls-34" d="M119.3,219.43l.61-.71c.66.46,1.35,1,2.07,1.57-.29.35-.53.61-.71.8C120.43,220.33,119.77,219.78,119.3,219.43Zm.37,7.54a37.69,37.69,0,0,0,1.27-4.74,8.53,8.53,0,0,0,1,.38c-.36,1.41-.76,3-1.18,4.69Zm.1-10.73.63-.65c.59.48,1.25,1,2,1.69l-.71.72C121,217.32,120.36,216.73,119.77,216.24Zm3.87,5.46h.93a9.9,9.9,0,0,1-.5,3.75,4.28,4.28,0,0,1-2,2,4.57,4.57,0,0,0-.62-.81,3.5,3.5,0,0,0,1.77-1.68A8.28,8.28,0,0,0,123.64,221.7Zm5.29-3.24c.63.74,1.34,1.63,2.11,2.68-.3.18-.59.37-.88.57-.2-.3-.4-.58-.59-.85-2,.08-3.84.17-5.51.26a5.46,5.46,0,0,0-1,.15l-.41-.92a4.62,4.62,0,0,0,.85-.56,13.45,13.45,0,0,0,1.88-2h-2.71v-.86h3.88c-.31-.48-.61-.9-.89-1.26l.81-.5c.3.38.64.83,1,1.34l-.63.42H131v.86h-5.4l.81.35a26.22,26.22,0,0,1-2.13,2L129,220c-.28-.38-.55-.74-.81-1.06Zm-2.88,3.24H127v5.44h-.91Zm2.23,0h.92v4.09c0,.37.14.56.44.56h.42c.26,0,.41-.21.48-.62s.09-1,.11-1.54a7.49,7.49,0,0,0,.91.35,14.71,14.71,0,0,1-.18,1.58,1.08,1.08,0,0,1-1.16,1.08h-.76c-.78,0-1.18-.47-1.18-1.42Z"/><path class="cls-34" d="M132.1,217.49H138q-.61-1.17-1-1.71l.95-.45c.23.35.57.92,1,1.7l-.9.46h5.79v.92h-7.4c0,.74-.06,1.38-.09,1.9h5.89c-.1,1.76-.2,3.3-.31,4.6-.09,1.47-.81,2.21-2.15,2.21-.62,0-1.45,0-2.48-.1,0-.31-.1-.68-.18-1.12a19.21,19.21,0,0,0,2.51.2c.75,0,1.17-.44,1.26-1.33s.18-2.15.25-3.55h-4.86a7.92,7.92,0,0,1-3.73,6.25c-.22-.26-.47-.54-.75-.83a7.09,7.09,0,0,0,3.46-5.69c.06-.64.1-1.49.14-2.54H132.1Z"/><path class="cls-34" d="M146.34,227.28h-1v-10H149c.2-.6.4-1.23.58-1.89l1.05.3c-.21.56-.42,1.1-.62,1.59h5.71v8.59a1.22,1.22,0,0,1-1.38,1.38l-1.85,0c0-.28-.1-.6-.17-.95.7.06,1.29.08,1.78.08s.67-.23.67-.7v-7.46h-8.42Zm1.67-7.36h5.05v4.28h-4.12V225H148Zm4.13.87h-3.2v2.53h3.2Z"/><path class="cls-34" d="M97,241.12a8.43,8.43,0,0,1-2-5.76,8.79,8.79,0,0,1,2-5.85H98A9,9,0,0,0,96,235.35a8.75,8.75,0,0,0,2,5.77Z"/><path class="cls-34" d="M100.73,229.5l-.2,2.94h-.82l-.19-2.94Zm1.65,0-.19,2.94h-.83l-.2-2.94Z"/><path class="cls-34" d="M108.11,233.4a1.44,1.44,0,0,0-.83-.21,1.35,1.35,0,0,0-1.14.65,2.93,2.93,0,0,0-.45,1.71V239h-1.2v-6.75h1.2v1.37h0a1.85,1.85,0,0,1,1.77-1.49,1.75,1.75,0,0,1,.63.09Z"/><path class="cls-34" d="M114.67,235.9H110a2.44,2.44,0,0,0,.59,1.67,2.07,2.07,0,0,0,1.57.59,3.3,3.3,0,0,0,2.08-.73v1.07a4,4,0,0,1-2.36.63,2.9,2.9,0,0,1-2.29-.93,3.8,3.8,0,0,1-.82-2.58,3.68,3.68,0,0,1,.9-2.55,2.89,2.89,0,0,1,2.24-1,2.61,2.61,0,0,1,2.07.85,3.54,3.54,0,0,1,.74,2.39Zm-1.19-1a2.17,2.17,0,0,0-.44-1.42,1.49,1.49,0,0,0-1.2-.5,1.7,1.7,0,0,0-1.24.53,2.54,2.54,0,0,0-.65,1.39Z"/><path class="cls-34" d="M122.21,242.08H121v-4.25h0a2.4,2.4,0,0,1-2.28,1.3,2.54,2.54,0,0,1-2-.9,3.72,3.72,0,0,1-.77-2.48,4,4,0,0,1,.84-2.68,2.82,2.82,0,0,1,2.26-1,2.13,2.13,0,0,1,2,1.07h0v-.91h1.19ZM121,235a2,2,0,0,0-.51-1.37,1.78,1.78,0,0,0-1.35-.56,1.76,1.76,0,0,0-1.49.71,3.09,3.09,0,0,0-.55,2,2.79,2.79,0,0,0,.52,1.78,1.68,1.68,0,0,0,1.37.64,1.81,1.81,0,0,0,1.47-.64,2.36,2.36,0,0,0,.54-1.59Z"/><path class="cls-34" d="M130,239h-1.2v-1.06h0a2.23,2.23,0,0,1-2.08,1.22c-1.6,0-2.4-1-2.4-2.87v-4h1.19v3.86c0,1.37.52,2.06,1.57,2.06a1.55,1.55,0,0,0,1.26-.58,2.19,2.19,0,0,0,.49-1.45v-3.89H130Z"/><path class="cls-34" d="M137.73,235.9H133a2.44,2.44,0,0,0,.59,1.67,2.09,2.09,0,0,0,1.57.59,3.3,3.3,0,0,0,2.08-.73v1.07a4,4,0,0,1-2.36.63,2.86,2.86,0,0,1-2.28-.93,3.76,3.76,0,0,1-.83-2.58,3.68,3.68,0,0,1,.9-2.55,2.91,2.91,0,0,1,2.24-1,2.61,2.61,0,0,1,2.07.85,3.49,3.49,0,0,1,.75,2.39Zm-1.2-1a2.17,2.17,0,0,0-.43-1.42,1.52,1.52,0,0,0-1.21-.5,1.69,1.69,0,0,0-1.23.53,2.49,2.49,0,0,0-.66,1.39Z"/><path class="cls-34" d="M139,237.51a3.21,3.21,0,0,0,1.94.65c.94,0,1.4-.3,1.4-.91a.82.82,0,0,0-.3-.65,4.87,4.87,0,0,0-1.24-.6,3.55,3.55,0,0,1-1.46-.89,1.79,1.79,0,0,1,.42-2.51,3.15,3.15,0,0,1,1.87-.54,4.18,4.18,0,0,1,1.6.3v1.15a3.11,3.11,0,0,0-1.71-.49,1.68,1.68,0,0,0-.94.25.78.78,0,0,0-.36.66.8.8,0,0,0,.26.63,4.64,4.64,0,0,0,1.15.58,3.9,3.9,0,0,1,1.53.87,1.78,1.78,0,0,1-.36,2.58,3.35,3.35,0,0,1-2,.54,3.92,3.92,0,0,1-1.83-.4Z"/><path class="cls-34" d="M148.52,238.9a2.23,2.23,0,0,1-1.06.22c-1.2,0-1.81-.67-1.81-2v-3.9h-1.16v-1h1.16V230.6l1.19-.38v2h1.68v1h-1.68v3.68a1.59,1.59,0,0,0,.23,1,.9.9,0,0,0,.75.28,1.12,1.12,0,0,0,.7-.22Z"/><path class="cls-34" d="M151.46,229.5l-.2,2.94h-.82l-.19-2.94Zm1.65,0-.19,2.94h-.83l-.2-2.94Z"/><path class="cls-34" d="M154.64,241.12a8.76,8.76,0,0,0,2.06-5.77,9,9,0,0,0-2.07-5.84h1.06a8.71,8.71,0,0,1,2.06,5.85,8.34,8.34,0,0,1-2.06,5.76Z"/><path class="cls-34" d="M99.13,267l3.05,0,4-.09c-.09.27-.2.59-.34,1H101.9l-3,0A3.17,3.17,0,0,1,96,266.45a19.14,19.14,0,0,0-1.46,1.64l-.51-1c.72-.7,1.25-1.2,1.57-1.5v-4.11H94.12v-.9h2.4v5.23A2.87,2.87,0,0,0,99.13,267Zm-3.59-10.53q.63.75,1.71,2.31l-.87.61q-1-1.56-1.62-2.4Zm4.07,5.32.58-.63c.87.64,1.69,1.27,2.48,1.88a8,8,0,0,0,1.61-2.52H99.37A8.17,8.17,0,0,1,97.65,266a8.13,8.13,0,0,0-.64-.77,7.17,7.17,0,0,0,1.44-4.82v-3.35a51.6,51.6,0,0,0,7-.52l.34.95q-3.15.33-6.42.43v1.72h5.91v.86a8.62,8.62,0,0,1-1.85,3.1c.85.68,1.64,1.33,2.36,2l-.73.79c-.78-.71-1.56-1.39-2.34-2.05a13.46,13.46,0,0,1-3.52,2.2c-.18-.25-.38-.51-.61-.78a13.15,13.15,0,0,0,3.38-2.05C101.18,263.05,100.4,262.41,99.61,261.79Z"/><path class="cls-34" d="M107.38,257h10.67v11.18h-1v-.78h-8.62v.78h-1Zm9.65.9h-8.62v8.62H117Zm-6.91,1.87h5.19v5.33h-1v-.68h-3.28v.68h-.95Zm4.23.86h-3.28v2.94h3.28Z"/><path class="cls-34" d="M119.74,258.26H121c.3-.74.55-1.41.75-2l1,.29c-.25.62-.5,1.2-.74,1.73h2.44V268h-1v-1h-2.75v1h-1Zm3.72.92h-2.75v3h2.75Zm-2.75,6.93h2.75V263h-2.75Zm3.91-5.34a18,18,0,0,0,1.94-4.53l1,.25c-.21.62-.42,1.2-.64,1.74h3.93q-.13,6.27-.24,7.89a1.79,1.79,0,0,1-2,1.92c-.75,0-1.5,0-2.26-.07a8.93,8.93,0,0,0-.2-1.09h0a15.28,15.28,0,0,0,2.23.17,1.1,1.1,0,0,0,1.2-1.17q.13-1.81.19-6.74h-3.27a16,16,0,0,1-1.1,2.08A4.06,4.06,0,0,0,124.62,260.77Zm1.08.83.74-.55c.9,1.06,1.62,2,2.16,2.77l-.9.63A31.66,31.66,0,0,0,125.7,261.6Z"/><path class="cls-34" d="M131.79,260.29l.61-.71c.66.46,1.35,1,2.07,1.58-.29.34-.52.6-.7.79C132.92,261.19,132.26,260.64,131.79,260.29Zm.38,7.54a39.81,39.81,0,0,0,1.27-4.73c.36.15.69.28,1,.38-.37,1.4-.76,3-1.19,4.68Zm.1-10.73.62-.64c.59.47,1.26,1,2,1.68l-.72.72C133.48,258.18,132.85,257.59,132.27,257.1Zm3.86,5.46h.93a9.7,9.7,0,0,1-.5,3.75,4.26,4.26,0,0,1-2,2,4.64,4.64,0,0,0-.63-.8,3.52,3.52,0,0,0,1.77-1.69A8.28,8.28,0,0,0,136.13,262.56Zm5.29-3.23c.64.73,1.34,1.62,2.11,2.67l-.88.57-.59-.85-5.51.27a4.58,4.58,0,0,0-1,.14l-.41-.91a5.2,5.2,0,0,0,.85-.56,14,14,0,0,0,1.88-2h-2.71v-.87h3.88a15,15,0,0,0-.89-1.26l.81-.5c.3.38.64.83,1,1.34l-.63.42h4.15v.87h-5.39l.8.34a24.61,24.61,0,0,1-2.12,2.05l4.67-.16c-.29-.38-.56-.74-.82-1.06Zm-2.88,3.23h.92V268h-.92Zm2.23-.05h.92v4.09c0,.37.15.56.44.56h.43c.25,0,.41-.21.47-.62a13.07,13.07,0,0,0,.11-1.54,9.8,9.8,0,0,0,.92.36c-.06.68-.12,1.2-.18,1.57a1.1,1.1,0,0,1-1.17,1.09H142c-.79,0-1.19-.48-1.19-1.43Z"/><path class="cls-34" d="M144.6,258.35h5.86c-.42-.78-.74-1.35-1-1.71l.95-.45c.23.35.57.92,1,1.71l-.89.45h5.78v.93H149q0,1.11-.09,1.89h5.89c-.09,1.76-.2,3.3-.31,4.6-.09,1.47-.81,2.21-2.15,2.21-.62,0-1.45,0-2.48-.1,0-.31-.1-.68-.18-1.12a19.5,19.5,0,0,0,2.51.21c.75,0,1.17-.45,1.26-1.33s.18-2.16.26-3.56H148.8a7.92,7.92,0,0,1-3.73,6.25c-.22-.26-.47-.53-.74-.83a7.08,7.08,0,0,0,3.45-5.68c.06-.65.11-1.49.14-2.54H144.6Z"/><path class="cls-34" d="M158.83,268.14h-1v-10h3.6c.2-.61.4-1.24.59-1.9l1.05.3c-.21.57-.42,1.1-.63,1.6h5.72v8.58a1.22,1.22,0,0,1-1.38,1.38l-1.86,0c0-.28-.1-.6-.17-.95.7.06,1.29.09,1.78.09s.67-.24.67-.71V259h-8.42Zm1.67-7.36h5.06v4.28h-4.13v.84h-.93Zm4.13.88h-3.2v2.52h3.2Z"/><path class="cls-34" d="M96.86,282a8.42,8.42,0,0,1-2.06-5.76,8.76,8.76,0,0,1,2.06-5.84h1.06a9,9,0,0,0-2.07,5.83A8.8,8.8,0,0,0,97.9,282Z"/><path class="cls-34" d="M100.64,270.36l-.2,2.95h-.82l-.2-2.95Zm1.65,0-.2,2.95h-.82l-.2-2.95Z"/><path class="cls-34" d="M108,274.26a1.4,1.4,0,0,0-.82-.21,1.37,1.37,0,0,0-1.15.65,3,3,0,0,0-.45,1.71v3.42h-1.2v-6.75h1.2v1.37h0a1.83,1.83,0,0,1,1.76-1.48,1.68,1.68,0,0,1,.63.09Z"/><path class="cls-34" d="M114.58,276.76h-4.73a2.4,2.4,0,0,0,.6,1.67A2,2,0,0,0,112,279a3.35,3.35,0,0,0,2.09-.73v1.07a4.05,4.05,0,0,1-2.37.63,2.88,2.88,0,0,1-2.28-.93,3.72,3.72,0,0,1-.82-2.57,3.69,3.69,0,0,1,.9-2.56,2.87,2.87,0,0,1,2.23-1,2.61,2.61,0,0,1,2.07.85,3.51,3.51,0,0,1,.75,2.39Zm-1.2-1a2.12,2.12,0,0,0-.43-1.41,1.49,1.49,0,0,0-1.2-.5,1.66,1.66,0,0,0-1.24.53,2.43,2.43,0,0,0-.66,1.38Z"/><path class="cls-34" d="M117.46,278.88v4.06h-1.2v-9.86h1.2v1.17h0a2.54,2.54,0,0,1,2.32-1.33,2.46,2.46,0,0,1,2,.91,3.73,3.73,0,0,1,.73,2.43,4.14,4.14,0,0,1-.83,2.71,2.75,2.75,0,0,1-2.24,1,2.25,2.25,0,0,1-2-1.11Zm0-1.83a2,2,0,0,0,.53,1.39,1.77,1.77,0,0,0,1.33.56,1.73,1.73,0,0,0,1.49-.73,3.37,3.37,0,0,0,.54-2,2.66,2.66,0,0,0-.5-1.71,1.68,1.68,0,0,0-1.37-.62,1.85,1.85,0,0,0-1.45.63,2.31,2.31,0,0,0-.57,1.61Z"/><path class="cls-34" d="M124.32,279.83v-10h1.2v10Z"/><path class="cls-34" d="M133.24,273.08l-3.07,7.77c-.57,1.44-1.37,2.16-2.41,2.16a2.41,2.41,0,0,1-.76-.1v-1.05a1.83,1.83,0,0,0,.67.14,1.3,1.3,0,0,0,1.21-.95l.52-1.23-2.65-6.74h1.33l1.76,5.07.15.56h0a3.3,3.3,0,0,1,.15-.54l1.84-5.09Z"/><path class="cls-34" d="M136.08,270.36l-.21,2.95h-.81l-.2-2.95Zm1.64,0-.19,2.95h-.83l-.2-2.95Z"/><path class="cls-34" d="M139.25,282a8.74,8.74,0,0,0,2.06-5.77,8.93,8.93,0,0,0-2.07-5.83h1.06a8.68,8.68,0,0,1,2.07,5.84A8.35,8.35,0,0,1,140.3,282Z"/></g></svg>