<svg xmlns="http://www.w3.org/2000/svg" xmlns:xlink="http://www.w3.org/1999/xlink" viewBox="0 0 578 216.17"><defs><style>.cls-1,.cls-2{fill:#fff;}.cls-18,.cls-2{stroke:#e6e6e6;stroke-width:0.75px;}.cls-3{fill:#3c3c41;opacity:0.08;}.cls-29,.cls-3,.cls-30,.cls-31,.cls-35,.cls-36,.cls-37,.cls-38,.cls-46,.cls-47,.cls-54,.cls-55,.cls-56{isolation:isolate;}.cls-4{fill:url(#Degradado_sin_nombre);}.cls-5{fill:#b4ec36;}.cls-6{fill:#5ea0ef;}.cls-7{fill:url(#Degradado_sin_nombre_2);}.cls-8{fill:#50e6ff;}.cls-9{fill:#c3f1ff;}.cls-10{fill:#9cebff;}.cls-11{fill:url(#Degradado_sin_nombre_3);}.cls-12{fill:url(#Degradado_sin_nombre_4);}.cls-13{fill:url(#Degradado_sin_nombre_5);}.cls-14{fill:url(#Degradado_sin_nombre_6);}.cls-15{fill:url(#Degradado_sin_nombre_7);}.cls-16{fill:url(#Degradado_sin_nombre_8);}.cls-17{fill:url(#Degradado_sin_nombre_9);}.cls-18{fill:none;}.cls-19{fill:url(#Degradado_sin_nombre_10);}.cls-20{fill:url(#Degradado_sin_nombre_11);}.cls-21{fill:url(#Degradado_sin_nombre_12);}.cls-22{fill:url(#Degradado_sin_nombre_13);}.cls-23{fill:url(#Degradado_sin_nombre_14);}.cls-24{fill:url(#Degradado_sin_nombre_15);}.cls-25{fill:url(#Degradado_sin_nombre_16);}.cls-26{fill:url(#Degradado_sin_nombre_17);}.cls-27{fill:url(#Degradado_sin_nombre_18);}.cls-28{fill:url(#Degradado_sin_nombre_19);}.cls-29,.cls-30,.cls-31,.cls-35,.cls-36,.cls-37,.cls-38,.cls-46,.cls-47,.cls-54,.cls-55,.cls-56{opacity:0.5;}.cls-29{fill:url(#Degradado_sin_nombre_20);}.cls-30{fill:url(#Degradado_sin_nombre_21);}.cls-31{fill:url(#Degradado_sin_nombre_22);}.cls-32{fill:url(#Degradado_sin_nombre_23);}.cls-33{fill:url(#Degradado_sin_nombre_24);}.cls-34{fill:url(#Degradado_sin_nombre_25);}.cls-35{fill:url(#Degradado_sin_nombre_26);}.cls-36{fill:url(#Degradado_sin_nombre_27);}.cls-37{fill:url(#Degradado_sin_nombre_28);}.cls-38{fill:url(#Degradado_sin_nombre_29);}.cls-39{fill:url(#Degradado_sin_nombre_30);}.cls-40{fill:url(#Degradado_sin_nombre_31);}.cls-41{fill:url(#Degradado_sin_nombre_32);}.cls-42{fill:url(#Degradado_sin_nombre_33);}.cls-43{fill:url(#Degradado_sin_nombre_34);}.cls-44{fill:url(#Degradado_sin_nombre_35);}.cls-45{fill:url(#Degradado_sin_nombre_36);}.cls-46{fill:url(#Degradado_sin_nombre_37);}.cls-47{fill:url(#Degradado_sin_nombre_38);}.cls-48{fill:url(#Degradado_sin_nombre_39);}.cls-49{fill:url(#Degradado_sin_nombre_40);}.cls-50{fill:url(#Degradado_sin_nombre_41);}.cls-51{fill:url(#Degradado_sin_nombre_42);}.cls-52{fill:url(#Degradado_sin_nombre_43);}.cls-53{fill:url(#Degradado_sin_nombre_44);}.cls-54{fill:url(#Degradado_sin_nombre_45);}.cls-55{fill:url(#Degradado_sin_nombre_46);}.cls-56{fill:url(#Degradado_sin_nombre_47);}.cls-57{fill:#e62323;}.cls-58{fill:#e6e6e6;}.cls-59{fill:#107c10;}.cls-60{fill:#faa21d;}.cls-61{fill:url(#Degradado_sin_nombre_48);}.cls-62{fill:url(#Degradado_sin_nombre_49);}.cls-63{fill:url(#Degradado_sin_nombre_50);}.cls-64{fill:url(#Degradado_sin_nombre_51);}.cls-65{fill:url(#Degradado_sin_nombre_52);}.cls-66{fill:url(#Degradado_sin_nombre_53);}.cls-67{fill:url(#Degradado_sin_nombre_54);}.cls-68{fill:url(#Degradado_sin_nombre_55);}.cls-69{fill:url(#Degradado_sin_nombre_56);}.cls-70{fill:url(#Degradado_sin_nombre_57);}.cls-71{fill:url(#Degradado_sin_nombre_58);}.cls-72{fill:url(#Degradado_sin_nombre_59);}.cls-73{fill:url(#Degradado_sin_nombre_60);}.cls-74{fill:url(#Degradado_sin_nombre_61);}.cls-75{fill:url(#Degradado_sin_nombre_62);}.cls-76{fill:url(#Degradado_sin_nombre_63);}.cls-77{fill:url(#Degradado_sin_nombre_64);}.cls-78{fill:url(#Degradado_sin_nombre_65);}.cls-79{fill:url(#Degradado_sin_nombre_66);}.cls-80{fill:url(#Degradado_sin_nombre_67);}.cls-81{fill:url(#Degradado_sin_nombre_68);}.cls-82{fill:url(#Degradado_sin_nombre_69);}.cls-83{fill:url(#Degradado_sin_nombre_70);}.cls-84{fill:url(#Degradado_sin_nombre_71);}.cls-85{fill:url(#Degradado_sin_nombre_72);}.cls-86{fill:url(#Degradado_sin_nombre_73);}.cls-87{fill:url(#Degradado_sin_nombre_74);}.cls-88{fill:url(#Degradado_sin_nombre_75);}.cls-89{fill:url(#Degradado_sin_nombre_76);}.cls-90{fill:url(#Degradado_sin_nombre_77);}.cls-91{fill:url(#Degradado_sin_nombre_78);}.cls-92{fill:url(#Degradado_sin_nombre_79);}.cls-93{fill:url(#Degradado_sin_nombre_80);}.cls-94{fill:#6ebcdb;}.cls-95{fill:#5db4d7;}.cls-96{fill:#86d633;}.cls-97{fill:#1e1e1e;}.cls-98{fill:#3b3b3b;}</style><linearGradient id="Degradado_sin_nombre" x1="36.12" y1="210.23" x2="36.12" y2="170.82" gradientTransform="translate(0 -162.33)" gradientUnits="userSpaceOnUse"><stop offset="0" stop-color="#5e9624"/><stop offset="0.02" stop-color="#5f9724"/><stop offset="1" stop-color="#76bc2d"/></linearGradient><linearGradient id="Degradado_sin_nombre_2" x1="85.83" y1="324.45" x2="85.83" y2="312.9" gradientTransform="translate(0 -162.33)" gradientUnits="userSpaceOnUse"><stop offset="0" stop-color="#0078d4"/><stop offset="0.82" stop-color="#5ea0ef"/></linearGradient><linearGradient id="Degradado_sin_nombre_3" x1="85.83" y1="328.9" x2="85.83" y2="324.44" gradientTransform="translate(0 -162.33)" gradientUnits="userSpaceOnUse"><stop offset="0.15" stop-color="#ccc"/><stop offset="1" stop-color="#707070"/></linearGradient><linearGradient id="Degradado_sin_nombre_4" x1="142.21" y1="324.45" x2="142.21" y2="312.9" xlink:href="#Degradado_sin_nombre_2"/><linearGradient id="Degradado_sin_nombre_5" x1="142.21" y1="328.9" x2="142.21" y2="324.44" xlink:href="#Degradado_sin_nombre_3"/><linearGradient id="Degradado_sin_nombre_6" x1="197.38" y1="324.45" x2="197.38" y2="312.9" xlink:href="#Degradado_sin_nombre_2"/><linearGradient id="Degradado_sin_nombre_7" x1="197.38" y1="328.9" x2="197.38" y2="324.44" xlink:href="#Degradado_sin_nombre_3"/><linearGradient id="Degradado_sin_nombre_8" x1="252.4" y1="324.45" x2="252.4" y2="312.9" xlink:href="#Degradado_sin_nombre_2"/><linearGradient id="Degradado_sin_nombre_9" x1="252.4" y1="328.9" x2="252.4" y2="324.44" xlink:href="#Degradado_sin_nombre_3"/><linearGradient id="Degradado_sin_nombre_10" x1="81.17" y1="120.49" x2="81.17" y2="130.49" gradientTransform="matrix(1, 0, 0, -1, 0, 216.66)" gradientUnits="userSpaceOnUse"><stop offset="0" stop-color="#0078d4"/><stop offset="0.16" stop-color="#1380da"/><stop offset="0.53" stop-color="#3c91e5"/><stop offset="0.82" stop-color="#559cec"/><stop offset="1" stop-color="#5ea0ef"/></linearGradient><linearGradient id="Degradado_sin_nombre_11" x1="96.17" y1="120.49" x2="96.17" y2="130.49" xlink:href="#Degradado_sin_nombre_10"/><linearGradient id="Degradado_sin_nombre_12" x1="111.17" y1="120.49" x2="111.17" y2="130.49" xlink:href="#Degradado_sin_nombre_10"/><linearGradient id="Degradado_sin_nombre_13" x1="81.17" y1="105.49" x2="81.17" y2="115.49" xlink:href="#Degradado_sin_nombre_10"/><linearGradient id="Degradado_sin_nombre_14" x1="17.66" y1="7.99" x2="17.66" y2="17.99" xlink:href="#Degradado_sin_nombre_10"/><linearGradient id="Degradado_sin_nombre_15" x1="96.17" y1="105.49" x2="96.17" y2="115.49" xlink:href="#Degradado_sin_nombre_10"/><linearGradient id="Degradado_sin_nombre_16" x1="111.17" y1="105.49" x2="111.17" y2="115.49" xlink:href="#Degradado_sin_nombre_10"/><linearGradient id="Degradado_sin_nombre_17" x1="81.17" y1="135.49" x2="81.17" y2="145.49" xlink:href="#Degradado_sin_nombre_10"/><linearGradient id="Degradado_sin_nombre_18" x1="96.17" y1="135.49" x2="96.17" y2="145.49" xlink:href="#Degradado_sin_nombre_10"/><linearGradient id="Degradado_sin_nombre_19" x1="111.17" y1="135.49" x2="111.17" y2="145.49" xlink:href="#Degradado_sin_nombre_10"/><linearGradient id="Degradado_sin_nombre_20" x1="136.17" y1="120.49" x2="136.17" y2="130.49" xlink:href="#Degradado_sin_nombre_10"/><linearGradient id="Degradado_sin_nombre_21" x1="151.17" y1="120.49" x2="151.17" y2="130.49" xlink:href="#Degradado_sin_nombre_10"/><linearGradient id="Degradado_sin_nombre_22" x1="166.17" y1="120.49" x2="166.17" y2="130.49" xlink:href="#Degradado_sin_nombre_10"/><linearGradient id="Degradado_sin_nombre_23" x1="136.17" y1="105.49" x2="136.17" y2="115.49" xlink:href="#Degradado_sin_nombre_10"/><linearGradient id="Degradado_sin_nombre_24" x1="151.17" y1="105.49" x2="151.17" y2="115.49" xlink:href="#Degradado_sin_nombre_10"/><linearGradient id="Degradado_sin_nombre_25" x1="166.17" y1="105.49" x2="166.17" y2="115.49" xlink:href="#Degradado_sin_nombre_10"/><linearGradient id="Degradado_sin_nombre_26" x1="136.17" y1="135.49" x2="136.17" y2="145.49" xlink:href="#Degradado_sin_nombre_10"/><linearGradient id="Degradado_sin_nombre_27" x1="17.66" y1="22.99" x2="17.66" y2="32.99" xlink:href="#Degradado_sin_nombre_10"/><linearGradient id="Degradado_sin_nombre_28" x1="151.17" y1="135.49" x2="151.17" y2="145.49" xlink:href="#Degradado_sin_nombre_10"/><linearGradient id="Degradado_sin_nombre_29" x1="166.17" y1="135.49" x2="166.17" y2="145.49" xlink:href="#Degradado_sin_nombre_10"/><linearGradient id="Degradado_sin_nombre_30" x1="191.17" y1="120.49" x2="191.17" y2="130.49" xlink:href="#Degradado_sin_nombre_10"/><linearGradient id="Degradado_sin_nombre_31" x1="206.17" y1="120.49" x2="206.17" y2="130.49" xlink:href="#Degradado_sin_nombre_10"/><linearGradient id="Degradado_sin_nombre_32" x1="221.17" y1="120.49" x2="221.17" y2="130.49" xlink:href="#Degradado_sin_nombre_10"/><linearGradient id="Degradado_sin_nombre_33" x1="191.17" y1="105.49" x2="191.17" y2="115.49" xlink:href="#Degradado_sin_nombre_10"/><linearGradient id="Degradado_sin_nombre_34" x1="206.17" y1="105.49" x2="206.17" y2="115.49" xlink:href="#Degradado_sin_nombre_10"/><linearGradient id="Degradado_sin_nombre_35" x1="221.17" y1="105.49" x2="221.17" y2="115.49" xlink:href="#Degradado_sin_nombre_10"/><linearGradient id="Degradado_sin_nombre_36" x1="191.17" y1="135.49" x2="191.17" y2="145.49" xlink:href="#Degradado_sin_nombre_10"/><linearGradient id="Degradado_sin_nombre_37" x1="206.17" y1="135.49" x2="206.17" y2="145.49" xlink:href="#Degradado_sin_nombre_10"/><linearGradient id="Degradado_sin_nombre_38" x1="221.17" y1="135.49" x2="221.17" y2="145.49" xlink:href="#Degradado_sin_nombre_10"/><linearGradient id="Degradado_sin_nombre_39" x1="246.17" y1="120.49" x2="246.17" y2="130.49" xlink:href="#Degradado_sin_nombre_10"/><linearGradient id="Degradado_sin_nombre_40" x1="261.17" y1="120.49" x2="261.17" y2="130.49" xlink:href="#Degradado_sin_nombre_10"/><linearGradient id="Degradado_sin_nombre_41" x1="276.17" y1="120.49" x2="276.17" y2="130.49" xlink:href="#Degradado_sin_nombre_10"/><linearGradient id="Degradado_sin_nombre_42" x1="246.17" y1="105.49" x2="246.17" y2="115.49" xlink:href="#Degradado_sin_nombre_10"/><linearGradient id="Degradado_sin_nombre_43" x1="261.17" y1="105.49" x2="261.17" y2="115.49" xlink:href="#Degradado_sin_nombre_10"/><linearGradient id="Degradado_sin_nombre_44" x1="276.17" y1="105.49" x2="276.17" y2="115.49" xlink:href="#Degradado_sin_nombre_10"/><linearGradient id="Degradado_sin_nombre_45" x1="246.17" y1="135.49" x2="246.17" y2="145.49" xlink:href="#Degradado_sin_nombre_10"/><linearGradient id="Degradado_sin_nombre_46" x1="261.17" y1="135.49" x2="261.17" y2="145.49" xlink:href="#Degradado_sin_nombre_10"/><linearGradient id="Degradado_sin_nombre_47" x1="276.17" y1="135.49" x2="276.17" y2="145.49" xlink:href="#Degradado_sin_nombre_10"/><linearGradient id="Degradado_sin_nombre_48" x1="308.33" y1="324.45" x2="308.33" y2="312.9" xlink:href="#Degradado_sin_nombre_2"/><linearGradient id="Degradado_sin_nombre_49" x1="308.33" y1="328.9" x2="308.33" y2="324.44" xlink:href="#Degradado_sin_nombre_3"/><linearGradient id="Degradado_sin_nombre_50" x1="364.71" y1="324.45" x2="364.71" y2="312.9" xlink:href="#Degradado_sin_nombre_2"/><linearGradient id="Degradado_sin_nombre_51" x1="364.69" y1="328.9" x2="364.69" y2="324.44" xlink:href="#Degradado_sin_nombre_3"/><linearGradient id="Degradado_sin_nombre_52" x1="419.88" y1="324.45" x2="419.88" y2="312.9" xlink:href="#Degradado_sin_nombre_2"/><linearGradient id="Degradado_sin_nombre_53" x1="419.88" y1="328.9" x2="419.88" y2="324.44" xlink:href="#Degradado_sin_nombre_3"/><linearGradient id="Degradado_sin_nombre_54" x1="474.9" y1="324.45" x2="474.9" y2="312.9" xlink:href="#Degradado_sin_nombre_2"/><linearGradient id="Degradado_sin_nombre_55" x1="474.9" y1="328.9" x2="474.9" y2="324.44" xlink:href="#Degradado_sin_nombre_3"/><linearGradient id="Degradado_sin_nombre_56" x1="303.67" y1="120.49" x2="303.67" y2="130.49" xlink:href="#Degradado_sin_nombre_10"/><linearGradient id="Degradado_sin_nombre_57" x1="318.67" y1="120.49" x2="318.67" y2="130.49" xlink:href="#Degradado_sin_nombre_10"/><linearGradient id="Degradado_sin_nombre_58" x1="333.67" y1="120.49" x2="333.67" y2="130.49" xlink:href="#Degradado_sin_nombre_10"/><linearGradient id="Degradado_sin_nombre_59" x1="303.67" y1="105.49" x2="303.67" y2="115.49" xlink:href="#Degradado_sin_nombre_10"/><linearGradient id="Degradado_sin_nombre_60" x1="318.67" y1="105.49" x2="318.67" y2="115.49" xlink:href="#Degradado_sin_nombre_10"/><linearGradient id="Degradado_sin_nombre_61" x1="333.67" y1="105.49" x2="333.67" y2="115.49" xlink:href="#Degradado_sin_nombre_10"/><linearGradient id="Degradado_sin_nombre_62" x1="303.67" y1="135.49" x2="303.67" y2="145.49" xlink:href="#Degradado_sin_nombre_10"/><linearGradient id="Degradado_sin_nombre_63" x1="318.67" y1="135.49" x2="318.67" y2="145.49" xlink:href="#Degradado_sin_nombre_10"/><linearGradient id="Degradado_sin_nombre_64" x1="333.67" y1="135.49" x2="333.67" y2="145.49" xlink:href="#Degradado_sin_nombre_10"/><linearGradient id="Degradado_sin_nombre_65" x1="358.67" y1="105.49" x2="358.67" y2="115.49" xlink:href="#Degradado_sin_nombre_10"/><linearGradient id="Degradado_sin_nombre_66" x1="373.67" y1="105.49" x2="373.67" y2="115.49" xlink:href="#Degradado_sin_nombre_10"/><linearGradient id="Degradado_sin_nombre_67" x1="388.67" y1="105.49" x2="388.67" y2="115.49" xlink:href="#Degradado_sin_nombre_10"/><linearGradient id="Degradado_sin_nombre_68" x1="413.67" y1="120.49" x2="413.67" y2="130.49" xlink:href="#Degradado_sin_nombre_10"/><linearGradient id="Degradado_sin_nombre_69" x1="428.67" y1="120.49" x2="428.67" y2="130.49" xlink:href="#Degradado_sin_nombre_10"/><linearGradient id="Degradado_sin_nombre_70" x1="443.67" y1="120.49" x2="443.67" y2="130.49" xlink:href="#Degradado_sin_nombre_10"/><linearGradient id="Degradado_sin_nombre_71" x1="413.67" y1="105.49" x2="413.67" y2="115.49" xlink:href="#Degradado_sin_nombre_10"/><linearGradient id="Degradado_sin_nombre_72" x1="428.67" y1="105.49" x2="428.67" y2="115.49" xlink:href="#Degradado_sin_nombre_10"/><linearGradient id="Degradado_sin_nombre_73" x1="443.67" y1="105.49" x2="443.67" y2="115.49" xlink:href="#Degradado_sin_nombre_10"/><linearGradient id="Degradado_sin_nombre_74" x1="413.67" y1="135.49" x2="413.67" y2="145.49" xlink:href="#Degradado_sin_nombre_10"/><linearGradient id="Degradado_sin_nombre_75" x1="468.67" y1="120.49" x2="468.67" y2="130.49" xlink:href="#Degradado_sin_nombre_10"/><linearGradient id="Degradado_sin_nombre_76" x1="483.67" y1="120.49" x2="483.67" y2="130.49" xlink:href="#Degradado_sin_nombre_10"/><linearGradient id="Degradado_sin_nombre_77" x1="498.67" y1="120.49" x2="498.67" y2="130.49" xlink:href="#Degradado_sin_nombre_10"/><linearGradient id="Degradado_sin_nombre_78" x1="468.67" y1="105.49" x2="468.67" y2="115.49" xlink:href="#Degradado_sin_nombre_10"/><linearGradient id="Degradado_sin_nombre_79" x1="483.67" y1="105.49" x2="483.67" y2="115.49" xlink:href="#Degradado_sin_nombre_10"/><linearGradient id="Degradado_sin_nombre_80" x1="498.67" y1="105.49" x2="498.67" y2="115.49" xlink:href="#Degradado_sin_nombre_10"/></defs><title>OJ104903204</title><g id="Target"><rect class="cls-1" width="578" height="216.17"/><rect class="cls-2" x="291.17" y="1.17" width="285.67" height="175"/><rect class="cls-2" x="1.17" y="1.17" width="285" height="175"/><rect class="cls-1" x="291.83" y="1.17" width="285" height="55"/><rect class="cls-3" x="291.83" y="1.17" width="285" height="55"/><rect class="cls-1" x="1.17" y="1.17" width="285" height="55"/><rect class="cls-3" x="1.17" y="1.17" width="285" height="55"/><path class="cls-4" d="M19.47,26.6,35.31,10.76a1.15,1.15,0,0,1,1.61,0h0L52.78,26.6a1.15,1.15,0,0,1,0,1.61h0L36.92,44.09a1.14,1.14,0,0,1-1.59,0L19.47,28.23a1.13,1.13,0,0,1,0-1.6h0Z"/><path class="cls-5" d="M40.28,18l-4-4A.24.24,0,0,0,36,14l-4,4a.19.19,0,0,0,0,.27.18.18,0,0,0,.19.07h2.34a.21.21,0,0,1,.21.21V22.3a.21.21,0,0,0,.21.21H37.4a.21.21,0,0,0,.21-.21V18.52a.21.21,0,0,1,.21-.21h2.34a.19.19,0,0,0,.23-.13A.19.19,0,0,0,40.28,18Z"/><path class="cls-5" d="M26.68,22.9l-4,4a.19.19,0,0,0,0,.27h0l4,4a.22.22,0,0,0,.3,0h0A.22.22,0,0,0,27,31V28.72a.23.23,0,0,1,.21-.21H31a.2.2,0,0,0,.19-.19h0V25.81a.2.2,0,0,0-.07-.26H27.31a.19.19,0,0,1-.21-.17h0V23.05a.22.22,0,0,0-.13-.28A.23.23,0,0,0,26.68,22.9Z"/><path class="cls-5" d="M45.72,31.19l4-4a.19.19,0,0,0,0-.27h0l-4-4a.22.22,0,0,0-.3,0,.28.28,0,0,0,0,.12v2.36a.18.18,0,0,1-.17.19H41.4a.2.2,0,0,0-.19.19v2.5a.19.19,0,0,0,.17.21h3.79a.21.21,0,0,1,.21.21v2.34a.2.2,0,0,0,.22.18h0A.16.16,0,0,0,45.72,31.19Z"/><path class="cls-1" d="M41.4,27.42a5.27,5.27,0,1,0-6.69,5v1.79a3.23,3.23,0,1,0,4.35,1.39h0a3.33,3.33,0,0,0-1.39-1.39V32.36A5.24,5.24,0,0,0,41.4,27.42Z"/><circle id="e99c3387-15c3-4f28-bd4b-cb209b430e06" class="cls-6" cx="36.14" cy="27.4" r="3.06"/><rect class="cls-7" x="77.17" y="150.57" width="17.32" height="11.55" rx="0.58"/><polygon class="cls-8" points="88.71 154.66 88.71 158.02 85.83 159.71 85.83 156.34 88.71 154.66"/><polygon class="cls-9" points="88.71 154.66 85.83 156.35 82.94 154.66 85.83 152.98 88.71 154.66"/><polygon class="cls-10" points="85.83 156.35 85.83 159.71 82.94 158.02 82.94 154.66 85.83 156.35"/><polygon class="cls-9" points="82.94 158.02 85.83 156.34 85.83 159.71 82.94 158.02"/><polygon class="cls-10" points="88.71 158.02 85.83 156.34 85.83 159.71 88.71 158.02"/><path class="cls-11" d="M89.3,165.61c-1.71-.27-1.78-1.5-1.78-3.49h-3.4c0,2-.05,3.22-1.77,3.49a1,1,0,0,0-.85,1h8.66A1,1,0,0,0,89.3,165.61Z"/><rect class="cls-12" x="133.55" y="150.57" width="17.32" height="11.55" rx="0.58"/><polygon class="cls-8" points="145.09 154.66 145.09 158.02 142.21 159.71 142.21 156.34 145.09 154.66"/><polygon class="cls-9" points="145.09 154.66 142.21 156.35 139.32 154.66 142.21 152.98 145.09 154.66"/><polygon class="cls-10" points="142.21 156.35 142.21 159.71 139.32 158.02 139.32 154.66 142.21 156.35"/><polygon class="cls-9" points="139.32 158.02 142.21 156.34 142.21 159.71 139.32 158.02"/><polygon class="cls-10" points="145.09 158.02 142.21 156.34 142.21 159.71 145.09 158.02"/><path class="cls-13" d="M145.68,165.61c-1.71-.27-1.78-1.5-1.78-3.49h-3.39c0,2-.06,3.22-1.77,3.49a1,1,0,0,0-.86,1h8.66A1,1,0,0,0,145.68,165.61Z"/><rect class="cls-14" x="188.72" y="150.57" width="17.32" height="11.55" rx="0.58"/><polygon class="cls-8" points="200.26 154.66 200.26 158.02 197.38 159.71 197.38 156.34 200.26 154.66"/><polygon class="cls-9" points="200.26 154.66 197.38 156.35 194.49 154.66 197.38 152.98 200.26 154.66"/><polygon class="cls-10" points="197.38 156.35 197.38 159.71 194.49 158.02 194.49 154.66 197.38 156.35"/><polygon class="cls-9" points="194.49 158.02 197.38 156.34 197.38 159.71 194.49 158.02"/><polygon class="cls-10" points="200.26 158.02 197.38 156.34 197.38 159.71 200.26 158.02"/><path class="cls-15" d="M200.85,165.61c-1.71-.27-1.78-1.5-1.78-3.49h-3.4c0,2-.06,3.22-1.77,3.49a1,1,0,0,0-.85,1h8.65A1,1,0,0,0,200.85,165.61Z"/><rect class="cls-16" x="243.74" y="150.57" width="17.32" height="11.55" rx="0.58"/><polygon class="cls-8" points="255.28 154.66 255.28 158.02 252.4 159.71 252.4 156.34 255.28 154.66"/><polygon class="cls-9" points="255.28 154.66 252.4 156.35 249.51 154.66 252.4 152.98 255.28 154.66"/><polygon class="cls-10" points="252.4 156.35 252.4 159.71 249.51 158.02 249.51 154.66 252.4 156.35"/><polygon class="cls-9" points="249.51 158.02 252.4 156.34 252.4 159.71 249.51 158.02"/><polygon class="cls-10" points="255.28 158.02 252.4 156.34 252.4 159.71 255.28 158.02"/><path class="cls-17" d="M255.87,165.61c-1.71-.27-1.78-1.5-1.78-3.49h-3.4c0,2-.05,3.22-1.77,3.49a1,1,0,0,0-.85,1h8.66A1,1,0,0,0,255.87,165.61Z"/><line class="cls-18" x1="1.17" y1="121.17" x2="286.17" y2="121.17"/><circle class="cls-19" cx="81.17" cy="91.17" r="5"/><circle class="cls-20" cx="96.17" cy="91.17" r="5"/><circle class="cls-21" cx="111.17" cy="91.17" r="5"/><circle class="cls-22" cx="81.17" cy="106.17" r="5"/><circle class="cls-23" cx="17.66" cy="203.67" r="5"/><circle class="cls-24" cx="96.17" cy="106.17" r="5"/><circle class="cls-25" cx="111.17" cy="106.17" r="5"/><circle class="cls-26" cx="81.17" cy="76.17" r="5"/><circle class="cls-27" cx="96.17" cy="76.17" r="5"/><circle class="cls-28" cx="111.17" cy="76.17" r="5"/><circle class="cls-29" cx="136.17" cy="91.17" r="5"/><circle class="cls-30" cx="151.17" cy="91.17" r="5"/><circle class="cls-31" cx="166.17" cy="91.17" r="5"/><circle class="cls-32" cx="136.17" cy="106.17" r="5"/><circle class="cls-33" cx="151.17" cy="106.17" r="5"/><circle class="cls-34" cx="166.17" cy="106.17" r="5"/><circle class="cls-35" cx="136.17" cy="76.17" r="5"/><circle class="cls-36" cx="17.66" cy="188.67" r="5"/><circle class="cls-37" cx="151.17" cy="76.17" r="5"/><circle class="cls-38" cx="166.17" cy="76.17" r="5"/><circle class="cls-39" cx="191.17" cy="91.17" r="5"/><circle class="cls-40" cx="206.17" cy="91.17" r="5"/><circle class="cls-41" cx="221.17" cy="91.17" r="5"/><circle class="cls-42" cx="191.17" cy="106.17" r="5"/><circle class="cls-43" cx="206.17" cy="106.17" r="5"/><circle class="cls-44" cx="221.17" cy="106.17" r="5"/><circle class="cls-45" cx="191.17" cy="76.17" r="5"/><circle class="cls-46" cx="206.17" cy="76.17" r="5"/><circle class="cls-47" cx="221.17" cy="76.17" r="5"/><circle class="cls-48" cx="246.17" cy="91.17" r="5"/><circle class="cls-49" cx="261.17" cy="91.17" r="5"/><circle class="cls-50" cx="276.17" cy="91.17" r="5"/><circle class="cls-51" cx="246.17" cy="106.17" r="5"/><circle class="cls-52" cx="261.17" cy="106.17" r="5"/><circle class="cls-53" cx="276.17" cy="106.17" r="5"/><circle class="cls-54" cx="246.17" cy="76.17" r="5"/><circle class="cls-55" cx="261.17" cy="76.17" r="5"/><circle class="cls-56" cx="276.17" cy="76.17" r="5"/><rect class="cls-57" x="76.53" y="131.17" width="40" height="10"/><rect class="cls-58" x="131.72" y="131.17" width="40" height="10"/><rect class="cls-59" x="131.72" y="131.17" width="10" height="10"/><rect class="cls-58" x="186.72" y="131.17" width="40" height="10"/><rect class="cls-60" x="186.72" y="131.17" width="25" height="10"/><rect class="cls-58" x="241.72" y="131.17" width="40" height="10"/><rect class="cls-59" x="241.72" y="131.17" width="25" height="10"/><line class="cls-18" x1="71.17" y1="56.17" x2="71.17" y2="176.17"/><line class="cls-18" x1="125.04" y1="56.17" x2="125.04" y2="176.17"/><line class="cls-18" x1="178.92" y1="56.17" x2="178.92" y2="176.17"/><line class="cls-18" x1="232.79" y1="56.17" x2="232.79" y2="176.17"/><rect class="cls-61" x="299.67" y="150.57" width="17.32" height="11.55" rx="0.58"/><polygon class="cls-8" points="311.21 154.66 311.21 158.02 308.33 159.71 308.33 156.34 311.21 154.66"/><polygon class="cls-9" points="311.21 154.66 308.33 156.35 305.44 154.66 308.33 152.98 311.21 154.66"/><polygon class="cls-10" points="308.33 156.35 308.33 159.71 305.44 158.02 305.44 154.66 308.33 156.35"/><polygon class="cls-9" points="305.44 158.02 308.33 156.34 308.33 159.71 305.44 158.02"/><polygon class="cls-10" points="311.21 158.02 308.33 156.34 308.33 159.71 311.21 158.02"/><path class="cls-62" d="M311.8,165.61c-1.71-.27-1.78-1.5-1.78-3.49h-3.4c0,2-.05,3.22-1.77,3.49a1,1,0,0,0-.85,1h8.66A1,1,0,0,0,311.8,165.61Z"/><rect class="cls-63" x="356.05" y="150.57" width="17.32" height="11.55" rx="0.58"/><polygon class="cls-8" points="367.6 154.66 367.6 158.02 364.71 159.71 364.71 156.34 367.6 154.66"/><polygon class="cls-9" points="367.6 154.66 364.71 156.35 361.82 154.66 364.71 152.98 367.6 154.66"/><polygon class="cls-10" points="364.71 156.35 364.71 159.71 361.82 158.02 361.82 154.66 364.71 156.35"/><polygon class="cls-9" points="361.82 158.02 364.71 156.34 364.71 159.71 361.82 158.02"/><polygon class="cls-10" points="367.6 158.02 364.71 156.34 364.71 159.71 367.6 158.02"/><path class="cls-64" d="M368.18,165.61c-1.71-.27-1.78-1.5-1.78-3.49H363c0,2-.06,3.22-1.77,3.49a1,1,0,0,0-.86,1H369A1,1,0,0,0,368.18,165.61Z"/><rect class="cls-65" x="411.22" y="150.57" width="17.32" height="11.55" rx="0.58"/><polygon class="cls-8" points="422.76 154.66 422.76 158.02 419.88 159.71 419.88 156.34 422.76 154.66"/><polygon class="cls-9" points="422.76 154.66 419.88 156.35 416.99 154.66 419.88 152.98 422.76 154.66"/><polygon class="cls-10" points="419.88 156.35 419.88 159.71 416.99 158.02 416.99 154.66 419.88 156.35"/><polygon class="cls-9" points="416.99 158.02 419.88 156.34 419.88 159.71 416.99 158.02"/><polygon class="cls-10" points="422.76 158.02 419.88 156.34 419.88 159.71 422.76 158.02"/><path class="cls-66" d="M423.35,165.61c-1.71-.27-1.78-1.5-1.78-3.49h-3.4c0,2-.06,3.22-1.77,3.49a1,1,0,0,0-.85,1h8.65A1,1,0,0,0,423.35,165.61Z"/><rect class="cls-67" x="466.24" y="150.57" width="17.32" height="11.55" rx="0.58"/><polygon class="cls-8" points="477.78 154.66 477.78 158.02 474.9 159.71 474.9 156.34 477.78 154.66"/><polygon class="cls-9" points="477.78 154.66 474.9 156.35 472.01 154.66 474.9 152.98 477.78 154.66"/><polygon class="cls-10" points="474.9 156.35 474.9 159.71 472.01 158.02 472.01 154.66 474.9 156.35"/><polygon class="cls-9" points="472.01 158.02 474.9 156.34 474.9 159.71 472.01 158.02"/><polygon class="cls-10" points="477.78 158.02 474.9 156.34 474.9 159.71 477.78 158.02"/><path class="cls-68" d="M478.37,165.61c-1.71-.27-1.78-1.5-1.78-3.49h-3.4c0,2-.05,3.22-1.77,3.49a1,1,0,0,0-.85,1h8.66A1,1,0,0,0,478.37,165.61Z"/><line class="cls-18" x1="291.17" y1="121.17" x2="576.83" y2="121.17"/><circle class="cls-69" cx="303.67" cy="91.17" r="5"/><circle class="cls-70" cx="318.67" cy="91.17" r="5"/><circle class="cls-71" cx="333.67" cy="91.17" r="5"/><circle class="cls-72" cx="303.67" cy="106.17" r="5"/><circle class="cls-73" cx="318.67" cy="106.17" r="5"/><circle class="cls-74" cx="333.67" cy="106.17" r="5"/><circle class="cls-75" cx="303.67" cy="76.17" r="5"/><circle class="cls-76" cx="318.67" cy="76.17" r="5"/><circle class="cls-77" cx="333.67" cy="76.17" r="5"/><circle class="cls-78" cx="358.67" cy="106.17" r="5"/><circle class="cls-79" cx="373.67" cy="106.17" r="5"/><circle class="cls-80" cx="388.67" cy="106.17" r="5"/><circle class="cls-81" cx="413.67" cy="91.17" r="5"/><circle class="cls-82" cx="428.67" cy="91.17" r="5"/><circle class="cls-83" cx="443.67" cy="91.17" r="5"/><circle class="cls-84" cx="413.67" cy="106.17" r="5"/><circle class="cls-85" cx="428.67" cy="106.17" r="5"/><circle class="cls-86" cx="443.67" cy="106.17" r="5"/><circle class="cls-87" cx="413.67" cy="76.17" r="5"/><circle class="cls-88" cx="468.67" cy="91.17" r="5"/><circle class="cls-89" cx="483.67" cy="91.17" r="5"/><circle class="cls-90" cx="498.67" cy="91.17" r="5"/><circle class="cls-91" cx="468.67" cy="106.17" r="5"/><circle class="cls-92" cx="483.67" cy="106.17" r="5"/><circle class="cls-93" cx="498.67" cy="106.17" r="5"/><rect class="cls-59" x="299.03" y="131.17" width="40" height="10"/><rect class="cls-58" x="354.22" y="131.17" width="40" height="10"/><rect class="cls-59" x="354.22" y="131.17" width="10" height="10"/><rect class="cls-58" x="409.22" y="131.17" width="40" height="10"/><rect class="cls-59" x="409.22" y="131.17" width="25" height="10"/><rect class="cls-58" x="464.22" y="131.17" width="40" height="10"/><rect class="cls-59" x="464.22" y="131.17" width="25" height="10"/><line class="cls-18" x1="347.54" y1="56.17" x2="347.54" y2="176.17"/><line class="cls-18" x1="401.42" y1="56.17" x2="401.42" y2="176.17"/><line class="cls-18" x1="455.29" y1="56.17" x2="455.29" y2="176.17"/><line class="cls-18" x1="511.83" y1="56.17" x2="511.83" y2="176.17"/><g id="ad94e297-0e86-4eaf-aac0-d146ee9aea65"><path class="cls-94" d="M313.87,35.34,308.73,30a2.45,2.45,0,0,1-.85.15,2.66,2.66,0,1,1,2.45-3.64h5.07v1.77h-5a4.51,4.51,0,0,1-.29.63l4.75,4.89,2.57-3.91V17.66H314l4.36-4.42,4.33,4.42h-3.46v9.58l6.5-9.92-6.55-6.56a1.15,1.15,0,0,0-1.61,0h0L301.68,26.61a1.15,1.15,0,0,0,0,1.61h0l15.87,15.87-5.67-5.67Z"/><path class="cls-95" d="M317.44,35.57V29.9l-2.57,3.93,1.89,2A1.88,1.88,0,0,1,317.44,35.57Z"/><path class="cls-95" d="M335,26.61l-9.3-9.29-6.5,9.92v8.35a2.25,2.25,0,0,1,.59.32l6.82-6.9a3,3,0,0,1-.34-.7h-5.12V26.54h5.2a2.64,2.64,0,1,1,2.45,3.64,2.58,2.58,0,0,1-.73-.11l-7.26,7.31a2.25,2.25,0,0,1,.11.68,2.66,2.66,0,0,1-5.32.21h0a2.44,2.44,0,0,1,.15-1l-1.89-1.89-2,3,5.67,5.67a1.14,1.14,0,0,0,1.59,0L335,28.22a1.13,1.13,0,0,0,0-1.6h0Z"/><path class="cls-58" d="M326.36,26.54h-5.2v1.77h5.12a2.67,2.67,0,0,1-.13-.79A2.37,2.37,0,0,1,326.36,26.54Z"/><path class="cls-58" d="M310.41,28.31h5V26.54h-5.07a2.46,2.46,0,0,1,.21,1A2.9,2.9,0,0,1,310.41,28.31Z"/><path class="cls-58" d="M320.82,37.38l7.26-7.31A2.62,2.62,0,0,1,326.62,29l-6.82,6.9A2.54,2.54,0,0,1,320.82,37.38Z"/><path class="cls-58" d="M316.81,35.85l-1.89-2L310.12,29a2.67,2.67,0,0,1-1.39,1l5.14,5.31,1.89,1.89A2.65,2.65,0,0,1,316.81,35.85Z"/><path class="cls-1" d="M322.65,17.66l-4.31-4.42L314,17.66h3.46V35.57a2.09,2.09,0,0,0-.63.28,2.59,2.59,0,0,0-1.05,1.44,2.64,2.64,0,0,0,5.06,1.53h0a2.79,2.79,0,0,0,.11-.76,2.25,2.25,0,0,0-.11-.68,2.49,2.49,0,0,0-1-1.47,2.25,2.25,0,0,0-.59-.32V17.66Zm-4.31,21.88a1.48,1.48,0,1,1,1.48-1.48h0a1.48,1.48,0,0,1-1.48,1.48Z"/><path class="cls-1" d="M310.12,28.94a4.51,4.51,0,0,0,.29-.63,2.67,2.67,0,0,0,.13-.79,2.46,2.46,0,0,0-.21-1,2.65,2.65,0,1,0-2.45,3.64,2.45,2.45,0,0,0,.85-.15A2.69,2.69,0,0,0,310.12,28.94Zm-2.24,0a1.48,1.48,0,1,1,1.47-1.49h0A1.47,1.47,0,0,1,308,29h-.07Z"/><path class="cls-1" d="M328.08,30.07a2.58,2.58,0,0,0,.73.11,2.66,2.66,0,1,0-2.45-3.64,2.46,2.46,0,0,0-.21,1,2.67,2.67,0,0,0,.13.79,3,3,0,0,0,.34.7A2.65,2.65,0,0,0,328.08,30.07Zm.73-4a1.47,1.47,0,1,1-.33,0A.92.92,0,0,1,328.81,26.07Z"/><path class="cls-96" d="M318.34,36.59a1.48,1.48,0,1,0,1.48,1.48h0a1.47,1.47,0,0,0-1.47-1.47Z"/><circle class="cls-96" cx="307.88" cy="27.52" r="1.47"/><path class="cls-96" d="M328.81,29a1.47,1.47,0,1,0-1.47-1.47h0A1.47,1.47,0,0,0,328.81,29Z"/></g></g><g id="Text"><path class="cls-97" d="M69.63,19.71h1.64A8.19,8.19,0,0,1,71,22.22c2.07.77,3.8,1.49,5.2,2.14l-1,1.62q-2.33-1.34-4.88-2.5A7.87,7.87,0,0,1,65.62,26a12.72,12.72,0,0,0-1.13-1.64,11.9,11.9,0,0,0,3.18-.87,3.09,3.09,0,0,0,1.58-1.38A5.66,5.66,0,0,0,69.63,19.71ZM65.89,23v-4l-.15.12a17.18,17.18,0,0,0-1.21-1.31,19.92,19.92,0,0,0,3.78-3.51h2c-.19.29-.4.57-.62.85h4v1.29l-1.45,1.3H75V23H73.33V19.22H67.49V23Zm1.42-5.23H70.1l1.36-1.23H68.52C68.14,17,67.74,17.41,67.31,17.81Z"/><path class="cls-97" d="M76.55,17.16h2.69v-.78h-2.3V15.26h2.3v-.87h1.52v.87h2.18v1.12H80.76v.78h2.53c0-.86-.05-1.79-.05-2.79h1.55c0,1,0,1.93,0,2.79h3.31V18.4H84.9c.06,1,.16,1.83.28,2.59a15.54,15.54,0,0,0,1.24-2.18l1.31.63a22.1,22.1,0,0,1-2.12,3.41q.39,1.2.69,1.2c.28,0,.44-.7.48-2.08a10.08,10.08,0,0,0,1.43.72c-.17,2.09-.74,3.14-1.7,3.14a2.3,2.3,0,0,1-2.08-1.6,16.1,16.1,0,0,1-1.26,1.22c-.24-.27-.52-.54-.82-.82l-1.25,0v1.24H79.62V24.74l-2.77.13-.17-1.41,2.94-.06v-.83H77V21.26a6.67,6.67,0,0,0,.74-1h-1V19.1h1.61l.28-.54h1.7l-.32.54H83v1.17H79.35c-.25.4-.51.78-.77,1.13h1v-.68H81.1v.68h1.77v1.17H81.1v.78c.67,0,1.27-.05,1.82-.09a1.5,1.5,0,0,0,0,.29c.35-.31.68-.63,1-1a25.39,25.39,0,0,1-.53-4.18H76.55Zm9.81-2.77c.43.47.9,1,1.42,1.73l-1.35.8a18.2,18.2,0,0,0-1.26-1.82Z"/><path class="cls-97" d="M88.83,25.1l-.3-1.77L89.85,23V19H88.76V17.41h1.09v-3h1.59v3h1v.82a14.94,14.94,0,0,0,1.72-3.93l1.6.18c-.15.5-.31,1-.48,1.46h4.5l-.1,5-.1,2.84a2.32,2.32,0,0,1-.44,1.41,1.55,1.55,0,0,1-1.06.55c-.43.05-1.3.08-2.61.1-.09-.5-.23-1.09-.41-1.78q1.17.09,2,.09a1,1,0,0,0,.62-.19.89.89,0,0,0,.28-.69c0-.33,0-1,.06-2l.08-3.91H94.63a16.86,16.86,0,0,1-1.19,2.18c-.3-.27-.65-.56-1-.86V19h-1v3.54l1.22-.37c0,.35,0,.91,0,1.69C91,24.37,89.73,24.77,88.83,25.1ZM93.46,24l-.41-1.72q2.16-.76,4.57-1.75c0,.62.07,1.19.12,1.7Q95.67,23,93.46,24ZM95,18.07c.69.54,1.34,1.09,1.94,1.66l-1.09,1.08c-.63-.64-1.25-1.22-1.85-1.74Z"/><path class="cls-97" d="M102.71,17.6l1.12.81c-.3.5-.6,1-.91,1.45v6.06h-1.3V21.63c-.22.27-.45.53-.67.79a14.15,14.15,0,0,0-.54-1.57A21.64,21.64,0,0,0,102.71,17.6Zm-.06-3.21,1.2.88c-.77,1-1.6,2.06-2.51,3.08-.28-.46-.58-.91-.89-1.34A16.39,16.39,0,0,0,102.65,14.39Zm5.51.87v1.06l-.53.76h1v4.4H107c0,.19,0,.37,0,.54h2.14v1.15h-2.25l1.75,1.12-.15.2,1.13.05c.35,0,.52-.21.52-.62V19.83h-1V18.4h3.15v1.43h-.67V24.2a1.89,1.89,0,0,1-.29,1.16,1.05,1.05,0,0,1-.84.42c-.37,0-.93,0-1.69,0q-.12-.54-.3-1.29l-.7.92q-.13-.15-1.44-1.23a5.88,5.88,0,0,1-2.38,1.73c-.14-.3-.4-.75-.76-1.35a3.66,3.66,0,0,0,2.12-1.4h-1.78V22h2.11c0-.17,0-.35,0-.54h-1.77V17.54c-.19-.14-.37-.28-.57-.41a12.91,12.91,0,0,0,1.82-2.76l1.3.18-.37.71Zm-3.25,1.82h1.33l.55-.77h-1.37C105.25,16.58,105.08,16.84,104.91,17.08Zm.1,1.77h.75v-.77H105Zm0,1.62h.75v-.76H105Zm2.5-2.39h-.75v.77h.75Zm0,2.39v-.76h-.75v.76Zm1.7-5.39H112v1.43h-2.83Z"/><path class="cls-97" d="M118.83,25.85v-3.8h2.44a5.53,5.53,0,0,1-2.89-1.41,5.38,5.38,0,0,1-3.14,1.41h2.68v3.82h-1.36v-.44H114.7v.44h-1.36V22.3a4.41,4.41,0,0,1-.52,0,8.36,8.36,0,0,0-.24-1.19c2.4-.06,3.86-.4,4.36-1h-4.21V18.94h4.77a3.5,3.5,0,0,0,.08-.59h1.64c0,.21,0,.4-.08.59h1.58l-.19-.46,1.5-.19.27.65h1.77v1.19h-4.61c.83.65,2.42,1,4.75,1-.13.44-.23.84-.3,1.21-.16,0-.33,0-.48,0v3.54h-1.36v-.44h-1.88v.42Zm-5.49-11h4.59v3.3h-4.59Zm3.22,8.38H114.7v1h1.86ZM116.5,17v-.91h-1.73V17Zm2.35-2.11h4.58v3.3h-4.58Zm3.22,8.38h-1.88v1h1.88ZM122,17v-.91h-1.71V17Z"/><path class="cls-97" d="M353,18.87c.59.22,1.08.38,1.47.49-.21.94-.5,1.45-.89,1.52a5,5,0,0,1-1.48.17h-2.73q-1.69,0-1.77-1.44l-1.7.09v1.88l.86-.46c.26.44.65,1.12,1.17,2.06V21.32h1.59v3h1v-3h1.59v2c.32-.58.68-1.28,1.07-2.12,0,0,.43.19,1.22.58-.52,1-.93,1.71-1.22,2.19l-1.07-.54v.9h2.66v1.24H345.6V24.33h2.3v-1c-.72.38-1.09.57-1.1.56-.15-.3-.47-.9-.95-1.8A7.4,7.4,0,0,1,344.61,26c-.4-.34-.85-.68-1.34-1a6.73,6.73,0,0,0,1.05-4V16.62h3.59V14.38h1.59v.67H354v1.1H349.5v.47h5.43l-.27,2.21L353,18.65l.12-.79h-7.29v.79l1.7-.1v-.48h1.55v.4l3-.16,0,1-3,.18c0,.3.22.45.61.45h2.16c.59,0,.91-.1,1-.29A7.57,7.57,0,0,0,353,18.87Z"/><path class="cls-97" d="M355.48,16.61h1.16V14.44h1.52v2.17h.89v1.5h-.89v1.8l.93-.15c0,.61,0,1.12,0,1.55l-.94.15v2.92a1.59,1.59,0,0,1-.29,1,1.14,1.14,0,0,1-.86.42c-.37,0-.83.06-1.35.07a9.83,9.83,0,0,0-.37-1.54l.75,0a.79.79,0,0,0,.5-.11.6.6,0,0,0,.1-.44V21.75l-1.16.25-.19-1.68,1.35-.17v-2h-1.16ZM361,14.85v6.56c.4-.27,1-.75,1.93-1.43,0,.7.09,1.27.14,1.72-1.53,1.11-2.61,1.93-3.26,2.49l-.93-1.29a2,2,0,0,0,.59-1.53V14.85Zm3.46-.14H366c0,2.24-.06,3.84-.14,4.79a11.05,11.05,0,0,1-.48,2.46L367,23.9l-.83,1.85c-.35-.55-.87-1.3-1.53-2.25A10.54,10.54,0,0,1,361.73,26c-.31-.39-.68-.81-1.12-1.28a11.42,11.42,0,0,0,2.16-1.58,4.69,4.69,0,0,0,1.1-1.6,6.72,6.72,0,0,0,.43-2C364.36,18.77,364.41,17.16,364.45,14.71Zm-1.84.49c.34.69.78,1.71,1.31,3.07l-1.41.55a32.54,32.54,0,0,0-1.22-3.12Z"/><path class="cls-97" d="M370.47,16.77l1,2.13q.47-1,.87-2.19l.79.37.63-.29.95,2.06c.29-.7.57-1.43.84-2.18l1.27.53c-.4,1.18-.84,2.3-1.32,3.38l1.23,2.74-1.32.66-.71-1.71c-.38.75-.77,1.47-1.19,2.18l-.52-.4-.63.32-.9-2.16a24.34,24.34,0,0,1-1.42,2.37c-.19-.19-.43-.39-.71-.63V25.9H367.8v-11h10.65v9a2.41,2.41,0,0,1-.35,1.4,1.34,1.34,0,0,1-1,.57,22.74,22.74,0,0,1-2.32.08,14.07,14.07,0,0,0-.37-1.64,15.81,15.81,0,0,0,1.69.08.65.65,0,0,0,.75-.73V16.33h-7.51v1Zm-1.1.81v5.35a25.46,25.46,0,0,0,1.38-2.42C370.28,19.49,369.83,18.51,369.37,17.58Zm3.79,1c-.27.69-.56,1.36-.86,2l.82,1.75c.3-.58.6-1.17.89-1.8Z"/><path class="cls-97" d="M381.06,18.1l.71,0c.3-.53.61-1.13.93-1.81l1.39.63c-.78,1.34-1.59,2.73-2.44,4.15l1.83-.26c-.06.52-.09,1-.1,1.45-1.61.21-2.72.39-3.34.54l-.45-1.31a10.49,10.49,0,0,0,1.4-2c-.44,0-.86.07-1.24.12l-.44-1.33a16.92,16.92,0,0,0,2-3.83l1.45.56C382.21,16,381.64,17.07,381.06,18.1Zm-1.47,7.21-.27-1.64c1-.1,2.45-.3,4.44-.61q-.08,1-.06,1.62Q381.09,25,379.59,25.31Zm4.23-7.69a16.8,16.8,0,0,0,2.25-3.23l1.58.26c-.18.32-.36.63-.55.91h3.36V17a7.16,7.16,0,0,1-1.84,2.18,12.83,12.83,0,0,0,2.37.59,14.92,14.92,0,0,0-.35,1.52,14.07,14.07,0,0,1-3.46-1.18,18.6,18.6,0,0,1-3.42,1.2,12.57,12.57,0,0,0-.59-1.39,17.3,17.3,0,0,0,2.66-.76,8.57,8.57,0,0,1-.76-.82l-.5.5C384.38,18.47,384.13,18.07,383.82,17.62Zm.34,8.37V21.26h6V26h-1.52v-.54h-3V26Zm4.52-3.27h-3V24h3Zm-2.45-5.78-.23.3a5.37,5.37,0,0,0,1.18,1.2,4.48,4.48,0,0,0,1.45-1.5Z"/><path class="cls-97" d="M403.86,24.38h-2L398,18.51a6,6,0,0,1-.43-.74h0c0,.32.05.8.05,1.45v5.16h-1.83V15.31h2.11l3.7,5.7q.38.57.45.72h0a8.25,8.25,0,0,1-.06-1.25V15.31h1.84Z"/><path class="cls-97" d="M413.85,24.38h-2.11l-.68-2.08h-3.29l-.67,2.08H405l3.32-9.07h2.28Zm-3.24-3.57-1-3.15a3,3,0,0,1-.14-.79h-.06a2.85,2.85,0,0,1-.16.77l-1,3.17Z"/><path class="cls-97" d="M420.37,16.89h-2.59v7.49h-1.94V16.89h-2.58V15.31h7.11Z"/><path class="cls-98" d="M343.43,30.75h1.18V28.59h1.54v2.16H347v1.5h-.85V34l.75-.21a13,13,0,0,0,0,1.59l-.78.21v2.93a1.89,1.89,0,0,1-.11.71,1.07,1.07,0,0,1-.32.47,1.26,1.26,0,0,1-.46.24,10.83,10.83,0,0,1-1.64.12,11.67,11.67,0,0,0-.3-1.56c.26,0,.49,0,.7,0a.68.68,0,0,0,.47-.13.59.59,0,0,0,.12-.42V36l-1.08.31-.27-1.66,1.35-.28V32.25h-1.18Zm11.44,3.81h-1.06a7,7,0,0,1-1.38,2.92c.76.4,1.57.85,2.44,1.35l-.94,1.36c-.87-.6-1.73-1.14-2.58-1.65a9.06,9.06,0,0,1-3.85,1.66,10.78,10.78,0,0,0-.87-1.48,9.75,9.75,0,0,0,3.17-1.06c-.75-.41-1.49-.77-2.21-1.1a16.23,16.23,0,0,0,1-2h-1.39v-1.4h1.91c.15-.47.3-1,.43-1.47l1.59.44-.39,1h4.12Zm-5.19-5.74,1.73-.34.48,1.35h2.72v2.58H353V31.26H349v1.1h-1.57V29.83h2.68C349.92,29.39,349.79,29.06,349.68,28.82Zm-.2,7.18c.47.22,1,.46,1.52.74a4.52,4.52,0,0,0,1.15-2.18h-2Q349.83,35.36,349.48,36Z"/><path class="cls-98" d="M357.82,40h-1.45V36.3h3.37l.22-.68h-4.51v-1.1h11.34v1.1h-5.44l-.23.68h4.78v2.48a1.15,1.15,0,0,1-1.29,1.31h-1.17c-.06-.46-.12-.92-.2-1.35l.81,0c.27,0,.41-.17.41-.49v-.89h-1.27v2.36h-1.42V37.38h-1.26v2.36h-1.42V37.38h-1.27Zm-2.12-9.46h4.7v-.5h-4.18V29H366v1.11h-4.19v.5h4.7V33h-1.29V31.63h-3.41v2.56H360.4V31.63H357V33H355.7Zm1.13,2.73h3.05V34h-3.05Zm.47-1.2h2.58v.73H357.3Zm5.08,0h2.56v.73h-2.56Zm0,1.2h3V34h-3Z"/><path class="cls-98" d="M376.26,32.56V29.62h1.64v4.49H374V38h2.68V35.13h1.64v5h-1.64v-.55h-8.75V35.13h1.64V38h2.67V34.11h-3.89V29.62H370v2.94h2.25v-4H374v4Z"/><path class="cls-98" d="M382.9,32.35l1.71.34-1.09,4.57,1-.15c0,.73-.07,1.29-.08,1.68-1.63.27-3.24.55-4.85.85l-.26-1.78,2.71-.37C382.34,35.93,382.63,34.22,382.9,32.35Zm-3.47-1.78h2.07c-.26-.62-.5-1.12-.72-1.53l1.61-.56c.24.41.56,1,.95,1.76l-.92.33h2.51V32.1h-5.5Zm1.74,2c.27,1.11.57,2.51.88,4.21l-1.55.3c-.23-1.39-.5-2.8-.83-4.22ZM391,30.51V32h-2.69V33.8h2.21v6.28H388.9v-.65h-2.53v.7H384.8V33.8h1.77V28.53h1.69v2Zm-2.05,4.86h-2.53v2.49h2.53Z"/><path class="cls-98" d="M395.37,36.24a3.77,3.77,0,0,0,2.49.91,2.12,2.12,0,0,0,1.19-.27.8.8,0,0,0,.4-.7,1,1,0,0,0-.32-.7,5.91,5.91,0,0,0-1.67-.89c-1.41-.6-2.12-1.47-2.12-2.62a2.3,2.3,0,0,1,1-2,4.21,4.21,0,0,1,2.55-.7,6.25,6.25,0,0,1,2.23.35v1.81a3.71,3.71,0,0,0-2.13-.62,2.25,2.25,0,0,0-1.15.26.8.8,0,0,0-.42.7.88.88,0,0,0,.29.65,5.44,5.44,0,0,0,1.45.8A4.8,4.8,0,0,1,401,34.48a2.44,2.44,0,0,1,.5,1.53,2.33,2.33,0,0,1-.92,2,4.35,4.35,0,0,1-2.63.69,5.63,5.63,0,0,1-2.56-.51Z"/><path class="cls-98" d="M411.09,38.53h-2l-3.85-5.87a6.88,6.88,0,0,1-.43-.74h0a13.17,13.17,0,0,1,.05,1.45v5.16H403V29.45h2.11l3.7,5.71q.38.57.45.72h0a8.43,8.43,0,0,1-.06-1.25V29.45h1.84Z"/><path class="cls-98" d="M421.08,38.53H419l-.68-2.08H415l-.67,2.08h-2.1l3.32-9.08h2.28ZM417.84,35l-1-3.15a3,3,0,0,1-.14-.79h-.06a3.39,3.39,0,0,1-.15.77l-1,3.17Z"/><path class="cls-98" d="M427.6,31H425v7.49h-1.94V31h-2.58V29.45h7.11Z"/><path class="cls-97" d="M106.18,151.41l-3.34,9.23h-1.31l-3.28-9.23h1.31l2.45,7.21a4.46,4.46,0,0,1,.18.83h0a3.44,3.44,0,0,1,.21-.84l2.5-7.2Z"/><path class="cls-97" d="M115.67,160.64v-6.11c0-.51,0-1.11.09-1.82h0a5.08,5.08,0,0,1-.27.93l-3,7h-.65l-3-6.95a5.93,5.93,0,0,1-.27-1h0c0,.43.06,1,.06,1.87v6.06h-1.12v-9.23H109l2.69,6.33a7.85,7.85,0,0,1,.41,1.13h0c.2-.57.35-1,.43-1.16l2.73-6.3h1.52v9.23Z"/><path class="cls-97" d="M162.65,151.41l-3.35,9.23H158l-3.28-9.23H156l2.45,7.21a4.46,4.46,0,0,1,.18.83h0a3.44,3.44,0,0,1,.21-.84l2.5-7.2Z"/><path class="cls-97" d="M172.13,160.64v-6.11c0-.51,0-1.11.09-1.82h0a5.08,5.08,0,0,1-.27.93l-3,7h-.66l-3-6.95a5.93,5.93,0,0,1-.27-1h0c0,.43.06,1,.06,1.87v6.06h-1.13v-9.23h1.6l2.68,6.33a7.85,7.85,0,0,1,.41,1.13h0l.43-1.16,2.74-6.3h1.51v9.23Z"/><path class="cls-97" d="M217.74,151.41l-3.35,9.23h-1.31l-3.28-9.23h1.31l2.45,7.21a4.46,4.46,0,0,1,.18.83h0a3.44,3.44,0,0,1,.21-.84l2.5-7.2Z"/><path class="cls-97" d="M227.22,160.64v-6.11c0-.51,0-1.11.09-1.82h0a5.08,5.08,0,0,1-.27.93l-3,7h-.66l-3-6.95a5.93,5.93,0,0,1-.27-1h0c0,.43.06,1,.06,1.87v6.06H219v-9.23h1.6l2.68,6.33a7.85,7.85,0,0,1,.41,1.13h0l.43-1.16,2.74-6.3h1.51v9.23Z"/><path class="cls-97" d="M272.74,151.41l-3.34,9.23h-1.31l-3.28-9.23h1.3l2.46,7.21a4.46,4.46,0,0,1,.18.83h0a3.92,3.92,0,0,1,.2-.84l2.5-7.2Z"/><path class="cls-97" d="M282.23,160.64v-6.11c0-.51,0-1.11.09-1.82h0a5.08,5.08,0,0,1-.27.93l-3,7h-.65l-3-6.95a5.93,5.93,0,0,1-.27-1h0c0,.43.06,1,.06,1.87v6.06H274v-9.23h1.59l2.69,6.33a9.32,9.32,0,0,1,.41,1.13h0c.2-.57.34-1,.43-1.16l2.73-6.3h1.52v9.23Z"/><path class="cls-97" d="M328.67,151.41l-3.35,9.23H324l-3.29-9.23H322l2.45,7.21a3.78,3.78,0,0,1,.18.83h0a4,4,0,0,1,.21-.84l2.5-7.2Z"/><path class="cls-97" d="M338.15,160.64v-6.11c0-.51,0-1.11.09-1.82h0a5.08,5.08,0,0,1-.27.93l-3,7h-.66l-3-6.95a4.83,4.83,0,0,1-.28-1h0c0,.43.06,1,.06,1.87v6.06h-1.13v-9.23h1.6l2.69,6.33a7.57,7.57,0,0,1,.4,1.13h0l.43-1.16,2.74-6.3h1.52v9.23Z"/><path class="cls-97" d="M385.12,151.41l-3.35,9.23h-1.31l-3.28-9.23h1.31l2.45,7.21a4.46,4.46,0,0,1,.18.83h0a3.44,3.44,0,0,1,.21-.84l2.5-7.2Z"/><path class="cls-97" d="M394.6,160.64v-6.11c0-.51,0-1.11.09-1.82h0a5.08,5.08,0,0,1-.27.93l-3,7h-.65l-3-6.95a5.93,5.93,0,0,1-.27-1h0c0,.43.06,1,.06,1.87v6.06h-1.13v-9.23H388l2.68,6.33a7.85,7.85,0,0,1,.41,1.13h0c.2-.57.35-1,.43-1.16l2.73-6.3h1.52v9.23Z"/><path class="cls-97" d="M440.08,151.41l-3.35,9.23h-1.3l-3.29-9.23h1.31l2.45,7.21a3.28,3.28,0,0,1,.18.83h0a4,4,0,0,1,.21-.84l2.5-7.2Z"/><path class="cls-97" d="M449.57,160.64v-6.11c0-.51,0-1.11.08-1.82h0a5.08,5.08,0,0,1-.27.93l-3,7h-.65l-3-6.95a5.62,5.62,0,0,1-.28-1h0c0,.43.06,1,.06,1.87v6.06h-1.12v-9.23h1.59l2.69,6.33a7.57,7.57,0,0,1,.4,1.13h0l.43-1.16,2.74-6.3h1.52v9.23Z"/><path class="cls-97" d="M495.26,151.41l-3.34,9.23h-1.31l-3.28-9.23h1.3l2.46,7.21a4.46,4.46,0,0,1,.18.83h0a3.92,3.92,0,0,1,.2-.84l2.5-7.2Z"/><path class="cls-97" d="M504.75,160.64v-6.11c0-.51,0-1.11.09-1.82h0a5.08,5.08,0,0,1-.27.93l-3,7h-.65l-3-6.95a5.93,5.93,0,0,1-.27-1h0c0,.43.06,1,.06,1.87v6.06h-1.12v-9.23h1.59l2.69,6.33a7.85,7.85,0,0,1,.41,1.13h0c.2-.57.34-1,.43-1.16l2.73-6.3h1.52v9.23Z"/><path class="cls-97" d="M24.28,89.94a14.83,14.83,0,0,0,4.14-4.74l.83.46A16.52,16.52,0,0,1,25,90.75,5,5,0,0,0,24.28,89.94Zm1.6.39H33.7c0,1.35-.1,2.67-.18,4-.09,1.49-.78,2.23-2.08,2.22q-.95,0-2-.06c-.05-.34-.1-.67-.16-1a17,17,0,0,0,2,.14c.78,0,1.22-.45,1.29-1.39s.11-1.85.15-3H29.11a7.79,7.79,0,0,1-.82,3.2,5.82,5.82,0,0,1-3,2.47,9.79,9.79,0,0,0-.67-.8,5.37,5.37,0,0,0,2.81-2.14,6.08,6.08,0,0,0,.71-2.73H25.88Zm4.87-5L31.6,85a8.92,8.92,0,0,0,4.54,4.77,7.45,7.45,0,0,0-.77.91A10.72,10.72,0,0,1,30.75,85.38Z"/><path class="cls-97" d="M36.9,88.16h1.61V86.6h-2v-.78h6.23v.78h-2v1.56h1.7v8.5h-.79V95.9h-4v.78H36.9Zm3.16,2.68V88.92h-.8v.48a5,5,0,0,1-1,3.16l-.6-.59v1h4V91.82H40.9C40.34,91.82,40.06,91.49,40.06,90.84Zm-2.37,1a3.74,3.74,0,0,0,.82-2.55v-.42h-.82Zm0,3.25h4V93.71h-4Zm1.57-7h.8V86.6h-.8Zm2.47.76h-.91v1.66c0,.36.13.52.43.5h.48Zm1.65.73H46.5v-3.1H43.18v-.83h4.17V91H46.5v-.47H44.23V94.6c0,.63.26,1,.8,1h1.12a.72.72,0,0,0,.78-.71,13.08,13.08,0,0,0,.22-1.93c.21.11.51.25.88.4-.06.64-.14,1.25-.25,1.83A1.35,1.35,0,0,1,46.3,96.4H44.78c-.93,0-1.4-.56-1.4-1.68Z"/><path class="cls-97" d="M26.42,142.7h-.89v-3.9h3.83l.19-.93H24.42v-.74H36v.74H30.47l-.24.93H35v2.66a1,1,0,0,1-1.17,1.18c-.37,0-.78,0-1.23,0a6.81,6.81,0,0,0-.17-.92,11,11,0,0,0,1.14.07c.36,0,.53-.15.53-.47v-1.76H32v2.83H31.2v-2.83h-2v2.83h-.83v-2.83h-2ZM24.82,133h5v-.69H25.41v-.74h9.5v.74H30.62V133h5v2.21h-.91v-1.47H30.62v2.83h-.84v-2.83H25.73v1.47h-.91Zm1.58,1.43h2.76v.64H26.4Zm0,1.33h2.76v.65H26.4Zm4.84-1.33H34v.64H31.24Zm0,1.33H34v.65H31.24Z"/><path class="cls-97" d="M36.59,133.18h5.17V131h1v2.16h5.14V134H42.75v.74a12.4,12.4,0,0,0,1.36,2.43,20.86,20.86,0,0,0,2.31-2.38l.83.7c-1,1-1.82,1.77-2.56,2.41a10.83,10.83,0,0,0,3.37,2.67,9.81,9.81,0,0,0-.7.92,11.84,11.84,0,0,1-4.61-4.81v4.37a1.38,1.38,0,0,1-1.59,1.54l-1.57,0c0-.33-.11-.68-.18-1.06a13.64,13.64,0,0,0,1.51.1.76.76,0,0,0,.84-.87v-2.25c-1.85,1-3.46,1.84-4.84,2.62l-.5-1q2.46-1.15,5.34-2.75V134H36.59Zm1.73,1.57c.63.63,1.27,1.33,1.92,2.11l-.81.66c-.55-.72-1.15-1.45-1.81-2.19Zm5.51-3.1.56-.63a14.57,14.57,0,0,1,1.78,1.3l-.64.71C45.07,132.62,44.5,132.16,43.83,131.65Z"/><path class="cls-97" d="M532,90a14.59,14.59,0,0,0,4.14-4.74l.84.46a16.57,16.57,0,0,1-4.3,5.09A5,5,0,0,0,532,90Zm1.6.39h7.82c0,1.35-.1,2.67-.17,4-.1,1.48-.79,2.22-2.09,2.21q-.95,0-2-.06c-.05-.33-.1-.67-.16-1a15.25,15.25,0,0,0,2,.14c.78,0,1.22-.45,1.29-1.39s.11-1.85.15-3h-3.62a7.84,7.84,0,0,1-.82,3.21,5.78,5.78,0,0,1-3,2.46c-.2-.27-.43-.53-.67-.8A5.33,5.33,0,0,0,535.11,94a6.08,6.08,0,0,0,.71-2.73h-2.26Zm4.87-5,.85-.37a8.85,8.85,0,0,0,4.54,4.77,8.3,8.3,0,0,0-.77.91A10.64,10.64,0,0,1,538.43,85.44Z"/><path class="cls-97" d="M544.58,88.22h1.61V86.66h-2v-.78h6.23v.78h-2v1.56h1.7v8.51h-.78V96h-4v.78h-.79Zm3.16,2.68V89h-.8v.47a5,5,0,0,1-1,3.16l-.6-.59v1h4V91.88h-.84C548,91.88,547.74,91.55,547.74,90.9ZM545.37,92a3.75,3.75,0,0,0,.82-2.56V89h-.82Zm0,3.24h4V93.77h-4Zm1.57-7h.8V86.66h-.8Zm2.48.77h-.92v1.65c0,.36.13.53.43.5h.49Zm1.64.72h3.12V86.62h-3.32v-.84H555V91h-.85v-.46h-2.27v4.12c0,.62.26.94.8.94h1.12a.71.71,0,0,0,.78-.7,13.41,13.41,0,0,0,.22-1.93c.21.11.51.24.88.39-.06.64-.14,1.25-.25,1.83A1.35,1.35,0,0,1,554,96.47h-1.52c-.93,0-1.4-.56-1.4-1.68Z"/><path class="cls-97" d="M534.1,141.76h-.89v-3.91H537l.2-.93H532.1v-.74h11.58v.74h-5.53l-.24.93h4.72v2.67a1,1,0,0,1-1.17,1.18l-1.23,0a5.26,5.26,0,0,0-.17-.91c.47,0,.85.07,1.15.07s.52-.16.52-.48v-1.76h-2v2.83h-.83v-2.83h-2v2.83h-.83v-2.83h-2Zm-1.6-9.7h5v-.69h-4.37v-.74h9.5v.74H538.3v.69h5v2.22h-.91V132.8H538.3v2.84h-.84V132.8h-4.05v1.48h-.91Zm1.58,1.43h2.76v.64h-2.76Zm0,1.33h2.76v.65h-2.76Zm4.84-1.33h2.77v.64h-2.77Zm0,1.33h2.77v.65h-2.77Z"/><path class="cls-97" d="M544.27,132.23h5.17v-2.16h1v2.16h5.14v.86h-5.14v.73a12.94,12.94,0,0,0,1.36,2.43,19.32,19.32,0,0,0,2.31-2.38l.83.7c-1,1-1.82,1.78-2.56,2.41a10.83,10.83,0,0,0,3.37,2.67,8.68,8.68,0,0,0-.7.93,12,12,0,0,1-4.61-4.81v4.37q0,1.53-1.59,1.53l-1.57,0c0-.33-.11-.68-.18-1.06a14.2,14.2,0,0,0,1.51.11.76.76,0,0,0,.84-.87v-2.25q-2.78,1.44-4.84,2.62l-.5-1q2.46-1.16,5.34-2.75v-3.38h-5.17ZM546,133.8c.63.63,1.27,1.33,1.92,2.11-.24.21-.51.43-.81.67-.55-.73-1.15-1.46-1.81-2.2Zm5.51-3.1.56-.63a14.57,14.57,0,0,1,1.78,1.3l-.64.72C552.75,131.67,552.18,131.21,551.51,130.7Z"/><path class="cls-98" d="M76.11,36.3c-.32.46-.61.9-.87,1.3a11.1,11.1,0,0,1-1.74-1.18v.76H71.07v.72h4.21v1.23h-10V37.9h4.22v-.72H67v-.71a12.54,12.54,0,0,1-1.7,1.13c-.22-.36-.52-.79-.88-1.29a8.29,8.29,0,0,0,2.48-1.38H64.56V33.7h2V30.14H64.9V28.91h1.7v-1h1.6v1h4.15v-1h1.59v1h1.7v1.23h-1.7V33.7h2v1.23H73.66A9.63,9.63,0,0,0,76.11,36.3Zm-6.64-1.15h1.6V36H73a12.85,12.85,0,0,1-1-1H68.61a11.43,11.43,0,0,1-1,1h1.91ZM68.2,30.72h4.15v-.58H68.2Zm0,1.5h4.15v-.58H68.2Zm0,1.48h4.15v-.59H68.2Z"/><path class="cls-98" d="M76.58,32.58h5V30.26H77.45V28.59h9.7v1.67H83.31v2.32H88v1.66H83.31v2.57a2.74,2.74,0,0,1-.48,1.76,1.71,1.71,0,0,1-1.39.61c-.61,0-1.43,0-2.47,0-.11-.59-.25-1.18-.42-1.78a19.27,19.27,0,0,0,2,.1.86.86,0,0,0,1-1V34.24h-5Z"/><path class="cls-98" d="M98.25,37.9H92.92V28.83h1.94v7.49h3.39Z"/><path class="cls-98" d="M99.5,37.9V28.83h3.22a3.88,3.88,0,0,1,2.28.56,1.78,1.78,0,0,1,.81,1.56,1.88,1.88,0,0,1-.5,1.29,2.57,2.57,0,0,1-1.25.77v0a2.55,2.55,0,0,1,1.53.71,2,2,0,0,1,.58,1.47,2.4,2.4,0,0,1-.88,2,3.62,3.62,0,0,1-2.4.73Zm1.93-7.63v2.24h.92a1.52,1.52,0,0,0,1-.32,1.06,1.06,0,0,0,.38-.88c0-.7-.5-1-1.52-1Zm0,3.7v2.49h1.15a1.71,1.71,0,0,0,1.14-.34,1.15,1.15,0,0,0,.42-.94,1.06,1.06,0,0,0-.41-.89,1.91,1.91,0,0,0-1.17-.32Z"/><path class="cls-98" d="M111.46,31.17c.69.49,1.33,1,1.91,1.48l-1.14,1.21a24,24,0,0,0-1.82-1.59Zm.45,3.16a14,14,0,0,0,1.62.62c-.38,1.31-.84,2.79-1.38,4.46l-1.63-.54C111,37.44,111.5,35.93,111.91,34.33Zm-.33-6.28c.61.42,1.26.92,2,1.51l-1.07,1.2c-.64-.59-1.27-1.15-1.89-1.66Zm9.91,1.64q0,4.08-.15,4.74a1.72,1.72,0,0,1-.44,1,3,3,0,0,1-1.74.4c-.12-.52-.25-1-.4-1.54q.92,0,1-.12a11.91,11.91,0,0,0,.12-2.56l-1.36.33v5.17H117v-4.8l-1.16.27v4.53c0,.45.21.68.65.68h2.85a1.11,1.11,0,0,0,.8-.24,3.93,3.93,0,0,0,.38-1.67c.53.23,1,.45,1.58.66a4.2,4.2,0,0,1-.79,2.16,1.82,1.82,0,0,1-1.28.47h-4c-1.18,0-1.77-.64-1.77-1.93V33l-.68.15-.34-1.51,1-.23V28.93h1.6V31l1.16-.27V27.89h1.59v2.48Z"/><path class="cls-98" d="M122.45,37.5h1.45V28.56h8.8V37.5h1.42V39H122.45ZM131,30.07H125.6v1.5H131Zm-5.43,4.45H131V33H125.6Zm0,3H131V36H125.6Z"/><path class="cls-98" d="M144.33,34.76a17.78,17.78,0,0,0,1.79.67c-.18,1-.34,1.66-.46,2.16a1.65,1.65,0,0,1-.81,1.09,3.45,3.45,0,0,1-1.71.36h-5.08c-1.67,0-2.51-.87-2.51-2.62v-5h1.74v1.14H143V30.07h-7.73V28.46h9.47v5.69h-7.41v2.11c0,.78.37,1.18,1.11,1.18h4.37a2,2,0,0,0,.88-.17.78.78,0,0,0,.42-.61C144.13,36.37,144.21,35.74,144.33,34.76Z"/><path class="cls-98" d="M151.39,32.31l-.37,3.9H150l.24-2.45h-.8V38a1.23,1.23,0,0,1-1.27,1.42c-.28,0-.71,0-1.31,0-.09-.48-.19-1-.31-1.51l.72,0c.43,0,.65-.23.65-.68V33.76h-1.45V32.31H148l-1.41-1,.83-1c.41.33.83.68,1.24,1l1-1.38h-3V28.52h4.62V30l-1.57,2.29ZM154,33h1.47v.34a11.88,11.88,0,0,1-.28,2.91c1.07.74,2,1.47,2.93,2.2L157,39.6a26,26,0,0,0-2.4-2.06,7.59,7.59,0,0,1-2.71,2.07c-.33-.5-.65-1-1-1.37a5.14,5.14,0,0,0,2.61-2,6.65,6.65,0,0,0,.45-2.9Zm-2.22,3.56V31h1.83l.19-1h-2.25V28.5h6.33V30h-2.5l-.22,1h2.52v5.62h-1.51V32.41H153.3v4.17Z"/><path class="cls-98" d="M170.2,32.22c-.32.41-.7.91-1.12,1.5-.29-.22-.57-.46-.84-.7-.1,2.5-.19,4-.25,4.52a1.75,1.75,0,0,1-.58,1.21,2,2,0,0,1-1.37.42q-1.22,0-2.28,0c-.07-.65-.15-1.24-.25-1.77,1,.08,1.75.13,2.21.13a.48.48,0,0,0,.51-.36,22.59,22.59,0,0,0,.18-3h-2.9a7.79,7.79,0,0,1-.47,2.53,4.61,4.61,0,0,1-1.17,1.59,7.34,7.34,0,0,1-2,1.23,15.14,15.14,0,0,0-1.22-1.49,7.81,7.81,0,0,0,1.72-.92,3.21,3.21,0,0,0,1-1.08,5.18,5.18,0,0,0,.4-1.86h-1.67v-.93l-.6.43a11.91,11.91,0,0,0-1.07-1.33,12.45,12.45,0,0,0,4-4.43l1.57.68a14.24,14.24,0,0,1-3.08,4h6.86a16.23,16.23,0,0,1-3-3.87l1.45-.75A12.92,12.92,0,0,0,170.2,32.22Z"/><path class="cls-98" d="M170.61,28.51h6.09v1.34H175v1h1.51V39.4H175.3v-.77h-3.13v.74h-1.24V30.86h1.51v-1h-1.83ZM172,34.26a3.9,3.9,0,0,0,.46-2.16H172Zm.87,1c-.23-.2-.45-.38-.67-.55v.8h3.13v-.69h-.24a.93.93,0,0,1-1-1.06V32.1h-.53A6.82,6.82,0,0,1,172.84,35.28Zm-.67,2.14h3.13v-.73h-3.13Zm1.33-6.56H174v-1h-.52Zm1.94,3h.08V32.1H175v1.31C175,33.7,175.17,33.85,175.44,33.85Zm5.25,1.55a13.44,13.44,0,0,0,1.49.54,16.87,16.87,0,0,1-.39,2.27,1.36,1.36,0,0,1-.53.78,1.74,1.74,0,0,1-1,.24h-1.52q-1.5,0-1.5-1.62V32.27H180V30.06h-2.95v-1.5h4.47v5.21h-2.78v3.46a.46.46,0,0,0,.51.53h.55a.57.57,0,0,0,.58-.33A8.74,8.74,0,0,0,180.69,35.4Z"/><path class="cls-98" d="M184.67,28l1.74.27-.53,1.59h2v2.29a22.05,22.05,0,0,0,1.8-4.18l1.62.43c-.17.52-.36,1-.55,1.52h3l-.13,6.74a5.31,5.31,0,0,1-.19,1.53,1.61,1.61,0,0,1-.47.71,1.86,1.86,0,0,1-.9.38,20.37,20.37,0,0,1-2.52.1,9.52,9.52,0,0,0-.44-1.77c.58,0,1.19.07,1.84.07a1.45,1.45,0,0,0,.49-.07.75.75,0,0,0,.34-.19.78.78,0,0,0,.18-.3,12.87,12.87,0,0,0,.07-1.44l.05-2.4c0-.74,0-1.35,0-1.81h-2c-.26.54-.53,1.08-.82,1.59a9.66,9.66,0,0,0-1.38-.72v7h-1.63v-.85h-1.67v.92H183V29.82h1.24C184.42,29.06,184.58,28.43,184.67,28Zm1.58,3.4h-1.67v2h1.67Zm-1.67,5.54h1.67v-2h-1.67Zm5.14-4.07c.56.68,1.16,1.49,1.81,2.45l-1.47,1a26.75,26.75,0,0,0-1.7-2.5Z"/><path class="cls-98" d="M203.46,31.93V29h1.64v4.49h-3.9v3.89h2.68V34.5h1.64v5h-1.64v-.55h-8.75V34.5h1.64v2.87h2.67V33.48h-3.89V29h1.64v2.94h2.25V28h1.76v4Z"/><path class="cls-98" d="M210.11,31.72l1.71.34-1.09,4.58,1-.16c0,.73-.07,1.29-.08,1.69-1.62.26-3.24.54-4.85.84l-.26-1.78,2.71-.37Q209.69,34.52,210.11,31.72Zm-3.47-1.78h2.07c-.27-.61-.51-1.12-.72-1.52l1.6-.57c.24.41.56,1,.95,1.76l-.92.33h2.51v1.53h-5.49Zm1.73,2c.28,1.11.57,2.51.88,4.21l-1.55.3c-.22-1.39-.5-2.79-.83-4.22Zm9.79-2.05v1.54h-2.7v1.75h2.22v6.28h-1.57V38.8h-2.53v.7H212V33.17h1.76V27.9h1.69v2Zm-2,4.86h-2.53v2.49h2.53Z"/><path class="cls-98" d="M222.58,35.62a3.81,3.81,0,0,0,2.49.9,2.16,2.16,0,0,0,1.19-.27.81.81,0,0,0,.39-.7,1,1,0,0,0-.31-.7,6.37,6.37,0,0,0-1.67-.89c-1.42-.6-2.13-1.47-2.13-2.62a2.31,2.31,0,0,1,1-2,4.33,4.33,0,0,1,2.56-.7,6.29,6.29,0,0,1,2.23.35v1.82a3.67,3.67,0,0,0-2.14-.63,2.19,2.19,0,0,0-1.14.26.8.8,0,0,0-.43.71.9.9,0,0,0,.29.64,5.33,5.33,0,0,0,1.45.8,4.8,4.8,0,0,1,1.86,1.23,2.39,2.39,0,0,1,.51,1.53,2.31,2.31,0,0,1-.93,2,4.33,4.33,0,0,1-2.63.69,5.7,5.7,0,0,1-2.55-.5Z"/><path class="cls-98" d="M238.29,37.9h-2L232.47,32a6.34,6.34,0,0,1-.44-.74h0a12.61,12.61,0,0,1,.06,1.45V37.9h-1.84V28.83h2.11l3.71,5.7.45.72h0a8.34,8.34,0,0,1-.06-1.25V28.83h1.83Z"/><path class="cls-98" d="M248.29,37.9h-2.11l-.68-2.08h-3.3l-.67,2.08h-2.1l3.33-9.07H245ZM245,34.33l-1-3.15a3.42,3.42,0,0,1-.14-.79h-.05a3.9,3.9,0,0,1-.16.77l-1,3.17Z"/><path class="cls-98" d="M254.8,30.41h-2.59V37.9h-1.94V30.41h-2.58V28.83h7.11Z"/><path class="cls-97" d="M28.27,186h1v1.6h7v-3H27.84v-.87h9.42v5.45h-1v-.72h-7v3.41c0,.71.34,1.07,1,1.07h5.78c.67,0,1.08-.24,1.22-.72a10.25,10.25,0,0,0,.31-1.91,7.94,7.94,0,0,0,1,.35,18.66,18.66,0,0,1-.35,1.94,1.78,1.78,0,0,1-2,1.32H30.06a1.6,1.6,0,0,1-1.79-1.84Z"/><path class="cls-97" d="M39.84,185.65l.59-.52c.28.25.55.5.8.75l1.25-1.51H39.17v-.81h4.38v.81l-1.73,2.1.39.41-.47.4h2.13v.79a18.72,18.72,0,0,1-.59,2.08l-.8-.27A11.82,11.82,0,0,0,43,188.1H41.82V193a1.17,1.17,0,0,1-1.31,1.33H39.27c0-.28-.1-.59-.17-.94a9.34,9.34,0,0,0,1.18.07q.66,0,.66-.75V188.1H39.06v-.82h2.3A20.23,20.23,0,0,0,39.84,185.65Zm7,1.58h.86V189a6.88,6.88,0,0,1-.35,2.35c1.23.81,2.35,1.61,3.35,2.39l-.64.76c-1-.81-2-1.6-3.07-2.38l-.23.34a8.15,8.15,0,0,1-3,2.14q-.37-.48-.66-.78a6.86,6.86,0,0,0,2.94-2,4.67,4.67,0,0,0,.78-2.91Zm-2.39-1.29h2l.29-1.6H44v-.82h6.65v.82h-3l-.34,1.6H50.1v5.75h-.85v-4.94h-4v4.94h-.85Z"/><path class="cls-97" d="M50.9,187.72A14.57,14.57,0,0,0,55,183.06l.83.46a16.3,16.3,0,0,1-4.27,5A6.18,6.18,0,0,0,50.9,187.72Zm1.59.38h7.79c0,1.33-.1,2.62-.18,3.88-.09,1.46-.78,2.18-2.07,2.18-.63,0-1.3,0-2-.06-.05-.33-.11-.66-.17-1a13.73,13.73,0,0,0,2,.14c.78,0,1.21-.44,1.29-1.36s.1-1.81.14-2.91H55.7a7.39,7.39,0,0,1-.81,3.14,5.78,5.78,0,0,1-3,2.42,8,8,0,0,0-.66-.78A5.33,5.33,0,0,0,54,191.64a5.85,5.85,0,0,0,.71-2.67H52.49Zm4.85-4.86.84-.36a8.79,8.79,0,0,0,4.52,4.68,9.48,9.48,0,0,0-.76.89A10.46,10.46,0,0,1,57.34,183.24Z"/><path class="cls-97" d="M63.49,186h1.6v-1.53h-2v-.77h6.21v.77H67.39V186h1.7v8.35H68.3v-.75h-4v.76h-.78Zm3.15,2.63v-1.88h-.8v.47a4.83,4.83,0,0,1-1,3.1l-.6-.57v1h4v-1.12h-.83C66.92,189.56,66.64,189.24,66.64,188.6Zm-2.37,1a3.65,3.65,0,0,0,.82-2.51v-.41h-.82Zm0,3.18h4v-1.4h-4ZM65.84,186h.8v-1.53h-.8Zm2.46.75h-.91v1.63c0,.35.13.51.43.49h.48Zm1.64.72h3.11v-3H69.74v-.82h4.15v5.13h-.84v-.46H70.78v4.05c0,.61.27.92.8.92h1.11a.72.72,0,0,0,.79-.69,14.28,14.28,0,0,0,.21-1.89,9.47,9.47,0,0,0,.88.38c-.06.64-.14,1.24-.25,1.8a1.33,1.33,0,0,1-1.47,1.24H71.34c-.93,0-1.4-.55-1.4-1.64Z"/><path class="cls-97" d="M74.87,188.52A18.19,18.19,0,0,0,77.64,183l.94.31a28.92,28.92,0,0,1-1.26,3v8.09h-.89v-6.48a15.08,15.08,0,0,1-1.17,1.65Q75.1,189.09,74.87,188.52Zm3.32,4.32h8.37v.8H78.19Zm1.06-9.09h6.33v7.93h-.92v-.76H80.17v.76h-.92Zm5.41.82H80.17v2.36h4.49Zm-4.49,5.53h4.49v-2.37H80.17Z"/><path class="cls-97" d="M98.53,192.65c-.22.26-.44.55-.66.86a12.16,12.16,0,0,1-4.74-4v4.89h-.91v-4.88a15.93,15.93,0,0,1-4.76,4.1q-.22-.32-.63-.78a15.31,15.31,0,0,0,5-4H87V188h5.2v-2.2H87.71v-.87h4.51v-2h.91v2h4.56v.87H93.13V188h5.2v.86H93.46A11.54,11.54,0,0,0,98.53,192.65Z"/><path class="cls-97" d="M98.81,188.62a19.08,19.08,0,0,0,2.44-5.67l.86.26a30.69,30.69,0,0,1-1,2.91v8.35h-.83v-6.62a16.45,16.45,0,0,1-1.07,1.7C99.05,189.22,98.93,188.91,98.81,188.62Zm4.08,1.94.78-.44a5.94,5.94,0,0,0,1.35,1.56,4.2,4.2,0,0,0,.58-1.94h-3v-3.22h3.16v-1.15H102v-.8h3.75V183h.9v1.58h3.79v.8h-3.79v1.15h3.15v3.72h-.89v-.5h-2.36a5.81,5.81,0,0,1-.71,2.45s0,0,0,0a10.42,10.42,0,0,0,4.7,1.23c-.24.34-.45.66-.65,1a11,11,0,0,1-4.67-1.52,9.1,9.1,0,0,1-3,1.62c-.18-.25-.38-.51-.61-.79a8.56,8.56,0,0,0,2.86-1.37A7,7,0,0,1,102.89,190.56Zm2.79-1.6q0-.56,0-1.65h-2.27V189Zm.9,0h2.29v-1.65h-2.26Q106.61,187.76,106.58,189Z"/><path class="cls-97" d="M116.38,194.26v-3.71H113a7.44,7.44,0,0,1-1.42,4q-.3-.39-.69-.81a6.25,6.25,0,0,0,1-2.38,19.14,19.14,0,0,0,.26-3.58v-4.17h9.55v9.29c0,.93-.44,1.39-1.33,1.39-.54,0-1.14,0-1.81,0,0-.25-.1-.58-.18-1,.68.05,1.23.08,1.65.08s.73-.24.73-.69v-2.15h-3.44v3.71ZM113,189.7h3.34v-2.18h-3.29C113.11,188.27,113.09,189,113,189.7Zm0-5.2v2.18h3.29V184.5Zm7.67,0h-3.44v2.18h3.44Zm-3.44,5.2h3.44v-2.18h-3.44Z"/><path class="cls-97" d="M123.22,184.88h1.18c.29-.71.53-1.36.72-1.94l1,.28c-.25.59-.48,1.15-.71,1.66h2.34v9.3h-.94v-.91h-2.63v1h-.94Zm3.57.87h-2.63v2.84h2.63Zm-2.63,6.64h2.63v-3h-2.63Zm3.74-5.12a17,17,0,0,0,1.87-4.33l1,.24c-.2.59-.4,1.14-.61,1.66h3.77q-.14,6-.23,7.56a1.71,1.71,0,0,1-1.93,1.84c-.71,0-1.44,0-2.17-.07a8.14,8.14,0,0,0-.19-1h0a15.33,15.33,0,0,0,2.14.16,1.05,1.05,0,0,0,1.15-1.12q.14-1.74.19-6.45h-3.14a15.08,15.08,0,0,1-1.06,2A5,5,0,0,0,127.9,187.27Zm1,.8.71-.53a33.54,33.54,0,0,1,2.07,2.65l-.86.61A31.11,31.11,0,0,0,128.94,188.07Z"/><path class="cls-97" d="M138.77,191.19a3.19,3.19,0,0,0,1.12.59,4,4,0,0,0,1.32.24c1.27,0,1.91-.45,1.91-1.36a1.16,1.16,0,0,0-.21-.68,1.93,1.93,0,0,0-.56-.54,15,15,0,0,0-1.34-.72,5.13,5.13,0,0,1-1.8-1.26,2.16,2.16,0,0,1-.43-1.33,2.09,2.09,0,0,1,.91-1.79,3.77,3.77,0,0,1,2.29-.66,4.48,4.48,0,0,1,2,.33v1.28a3.56,3.56,0,0,0-2.07-.57,2.35,2.35,0,0,0-1.36.35,1.08,1.08,0,0,0-.52,1,1.19,1.19,0,0,0,.36.9,7.35,7.35,0,0,0,1.58.94,5.49,5.49,0,0,1,1.86,1.27,2.16,2.16,0,0,1,.54,1.43,2.12,2.12,0,0,1-.87,1.83,4,4,0,0,1-2.41.64,6.28,6.28,0,0,1-1.25-.15,3,3,0,0,1-1-.37Z"/><path class="cls-97" d="M153.49,192.89H152.1l-4.56-7a3.74,3.74,0,0,1-.31-.59h0a8.62,8.62,0,0,1,.05,1.26v6.37h-1.16v-9h1.47l4.44,6.92a4.31,4.31,0,0,1,.37.62h0a9.92,9.92,0,0,1-.06-1.32v-6.22h1.16Z"/><path class="cls-97" d="M162.92,192.89h-1.29l-.93-2.48h-3.77l-.88,2.48h-1.29l3.45-9h1.26Zm-2.58-3.5L159,185.62a4.54,4.54,0,0,1-.14-.63h0a2.64,2.64,0,0,1-.15.63l-1.35,3.77Z"/><path class="cls-97" d="M168.75,184.88h-2.62v8H165v-8h-2.61v-1h6.4Z"/><path class="cls-97" d="M176.36,186.94c-.15,1.15-.42,2.77-.83,4.86l1.11-.26c0,.3,0,.58,0,.83-.88.22-2.17.5-3.86.84l-.18-.88c.79-.13,1.5-.25,2.15-.38.38-2.34.64-4.06.77-5.16Zm-3.62-1.67h4V186h-4Zm.16,1.84.79-.18c.26,1.12.52,2.49.77,4.11l-.8.21A41,41,0,0,0,172.9,187.11Zm.8-3.74.72-.42a11.94,11.94,0,0,1,1.18,1.75l-.77.47A13.93,13.93,0,0,0,173.7,183.37Zm3,4h7.58v.76h-3.52l-.32,1.27h3.29v3.88c0,.67-.3,1-.89,1H182a4.15,4.15,0,0,0-.23-.86q.39,0,.81,0a.32.32,0,0,0,.35-.36v-3h-1.21v3.67h-.78v-3.67h-1.16v3.6H179v-3.6h-1.17v4.27H177v-5h2.61l.27-1.27h-3.16Zm5.89-.76v-.37h-5.29v-2.63h.82v1.91h1.81v-2.64h.85v2.64h1.81v-1.91h.82v3Z"/><path class="cls-97" d="M185.74,184.13H195V194h-1v-1.13h-7.29V194h-1ZM194,192v-7h-7.29v7Z"/><path class="cls-97" d="M196.65,189.72h1.78c.17-.3.34-.6.5-.92l.84.27-.37.65h2.87v.75a5.49,5.49,0,0,1-1.35,2l1.31.61-.51.81c-.49-.27-1-.55-1.51-.82a10.54,10.54,0,0,1-3.34,1.5c-.13-.25-.26-.53-.4-.82a9.58,9.58,0,0,0,2.89-1.11l-2.1-1.05q.38-.54.72-1.11h-1.33Zm.13-4h2.69v-2.61h.87v2.61h2.25v.78h-2.25v.71l.35-.4c.72.53,1.33,1,1.83,1.4l-.57.66c-.43-.41-1-.86-1.61-1.37v1.33h-.87v-1.63a11.75,11.75,0,0,1-2.48,2c-.15-.23-.32-.46-.51-.71a13,13,0,0,0,2.71-1.94h-2.41Zm.3-1.81.67-.45c.35.43.71.89,1.09,1.38l-.73.51C197.77,184.81,197.42,184.34,197.08,183.88Zm1.32,7.45,1.71.78a5.1,5.1,0,0,0,1.27-1.62h-2.44Zm3.66-8,.72.48c-.43.56-.85,1.08-1.28,1.55-.18-.15-.39-.32-.64-.49C201.27,184.44,201.67,183.92,202.06,183.37Zm2.13-.4.94.14a21.58,21.58,0,0,1-.58,2.12h3.59V186h-.74a13,13,0,0,1-1.5,5.46,7.42,7.42,0,0,0,2.41,2.1c-.25.35-.46.65-.63.93a9.3,9.3,0,0,1-2.38-2.2,11.1,11.1,0,0,1-2.56,2.31,7,7,0,0,0-.67-.73,10.33,10.33,0,0,0,2.66-2.45,10.29,10.29,0,0,1-1.25-3.77c-.17.29-.34.56-.52.81a7.93,7.93,0,0,0-.59-.75A11.32,11.32,0,0,0,204.19,183Zm2.27,3.05h-2.19a2.55,2.55,0,0,1-.13.29,10.71,10.71,0,0,0,1.17,4.25A11.11,11.11,0,0,0,206.46,186Z"/><path class="cls-97" d="M28.27,201.79h1v1.6h7v-3H27.84v-.87h9.42V205h-1v-.72h-7v3.4c0,.72.34,1.08,1,1.08h5.78c.67,0,1.08-.24,1.22-.72a10.39,10.39,0,0,0,.31-1.91,7.94,7.94,0,0,0,1,.35,18.66,18.66,0,0,1-.35,1.94,1.78,1.78,0,0,1-2,1.32H30.06a1.61,1.61,0,0,1-1.79-1.85Z"/><path class="cls-97" d="M39,204.41a19.08,19.08,0,0,0,2.44-5.67l.86.25a29.93,29.93,0,0,1-1,2.92v8.35h-.83v-6.63a15.61,15.61,0,0,1-1.07,1.71C39.25,205,39.14,204.7,39,204.41Zm4.08,1.94.78-.44a5.94,5.94,0,0,0,1.35,1.56,4.2,4.2,0,0,0,.58-1.94H42.76v-3.22h3.16v-1.15H42.17v-.8h3.75v-1.58h.9v1.58H50.6v.8H46.82v1.15H50V206h-.89v-.5H46.72A5.86,5.86,0,0,1,46,208a0,0,0,0,1,0,0,10.55,10.55,0,0,0,4.7,1.23c-.24.34-.45.66-.65,1a11,11,0,0,1-4.67-1.52,9.29,9.29,0,0,1-3,1.62c-.18-.25-.38-.51-.61-.79a8.36,8.36,0,0,0,2.86-1.38A6.81,6.81,0,0,1,43.1,206.35Zm2.78-1.61c0-.37,0-.92,0-1.64H43.65v1.64Zm.91,0h2.29V203.1H46.82C46.82,203.4,46.81,204,46.79,204.74Z"/><path class="cls-97" d="M56.59,210.05v-3.72H53.18a7.55,7.55,0,0,1-1.42,4q-.3-.39-.69-.81a6.25,6.25,0,0,0,1-2.38,19.22,19.22,0,0,0,.26-3.58v-4.17h9.55v9.29c0,.93-.44,1.39-1.33,1.39-.54,0-1.14,0-1.81,0,0-.25-.1-.58-.18-1,.68.05,1.23.07,1.65.07s.73-.23.73-.69v-2.15H57.53v3.72Zm-3.35-4.56h3.35v-2.18H53.3A19.5,19.5,0,0,1,53.24,205.49Zm.06-5.2v2.18h3.29v-2.18Zm7.67,0H57.53v2.18H61Zm-3.44,5.2H61v-2.18H57.53Z"/><path class="cls-97" d="M63.43,200.67h1.18q.44-1.06.72-1.95l1,.29c-.25.59-.48,1.14-.71,1.66h2.34V210H67v-.91H64.37v1h-.94Zm3.57.87H64.37v2.84H67Zm-2.63,6.64H67v-3H64.37Zm3.74-5.12A16.89,16.89,0,0,0,70,198.72l1,.25c-.2.59-.4,1.14-.61,1.66h3.77q-.14,6-.23,7.56A1.71,1.71,0,0,1,72,210c-.71,0-1.44,0-2.17-.07a8.14,8.14,0,0,0-.19-1h0a15.33,15.33,0,0,0,2.14.16A1.05,1.05,0,0,0,72.93,208c.08-1.16.15-3.31.19-6.45H70a15.08,15.08,0,0,1-1.06,2A5,5,0,0,0,68.11,203.06Zm1,.8.71-.53A33.54,33.54,0,0,1,71.93,206l-.86.61A31.11,31.11,0,0,0,69.15,203.86Z"/><path class="cls-97" d="M79,207a3.23,3.23,0,0,0,1.11.59,4.12,4.12,0,0,0,1.33.24c1.27,0,1.91-.46,1.91-1.36a1.16,1.16,0,0,0-.21-.68,1.81,1.81,0,0,0-.56-.54,13.86,13.86,0,0,0-1.34-.72,5.13,5.13,0,0,1-1.8-1.26,2.16,2.16,0,0,1-.43-1.33,2.09,2.09,0,0,1,.91-1.79,3.77,3.77,0,0,1,2.29-.66,4.48,4.48,0,0,1,2,.33v1.27a3.63,3.63,0,0,0-2.07-.56,2.35,2.35,0,0,0-1.36.35,1.08,1.08,0,0,0-.52,1,1.19,1.19,0,0,0,.36.9,7.35,7.35,0,0,0,1.58.94A5.49,5.49,0,0,1,84,204.93a2.16,2.16,0,0,1,.54,1.43,2.12,2.12,0,0,1-.87,1.83,4,4,0,0,1-2.41.64,6.19,6.19,0,0,1-1.25-.15,3,3,0,0,1-1-.37Z"/><path class="cls-97" d="M93.7,208.68H92.31l-4.56-7a3.74,3.74,0,0,1-.31-.59h0a10.43,10.43,0,0,1,0,1.26v6.37H86.29v-9.05h1.47l4.44,6.91a6.47,6.47,0,0,1,.37.63h0a9.92,9.92,0,0,1-.06-1.32v-6.22H93.7Z"/><path class="cls-97" d="M103.13,208.68h-1.29l-.93-2.48H97.14l-.88,2.48H95l3.45-9.05h1.26Zm-2.58-3.5-1.37-3.77a4.54,4.54,0,0,1-.14-.63h0a2.92,2.92,0,0,1-.15.63l-1.36,3.77Z"/><path class="cls-97" d="M109,200.67h-2.62v8h-1.18v-8h-2.6v-1H109Z"/><path class="cls-97" d="M116.57,202.73c-.15,1.15-.42,2.77-.83,4.85.4-.08.77-.17,1.11-.25,0,.3,0,.58,0,.83-.88.22-2.17.5-3.86.84l-.18-.88c.79-.13,1.5-.25,2.15-.38.38-2.34.64-4.06.77-5.16ZM113,201.06h4v.76h-4Zm.15,1.84.8-.18c.26,1.12.52,2.48.77,4.1l-.81.22A38.36,38.36,0,0,0,113.1,202.9Zm.81-3.74.72-.42a11.94,11.94,0,0,1,1.18,1.75L115,201A13.93,13.93,0,0,0,113.91,199.16Zm3,4h7.58v.76H121l-.32,1.28h3.29v3.88c0,.67-.3,1-.89,1h-.86a4,4,0,0,0-.23-.86q.39,0,.81,0a.32.32,0,0,0,.35-.36v-3H121.9v3.67h-.78v-3.67H120v3.6h-.79v-3.6H118v4.27h-.82v-5h2.61l.27-1.28H116.9Zm5.89-.76V202H117.5V199.4h.82v1.91h1.81v-2.64H121v2.64h1.81V199.4h.82v3Z"/><path class="cls-97" d="M126,199.92h9.3v9.84h-1v-1.14H127v1.14h-1Zm8.29,7.83v-7H127v7Z"/><path class="cls-97" d="M136.86,205.5h1.78c.17-.29.34-.6.5-.91l.84.27c-.12.22-.25.43-.37.64h2.87v.76a5.49,5.49,0,0,1-1.35,2l1.31.61-.51.81c-.49-.27-1-.55-1.51-.82a10.64,10.64,0,0,1-3.34,1.5c-.13-.25-.26-.53-.4-.82a9.68,9.68,0,0,0,2.89-1.11c-.67-.34-1.37-.7-2.1-1.05.24-.36.49-.73.72-1.11h-1.33Zm.12-4h2.7v-2.61h.87v2.61h2.24v.78h-2.24V203l.35-.4c.72.53,1.33,1,1.82,1.4l-.56.66c-.43-.41-1-.86-1.61-1.37v1.33h-.87V203a11.75,11.75,0,0,1-2.48,1.95q-.22-.34-.51-.72a12.6,12.6,0,0,0,2.71-1.93H137Zm.31-1.81.67-.45c.35.42.71.88,1.09,1.38l-.73.51C138,200.6,137.63,200.12,137.29,199.67Zm1.32,7.45,1.71.78a5.1,5.1,0,0,0,1.27-1.62h-2.44Zm3.66-8,.72.48c-.43.56-.86,1.08-1.29,1.55a7.78,7.78,0,0,0-.63-.49C141.48,200.22,141.88,199.71,142.27,199.16Zm2.13-.4.94.14a21.58,21.58,0,0,1-.58,2.12h3.59v.79h-.74a13,13,0,0,1-1.5,5.46,7.42,7.42,0,0,0,2.41,2.1c-.25.35-.46.65-.63.93a9.14,9.14,0,0,1-2.38-2.2,11.1,11.1,0,0,1-2.56,2.31,8.3,8.3,0,0,0-.67-.73,10.33,10.33,0,0,0,2.66-2.45,10.49,10.49,0,0,1-1.26-3.77,6.86,6.86,0,0,1-.51.8c-.16-.22-.35-.47-.59-.74A11.45,11.45,0,0,0,144.4,198.76Zm2.27,3.05h-2.19a2.55,2.55,0,0,1-.13.29,10.71,10.71,0,0,0,1.17,4.25A11.11,11.11,0,0,0,146.67,201.81Z"/></g></svg>