<svg xmlns="http://www.w3.org/2000/svg" viewBox="0 0 630 300"><title>OJ104595046</title><rect x="6.6" width="623.4" height="300" fill="#fff"/><rect x="190" width="140" height="125" fill="#fff"/><rect x="190" width="140" height="125" fill="#3c3c41" opacity="0.05" style="isolation:isolate"/><rect x="315.4" y="170" width="140" height="105" fill="#fff"/><rect x="315.4" y="170" width="140" height="105" fill="#3c3c41" opacity="0.1" style="isolation:isolate"/><rect x="490" y="170" width="140" height="130" fill="#fff"/><rect x="490" y="170" width="140" height="130" fill="#3c3c41" opacity="0.1" style="isolation:isolate"/><rect x="320.4" y="175" width="130" height="70" fill="#fff"/><rect x="320.4" y="175" width="130" height="70" fill="#3c3c41" opacity="0.25" style="isolation:isolate"/><path d="M17.3,81.4v21.8c0,2.2,5,4.1,11.2,4.1V81.4Z" fill="#50e6ff"/><path d="M28.4,107.3h.2c6.2,0,11.3-1.8,11.3-4.1V81.4H28.4Z" fill="#0072c5"/><path d="M28.3,107.3h.2c6.3,0,11.4-1.8,11.4-4.1V81.3H28.4Z" fill="#3bcaf4"/><path d="M39.9,81.4c0,2.3-5,4.1-11.3,4.1s-11.3-1.8-11.3-4.1,5-4.1,11.3-4.1S39.9,79.2,39.9,81.4Z" fill="#fff"/><path d="M37.6,81.2c0,1.5-4,2.7-9,2.7s-9-1.2-9-2.7,4-2.8,9-2.8S37.6,79.7,37.6,81.2Z" fill="#0078d4"/><path d="M35.7,82.8c1.1-.5,1.9-1,1.9-1.6s-4-2.8-9-2.8-9,1.3-9,2.8.7,1.2,1.8,1.6a21.4,21.4,0,0,1,7.1-1A21.6,21.6,0,0,1,35.7,82.8Z" fill="#3bcaf4"/><polygon points="107.3 102.2 131.6 102.2 131.6 77.9 107.3 77.9 107.3 102.2" fill="#fff" fill-rule="evenodd"/><path d="M106.8,77.4v25.3h25.4V77.4Zm1,24.3h23.3V78.4H107.9Z" fill="#0078d7" fill-rule="evenodd"/><polygon points="113.1 89.8 116.3 88.1 116.3 87 111.7 89.6 111.7 90.1 116.3 92.3 116.3 91.3 113.1 89.8" fill="#0078d7" fill-rule="evenodd"/><polygon points="118.2 94.1 121.8 85.4 120.8 85.4 117.2 94.1 118.2 94.1" fill="#0078d7" fill-rule="evenodd"/><polygon points="122.8 88 126 89.8 125.9 89.8 122.8 91.3 122.8 92.3 127.4 90 127.4 89.6 122.8 87 122.8 88" fill="#0078d7" fill-rule="evenodd"/><path d="M130.2,106.8a7,7,0,1,1,7-7h0a7,7,0,0,1-7,7" fill="#fff" fill-rule="evenodd"/><path d="M130.2,92.3a7.6,7.6,0,0,0-7.5,7.5,7.5,7.5,0,0,0,7.5,7.4,7.4,7.4,0,0,0,7.4-7.4h0a7.5,7.5,0,0,0-7.4-7.5m0,.9a6.6,6.6,0,1,1-6.6,6.6,6.6,6.6,0,0,1,6.6-6.6h0" fill="#0078d7" fill-rule="evenodd"/><polygon points="128.9 102.7 126.4 100.2 127 99.6 128.9 101.4 133.4 96.9 134.1 97.6 128.9 102.7" fill="#0078d7" fill-rule="evenodd"/><path d="M267.5,39.4a1.9,1.9,0,0,1-1.9,1.9,1.9,1.9,0,0,1,0-3.8h0a1.8,1.8,0,0,1,1.9,1.9" fill="#0078d4" fill-rule="evenodd"/><path d="M267.5,50.6a1.8,1.8,0,0,1-1.9,1.9,1.9,1.9,0,0,1-1.9-1.9,2,2,0,0,1,1.9-1.9h0a1.8,1.8,0,0,1,1.9,1.8h0" fill="#0078d4" fill-rule="evenodd"/><path d="M256.3,39.4a2,2,0,0,1-1.9,1.9,1.9,1.9,0,0,1,0-3.8h0a2,2,0,0,1,1.9,1.9" fill="#0078d4" fill-rule="evenodd"/><path d="M256.3,50.6a1.9,1.9,0,0,1-1.9,1.9,1.8,1.8,0,0,1-1.9-1.9,1.8,1.8,0,0,1,1.9-1.8,1.9,1.9,0,0,1,1.9,1.8h0" fill="#0078d4" fill-rule="evenodd"/><path d="M262.8,37.5a2.8,2.8,0,1,1-2.8-2.8h0a2.7,2.7,0,0,1,2.8,2.8" fill="#0078d4" fill-rule="evenodd"/><path d="M262.8,52.5a2.8,2.8,0,1,1-2.8-2.8h0a2.7,2.7,0,0,1,2.8,2.8" fill="#0078d4" fill-rule="evenodd"/><path d="M261.4,31.4A1.4,1.4,0,1,1,260,30a1.4,1.4,0,0,1,1.4,1.4h0" fill="#50e6ff" fill-rule="evenodd"/><path d="M261.4,58.6a1.4,1.4,0,1,1-1.4-1.4h0a1.4,1.4,0,0,1,1.4,1.4" fill="#0078d4" fill-rule="evenodd"/><path d="M261.4,31.4A1.4,1.4,0,1,1,260,30a1.4,1.4,0,0,1,1.4,1.4h0" fill="#50e6ff" fill-rule="evenodd"/><path d="M261.4,58.6a1.4,1.4,0,1,1-1.4-1.4h0a1.4,1.4,0,0,1,1.4,1.4" fill="#50e6ff" fill-rule="evenodd"/><path d="M255.3,45a2.8,2.8,0,1,1-2.8-2.8h0a2.7,2.7,0,0,1,2.8,2.8" fill="#0078d4" fill-rule="evenodd"/><path d="M270.3,45a2.8,2.8,0,1,1-2.8-2.8h0a2.7,2.7,0,0,1,2.8,2.8" fill="#0078d4" fill-rule="evenodd"/><path d="M246.4,43.6A1.4,1.4,0,1,1,245,45a1.4,1.4,0,0,1,1.4-1.4h0" fill="#50e6ff" fill-rule="evenodd"/><path d="M273.6,43.6a1.4,1.4,0,1,1-1.4,1.4h0a1.4,1.4,0,0,1,1.4-1.4" fill="#0078d4" fill-rule="evenodd"/><path d="M262.8,45a2.8,2.8,0,1,1-2.8-2.8h0a2.7,2.7,0,0,1,2.8,2.8" fill="#0078d4" fill-rule="evenodd"/><path d="M246.4,43.6A1.4,1.4,0,1,1,245,45a1.4,1.4,0,0,1,1.4-1.4h0" fill="#50e6ff" fill-rule="evenodd"/><path d="M273.6,43.6a1.4,1.4,0,1,1-1.4,1.4h0a1.4,1.4,0,0,1,1.4-1.4" fill="#50e6ff" fill-rule="evenodd"/><path d="M270.8,36.2a1.4,1.4,0,0,1-2-.1,1.3,1.3,0,0,1,.1-1.9,1.3,1.3,0,1,1,1.9,1.9h0" fill="#50e6ff" fill-rule="evenodd"/><path d="M251.2,55.8a1.4,1.4,0,0,1-2-2,1.4,1.4,0,0,1,2,2h0" fill="#50e6ff" fill-rule="evenodd"/><path d="M251.2,34.2a1.5,1.5,0,0,1,0,2,1.4,1.4,0,0,1-2-.1,1.2,1.2,0,0,1,0-1.9,1.3,1.3,0,0,1,2,0h0" fill="#50e6ff" fill-rule="evenodd"/><path d="M270.8,53.8a1.4,1.4,0,0,1-2,2,1.4,1.4,0,0,1,2-2" fill="#50e6ff" fill-rule="evenodd"/><line x1="50" y1="92.3" x2="94.6" y2="92.3" fill="none" stroke="#3c3c41" stroke-miterlimit="10"/><polygon points="93.5 96 100 92.3 93.5 88.5 93.5 96" fill="#3c3c41"/><line x1="330" y1="92.3" x2="359.6" y2="92.3" fill="none" stroke="#3c3c41" stroke-miterlimit="10"/><polygon points="358.5 96 365 92.3 358.5 88.5 358.5 96" fill="#3c3c41"/><line x1="405" y1="92.3" x2="434.6" y2="92.3" fill="none" stroke="#3c3c41" stroke-miterlimit="10"/><polygon points="433.5 96 440 92.3 433.5 88.5 433.5 96" fill="#3c3c41"/><line x1="455" y1="210" x2="484.6" y2="210" fill="none" stroke="#3c3c41" stroke-miterlimit="10"/><polygon points="483.5 213.7 490 210 483.5 206.3 483.5 213.7" fill="#3c3c41"/><line x1="385.4" y1="115" x2="385.4" y2="144.6" fill="none" stroke="#3c3c41" stroke-miterlimit="10"/><polygon points="381.7 143.5 385.4 150 389.1 143.5 381.7 143.5" fill="#3c3c41"/><line x1="140" y1="92.3" x2="184.6" y2="92.3" fill="none" stroke="#3c3c41" stroke-miterlimit="10"/><polygon points="183.5 96 190 92.3 183.5 88.5 183.5 96" fill="#3c3c41"/><path d="M450.1,81.4a1.5,1.5,0,0,1-1.7-1.4,1.6,1.6,0,0,1,1.4-1.7h.3a1.6,1.6,0,0,1,1.4,1.7A1.7,1.7,0,0,1,450.1,81.4Z" fill="#0078d4"/><path d="M454.7,81.4a1.6,1.6,0,0,1-1.6-1.6,1.6,1.6,0,0,1,3.2,0h0a1.6,1.6,0,0,1-1.6,1.6Z" fill="#0078d4"/><path d="M459.4,81.4a1.6,1.6,0,0,1-1.6-1.5,1.6,1.6,0,0,1,1.6-1.6,1.5,1.5,0,0,1,1.5,1.5h0A1.6,1.6,0,0,1,459.4,81.4Z" fill="#0078d4"/><path d="M464,81.4a1.6,1.6,0,0,1-1.6-1.5,1.6,1.6,0,0,1,1.6-1.6,1.5,1.5,0,0,1,1.5,1.5h0a1.4,1.4,0,0,1-1.5,1.6Z" fill="#0078d4"/><path d="M468.7,81.4a1.6,1.6,0,0,1-1.6-1.6,1.6,1.6,0,0,1,1.6-1.5,1.5,1.5,0,0,1,1.5,1.5h0a1.5,1.5,0,0,1-1.5,1.6Z" fill="#0078d4"/><path d="M473.4,81.4a1.6,1.6,0,1,1,1.5-1.6h0A1.6,1.6,0,0,1,473.4,81.4Z" fill="#0078d4"/><path d="M450.1,86.1a1.6,1.6,0,0,1-1.6-1.6,1.6,1.6,0,0,1,1.5-1.6,1.6,1.6,0,0,1,1.6,1.6h0A1.6,1.6,0,0,1,450.1,86.1Z" fill="#0078d4"/><path d="M454.7,86.1a1.6,1.6,0,0,1-1.4-1.7,1.5,1.5,0,0,1,1.4-1.5,1.6,1.6,0,0,1,1.7,1.5,1.6,1.6,0,0,1-1.4,1.7Z" fill="#0078d4"/><path d="M459.4,86.1a1.6,1.6,0,1,1,0-3.2,1.6,1.6,0,0,1,1.5,1.6h0A1.6,1.6,0,0,1,459.4,86.1Z" fill="#0078d4"/><path d="M464,86.1a1.6,1.6,0,0,1,0-3.2,1.6,1.6,0,0,1,1.5,1.6h0a1.4,1.4,0,0,1-1.5,1.6Z" fill="#0078d4"/><path d="M468.7,86.1a1.7,1.7,0,0,1-1.5-1.7,1.7,1.7,0,0,1,1.5-1.5,1.6,1.6,0,1,1,.2,3.2Z" fill="#0078d4"/><path d="M473.4,86.1a1.6,1.6,0,0,1-1.6-1.6,1.6,1.6,0,0,1,1.5-1.6,1.6,1.6,0,0,1,1.6,1.6h0A1.6,1.6,0,0,1,473.4,86.1Z" fill="#0078d4"/><path d="M450.1,90.7a1.5,1.5,0,0,1-1.7-1.4,1.6,1.6,0,0,1,1.4-1.7h.3a1.6,1.6,0,0,1,1.4,1.7A1.5,1.5,0,0,1,450.1,90.7Z" fill="#0078d4"/><path d="M454.7,90.7a1.6,1.6,0,0,1-1.6-1.5,1.6,1.6,0,0,1,3.2,0h0a1.6,1.6,0,0,1-1.6,1.5Z" fill="#0078d4"/><path d="M459.4,90.7a1.5,1.5,0,0,1-1.6-1.5,1.6,1.6,0,0,1,1.6-1.6,1.6,1.6,0,0,1,1.5,1.6h0A1.5,1.5,0,0,1,459.4,90.7Z" fill="#0078d4"/><path d="M464,90.7a1.5,1.5,0,0,1-1.6-1.5,1.6,1.6,0,0,1,1.6-1.6,1.6,1.6,0,0,1,1.5,1.6h0a1.4,1.4,0,0,1-1.5,1.5Z" fill="#0078d4"/><path d="M468.7,90.7a1.6,1.6,0,0,1-1.6-1.5,1.6,1.6,0,0,1,1.6-1.6,1.6,1.6,0,0,1,1.5,1.6h0a1.5,1.5,0,0,1-1.5,1.5Z" fill="#0078d4"/><path d="M473.4,90.7a1.5,1.5,0,0,1-1.6-1.5,1.6,1.6,0,0,1,1.5-1.6,1.6,1.6,0,0,1,1.6,1.6h0A1.5,1.5,0,0,1,473.4,90.7Z" fill="#0078d4"/><path d="M450.1,95.4a1.5,1.5,0,0,1-1.7-1.4,1.6,1.6,0,0,1,1.4-1.7h.3a1.6,1.6,0,0,1,1.4,1.7A1.7,1.7,0,0,1,450.1,95.4Z" fill="#0078d4"/><path d="M454.7,95.4a1.6,1.6,0,0,1-1.6-1.6,1.6,1.6,0,0,1,3.2,0h0a1.6,1.6,0,0,1-1.6,1.6Z" fill="#0078d4"/><path d="M459.4,95.4a1.6,1.6,0,0,1-1.6-1.5,1.6,1.6,0,0,1,1.6-1.6,1.5,1.5,0,0,1,1.5,1.5h0A1.6,1.6,0,0,1,459.4,95.4Z" fill="#0078d4"/><path d="M450.1,100.1a1.6,1.6,0,0,1-1.6-1.6,1.6,1.6,0,0,1,1.5-1.6,1.6,1.6,0,0,1,1.6,1.6h0A1.6,1.6,0,0,1,450.1,100.1Z" fill="#0078d4"/><path d="M454.7,100.1a1.6,1.6,0,0,1-1.4-1.7,1.5,1.5,0,0,1,1.4-1.5,1.6,1.6,0,0,1,1.7,1.5,1.6,1.6,0,0,1-1.4,1.7Z" fill="#0078d4"/><path d="M459.4,100.1a1.6,1.6,0,1,1,0-3.2,1.6,1.6,0,0,1,1.5,1.6h0A1.6,1.6,0,0,1,459.4,100.1Z" fill="#0078d4"/><path d="M450.1,104.7a1.6,1.6,0,1,1-.1-3.1,1.6,1.6,0,0,1,1.6,1.6h0A1.5,1.5,0,0,1,450.1,104.7Z" fill="#0078d4"/><path d="M454.7,104.7a1.6,1.6,0,0,1,0-3.1,1.6,1.6,0,0,1,1.7,1.4,1.5,1.5,0,0,1-1.4,1.7Z" fill="#0078d4"/><path d="M459.4,104.7a1.6,1.6,0,0,1-1.6-1.5,1.6,1.6,0,0,1,1.6-1.6,1.6,1.6,0,0,1,1.5,1.6h0A1.5,1.5,0,0,1,459.4,104.7Z" fill="#0078d4"/><path d="M476.5,105.2l-4.5-4.5a5.3,5.3,0,0,0-8.4-6.3,5.2,5.2,0,0,0,7.3,7.4l4.5,4.5Zm-8.7-3.9a3.8,3.8,0,0,1-3.7-3.8,3.7,3.7,0,1,1,3.7,3.8Z" fill="#50e6ff"/><path d="M609,279.7v-.3a7.6,7.6,0,0,0,.1-1.5,7.8,7.8,0,0,0-7.8-7.8h0a5.5,5.5,0,0,0-1.8.2,10.2,10.2,0,0,0-14-3.1,10,10,0,0,0-4.7,8.5v.4a9,9,0,0,0-1.6-.3,5,5,0,0,0-.5,10h22.5a7.8,7.8,0,0,0,6.9-4l.2-.2A14.6,14.6,0,0,0,609,279.7Z" fill="#50e6ff"/><path d="M585.3,283.9a6.5,6.5,0,1,1,12.9-.5v.5Z" fill="#0078d7"/><path d="M595.4,272.7a3.7,3.7,0,1,1-3.6-3.7h0A3.7,3.7,0,0,1,595.4,272.7Z" fill="#0078d7"/><path d="M591.7,263.7a1.8,1.8,0,0,0,1.8-1.9,1.8,1.8,0,1,0-3.6,0A1.8,1.8,0,0,0,591.7,263.7Z" fill="#0078d7"/><path d="M591.7,295a1.8,1.8,0,0,0,1.8-1.8,1.8,1.8,0,1,0-3.6,0,1.8,1.8,0,0,0,1.8,1.8Z" fill="#0078d7"/><path d="M605.6,285.8a1.8,1.8,0,0,0,1.8-1.8,1.8,1.8,0,0,0-1.8-1.9,1.9,1.9,0,1,0,0,3.7Z" fill="#0078d7"/><path d="M577.9,285.8a1.8,1.8,0,0,0,1.8-1.8,1.8,1.8,0,1,0-3.6,0,1.8,1.8,0,0,0,1.8,1.8Z" fill="#0078d7"/><path d="M605.6,272.9a1.8,1.8,0,0,0,1.8-1.9,1.8,1.8,0,0,0-1.8-1.8,1.9,1.9,0,1,0,0,3.7Z" fill="#0078d7"/><path d="M577.9,272.9a1.8,1.8,0,0,0,1.8-1.9,1.8,1.8,0,0,0-1.8-1.8,1.8,1.8,0,0,0-1.8,1.9,1.8,1.8,0,0,0,1.8,1.8Z" fill="#0078d7"/><path d="M386.1,96.7h-1.4v8.2h1.4Z" fill="#50e6ff"/><path d="M386.1,80.9h-1.4v9.2h1.4Z" fill="#50e6ff"/><path d="M388.8,94.5l-.8,1.3,7.5,4.3.7-1.3Z" fill="#50e6ff"/><path d="M375.1,86.6l-.7,1.3,7.7,4.5.8-1.3Z" fill="#50e6ff"/><path d="M395.6,86.7,388,91.1l.7,1.3,7.6-4.4Z" fill="#50e6ff"/><path d="M382.1,94.5,374.3,99l.7,1.3,7.8-4.5Z" fill="#50e6ff"/><path d="M385.4,90.8l2.2,1.3v2.6L385.4,96l-2.2-1.3V92.1Zm0-1.7-.7.5-2.2,1.2-.8.5v4.2l.8.5,2.2,1.2.7.5.7-.5,2.3-1.2.7-.4V91.3l-.7-.5-2.3-1.2Z" fill="#0078d4"/><path d="M383.2,105.2h0a2.2,2.2,0,0,1,2.2-2.2h0a2.2,2.2,0,0,1,2.2,2.2h0a2.2,2.2,0,0,1-2.2,2.2h0A2.2,2.2,0,0,1,383.2,105.2Z" fill="#0078d4"/><path d="M383.2,81.6h0a2.2,2.2,0,0,1,2.2-2.2h0a2.2,2.2,0,0,1,2.2,2.2h0a2.2,2.2,0,0,1-2.2,2.2h0A2.2,2.2,0,0,1,383.2,81.6Z" fill="#0078d4"/><path d="M394.6,101.2h0a2.2,2.2,0,0,1-.8-3h0a2.3,2.3,0,0,1,3-.8h0a2.2,2.2,0,0,1,.9,3h-.1a2.1,2.1,0,0,1-3,.8Z" fill="#0078d4"/><path d="M375.1,89.7h0a2.2,2.2,0,0,1-2.2-2.2h0a2.2,2.2,0,0,1,2.2-2.2h0a2.2,2.2,0,0,1,2.2,2.2h0a2.2,2.2,0,0,1-2.2,2.2Z" fill="#0078d4"/><path d="M396.9,89.4h0a2.1,2.1,0,0,1-3-.8h0a2.1,2.1,0,0,1,.7-3h0a2.2,2.2,0,0,1,3,.8h0A2.1,2.1,0,0,1,396.9,89.4Z" fill="#0078d4"/><path d="M375.1,101.5h0a2.2,2.2,0,0,1-2.2-2.2h0a2.2,2.2,0,0,1,2.2-2.2h0a2.2,2.2,0,0,1,2.2,2.2h0a2.2,2.2,0,0,1-2.2,2.2Z" fill="#0078d4"/><path d="M420,190v28H399v-3.5h-1.7v-1.7H399v-3.5h-1.7v-1.8H399v-7h-1.7v-1.7H399v-3.5h-1.7v-1.8H399V190Zm-1.7,1.8H400.8v24.5h17.5Zm-12.3,14a3.5,3.5,0,0,1-1.4-.3l-1.1-.8a4.1,4.1,0,0,1-.7-1.1,3.1,3.1,0,0,1-.3-1.3,3.2,3.2,0,0,1,.3-1.4,3.5,3.5,0,0,1,4.6-1.9l.4.2,2-2a2,2,0,0,1-.3-1.1,3.6,3.6,0,0,1,.2-1,3.2,3.2,0,0,1,1.4-1.4,3.4,3.4,0,0,1,2,0,3.2,3.2,0,0,1,1.4,1.4,2.5,2.5,0,0,1-1.4,3.4,1.7,1.7,0,0,1-1,.3,2,2,0,0,1-1.1-.3l-2,2a3.7,3.7,0,0,1,.5,1.8h0l2.3.8a2.6,2.6,0,0,1,3.1-.8,2.7,2.7,0,0,1,1.4,1.4,3.4,3.4,0,0,1,0,2,2.4,2.4,0,0,1-1.4,1.4,2.3,2.3,0,0,1-2,0l-.9-.5a2.6,2.6,0,0,1-.5-.9,1.6,1.6,0,0,1-.2-1l-2.3-.7a3.3,3.3,0,0,1-1.3,1.1,2.5,2.5,0,0,1-1.7.4Zm-3.5,5.3v-1.8h14V211Zm0,1.7h14v1.7h-14Zm3.5-12.3h-.7a2.2,2.2,0,0,0-.9,1,1.6,1.6,0,0,0,.4,1.9.9.9,0,0,0,.5.3,1.7,1.7,0,0,0,1.9-.3,1.7,1.7,0,0,0,.4-1.9,2.2,2.2,0,0,0-.9-1Zm6.1-5.2a.8.8,0,0,0-.9.8.9.9,0,1,0,1.8,0,1.4,1.4,0,0,0-.2-.6h0l-.7-.2Zm1.8,8.7a.9.9,0,0,0-.9.9h0a.8.8,0,0,0,.8.9h0a.9.9,0,0,0,.9-.9h0a.5.5,0,0,0-.2-.6.9.9,0,0,0-.6-.3Z"/><path d="M366,204h2.6a8.7,8.7,0,0,0,4.5-1.2c1.3-.8,1.9-1.4,1.9-1.8v-3a16.3,16.3,0,0,1-8.4,2,26.2,26.2,0,0,1-7.4-.7,20.5,20.5,0,0,1-3.1-1.3v3c0,.5.8,1.1,2.3,1.9A19.9,19.9,0,0,0,366,204Zm9,3v-3a16.5,16.5,0,0,1-8.4,2,26.2,26.2,0,0,1-7.4-.7,16.9,16.9,0,0,1-3.1-1.3v3c0,.5.7,1.1,2.3,1.9a19.7,19.7,0,0,0,7.5,1.1q5.3,0,7.2-1.2C374.4,207.9,375,207.4,375,207Zm-9,9h2.6a8.7,8.7,0,0,0,4.5-1.2c1.3-.8,1.9-1.4,1.9-1.8v-3a16.1,16.1,0,0,1-8.4,2,26.2,26.2,0,0,1-7.4-.7,16.9,16.9,0,0,1-3.1-1.3v3c0,.5.8,1.1,2.3,1.9A19.9,19.9,0,0,0,366,216Zm-9.9-21a.9.9,0,0,0,.3.6,2.2,2.2,0,0,0,.9.7l1.4.7,1.8.5,1.8.3h4.8l2.3-.2a19.8,19.8,0,0,0,3.3-.8q1.8-.6,2.1-1.2a2.4,2.4,0,0,0,.2-.8c0-.3-.6-.9-1.9-1.7s-3.8-1.2-7.5-1.2-6.3.4-7.6,1.2-1.9,1.5-1.9,1.8Zm4.6-4.6,1-.2a25.5,25.5,0,0,1,3.9-.2,28,28,0,0,1,6.4.8c2.3.5,3.8,1.2,4.3,2.1a5.4,5.4,0,0,1,.8,2.1v18a3.2,3.2,0,0,1-1,2.2,6.8,6.8,0,0,1-2.3,1.4,12.9,12.9,0,0,1-2.8.8l-2.9.5h-3.4a27,27,0,0,1-5.6-.8c-2.3-.5-3.8-1.2-4.3-2.1a4.9,4.9,0,0,1-.8-2.1V195a3.2,3.2,0,0,1,1-2.2,7.9,7.9,0,0,1,2.3-1.4,20.2,20.2,0,0,1,3.3-.9Z"/><path d="M534.1,286.9l-8.9-16.2v-7.5h2.3V262h-14v1.2h2.4v7.5L507,286.9c-1,1.7-.2,3.1,1.8,3.1h23.6C534.3,290,535.1,288.7,534.1,286.9Zm-26.3,1.6c-.2-.2,0-.6.2-1l8.9-16.2v-8.1h7v8.1l3.3,5.9h-9.2l-6.4,11.6h-3.1a.9.9,0,0,1-.9-.3Zm25.5,0a1.4,1.4,0,0,1-1,.3H513.2l5.7-10.5h9.2l5,9.1c.3.6.3,1,.2,1.1Z"/><path d="M583.7,212v2h20v-.6l-5.2-5.2L591,212Zm0-2h6.8l8.4-4.2,4.8,4.8v-5.2l-5-5-4.8,4.9-7.2-3.7-3,1.5Zm22,6h-24V201.9l5-2.5,6.8,3.4,5.2-5.2,7,7Zm-26-24v26h26v2h-28V192Z"/><path d="M525,217.1h-8.1c1,3.4-.4,3.9-6.1,3.9v1.8h19.5V221C524.5,221,524,220.5,525,217.1Z" fill="#50e6ff"/><path d="M510.7,222.8h19.6V221H510.7Z" fill="#50e6ff"/><path d="M535.6,194.8H505.5v22.3h30.1Z" fill="#0078d4"/><path d="M534,196.4H507v19.1h27Z" fill="#0078d4"/><path d="M533.5,198.3l-1.1-1.1-4.6,4.6-1.5-1.5-1.2,1.1,2.7,2.6h0Z" fill="#50e6ff"/><path d="M533.5,206.9l-1.1-1.1-4.6,4.6-1.5-1.5-1.2,1.1,2.7,2.6h0Z" fill="#50e6ff"/><path d="M511.3,207.7h-3.1v7h3.1Z" fill="#50e6ff"/><path d="M515.2,205.4h-3.1v9.3h3.1Z" fill="#50e6ff"/><path d="M519.1,203.8H516v10.9h3.1V203.8Z" fill="#50e6ff"/><path d="M523,201.8h-3.1v13H523Z" fill="#50e6ff"/><path d="M371,133.9h4V151H360.5v-3.9h-4V130H371Zm-13.2-2.6v14.5h11.9V131.3Zm15.8,18.4V135.3H371v11.8h-9.2v2.6Z"/><path d="M13.1,57.6l2.1,1.6-.7.8a23,23,0,0,0-2-1.7Zm.8,3.3.8.4c-.3,1.3-.6,2.8-1,4.5l-.9-.3C13.2,63.9,13.6,62.4,13.9,60.9Zm-.3-6.3,1.9,1.6-.7.7L13,55.3Zm4.2,2.8h1.6a12.1,12.1,0,0,1,.5-1.4h-3v3.4q0,4.6-1.8,6.6l-.7-.7c1.1-1.2,1.6-3.2,1.6-5.9V55.2h8.2V56H20.9c-.2.5-.5.9-.7,1.4h3.1v4.8h-.8v-.3H21v2.8c0,.8-.5,1.2-1.3,1.2h-1c0-.2-.1-.5-.1-.8h1a.5.5,0,0,0,.5-.5V61.9H18.7v.3h-.9Zm-1,7.6,1.8-2.4.7.4a18,18,0,0,1-1.8,2.5Zm5.7-6.8H18.7v1.1h3.8Zm-3.8,2.9h3.8V60H18.7Zm5.4,3.8-.7.5L21.6,63l.7-.5A18.8,18.8,0,0,1,24.1,64.9Z" stroke="#000" stroke-miterlimit="10" stroke-width="0.05"/><path d="M24.6,61.2h1.8a4.1,4.1,0,0,0,.5-.9l.9.3a2.1,2.1,0,0,0-.4.6h2.9V62a5.6,5.6,0,0,1-1.4,2l1.3.6-.5.8-1.5-.8a12.6,12.6,0,0,1-3.3,1.5,2,2,0,0,1-.4-.8,11,11,0,0,0,2.9-1.1l-2.2-1.1A10.5,10.5,0,0,0,26,62H24.6Zm.2-4h2.7V54.6h.8v2.6h2.3V58H28.3v.7l.4-.4,1.8,1.4-.6.7A7.6,7.6,0,0,0,28.3,59v1.3h-.8V58.7A15,15,0,0,1,25,60.6l-.5-.7A13.1,13.1,0,0,0,27.2,58H24.8Zm.3-1.8.6-.5,1.1,1.4-.7.5Zm1.3,7.4,1.7.8A5.1,5.1,0,0,0,29.4,62H26.9A5.6,5.6,0,0,1,26.4,62.8ZM30,54.9l.8.4-1.3,1.6-.6-.5Zm2.2-.4h.9a6.5,6.5,0,0,1-.6,2.1h3.6v.8h-.7A13.3,13.3,0,0,1,33.9,63a6.1,6.1,0,0,0,2.4,2.1c-.2.4-.5.7-.6.9a7.3,7.3,0,0,1-2.4-2.2,12,12,0,0,1-2.6,2.4c-.1-.3-.4-.5-.6-.8A10,10,0,0,0,32.7,63a11.3,11.3,0,0,1-1.2-3.8l-.6.8-.5-.8A11.5,11.5,0,0,0,32.2,54.5Zm2.3,3H32.3l-.2.3a12.8,12.8,0,0,0,1.2,4.3A13.4,13.4,0,0,0,34.5,57.5Z" stroke="#000" stroke-miterlimit="10" stroke-width="0.05"/><path d="M36.5,60.7l1.7-.4V57.6H36.7v-.9h1.5V54.5H39v2.2h1.3v.9H39V60l1.1-.4a3.1,3.1,0,0,0,.1,1l-1.2.3v3.6c0,.9-.4,1.3-1.1,1.3H36.8a4.4,4.4,0,0,0-.2-1h1a.5.5,0,0,0,.6-.6V61.2l-1.5.5Zm5.3,1.2h2.4V60.4H41.5A9.8,9.8,0,0,1,39.8,66l-.6-.7c1-1.3,1.4-3.1,1.4-5.6V55.1h7v3.4h-.9v-.3H41.5v1.4h2.7V58.4H45v1.2h3.1v.8H45v1.5h2.5v4h-.9v-.7h-4v.7h-.8Zm4.9-6H41.5v1.5h5.2Zm-.1,6.8h-4v1.7h4Z" stroke="#000" stroke-miterlimit="10" stroke-width="0.05"/><path d="M98.4,56.5H104l-.9-1.6.9-.5,1,1.7-.9.4h5.5v.9h-2.1a10.7,10.7,0,0,1-2.7,5.3,14.3,14.3,0,0,0,4.9,2.1l-.8,1a20.2,20.2,0,0,1-4.9-2.4,17.6,17.6,0,0,1-5,2.5l-.7-.9a15.6,15.6,0,0,0,5-2.3,10.8,10.8,0,0,1-2.7-5.3H98.4Zm8.1.9h-5a8.6,8.6,0,0,0,2.5,4.7A8.3,8.3,0,0,0,106.5,57.4Z" stroke="#000" stroke-miterlimit="10" stroke-width="0.05"/><path d="M110.1,62a13,13,0,0,0,1.8-4.3h-1.7v-.8H112V54.6h.8v2.3h1.7v.8h-1.7v1.8l.4-.3c.7.6,1.2,1.2,1.7,1.7l-.7.6-1.4-1.6V66H112V59.9a18,18,0,0,1-1.5,3.1A3,3,0,0,1,110.1,62Zm4.1,2.5h6.3V62.4h-5.8v-.8h5.8V59.7h-6v-.9h3V54.6h.9v4.2h3V66h-.9v-.7h-6.3Zm.1-8.9.7-.4,1.7,2.5-.9.5Zm5,2.1c.5-.8,1.1-1.6,1.6-2.5l.8.5a27.1,27.1,0,0,1-1.7,2.5Z" stroke="#000" stroke-miterlimit="10" stroke-width="0.05"/><path d="M122.1,61.3a17.9,17.9,0,0,0,1.9-4.9h-1.6v-.8h4.1v.8h-1.6a19.8,19.8,0,0,1-.8,2.6h2v5h-2v.9h-.8V60.8l-.6,1.2Zm3.2,1.9V59.7h-1.2v3.5Zm1.6-7.1h3.2V54.5h.8v1.6h2.9v2.1h-.9V56.9h-2v2.2h2.3v.8a7.6,7.6,0,0,1-1.9,3.8A8.5,8.5,0,0,0,134,65l-.7.9a8.1,8.1,0,0,1-2.7-1.6,11.9,11.9,0,0,1-2.9,1.8,3.3,3.3,0,0,0-.6-.8,11.5,11.5,0,0,0,2.9-1.6,7.7,7.7,0,0,1-1.6-3.8h-.6v.2c0,2.7-.5,4.7-1.6,6l-.7-.8c1-1.1,1.4-2.8,1.4-5.1Zm.9,3h2.3V56.9h-2.3Zm4.5.8h-3.1a5.4,5.4,0,0,0,1.5,3.1A6.6,6.6,0,0,0,132.3,59.9Z" stroke="#000" stroke-miterlimit="10" stroke-width="0.05"/><path d="M134.2,57.8a13.8,13.8,0,0,0,2-3.3l.9.2a4.1,4.1,0,0,0-.5.9h2.2v.8l-.9,1.2h1.5v7.1c0,.8-.4,1.2-1.1,1.2h-1.1c0-.2-.1-.4-.1-.7h1c.4,0,.6-.2.6-.5V62.7h-1.1v2.1h-.8V62.7h-1a5.9,5.9,0,0,1-1,3.3l-.6-.6A5.7,5.7,0,0,0,135,62V58l-.3.4Zm1.1-.2H137l.8-1.2h-1.6Zm.5,2.2h1V58.3h-1Zm0,2.2h1V60.5h-1Zm2.9-3.7h-1.1v1.5h1.1ZM137.6,62h1.1V60.5h-1.1Zm2.3-6.9h5.3c-.1.7-.1,1.5-.2,2.1a1.3,1.3,0,0,1-1.5,1.5h-1.2c0-.3-.1-.6-.1-.9h1.3c.4,0,.6-.2.7-.7a5.3,5.3,0,0,1,.1-1.2H142a3.2,3.2,0,0,1-.4,1.8,3.5,3.5,0,0,1-1.6,1.6l-.5-.8a2.9,2.9,0,0,0,1.3-1.1,3.3,3.3,0,0,0,.4-1.5h-1.3Zm-.1,7.7h2.7V61.1h-1.4a6.1,6.1,0,0,1-.5,1.2l-.8-.3a14.5,14.5,0,0,0,1.1-2.9l.8.3-.3.9h1.1V59h.9v1.3h2.1v.8h-2.1v1.7h2.4v.8h-2.4V66h-.9V63.6h-2.7Z" stroke="#000" stroke-miterlimit="10" stroke-width="0.05"/><path d="M216,88.6h11.5v.9h-1.9v7.9c0,1.1-.5,1.6-1.5,1.6h-2.2a4.3,4.3,0,0,0-.2-1.1h2a.8.8,0,0,0,.9-.9V89.5H216Zm1.3,2.6h5.1v4.6h-4.2v.9h-.9Zm4.2.8h-3.3v3h3.3Z" stroke="#000" stroke-miterlimit="10" stroke-width="0.05"/><path d="M227.9,93.9l1.7-.5V90.6H228v-.8h1.6V87.7h.9v2.1h1.6v.8h-1.6v2.5l1.5-.4v.9l-1.5.5v3.6a1.2,1.2,0,0,1-1.2,1.3h-1.1c0-.4-.1-.7-.1-1h1c.4,0,.5-.2.5-.6V94.3l-1.6.6Zm5.7-3.6v3.2a8.5,8.5,0,0,1-1.8,5.7l-.8-.6a7.8,7.8,0,0,0,1.7-5V89.4h3.4l-.9-1.3.7-.5A13.4,13.4,0,0,1,237,89l-.8.4h3.3v.9Z" stroke="#000" stroke-miterlimit="10" stroke-width="0.05"/><path d="M242.5,92.2h1.9V91.1h.9v1.1h2.4V91.1h.9v1.1h2.1v.7h-2.1v1.3h2.7V95h-4.9a3.7,3.7,0,0,0,1.3,1.5l2.3-1.2.5.8-2.1.9a7.6,7.6,0,0,0,3.1,1l-.6.9a7.4,7.4,0,0,1-5.5-3.9h-1.2v2.9l2.3-.7v.9l-2.1.7-.8.4-.6-.7c.2-.1.3-.4.3-.8V95h-1.4a7.5,7.5,0,0,1-1.3,4.2,2.7,2.7,0,0,0-.7-.8c.8-1.1,1.2-2.8,1.2-5.2v-5h9.6v3.1h-.9v-.4H242v3.3h2.4V92.9h-1.9Zm7.3-3.3H242v1.2h7.8Zm-4.5,5.3h2.4V92.9h-2.4Z" stroke="#000" stroke-miterlimit="10" stroke-width="0.05"/><path d="M251.9,93.9l1.7-.5V90.6H252v-.8h1.6V87.7h.9v2.1h1.6v.8h-1.6v2.5l1.5-.4v.9l-1.5.5v3.6a1.2,1.2,0,0,1-1.2,1.3h-1.1c0-.4-.1-.7-.1-1h1c.4,0,.5-.2.5-.6V94.3l-1.6.6Zm5.7-3.6v3.2a8.5,8.5,0,0,1-1.8,5.7l-.8-.6a7.8,7.8,0,0,0,1.7-5V89.4h3.4l-.9-1.3.7-.5A13.4,13.4,0,0,1,261,89l-.8.4h3.3v.9Z" stroke="#000" stroke-miterlimit="10" stroke-width="0.05"/><path d="M271.9,90.8a26.2,26.2,0,0,1,2.9,3.2l-.8.6a8.6,8.6,0,0,0-.7-1h-1.7v3.4a1,1,0,0,0,.2.7c.1.2.3.2.6.2h1.1a.8.8,0,0,0,.9-.6c0-.3.1-.8.1-1.5l1,.4a5.9,5.9,0,0,1-.2,1.4c-.1.8-.6,1.1-1.6,1.1h-1.5a1.2,1.2,0,0,1-1.5-1.5V93.7h-2.1a6.6,6.6,0,0,1-.7,3,6.8,6.8,0,0,1-3.4,2.3l-.6-.9a4.9,4.9,0,0,0,3.1-2,5.2,5.2,0,0,0,.7-2.4h-1.3l-1,.2-.5-1a2,2,0,0,0,1.1-.6,17,17,0,0,0,2.2-2.4h-4.1v-.8h5.5a6.3,6.3,0,0,0-.7-1.2l.8-.5.9,1.3-.6.4h5.4v.8h-5.9L266.8,93l5.8-.2-1.3-1.5Z" stroke="#000" stroke-miterlimit="10" stroke-width="0.05"/><path d="M279.5,91l-1-1.2.5-.4h-1a5.4,5.4,0,0,1-1.5,1.5l-.6-.6a10,10,0,0,0,2.3-2.7h1l-.7,1.1H282v.7h-2.8l.9,1Zm-3.1,0h5l-.5-.8.8-.3a4.1,4.1,0,0,1,.7,1.1h4.7v1.8h-1v-1h-8.8v1.1h-.9Zm1.3,1.7h7.2v2.8h-.8v-.3h-5.5v.9h7.3v3H285v-.4h-6.4v.5h-.9Zm6.4.7h-5.5v1.1h5.5Zm.9,3.4h-6.4v1.1H285Zm-.2-5.8a9.4,9.4,0,0,0-.9-1.2l.5-.4h-1a8.6,8.6,0,0,1-.7,1l-.7-.6a6.7,6.7,0,0,0,1.3-2.2h1a5.4,5.4,0,0,1-.5,1.1h3.7v.7h-3l1,1Z" stroke="#000" stroke-miterlimit="10" stroke-width="0.05"/><path d="M292.8,98h6.8a3.6,3.6,0,0,0-.4.9h-6.5a3.3,3.3,0,0,1-2.9-1.4,11.2,11.2,0,0,0-1.4,1.5l-.5-1,1.5-1.3V92.6H288v-.8h2.3v5.1A3,3,0,0,0,292.8,98ZM289,87.9a15.6,15.6,0,0,1,1.6,2l-.8.6a19.1,19.1,0,0,0-1.5-2.1Zm2.9,3h2.4l.2-1h-3.3v-.8h2.2l-.8-1.1.6-.5,1.1,1.2-.6.4h2.2l1-1.5.9.4a4.4,4.4,0,0,1-.9,1.1h2.5v.8h-3.9l-.3,1h3.4v6.4h-.9v-.4h-5v.4h-.8Zm5.8.7h-5v1.1h5Zm-5,2.8h5v-1h-5Zm0,1.8h5V95.1h-5Z" stroke="#000" stroke-miterlimit="10" stroke-width="0.05"/><path d="M450,50.7l1.5-.5V47.4h-1.4v-.8h1.4V44.4h.9v2.2h1.3v.8h-1.3v2.4l1.2-.5c0,.4.1.7.1.9l-1.3.6v3.8c0,.7-.3,1.1-.8,1.2h-1.3a3.4,3.4,0,0,0-.1-1h.9c.3,0,.4-.1.4-.5V51.1l-1.4.7Zm4,1.4v-.7h3.1V50.2h-2.2v.3h-.8v-5a7.9,7.9,0,0,0,2.2-.6l.5.8-1.9.4v1.3h1.7v.7h-1.7v1.4h2.2V44.4h.9v5.1h2.1V48.1h-1.6v-.7h1.6V46.1h-1.8v-.8H461v5.2h-.9v-.3H458v1.2h2.5v.7a8.8,8.8,0,0,1-2.1,2.2,13.6,13.6,0,0,0,3.3.7,4.1,4.1,0,0,0-.5.9,9.5,9.5,0,0,1-3.7-1.1,11.1,11.1,0,0,1-4,1.2,5.9,5.9,0,0,0-.4-.8,15.8,15.8,0,0,0,3.6-.9,5.5,5.5,0,0,1-1.8-2.2Zm5.4,0h-3.6a4.6,4.6,0,0,0,1.7,1.7A5.2,5.2,0,0,0,459.4,52.1Z" stroke="#000" stroke-miterlimit="10" stroke-width="0.05"/><path d="M465.3,53l.5.7a21.4,21.4,0,0,1-3.2,2l-.6-.8A13.5,13.5,0,0,0,465.3,53Zm4.9-2.7,2.8,2.3-.7.6a4.6,4.6,0,0,1-.7-.7h-3.1v1.8c0,1-.5,1.4-1.6,1.4h-1.4c-.1-.3-.1-.6-.2-.9h1.5a.7.7,0,0,0,.8-.8V52.7h-2.4l-1.3.2-.4-.9a4.4,4.4,0,0,0,1.6-.6l2.2-1.1-1.9.2h-.9l-.3-.8,1-.5,1.6-1.2h-3.4v1.4h-1V47.4h5V46.3h-4.6v-.8h4.6V44.4h.9v1.1H473v.8h-4.7v1.1h4.9v2.2h-.9V48.2h-4.4a26.8,26.8,0,0,1-2.3,1.7h2.7l1.6-1,.7.5-5,2.8,5.1-.3-1.2-1Zm-.2,2.8a30.1,30.1,0,0,1,3.6,1.8l-.5.8a29.5,29.5,0,0,0-3.6-1.9Z" stroke="#000" stroke-miterlimit="10" stroke-width="0.05"/><path d="M453.3,67l.5.7a21.4,21.4,0,0,1-3.2,2l-.6-.8A13.5,13.5,0,0,0,453.3,67Zm4.9-2.7,2.8,2.3-.7.6a4.6,4.6,0,0,1-.7-.7h-3.1v1.8c0,1-.5,1.4-1.6,1.4h-1.4c-.1-.3-.1-.6-.2-.9h1.5a.7.7,0,0,0,.8-.8V66.7h-2.4l-1.3.2-.4-.9a4.4,4.4,0,0,0,1.6-.6l2.2-1.1-1.9.2h-.9l-.3-.8,1-.5,1.6-1.2h-3.4v1.4h-1V61.4h5V60.3h-4.6v-.8h4.6V58.4h.9v1.1H461v.8h-4.7v1.1h4.9v2.2h-.9V62.2h-4.4a26.8,26.8,0,0,1-2.3,1.7h2.7l1.6-1,.7.5-5,2.8,5.1-.3-1.2-1Zm-.2,2.8a30.1,30.1,0,0,1,3.6,1.8l-.5.8a29.5,29.5,0,0,0-3.6-1.9Z" stroke="#000" stroke-miterlimit="10" stroke-width="0.05"/><path d="M463.9,64.5h4.8c-.1,1.6-.2,2.7-.3,3.4a1.8,1.8,0,0,1-2,1.9H464a6.1,6.1,0,0,0-.3-1.1h2.5c.8,0,1.2-.3,1.3-1.1s.1-1.2.2-2.2h-5l.7-3.6h4.2V59.9h-4.9V59h5.9v4.1h-1v-.4h-3.4Zm7.6-6h1V70h-1Z" stroke="#000" stroke-miterlimit="10" stroke-width="0.05"/><path d="M568.1,247.8c3.4-2,5.2-5.4,5.4-10.4h1a16.6,16.6,0,0,1-.2,2.4c.9,3.9,2.8,6.5,5.4,7.7a7.6,7.6,0,0,0-.8,1.1c-2.4-1.3-4-3.7-5-7a11.5,11.5,0,0,1-5.1,7.1Z" stroke="#000" stroke-miterlimit="10" stroke-width="0.05"/><path d="M591.8,247.9a3.5,3.5,0,0,0-.6.9c-2.6-.5-4.3-1.5-5.3-3.2-.7,1.7-2.5,2.8-5.3,3.3l-.5-.9c2.7-.3,4.3-1.2,4.9-2.7h-4.6v-.8h4.9c0-.3.1-.6.1-1h1c-.1.4-.1.7-.2,1h5.2v.8h-4.7A6.4,6.4,0,0,0,591.8,247.9Zm-11.3-7.7h5v-2.9h.9v2.9h4.9v.8h-4.9v.7l.3-.4,4.9,1.9-.4.8-4.8-2.1v1.2h-.9v-1.9a12.9,12.9,0,0,1-4.8,2.8,3.5,3.5,0,0,0-.5-.8,12.1,12.1,0,0,0,4.4-2.2h-4.1Zm1.1-1.9.6-.7,2,1.6-.6.7Zm8.7,0-2.2,1.6-.6-.6,2.1-1.7Z" stroke="#000" stroke-miterlimit="10" stroke-width="0.05"/><path d="M592,245.3l2.9-.7a2.5,2.5,0,0,0,.1.9l-2.9.7Zm1.7-5.8-.3,3.2h1.2l.3-3.9h-2.6V238h3.5l-.4,4.7h.8c-.1,1.7-.1,3-.2,4.1s-.5,1.8-1.5,1.8H593a4.4,4.4,0,0,0-.2-1h1.5c.6,0,.9-.3.9-1a29.2,29.2,0,0,0,.1-3.2h-2.8l.4-4Zm6.8-2.2-.2.4a9.7,9.7,0,0,0,3.5,3.7l-.6.8a12,12,0,0,1-3.4-3.7,13.1,13.1,0,0,1-3.3,3.8l-.6-.7a10.1,10.1,0,0,0,3.6-4.3Zm-4.2,10.1h4.2a31.2,31.2,0,0,0,1.5-4.3l.9.3-1.5,4h2.1v.8h-7.2Zm.6-3.7.8-.3,1,3-.9.3Zm.6-2h4.8v.8h-4.8Zm1.4,1.5.8-.3c.3,1.2.6,2.2.8,3.1l-.8.2C599.4,245.2,599.2,244.1,598.9,243.2Z" stroke="#000" stroke-miterlimit="10" stroke-width="0.05"/><path d="M607.7,244.4a9.3,9.3,0,0,0,.3,1l-2.2,2.2-.7-.7a1.9,1.9,0,0,0,.4-1.2V242h-1.4v-.8h2.3v4.5Zm-2.5-7a23.4,23.4,0,0,1,1.9,2.1l-.8.7a16.8,16.8,0,0,0-1.8-2.1Zm1.8,9.9h1.7v-6.5h.9v6.5h1.8v-8.6h-3.7v-.8h7.8v.8h-3.1v3.6h2.7v.8h-2.7v4.2h3.3v.9H607Z" stroke="#000" stroke-miterlimit="10" stroke-width="0.05"/><path d="M496.9,244.6a13.3,13.3,0,0,0,1.9-4.2H497v-.8h1.9v-2.3h.8v2.3h1.6v.8h-1.6v1.9l.5-.4,1.4,1.3-.6.6-1.3-1.3v6.2h-.8v-6.3a13.6,13.6,0,0,1-1.6,3.2Zm6.2-5.7v3.9c0,2.8-.7,4.8-2.1,6.1l-.7-.8a6.6,6.6,0,0,0,1.9-5.1v-5h4.3v8.8c0,.4.1.6.4.6h.3c.2,0,.4-.2.5-.6s.1-1.3.1-2l.9.4a9.2,9.2,0,0,1-.2,1.9q-.2,1.2-1.2,1.2h-.6c-.8,0-1.1-.4-1.1-1.3v-8.1Z" stroke="#000" stroke-miterlimit="10" stroke-width="0.05"/><path d="M509.3,242.2h4.8a3,3,0,0,0,.2-1h.8a2.9,2.9,0,0,1-.2.9h2.6l-1-.7.5-.5,1.4.9-.3.3h2.2v.8h-4.5c.9.8,2.5,1.3,4.8,1.2a4.1,4.1,0,0,0-.5.9h-.6v3.5h-.8V248h-2.5v.6h-.9V245h3.8c-2.3-.3-3.7-1-4.3-2h-.2c-.5.9-1.9,1.6-4.3,2h3.8v3.6h-.8V248h-2.5v.6H510v-3.5h-.7a5.9,5.9,0,0,0-.4-.8c2.6-.4,4.1-.8,4.7-1.4h-4.3Zm.7-4.3h4.1v3.4h-.9V241h-2.4v.5H510Zm3.2.8h-2.4v1.5h2.4Zm.1,7h-2.5v1.6h2.5Zm2-7.8h4.2v3.5h-.8V241h-2.5v.3h-.9Zm3.4.8h-2.5v1.5h2.5Zm0,7h-2.5v1.6h2.5Z" stroke="#000" stroke-miterlimit="10" stroke-width="0.05"/><path d="M521,244.7h5.5V244l2.3-1.2h-5.6v-.9h6.9v1l-2.6,1.5v.3h5v.8h-5v1.8a1.3,1.3,0,0,1-1.4,1.4h-1.8c-.1-.3-.1-.6-.2-1h1.8c.4,0,.6-.2.6-.7v-1.6H521Zm.4-4.8h10.7v2.4h-.9v-1.5h-8.8v1.5h-1Zm1-1.9.6-.5,1.5,1.7-.8.6Zm3.1-.4.8-.4a21.4,21.4,0,0,1,1.3,1.9l-.8.5Zm3.3,1.6a6.5,6.5,0,0,0,1.5-1.8l.9.6-1.7,1.8Z" stroke="#000" stroke-miterlimit="10" stroke-width="0.05"/><path d="M533.4,245.7l8.1-2.7v1l-7.7,2.7Zm.3-7.5h9.8c-.1,3.7-.2,6.2-.2,7.6a2.4,2.4,0,0,1-2.7,2.6h-2.2a4.4,4.4,0,0,0-.2-1h2.3a2,2,0,0,0,1.4-.5,2.1,2.1,0,0,0,.4-1.4c.1-1.9.1-4,.2-6.3h-8.8Zm1.2,2.7.5-.7,4,1.8-.5.9C537.4,242.1,536.1,241.4,534.9,240.9Z" stroke="#000" stroke-miterlimit="10" stroke-width="0.05"/><path d="M238.2,80.3l1.7-.5V77.3h-1.6v-.8h1.6V74.2h.9v2.3h1.4v.8h-1.4v2.2l1.3-.4V80l-1.3.5v3.7c0,.9-.4,1.3-1.2,1.3h-1.1c0-.3-.1-.7-.1-1h1c.3,0,.5-.2.5-.6V80.8l-1.6.5Zm4.3-.8v-.8h3.1V76.9h-3.1V76h3.1V74.1h.9V76h3.2v.9h-3.2v1.8H249v.7a9.9,9.9,0,0,1-2.4,3.8,10.1,10.1,0,0,0,3.3,1.6l-.7.9a13,13,0,0,1-3.3-1.9,15.4,15.4,0,0,1-3.6,2,2.4,2.4,0,0,0-.6-.9,12,12,0,0,0,3.6-1.7,10.1,10.1,0,0,1-2-3.7Zm5.5,0h-3.8a8.7,8.7,0,0,0,1.8,3.1A7.9,7.9,0,0,0,248,79.5Z" stroke="#000" stroke-miterlimit="10" stroke-width="0.05"/><path d="M254.7,75.1l1.8,2.7-.8.5-.5-.8-4.6.4-.3-1a4.7,4.7,0,0,0,1.1-1c.4-.6.9-1.2,1.3-1.9l.9.3c-.7.9-1.3,1.8-2.1,2.7l3.2-.3-.8-1.1Zm-2.9,10.4h-.9V78.6h4.8v5.5c0,.9-.4,1.3-1.2,1.3h-1.3a6.4,6.4,0,0,1-.2-.9h1.2a.5.5,0,0,0,.6-.6V83h-3Zm3-6.1h-3v1.1h3Zm-3,2.9h3V81.2h-3Zm5-2.4h.9v1.9a35.2,35.2,0,0,0,3.5-1.6l.5.8a37,37,0,0,1-4,1.8v1c0,.5.2.7.6.7H260c.4,0,.7-.2.7-.6a13.9,13.9,0,0,0,.2-1.5l.9.3a13.7,13.7,0,0,0-.2,1.6c-.1.7-.6,1-1.5,1h-1.9c-.9,0-1.4-.4-1.4-1.3Zm0-5.8h1v2.1l3.2-1.6.5.8-3.7,1.7v.7c0,.5.2.8.6.8h1.5a.7.7,0,0,0,.8-.6,6.6,6.6,0,0,0,.1-1.5l1,.3a13.7,13.7,0,0,0-.2,1.6,1.5,1.5,0,0,1-1.6,1h-1.7c-1,0-1.5-.5-1.5-1.4Z" stroke="#000" stroke-miterlimit="10" stroke-width="0.05"/><path d="M262.6,82h5v-.8h.9V82h5v.7h-4.1a12.2,12.2,0,0,0,4.5,2l-.5.8a11.6,11.6,0,0,1-4.9-2.6v2.8h-.9V82.9a12.2,12.2,0,0,1-4.9,2.6l-.5-.7a11.7,11.7,0,0,0,4.5-2.1h-4.1Zm5.2-7.5.7-.5.9,1.2-.6.4h4.5v.7h-4.4v.8h3.9v.7h-3.9v.8h3.9v.7h-3.9v.9h4.5v.7h-8.6v.5H264V77.2a6.8,6.8,0,0,1-1.2,1.2l-.6-.7a14.2,14.2,0,0,0,2.9-3.5l.8.3-.7,1.1h3.3Zm-3,2.6h3.3v-.8h-3.3Zm0,1.5h3.3v-.8h-3.3Zm0,1.6h3.3v-.9h-3.3Z" stroke="#000" stroke-miterlimit="10" stroke-width="0.05"/><path d="M274.8,78.2c0-.2,0-.4.2-.5s.3-.2.5-.2.4,0,.5.2a.5.5,0,0,1,.3.5.8.8,0,0,1-.2.5l-.6.3a.5.5,0,0,1-.5-.3C274.8,78.6,274.8,78.4,274.8,78.2Zm0,5.3c0-.2,0-.4.2-.5a.5.5,0,0,1,.5-.3l.6.3a.7.7,0,0,1,0,1,.7.7,0,0,1-.6.2c-.2,0-.4,0-.5-.2S274.8,83.7,274.8,83.5Z" stroke="#000" stroke-miterlimit="10" stroke-width="0.05"/><path d="M241.2,15.8a3,3,0,0,0,.2,1,21.1,21.1,0,0,0-2.3,1.9l-.6.6-.7-.7a1.4,1.4,0,0,0,.4-1.1V13.6h-1.6v-.8h2.5v4.7Zm-2.8-6.7,2,2.1-.8.7-1.9-2.2Zm5.2-.1h.9v3c.4,3.6,1.7,6,3.8,7.3l-.7.9a8.9,8.9,0,0,1-3.4-5.6,9.9,9.9,0,0,1-3.6,5.8l-.7-.7a9,9,0,0,0,3.6-7.7A28.1,28.1,0,0,0,243.6,9Z" stroke="#000" stroke-miterlimit="10" stroke-width="0.05"/><path d="M248.7,14.1h2.4a21,21,0,0,0,.1-2.7h-1a17.1,17.1,0,0,1-.7,1.8l-.9-.3a15.7,15.7,0,0,0,1.4-4l.9.2c-.1.5-.3,1-.4,1.5h3.6v.8h-2v2.7h2.2V15H252c0,.2-.1.4-.1.6l2.6,3-.8.6-2-2.5a7.9,7.9,0,0,1-2.5,3.7l-.7-.8A6.5,6.5,0,0,0,251,15h-2.3Zm6.1-3.9h5v10h-1V19h-3.1v1.2h-.9Zm4,.8h-3.1v7.1h3.1Z" stroke="#000" stroke-miterlimit="10" stroke-width="0.05"/><path d="M260.6,15.1l1.7-.5V12.1h-1.6v-.8h1.6V9h.9v2.3h1.4v.8h-1.4v2.2l1.3-.4v.9l-1.3.4V19c0,.9-.4,1.3-1.2,1.3h-1.1c-.1-.3-.1-.7-.2-1h1.1c.3,0,.5-.2.5-.6V15.5l-1.6.6Zm4.3-.9v-.7h3V11.7h-3v-.9h3V8.9h1v1.9h3.2v.9h-3.2v1.8h2.5v.7A11.2,11.2,0,0,1,269,18a10.1,10.1,0,0,0,3.3,1.6l-.8.9a19.3,19.3,0,0,1-3.2-1.9,15.2,15.2,0,0,1-3.6,1.9l-.6-.8a12,12,0,0,0,3.6-1.7,8.6,8.6,0,0,1-2-3.8Zm5.5,0h-3.8a7.2,7.2,0,0,0,1.8,3.2A7.6,7.6,0,0,0,270.4,14.2Z" stroke="#000" stroke-miterlimit="10" stroke-width="0.05"/><path d="M277,9.9a19.3,19.3,0,0,1,1.9,2.7l-.8.5a5.6,5.6,0,0,1-.5-.8l-4.6.4-.4-1a3,3,0,0,0,1.2-1.1A14,14,0,0,0,275,8.8l1,.3-2.1,2.7,3.2-.3-.8-1.1Zm-2.8,10.4h-.9V13.4h4.8v5.5c0,.9-.4,1.3-1.2,1.3h-1.3a6.4,6.4,0,0,1-.2-.9h1.2c.3,0,.5-.2.5-.6v-1h-2.9Zm2.9-6.2h-2.9v1.2h2.9Zm-2.9,3h2.9V16h-2.9Zm5-2.4h.9v1.9a35.2,35.2,0,0,0,3.5-1.6l.5.8-4,1.8v1c0,.5.2.7.6.7h1.7a.7.7,0,0,0,.7-.6c0-.3.1-.8.1-1.5l.9.3a6.3,6.3,0,0,1-.2,1.6c-.1.7-.5,1-1.4,1h-2c-.9,0-1.3-.4-1.3-1.4Zm0-5.8h.9v2a18.7,18.7,0,0,0,3.2-1.5l.6.8-3.8,1.7v.7c0,.5.2.8.6.8h1.5a.8.8,0,0,0,.9-.6c0-.4.1-.9.1-1.5l.9.3a6.3,6.3,0,0,1-.2,1.6c-.1.6-.6,1-1.6,1h-1.7a1.3,1.3,0,0,1-1.4-1.4Z" stroke="#000" stroke-miterlimit="10" stroke-width="0.05"/><path d="M355.6,160.1l1.7-.4v-2.8h-1.6v-.8h1.6v-2.2h.9v2.2h1.6v.8h-1.6v2.5l1.5-.4v.9l-1.5.4v3.6c0,.9-.4,1.3-1.2,1.3h-1.1c0-.3-.1-.6-.1-.9h1c.4,0,.5-.1.5-.5v-3.2l-1.6.5Zm5.7-3.5v3.2a8.5,8.5,0,0,1-1.8,5.7l-.8-.7a6.8,6.8,0,0,0,1.7-4.9v-4.2h3.4l-.9-1.3.8-.5a14.7,14.7,0,0,0,1,1.3l-.7.5h3.2v.9Z" stroke="#000" stroke-miterlimit="10" stroke-width="0.05"/><path d="M375.6,157a36.5,36.5,0,0,1,2.9,3.2l-.8.6-.7-.9h-1.7v3.5a1,1,0,0,0,.2.7.8.8,0,0,0,.6.2h1.1a.8.8,0,0,0,.9-.6c0-.3.1-.8.1-1.5l1,.3a6.1,6.1,0,0,1-.2,1.5c-.1.8-.6,1.1-1.6,1.1h-1.5c-.6,0-1-.1-1.2-.4a1.6,1.6,0,0,1-.3-1.1V160h-2.1a5.9,5.9,0,0,1-.7,2.9,6.9,6.9,0,0,1-3.4,2.4l-.6-.9a5.4,5.4,0,0,0,3.1-2,5.2,5.2,0,0,0,.7-2.4h-1.3a2,2,0,0,0-1,.2l-.5-1a2,2,0,0,0,1.1-.6,17,17,0,0,0,2.2-2.4h-4.1v-.8h5.5c-.2-.5-.5-.9-.7-1.3l.8-.4a7.3,7.3,0,0,1,.9,1.3l-.6.4h5.4v.8h-5.9l-2.7,2.8h5.8l-1.3-1.6Z" stroke="#000" stroke-miterlimit="10" stroke-width="0.05"/><path d="M380.1,155.8h1.2c.3-.7.5-1.3.7-1.9l1,.3-.7,1.6h2.3v9.4h-.9v-.9H381v1h-.9Zm3.6.9H381v2.9h2.7Zm-2.7,6.7h2.7v-3H381Zm3.8-5.2a17.4,17.4,0,0,0,1.8-4.3l1,.2-.6,1.7h3.8c-.1,4-.2,6.6-.2,7.6a1.7,1.7,0,0,1-2,1.8h-2.1a5.2,5.2,0,0,1-.2-1.1h0l2.1.2c.8,0,1.1-.4,1.2-1.1s.1-3.4.2-6.5h-3.2l-1,2Zm1,.8.7-.5a20.1,20.1,0,0,1,2.1,2.7l-.9.6C387.2,160.9,386.5,160,385.8,159Z" stroke="#000" stroke-miterlimit="10" stroke-width="0.05"/><path d="M391.8,155.9h5.6l-.9-1.6.9-.4,1,1.6-.9.4H403v.9h-2.1a11.5,11.5,0,0,1-2.7,5.4,16.8,16.8,0,0,0,4.9,2l-.8,1a14.9,14.9,0,0,1-4.9-2.4,15.3,15.3,0,0,1-5,2.5l-.7-.9a18.4,18.4,0,0,0,5-2.2,11.1,11.1,0,0,1-2.7-5.4h-2.2Zm8.1.9h-5a9.3,9.3,0,0,0,2.5,4.8A8.6,8.6,0,0,0,399.9,156.8Z" stroke="#000" stroke-miterlimit="10" stroke-width="0.05"/><path d="M403.4,161.4a11.5,11.5,0,0,0,1.9-4.2h-1.7v-.8h1.7V154h.9v2.4h1.7v.8h-1.7V159l.4-.4,1.7,1.7-.7.7a10.7,10.7,0,0,0-1.4-1.6v6h-.9v-6a18,18,0,0,1-1.4,3.1Zm4.2,2.5h6.2v-2h-5.7v-.8h5.7v-2h-5.9v-.8h3V154h.9v4.3h2.9v7.1h-.9v-.6h-6.2Zm0-8.8.8-.5,1.7,2.5-.9.5C408.7,156.8,408.2,155.9,407.6,155.1Zm5.1,2,1.6-2.5.8.5a29.4,29.4,0,0,1-1.7,2.6Z" stroke="#000" stroke-miterlimit="10" stroke-width="0.05"/><path d="M374.2,231.6l.6-.5.8.8,1.2-1.6h-3.3v-.8h4.4v.8l-1.7,2.1.4.5-.5.4h2.1v.7c-.1.6-.3,1.3-.5,2.1l-.9-.2a18.9,18.9,0,0,0,.6-1.8h-1.2V239c0,.9-.4,1.4-1.3,1.4h-1.3c0-.3-.1-.6-.1-1h1.2c.4,0,.6-.3.6-.8v-4.6h-1.9v-.8h2.3Zm7,1.6h.8v1.7a8.3,8.3,0,0,1-.3,2.4l3.3,2.4-.6.8-3.1-2.4-.2.3a8.3,8.3,0,0,1-3,2.2,8.1,8.1,0,0,0-.6-.8,7.7,7.7,0,0,0,2.9-2,4.8,4.8,0,0,0,.8-2.9Zm-2.4-1.3h2l.3-1.6h-2.7v-.8H385v.8h-3l-.3,1.6h2.8v5.8h-.9v-5h-4v5h-.8Z" stroke="#000" stroke-miterlimit="10" stroke-width="0.05"/><path d="M385.9,232.2l1.8,1.6-.6.7-1.8-1.6Zm.9,3.4,1,.4c-.6,2-.9,3.4-1.2,4.4l-.9-.5A38.3,38.3,0,0,0,386.8,235.6Zm-.4-6.4,1.8,1.6-.7.7-1.7-1.7Zm3.8,2.2h.9v3a10.9,10.9,0,0,1-.3,2.8l2.6,2.1-.6.7-2.3-2a6,6,0,0,1-2.7,2.5l-.5-.7a6.7,6.7,0,0,0,2.4-2.3,8,8,0,0,0,.5-3.1Zm-1.8-1.8h4.4V237H392v-6.6h-2.8V237h-.8Zm7.3-.6h.8v9.9c0,.9-.4,1.4-1.3,1.4h-1.3c-.1-.3-.1-.6-.2-1H395a.6.6,0,0,0,.7-.7Zm-1.1,8.7h-.8v-7.8h.8Z" stroke="#000" stroke-miterlimit="10" stroke-width="0.05"/><path d="M361.7,259.3h2.4c0-.7.1-1.6.1-2.7h-1a13.4,13.4,0,0,0-.7,1.8l-.9-.4a15.7,15.7,0,0,0,1.4-4l.9.2a15.5,15.5,0,0,1-.4,1.5H367v.9h-1.9a21,21,0,0,1-.1,2.7h2.3v.8H365a1.3,1.3,0,0,0-.1.6c1,1.1,1.8,2.2,2.5,3.1l-.8.6-2-2.6a6.9,6.9,0,0,1-2.5,3.8l-.6-.8a6.5,6.5,0,0,0,2.5-4.7h-2.3Zm6.1-4h5v10h-1v-1.2h-3.1v1.2h-.9Zm4,.9h-3.1v7.1h3.1Z" stroke="#000" stroke-miterlimit="10" stroke-width="0.05"/><path d="M377.8,261.6a3.8,3.8,0,0,0,.1,1l-2,1.5-.5.6-.7-.8a1.5,1.5,0,0,0,.4-1v-4.1h-1.5V258H376v5Zm-2.5-7.3,1.9,1.9-.8.7-1.7-2Zm4.3,7.3.8.5a32.8,32.8,0,0,1-3.1,3.4l-.7-.6A23.5,23.5,0,0,0,379.6,261.6Zm-1.6-6.7h6.4V261h-.9v-.7h-4.6v.7H378Zm5.5.8h-4.6v3.8h4.6Zm-1.7,6.5.8-.6,2.8,3.2-.9.7A29.7,29.7,0,0,0,381.8,262.2Z" stroke="#000" stroke-miterlimit="10" stroke-width="0.05"/><path d="M385.7,255.3H389c.2-.4.3-.8.5-1.3l.9.2a3.6,3.6,0,0,1-.4,1.1h7.2v.9h-7.5a24.4,24.4,0,0,1-1.4,2.8v6.5h-.9v-5.2a10.1,10.1,0,0,1-1.3,1.6,2.4,2.4,0,0,0-.6-.8,16.6,16.6,0,0,0,3.2-4.9h-3Zm3.2,5.4h4v-.8a12.5,12.5,0,0,0,2.2-1.6h-5.5v-.8h6.8v.9a24.8,24.8,0,0,1-2.6,1.9v.4h3.5v.8h-3.5v2.7c0,.9-.4,1.3-1.3,1.3h-1.7c-.1-.3-.1-.6-.2-1h1.7a.5.5,0,0,0,.6-.6v-2.5h-4Z" stroke="#000" stroke-miterlimit="10" stroke-width="0.05"/><path d="M397.5,259.8a19.6,19.6,0,0,0,2.1-5.7h.9c-.3.9-.5,1.7-.8,2.5v8.9h-.8v-6.8c-.3.7-.7,1.3-1,2Zm5.8,2.6v.9l-2,1.5-.5-.7a1.2,1.2,0,0,0,.4-.9v-4.4h-1.1V258H402v5.3Zm-1.8-7.9,1.1,2.1-.8.4-1-2.2Zm1.2,3.5h2.1v-1.6h-1.7v-.8h1.7v-1.5h.9v1.5h1.6v.8h-1.6V258h.3a16.1,16.1,0,0,0,2.1-3l.8.4a15.1,15.1,0,0,1-1.8,2.6h2.1v.8h-2.8l-1.2,1h3.1v5.7h-.8v-.8h-2.7v.8H404v-4.7l-1.2.7-.5-.7a16.4,16.4,0,0,0,2.9-2h-2.5Zm4.8,2.6h-2.7v1.3h2.7Zm-2.7,3.4h2.7v-1.4h-2.7Z" stroke="#000" stroke-miterlimit="10" stroke-width="0.05"/><path d="M508.7,181.5a16,16,0,0,0,1.7-4.2h-1.6v-.7h1.7v-2.4h.8v2.4h1.6v.7h-1.6v1.8l.5-.4a15.8,15.8,0,0,1,1.2,1.5l-.7.5-1-1.5v6.5h-.8v-6.6a13.9,13.9,0,0,1-1.4,3.4A4.2,4.2,0,0,0,508.7,181.5Zm8.4-7.2-.2.2a10.3,10.3,0,0,0,3.5,3.7l-.6.8a10.8,10.8,0,0,1-3.4-3.7,15,15,0,0,1-3.2,3.8l-.7-.7a11.2,11.2,0,0,0,3.4-4.1Zm-4.5,10h4.5c.4-1.1.8-2.6,1.3-4.3l.9.2c-.5,1.7-1,3-1.4,4.1h2.3v.9h-7.6Zm.6-3.9.8-.2c.3.9.6,1.9.9,3.2l-.9.2A29.9,29.9,0,0,0,513.2,180.4Zm.8-1.9h4.8v.8H514Zm1.4,1.5.8-.2a29.9,29.9,0,0,1,.8,3.2l-.9.2A22.1,22.1,0,0,0,515.4,180Z" stroke="#000" stroke-miterlimit="10" stroke-width="0.05"/><path d="M524,182.7l.5.7-3.2,2-.6-.8A13.5,13.5,0,0,0,524,182.7Zm4.8-2.7a24.5,24.5,0,0,1,2.9,2.3l-.7.6-.8-.7h-3v1.8c0,.9-.6,1.4-1.6,1.4h-1.5a2.8,2.8,0,0,0-.1-.9h1.4c.6,0,.8-.3.8-.8v-1.5h-2.3l-1.3.2-.4-1a4.3,4.3,0,0,0,1.6-.5l2.1-1.1h-1.8l-.9.2-.3-.8,1-.5a7.9,7.9,0,0,0,1.5-1.2h-3.3v1.4h-1v-2.2h5V176h-4.6v-.8h4.6v-1.1h.9v1.1h4.6v.8H527v1.1h4.9v2.2H531v-1.4h-4.4l-2.3,1.7H527a9.7,9.7,0,0,0,1.5-1.1l.8.6a51.3,51.3,0,0,1-5,2.7l5.1-.2a6.3,6.3,0,0,0-1.2-1Zm-.1,2.8,3.6,1.8-.5.8a29.5,29.5,0,0,0-3.6-1.9Z" stroke="#000" stroke-miterlimit="10" stroke-width="0.05"/><path d="M579.7,178.8a14.1,14.1,0,0,0,4.1-4.6l.8.4a14.9,14.9,0,0,1-4.2,5Zm1.6.4h7.8c-.1,1.3-.1,2.6-.2,3.9s-.8,2.2-2.1,2.2h-2c0-.3-.1-.6-.1-1l2,.2c.8,0,1.2-.5,1.3-1.4s.1-1.8.1-2.9h-3.6a8.2,8.2,0,0,1-.8,3.1,5.3,5.3,0,0,1-3,2.4l-.7-.7a5.2,5.2,0,0,0,2.8-2.1,5.4,5.4,0,0,0,.7-2.7h-2.2Zm4.8-4.9.9-.3a8.6,8.6,0,0,0,4.5,4.7,3.2,3.2,0,0,0-.8.9A11.3,11.3,0,0,1,586.1,174.3Z" stroke="#000" stroke-miterlimit="10" stroke-width="0.05"/><path d="M591.7,181.4a11.8,11.8,0,0,0,1.9-4.1h-1.7v-.8h1.7v-2.4h.9v2.4h1.6v.8h-1.6v1.3l.4-.3a14.6,14.6,0,0,1,1.5,2l-.7.5a18.8,18.8,0,0,0-1.2-1.8v6.5h-.9v-6a11.2,11.2,0,0,1-1.4,2.9Zm5.1-6.4a39,39,0,0,0,5.8-.5l.3.8a29.6,29.6,0,0,1-5.2.5v2.6h5.7v.9h-2.2v6.2h-.9v-6.2h-2.6v.4a8.7,8.7,0,0,1-1.9,5.9l-.7-.8a7,7,0,0,0,1.7-5.1Z" stroke="#000" stroke-miterlimit="10" stroke-width="0.05"/></svg>