<svg xmlns="http://www.w3.org/2000/svg" viewBox="0 0 670.59 314.9"><defs><style>.cls-1,.cls-27{fill:#fff;}.cls-11,.cls-2{fill:#50e6ff;}.cls-2{opacity:0.15;}.cls-2,.cls-27,.cls-7,.cls-8,.cls-9{isolation:isolate;}.cls-3{fill:#59b4d9;}.cls-4{fill:#3999c6;}.cls-5,.cls-9{fill:#7fba00;}.cls-6{fill:#b8d432;}.cls-15,.cls-7,.cls-8{fill:#0072c6;}.cls-7{opacity:0.45;}.cls-8{opacity:0.25;}.cls-9{opacity:0.7;}.cls-10{fill:#0078d4;}.cls-12{fill:#a0a1a2;}.cls-13{fill:#7a7a7a;}.cls-14{fill:#3e3e3e;}.cls-15,.cls-16{stroke:#0072c6;}.cls-15{stroke-width:0.79px;}.cls-16{fill:#0078d7;stroke-width:0.63px;}.cls-17,.cls-29{fill:none;}.cls-17{stroke:#000;}.cls-17,.cls-31{stroke-miterlimit:10;}.cls-18{fill:#f25022;}.cls-19{fill:#00a4ef;}.cls-20{fill:#ffb900;}.cls-21{fill:#3c5b92;}.cls-22{fill:#0080b5;}.cls-23{fill:#dc4335;}.cls-24{fill:#f1f2f2;}.cls-25{fill-opacity:0;}.cls-26{fill:#3c3c41;}.cls-27{opacity:0.2;}.cls-28{fill:#75757a;}.cls-29{stroke:#75757a;stroke-linecap:round;stroke-linejoin:round;stroke-width:1.15px;}.cls-30,.cls-31{fill:#1e1e1e;}.cls-31{stroke:#1e1e1e;stroke-width:0.06px;}</style></defs><title>OJ104327290</title><g id="bg"><g id="Shapes"><rect class="cls-1" y="0.58" width="670.59" height="314.32"/><rect class="cls-1" x="301.38" y="15.78" width="369.21" height="299.11"/><rect class="cls-2" x="301.38" y="15.78" width="369.21" height="299.11"/><path class="cls-3" d="M637.21,264.2h.14c5,0,9-1.44,9-3.26V243.52H637.2V264.2Z" transform="translate(0 0.58)"/><path class="cls-4" d="M628.33,243.47v17.42c0,1.82,4,3.26,9,3.26V243.46h-9Z" transform="translate(0 0.58)"/><path class="cls-1" d="M646.38,243.47c0,1.82-4,3.26-9,3.26s-9-1.44-9-3.26,4-3.26,9-3.26,9,1.43,9,3.26" transform="translate(0 0.58)"/><path class="cls-5" d="M644.51,243.27c0,1.2-3.22,2.16-7.15,2.16s-7.15-1-7.15-2.16,3.22-2.16,7.15-2.16,7.15,1,7.15,2.16" transform="translate(0 0.58)"/><path class="cls-6" d="M643,244.62c1-.38,1.49-.86,1.49-1.34,0-1.2-3.22-2.16-7.15-2.16s-7.15,1-7.15,2.16c0,.48.53,1,1.49,1.34a17.54,17.54,0,0,1,5.66-.86,17.32,17.32,0,0,1,5.66.86" transform="translate(0 0.58)"/><rect class="cls-1" x="337.38" y="30.78" width="299" height="25"/><rect class="cls-7" x="337.38" y="30.78" width="299" height="25"/><rect class="cls-1" x="126.42" y="70.78" width="164.81" height="40"/><rect class="cls-7" x="126.42" y="70.78" width="164.81" height="40"/><rect class="cls-1" x="126.32" y="125.78" width="165" height="40"/><rect class="cls-7" x="126.32" y="125.78" width="165" height="40"/><rect class="cls-1" x="126.42" y="181.47" width="164.81" height="50"/><rect class="cls-8" x="126.42" y="181.47" width="164.81" height="50"/><rect class="cls-1" x="336.38" y="125.78" width="301" height="40"/><rect class="cls-8" x="336.38" y="125.78" width="301" height="40"/><rect class="cls-1" x="311.38" y="180.78" width="115.05" height="50"/><rect class="cls-8" x="311.38" y="180.78" width="115.05" height="50"/><rect class="cls-1" x="551.38" y="180.78" width="110" height="50"/><rect class="cls-8" x="551.38" y="180.78" width="110" height="50"/><rect class="cls-1" x="436.35" y="180.78" width="105" height="50"/><rect class="cls-8" x="436.35" y="180.78" width="105" height="50"/><rect class="cls-1" x="336.38" y="70.78" width="301" height="40"/><rect class="cls-9" x="336.38" y="70.78" width="301" height="40"/><path class="cls-10" d="M311.44,196.89a1.93,1.93,0,0,1-1.42-.6l-9-9a2,2,0,0,1-.6-1.42,1.93,1.93,0,0,1,.6-1.42l9-9a2,2,0,0,1,1.42-.6,1.93,1.93,0,0,1,1.42.6l9,9a2,2,0,0,1,.6,1.42,1.93,1.93,0,0,1-.6,1.42l-9,9A1.93,1.93,0,0,1,311.44,196.89Z" transform="translate(0 0.58)"/><path class="cls-11" d="M318.27,185.91l-4.62-4.62-.64.92,4.44,4.48Z" transform="translate(0 0.58)"/><path class="cls-11" d="M311.8,179.48l-.78.78,2,2,.64-.92Z" transform="translate(0 0.58)"/><path class="cls-11" d="M304.64,185.91l6.43-6.43.78.78-6.43,6.43Z" transform="translate(0 0.58)"/><path class="cls-1" d="M317.45,184.17a1.71,1.71,0,0,0-1.71,1.71,1.83,1.83,0,0,0,.28,1l-3.41,3.41-.28-.18V181.4a1.71,1.71,0,1,0-2.57-1.49,1.79,1.79,0,0,0,.85,1.49v8.71c-.11,0-.18.11-.28.14l-3.41-3.41a1.71,1.71,0,1,0-3.14-.92,1.74,1.74,0,0,0,1.71,1.71,1.52,1.52,0,0,0,.57-.11l3.59,3.59a1.9,1.9,0,0,0-.18.78,2,2,0,1,0,4,0,2.83,2.83,0,0,0-.14-.78l3.59-3.59a1.48,1.48,0,0,0,.53.11,1.73,1.73,0,0,0,0-3.46Z" transform="translate(0 0.58)"/><path class="cls-11" d="M312.79,191.93a1.33,1.33,0,1,1-1.33-1.33A1.37,1.37,0,0,1,312.79,191.93Z" transform="translate(0 0.58)"/><path class="cls-11" d="M312.4,179.9a1,1,0,1,1-1-1A1,1,0,0,1,312.4,179.9Z" transform="translate(0 0.58)"/><path class="cls-11" d="M306.39,185.91a1,1,0,1,1-1-1A1,1,0,0,1,306.39,185.91Z" transform="translate(0 0.58)"/><path class="cls-11" d="M318.37,185.91a1,1,0,1,1-1-1A1,1,0,0,1,318.37,185.91Z" transform="translate(0 0.58)"/><path class="cls-12" d="M180.18,282.31a1.39,1.39,0,0,1-1.4,1.4h-14a1.39,1.39,0,0,1-1.4-1.4v-25.2a1.39,1.39,0,0,1,1.4-1.4h13.94a1.39,1.39,0,0,1,1.4,1.4v25.2Z" transform="translate(0 0.58)"/><rect class="cls-13" x="165.62" y="265.25" width="3.36" height="3.92"/><rect class="cls-13" x="170.1" y="265.25" width="3.36" height="3.92"/><rect class="cls-13" x="174.58" y="265.25" width="3.36" height="3.92"/><rect class="cls-13" x="165.62" y="271.41" width="3.36" height="3.92"/><rect class="cls-13" x="170.1" y="271.41" width="3.36" height="3.92"/><rect class="cls-13" x="174.58" y="271.41" width="3.36" height="3.92"/><path class="cls-14" d="M180.07,283.21l1.18.5.11-.17.95-1.12h.95l1.12,1.29,1.18-.5V283l-.11-1.46.67-.67,1.68.11.5-1.23-.11-.17-1.12-.95v-1l1.23-1.12-.45-1.23h-.17l-1.46.11-.67-.67.11-1.68-1.23-.56-.11.17-.95,1.12h-1l-1.12-1.29-1.18.5v.22l.11,1.46-.67.67-1.68-.11-.5,1.23.17.11,1.12,1v1l-1.23,1.12.5,1.23h.17l1.46-.11.67.73Zm.39-6.16a2.64,2.64,0,0,1,3.47-1.46,2.72,2.72,0,0,1,1.4,3.53,2.65,2.65,0,1,1-4.87-2.07" transform="translate(0 0.58)"/><path class="cls-1" d="M359.26,258.38H338.88v.07l-.59,0a6.83,6.83,0,0,1-5.92-6.52,6.62,6.62,0,0,1,5.56-6.46c0-.2,0-.39,0-.58a8.78,8.78,0,0,1,4.7-7.66l-.13-.13.69-.32a9.44,9.44,0,0,1,11.63,3.07,5.24,5.24,0,0,1,2.68-.73,5.56,5.56,0,0,1,5.4,5.46,1.48,1.48,0,0,1,0,.21,7,7,0,0,1,1.57,1.41,7.39,7.39,0,0,1,1.94,5,7.17,7.17,0,0,1-6.57,7.3l-.54,0v-.08Z" transform="translate(0 0.58)"/><path class="cls-15" d="M363.32,246.54a6.24,6.24,0,0,0-1.63-1.4,3.59,3.59,0,0,0,0-.47,4.6,4.6,0,0,0-7.32-3.81,8.3,8.3,0,0,0-7.13-3.94,8.52,8.52,0,0,0-3.58.78l.11.11a7.74,7.74,0,0,0-4.76,8.13,5.85,5.85,0,0,0-5.34,5.72,6,6,0,0,0,5.19,5.71v0h20.38v.07a6.31,6.31,0,0,0,5.78-6.45A6.54,6.54,0,0,0,363.32,246.54Z" transform="translate(0 0.58)"/><path class="cls-1" d="M407.23,289.27H391.9v.05l-.44,0a5.14,5.14,0,0,1-4.45-4.91,5,5,0,0,1,4.19-4.86c0-.15,0-.29,0-.44a6.6,6.6,0,0,1,3.53-5.76l-.1-.1.52-.24a7.15,7.15,0,0,1,3-.65,7,7,0,0,1,5.75,3,4,4,0,0,1,5.53,1.55,3.91,3.91,0,0,1,.55,2V279a5.4,5.4,0,0,1,1.18,1.06,5.53,5.53,0,0,1,1.46,3.74,5.41,5.41,0,0,1-4.95,5.5l-.41,0v-.06Z" transform="translate(0 0.58)"/><path class="cls-16" d="M410.29,280.36a4.58,4.58,0,0,0-1.23-1.05c0-.12,0-.23,0-.35a3.47,3.47,0,0,0-5.52-2.86,6.24,6.24,0,0,0-5.37-3,6.34,6.34,0,0,0-2.69.59l.08.08a5.92,5.92,0,0,0-3.63,5.38,6,6,0,0,0,.05.74,4.41,4.41,0,0,0-4,4.3,4.53,4.53,0,0,0,3.91,4.3v0h15.34v.05a4.75,4.75,0,0,0,4.35-4.86A4.9,4.9,0,0,0,410.29,280.36Z" transform="translate(0 0.58)"/><path class="cls-12" d="M396.32,305.8a1.39,1.39,0,0,1-1.4,1.4h-14a1.39,1.39,0,0,1-1.4-1.4V280.6a1.39,1.39,0,0,1,1.4-1.4h13.94a1.39,1.39,0,0,1,1.4,1.4v25.2Z" transform="translate(0 0.58)"/><rect class="cls-13" x="381.76" y="288.74" width="3.36" height="3.92"/><rect class="cls-13" x="386.24" y="288.74" width="3.36" height="3.92"/><rect class="cls-13" x="390.72" y="288.74" width="3.36" height="3.92"/><rect class="cls-13" x="381.76" y="294.9" width="3.36" height="3.92"/><rect class="cls-13" x="386.24" y="294.9" width="3.36" height="3.92"/><rect class="cls-13" x="390.72" y="294.9" width="3.36" height="3.92"/><path class="cls-14" d="M396.21,306.7l1.18.5.11-.17.95-1.12h.95l1.12,1.29,1.18-.5v-.17l-.11-1.46.67-.67,1.68.11.5-1.23-.11-.17-1.12-.95v-1l1.23-1.12L404,298.8h-.17l-1.46.11-.67-.67.11-1.68-1.23-.56-.11.17-1,1.12h-.95L397.45,296l-1.18.5v.22l.11,1.46-.67.67-1.68-.11-.5,1.23.17.11,1.12.95v1l-1.23,1.12.5,1.23h.17l1.46-.11.67.73Zm.39-6.16a2.64,2.64,0,0,1,3.47-1.46,2.72,2.72,0,0,1,1.4,3.53,2.64,2.64,0,0,1-3.47,1.46,2.66,2.66,0,0,1-1.4-3.53" transform="translate(0 0.58)"/><path class="cls-12" d="M351.51,305.8a1.39,1.39,0,0,1-1.4,1.4h-14a1.39,1.39,0,0,1-1.4-1.4V280.6a1.39,1.39,0,0,1,1.4-1.4h13.94a1.39,1.39,0,0,1,1.4,1.4v25.2Z" transform="translate(0 0.58)"/><rect class="cls-13" x="336.95" y="288.74" width="3.36" height="3.92"/><rect class="cls-13" x="341.43" y="288.74" width="3.36" height="3.92"/><rect class="cls-13" x="345.91" y="288.74" width="3.36" height="3.92"/><rect class="cls-13" x="336.95" y="294.9" width="3.36" height="3.92"/><rect class="cls-13" x="341.43" y="294.9" width="3.36" height="3.92"/><rect class="cls-13" x="345.91" y="294.9" width="3.36" height="3.92"/><path class="cls-14" d="M351.4,306.7l1.18.5.11-.17.95-1.12h.95l1.12,1.29,1.18-.5v-.17l-.11-1.46.67-.67,1.68.11.5-1.23-.11-.17-1.12-.95v-1l1.23-1.12-.45-1.23H359l-1.46.11-.67-.67.11-1.68-1.23-.56-.11.17-.95,1.12h-.95L352.63,296l-1.18.5v.22l.11,1.46-.67.67-1.68-.11-.5,1.23.17.11L350,301v1l-1.23,1.12.5,1.23h.17l1.46-.11.67.73Zm.39-6.16a2.64,2.64,0,0,1,3.47-1.46,2.72,2.72,0,0,1,1.4,3.53,2.65,2.65,0,1,1-4.87-2.07" transform="translate(0 0.58)"/><line class="cls-17" x1="357.14" y1="289.92" x2="374.45" y2="289.92"/><polygon points="358.24 293.66 351.76 289.92 358.24 286.18 358.24 293.66"/><polygon points="373.36 293.66 379.84 289.92 373.36 286.18 373.36 293.66"/><rect class="cls-18" x="472.85" y="241.47" width="15.21" height="15.21"/><rect class="cls-5" x="489.64" y="241.47" width="15.21" height="15.21"/><rect class="cls-19" x="472.85" y="258.26" width="15.21" height="15.21"/><rect class="cls-20" x="489.64" y="258.26" width="15.21" height="15.21"/><rect class="cls-18" x="561.38" y="240.78" width="9.51" height="9.51"/><rect class="cls-5" x="571.87" y="240.78" width="9.51" height="9.51"/><rect class="cls-19" x="561.38" y="251.28" width="9.51" height="9.51"/><rect class="cls-20" x="571.87" y="251.28" width="9.51" height="9.51"/><circle class="cls-21" cx="603.77" cy="252.78" r="12"/><path class="cls-1" d="M602.11,248.6v1.72h-1.26v2.1h1.26v5.76h2.59v-5.77h1.73s.16-1,.24-2.11h-2v-1.44a.61.61,0,0,1,.56-.5h1.41v-2.19h-1.91C602.05,246.18,602.11,248.29,602.11,248.6Z" transform="translate(0 0.58)"/><rect class="cls-22" x="611.38" y="270.29" width="20" height="20"/><rect class="cls-1" x="616.29" y="278.35" width="2.24" height="6.73"/><path class="cls-1" d="M617.43,274.52a1.16,1.16,0,1,0,0,2.32h0a1.16,1.16,0,1,0,0-2.32Z" transform="translate(0 0.58)"/><path class="cls-1" d="M624,277.61a2.22,2.22,0,0,0-2,1.11v-1h-2.24c0,.63,0,6.73,0,6.73H622v-3.76a1.56,1.56,0,0,1,.07-.55,1.23,1.23,0,0,1,1.15-.82c.81,0,1.13.62,1.13,1.52v3.6h2.24v-3.86C626.6,278.57,625.49,277.61,624,277.61Z" transform="translate(0 0.58)"/><circle class="cls-23" cx="584.88" cy="280.29" r="11.5"/><path class="cls-24" d="M582.22,279.05v1.59h2.64a2.52,2.52,0,0,1-2.64,2,2.94,2.94,0,0,1,0-5.88,2.61,2.61,0,0,1,1.85.72l1.26-1.22a4.44,4.44,0,0,0-3.11-1.22,4.65,4.65,0,1,0,0,9.3,4.29,4.29,0,0,0,4.46-4.54,4.22,4.22,0,0,0-.07-.77h-4.39Z" transform="translate(0 0.58)"/><path class="cls-24" d="M592.18,279.05h-1.33v-1.33h-1.33v1.33h-1.33v1.33h1.33v1.33h1.33v-1.33h1.33Z" transform="translate(0 0.58)"/><path class="cls-17" d="M337.43,42.7H213.88a5,5,0,0,0-5,5V64.82" transform="translate(0 0.58)"/><polygon points="205.14 64.3 208.88 70.78 212.62 64.3 205.14 64.3"/><line class="cls-17" x1="296.76" y1="206.47" x2="311.38" y2="206.47"/><polygon points="297.85 210.21 291.38 206.47 297.85 202.73 297.85 210.21"/><line class="cls-17" x1="486.88" y1="55.78" x2="486.88" y2="65.4"/><polygon points="483.14 64.3 486.88 70.78 490.62 64.3 483.14 64.3"/><line class="cls-17" x1="486.88" y1="110.78" x2="486.88" y2="120.4"/><polygon points="483.14 119.3 486.88 125.78 490.62 119.3 483.14 119.3"/><line class="cls-17" x1="208.82" y1="110.78" x2="208.82" y2="120.4"/><polygon points="205.08 119.3 208.82 125.78 212.56 119.3 205.08 119.3"/><line class="cls-17" x1="486.88" y1="165.78" x2="486.88" y2="175.4"/><polygon points="483.14 174.3 486.88 180.78 490.62 174.3 483.14 174.3"/><line class="cls-17" x1="599.38" y1="165.78" x2="599.38" y2="175.4"/><polygon points="595.64 174.3 599.38 180.78 603.12 174.3 595.64 174.3"/><line class="cls-17" x1="369.38" y1="165.78" x2="369.38" y2="175.4"/><polygon points="365.64 174.3 369.38 180.78 373.12 174.3 365.64 174.3"/><rect class="cls-25" x="337.43" y="18.64" width="40" height="25.14"/><rect class="cls-25" x="337.43" y="18.64" width="40" height="25.14"/><path class="cls-10" d="M377.43,18.06h-40V43.2h40Z" transform="translate(0 0.58)"/><path d="M343.75,18.06h-6.32V43.2h6.32Z" transform="translate(0 0.58)"/><path d="M377.43,18.06h-40v2.1h40Z" transform="translate(0 0.58)"/><path class="cls-1" d="M357.43,22.25H348V32.71h9.47Z" transform="translate(0 0.58)"/><path class="cls-1" d="M368,22.25h-9.47V32.71H368Z" transform="translate(0 0.58)"/><path class="cls-1" d="M357.43,33.78H348V39h9.47Z" transform="translate(0 0.58)"/><path d="M364.46,29.56,368,32.09l3.49,2.52-3.16.93L366.1,38l-.81-4.22Z" transform="translate(0 0.58)"/><path class="cls-26" d="M640.13,251.38a2.79,2.79,0,1,1-5.58,0,2.81,2.81,0,0,1,2.79-2.79,2.77,2.77,0,0,1,2.79,2.79" transform="translate(0 0.58)"/><path class="cls-26" d="M639.19,255.4l-1.37,1.93a.6.6,0,0,1-1,0l-1.37-1.93a.58.58,0,0,0-.48-.25h-2a.6.6,0,0,0-.6.6v5.86a.6.6,0,0,0,.6.6h8.81a.6.6,0,0,0,.6-.6v-5.86a.6.6,0,0,0-.6-.6h-2.08A.61.61,0,0,0,639.19,255.4Z" transform="translate(0 0.58)"/><path class="cls-27" d="M634.58,251.38a2.8,2.8,0,0,0,2.08,2.7.59.59,0,0,0,.72-.51l.55-4.32a.59.59,0,0,0-.59-.67h0a2.77,2.77,0,0,0-2.75,2.8" transform="translate(0 0.58)"/><path class="cls-27" d="M635,255.15h-2a.6.6,0,0,0-.6.6v5.86a.6.6,0,0,0,.6.6h2.82a.59.59,0,0,0,.59-.52l.51-4.1a.57.57,0,0,0-.11-.42l-1.27-1.75A.58.58,0,0,0,635,255.15Z" transform="translate(0 0.58)"/><path class="cls-17" d="M291.38,145.28h30a5,5,0,0,1,5,5v24.54" transform="translate(0 0.58)"/><polygon points="322.64 174.3 326.38 180.78 330.12 174.3 322.64 174.3"/><path class="cls-17" d="M121,206.35h-4.25a5,5,0,0,1-5-5V95.2a5,5,0,0,1,5-5h9.63" transform="translate(0 0.58)"/><polygon points="119.9 203.19 126.38 206.93 119.9 210.67 119.9 203.19"/><path class="cls-28" d="M80.13,1.58A.58.58,0,0,1,79.55,1V0a.58.58,0,0,1,.58-.58A.57.57,0,0,1,80.7,0V1A.57.57,0,0,1,80.13,1.58Z" transform="translate(0 0.58)"/><path class="cls-28" d="M80.13,310.51a.58.58,0,0,1-.58-.58v-2a.58.58,0,1,1,1.16,0v2A.58.58,0,0,1,80.13,310.51Zm0-4a.58.58,0,0,1-.58-.58v-2a.58.58,0,1,1,1.16,0v2A.59.59,0,0,1,80.13,306.5Zm0-4a.58.58,0,0,1-.58-.58v-2a.58.58,0,0,1,1.16,0v2A.59.59,0,0,1,80.13,302.49Zm0-4a.58.58,0,0,1-.58-.58v-2a.58.58,0,0,1,1.16,0v2A.59.59,0,0,1,80.13,298.48Zm0-4a.58.58,0,0,1-.58-.58v-2a.58.58,0,0,1,1.16,0v2A.58.58,0,0,1,80.13,294.46Zm0-4a.58.58,0,0,1-.58-.58v-2a.58.58,0,1,1,1.16,0v2A.59.59,0,0,1,80.13,290.45Zm0-4a.58.58,0,0,1-.58-.58v-2a.58.58,0,1,1,1.16,0v2A.59.59,0,0,1,80.13,286.44Zm0-4a.58.58,0,0,1-.58-.58v-2a.58.58,0,0,1,1.16,0v2A.59.59,0,0,1,80.13,282.43Zm0-4a.58.58,0,0,1-.58-.58v-2a.58.58,0,0,1,1.16,0v2A.59.59,0,0,1,80.13,278.42Zm0-4a.58.58,0,0,1-.58-.58v-2a.58.58,0,0,1,1.16,0v2A.58.58,0,0,1,80.13,274.4Zm0-4a.58.58,0,0,1-.58-.58v-2a.58.58,0,0,1,1.16,0v2A.59.59,0,0,1,80.13,270.39Zm0-4a.58.58,0,0,1-.58-.58v-2a.58.58,0,1,1,1.16,0v2A.59.59,0,0,1,80.13,266.38Zm0-4a.58.58,0,0,1-.58-.58v-2a.58.58,0,0,1,1.16,0v2A.59.59,0,0,1,80.13,262.37Zm0-4a.58.58,0,0,1-.58-.58v-2a.58.58,0,0,1,1.16,0v2A.58.58,0,0,1,80.13,258.35Zm0-4a.58.58,0,0,1-.58-.58v-2a.58.58,0,1,1,1.16,0v2A.59.59,0,0,1,80.13,254.34Zm0-4a.58.58,0,0,1-.58-.58v-2a.58.58,0,1,1,1.16,0v2A.59.59,0,0,1,80.13,250.33Zm0-4a.58.58,0,0,1-.58-.58v-2a.58.58,0,0,1,1.16,0v2A.59.59,0,0,1,80.13,246.32Zm0-4a.58.58,0,0,1-.58-.58v-2a.58.58,0,1,1,1.16,0v2A.59.59,0,0,1,80.13,242.31Zm0-4a.58.58,0,0,1-.58-.58v-2a.58.58,0,0,1,1.16,0v2A.58.58,0,0,1,80.13,238.29Zm0-4a.58.58,0,0,1-.58-.58v-2a.58.58,0,0,1,1.16,0v2A.59.59,0,0,1,80.13,234.28Zm0-4a.58.58,0,0,1-.58-.58v-2a.58.58,0,1,1,1.16,0v2A.59.59,0,0,1,80.13,230.27Zm0-4a.58.58,0,0,1-.58-.58v-2a.58.58,0,0,1,1.16,0v2A.59.59,0,0,1,80.13,226.26Zm0-4a.58.58,0,0,1-.58-.58v-2a.58.58,0,0,1,1.16,0v2A.59.59,0,0,1,80.13,222.25Zm0-4a.58.58,0,0,1-.58-.58v-2a.58.58,0,0,1,1.16,0v2A.58.58,0,0,1,80.13,218.23Zm0-4a.58.58,0,0,1-.58-.58v-2a.58.58,0,0,1,1.16,0v2A.59.59,0,0,1,80.13,214.22Zm0-4a.58.58,0,0,1-.58-.58v-2a.58.58,0,1,1,1.16,0v2A.59.59,0,0,1,80.13,210.21Zm0-4a.58.58,0,0,1-.58-.58v-2a.58.58,0,1,1,1.16,0v2A.59.59,0,0,1,80.13,206.2Zm0-4a.58.58,0,0,1-.58-.58v-2a.58.58,0,1,1,1.16,0v2A.58.58,0,0,1,80.13,202.18Zm0-4a.58.58,0,0,1-.58-.58v-2a.58.58,0,1,1,1.16,0v2A.59.59,0,0,1,80.13,198.17Zm0-4a.58.58,0,0,1-.58-.58v-2a.58.58,0,0,1,1.16,0v2A.59.59,0,0,1,80.13,194.16Zm0-4a.58.58,0,0,1-.58-.58v-2a.58.58,0,1,1,1.16,0v2A.59.59,0,0,1,80.13,190.15Zm0-4a.58.58,0,0,1-.58-.58v-2a.58.58,0,1,1,1.16,0v2A.59.59,0,0,1,80.13,186.14Zm0-4a.58.58,0,0,1-.58-.58v-2a.58.58,0,1,1,1.16,0v2A.58.58,0,0,1,80.13,182.12Zm0-4a.58.58,0,0,1-.58-.58v-2a.58.58,0,0,1,1.16,0v2A.59.59,0,0,1,80.13,178.11Zm0-4a.58.58,0,0,1-.58-.58v-2a.58.58,0,0,1,1.16,0v2A.59.59,0,0,1,80.13,174.1Zm0-4a.58.58,0,0,1-.58-.58v-2a.58.58,0,1,1,1.16,0v2A.59.59,0,0,1,80.13,170.09Zm0-4a.58.58,0,0,1-.58-.58v-2a.58.58,0,0,1,1.16,0v2A.58.58,0,0,1,80.13,166.07Zm0-4a.58.58,0,0,1-.58-.58v-2a.58.58,0,1,1,1.16,0v2A.59.59,0,0,1,80.13,162.06Zm0-4a.58.58,0,0,1-.58-.58v-2a.58.58,0,1,1,1.16,0v2A.59.59,0,0,1,80.13,158.05Zm0-4a.58.58,0,0,1-.58-.58v-2a.58.58,0,0,1,1.16,0v2A.59.59,0,0,1,80.13,154Zm0-4a.58.58,0,0,1-.58-.58v-2a.58.58,0,0,1,1.16,0v2A.59.59,0,0,1,80.13,150Zm0-4a.58.58,0,0,1-.58-.58v-2a.58.58,0,0,1,1.16,0v2A.58.58,0,0,1,80.13,146Zm0-4a.58.58,0,0,1-.58-.58v-2a.58.58,0,1,1,1.16,0v2A.59.59,0,0,1,80.13,142Zm0-4a.58.58,0,0,1-.58-.58v-2a.58.58,0,0,1,1.16,0v2A.59.59,0,0,1,80.13,138Zm0-4a.58.58,0,0,1-.58-.58v-2a.58.58,0,1,1,1.16,0v2A.59.59,0,0,1,80.13,134Zm0-4a.58.58,0,0,1-.58-.58v-2a.58.58,0,0,1,1.16,0v2A.58.58,0,0,1,80.13,130Zm0-4a.58.58,0,0,1-.58-.58v-2a.58.58,0,1,1,1.16,0v2A.59.59,0,0,1,80.13,126Zm0-4a.58.58,0,0,1-.58-.58v-2a.58.58,0,0,1,1.16,0v2A.59.59,0,0,1,80.13,121.94Zm0-4a.58.58,0,0,1-.58-.58v-2a.58.58,0,0,1,1.16,0v2A.59.59,0,0,1,80.13,117.93Zm0-4a.58.58,0,0,1-.58-.58v-2a.58.58,0,1,1,1.16,0v2A.59.59,0,0,1,80.13,113.92Zm0-4a.58.58,0,0,1-.58-.58v-2a.58.58,0,0,1,1.16,0v2A.58.58,0,0,1,80.13,109.9Zm0-4a.58.58,0,0,1-.58-.58v-2a.58.58,0,1,1,1.16,0v2A.59.59,0,0,1,80.13,105.89Zm0-4a.58.58,0,0,1-.58-.58v-2a.58.58,0,1,1,1.16,0v2A.59.59,0,0,1,80.13,101.88Zm0-4a.58.58,0,0,1-.58-.58v-2a.58.58,0,0,1,1.16,0v2A.59.59,0,0,1,80.13,97.87Zm0-4a.58.58,0,0,1-.58-.58v-2a.58.58,0,1,1,1.16,0v2A.58.58,0,0,1,80.13,93.85Zm0-4a.58.58,0,0,1-.58-.58v-2a.58.58,0,0,1,1.16,0v2A.59.59,0,0,1,80.13,89.84Zm0-4a.58.58,0,0,1-.58-.58v-2a.58.58,0,1,1,1.16,0v2A.59.59,0,0,1,80.13,85.83Zm0-4a.58.58,0,0,1-.58-.58v-2a.58.58,0,1,1,1.16,0v2A.59.59,0,0,1,80.13,81.82Zm0-4a.58.58,0,0,1-.58-.58v-2a.58.58,0,0,1,1.16,0v2A.59.59,0,0,1,80.13,77.81Zm0-4a.58.58,0,0,1-.58-.58v-2a.58.58,0,1,1,1.16,0v2A.58.58,0,0,1,80.13,73.79Zm0-4a.58.58,0,0,1-.58-.58v-2a.58.58,0,1,1,1.16,0v2A.59.59,0,0,1,80.13,69.78Zm0-4a.58.58,0,0,1-.58-.58v-2a.58.58,0,0,1,1.16,0v2A.59.59,0,0,1,80.13,65.77Zm0-4a.58.58,0,0,1-.58-.58v-2a.58.58,0,1,1,1.16,0v2A.59.59,0,0,1,80.13,61.76Zm0-4a.58.58,0,0,1-.58-.58v-2a.58.58,0,0,1,1.16,0v2A.59.59,0,0,1,80.13,57.75Zm0-4a.58.58,0,0,1-.58-.58v-2a.58.58,0,1,1,1.16,0v2A.58.58,0,0,1,80.13,53.73Zm0-4a.58.58,0,0,1-.58-.58v-2a.58.58,0,0,1,1.16,0v2A.59.59,0,0,1,80.13,49.72Zm0-4a.58.58,0,0,1-.58-.58v-2a.58.58,0,1,1,1.16,0v2A.59.59,0,0,1,80.13,45.71Zm0-4a.58.58,0,0,1-.58-.58v-2a.58.58,0,1,1,1.16,0v2A.59.59,0,0,1,80.13,41.7Zm0-4a.58.58,0,0,1-.58-.58v-2a.58.58,0,1,1,1.16,0v2A.58.58,0,0,1,80.13,37.68Zm0-4a.58.58,0,0,1-.58-.58v-2a.58.58,0,1,1,1.16,0v2A.59.59,0,0,1,80.13,33.67Zm0-4a.58.58,0,0,1-.58-.58v-2a.58.58,0,1,1,1.16,0v2A.59.59,0,0,1,80.13,29.66Zm0-4a.58.58,0,0,1-.58-.58v-2a.58.58,0,1,1,1.16,0v2A.59.59,0,0,1,80.13,25.65Zm0-4a.58.58,0,0,1-.58-.58v-2a.58.58,0,1,1,1.16,0v2A.59.59,0,0,1,80.13,21.64Zm0-4a.58.58,0,0,1-.58-.58V15a.58.58,0,1,1,1.16,0v2A.58.58,0,0,1,80.13,17.62Zm0-4a.58.58,0,0,1-.58-.58V11a.58.58,0,1,1,1.16,0v2A.59.59,0,0,1,80.13,13.61Zm0-4A.58.58,0,0,1,79.55,9V7a.58.58,0,0,1,.58-.58A.57.57,0,0,1,80.7,7V9A.57.57,0,0,1,80.13,9.6Zm0-4A.58.58,0,0,1,79.55,5V3a.58.58,0,1,1,1.16,0V5A.59.59,0,0,1,80.13,5.59Z" transform="translate(0 0.58)"/><path class="cls-28" d="M80.13,313.52a.58.58,0,0,1-.58-.58v-1a.58.58,0,0,1,1.16,0v1A.59.59,0,0,1,80.13,313.52Z" transform="translate(0 0.58)"/><path class="cls-29" d="M100.13,55.2H93.31a3,3,0,0,1-3-3v-19a3,3,0,0,1,3-3h6.82" transform="translate(0 0.58)"/><line class="cls-29" x1="80.13" y1="43.28" x2="90.2" y2="43.28"/><path class="cls-29" d="M100.13,109.31l-6.82-.08a3,3,0,0,1-3-3V73.41a3,3,0,0,1,3-3l6.82.08" transform="translate(0 0.58)"/><line class="cls-29" x1="80.13" y1="90.78" x2="90.2" y2="90.78"/><path class="cls-29" d="M100.13,164.6H93.31a3,3,0,0,1-3-3V128.2a3,3,0,0,1,3-3h6.82" transform="translate(0 0.58)"/><line class="cls-29" x1="80.13" y1="145.48" x2="90.14" y2="145.48"/><path class="cls-29" d="M100.13,313.68H93.31a3,3,0,0,1-3-3V183.85a3,3,0,0,1,3-3h6.82" transform="translate(0 0.58)"/><line class="cls-29" x1="80.13" y1="247.75" x2="90.14" y2="247.75"/></g><g id="Text"><path class="cls-30" d="M429.21,46.2h-1V42.74c0-1.25-.46-1.88-1.39-1.88a1.51,1.51,0,0,0-1.18.54,2,2,0,0,0-.48,1.39v3.4h-1V37.31h1v3.88h0a2.18,2.18,0,0,1,2-1.14c1.35,0,2,.81,2,2.44V46.2Z" transform="translate(0 0.58)"/><path class="cls-30" d="M433.8,46.14a1.82,1.82,0,0,1-.9.19c-1,0-1.58-.59-1.58-1.76V41h-1V40.2h1V38.74l1-.31v1.78h1.51V41h-1.51v3.38a1.37,1.37,0,0,0,.21.86.83.83,0,0,0,.68.26,1.05,1.05,0,0,0,.63-.2Z" transform="translate(0 0.58)"/><path class="cls-30" d="M437.87,46.14a1.82,1.82,0,0,1-.9.19c-1.05,0-1.58-.59-1.58-1.76V41h-1V40.2h1V38.74l1-.31v1.78h1.51V41h-1.51v3.38a1.37,1.37,0,0,0,.21.86.83.83,0,0,0,.68.26,1.05,1.05,0,0,0,.63-.2Z" transform="translate(0 0.58)"/><path class="cls-30" d="M440.14,45.33h0V49h-1V40.2h1v1h0a2.26,2.26,0,0,1,2.07-1.2,2.19,2.19,0,0,1,1.81.81,3.37,3.37,0,0,1,.65,2.16,3.71,3.71,0,0,1-.73,2.41,2.46,2.46,0,0,1-2,.91A2,2,0,0,1,440.14,45.33Zm0-2.42v.84a1.77,1.77,0,0,0,.48,1.26,1.62,1.62,0,0,0,1.23.52,1.6,1.6,0,0,0,1.37-.67,3.07,3.07,0,0,0,.5-1.86,2.41,2.41,0,0,0-.46-1.57,1.53,1.53,0,0,0-1.25-.57,1.7,1.7,0,0,0-1.35.58A2.18,2.18,0,0,0,440.11,42.91Z" transform="translate(0 0.58)"/><path class="cls-30" d="M445.85,46V45a2.82,2.82,0,0,0,1.73.58c.84,0,1.27-.28,1.27-.84a.76.76,0,0,0-.11-.41,1.17,1.17,0,0,0-.29-.3,2.18,2.18,0,0,0-.43-.23l-.54-.21a6.76,6.76,0,0,1-.7-.32,2.22,2.22,0,0,1-.5-.36,1.26,1.26,0,0,1-.3-.46,1.79,1.79,0,0,1-.1-.6,1.44,1.44,0,0,1,.19-.75,1.58,1.58,0,0,1,.52-.54,2.49,2.49,0,0,1,.74-.33,3.48,3.48,0,0,1,.85-.11,3.41,3.41,0,0,1,1.39.27v1a2.7,2.7,0,0,0-1.52-.43,1.88,1.88,0,0,0-.49.06,1.15,1.15,0,0,0-.37.17.78.78,0,0,0-.24.27.68.68,0,0,0-.08.34.87.87,0,0,0,.08.39.82.82,0,0,0,.25.28,1.67,1.67,0,0,0,.4.22l.53.22c.27.1.5.21.71.31a2.42,2.42,0,0,1,.54.36,1.32,1.32,0,0,1,.34.47,1.51,1.51,0,0,1,.12.63,1.47,1.47,0,0,1-.2.77,1.68,1.68,0,0,1-.52.54,2.39,2.39,0,0,1-.76.32,3.76,3.76,0,0,1-.9.11A3.36,3.36,0,0,1,445.85,46Z" transform="translate(0 0.58)"/><path class="cls-30" d="M451.63,41.37a.65.65,0,1,1,0-1.3.64.64,0,0,1,.47.19.65.65,0,0,1,0,.92A.63.63,0,0,1,451.63,41.37Zm0,5a.65.65,0,0,1-.65-.65.66.66,0,0,1,.19-.47.59.59,0,0,1,.46-.2.65.65,0,0,1,.47.2.64.64,0,0,1,.19.47.62.62,0,0,1-.19.46A.63.63,0,0,1,451.63,46.33Z" transform="translate(0 0.58)"/><path class="cls-30" d="M457.69,37.8l-4,9.8h-.9l4-9.8Z" transform="translate(0 0.58)"/><path class="cls-30" d="M462.37,37.8l-4,9.8h-.9l4-9.8Z" transform="translate(0 0.58)"/><path class="cls-30" d="M464.24,45.33h0V49h-1V40.2h1v1h0a2.26,2.26,0,0,1,2.07-1.2,2.19,2.19,0,0,1,1.81.81,3.37,3.37,0,0,1,.65,2.16,3.71,3.71,0,0,1-.73,2.41,2.46,2.46,0,0,1-2,.91A2,2,0,0,1,464.24,45.33Zm0-2.42v.84a1.77,1.77,0,0,0,.48,1.26,1.62,1.62,0,0,0,1.23.52,1.6,1.6,0,0,0,1.37-.67,3.07,3.07,0,0,0,.5-1.86,2.41,2.41,0,0,0-.46-1.57,1.53,1.53,0,0,0-1.25-.57,1.7,1.7,0,0,0-1.35.58A2.18,2.18,0,0,0,464.21,42.91Z" transform="translate(0 0.58)"/><path class="cls-30" d="M472.82,46.34a2.77,2.77,0,0,1-2.12-.84,3.1,3.1,0,0,1-.79-2.23,3.25,3.25,0,0,1,.83-2.36,3,3,0,0,1,2.23-.85,2.69,2.69,0,0,1,2.09.83,3.27,3.27,0,0,1,.75,2.29,3.23,3.23,0,0,1-.81,2.3A2.83,2.83,0,0,1,472.82,46.34Zm.07-5.47a1.8,1.8,0,0,0-1.46.63,2.64,2.64,0,0,0-.54,1.74,2.46,2.46,0,0,0,.54,1.68,1.85,1.85,0,0,0,1.46.62,1.75,1.75,0,0,0,1.43-.6,2.63,2.63,0,0,0,.5-1.72,2.66,2.66,0,0,0-.5-1.73A1.77,1.77,0,0,0,472.89,40.87Z" transform="translate(0 0.58)"/><path class="cls-30" d="M480.47,41.17a1.18,1.18,0,0,0-.73-.19,1.23,1.23,0,0,0-1,.58,2.64,2.64,0,0,0-.41,1.58V46.2h-1v-6h1v1.24h0a2.17,2.17,0,0,1,.63-1,1.41,1.41,0,0,1,.94-.35,1.65,1.65,0,0,1,.57.08v1Z" transform="translate(0 0.58)"/><path class="cls-30" d="M484.29,46.14a1.82,1.82,0,0,1-.9.19c-1.05,0-1.58-.59-1.58-1.76V41h-1V40.2h1V38.74l1-.31v1.78h1.51V41h-1.51v3.38a1.37,1.37,0,0,0,.21.86.83.83,0,0,0,.68.26,1.05,1.05,0,0,0,.63-.2Z" transform="translate(0 0.58)"/><path class="cls-30" d="M489.87,46.2h-1v-.94h0A2,2,0,0,1,487,46.34a2,2,0,0,1-1.4-.47,1.67,1.67,0,0,1-.51-1.26c0-1.12.66-1.77,2-2l1.8-.25c0-1-.41-1.53-1.24-1.53a3,3,0,0,0-2,.74v-1a3.68,3.68,0,0,1,2-.56c1.41,0,2.12.75,2.12,2.24V46.2Zm-1-3-1.45.2a2.3,2.3,0,0,0-1,.33,1,1,0,0,0-.34.84.92.92,0,0,0,.31.72,1.19,1.19,0,0,0,.83.28,1.55,1.55,0,0,0,1.18-.5,1.8,1.8,0,0,0,.47-1.27v-.6Z" transform="translate(0 0.58)"/><path class="cls-30" d="M492.64,46.2h-1V37.32h1Z" transform="translate(0 0.58)"/><path class="cls-30" d="M494.92,46.33a.65.65,0,0,1-.65-.65.66.66,0,0,1,.19-.47.59.59,0,0,1,.46-.2.65.65,0,0,1,.47.2.64.64,0,0,1,.19.47.62.62,0,0,1-.19.46A.63.63,0,0,1,494.92,46.33Z" transform="translate(0 0.58)"/><path class="cls-30" d="M501.49,46.2h-1v-.94h0a2,2,0,0,1-1.85,1.08,2,2,0,0,1-1.4-.47,1.67,1.67,0,0,1-.51-1.26c0-1.12.66-1.77,2-2l1.8-.25c0-1-.41-1.53-1.24-1.53a3,3,0,0,0-2,.74v-1a3.68,3.68,0,0,1,2-.56c1.41,0,2.12.75,2.12,2.24V46.2Zm-1-3-1.45.2a2.3,2.3,0,0,0-1,.33,1,1,0,0,0-.34.84.92.92,0,0,0,.31.72,1.19,1.19,0,0,0,.83.28,1.55,1.55,0,0,0,1.18-.5,1.8,1.8,0,0,0,.47-1.27v-.6Z" transform="translate(0 0.58)"/><path class="cls-30" d="M507.48,40.48l-3.55,4.9h3.52v.82h-4.93v-.3L506.07,41h-3.22V40.2h4.63Z" transform="translate(0 0.58)"/><path class="cls-30" d="M513.57,46.2h-1v-1h0a2,2,0,0,1-1.85,1.09c-1.43,0-2.14-.85-2.14-2.55V40.2h1v3.43c0,1.27.48,1.9,1.45,1.9a1.47,1.47,0,0,0,1.16-.52,2,2,0,0,0,.45-1.36V40.2h1v6Z" transform="translate(0 0.58)"/><path class="cls-30" d="M518.64,41.17a1.18,1.18,0,0,0-.73-.19,1.23,1.23,0,0,0-1,.58,2.64,2.64,0,0,0-.41,1.58V46.2h-1v-6h1v1.24h0a2.17,2.17,0,0,1,.63-1,1.41,1.41,0,0,1,.94-.35,1.65,1.65,0,0,1,.57.08v1Z" transform="translate(0 0.58)"/><path class="cls-30" d="M524.51,43.44h-4.24a2.3,2.3,0,0,0,.54,1.55,1.83,1.83,0,0,0,1.42.54,2.89,2.89,0,0,0,1.86-.67v.9a3.5,3.5,0,0,1-2.09.57,2.53,2.53,0,0,1-2-.82,3.33,3.33,0,0,1-.73-2.3,3.28,3.28,0,0,1,.79-2.28,2.54,2.54,0,0,1,2-.88,2.25,2.25,0,0,1,1.82.76,3.18,3.18,0,0,1,.64,2.12v.51Zm-1-.81a1.93,1.93,0,0,0-.4-1.29,1.39,1.39,0,0,0-1.1-.46,1.52,1.52,0,0,0-1.15.49,2.32,2.32,0,0,0-.59,1.27h3.24Z" transform="translate(0 0.58)"/><path class="cls-30" d="M526.29,46.33a.65.65,0,0,1-.65-.65.66.66,0,0,1,.19-.47.59.59,0,0,1,.46-.2.65.65,0,0,1,.47.2.64.64,0,0,1,.19.47.62.62,0,0,1-.19.46A.63.63,0,0,1,526.29,46.33Z" transform="translate(0 0.58)"/><path class="cls-30" d="M532.65,45.93a3.1,3.1,0,0,1-1.64.42,2.72,2.72,0,0,1-2.07-.83,3,3,0,0,1-.79-2.17A3.3,3.3,0,0,1,529,41a3,3,0,0,1,2.27-.9,3.2,3.2,0,0,1,1.39.29v1a2.47,2.47,0,0,0-1.43-.47,1.93,1.93,0,0,0-1.51.66,2.52,2.52,0,0,0-.59,1.73,2.36,2.36,0,0,0,.55,1.66,1.93,1.93,0,0,0,1.49.61,2.41,2.41,0,0,0,1.48-.52v.92Z" transform="translate(0 0.58)"/><path class="cls-30" d="M536.61,46.34a2.77,2.77,0,0,1-2.12-.84,3.1,3.1,0,0,1-.79-2.23,3.25,3.25,0,0,1,.83-2.36,3,3,0,0,1,2.23-.85,2.69,2.69,0,0,1,2.09.83,3.27,3.27,0,0,1,.75,2.29,3.23,3.23,0,0,1-.81,2.3A2.83,2.83,0,0,1,536.61,46.34Zm.07-5.47a1.8,1.8,0,0,0-1.46.63,2.64,2.64,0,0,0-.54,1.74,2.46,2.46,0,0,0,.54,1.68,1.85,1.85,0,0,0,1.46.62,1.75,1.75,0,0,0,1.43-.6,2.63,2.63,0,0,0,.5-1.72,2.66,2.66,0,0,0-.5-1.73A1.77,1.77,0,0,0,536.68,40.87Z" transform="translate(0 0.58)"/><path class="cls-30" d="M549.66,46.2h-1V42.75a2.57,2.57,0,0,0-.31-1.44,1.16,1.16,0,0,0-1-.45,1.3,1.3,0,0,0-1.05.56,2.12,2.12,0,0,0-.43,1.35v3.42h-1V42.63c0-1.18-.46-1.77-1.37-1.77a1.27,1.27,0,0,0-1,.53,2.2,2.2,0,0,0-.41,1.38v3.42h-1v-6h1v1h0A2,2,0,0,1,544,40.05a1.71,1.71,0,0,1,1.07.34,1.81,1.81,0,0,1,.63.9,2.14,2.14,0,0,1,2-1.24c1.32,0,2,.81,2,2.44V46.2Z" transform="translate(0 0.58)"/></g></g><g id="txt"><path class="cls-31" d="M167.14,89h-1.29l-.93-2.48h-3.78L160.27,89H159L162.43,80h1.26Zm-2.58-3.51-1.37-3.77a4.54,4.54,0,0,1-.14-.63h0a2.92,2.92,0,0,1-.15.63l-1.36,3.77Z" transform="translate(0 0.58)"/><path class="cls-31" d="M172.61,88.75a3.43,3.43,0,0,1-1.8.44,3,3,0,0,1-2.26-.9A3.25,3.25,0,0,1,167.7,86a3.58,3.58,0,0,1,.92-2.57,3.68,3.68,0,0,1,4-.65v1.13a2.52,2.52,0,0,0-1.52-.5,2.06,2.06,0,0,0-1.6.68,2.62,2.62,0,0,0-.62,1.82,2.47,2.47,0,0,0,.58,1.75,2.06,2.06,0,0,0,1.58.64,2.63,2.63,0,0,0,1.58-.56Z" transform="translate(0 0.58)"/><path class="cls-31" d="M177.46,89a2.21,2.21,0,0,1-1,.2c-1.16,0-1.74-.64-1.74-1.93V83.51h-1.12v-1h1.12V81l1.14-.36v1.92h1.61v1h-1.61v3.54a1.43,1.43,0,0,0,.22.91.83.83,0,0,0,.72.28,1.06,1.06,0,0,0,.67-.22Z" transform="translate(0 0.58)"/><path class="cls-31" d="M178.6,80.28a.7.7,0,0,1,.21-.52.69.69,0,0,1,.51-.2.72.72,0,0,1,.74.72.67.67,0,0,1-.22.5.72.72,0,0,1-.52.21.7.7,0,0,1-.52-.21A.69.69,0,0,1,178.6,80.28Zm.13,8.76V82.56h1.15V89Z" transform="translate(0 0.58)"/><path class="cls-31" d="M187.19,82.56,184.63,89h-1.16L181,82.56h1.25l1.58,4.63a3.89,3.89,0,0,1,.23.93h0a4.18,4.18,0,0,1,.21-.91L186,82.56Z" transform="translate(0 0.58)"/><path class="cls-31" d="M193.39,86.09h-4.54a2.34,2.34,0,0,0,.57,1.61,2,2,0,0,0,1.51.56,3.26,3.26,0,0,0,2-.69v1a3.91,3.91,0,0,1-2.27.6,2.77,2.77,0,0,1-2.2-.89,3.6,3.6,0,0,1-.78-2.47,3.51,3.51,0,0,1,.86-2.45,2.75,2.75,0,0,1,2.15-1,2.47,2.47,0,0,1,2,.82,3.32,3.32,0,0,1,.72,2.28Zm-1.15-.92a2,2,0,0,0-.42-1.35,1.42,1.42,0,0,0-1.15-.49,1.62,1.62,0,0,0-1.19.51,2.44,2.44,0,0,0-.63,1.33Z" transform="translate(0 0.58)"/><path class="cls-31" d="M197.72,85.92h1.62v-5.6H202q.27-.69.45-1.29l1,.24c-.14.34-.3.69-.47,1h4.25v5c.51-.38,1-.79,1.47-1.21l.59.65c-.66.56-1.35,1.1-2.06,1.6v2.34c0,1.18-.52,1.78-1.55,1.79-.64,0-1.29,0-1.94,0-.05-.27-.11-.6-.19-1,.57,0,1.18.08,1.84.08s.91-.32.91-1V87a31.28,31.28,0,0,1-8.07,3.63,7.45,7.45,0,0,0-.53-.89,28.39,28.39,0,0,0,7.42-3h-7.4Zm8.58-4.82h-6v1.1h6Zm-6,3h6V83h-6Zm0,1.86h6V84.81h-6Z" transform="translate(0 0.58)"/><path class="cls-31" d="M210,84.63a18.23,18.23,0,0,0,2.72-5.5l.91.32a29.12,29.12,0,0,1-1.24,2.92v8.19h-.89V84c-.36.59-.73,1.15-1.12,1.67Zm2.84-.73a11.56,11.56,0,0,0,2.95-4.3l.83.32a13,13,0,0,1-3.08,4.63A7.13,7.13,0,0,0,212.86,83.9Zm1.27.17H220c0,.11-.06,1.54-.17,4.29,0,1.34-.65,2-1.84,2-.64,0-1.2,0-1.68,0a7.75,7.75,0,0,0-.17-1c.53.07,1.08.11,1.62.13.76,0,1.15-.37,1.15-1.27s.11-2.17.14-3.36h-2.63a8.14,8.14,0,0,1-.57,3.08,7,7,0,0,1-2.18,2.61c-.2-.25-.43-.5-.68-.76a6.38,6.38,0,0,0,2-2.23,6.59,6.59,0,0,0,.53-2.7h-1.37Zm3.26-4.62.77-.33a8.21,8.21,0,0,0,3.58,4.35,7.7,7.7,0,0,0-.67.86A9.58,9.58,0,0,1,217.39,79.45Z" transform="translate(0 0.58)"/><path class="cls-31" d="M222.07,87.1c.91-.18,1.91-.4,3-.65,0,.31,0,.59,0,.83q-1.33.28-2.82.69Zm1.74-5.77-.27,3.22h1.18l.31-4h-2.66v-.8h3.55l-.36,4.75h.73c0,1.65-.1,3-.15,4.06s-.54,1.79-1.55,1.79c-.42,0-.91,0-1.48,0,0-.29-.09-.6-.16-.93a12.6,12.6,0,0,0,1.5.11c.55,0,.84-.33.87-1,.05-.86.09-1.92.12-3.2h-2.81l.37-4Zm6.83-2.18-.22.37a9.17,9.17,0,0,0,3.51,3.67c-.25.31-.45.58-.62.82A12.9,12.9,0,0,1,230,80.34a13.11,13.11,0,0,1-3.34,3.81c-.14-.2-.34-.45-.59-.74a10.55,10.55,0,0,0,3.58-4.26Zm-4.25,10.09h4.23c.56-1.4,1.06-2.85,1.5-4.36l.89.28q-.69,2.1-1.47,4.08h2.07V90h-7.22Zm.59-3.75.83-.26c.38,1.11.7,2.1,1,3l-.87.3C227.64,87.49,227.34,86.49,227,85.49Zm.6-2h4.83v.81h-4.83ZM229,85l.83-.22c.33,1.17.6,2.19.81,3.07l-.85.24C229.56,87,229.3,85.94,229,85Z" transform="translate(0 0.58)"/><path class="cls-31" d="M238.3,86.17a6,6,0,0,0,.23,1c-.95.94-1.66,1.69-2.15,2.24l-.67-.76a1.93,1.93,0,0,0,.35-1.17V83.82h-1.41V83H237v4.57C237.33,87.2,237.77,86.74,238.3,86.17Zm-2.52-6.92c.92.93,1.56,1.6,1.93,2l-.83.69a24.94,24.94,0,0,0-1.81-2.09Zm1.83,9.86h1.63V82.63h.9v6.48H242V80.54h-3.75v-.87h7.82v.87h-3.14v3.53h2.72v.86h-2.72v4.18h3.33V90h-8.66Z" transform="translate(0 0.58)"/><path class="cls-31" d="M252.51,79.44l.71-.53a9.74,9.74,0,0,1,1.05,1.17l-.5.37h4.85v.84h-9.44v3.34q0,4-1.53,6.06c-.2-.25-.42-.52-.67-.8a8.32,8.32,0,0,0,1.26-5.1V80.45h5.08C253.07,80.11,252.8,79.77,252.51,79.44Zm-3.08,8.14h4.44V86.34h-3.58v-.85a17.88,17.88,0,0,0,1.15-1.93h-1.71v-.84h2.12c.19-.42.38-.85.55-1.3l1,.26c-.16.36-.33.7-.49,1H258v.84h-5.55c-.36.7-.73,1.34-1.1,1.94h2.51V84h.94V85.5H258v.84h-3.21v1.24h3.78v.85h-3.78v2.16h-.94V88.43h-4.44Z" transform="translate(0 0.58)"/><path class="cls-31" d="M192.14,104.6a8.06,8.06,0,0,1-2-5.52,8.38,8.38,0,0,1,2-5.61h1a8.6,8.6,0,0,0-2,5.6,8.4,8.4,0,0,0,2,5.53Z" transform="translate(0 0.58)"/><path class="cls-31" d="M201.41,102.54h-1.29l-.93-2.48h-3.78l-.87,2.48h-1.3l3.46-9.07H198ZM198.83,99l-1.37-3.77a4.2,4.2,0,0,1-.15-.63h0a4.94,4.94,0,0,1-.15.63L195.78,99Z" transform="translate(0 0.58)"/><path class="cls-31" d="M202.65,102.54V93.47h2.59a5,5,0,0,1,3.43,1.2A4.06,4.06,0,0,1,210,97.89a4.39,4.39,0,0,1-1.36,3.38,5,5,0,0,1-3.53,1.27Zm1.17-8v7h1.32a3.67,3.67,0,0,0,2.69-.94,3.5,3.5,0,0,0,1-2.64,3.21,3.21,0,0,0-1-2.56,3.9,3.9,0,0,0-2.62-.85Z" transform="translate(0 0.58)"/><path class="cls-31" d="M218.49,102.54H217.2l-.93-2.48h-3.78l-.87,2.48h-1.3l3.46-9.07H215ZM215.91,99l-1.37-3.77a3.42,3.42,0,0,1-.14-.63h0a3.67,3.67,0,0,1-.15.63L212.86,99Z" transform="translate(0 0.58)"/><path class="cls-31" d="M224.52,102.54h-4.79V93.47h1.17v8h3.62Z" transform="translate(0 0.58)"/><path class="cls-31" d="M224.63,104.6a8.34,8.34,0,0,0,2-5.53,8.59,8.59,0,0,0-2-5.6h1a8.33,8.33,0,0,1,2,5.61,8,8,0,0,1-2,5.52Z" transform="translate(0 0.58)"/><path class="cls-31" d="M184.07,137.43l-2.57,6.48h-1.16l-2.44-6.48h1.26l1.58,4.63a3.89,3.89,0,0,1,.23.93h0a4.86,4.86,0,0,1,.2-.91l1.66-4.65Z" transform="translate(0 0.58)"/><path class="cls-31" d="M187.35,143.91v-7.76a3.94,3.94,0,0,1-.91.6,5.72,5.72,0,0,1-1.19.47V136.1a8.3,8.3,0,0,0,1.54-.64,6.88,6.88,0,0,0,1.26-.82h.43v9.27Z" transform="translate(0 0.58)"/><path class="cls-31" d="M191,143.31a.77.77,0,0,1,.22-.54.73.73,0,0,1,.54-.21.75.75,0,0,1,.76.75.69.69,0,0,1-.22.52.71.71,0,0,1-.55.22.75.75,0,0,1-.75-.74Z" transform="translate(0 0.58)"/><path class="cls-31" d="M193.58,139.55a6.74,6.74,0,0,1,.8-3.63,2.57,2.57,0,0,1,2.31-1.24q2.88,0,2.88,4.66a6.33,6.33,0,0,1-.81,3.51,2.58,2.58,0,0,1-2.28,1.21,2.41,2.41,0,0,1-2.14-1.15A6.1,6.1,0,0,1,193.58,139.55Zm1.17-.05c0,2.41.61,3.61,1.84,3.61s1.8-1.22,1.8-3.67-.59-3.8-1.77-3.8S194.75,136.93,194.75,139.5Z" transform="translate(0 0.58)"/><path class="cls-31" d="M203.8,143.79c1.23-.24,2.58-.54,4.06-.9,0,.43,0,.72,0,.88-1.07.23-2.32.54-3.76.92Zm1.5-2.74,2.3-.34c0,.3-.08.59-.1.88-.9.12-2,.28-3.26.49l-.19-.86a14.63,14.63,0,0,0,1.77-2.55c-.82.05-1.41.1-1.77.13l-.22-.8a20.29,20.29,0,0,0,2.22-4.15l.89.35c-.75,1.49-1.44,2.73-2.07,3.73l1.4,0q.43-.78.93-1.71l.88.39Q206.39,139.51,205.3,141.05Zm2.38-3.2a15,15,0,0,0,2.25-4l.88.29c-.15.36-.32.71-.49,1.05h4.39V136a10,10,0,0,1-2.33,2.74,7.87,7.87,0,0,0,3.17,1.22c-.17.37-.3.71-.41,1a10.43,10.43,0,0,1-3.48-1.67,14.42,14.42,0,0,1-3.65,1.78,7,7,0,0,0-.41-.82,11.85,11.85,0,0,0,3.41-1.53,7.44,7.44,0,0,1-1.52-2,20.49,20.49,0,0,1-1.22,1.77C208.12,138.3,207.93,138.09,207.68,137.85Zm.88,5.86.37-.82c1.43.39,3.22.91,5.35,1.58l-.43.92Q210.85,144.33,208.56,143.71Zm1.34-2.14.35-.78c1.18.35,2.36.74,3.54,1.16l-.39.92A37.09,37.09,0,0,0,209.9,141.57Zm3.78-5.6H210a7.85,7.85,0,0,0,1.75,2.26A8.51,8.51,0,0,0,213.68,136Z" transform="translate(0 0.58)"/><path class="cls-31" d="M215.92,143.74c1.44-.28,2.85-.59,4.23-.92,0,.31,0,.61,0,.89-1.26.26-2.58.57-3.93.93Zm1.53-2.76c1-.15,1.9-.29,2.58-.4-.05.3-.08.6-.1.89-.87.12-2.06.31-3.56.55l-.18-.87a15,15,0,0,0,1.78-2.47l-1.78.13L216,138a20.49,20.49,0,0,0,2.24-4.16l.89.35c-.84,1.66-1.53,2.9-2.07,3.74l1.42,0c.26-.45.54-1,.83-1.48l.87.43C219.25,138.34,218.35,139.71,217.45,141Zm3-2.5h2.86v-1.83h-3.24v-.84h3.24v-1.88h.94v1.88h3.28v.84h-3.28v1.83h2.87v.84h-6.67Zm.24,2.23h6.19v4.75H226v-.72h-4.36v.72h-.91Zm5.27.82h-4.36v2.39H226Z" transform="translate(0 0.58)"/><path class="cls-31" d="M230.38,142.87a21.84,21.84,0,0,1-1.57,2.52l-.81-.57a22,22,0,0,0,1.56-2.41Zm-.88-5.29h3.68V133.9h1v1.4h5.24v.85h-5.24v1.43h4.15v4.47h-1v-.49h-6.89v.49h-1Zm7.86.84h-6.89v2.3h6.89Zm-5,3.94a21,21,0,0,1,.94,2.49l-.95.33c-.24-.85-.52-1.69-.83-2.52Zm2.8-.08a22.8,22.8,0,0,1,1,2.42l-.92.37a24.49,24.49,0,0,0-1-2.47Zm2.85,0a26.32,26.32,0,0,1,1.5,2.56l-.89.48c-.39-.8-.86-1.67-1.42-2.61Z" transform="translate(0 0.58)"/><path class="cls-31" d="M190.15,150.53,187.58,157h-1.16L184,150.53h1.26l1.58,4.63a4.44,4.44,0,0,1,.23.93h0a3.67,3.67,0,0,1,.2-.91l1.66-4.65Z" transform="translate(0 0.58)"/><path class="cls-31" d="M193.42,157v-7.76a3.53,3.53,0,0,1-.91.6,5.45,5.45,0,0,1-1.18.47v-1.13a7.59,7.59,0,0,0,1.54-.63,7.25,7.25,0,0,0,1.26-.82h.43V157Z" transform="translate(0 0.58)"/><path class="cls-31" d="M197.09,156.41a.73.73,0,0,1,.76-.75.75.75,0,0,1,.76.75.69.69,0,0,1-.22.52.72.72,0,0,1-.55.22.73.73,0,0,1-.54-.22A.72.72,0,0,1,197.09,156.41Z" transform="translate(0 0.58)"/><path class="cls-31" d="M199.66,152.65a6.75,6.75,0,0,1,.79-3.63,2.58,2.58,0,0,1,2.31-1.24c1.92,0,2.89,1.55,2.89,4.66a6.24,6.24,0,0,1-.82,3.51,2.58,2.58,0,0,1-2.27,1.21,2.41,2.41,0,0,1-2.14-1.15A6.1,6.1,0,0,1,199.66,152.65Zm1.17-.05c0,2.41.61,3.61,1.83,3.61s1.81-1.22,1.81-3.67-.59-3.8-1.77-3.8S200.83,150,200.83,152.6Z" transform="translate(0 0.58)"/><path class="cls-31" d="M216.55,147.2l-.22.3a11.21,11.21,0,0,0,5.27,4q-.4.55-.66,1a14.54,14.54,0,0,1-5.2-4.28,17,17,0,0,1-5.27,4.33c-.17-.27-.37-.56-.61-.87a13.72,13.72,0,0,0,5.48-4.46Zm-3.39,7.67c.82.53,1.68,1.11,2.59,1.73.78-.73,1.68-1.63,2.7-2.71h-7.22V153h8.53v.88c-1,1-2.06,2.12-3.22,3.23l1.17.82-.71.79q-2.31-1.8-4.46-3.18Zm1.27-4.1.7-.55c.61.6,1.17,1.19,1.67,1.76l-.78.65A20.94,20.94,0,0,0,214.43,150.77Z" transform="translate(0 0.58)"/><path class="cls-31" d="M225.71,158.45h-.85v-4.4h-1.27a9.25,9.25,0,0,1-.9,4.57c-.2-.21-.45-.43-.73-.68a8,8,0,0,0,.78-3.95v-6.5h.85v3.45h1.19v-3.79h.85v3.79h.86v.72h-2.9v1.67h2.12Zm.38-2.87h1.43A7.31,7.31,0,0,0,227,155a4.79,4.79,0,0,0,1.78-1.43h-1.87v-5.23h2c.15-.37.3-.81.46-1.3l.91.28q-.26.57-.48,1h3v5.63H232v-.4h-2.21a5.19,5.19,0,0,1-2,2h2.34v-1.5h.86v1.5h2.65v.8h-2.65v2.15h-.86v-2.15h-4Zm1.64-5h1.7v-1.46h-1.7Zm1.67.75h-1.67v1.47h1.43A6.08,6.08,0,0,0,229.4,151.29Zm.64,1.47h2v-1.47h-1.77A7.28,7.28,0,0,1,230,152.76Zm2-3.68h-1.74v1.46H232Z" transform="translate(0 0.58)"/><path class="cls-31" d="M171.13,204h-1.3l-.93-2.49h-3.77l-.88,2.49H163l3.45-9.08h1.26Zm-2.59-3.51-1.37-3.77a5.19,5.19,0,0,1-.14-.64h0a2.88,2.88,0,0,1-.15.64l-1.36,3.77Z" transform="translate(0 0.58)"/><path class="cls-31" d="M176.59,203.71a3.49,3.49,0,0,1-1.79.44,3,3,0,0,1-2.27-.9,3.25,3.25,0,0,1-.85-2.34,3.61,3.61,0,0,1,.92-2.57,3.25,3.25,0,0,1,2.47-1,3.35,3.35,0,0,1,1.52.31v1.14a2.46,2.46,0,0,0-1.52-.5,2,2,0,0,0-1.6.68,2.61,2.61,0,0,0-.62,1.82,2.48,2.48,0,0,0,.58,1.75,2.06,2.06,0,0,0,1.58.63,2.59,2.59,0,0,0,1.58-.55Z" transform="translate(0 0.58)"/><path class="cls-31" d="M181.44,203.93a2.08,2.08,0,0,1-1,.21c-1.16,0-1.74-.64-1.74-1.93v-3.74h-1.12v-.95h1.12V196l1.14-.36v1.92h1.61v.95h-1.61V202a1.45,1.45,0,0,0,.22.91.86.86,0,0,0,.72.28,1.1,1.1,0,0,0,.67-.22Z" transform="translate(0 0.58)"/><path class="cls-31" d="M182.58,195.23a.73.73,0,0,1,1.24-.51.65.65,0,0,1,.22.51.64.64,0,0,1-.22.51.72.72,0,0,1-1.24-.51Zm.13,8.77v-6.48h1.15V204Z" transform="translate(0 0.58)"/><path class="cls-31" d="M191.17,197.52,188.61,204h-1.16L185,197.52h1.25l1.59,4.63a3.8,3.8,0,0,1,.22.93h0a4.18,4.18,0,0,1,.21-.91l1.66-4.65Z" transform="translate(0 0.58)"/><path class="cls-31" d="M197.37,201.05h-4.54a2.31,2.31,0,0,0,.57,1.6,2,2,0,0,0,1.51.57,3.19,3.19,0,0,0,2-.7v1a3.88,3.88,0,0,1-2.27.6,2.8,2.8,0,0,1-2.2-.89,3.62,3.62,0,0,1-.78-2.47,3.55,3.55,0,0,1,.86-2.46,2.78,2.78,0,0,1,2.15-1,2.48,2.48,0,0,1,2,.81,3.36,3.36,0,0,1,.72,2.29Zm-1.15-.92a2.06,2.06,0,0,0-.41-1.36,1.45,1.45,0,0,0-1.16-.48,1.62,1.62,0,0,0-1.19.51,2.41,2.41,0,0,0-.63,1.33Z" transform="translate(0 0.58)"/><path class="cls-31" d="M202.6,204v-9.08h2.59a5,5,0,0,1,3.43,1.2,4.08,4.08,0,0,1,1.36,3.23,4.41,4.41,0,0,1-1.36,3.38,5,5,0,0,1-3.53,1.27Zm1.17-8v7h1.32a3.67,3.67,0,0,0,2.69-.94,3.5,3.5,0,0,0,1-2.64,3.19,3.19,0,0,0-1-2.56,3.9,3.9,0,0,0-2.62-.85Z" transform="translate(0 0.58)"/><path class="cls-31" d="M211.38,195.23a.69.69,0,0,1,.21-.51.68.68,0,0,1,.51-.21.7.7,0,0,1,.52.21.65.65,0,0,1,.22.51.64.64,0,0,1-.22.51.72.72,0,0,1-1.24-.51Zm.13,8.77v-6.48h1.15V204Z" transform="translate(0 0.58)"/><path class="cls-31" d="M218.07,198.66a1.38,1.38,0,0,0-1.89.41,2.85,2.85,0,0,0-.43,1.65V204H214.6v-6.48h1.15v1.32h0a1.77,1.77,0,0,1,1.7-1.43,1.58,1.58,0,0,1,.6.09Z" transform="translate(0 0.58)"/><path class="cls-31" d="M224.47,201.05h-4.54a2.31,2.31,0,0,0,.57,1.6,2,2,0,0,0,1.51.57,3.16,3.16,0,0,0,2-.7v1a3.85,3.85,0,0,1-2.26.6,2.8,2.8,0,0,1-2.2-.89,3.63,3.63,0,0,1-.79-2.47,3.56,3.56,0,0,1,.87-2.46,2.76,2.76,0,0,1,2.15-1,2.5,2.5,0,0,1,2,.81,3.36,3.36,0,0,1,.72,2.29Zm-1.15-.92a2.07,2.07,0,0,0-.42-1.36,1.43,1.43,0,0,0-1.15-.48,1.62,1.62,0,0,0-1.19.51,2.41,2.41,0,0,0-.63,1.33Z" transform="translate(0 0.58)"/><path class="cls-31" d="M230.52,203.71a3.49,3.49,0,0,1-1.79.44,3,3,0,0,1-2.27-.9,3.25,3.25,0,0,1-.85-2.34,3.61,3.61,0,0,1,.92-2.57,3.25,3.25,0,0,1,2.47-1,3.35,3.35,0,0,1,1.52.31v1.14a2.46,2.46,0,0,0-1.52-.5,2,2,0,0,0-1.6.68,2.61,2.61,0,0,0-.62,1.82,2.53,2.53,0,0,0,.58,1.75,2.06,2.06,0,0,0,1.58.63,2.59,2.59,0,0,0,1.58-.55Z" transform="translate(0 0.58)"/><path class="cls-31" d="M235.37,203.93a2.08,2.08,0,0,1-1,.21c-1.16,0-1.74-.64-1.74-1.93v-3.74H231.5v-.95h1.12V196l1.14-.36v1.92h1.61v.95h-1.61V202a1.45,1.45,0,0,0,.22.91.86.86,0,0,0,.72.28,1.1,1.1,0,0,0,.67-.22Z" transform="translate(0 0.58)"/><path class="cls-31" d="M236.17,200.83a3.54,3.54,0,0,1,.89-2.54,3.26,3.26,0,0,1,2.44-.92,2.93,2.93,0,0,1,2.28.89,4,4,0,0,1-.05,5,3.09,3.09,0,0,1-2.37.94,3,3,0,0,1-2.32-.91A3.35,3.35,0,0,1,236.17,200.83Zm1.17,0a2.58,2.58,0,0,0,.57,1.77,1.9,1.9,0,0,0,1.52.64,1.84,1.84,0,0,0,1.5-.63,3.47,3.47,0,0,0,0-3.62,1.84,1.84,0,0,0-1.5-.63,1.89,1.89,0,0,0-1.53.66A2.72,2.72,0,0,0,237.34,200.79Z" transform="translate(0 0.58)"/><path class="cls-31" d="M247.65,198.66a1.38,1.38,0,0,0-1.89.41,2.85,2.85,0,0,0-.43,1.65V204h-1.15v-6.48h1.15v1.32h0a1.77,1.77,0,0,1,1.7-1.43,1.58,1.58,0,0,1,.6.09Z" transform="translate(0 0.58)"/><path class="cls-31" d="M254.55,197.52l-3,7.46q-.81,2.07-2.31,2.07a2.55,2.55,0,0,1-.73-.09v-1a1.66,1.66,0,0,0,.64.13,1.27,1.27,0,0,0,1.17-.91l.5-1.18-2.55-6.47h1.27l1.7,4.87.14.53h0a4.78,4.78,0,0,1,.14-.52l1.77-4.88Z" transform="translate(0 0.58)"/><path class="cls-31" d="M139.13,216.46l.89-.14V209.2h-.76v-.82h5.06v.82h-.88v6.51l1.07-.2a5.68,5.68,0,0,0,.08.82l-1.15.23V219h-.85v-2.3l-3.24.66Zm1.75-5.55h1.71V209.2h-1.71Zm0,2.51h1.71V211.7h-1.71Zm1.71,2.45v-1.66h-1.71v2Zm1.26-2.87h2.71c0-.57,0-1.27,0-2.12h-2.42V210h3.16c.36-.57.82-1.39,1.39-2.48l.91.44q-.72,1.13-1.35,2h2v.86h-2.74c0,.85,0,1.56,0,2.12h3.18v.87h-3.07a7.12,7.12,0,0,0,3.23,4.16,7.61,7.61,0,0,0-.75.88,8.52,8.52,0,0,1-2.93-3.95,7,7,0,0,1-2.84,4.07,9.76,9.76,0,0,0-.66-.76,6,6,0,0,0,2.86-4.4h-2.64Zm.78-5,.68-.48a17,17,0,0,1,1.32,1.75l-.76.53C145.54,209.28,145.13,208.68,144.63,208Z" transform="translate(0 0.58)"/><path class="cls-31" d="M158,207.68l-.28.34a11.92,11.92,0,0,0,5.19,3.84c-.24.34-.45.65-.62.93a12.83,12.83,0,0,1-1.81-1v.67h-6.85v-.59q-.85.57-1.83,1.11a9.66,9.66,0,0,0-.59-.88,14.62,14.62,0,0,0,5.48-4.39Zm-5,6.24h8.17v5.2h-.94v-.78h-6.29v.81H153Zm7.23.85h-6.29v2.73h6.29Zm-3.11-6.07a14.46,14.46,0,0,1-3.13,2.9h6.27A14.43,14.43,0,0,1,157.1,208.7Z" transform="translate(0 0.58)"/><path class="cls-31" d="M162.9,214.38h1.61v-5.61h2.68a11.72,11.72,0,0,0,.45-1.28l1,.24c-.15.34-.31.69-.48,1h4.25v5c.51-.38,1-.78,1.48-1.2l.58.64c-.66.57-1.34,1.1-2.06,1.61v2.34c0,1.18-.52,1.78-1.55,1.78-.64,0-1.29,0-1.94,0,0-.27-.11-.6-.19-1,.57,0,1.18.08,1.84.08s.91-.32.91-1v-1.63a31.28,31.28,0,0,1-8.07,3.63,6.32,6.32,0,0,0-.53-.89,28.39,28.39,0,0,0,7.42-3H162.9Zm8.57-4.82h-6v1.1h6Zm-6,2.95h6v-1.1h-6Zm0,1.87h6v-1.12h-6Z" transform="translate(0 0.58)"/><path class="cls-31" d="M175.19,213.09a18,18,0,0,0,2.72-5.5l.92.32a29.12,29.12,0,0,1-1.25,2.92V219h-.89v-6.57a19.61,19.61,0,0,1-1.12,1.68C175.45,213.79,175.33,213.45,175.19,213.09Zm2.84-.73a11.45,11.45,0,0,0,2.95-4.3l.83.32a12.71,12.71,0,0,1-3.08,4.62A6.93,6.93,0,0,0,178,212.36Zm1.28.16h5.86q0,.16-.18,4.29c0,1.35-.65,2-1.84,2q-1,0-1.68,0a6.41,6.41,0,0,0-.17-1,12.64,12.64,0,0,0,1.63.13c.75.06,1.14-.36,1.15-1.26.06-1.05.1-2.17.14-3.37h-2.64a8.2,8.2,0,0,1-.56,3.09,7.24,7.24,0,0,1-2.18,2.61c-.21-.25-.43-.5-.68-.76a6.62,6.62,0,0,0,2-2.23,6.48,6.48,0,0,0,.53-2.71h-1.36Zm3.25-4.61.78-.33a8.22,8.22,0,0,0,3.57,4.35,8.83,8.83,0,0,0-.67.85A9.52,9.52,0,0,1,182.56,207.91Z" transform="translate(0 0.58)"/><path class="cls-31" d="M187.25,215.56c.9-.18,1.9-.4,3-.66a7.61,7.61,0,0,0,0,.84c-.89.18-1.83.41-2.83.69Zm1.73-5.78-.27,3.22h1.19l.3-3.94h-2.66v-.8h3.55l-.36,4.74h.74c-.06,1.65-.11,3-.16,4.07s-.54,1.78-1.54,1.78l-1.49,0q-.06-.44-.15-.93a12.32,12.32,0,0,0,1.5.11c.54,0,.83-.33.86-1,0-.86.09-1.92.12-3.2H187.8l.37-4Zm6.83-2.18-.22.38a9.19,9.19,0,0,0,3.52,3.67c-.25.31-.46.58-.62.82a12.8,12.8,0,0,1-3.37-3.67,13,13,0,0,1-3.34,3.81,7.84,7.84,0,0,0-.58-.74,10.56,10.56,0,0,0,3.57-4.27Zm-4.25,10.09h4.23a45.52,45.52,0,0,0,1.5-4.36l.89.28c-.46,1.4-1,2.76-1.46,4.08h2.06v.81h-7.22Zm.6-3.75.82-.26q.57,1.66,1,3l-.87.29C192.81,215.94,192.51,214.94,192.16,213.94Zm.59-2h4.83v.8h-4.83Zm1.42,1.5.83-.23c.33,1.17.6,2.2.81,3.07l-.85.25C194.73,215.43,194.47,214.4,194.17,213.42Z" transform="translate(0 0.58)"/><path class="cls-31" d="M203.48,214.62a5.75,5.75,0,0,0,.22,1c-.95.94-1.66,1.69-2.15,2.24l-.66-.76a2,2,0,0,0,.35-1.17v-3.67h-1.42v-.85h2.32V216C202.5,215.66,202.94,215.2,203.48,214.62ZM201,207.71q1.36,1.39,1.92,2l-.82.7a25.47,25.47,0,0,0-1.82-2.09Zm1.82,9.85h1.63v-6.48h.9v6.48h1.87V209h-3.75v-.87h7.83V209h-3.14v3.52h2.71v.87h-2.71v4.17h3.32v.87h-8.66Z" transform="translate(0 0.58)"/><path class="cls-31" d="M213,208.19h3.3v9.5c0,.78-.36,1.17-1.09,1.17q-.6,0-1.11,0c0-.24-.08-.51-.14-.83a7.06,7.06,0,0,0,1,.09.42.42,0,0,0,.48-.48v-2.69h-1.64a7,7,0,0,1-1,4.11,4,4,0,0,0-.65-.66A6.27,6.27,0,0,0,213,215Zm2.47.76h-1.64v2.25h1.64Zm-1.64,5.24h1.64v-2.26h-1.64Zm3.44-5.95h5.79q-.06.94-.09,1.5a1.64,1.64,0,0,1-1.85,1.78l-1.51-.05c0-.3-.1-.61-.16-.93.58.07,1.1.12,1.56.13a.93.93,0,0,0,1.09-1c0-.2,0-.42.06-.67h-4v3.38h4.95v.69a8.59,8.59,0,0,1-1.72,3.58,7,7,0,0,0,2.52,1.49c-.27.32-.5.6-.68.85a8.57,8.57,0,0,1-2.45-1.68,9.64,9.64,0,0,1-2.1,1.56c-.15-.26-.31-.51-.48-.77a8.42,8.42,0,0,0,2-1.43,8,8,0,0,1-1.51-3.53h-.55V219h-.89Zm4.91,4.94h-2.66a6.87,6.87,0,0,0,1.29,2.87A7.29,7.29,0,0,0,222.2,213.18Z" transform="translate(0 0.58)"/><path class="cls-31" d="M227.91,207.39l.88.38c-.18.29-.36.57-.55.84h6.34v.79a9.57,9.57,0,0,1-3,2.31,16.59,16.59,0,0,0,4.69.88c-.25.36-.47.68-.66,1a17.82,17.82,0,0,1-5.12-1.37,25.49,25.49,0,0,1-5.62,1.57c-.13-.24-.29-.52-.48-.82a25.28,25.28,0,0,0,5.1-1.28,6.92,6.92,0,0,1-2.14-1.93,16.51,16.51,0,0,1-2,2c-.24-.25-.45-.46-.65-.63A11.51,11.51,0,0,0,227.91,207.39Zm-2.46,6.87h3.41c.06-.38.1-.8.14-1.27H230c0,.47-.1.89-.16,1.27h4.73c-.08,1.4-.15,2.38-.22,2.94a1.74,1.74,0,0,1-2,1.66c-.46,0-1.15,0-2.07,0,0-.29-.11-.62-.18-1,.9.08,1.64.13,2.23.13a1,1,0,0,0,1.1-1c.07-.59.12-1.22.15-1.88h-3.91c-.41,1.88-1.87,3.24-4.36,4.09-.18-.26-.37-.52-.58-.78q3.36-1.1,4-3.31h-3.25Zm7.88-4.88h-5.24a7.3,7.3,0,0,0,2.43,1.87A10.35,10.35,0,0,0,233.33,209.38Z" transform="translate(0 0.58)"/><path class="cls-31" d="M239.29,219.56a8.05,8.05,0,0,1-2-5.52,8.4,8.4,0,0,1,2-5.62h1a8.62,8.62,0,0,0-2,5.6,8.43,8.43,0,0,0,2,5.54Z" transform="translate(0 0.58)"/><path class="cls-31" d="M248.56,217.5h-1.29l-.93-2.49h-3.78l-.87,2.49h-1.3l3.46-9.08h1.26ZM246,214l-1.37-3.77a3.8,3.8,0,0,1-.14-.64h0a3.59,3.59,0,0,1-.15.64L242.93,214Z" transform="translate(0 0.58)"/><path class="cls-31" d="M249.8,217.5v-9.08h2.59a5,5,0,0,1,3.43,1.2,4.09,4.09,0,0,1,1.37,3.23,4.42,4.42,0,0,1-1.37,3.38,5,5,0,0,1-3.53,1.27Zm1.17-8v7h1.32a3.71,3.71,0,0,0,2.7-.94,3.54,3.54,0,0,0,1-2.64,3.2,3.2,0,0,0-1-2.56,3.88,3.88,0,0,0-2.62-.85Z" transform="translate(0 0.58)"/><path class="cls-31" d="M267.17,209.47h-3.51v3h3.25v1h-3.25v4h-1.17v-9.08h4.68Z" transform="translate(0 0.58)"/><path class="cls-31" d="M268.27,215.79a2.92,2.92,0,0,0,1.11.6,4.06,4.06,0,0,0,1.32.24c1.28,0,1.91-.46,1.91-1.36a1.17,1.17,0,0,0-.2-.69,2.22,2.22,0,0,0-.56-.54q-.36-.22-1.35-.72a5,5,0,0,1-1.79-1.26,2.17,2.17,0,0,1-.44-1.33,2.1,2.1,0,0,1,.91-1.8,3.81,3.81,0,0,1,2.29-.66,4.53,4.53,0,0,1,2,.33v1.28a3.57,3.57,0,0,0-2.08-.57,2.34,2.34,0,0,0-1.35.35,1.1,1.1,0,0,0-.53,1,1.16,1.16,0,0,0,.37.89,7.12,7.12,0,0,0,1.57.95,5.55,5.55,0,0,1,1.87,1.27,2.18,2.18,0,0,1,.53,1.44A2.11,2.11,0,0,1,273,217a4,4,0,0,1-2.41.64,6.28,6.28,0,0,1-1.26-.15,2.9,2.9,0,0,1-1-.37Z" transform="translate(0 0.58)"/><path class="cls-31" d="M274.58,219.56a8.36,8.36,0,0,0,2-5.54,8.63,8.63,0,0,0-2-5.6h1a8.37,8.37,0,0,1,2,5.62,8,8,0,0,1-2,5.52Z" transform="translate(0 0.58)"/><path class="cls-31" d="M341.19,197.12h-1.3l-.92-2.49h-3.78l-.87,2.49H333l3.46-9.08h1.25Zm-2.58-3.51-1.38-3.77a5.19,5.19,0,0,1-.14-.64h0a3.74,3.74,0,0,1-.14.64l-1.36,3.77Z" transform="translate(0 0.58)"/><path class="cls-31" d="M347.32,197.12h-5.38v-.38l3.77-5.15H342.3v-1h5.05V191l-3.75,5.16h3.72Z" transform="translate(0 0.58)"/><path class="cls-31" d="M354,197.12h-1.16v-1h0a2.14,2.14,0,0,1-2,1.17c-1.53,0-2.3-.92-2.3-2.75v-3.88h1.13v3.71c0,1.31.51,2,1.52,2a1.5,1.5,0,0,0,1.21-.55,2.11,2.11,0,0,0,.46-1.4v-3.73H354Z" transform="translate(0 0.58)"/><path class="cls-31" d="M359.42,191.78a1.38,1.38,0,0,0-1.89.41,2.85,2.85,0,0,0-.43,1.65v3.28H356v-6.48h1.15V192h0a1.77,1.77,0,0,1,1.7-1.43,1.58,1.58,0,0,1,.6.09Z" transform="translate(0 0.58)"/><path class="cls-31" d="M365.82,194.17h-4.54a2.31,2.31,0,0,0,.57,1.6,2,2,0,0,0,1.51.57,3.21,3.21,0,0,0,2-.7v1a3.88,3.88,0,0,1-2.27.6,2.8,2.8,0,0,1-2.2-.89,3.62,3.62,0,0,1-.78-2.47,3.55,3.55,0,0,1,.86-2.46,2.78,2.78,0,0,1,2.15-1,2.5,2.5,0,0,1,2,.81,3.36,3.36,0,0,1,.72,2.29Zm-1.15-.92a2,2,0,0,0-.42-1.36,1.42,1.42,0,0,0-1.15-.48,1.62,1.62,0,0,0-1.19.51,2.44,2.44,0,0,0-.63,1.33Z" transform="translate(0 0.58)"/><path class="cls-31" d="M378.18,197.12h-1.3l-.92-2.49h-3.78l-.88,2.49H370l3.45-9.08h1.26Zm-2.59-3.51-1.37-3.77a5.19,5.19,0,0,1-.14-.64h0a2.88,2.88,0,0,1-.15.64l-1.36,3.77Z" transform="translate(0 0.58)"/><path class="cls-31" d="M383.64,196.83a3.49,3.49,0,0,1-1.79.44,3,3,0,0,1-2.27-.9,3.25,3.25,0,0,1-.85-2.34,3.61,3.61,0,0,1,.92-2.57,3.25,3.25,0,0,1,2.47-1,3.42,3.42,0,0,1,1.53.31v1.14a2.5,2.5,0,0,0-1.53-.5,2,2,0,0,0-1.6.68,2.61,2.61,0,0,0-.62,1.82,2.53,2.53,0,0,0,.58,1.75,2.06,2.06,0,0,0,1.58.63,2.59,2.59,0,0,0,1.58-.55Z" transform="translate(0 0.58)"/><path class="cls-31" d="M388.49,197.05a2.08,2.08,0,0,1-1,.21c-1.16,0-1.74-.64-1.74-1.93v-3.74h-1.11v-1h1.11v-1.56l1.14-.36v1.92h1.61v1h-1.61v3.54a1.45,1.45,0,0,0,.22.91.86.86,0,0,0,.72.28,1.1,1.1,0,0,0,.67-.22Z" transform="translate(0 0.58)"/><path class="cls-31" d="M389.63,188.35a.73.73,0,0,1,1.24-.51.65.65,0,0,1,.22.51.64.64,0,0,1-.22.51.72.72,0,0,1-1.24-.51Zm.13,8.77v-6.48h1.15v6.48Z" transform="translate(0 0.58)"/><path class="cls-31" d="M398.22,190.64l-2.56,6.48H394.5l-2.44-6.48h1.25l1.59,4.63a4.44,4.44,0,0,1,.23.93h0a4.18,4.18,0,0,1,.21-.91l1.66-4.65Z" transform="translate(0 0.58)"/><path class="cls-31" d="M404.42,194.17h-4.54a2.31,2.31,0,0,0,.57,1.6,2,2,0,0,0,1.51.57,3.19,3.19,0,0,0,2-.7v1a3.88,3.88,0,0,1-2.27.6,2.77,2.77,0,0,1-2.19-.89,4.1,4.1,0,0,1,.07-4.93,2.78,2.78,0,0,1,2.15-1,2.52,2.52,0,0,1,2,.81,3.41,3.41,0,0,1,.71,2.29Zm-1.15-.92a2.06,2.06,0,0,0-.41-1.36,1.45,1.45,0,0,0-1.16-.48,1.62,1.62,0,0,0-1.19.51,2.44,2.44,0,0,0-.63,1.33Z" transform="translate(0 0.58)"/><path class="cls-31" d="M343.49,210.12V201h2.59a5,5,0,0,1,3.43,1.2,4.09,4.09,0,0,1,1.37,3.23,4.42,4.42,0,0,1-1.37,3.38,5,5,0,0,1-3.52,1.27Zm1.17-8v7H346a3.71,3.71,0,0,0,2.7-.94,3.5,3.5,0,0,0,1-2.64,3.17,3.17,0,0,0-1-2.56,3.86,3.86,0,0,0-2.62-.85Z" transform="translate(0 0.58)"/><path class="cls-31" d="M352.27,201.35a.72.72,0,0,1,.72-.72.72.72,0,0,1,.53.21.68.68,0,0,1,.21.51.66.66,0,0,1-.21.51.72.72,0,0,1-.53.2.67.67,0,0,1-.51-.2A.66.66,0,0,1,352.27,201.35Zm.14,8.77v-6.48h1.15v6.48Z" transform="translate(0 0.58)"/><path class="cls-31" d="M359,204.78a1.32,1.32,0,0,0-.79-.21,1.3,1.3,0,0,0-1.1.62,2.85,2.85,0,0,0-.44,1.65v3.28h-1.15v-6.48h1.15V205h0a1.76,1.76,0,0,1,1.7-1.43,1.58,1.58,0,0,1,.6.09Z" transform="translate(0 0.58)"/><path class="cls-31" d="M365.36,207.17h-4.53a2.36,2.36,0,0,0,.56,1.6,2,2,0,0,0,1.51.57,3.19,3.19,0,0,0,2-.7v1a3.88,3.88,0,0,1-2.27.6,2.77,2.77,0,0,1-2.19-.89,4.1,4.1,0,0,1,.07-4.93,2.78,2.78,0,0,1,2.15-1,2.52,2.52,0,0,1,2,.81,3.41,3.41,0,0,1,.71,2.29Zm-1.15-.92a2.06,2.06,0,0,0-.41-1.36,1.45,1.45,0,0,0-1.16-.48,1.6,1.6,0,0,0-1.18.51,2.31,2.31,0,0,0-.63,1.33Z" transform="translate(0 0.58)"/><path class="cls-31" d="M371.41,209.83a3.47,3.47,0,0,1-1.79.44,3,3,0,0,1-2.26-.9,3.26,3.26,0,0,1-.86-2.34,3.57,3.57,0,0,1,.93-2.57,3.22,3.22,0,0,1,2.47-1,3.38,3.38,0,0,1,1.52.31v1.14a2.5,2.5,0,0,0-1.52-.5,2.07,2.07,0,0,0-1.61.68,2.61,2.61,0,0,0-.62,1.82,2.49,2.49,0,0,0,.59,1.75,2,2,0,0,0,1.57.63,2.57,2.57,0,0,0,1.58-.55Z" transform="translate(0 0.58)"/><path class="cls-31" d="M376.27,210.05a2.09,2.09,0,0,1-1,.21c-1.16,0-1.74-.64-1.74-1.93v-3.74H372.4v-1h1.11v-1.56l1.14-.36v1.92h1.62v1h-1.62v3.54a1.52,1.52,0,0,0,.22.91.89.89,0,0,0,.72.28,1.15,1.15,0,0,0,.68-.22Z" transform="translate(0 0.58)"/><path class="cls-31" d="M377.06,207a3.46,3.46,0,0,1,.9-2.53,3.22,3.22,0,0,1,2.43-.93,3,3,0,0,1,2.29.89,4,4,0,0,1-.06,5,3.09,3.09,0,0,1-2.37.94,3,3,0,0,1-2.32-.91A3.35,3.35,0,0,1,377.06,207Zm1.17,0a2.58,2.58,0,0,0,.57,1.77,1.91,1.91,0,0,0,1.52.64,1.82,1.82,0,0,0,1.5-.63,3.41,3.41,0,0,0,0-3.62,1.82,1.82,0,0,0-1.5-.63,1.92,1.92,0,0,0-1.53.66A2.72,2.72,0,0,0,378.23,206.91Z" transform="translate(0 0.58)"/><path class="cls-31" d="M388.55,204.78a1.32,1.32,0,0,0-.79-.21,1.3,1.3,0,0,0-1.1.62,2.85,2.85,0,0,0-.44,1.65v3.28h-1.15v-6.48h1.15V205h0a1.76,1.76,0,0,1,1.7-1.43,1.58,1.58,0,0,1,.6.09Z" transform="translate(0 0.58)"/><path class="cls-31" d="M395.44,203.64l-2.94,7.46c-.55,1.38-1.32,2.07-2.32,2.07a2.6,2.6,0,0,1-.73-.09v-1a1.71,1.71,0,0,0,.65.13,1.26,1.26,0,0,0,1.16-.91l.5-1.18-2.54-6.47h1.27l1.69,4.87.14.53h0c0-.12.07-.29.14-.52l1.77-4.88Z" transform="translate(0 0.58)"/><path class="cls-31" d="M340.85,225.18a8.06,8.06,0,0,1-2-5.52,8.41,8.41,0,0,1,2-5.62h1a8.62,8.62,0,0,0-2,5.6,8.43,8.43,0,0,0,2,5.54Z" transform="translate(0 0.58)"/><path class="cls-31" d="M350.12,223.12h-1.3l-.92-2.49h-3.78l-.87,2.49H342l3.46-9.08h1.25Zm-2.59-3.51-1.37-3.77a5.19,5.19,0,0,1-.14-.64h0a3.74,3.74,0,0,1-.14.64l-1.36,3.77Z" transform="translate(0 0.58)"/><path class="cls-31" d="M356.25,223.12h-5.38v-.38l3.77-5.15h-3.42v-1h5.06V217l-3.75,5.16h3.72Z" transform="translate(0 0.58)"/><path class="cls-31" d="M362.94,223.12h-1.15v-1h0a2.15,2.15,0,0,1-2,1.17c-1.54,0-2.3-.92-2.3-2.75v-3.88h1.13v3.71c0,1.31.51,2,1.51,2a1.51,1.51,0,0,0,1.22-.55,2.11,2.11,0,0,0,.46-1.4v-3.73h1.15Z" transform="translate(0 0.58)"/><path class="cls-31" d="M368.35,217.78a1.38,1.38,0,0,0-1.89.41,2.85,2.85,0,0,0-.43,1.65v3.28h-1.15v-6.48H366V218h0a1.77,1.77,0,0,1,1.7-1.43,1.58,1.58,0,0,1,.6.09Z" transform="translate(0 0.58)"/><path class="cls-31" d="M374.75,220.17h-4.54a2.31,2.31,0,0,0,.57,1.6,2,2,0,0,0,1.51.57,3.16,3.16,0,0,0,2-.7v1a3.85,3.85,0,0,1-2.26.6,2.8,2.8,0,0,1-2.2-.89,3.63,3.63,0,0,1-.79-2.47,3.56,3.56,0,0,1,.87-2.46,2.76,2.76,0,0,1,2.15-1,2.5,2.5,0,0,1,2,.81,3.36,3.36,0,0,1,.72,2.29Zm-1.15-.92a2.07,2.07,0,0,0-.42-1.36,1.43,1.43,0,0,0-1.15-.48,1.62,1.62,0,0,0-1.19.51,2.44,2.44,0,0,0-.63,1.33Z" transform="translate(0 0.58)"/><path class="cls-31" d="M387.1,223.12h-1.29l-.93-2.49H381.1l-.87,2.49h-1.29l3.45-9.08h1.26Zm-2.58-3.51-1.37-3.77a5.19,5.19,0,0,1-.14-.64h0a2.88,2.88,0,0,1-.15.64l-1.36,3.77Z" transform="translate(0 0.58)"/><path class="cls-31" d="M388.34,223.12V214h2.59a5,5,0,0,1,3.43,1.2,4.09,4.09,0,0,1,1.37,3.23,4.42,4.42,0,0,1-1.37,3.38,5,5,0,0,1-3.52,1.27Zm1.17-8v7h1.32a3.71,3.71,0,0,0,2.7-.94,3.54,3.54,0,0,0,1-2.64,3.17,3.17,0,0,0-1-2.56,3.88,3.88,0,0,0-2.62-.85Z" transform="translate(0 0.58)"/><path class="cls-31" d="M396,225.18a8.36,8.36,0,0,0,2-5.54,8.57,8.57,0,0,0-2-5.6h1a8.37,8.37,0,0,1,2,5.62,8,8,0,0,1-2,5.52Z" transform="translate(0 0.58)"/><path class="cls-31" d="M456.91,204.68v-6c0-.5,0-1.09.09-1.79h0a5.17,5.17,0,0,1-.27.92l-3,6.88h-.65l-3-6.83a6.37,6.37,0,0,1-.27-1h0c0,.42.06,1,.06,1.84v6H448.7v-9.07h1.59l2.67,6.22a7.79,7.79,0,0,1,.41,1.11h0c.2-.56.35-.94.43-1.14l2.72-6.19h1.51v9.07Z" transform="translate(0 0.58)"/><path class="cls-31" d="M460,195.92a.7.7,0,0,1,.21-.52.69.69,0,0,1,.51-.2.73.73,0,0,1,.53.2.7.7,0,0,1,.21.52.66.66,0,0,1-.21.5.74.74,0,0,1-.53.21.68.68,0,0,1-.51-.21A.66.66,0,0,1,460,195.92Zm.14,8.76V198.2h1.15v6.48Z" transform="translate(0 0.58)"/><path class="cls-31" d="M467.7,204.39a3.37,3.37,0,0,1-1.79.44,3,3,0,0,1-2.26-.9,3.26,3.26,0,0,1-.86-2.34,3.57,3.57,0,0,1,.93-2.57,3.22,3.22,0,0,1,2.47-1,3.25,3.25,0,0,1,1.52.32v1.13a2.56,2.56,0,0,0-1.52-.5,2.1,2.1,0,0,0-1.61.68,2.62,2.62,0,0,0-.62,1.82,2.47,2.47,0,0,0,.59,1.75,2,2,0,0,0,1.57.63,2.57,2.57,0,0,0,1.58-.55Z" transform="translate(0 0.58)"/><path class="cls-31" d="M472.69,199.34a1.36,1.36,0,0,0-.8-.21,1.3,1.3,0,0,0-1.1.63,2.79,2.79,0,0,0-.43,1.64v3.28h-1.15V198.2h1.15v1.32h0a1.78,1.78,0,0,1,1.7-1.43,1.67,1.67,0,0,1,.61.09Z" transform="translate(0 0.58)"/><path class="cls-31" d="M473.37,201.51a3.48,3.48,0,0,1,.9-2.53,3.22,3.22,0,0,1,2.43-.93,3,3,0,0,1,2.29.89,3.51,3.51,0,0,1,.83,2.47,3.47,3.47,0,0,1-.89,2.48,3.09,3.09,0,0,1-2.37.94,3,3,0,0,1-2.32-.91A3.35,3.35,0,0,1,473.37,201.51Zm1.17,0a2.57,2.57,0,0,0,.57,1.76,1.91,1.91,0,0,0,1.52.64,1.82,1.82,0,0,0,1.5-.63,2.8,2.8,0,0,0,.51-1.8,2.84,2.84,0,0,0-.51-1.82,1.82,1.82,0,0,0-1.5-.63,1.91,1.91,0,0,0-1.53.66A2.75,2.75,0,0,0,474.54,201.48Z" transform="translate(0 0.58)"/><path class="cls-31" d="M481,203.28a3.1,3.1,0,0,0,1.87.63c.89,0,1.34-.29,1.34-.88a.76.76,0,0,0-.3-.62,4.84,4.84,0,0,0-1.18-.58,3.53,3.53,0,0,1-1.41-.85,1.71,1.71,0,0,1-.32-1,1.61,1.61,0,0,1,.73-1.38,3,3,0,0,1,1.8-.52,3.86,3.86,0,0,1,1.53.29v1.1a3,3,0,0,0-1.64-.47,1.54,1.54,0,0,0-.9.24.77.77,0,0,0-.35.64.76.76,0,0,0,.25.6,4.49,4.49,0,0,0,1.11.56,3.69,3.69,0,0,1,1.46.84,1.51,1.51,0,0,1,.38,1.07,1.61,1.61,0,0,1-.73,1.4,3.2,3.2,0,0,1-1.89.51,3.73,3.73,0,0,1-1.75-.38Z" transform="translate(0 0.58)"/><path class="cls-31" d="M486.48,201.51a3.48,3.48,0,0,1,.9-2.53,3.19,3.19,0,0,1,2.43-.93,3,3,0,0,1,2.29.89,3.51,3.51,0,0,1,.82,2.47,3.47,3.47,0,0,1-.88,2.48,3.09,3.09,0,0,1-2.37.94,3,3,0,0,1-2.32-.91A3.35,3.35,0,0,1,486.48,201.51Zm1.17,0a2.57,2.57,0,0,0,.57,1.76,1.9,1.9,0,0,0,1.52.64,1.84,1.84,0,0,0,1.5-.63,2.8,2.8,0,0,0,.51-1.8,2.84,2.84,0,0,0-.51-1.82,1.84,1.84,0,0,0-1.5-.63,1.89,1.89,0,0,0-1.53.66A2.75,2.75,0,0,0,487.65,201.48Z" transform="translate(0 0.58)"/><path class="cls-31" d="M497.71,196.07a1.47,1.47,0,0,0-.69-.17c-.72,0-1.08.44-1.08,1.33v1h1.52v1h-1.52v5.53H494.8v-5.53h-1.1v-1h1.1v-1a2.22,2.22,0,0,1,.6-1.64,2.1,2.1,0,0,1,1.53-.59,2.31,2.31,0,0,1,.78.11Z" transform="translate(0 0.58)"/><path class="cls-31" d="M502.09,204.62a2.22,2.22,0,0,1-1,.2c-1.16,0-1.74-.64-1.74-1.93v-3.74h-1.11v-1h1.11v-1.56l1.14-.36v1.92h1.62v1h-1.62v3.54a1.5,1.5,0,0,0,.22.91.86.86,0,0,0,.72.28,1.09,1.09,0,0,0,.68-.22Z" transform="translate(0 0.58)"/><path class="cls-31" d="M514.6,203.54a7.25,7.25,0,0,0,.07,1,15.58,15.58,0,0,0-1.83,1.13,5.36,5.36,0,0,0-.61.53l-.68-.8a1.36,1.36,0,0,0,.41-1v-4h-1.23v2q0,.69-.33.9a2.1,2.1,0,0,1-1,.18,7.9,7.9,0,0,0-.2-.9c.49.09.73,0,.73-.26v-4.77h-.82v8.65h-.82v-8.65h-.81v6.05h-.81v-6.81h1.62v-2.05h.82v2.05h1.63v2.86H512V194.8h.85v4.84h4.72v.78h-2.76a6.94,6.94,0,0,0,3.05,4.23c-.29.28-.55.56-.78.82a8.32,8.32,0,0,1-3.11-5.05h-1.12v4.15C513.16,204.39,513.75,204.05,514.6,203.54Zm-1.38-5.19a17.78,17.78,0,0,0,3.3-3.08l.69.51a21.88,21.88,0,0,1-3.43,3.24A5.58,5.58,0,0,0,513.22,198.35Z" transform="translate(0 0.58)"/><path class="cls-31" d="M523.28,195.09l.85-.5c.37.44.74.93,1.11,1.45l-.57.36H529v5.19h-.94V201h-7.4a9.33,9.33,0,0,1-1.74,5.4c-.21-.26-.44-.52-.68-.78a8.51,8.51,0,0,0,1.5-5.48V196.4h4.47A15.75,15.75,0,0,0,523.28,195.09Zm-2.56,2.16v2.89h7.38v-2.89Z" transform="translate(0 0.58)"/><path class="cls-31" d="M474.43,219.74a8.06,8.06,0,0,1-2-5.52,8.38,8.38,0,0,1,2-5.61h1a8.6,8.6,0,0,0-2,5.6,8.4,8.4,0,0,0,2,5.53Z" transform="translate(0 0.58)"/><path class="cls-31" d="M484.85,217.68v-6c0-.5,0-1.09.08-1.79h0a7.78,7.78,0,0,1-.27.92l-3,6.88H481l-3-6.83a6.37,6.37,0,0,1-.27-1h0c0,.42.06,1,.06,1.84v6h-1.12v-9.07h1.59l2.67,6.22a7.79,7.79,0,0,1,.41,1.11h0c.2-.56.34-.94.43-1.14l2.72-6.19H486v9.07Z" transform="translate(0 0.58)"/><path class="cls-31" d="M487.81,216a3.14,3.14,0,0,0,1.11.59,4.12,4.12,0,0,0,1.33.24c1.27,0,1.91-.45,1.91-1.36a1.22,1.22,0,0,0-.21-.69,2.07,2.07,0,0,0-.56-.54c-.24-.15-.69-.39-1.34-.72a5.13,5.13,0,0,1-1.8-1.26,2.17,2.17,0,0,1-.44-1.33,2.1,2.1,0,0,1,.91-1.79,3.74,3.74,0,0,1,2.29-.67,4.5,4.5,0,0,1,2,.33v1.28a3.57,3.57,0,0,0-2.08-.57,2.42,2.42,0,0,0-1.35.35,1.1,1.1,0,0,0-.53,1,1.21,1.21,0,0,0,.37.9,7.2,7.2,0,0,0,1.57.94,5.41,5.41,0,0,1,1.87,1.28,2.28,2.28,0,0,1-.33,3.27,4,4,0,0,1-2.41.63,6.28,6.28,0,0,1-1.26-.15,3.06,3.06,0,0,1-1-.37Z" transform="translate(0 0.58)"/><path class="cls-31" d="M502.2,217.68h-1.29L500,215.2H496.2l-.87,2.48H494l3.46-9.07h1.25Zm-2.58-3.51-1.37-3.77a3.42,3.42,0,0,1-.14-.63h0a4.94,4.94,0,0,1-.15.63l-1.36,3.77Z" transform="translate(0 0.58)"/><path class="cls-31" d="M502.29,219.74a8.38,8.38,0,0,0,2-5.53,8.53,8.53,0,0,0-2-5.6h1a8.33,8.33,0,0,1,2,5.61,8,8,0,0,1-2,5.52Z" transform="translate(0 0.58)"/><path class="cls-31" d="M200.65,270.83l-.8.82a15.61,15.61,0,0,1-4.52-5.6v4.64H198v.82h-2.68v2.41h-.92v-2.41h-2.77v-.82h2.77v-4.64a19.44,19.44,0,0,1-4.58,5.74c-.3-.28-.56-.52-.77-.7a19.71,19.71,0,0,0,5-5.79h-4.72v-.86h5.09v-2.11h.92v2.11h5.09v.86h-4.76A14.61,14.61,0,0,0,200.65,270.83Z" transform="translate(0 0.58)"/><path class="cls-31" d="M201,271.77l1.68-.55v-4.68h-1.51v-.82h1.51v-3.26h.87v3.26H205v.82h-1.36v4.39l1.5-.53c0,.33,0,.62.08.87-1.28.46-2.55.93-3.81,1.4Zm7.37-9.37h.91v3l2.85-.87c0,1.54-.1,2.8-.14,3.78s-.47,1.58-1.27,1.59h-1c-.05-.29-.11-.61-.18-1a7.47,7.47,0,0,0,1,.07c.41,0,.62-.29.64-.89s.07-1.52.08-2.43l-1.9.59v5.08h-.91v-4.79l-1.77.55v4.54c0,.61.33.91,1,.91h2.87q1.08,0,1.2-.87c.09-.5.17-1.08.23-1.74.32.12.64.24,1,.34-.11.75-.22,1.36-.32,1.83a1.63,1.63,0,0,1-1.84,1.33h-3.34a1.48,1.48,0,0,1-1.69-1.65v-4.41l-.88.27-.15-.86,1-.31v-2.74h.92v2.46l1.77-.53Z" transform="translate(0 0.58)"/><path class="cls-31" d="M379.1,249.58c1.16,1.29,2.3,2.65,3.44,4.1l-.87.65-.85-1.13q-4.2.15-7.1.34a5.51,5.51,0,0,0-1,.19l-.47-1.08a3.52,3.52,0,0,0,1.17-.9,26.79,26.79,0,0,0,2.33-3.31h-4.22v-.87H383v.87h-6a48.45,48.45,0,0,1-3,4.14q4-.11,6.16-.19c-.63-.79-1.25-1.56-1.87-2.3Zm-6.43-5.6h9.27v.86h-9.27Z" transform="translate(0 0.58)"/><path class="cls-31" d="M334.46,265.57c.78.48,1.49,1,2.11,1.43a8.77,8.77,0,0,0-.63.78,25.31,25.31,0,0,0-2.05-1.54Zm1.08,3.37,1,.41c-.37,1.27-.82,2.77-1.37,4.5l-1-.38A41.15,41.15,0,0,0,335.54,268.94Zm-.62-6.3c1,.66,1.66,1.15,2.08,1.49l-.63.74c-.68-.58-1.35-1.11-2-1.58Zm5.79,9c0,.33,0,.63,0,.89-.86.34-1.57.64-2.13.88a6,6,0,0,0-.85.45l-.53-.76c.2-.1.3-.36.3-.79v-4h.86v1.14h2.44v.83h-2.44v2.22C339.13,272.3,339.91,272,340.71,271.68Zm-2.42-3.59h-.89V263h7.08v5.13h-.89v-.48h-5.3Zm5.3-4.25h-5.3V265h5.3Zm-5.3,3h5.3v-1.11h-5.3Zm2.89,1.43H342v1.91a28,28,0,0,0,2.63-1.59l.56.77c-.79.49-1.85,1.07-3.19,1.76V272q0,.75.66.75h.86q.57,0,.69-.39a12.1,12.1,0,0,0,.31-1.67,8.35,8.35,0,0,0,.88.32,17.2,17.2,0,0,1-.36,1.7,1.27,1.27,0,0,1-1.42.93h-1.08c-.93,0-1.4-.49-1.4-1.46Z" transform="translate(0 0.58)"/><path class="cls-31" d="M352.5,262.6l-.28.34a12,12,0,0,0,5.19,3.83c-.24.34-.45.65-.62.94a14,14,0,0,1-1.81-1v.67h-6.85v-.58c-.57.37-1.18.74-1.83,1.1a9.66,9.66,0,0,0-.59-.88,14.7,14.7,0,0,0,5.48-4.38Zm-5,6.23h8.17V274h-.94v-.78h-6.29v.81h-.94Zm7.23.86h-6.29v2.73h6.29Zm-3.11-6.07a14.68,14.68,0,0,1-3.13,2.89h6.27A14.63,14.63,0,0,1,351.6,263.62Z" transform="translate(0 0.58)"/><path class="cls-31" d="M574.79,209.32h-1.3l-.92-2.48h-3.78l-.87,2.48h-1.3l3.46-9.08h1.25Zm-2.59-3.51L570.83,202a4.43,4.43,0,0,1-.14-.64h0a3.74,3.74,0,0,1-.14.64l-1.36,3.77Z" transform="translate(0 0.58)"/><path class="cls-31" d="M580.89,209.32h-5.38v-.38l3.76-5.15h-3.41v-.95h5v.37l-3.74,5.16h3.72Z" transform="translate(0 0.58)"/><path class="cls-31" d="M587.54,209.32h-1.15v-1h0a2.13,2.13,0,0,1-2,1.17c-1.54,0-2.31-.92-2.31-2.75v-3.88h1.14v3.71c0,1.32.5,2,1.51,2a1.48,1.48,0,0,0,1.21-.55,2.11,2.11,0,0,0,.47-1.4v-3.73h1.15Z" transform="translate(0 0.58)"/><path class="cls-31" d="M592.92,204a1.36,1.36,0,0,0-.8-.21,1.3,1.3,0,0,0-1.1.63,2.79,2.79,0,0,0-.43,1.64v3.28h-1.15v-6.48h1.15v1.32h0a1.78,1.78,0,0,1,1.7-1.43,1.67,1.67,0,0,1,.61.09Z" transform="translate(0 0.58)"/><path class="cls-31" d="M599.27,206.37h-4.53a2.36,2.36,0,0,0,.57,1.61,2,2,0,0,0,1.5.56,3.19,3.19,0,0,0,2-.7v1a3.88,3.88,0,0,1-2.27.6,2.74,2.74,0,0,1-2.19-.89,4.1,4.1,0,0,1,.07-4.93,2.79,2.79,0,0,1,2.15-1,2.52,2.52,0,0,1,2,.81,3.41,3.41,0,0,1,.71,2.29Zm-1.15-.92a2.06,2.06,0,0,0-.41-1.36,1.45,1.45,0,0,0-1.16-.48,1.6,1.6,0,0,0-1.18.51,2.31,2.31,0,0,0-.63,1.33Z" transform="translate(0 0.58)"/><path class="cls-31" d="M611.56,209.32h-1.3l-.92-2.48h-3.78l-.88,2.48h-1.29l3.46-9.08h1.25ZM609,205.81,607.6,202a4.43,4.43,0,0,1-.14-.64h0a3.74,3.74,0,0,1-.14.64l-1.36,3.77Z" transform="translate(0 0.58)"/><path class="cls-31" d="M612.76,209.32v-9.08h2.59a5,5,0,0,1,3.43,1.21,4.07,4.07,0,0,1,1.37,3.22,4.42,4.42,0,0,1-1.37,3.38,5,5,0,0,1-3.53,1.27Zm1.17-8v7h1.32a3.71,3.71,0,0,0,2.7-.94,3.54,3.54,0,0,0,1-2.64,3.2,3.2,0,0,0-1-2.56,3.9,3.9,0,0,0-2.62-.85Z" transform="translate(0 0.58)"/><path class="cls-31" d="M625.38,209.32v-9.08H628a2.9,2.9,0,0,1,1.91.58,1.83,1.83,0,0,1,.72,1.51,2.11,2.11,0,0,1-.43,1.32,2.22,2.22,0,0,1-1.17.82v0a2.33,2.33,0,0,1,1.48.7,2.14,2.14,0,0,1,.56,1.51,2.4,2.4,0,0,1-.84,1.9,3.2,3.2,0,0,1-2.16.72Zm1.17-8v2.84h1.06a2,2,0,0,0,1.34-.41,1.44,1.44,0,0,0,.48-1.15c0-.85-.57-1.28-1.71-1.28Zm0,3.86v3.16H628a2.18,2.18,0,0,0,1.43-.42,1.48,1.48,0,0,0,.5-1.18c0-1-.71-1.56-2.12-1.56Z" transform="translate(0 0.58)"/><path class="cls-31" d="M636.49,202.62a1.5,1.5,0,0,0-.46-1.15,1.81,1.81,0,0,0-1.26-.42,2.54,2.54,0,0,0-1.14.29,3.69,3.69,0,0,0-1.07.82v-1.11a2.94,2.94,0,0,1,1-.71,3.17,3.17,0,0,1,1.32-.25,2.91,2.91,0,0,1,2,.66,2.27,2.27,0,0,1,.75,1.79,3.26,3.26,0,0,1-.46,1.73,5.6,5.6,0,0,1-1.58,1.5c-.76.52-1.26.9-1.52,1.12a2.4,2.4,0,0,0-.53.65,1.61,1.61,0,0,0-.16.76h4.51v1h-5.7v-.45a3.71,3.71,0,0,1,.21-1.33,3.27,3.27,0,0,1,.71-1.07,10.71,10.71,0,0,1,1.53-1.25,6,6,0,0,0,1.46-1.31A2.23,2.23,0,0,0,636.49,202.62Z" transform="translate(0 0.58)"/><path class="cls-31" d="M645.59,209a5.34,5.34,0,0,1-2.51.52,4.08,4.08,0,0,1-3.12-1.24A4.6,4.6,0,0,1,638.8,205a4.83,4.83,0,0,1,1.31-3.53,4.49,4.49,0,0,1,3.33-1.34,5.32,5.32,0,0,1,2.15.37v1.23a4.3,4.3,0,0,0-2.13-.54,3.23,3.23,0,0,0-2.48,1,3.82,3.82,0,0,0-1,2.72,3.67,3.67,0,0,0,.89,2.59,3,3,0,0,0,2.33,1,4.34,4.34,0,0,0,2.34-.61Z" transform="translate(0 0.58)"/><path class="cls-31" d="M468.91,143.22c1.22-.25,2.57-.55,4-.91,0,.43,0,.73,0,.88-1.07.24-2.32.55-3.76.93Zm1.5-2.75c.65-.09,1.42-.2,2.29-.34,0,.31-.08.6-.1.88-.89.13-2,.29-3.26.5l-.19-.86a14.63,14.63,0,0,0,1.77-2.55l-1.77.12-.22-.79a20.74,20.74,0,0,0,2.23-4.15l.89.35c-.76,1.49-1.45,2.73-2.08,3.73l1.4,0q.45-.78.93-1.71l.88.39C472.05,138,471.12,139.45,470.41,140.47Zm2.37-3.19a15,15,0,0,0,2.25-4l.88.29c-.15.36-.32.71-.49,1.05h4.4v.83a10,10,0,0,1-2.34,2.73,7.74,7.74,0,0,0,3.17,1.23c-.17.37-.3.71-.41,1a10.06,10.06,0,0,1-3.48-1.67,14.11,14.11,0,0,1-3.65,1.79,7,7,0,0,0-.41-.82,11.85,11.85,0,0,0,3.41-1.53,7.44,7.44,0,0,1-1.52-2,20.49,20.49,0,0,1-1.22,1.77A7.79,7.79,0,0,0,472.78,137.28Zm.88,5.85.37-.82c1.43.4,3.22.92,5.35,1.59l-.43.92C477,144.11,475.19,143.55,473.66,143.13ZM475,141l.35-.78c1.18.35,2.36.74,3.54,1.16l-.39.92A37.09,37.09,0,0,0,475,141Zm3.78-5.6h-3.72a7.85,7.85,0,0,0,1.75,2.26A8.51,8.51,0,0,0,478.78,135.4Z" transform="translate(0 0.58)"/><path class="cls-31" d="M481,143.17q2.16-.42,4.23-.93c0,.32,0,.61,0,.89-1.26.27-2.57.58-3.93.94Zm1.53-2.77c1-.14,1.9-.28,2.58-.39-.05.3-.08.6-.1.89-.87.12-2,.31-3.55.55l-.19-.87a15.51,15.51,0,0,0,1.79-2.47c-.66,0-1.26.08-1.79.13l-.22-.8a21,21,0,0,0,2.23-4.16l.89.35c-.84,1.66-1.53,2.9-2.07,3.74l1.42,0c.26-.45.54-1,.83-1.48l.87.43C484.35,137.76,483.45,139.14,482.55,140.4Zm3-2.49h2.85v-1.83h-3.24v-.84h3.24v-1.88h.94v1.88h3.28v.84h-3.28v1.83h2.87v.84h-6.66Zm.23,2.22H492v4.76h-.92v-.72h-4.36v.72h-.91Zm5.27.83h-4.36v2.39h4.36Z" transform="translate(0 0.58)"/><path class="cls-31" d="M495.49,142.3a25,25,0,0,1-1.57,2.52l-.81-.57a24.44,24.44,0,0,0,1.56-2.42Zm-.88-5.29h3.68v-3.68h1v1.4h5.24v.85h-5.24V137h4.15v4.47h-1V141h-6.89v.49h-1Zm7.85.84h-6.89v2.3h6.89Zm-5,3.94a21,21,0,0,1,.94,2.49l-.95.33c-.24-.85-.52-1.69-.83-2.52Zm2.8-.08a22.8,22.8,0,0,1,1,2.42l-.92.36a25.37,25.37,0,0,0-.95-2.46Zm2.85,0a22.77,22.77,0,0,1,1.5,2.56l-.89.48c-.39-.8-.86-1.67-1.42-2.62Z" transform="translate(0 0.58)"/><path class="cls-31" d="M426,158.46a8.05,8.05,0,0,1-2-5.52,8.4,8.4,0,0,1,2-5.62h1a8.64,8.64,0,0,0-2,5.61,8.4,8.4,0,0,0,2,5.53Z" transform="translate(0 0.58)"/><path class="cls-31" d="M427.42,152.71c.56-.15,1.1-.3,1.62-.46v-2.68h-1.48v-.84H429v-2.19h.87v2.19h1.34v.84h-1.34V152l1.09-.35a5.91,5.91,0,0,0,.07.91l-1.16.38v3.62c0,.84-.38,1.26-1.14,1.27-.29,0-.66,0-1.1,0,0-.32-.08-.64-.14-1,.47,0,.8.07,1,.07.35,0,.52-.21.52-.62v-3.07l-1.5.51Zm3.19,4.38a11.46,11.46,0,0,0,3.72-1.11L432,155a15.6,15.6,0,0,0,.93-1.3H431v-.78h2.42c.25-.42.47-.85.68-1.27l.87.36c-.19.32-.38.62-.56.91h4.51v.78h-1.54a5.75,5.75,0,0,1-1.37,2.18c1,.41,2,.82,2.9,1.23l-.52.87c-.88-.47-1.91-1-3.11-1.52a11.27,11.27,0,0,1-4.21,1.57A8.29,8.29,0,0,0,430.61,157.09Zm.41-6.45h4.56c.5-.69.94-1.33,1.32-1.93l.88.48c-.4.49-.82,1-1.23,1.45H439v.79h-8Zm.46-2.85h3.31c-.19-.35-.38-.7-.58-1l.78-.36c.25.42.49.84.72,1.27l-.3.14h3.3v.79h-7.23Zm1,1.39.68-.46c.37.43.72.88,1.07,1.36l-.75.5A13.28,13.28,0,0,0,432.53,149.18Zm.67,5.52c.65.25,1.29.51,1.92.77a4,4,0,0,0,1.3-1.82H433.9C433.66,154,433.43,154.36,433.2,154.7Z" transform="translate(0 0.58)"/><path class="cls-31" d="M441.56,153.24v-.81H449v.84a10.57,10.57,0,0,1-2.64,2.61,15.83,15.83,0,0,0,5.05,1.1,9.49,9.49,0,0,0-.63,1,14.78,14.78,0,0,1-5.31-1.57,19.42,19.42,0,0,1-5.14,1.64c-.16-.27-.34-.57-.55-.88a21.31,21.31,0,0,0,4.84-1.34,8.8,8.8,0,0,1-2.22-2.6Zm-1.42-2.92h7.16a24.28,24.28,0,0,0,1.42-2.4l.93.53c-.51.75-1,1.37-1.34,1.87h2.63v2.41H450v-1.59h-8.9v1.59h-.95Zm.58-2.33c-.05-.27-.1-.56-.17-.86q5.65-.06,9.63-.36l.14.87Q445.66,147.88,440.72,148Zm.57.61.73-.44a18.39,18.39,0,0,1,1.1,1.59l-.83.48C442,149.67,441.64,149.13,441.29,148.6Zm6.61,4.64h-4.58a7.68,7.68,0,0,0,2.14,2.15A8.78,8.78,0,0,0,447.9,153.24Zm-3.4-4.85.77-.37a14.68,14.68,0,0,1,1,1.69l-.85.42A14.46,14.46,0,0,0,444.5,148.39Z" transform="translate(0 0.58)"/><path class="cls-31" d="M461.34,149.92l-2.56,6.48h-1.16l-2.44-6.48h1.25l1.59,4.63a4.33,4.33,0,0,1,.22.93h0a4.18,4.18,0,0,1,.21-.91l1.66-4.65Z" transform="translate(0 0.58)"/><path class="cls-31" d="M464.62,156.4v-7.76a3.72,3.72,0,0,1-.91.6,5.52,5.52,0,0,1-1.19.47v-1.13a8.33,8.33,0,0,0,2.81-1.45h.43v9.27Z" transform="translate(0 0.58)"/><path class="cls-31" d="M468.29,155.8a.72.72,0,0,1,.75-.75.75.75,0,1,1,0,1.49.7.7,0,0,1-.54-.22A.73.73,0,0,1,468.29,155.8Z" transform="translate(0 0.58)"/><path class="cls-31" d="M470.85,152a6.74,6.74,0,0,1,.8-3.63,2.57,2.57,0,0,1,2.31-1.24q2.88,0,2.88,4.65a6.34,6.34,0,0,1-.81,3.52,2.58,2.58,0,0,1-2.28,1.21,2.42,2.42,0,0,1-2.14-1.15A6.19,6.19,0,0,1,470.85,152Zm1.18,0c0,2.41.61,3.61,1.83,3.61s1.81-1.22,1.81-3.67-.59-3.8-1.77-3.8S472,149.41,472,152Z" transform="translate(0 0.58)"/><path class="cls-31" d="M481.06,154.72a15.08,15.08,0,0,0,2.12-3.94h-2.05V150h2.23v-1.85c-.61.1-1.22.18-1.85.26a7.55,7.55,0,0,0-.26-.81,41.66,41.66,0,0,0,4.73-.79l.27.82-2,.37v2h2.2v.8h-2.2v1.51l.43-.42c.61.53,1.22,1.09,1.81,1.69l-.66.68c-.47-.54-1-1.09-1.58-1.65V158h-.89v-5.63a14.77,14.77,0,0,1-1.86,3.32C481.38,155.42,481.23,155.09,481.06,154.72Zm6-6.86h5.18v9.79h-.94v-1.14H488v1.14H487Zm4.24.87H488v6.94h3.3Z" transform="translate(0 0.58)"/><path class="cls-31" d="M502.71,149.92l-2.56,6.48H499l-2.44-6.48h1.25l1.58,4.63a3.89,3.89,0,0,1,.23.93h0a4.18,4.18,0,0,1,.21-.91l1.65-4.65Z" transform="translate(0 0.58)"/><path class="cls-31" d="M507.28,149.7a1.47,1.47,0,0,0-.47-1.15,1.81,1.81,0,0,0-1.26-.42,2.53,2.53,0,0,0-1.13.29,3.73,3.73,0,0,0-1.08.82v-1.11a3.08,3.08,0,0,1,1-.71,3.14,3.14,0,0,1,1.32-.25,2.89,2.89,0,0,1,2,.66,2.27,2.27,0,0,1,.75,1.79,3.17,3.17,0,0,1-.46,1.73,5.41,5.41,0,0,1-1.57,1.5c-.76.52-1.26.9-1.52,1.12a2.18,2.18,0,0,0-.54.66,1.67,1.67,0,0,0-.15.75h4.51v1H503V156a3.71,3.71,0,0,1,.21-1.33,3.27,3.27,0,0,1,.71-1.07,10.17,10.17,0,0,1,1.53-1.25,6,6,0,0,0,1.46-1.31A2.23,2.23,0,0,0,507.28,149.7Z" transform="translate(0 0.58)"/><path class="cls-31" d="M510,155.8a.77.77,0,0,1,.22-.54.75.75,0,0,1,.54-.21.74.74,0,0,1,.54,1.27.71.71,0,0,1-.55.22.69.69,0,0,1-.53-.22A.7.7,0,0,1,510,155.8Z" transform="translate(0 0.58)"/><path class="cls-31" d="M512.58,152a6.74,6.74,0,0,1,.8-3.63,2.57,2.57,0,0,1,2.31-1.24q2.88,0,2.88,4.65a6.34,6.34,0,0,1-.81,3.52,2.58,2.58,0,0,1-2.28,1.21,2.41,2.41,0,0,1-2.14-1.15A6.1,6.1,0,0,1,512.58,152Zm1.17,0c0,2.41.61,3.61,1.84,3.61s1.8-1.22,1.8-3.67-.59-3.8-1.77-3.8S513.75,149.41,513.75,152Z" transform="translate(0 0.58)"/><path class="cls-31" d="M529.47,146.59l-.22.3a11.21,11.21,0,0,0,5.27,4c-.27.37-.49.69-.65,1a14.49,14.49,0,0,1-5.21-4.28,16.84,16.84,0,0,1-5.27,4.33,8.83,8.83,0,0,0-.61-.87,13.83,13.83,0,0,0,5.49-4.46Zm-3.38,7.67,2.59,1.72c.78-.72,1.68-1.62,2.69-2.7h-7.22v-.88h8.53v.88c-1,1-2,2.11-3.22,3.23l1.17.82-.71.79q-2.31-1.8-4.46-3.18Zm1.26-4.1.7-.55c.61.6,1.17,1.19,1.67,1.76L529,152A19.47,19.47,0,0,0,527.35,150.16Z" transform="translate(0 0.58)"/><path class="cls-31" d="M538.64,157.84h-.86v-4.4h-1.26a9.24,9.24,0,0,1-.91,4.57,9.84,9.84,0,0,0-.72-.68,8.14,8.14,0,0,0,.77-4v-6.5h.86v3.44h1.18v-3.78h.85v3.78h.86v.73h-2.89v1.66h2.12ZM539,155h1.43c-.15-.2-.33-.4-.51-.6a4.87,4.87,0,0,0,1.78-1.43h-1.88V147.7h2c.15-.38.31-.81.46-1.3l.92.28-.49,1h3v5.62h-.82v-.39H542.7a5,5,0,0,1-2,2H543v-1.5h.85V155h2.65v.81h-2.65v2.15H543v-2.15h-4Zm1.64-5h1.7v-1.46h-1.7Zm1.68.75h-1.68v1.47h1.43A6,6,0,0,0,542.33,150.68Zm.63,1.47h2v-1.47h-1.77A7.21,7.21,0,0,1,543,152.15Zm2-3.68h-1.75v1.46h1.75Z" transform="translate(0 0.58)"/><path class="cls-31" d="M546.78,158.46a8.35,8.35,0,0,0,2-5.53,8.62,8.62,0,0,0-2-5.61h1a8.37,8.37,0,0,1,2,5.62,8,8,0,0,1-2,5.52Z" transform="translate(0 0.58)"/><path class="cls-31" d="M29.05,35.38c0,3-.4,5.06-1.2,6.29-.36-.33-.81-.71-1.33-1.12a10.87,10.87,0,0,0,1-5.38V31.49H32l-.43-1L33.46,30l.59,1.48h4v1.44h-9Zm-.21,4.08h5.58q.72-2.3,1.69-5.88l1.63.42q-.62,2.3-1.66,5.46h2v1.63H28.84Zm.28-5,1.41-.6c.69,1.5,1.32,3,1.91,4.64l-1.57.58Q30.12,36.89,29.12,34.46ZM32,33.85l1.46-.44q.62,1.62,1.35,4.17L33.24,38Q32.54,35.52,32,33.85Z" transform="translate(0 0.58)"/><path class="cls-31" d="M49.7,39.8A1.72,1.72,0,0,1,49.36,41a1.48,1.48,0,0,1-1,.48,16.06,16.06,0,0,1-1.84.06,15.52,15.52,0,0,0-.47-1.7l1.31.07a.65.65,0,0,0,.74-.72V38.08H45.62v3.28H44V38.08H41.43a6.81,6.81,0,0,1-1,3.61c-.5-.36-1-.69-1.51-1,.63-.86.94-2.38.92-4.58V30.6H49.7Zm-8.21-6.2H44V32.15H41.49Zm0,3H44V35.11H41.49Zm6.57-4.42H45.62V33.6h2.44Zm-2.44,4.42h2.44V35.11H45.62Z" transform="translate(0 0.58)"/><path class="cls-31" d="M51.74,33.27c.87.64,1.64,1.24,2.3,1.8L53,36.27c-.72-.63-1.44-1.25-2.18-1.85Zm.52,3.31a13.08,13.08,0,0,0,1.57.52c-.41,1.74-.82,3.22-1.24,4.45-.56-.19-1.1-.35-1.62-.47A45.37,45.37,0,0,0,52.26,36.58Zm-.09-6.21c.59.43,1.27,1,2,1.65l-1.08,1.15c-.68-.65-1.33-1.24-1.94-1.76Zm1.68,9.17h3.63V37H54.76V35.41h2.72v-2H54.41V31.87H57.7c-.22-.45-.46-.92-.71-1.41L58.66,30c.36.82.62,1.44.76,1.87h2.63v1.55H59.17v2h2.55V37H59.17v2.58h3.3V41.1H53.85Z" transform="translate(0 0.58)"/><path class="cls-31" d="M63.22,34.87h1.07V30.58h4.15v4.29h1.08v-4.3h4.25v4.3h1.09v1.52H73.77v3.55A1.83,1.83,0,0,1,73.5,41a1.07,1.07,0,0,1-.82.44c-.36,0-.89.05-1.57.06a10.55,10.55,0,0,0-.34-1.57c.39,0,.7,0,.94,0,.39,0,.58-.24.58-.71V36.39H71a10.14,10.14,0,0,1-1.15,5.31,9.43,9.43,0,0,0-1.36-.94c.65-.82,1-2.28,1-4.37H68.44v3.43a1.77,1.77,0,0,1-.25,1,1.07,1.07,0,0,1-.67.46,8.06,8.06,0,0,1-1.59.1,10.9,10.9,0,0,0-.34-1.56,7.79,7.79,0,0,0,.79,0c.39,0,.58-.24.58-.7V36.39h-1.2a10.35,10.35,0,0,1-1.16,5.3,11.53,11.53,0,0,0-1.45-.94,8,8,0,0,0,1.13-4.36H63.22ZM67,32h-1.2v2.86H67Zm5.33,0H71v2.87h1.29Z" transform="translate(0 0.58)"/><path class="cls-31" d="M5,233.14l1.54.51a25.83,25.83,0,0,1-1,2.59v8.31H4v-5.18c-.27.46-.56.93-.86,1.38l-.49-2.26A23.11,23.11,0,0,0,5,233.14Zm1,9a27.4,27.4,0,0,0,1.47-3.89l1.5.4a30.69,30.69,0,0,1-1.5,4.15Q6.77,242.45,6,242.12ZM14,234.6V236l-.54,2L12,237.7,12.4,236H8.54a14.44,14.44,0,0,1-1.33,2.33c-.31-.27-.72-.6-1.23-1a16,16,0,0,0,1.91-4.2l1.67.22c-.14.41-.28.81-.42,1.19Zm-3,2.15v6.18a1.75,1.75,0,0,1-.29,1.07,1.25,1.25,0,0,1-.94.43c-.44,0-1.06,0-1.84,0A14.83,14.83,0,0,0,7.72,243a9.06,9.06,0,0,0,1,0,1.21,1.21,0,0,0,.61-.11.51.51,0,0,0,.16-.44v-5.71Zm1.87,1.6q.51,1.28,1.35,4l-1.6.52c-.41-1.6-.8-3-1.19-4.13Z" transform="translate(0 0.58)"/><path class="cls-31" d="M17,233.14l1.74.27-.52,1.6h2v2.28a21,21,0,0,0,1.8-4.17l1.62.42c-.17.52-.36,1-.55,1.53h3L26,241.81a5.87,5.87,0,0,1-.18,1.53,1.69,1.69,0,0,1-.48.71,1.78,1.78,0,0,1-.9.37,18.38,18.38,0,0,1-2.51.1,10.56,10.56,0,0,0-.45-1.77c.58.05,1.19.07,1.85.07a1.7,1.7,0,0,0,.48-.06.77.77,0,0,0,.34-.2.64.64,0,0,0,.18-.29,12.87,12.87,0,0,0,.07-1.44l.06-2.4c0-.75,0-1.35,0-1.82h-2c-.26.55-.53,1.08-.82,1.6a8,8,0,0,0-1.38-.72v7H18.61v-.84H17v.91H15.32V235h1.23A19.28,19.28,0,0,0,17,233.14Zm1.58,3.4H17v2h1.66ZM17,242.08h1.66v-2H17ZM22.08,238a28.53,28.53,0,0,1,1.81,2.45l-1.47,1a26.49,26.49,0,0,0-1.7-2.49Z" transform="translate(0 0.58)"/><path class="cls-31" d="M27.93,244.65V233.82h9.24v10.83H35.5v-.8H29.6v.8Zm7.57-9.28H29.6v1.29h5.9Zm-5.9,4.08h5.9v-1.29H29.6Zm0,2.86h5.9V241H29.6Z" transform="translate(0 0.58)"/><path class="cls-31" d="M38.6,239.89a13.27,13.27,0,0,0,1.34-3.16H38.68v-1.54H40v-2.05h1.44v2.05H42.6v1.54H41.47v1.35c.51.28,1,.56,1.44.83l-.72,1.32c-.17-.14-.41-.31-.72-.52v4.95H40v-4.83A17.21,17.21,0,0,1,39,242C38.84,241.23,38.72,240.51,38.6,239.89Zm5-.95,1.39.4a33.47,33.47,0,0,1-1.46,3.93,7.55,7.55,0,0,0-1.38-.56A27.17,27.17,0,0,0,43.57,238.94Zm-.94-2.26h7.54v1.53h-3v5a1.3,1.3,0,0,1-.34,1,1.49,1.49,0,0,1-1,.37c-.43,0-1,0-1.76,0-.11-.63-.22-1.17-.32-1.62.42,0,.79.05,1.11.05s.68-.21.68-.63v-4.19H42.63Zm.47-2.93h6.62v1.53H43.1ZM48.92,239c.5,1.18,1,2.42,1.42,3.71l-1.44.55c-.45-1.38-.91-2.63-1.37-3.76Z" transform="translate(0 0.58)"/><path class="cls-31" d="M61,239v1.25a8.74,8.74,0,0,1-2.36,2.19,19.35,19.35,0,0,0,3.91.56c-.14.33-.35.87-.64,1.64a16.61,16.61,0,0,1-5.18-1.24,20.64,20.64,0,0,1-4.93,1.29L51,243.13a21,21,0,0,0,3.86-.68A11.84,11.84,0,0,1,53,241l.65-.59H52.52V239Zm-9.7-.23v-2.13h1.46c-.25-.43-.46-.77-.62-1l1.73-.21.6,1.22H56.1c-.22-.39-.44-.77-.67-1.14l1.8-.24c.23.52.42,1,.58,1.38h1c.25-.39.56-.88.94-1.46l1.66.38-.81,1.08h1.47v2.13H60.53v-.68h-7.7v.68Zm10.16-5.31.24,1.43q-4.26.23-10,.37c-.06-.57-.12-1.06-.19-1.47Q57.83,233.72,61.41,233.46Zm-4.69,8.29a10,10,0,0,0,2.1-1.33H54.63A9.43,9.43,0,0,0,56.72,241.75Z" transform="translate(0 0.58)"/><path class="cls-31" d="M70.35,233.12l-.3.36A10.56,10.56,0,0,0,75,236.74l-1,1.65a14.9,14.9,0,0,1-4.94-3.65,12.67,12.67,0,0,1-2.85,2.48h1.23a14.81,14.81,0,0,1-.19,2.28l2,1.31-1,1.39c-.47-.41-.91-.8-1.35-1.17a7.13,7.13,0,0,1-2.47,3.57l-1.21-1.5c1.72-1.14,2.6-3,2.66-5.64-.52.33-1.1.66-1.71,1-.31-.54-.64-1-1-1.52a10.92,10.92,0,0,0,5.14-3.81Zm0,4.1h1.57a14.55,14.55,0,0,1-.07,1.65A6.1,6.1,0,0,0,75,243.15c-.55.65-1,1.15-1.23,1.49a6.26,6.26,0,0,1-2.48-3.27,6.56,6.56,0,0,1-2.93,3.45,15.82,15.82,0,0,0-1.12-1.38C69.35,242.34,70.38,240.27,70.3,237.22Z" transform="translate(0 0.58)"/><path class="cls-31" d="M12.68,94.77V90.84l-1.09.2A14,14,0,0,0,11,89.69,39.9,39.9,0,0,0,15.14,89,7.69,7.69,0,0,1,14,88.08a16.17,16.17,0,0,1-1.55.89,11.1,11.1,0,0,0-.88-1.08,9.8,9.8,0,0,0,3.25-2.15H16.6c-.12.16-.25.31-.39.47h4.38v-.73H13.08V87H11.47V84.16H16l-.36-.85,2-.2c.11.28.23.63.37,1h4.16V87h-1.4v.37A8.9,8.9,0,0,1,18.63,89a25.39,25.39,0,0,0,4,.53l-.58,1.44L21,90.76v4H19.41v-.56H14.27v.56Zm4.18-5a27.73,27.73,0,0,1-3.36.91h7A24.06,24.06,0,0,1,16.86,89.76ZM19.41,92H14.27v.87h5.14Zm-2.54-3.58a7.59,7.59,0,0,0,1.8-1H15.12A7.08,7.08,0,0,0,16.87,88.43Z" transform="translate(0 0.58)"/><path class="cls-31" d="M24,84.88h3.92c-.21-.48-.39-.87-.55-1.17l1.72-.57.85,1.74h3.72v6.06H32v-.61H25.51A8.62,8.62,0,0,1,24,94.75c-.46-.57-.86-1-1.21-1.44A7.33,7.33,0,0,0,24,88.93Zm8,3.87V86.46H25.59v2.29Z" transform="translate(0 0.58)"/><path class="cls-31" d="M37.1,86.92l1.42.18-.8,4.69.8-.15c0,.25-.07.75-.11,1.48-1.09.19-2.29.42-3.58.7l-.26-1.53L36.5,92C36.72,90.38,36.92,88.69,37.1,86.92ZM34.7,85.2h1.41c-.26-.62-.49-1.13-.7-1.54l1.39-.55c.21.39.49.94.85,1.66l-1.07.43h2v1.48H34.7ZM36,87l.61,4.24-1.31.22c-.15-1.45-.34-2.87-.57-4.25Zm2.71.21H46v1.38H42.82l-.19.74h3.19v4.45a.79.79,0,0,1-.39.8,2.2,2.2,0,0,1-.93.18,5.12,5.12,0,0,1-.78-.06l-.07-.59h-1v-3.4H42v3.4H40.8v-3.4h-.66v4H38.75V89.3h2.42l.16-.74H38.69Zm.43-.67V83.84h1.36v1.31h1.07V83.1h1.52v2.05h1.09V83.84h1.36v2.67Zm5.32,4.17h-.67v2.69l.42,0c.17,0,.25-.1.25-.29Z" transform="translate(0 0.58)"/><path class="cls-31" d="M50.54,90.87a3.81,3.81,0,0,0,2.49.9,2.14,2.14,0,0,0,1.19-.27.8.8,0,0,0,.4-.7,1,1,0,0,0-.32-.7,6.07,6.07,0,0,0-1.67-.89c-1.42-.6-2.12-1.47-2.12-2.62a2.3,2.3,0,0,1,1-2,4.28,4.28,0,0,1,2.55-.7,6.25,6.25,0,0,1,2.23.35v1.81a3.74,3.74,0,0,0-2.14-.62,2.24,2.24,0,0,0-1.14.26.81.81,0,0,0-.43.7.9.9,0,0,0,.3.65,5.22,5.22,0,0,0,1.44.8,4.77,4.77,0,0,1,1.87,1.23,2.44,2.44,0,0,1,.5,1.53,2.33,2.33,0,0,1-.92,2,4.35,4.35,0,0,1-2.63.69,5.61,5.61,0,0,1-2.56-.51Z" transform="translate(0 0.58)"/><path class="cls-31" d="M58,93.15V84.07h3.14Q66,84.07,66,88.5a4.44,4.44,0,0,1-1.35,3.38,4.88,4.88,0,0,1-3.49,1.27ZM60,85.66v5.91H61a2.86,2.86,0,0,0,2.16-.82A3.06,3.06,0,0,0,64,88.53a2.71,2.71,0,0,0-.82-2.11A3,3,0,0,0,61,85.66Z" transform="translate(0 0.58)"/><path class="cls-31" d="M74.81,93.15H72.36l-2.75-4a2.82,2.82,0,0,1-.24-.47h0v4.44H67.41V84.07h1.93v4.29h0a4.16,4.16,0,0,1,.26-.48l2.6-3.81h2.31L71.29,88.4Z" transform="translate(0 0.58)"/><path class="cls-31" d="M310.76,11.34v-6c0-.5,0-1.09.09-1.79h0a5.46,5.46,0,0,1-.27.92l-3,6.88h-.65l-3-6.83a6.37,6.37,0,0,1-.27-1h0c0,.42.06,1,.06,1.84v6h-1.12V2.26h1.59l2.68,6.23a7.11,7.11,0,0,1,.4,1.11h0c.21-.56.35-.94.43-1.14l2.73-6.2h1.51v9.08Z" transform="translate(0 0.58)"/><path class="cls-31" d="M313.85,2.57a.73.73,0,0,1,.2-.51.7.7,0,0,1,.52-.21.72.72,0,0,1,.52.21.7.7,0,0,1,.22.51.67.67,0,0,1-.22.51.71.71,0,0,1-.52.2.69.69,0,0,1-.52-.2A.66.66,0,0,1,313.85,2.57Zm.13,8.77V4.86h1.15v6.48Z" transform="translate(0 0.58)"/><path class="cls-31" d="M321.56,11.05a3.53,3.53,0,0,1-1.8.44,3,3,0,0,1-2.26-.9,3.25,3.25,0,0,1-.85-2.34,3.57,3.57,0,0,1,.92-2.57,3.25,3.25,0,0,1,2.47-1,3.38,3.38,0,0,1,1.52.31V6.16a2.46,2.46,0,0,0-1.52-.5,2,2,0,0,0-1.6.68,2.56,2.56,0,0,0-.62,1.82,2.48,2.48,0,0,0,.58,1.75,2,2,0,0,0,1.58.63,2.62,2.62,0,0,0,1.58-.55Z" transform="translate(0 0.58)"/><path class="cls-31" d="M326.54,6a1.32,1.32,0,0,0-.79-.21,1.29,1.29,0,0,0-1.1.63,2.79,2.79,0,0,0-.44,1.64v3.28h-1.15V4.86h1.15V6.18h0a1.76,1.76,0,0,1,1.7-1.43,1.58,1.58,0,0,1,.6.09Z" transform="translate(0 0.58)"/><path class="cls-31" d="M327.22,8.17a3.46,3.46,0,0,1,.9-2.53,3.22,3.22,0,0,1,2.43-.93,3,3,0,0,1,2.29.89,3.51,3.51,0,0,1,.83,2.47,3.49,3.49,0,0,1-.89,2.48,3.09,3.09,0,0,1-2.37.94,3,3,0,0,1-2.32-.91A3.35,3.35,0,0,1,327.22,8.17Zm1.18,0A2.58,2.58,0,0,0,329,9.9a1.93,1.93,0,0,0,1.52.64,1.82,1.82,0,0,0,1.5-.63,2.74,2.74,0,0,0,.52-1.8A2.78,2.78,0,0,0,332,6.29a1.82,1.82,0,0,0-1.5-.63,1.88,1.88,0,0,0-1.52.66A2.69,2.69,0,0,0,328.4,8.13Z" transform="translate(0 0.58)"/><path class="cls-31" d="M334.86,9.94a3.12,3.12,0,0,0,1.87.63c.89,0,1.34-.3,1.34-.88a.78.78,0,0,0-.29-.62,4.61,4.61,0,0,0-1.19-.58,3.29,3.29,0,0,1-1.4-.86,1.59,1.59,0,0,1-.32-1,1.59,1.59,0,0,1,.73-1.38,3,3,0,0,1,1.79-.52,4.13,4.13,0,0,1,1.54.28V6.1a3,3,0,0,0-1.65-.47,1.54,1.54,0,0,0-.9.24.73.73,0,0,0-.34.64.76.76,0,0,0,.25.6,4.53,4.53,0,0,0,1.1.56,3.83,3.83,0,0,1,1.47.83,1.6,1.6,0,0,1,.38,1.08,1.64,1.64,0,0,1-.73,1.4,3.24,3.24,0,0,1-1.89.51,3.77,3.77,0,0,1-1.76-.38Z" transform="translate(0 0.58)"/><path class="cls-31" d="M340.33,8.17a3.46,3.46,0,0,1,.9-2.53,3.22,3.22,0,0,1,2.43-.93A3,3,0,0,1,346,5.6a3.51,3.51,0,0,1,.83,2.47,3.49,3.49,0,0,1-.89,2.48,3.09,3.09,0,0,1-2.37.94,3,3,0,0,1-2.32-.91A3.35,3.35,0,0,1,340.33,8.17Zm1.17,0a2.58,2.58,0,0,0,.57,1.77,1.91,1.91,0,0,0,1.52.64,1.82,1.82,0,0,0,1.5-.63,2.8,2.8,0,0,0,.52-1.8,2.84,2.84,0,0,0-.52-1.82,1.82,1.82,0,0,0-1.5-.63,1.92,1.92,0,0,0-1.53.66A2.74,2.74,0,0,0,341.5,8.13Z" transform="translate(0 0.58)"/><path class="cls-31" d="M351.57,2.73a1.42,1.42,0,0,0-.7-.17c-.72,0-1.08.44-1.08,1.33v1h1.52v.95h-1.52v5.53h-1.13V5.81h-1.11V4.86h1.11v-1a2.21,2.21,0,0,1,.6-1.64,2.1,2.1,0,0,1,1.52-.59,2.17,2.17,0,0,1,.79.11Z" transform="translate(0 0.58)"/><path class="cls-31" d="M355.94,11.28a2.21,2.21,0,0,1-1,.2c-1.16,0-1.74-.64-1.74-1.93V5.81h-1.12V4.86h1.12V3.3l1.14-.36V4.86h1.61v.95h-1.61V9.35a1.52,1.52,0,0,0,.21.91.87.87,0,0,0,.73.28,1.12,1.12,0,0,0,.67-.22Z" transform="translate(0 0.58)"/><path class="cls-31" d="M360,8.7a12.66,12.66,0,0,0,1.79-4.2h-1.7V3.71h1.78V1.41h.82v2.3h1.59V4.5h-1.59V6.58l.5-.53c.5.43.94.84,1.33,1.24l-.62.65c-.38-.43-.78-.86-1.21-1.29v6.18h-.82V6.49a12,12,0,0,1-1.48,3.24C360.24,9.39,360.11,9.05,360,8.7Zm5.36-1.23.88.35c-.64,1.43-1.28,2.7-1.91,3.81a6.32,6.32,0,0,0-.86-.41A27.09,27.09,0,0,0,365.32,7.47Zm-1.09-1.94h7.31v.82h-3.23v4.9q0,1.47-1.35,1.47H365.4c0-.29-.09-.61-.16-1a13.61,13.61,0,0,0,1.47.1c.47,0,.71-.29.71-.87V6.35h-3.19Zm.54-3.43H371v.82h-6.23Zm4.31,5.77.83-.4c.75,1.42,1.36,2.66,1.86,3.74l-.94.41C370.32,10.4,369.74,9.15,369.08,7.87Z" transform="translate(0 0.58)"/><path class="cls-31" d="M376.52,8.88c0,.33.09.66.15,1-.7.52-1.37,1-2,1.56a5.5,5.5,0,0,0-.52.54l-.69-.73a1.4,1.4,0,0,0,.37-1V6.14h-1.48V5.3h2.39v5C375.38,9.8,376,9.34,376.52,8.88Zm-2.42-7.3c.77.79,1.38,1.43,1.83,1.94l-.81.67a25.91,25.91,0,0,0-1.71-2Zm4.28,7.28.79.56a40.35,40.35,0,0,1-3.12,3.39c-.2-.19-.43-.4-.72-.63A25,25,0,0,0,378.38,8.86Zm-1.64-6.68h6.46V8.35h-.9V7.64h-4.66v.71h-.9ZM382.3,3h-4.66V6.82h4.66Zm-1.74,6.47.76-.56q1.4,1.48,2.83,3.22l-.85.63C382.42,11.62,381.51,10.53,380.56,9.47Z" transform="translate(0 0.58)"/><path class="cls-31" d="M384.43,7.71h5.19V2.81H385v-.9h10.36v.9H390.6v4.9h5.23v.91H390.6v4.31h-1V8.62h-5.19Zm1.12-3.61.74-.51a31.16,31.16,0,0,1,2.26,3l-.83.62A34,34,0,0,0,385.55,4.1Zm6,2.44a19.65,19.65,0,0,0,2.32-3l.87.56a32,32,0,0,1-2.47,3.05Z" transform="translate(0 0.58)"/><path class="cls-31" d="M404.14,2.9q1.85,1.71,3.48,3.5l-.83.69c-.31-.37-.63-.73-1-1.08-3.51.15-6.18.27-8,.38a7.13,7.13,0,0,0-1.24.19l-.39-1a3.49,3.49,0,0,0,1-.55,24,24,0,0,0,3.67-3.79l.87.54A31,31,0,0,1,398,5.44c2.39-.07,4.75-.16,7.06-.26-.53-.58-1.08-1.15-1.63-1.7Zm1.73,4.65v5.32h-1V12.1h-6.45v.77h-1V7.55Zm-1,.87h-6.45v2.83h6.45Z" transform="translate(0 0.58)"/><path class="cls-31" d="M412.72,94.2V88.69c0-.51,0-1.14.08-1.91h-.05a10.4,10.4,0,0,1-.28,1.16l-2.24,6.26h-1.54L406.42,88c-.05-.15-.15-.56-.28-1.22h-.06c.05.76.08,1.52.08,2.29V94.2h-1.75V85.12h2.82l1.95,5.49a6.26,6.26,0,0,1,.34,1.28h0a12.39,12.39,0,0,1,.37-1.29l2-5.48h2.73V94.2Z" transform="translate(0 0.58)"/><path class="cls-31" d="M416.29,85.63a.91.91,0,0,1,.3-.71,1.17,1.17,0,0,1,.79-.27,1.12,1.12,0,0,1,.8.28.91.91,0,0,1,.3.7.92.92,0,0,1-.31.71,1.24,1.24,0,0,1-1.57,0A.92.92,0,0,1,416.29,85.63Zm.14,8.57V87.72h1.88V94.2Z" transform="translate(0 0.58)"/><path class="cls-31" d="M424.81,94a3.78,3.78,0,0,1-1.93.4,3.28,3.28,0,0,1-2.4-.9,3.15,3.15,0,0,1-.91-2.34,3.5,3.5,0,0,1,1-2.61,3.64,3.64,0,0,1,2.63-1,3.33,3.33,0,0,1,1.64.31v1.62A2.34,2.34,0,0,0,423.4,89a1.88,1.88,0,0,0-1.39.53,2,2,0,0,0-.52,1.45,1.93,1.93,0,0,0,.49,1.4,1.84,1.84,0,0,0,1.36.52,2.56,2.56,0,0,0,1.47-.49Z" transform="translate(0 0.58)"/><path class="cls-31" d="M430.36,89.44a1.58,1.58,0,0,0-.84-.2,1.21,1.21,0,0,0-1,.49,2.19,2.19,0,0,0-.38,1.35V94.2h-1.89V87.72h1.89v1.22h0a1.74,1.74,0,0,1,1.71-1.33,1.39,1.39,0,0,1,.51.07Z" transform="translate(0 0.58)"/><path class="cls-31" d="M431,91a3.28,3.28,0,0,1,1-2.51,3.59,3.59,0,0,1,2.58-.92,3.39,3.39,0,0,1,2.48.9,3.25,3.25,0,0,1,.92,2.42,3.43,3.43,0,0,1-.94,2.54,3.49,3.49,0,0,1-2.56.94,3.43,3.43,0,0,1-2.51-.91A3.26,3.26,0,0,1,431,91Zm1.92,0c0,1.29.53,1.94,1.58,1.94s1.52-.67,1.52-2-.51-1.9-1.53-1.9a1.41,1.41,0,0,0-1.16.51A2.28,2.28,0,0,0,432.92,91Z" transform="translate(0 0.58)"/><path class="cls-31" d="M439,92.46a3.72,3.72,0,0,0,1.91.59q1.17,0,1.17-.63c0-.29-.32-.54-1-.74a4.15,4.15,0,0,1-1.65-.83,1.87,1.87,0,0,1,.32-2.75,3.46,3.46,0,0,1,2-.54,5.46,5.46,0,0,1,1.71.27v1.48a3.27,3.27,0,0,0-1.66-.44,1.44,1.44,0,0,0-.73.16.48.48,0,0,0-.27.42c0,.3.27.54.82.72a9.64,9.64,0,0,1,1.32.54,1.66,1.66,0,0,1,.9,1.54,1.75,1.75,0,0,1-.8,1.55,3.69,3.69,0,0,1-2.14.56,5.42,5.42,0,0,1-2-.34Z" transform="translate(0 0.58)"/><path class="cls-31" d="M444.74,91a3.28,3.28,0,0,1,1-2.51,3.59,3.59,0,0,1,2.58-.92,3.39,3.39,0,0,1,2.48.9,3.25,3.25,0,0,1,.92,2.42,3.43,3.43,0,0,1-.94,2.54,3.49,3.49,0,0,1-2.56.94,3.43,3.43,0,0,1-2.51-.91A3.26,3.26,0,0,1,444.74,91Zm1.92,0c0,1.29.53,1.94,1.58,1.94s1.52-.67,1.52-2-.51-1.9-1.53-1.9a1.41,1.41,0,0,0-1.16.51A2.28,2.28,0,0,0,446.66,91Z" transform="translate(0 0.58)"/><path class="cls-31" d="M457.05,86.07a2.08,2.08,0,0,0-.74-.15c-.64,0-1,.35-1,1.07v.73h1.48v1.41h-1.48V94.2h-1.89V89.13h-1.09V87.72h1.09v-.83a2.28,2.28,0,0,1,.72-1.77,2.69,2.69,0,0,1,1.89-.66,3.43,3.43,0,0,1,1,.12Z" transform="translate(0 0.58)"/><path class="cls-31" d="M461.89,94.12a2.68,2.68,0,0,1-1.29.24c-1.38,0-2.06-.72-2.06-2.17V89.13h-1.07V87.72h1.07V86.3l1.88-.54v2h1.47v1.41h-1.47v2.73c0,.69.27,1,.82,1a1.27,1.27,0,0,0,.65-.19Z" transform="translate(0 0.58)"/><path class="cls-31" d="M466,90.84h1.36V85.26H470l.57-1.07c.71.07,1.32.14,1.84.21l-.56.86h4V90c.32-.25.62-.51.91-.77l1,1.1a21.64,21.64,0,0,1-1.9,1.39v2c0,1.27-.59,1.92-1.76,1.93h-2c-.11-.67-.2-1.17-.27-1.51.55,0,1.13.06,1.76.06a.58.58,0,0,0,.65-.66v-.9a35.86,35.86,0,0,1-7.44,2.9,10.93,10.93,0,0,0-.85-1.57,29.48,29.48,0,0,0,6-1.76H466Zm8.15-4.19H469v.7h5.2ZM469,89.08h5.2v-.7H469Zm0,1.76h5.2v-.72H469Z" transform="translate(0 0.58)"/><path class="cls-31" d="M480.44,84.28l1.65.46a26.89,26.89,0,0,1-.95,2.61v8.34h-1.59V90.43c-.27.43-.55.85-.85,1.26-.09-.49-.26-1.19-.5-2.12A20.26,20.26,0,0,0,480.44,84.28Zm6.95.2a8.4,8.4,0,0,0,2.45,3.82l-.69,1.78c-.17-.15-.33-.3-.48-.46l-.16,4.06a2.12,2.12,0,0,1-.41,1.26,1.39,1.39,0,0,1-.89.53,15.41,15.41,0,0,1-2.07.08c-.13-.64-.26-1.2-.4-1.68.51,0,.92,0,1.21,0a1.11,1.11,0,0,0,.7-.17c.15-.11.23-.43.24-1l.06-2.51h-1.79c0,2.54-.89,4.37-2.66,5.49a12,12,0,0,0-1.17-1.23,4.52,4.52,0,0,0,2.15-4.26h-.73v-.69c-.2.21-.4.42-.61.62-.19-.48-.43-1-.73-1.68a8.77,8.77,0,0,0,2.4-4.06l1.53.39a11.5,11.5,0,0,1-1.95,4h4.55a10.47,10.47,0,0,1-2-4Z" transform="translate(0 0.58)"/><path class="cls-31" d="M490.26,91.92c.86-.08,1.76-.18,2.72-.3,0,.49,0,1,0,1.4-.88.11-1.73.24-2.56.38Zm2-5.32-.32,2.93h.85l.27-3.28h-2.56V84.84h4.07l-.39,4.69h.68q-.12,3.38-.21,4.29c-.06.94-.41,1.49-1.08,1.64a20,20,0,0,1-2.24.07c-.07-.57-.15-1.1-.23-1.58.48,0,1,.09,1.56.1a.55.55,0,0,0,.64-.56c0-.51.09-1.37.13-2.55h-3l.41-4.34Zm8.26,2.64h-4.46v-.66c-.28.25-.56.5-.86.74-.23-.49-.48-1-.76-1.48a10.56,10.56,0,0,0,3.05-3.54h1.78l-.26.43a9.5,9.5,0,0,0,3.08,3c-.27.44-.54.92-.81,1.46-.26-.18-.52-.36-.76-.56ZM494.91,94h4a30.46,30.46,0,0,0,1-4.1l1.45.38c-.31,1.2-.68,2.44-1.1,3.72h1.45v1.41h-6.85Zm1.32-3.85c.39,1,.76,2,1.12,3.13l-1.28.45c-.24-.89-.59-1.94-1-3.14Zm1.95-4.08a13.34,13.34,0,0,1-1.42,1.8h2.94A19.1,19.1,0,0,1,498.18,86.05Zm.23,3.6c.28,1,.51,2.1.72,3.14l-1.3.31c-.16-1-.38-2-.66-3.17Z" transform="translate(0 0.58)"/><path class="cls-31" d="M506.26,91.6a14,14,0,0,0,.28,1.61c-.74.52-1.58,1.18-2.5,2l-.72-1.29a1.46,1.46,0,0,0,.3-.88V89.27h-.94V87.75h2.53v4.67Zm-1.93-7.4c.46.64.93,1.36,1.43,2.15-.36.2-.84.48-1.41.85-.43-.76-.86-1.49-1.3-2.19ZM506,93.68h1V87.83h1.58v5.85h1.27V86.53h-3.44V85h7.78v1.55h-2.76v2.65h2.48v1.53h-2.48v3h2.9v1.57H506Z" transform="translate(0 0.58)"/><path class="cls-31" d="M520.2,84.44l1.92-.21c.11.28.24.62.39,1h4v1.36h-9v2.82q0,4.29-1.4,6.36a17.08,17.08,0,0,0-1.19-1.4,9.65,9.65,0,0,0,1-5V85.28h4.69Zm-2.8,8.18h4.1V91.8h-3.39V90.47c.29-.47.58-1,.86-1.47h-1.2V87.64h1.92c.16-.32.33-.64.49-1l1.62.25-.38.73h4.78V89h-5.51l-.83,1.47h1.64v-1.1h1.57v1.1H526V91.8h-2.94v.82h3.49V94h-3.49v1.71H521.5V94h-4.1Z" transform="translate(0 0.58)"/><path class="cls-31" d="M529.61,96.26a8,8,0,0,1-2-5.53,8.49,8.49,0,0,1,2-5.61h1.55a9,9,0,0,0-1.92,5.61,8.72,8.72,0,0,0,1.93,5.53Z" transform="translate(0 0.58)"/><path class="cls-31" d="M540.5,94.2V88.69c0-.51,0-1.14.08-1.91h-.05a10.4,10.4,0,0,1-.28,1.16L538,94.2h-1.54L534.2,88c-.05-.15-.15-.56-.29-1.22h0c0,.76.08,1.52.08,2.29V94.2h-1.75V85.12H535l2,5.49a6.2,6.2,0,0,1,.33,1.28h0c.13-.5.25-.93.38-1.29l2-5.48h2.74V94.2Z" transform="translate(0 0.58)"/><path class="cls-31" d="M544,91.92a3.81,3.81,0,0,0,2.49.9,2.12,2.12,0,0,0,1.19-.27.8.8,0,0,0,.4-.7,1,1,0,0,0-.32-.7,5.91,5.91,0,0,0-1.67-.89c-1.41-.6-2.12-1.47-2.12-2.62a2.3,2.3,0,0,1,1-2,4.28,4.28,0,0,1,2.55-.7,6.25,6.25,0,0,1,2.23.35v1.81a3.71,3.71,0,0,0-2.13-.62,2.25,2.25,0,0,0-1.15.26.8.8,0,0,0-.42.7.88.88,0,0,0,.29.65,5.44,5.44,0,0,0,1.45.8,4.8,4.8,0,0,1,1.86,1.23,2.44,2.44,0,0,1,.5,1.53,2.33,2.33,0,0,1-.92,2,4.35,4.35,0,0,1-2.63.69,5.63,5.63,0,0,1-2.56-.51Z" transform="translate(0 0.58)"/><path class="cls-31" d="M559.44,94.2h-2.11l-.68-2.08h-3.3l-.67,2.08h-2.1l3.33-9.08h2.27Zm-3.25-3.57-1-3.15a3.42,3.42,0,0,1-.14-.79h0a4.05,4.05,0,0,1-.16.77l-1,3.17Z" transform="translate(0 0.58)"/><path class="cls-31" d="M565.81,94.2h-5.32V85.12h1.93v7.5h3.39Z" transform="translate(0 0.58)"/><path class="cls-31" d="M565.82,96.26a8.68,8.68,0,0,0,1.94-5.53,9,9,0,0,0-1.94-5.61h1.55a8.5,8.5,0,0,1,2,5.61,8,8,0,0,1-2.06,5.53Z" transform="translate(0 0.58)"/><path class="cls-31" d="M40.78,142.84l.81,0c.22-.45.47-1,.72-1.5l1.33.55q-1.06,2-2.25,4.05l1.77-.24a10.83,10.83,0,0,0-.14,1.41,20.77,20.77,0,0,0-3.16.42l-.39-1.32a10.08,10.08,0,0,0,1.41-2l-1.25.1-.4-1.29A15.53,15.53,0,0,0,41,139.21l1.44.43C41.83,140.87,41.29,141.93,40.78,142.84Zm-1.52,5.73c1.52-.23,2.88-.44,4.07-.64,0,.65,0,1.19,0,1.61-1.49.24-2.75.47-3.8.67Zm11-8.27v1.25a9.27,9.27,0,0,1-2,2.53,11.46,11.46,0,0,0,2.72.83q-.3.69-.6,1.5A12.81,12.81,0,0,1,47,145a13.86,13.86,0,0,1-3.25,1.43,13.11,13.11,0,0,0-.71-1.4,13.65,13.65,0,0,0,2.76-1,8.73,8.73,0,0,1-1-1.13c-.27.37-.55.72-.84,1.06-.31-.34-.65-.67-1-1a12.45,12.45,0,0,0,2.37-3.82l1.49.27-.4.85Zm-6.17,7.84c2.1.36,4,.71,5.84,1.07l-.37,1.53q-3-.63-5.85-1.17ZM45.23,146c1.79.31,3.16.56,4.12.75L49,148.14q-2-.44-4.14-.84Zm.45-4.25A5,5,0,0,0,47,143.34a5.5,5.5,0,0,0,1.54-1.71H45.76A.53.53,0,0,1,45.68,141.78Z" transform="translate(0 0.58)"/><path class="cls-31" d="M55.86,143.35h2.46v-1.27H55.74l.39.19q-1.46,2.21-2.49,3.6c.56-.07,1.16-.13,1.8-.19,0,.53-.08,1-.09,1.45a27.63,27.63,0,0,0-3.5.53l-.45-1.32a11.88,11.88,0,0,0,1.77-2.18c-.59.05-1.1.1-1.53.16L51.21,143a16.14,16.14,0,0,0,2-3.82l1.54.57c-.61,1.16-1.22,2.2-1.82,3.12l1.07,0,.71-1.2.77.37v-1.29h2.81v-1.47H60v1.47h2.93v1.4H60v1.27h2.58v1.4H55.86Zm-4.32,6.84-.26-1.64c1.35-.18,2.8-.38,4.34-.61,0,.65-.07,1.2-.06,1.63C54.17,149.76,52.83,150,51.54,150.19Zm4.43.61v-5H62.4v5H60.83v-.7H57.54v.7Zm4.86-3.61H57.54v1.49h3.29Z" transform="translate(0 0.58)"/><path class="cls-31" d="M64.7,147.46l1.44.61c-.37.82-.86,1.77-1.45,2.84l-1.37-.72Q64.13,148.75,64.7,147.46Zm-.06-4.81h3.47v-3.4h1.66v1h4.91v1.47H69.77v.94h4v4.45H64.64ZM72,144.08H66.35v1.6H72Zm-4,3.58c.37,1,.66,1.8.89,2.52l-1.52.38c-.32-1-.6-1.87-.84-2.51Zm2.77-.12c.34.76.68,1.58,1,2.46l-1.54.47c-.29-.85-.6-1.68-.94-2.47Zm2.69-.18c.49.93,1,1.87,1.36,2.82l-1.46.57c-.47-1.06-.91-2-1.31-2.8Z" transform="translate(0 0.58)"/></g></svg>