<svg xmlns="http://www.w3.org/2000/svg" xmlns:xlink="http://www.w3.org/1999/xlink" viewBox="0 0 475.66 150.2"><defs><style>.cls-1{fill:#505050;}.cls-12,.cls-2{fill:#fff;}.cls-3,.cls-9{fill:#ebebeb;}.cls-13,.cls-4{fill:#0072c6;}.cls-5{fill:#d2d2d2;}.cls-6{fill:none;}.cls-10,.cls-6,.cls-9{stroke:#000;}.cls-10,.cls-11,.cls-12,.cls-13,.cls-6,.cls-9{stroke-miterlimit:10;}.cls-7{fill:#1a1a1f;}.cls-8{fill:#0078d4;}.cls-9{stroke-width:0.75px;}.cls-10,.cls-12,.cls-13{stroke-width:0.05px;}.cls-11{fill:#1e1e1e;stroke:#1e1e1e;stroke-width:0.06px;}.cls-12{stroke:#fff;}.cls-13{stroke:#0072c6;}</style><symbol id="New_Symbol_44" data-name="New Symbol 44" viewBox="0 0 20 20"><circle class="cls-1" cx="10" cy="10" r="10"/><path class="cls-2" d="M12,14V8.58h1.25V7.45H12V5.6H10.65V7.42H6.85V8.56q.51.58,1.05,1.26a12.66,12.66,0,0,1,1,1.38c.29.47.64.94.93,1.41A13,13,0,0,1,10.55,14ZM10.65,8.58v3.5a19.76,19.76,0,0,0-1.26-2C9,9.51,8.58,9,8.22,8.56Z"/></symbol><symbol id="New_Symbol_43" data-name="New Symbol 43" viewBox="0 0 20 20"><circle class="cls-1" cx="10" cy="10" r="10"/><path class="cls-2" d="M7.39,5.88V7.16a3,3,0,0,1,1.85-.65,2.19,2.19,0,0,1,1.34.38,1.23,1.23,0,0,1,.5,1c0,1-.73,1.43-2.18,1.43H8.24v1.12h.63c1.29,0,1.94.45,1.94,1.35S10.3,13,9.29,13a2.48,2.48,0,0,1-1.58-.6v1.23a4.08,4.08,0,0,0,2,.48,2.64,2.64,0,0,0,1.79-.56,1.76,1.76,0,0,0,.67-1.44A2,2,0,0,0,10.5,10h0a2.19,2.19,0,0,0,1.43-.63A1.89,1.89,0,0,0,12.5,8a2.22,2.22,0,0,0-.85-1.82,3.4,3.4,0,0,0-2.24-.7A3.84,3.84,0,0,0,7.39,5.88Z"/></symbol><symbol id="New_Symbol_42" data-name="New Symbol 42" viewBox="0 0 20 20"><circle class="cls-1" cx="10" cy="10" r="10"/><path class="cls-2" d="M12.5,5.57H7.24v.65A2.58,2.58,0,0,0,7.35,7a3.93,3.93,0,0,0,.3.66,4.92,4.92,0,0,0,.44.58c.17.18.35.35.54.52l.59.5c.2.15.39.31.58.47s.35.3.5.45a4.11,4.11,0,0,1,.38.45,2.55,2.55,0,0,1,.24.5,1.84,1.84,0,0,1,.09.57,1.42,1.42,0,0,1-.1.58,1.33,1.33,0,0,1-.29.41,1.17,1.17,0,0,1-.44.26,2.05,2.05,0,0,1-.55.05,2.73,2.73,0,0,1-1.05-.24,3.75,3.75,0,0,1-1-.72v1.31a2.85,2.85,0,0,0,.52.33,2.7,2.7,0,0,0,.55.24,3,3,0,0,0,.59.15,3.64,3.64,0,0,0,.66,0,3.77,3.77,0,0,0,1-.14,2.2,2.2,0,0,0,.79-.44,2,2,0,0,0,.51-.73,2.46,2.46,0,0,0,.18-1,2.88,2.88,0,0,0-.13-.92,2.65,2.65,0,0,0-.36-.76,4,4,0,0,0-.56-.67c-.21-.21-.46-.43-.73-.65l-.67-.53c-.23-.18-.43-.35-.61-.51a3.5,3.5,0,0,1-.44-.5.9.9,0,0,1-.16-.5H12.5Z"/></symbol><symbol id="New_Symbol_41" data-name="New Symbol 41" viewBox="0 0 20 20"><circle class="cls-1" cx="10" cy="10" r="10"/><path class="cls-2" d="M11.19,14.16V5.57H9.83V12.5A4.06,4.06,0,0,0,9,12a9,9,0,0,0-1-.33v1.21l.65.24.63.27.62.34c.21.13.42.27.64.43Z"/></symbol></defs><title>OJ104329348</title><g id="bg"><g id="Shapes"><rect class="cls-2" y="0.2" width="475.66" height="150"/><rect class="cls-3" width="105" height="150"/><rect class="cls-4" x="371" width="104.66" height="90"/><rect class="cls-5" x="371" y="95" width="104.66" height="55"/><line class="cls-6" x1="105" y1="15" x2="365.57" y2="15"/><polygon points="364.48 18.74 370.95 15 364.48 11.26 364.48 18.74"/><line class="cls-6" x1="110.38" y1="44.88" x2="370.95" y2="44.88"/><polygon points="111.48 48.62 105 44.88 111.48 41.14 111.48 48.62"/><line class="cls-6" x1="105" y1="105.16" x2="365.57" y2="105.16"/><polygon points="364.48 108.9 370.95 105.16 364.48 101.42 364.48 108.9"/><line class="cls-6" x1="110.43" y1="140.47" x2="371" y2="140.47"/><polygon points="111.52 144.21 105.05 140.47 111.52 136.73 111.52 144.21"/><use width="20" height="20" transform="matrix(1, 0, 0, -1, 158.88, 150)" xlink:href="#New_Symbol_44"/><use width="20" height="20" transform="matrix(1, 0, 0, -1, 158.88, 115.16)" xlink:href="#New_Symbol_43"/><use width="20" height="20" transform="matrix(1, 0, 0, -1, 158.88, 54.88)" xlink:href="#New_Symbol_42"/><use width="20" height="20" transform="matrix(1, 0, 0, -1, 158.88, 25)" xlink:href="#New_Symbol_41"/><path class="cls-7" d="M19.53,28.47A1.52,1.52,0,0,1,21,26.94h62.9a1.52,1.52,0,0,1,1.53,1.51V65.67A1.52,1.52,0,0,1,84,67.2H21.06a1.52,1.52,0,0,1-1.53-1.51V28.47Zm-3.48-1.78V67.37a3.29,3.29,0,0,0,3.28,3.3H85.66A3.29,3.29,0,0,0,89,67.43V26.69a3.29,3.29,0,0,0-3.28-3.3H19.34a3.29,3.29,0,0,0-3.29,3.29Z"/><path class="cls-7" d="M13.37,74.17H91.63a.87.87,0,0,1,.87.87h0v2.57a.87.87,0,0,1-.87.87H13.37a.87.87,0,0,1-.87-.87h0V75.05a.87.87,0,0,1,.86-.88Z"/><path class="cls-2" d="M43.57,75.71H61.43a.25.25,0,0,1,.25.25v.74a.26.26,0,0,1-.25.26H43.57a.26.26,0,0,1-.25-.26V76a.26.26,0,0,1,.21-.29Z"/><path class="cls-8" d="M37,36.09l12.67-1.72V46.55L37,46.62ZM49.66,48V60.15L37,58.41V47.87ZM51.2,34.15,68,31.7V46.4l-16.8.13ZM68,48.07V62.7L51.2,60.34V48Z"/><polygon class="cls-9" points="192.55 26 184.99 31.44 187.88 40.25 197.22 40.25 200.11 31.44 192.55 26"/></g><polygon class="cls-9" points="192.53 84.86 184.98 90.3 187.86 99.11 197.21 99.11 200.09 90.3 192.53 84.86"/></g><g id="txt"><path class="cls-10" d="M36.76,89.9,34.34,99H32.19l-1.55-5.92a4.64,4.64,0,0,1-.14-1h0a6.35,6.35,0,0,1-.16,1L28.73,99H26.49L24.07,89.9H26.2l1.34,6.16a7.36,7.36,0,0,1,.13,1h0a5.5,5.5,0,0,1,.18-1l1.69-6.13h2.05l1.54,6.2a6.23,6.23,0,0,1,.14,1h0a5.37,5.37,0,0,1,.14-1L34.8,89.9Z"/><path class="cls-10" d="M37.57,90.41a.89.89,0,0,1,.31-.71,1.27,1.27,0,0,1,1.58,0,.92.92,0,0,1,.31.7,1,1,0,0,1-.31.71,1.15,1.15,0,0,1-.8.28,1.12,1.12,0,0,1-.78-.28A.92.92,0,0,1,37.57,90.41ZM37.71,99V92.5H39.6V99Z"/><path class="cls-10" d="M47.45,99H45.57V95.37c0-1.05-.38-1.58-1.13-1.58a1.14,1.14,0,0,0-.9.42,1.59,1.59,0,0,0-.36,1.07V99H41.29V92.5h1.89v1h0a2.28,2.28,0,0,1,2.08-1.19q2.16,0,2.16,2.67Z"/><path class="cls-10" d="M55.32,99H53.43v-.91h0a2.26,2.26,0,0,1-2,1.07,2.42,2.42,0,0,1-2-.87,3.6,3.6,0,0,1-.73-2.38,3.83,3.83,0,0,1,.82-2.57,2.64,2.64,0,0,1,2.13-1,1.86,1.86,0,0,1,1.77.92h0V89.39h1.89Zm-1.86-3.67a1.5,1.5,0,0,0-.4-1.08,1.27,1.27,0,0,0-1-.44,1.28,1.28,0,0,0-1.09.55,2.53,2.53,0,0,0-.4,1.49A2.19,2.19,0,0,0,51,97.2a1.29,1.29,0,0,0,1.05.49,1.24,1.24,0,0,0,1-.51,2.09,2.09,0,0,0,.41-1.33Z"/><path class="cls-10" d="M56.65,95.77a3.29,3.29,0,0,1,1-2.51,3.59,3.59,0,0,1,2.58-.92,3.39,3.39,0,0,1,2.48.9,3.25,3.25,0,0,1,.92,2.42,3.43,3.43,0,0,1-.94,2.54,3.49,3.49,0,0,1-2.56.94,3.43,3.43,0,0,1-2.51-.91A3.26,3.26,0,0,1,56.65,95.77Zm1.92,0c0,1.29.53,1.94,1.58,1.94s1.52-.67,1.52-2-.51-1.9-1.53-1.9A1.41,1.41,0,0,0,59,94.3,2.3,2.3,0,0,0,58.57,95.75Z"/><path class="cls-10" d="M74.17,92.5,72.3,99h-2l-1-3.89a3.58,3.58,0,0,1-.1-.8h0a4.5,4.5,0,0,1-.13.78L68,99H66L64.16,92.5H66.1L67,96.8a4.64,4.64,0,0,1,.09.71h.05a3.42,3.42,0,0,1,.11-.73l1.16-4.28h1.79l1,4.31c0,.11,0,.35.09.71h0a5.47,5.47,0,0,1,.1-.71l.9-4.31Z"/><path class="cls-10" d="M75,97.24a3.72,3.72,0,0,0,1.91.59c.78,0,1.17-.21,1.17-.62s-.32-.55-1-.75a4.15,4.15,0,0,1-1.65-.83,1.87,1.87,0,0,1,.32-2.75,3.46,3.46,0,0,1,2-.54,5.46,5.46,0,0,1,1.71.27v1.48a3.27,3.27,0,0,0-1.66-.44,1.44,1.44,0,0,0-.73.16.48.48,0,0,0-.27.42c0,.3.27.54.82.73a8.65,8.65,0,0,1,1.32.53,1.66,1.66,0,0,1,.9,1.54,1.75,1.75,0,0,1-.8,1.55,3.69,3.69,0,0,1-2.14.56,5.42,5.42,0,0,1-2-.34Z"/><path class="cls-10" d="M39.92,113.26c-.24.6-.43,1.1-.57,1.51l-6.17,0a5.23,5.23,0,0,1-1.8-.32,3.28,3.28,0,0,1-1.16-.83L28.94,115l-.68-1.82,1.13-1v-3.21H28.34V107.5h2.51v4.8a2.88,2.88,0,0,0,2.48,1l2.66,0C37.15,113.3,38.46,113.29,39.92,113.26ZM29.8,103.39c.67.81,1.21,1.53,1.62,2.14l-1.38.92c-.52-.84-1-1.58-1.51-2.23Zm9.43.42v1.35l-2.44,1.35h2.45v5a1.53,1.53,0,0,1-.22.88,1,1,0,0,1-.62.42,9.57,9.57,0,0,1-1.75.08c-.07-.35-.17-.75-.3-1.21.37,0,.68,0,.92,0s.49-.17.49-.52v-.2H36.18v1.76h-1.4v-1.76H33.24v1.77H31.76v-6.31H34l-1.26-.79.59-.69H31.67v-1.22Zm-6,4.47h1.54v-.72H33.24Zm0,1.74h1.54v-.71H33.24Zm4-5H33.76l1.64,1Zm.56,2.53H36.18v.72h1.58ZM36.18,110h1.58v-.71H36.18Z"/><path class="cls-10" d="M51.19,113.13a1.73,1.73,0,0,1-.34,1.15,1.48,1.48,0,0,1-1,.48,16,16,0,0,1-1.84.06,14.92,14.92,0,0,0-.47-1.7l1.32.07a.64.64,0,0,0,.73-.72v-1.06H47.12v3.28H45.46v-3.28H42.93a6.74,6.74,0,0,1-1,3.6c-.5-.35-1-.68-1.52-1,.64-.86.94-2.39.92-4.58v-5.52h9.85ZM43,106.93h2.48v-1.45H43Zm0,3h2.48v-1.45H43Zm6.57-4.41H47.12v1.45h2.43Zm-2.43,4.41h2.43v-1.45H47.12Z"/><path class="cls-10" d="M52.41,109.71h4.77v-4.3H52.93v-1.55H63.29v1.55H59v4.3H63.8v1.54H59v3.65H57.18v-3.65H52.41Zm.68-3.25,1.23-.83c.75.87,1.53,1.84,2.34,2.9l-1.42.94C54.45,108.28,53.73,107.27,53.09,106.46Zm10.22.12c-.83,1-1.7,2-2.62,2.93l-1.2-1a26,26,0,0,0,2.44-2.89Z"/><path class="cls-10" d="M72.72,104.78c1.2,1.18,2.32,2.33,3.34,3.46l-1.3,1.1-.91-1.08q-5,.09-8.76.43l-.62-1.39a20.13,20.13,0,0,0,4.57-4l1.54.83q-1.67,1.58-3.52,3.07l5.64-.2-1.2-1.31Zm-7.15,10.15v-5.49h9v5.49H73v-.69H67.17v.69Zm7.43-4H67.17v1.9H73Z"/><path class="cls-11" d="M213.11,85h-1.17V80.91h-4.59V85h-1.17V75.93h1.17v3.94h4.59V75.93h1.17Z"/><path class="cls-11" d="M220.87,77h-2.62v8h-1.18V77h-2.6v-1h6.4Z"/><path class="cls-11" d="M227.92,77H225.3v8h-1.17V77h-2.61v-1h6.4Z"/><path class="cls-11" d="M230.42,81.61V85h-1.17V75.93h2.57a3.41,3.41,0,0,1,2.29.7,2.56,2.56,0,0,1,.81,2,2.77,2.77,0,0,1-.95,2.17,3.32,3.32,0,0,1-2.37.78Zm0-4.65v3.62h1.08a2.37,2.37,0,0,0,1.63-.49,1.73,1.73,0,0,0,.56-1.38c0-1.17-.69-1.75-2.08-1.75Z"/><path class="cls-11" d="M246.86,84.38a6.06,6.06,0,0,1-3.07.77,4.23,4.23,0,0,1-3.18-1.24,4.6,4.6,0,0,1-1.2-3.33,4.7,4.7,0,0,1,1.33-3.45,4.55,4.55,0,0,1,3.41-1.36,6,6,0,0,1,2.49.47v1.27a4.76,4.76,0,0,0-2.6-.69,3.2,3.2,0,0,0-2.44,1,4.31,4.31,0,0,0-.08,5.32,3.13,3.13,0,0,0,2.39,1,3.59,3.59,0,0,0,1.77-.4V81.26h-2v-1h3.15Z"/><path class="cls-11" d="M253.73,85h-4.88V75.93h4.67v1H250v2.91h3.24v1H250v3h3.71Z"/><path class="cls-11" d="M260.88,77h-2.62v8h-1.18V77h-2.61v-1h6.41Z"/><path class="cls-11" d="M272,81.68h-2.55v2.54h-.89V81.68H266v-.9h2.53V78.25h.89v2.53H272Z"/><path class="cls-11" d="M209.38,96.63c0,.36.05.71.1,1-.58.41-1.21.89-1.91,1.46a5.26,5.26,0,0,0-.59.55l-.63-.71a1.59,1.59,0,0,0,.42-1.14V94.08h-1.5v-.86h2.42v4.71C208.25,97.52,208.81,97.08,209.38,96.63Zm-2.92-7.22c.64.63,1.24,1.27,1.8,1.91l-.82.69a20.75,20.75,0,0,0-1.7-2Zm2.46,1.84h3.8a14.18,14.18,0,0,0-.88-1.67l.82-.39a17.73,17.73,0,0,1,.93,1.62l-.84.44h4.06v.84h-5.23v1.83H216c-.08,2.36-.17,4-.25,4.89a1.51,1.51,0,0,1-1.65,1.59c-.57,0-1.21,0-1.89,0-.06-.36-.12-.71-.19-1a17.84,17.84,0,0,0,2,.12c.5,0,.79-.29.85-.87.09-.93.16-2.2.22-3.84h-3.45a11,11,0,0,1-.46,3.16,7.73,7.73,0,0,1-1.93,2.91,5.63,5.63,0,0,0-.75-.69,6.85,6.85,0,0,0,1.8-2.67,10.67,10.67,0,0,0,.39-3.37v-2h-1.7Z"/><path class="cls-11" d="M217.74,91.54h.92v9.19h-.92Zm.59-1.72.67-.6c.42.41,1,1,1.69,1.71l-.76.67C219.26,90.82,218.73,90.23,218.33,89.82Zm2.09,3.1h5V97.6h-4.12v.67h-.85Zm4.13.86h-3.28v3h3.28Zm-3.14-2.93V90h6.7V99c0,1.14-.51,1.7-1.53,1.7l-1.92,0c0-.24-.1-.55-.19-.95.65,0,1.27.07,1.87.07s.86-.31.86-.91V90.85Z"/><path class="cls-11" d="M235.69,89.39l-.22.3a11.21,11.21,0,0,0,5.27,4c-.27.37-.49.69-.65,1a14.47,14.47,0,0,1-5.21-4.27,17,17,0,0,1-5.27,4.32,10.2,10.2,0,0,0-.61-.87,13.74,13.74,0,0,0,5.49-4.46Zm-3.38,7.67c.81.53,1.67,1.11,2.59,1.73.78-.73,1.68-1.63,2.69-2.71h-7.22V95.2h8.53v.88c-1,1-2.06,2.12-3.22,3.23l1.17.82-.71.79c-1.54-1.2-3-2.25-4.46-3.18Zm1.26-4.1.7-.55c.61.6,1.17,1.19,1.67,1.76l-.77.66A18.45,18.45,0,0,0,233.57,93Z"/><path class="cls-11" d="M244.76,100.64h-.85v-4.4h-1.27a9.25,9.25,0,0,1-.9,4.57c-.21-.21-.45-.43-.73-.68a8,8,0,0,0,.77-3.95v-6.5h.86v3.45h1.18V89.34h.86v3.79h.85v.72h-2.89v1.67h2.12Zm.38-2.87h1.43a7.31,7.31,0,0,0-.52-.61,4.79,4.79,0,0,0,1.78-1.43H246V90.5h2c.15-.37.3-.81.46-1.3l.91.28q-.25.57-.48,1h3v5.63H251v-.4h-2.21a5.19,5.19,0,0,1-2,2h2.34v-1.5H250v1.5h2.65v.81H250v2.14h-.86V98.58h-4Zm1.64-5h1.7V91.27h-1.7Zm1.67.75h-1.67V95h1.43A6.62,6.62,0,0,0,248.45,93.48Zm.63,1.47h2V93.48h-1.77A6.49,6.49,0,0,1,249.08,95Zm2-3.68H249.3v1.46H251Z"/><path class="cls-12" d="M402.85,33.92V28.41c0-.5,0-1.14.07-1.91h0a10.4,10.4,0,0,1-.28,1.16l-2.24,6.26h-1.54l-2.27-6.2a11.15,11.15,0,0,1-.29-1.22h-.05c.05.76.08,1.52.08,2.29v5.13h-1.75V24.85h2.81l2,5.48a6.91,6.91,0,0,1,.33,1.28h0a12.21,12.21,0,0,1,.38-1.29l2-5.47h2.74v9.07Z"/><path class="cls-12" d="M406.52,25.35a.9.9,0,0,1,.31-.71,1.15,1.15,0,0,1,.79-.27,1.09,1.09,0,0,1,.79.28.88.88,0,0,1,.31.7.92.92,0,0,1-.31.71,1.22,1.22,0,0,1-1.58,0A1,1,0,0,1,406.52,25.35Zm.14,8.57V27.44h1.89v6.48Z"/><path class="cls-12" d="M415.1,33.68a3.8,3.8,0,0,1-1.93.4,3.28,3.28,0,0,1-2.4-.9,3.13,3.13,0,0,1-.91-2.34,3.42,3.42,0,0,1,1-2.6,3.6,3.6,0,0,1,2.62-1,3.38,3.38,0,0,1,1.65.31v1.62a2.35,2.35,0,0,0-1.42-.47,1.87,1.87,0,0,0-1.39.52,2,2,0,0,0-.53,1.45,1.93,1.93,0,0,0,.5,1.4,1.76,1.76,0,0,0,1.35.52,2.63,2.63,0,0,0,1.48-.48Z"/><path class="cls-12" d="M420.57,29.16a1.68,1.68,0,0,0-.84-.2,1.21,1.21,0,0,0-1,.49,2.19,2.19,0,0,0-.38,1.35v3.12h-1.89V27.44h1.89v1.22h0a1.72,1.72,0,0,1,1.7-1.33,1.29,1.29,0,0,1,.51.08Z"/><path class="cls-12" d="M421.08,30.71a3.29,3.29,0,0,1,1-2.51,3.59,3.59,0,0,1,2.58-.92,3.39,3.39,0,0,1,2.48.9A3.25,3.25,0,0,1,428,30.6a3.61,3.61,0,0,1-6,2.57A3.26,3.26,0,0,1,421.08,30.71Zm1.92,0c0,1.29.53,1.94,1.58,1.94s1.52-.67,1.52-2-.51-1.89-1.53-1.89a1.41,1.41,0,0,0-1.16.51A2.26,2.26,0,0,0,423,30.69Z"/><path class="cls-12" d="M429.19,32.18a3.57,3.57,0,0,0,1.9.59c.78,0,1.17-.21,1.17-.62s-.32-.55-1-.75a4.15,4.15,0,0,1-1.65-.83,1.88,1.88,0,0,1,.32-2.74,3.39,3.39,0,0,1,2-.55,5.46,5.46,0,0,1,1.71.27V29a3.18,3.18,0,0,0-1.66-.45,1.44,1.44,0,0,0-.73.16.49.49,0,0,0-.27.43c0,.29.27.53.82.72a8.65,8.65,0,0,1,1.32.53,1.66,1.66,0,0,1,.9,1.54,1.78,1.78,0,0,1-.8,1.56,3.69,3.69,0,0,1-2.14.55,5.54,5.54,0,0,1-1.95-.33Z"/><path class="cls-12" d="M434.89,30.71a3.29,3.29,0,0,1,1-2.51,3.59,3.59,0,0,1,2.58-.92,3.39,3.39,0,0,1,2.48.9,3.25,3.25,0,0,1,.92,2.42,3.61,3.61,0,0,1-6,2.57A3.26,3.26,0,0,1,434.89,30.71Zm1.92,0c0,1.29.53,1.94,1.58,1.94s1.52-.67,1.52-2-.51-1.89-1.53-1.89a1.41,1.41,0,0,0-1.16.51A2.26,2.26,0,0,0,436.81,30.69Z"/><path class="cls-12" d="M447.08,25.79a2,2,0,0,0-.73-.15c-.65,0-1,.36-1,1.07v.73h1.47v1.41h-1.47v5.07h-1.9V28.85H442.4V27.44h1.08v-.83a2.28,2.28,0,0,1,.72-1.77,2.7,2.7,0,0,1,1.9-.66,3.4,3.4,0,0,1,1,.12Z"/><path class="cls-12" d="M451.9,33.85a2.91,2.91,0,0,1-1.3.23c-1.37,0-2.06-.72-2.06-2.17V28.85h-1.07V27.44h1.07V26l1.88-.54v2h1.48v1.41h-1.48v2.73c0,.7.27,1,.82,1a1.33,1.33,0,0,0,.66-.19Z"/><path class="cls-12" d="M399,45.13A13.06,13.06,0,0,0,400.3,42h-1.25V40.43h1.35v-2h1.44v2H403V42h-1.12v1.36l1.44.82-.73,1.33a7.64,7.64,0,0,0-.71-.53v5H400.4V45.07a15.91,15.91,0,0,1-1.06,2.2C399.21,46.46,399.09,45.75,399,45.13Zm5-1,1.39.4a34,34,0,0,1-1.46,3.92,8.42,8.42,0,0,0-1.39-.56A26.94,26.94,0,0,0,403.94,44.18ZM403,41.92h7.54v1.52h-3v5a1.28,1.28,0,0,1-.34,1,1.57,1.57,0,0,1-1,.38c-.43,0-1,0-1.76,0-.11-.63-.22-1.18-.32-1.63.41,0,.79.06,1.11.06s.68-.21.68-.63v-4.2H403Zm.47-2.93h6.62v1.52h-6.62Zm5.82,5.28c.5,1.18,1,2.42,1.42,3.72l-1.44.55c-.45-1.38-.91-2.64-1.37-3.76Z"/><path class="cls-12" d="M415,45.54a14.88,14.88,0,0,0,.27,1.73,21.21,21.21,0,0,0-2.48,2.08L412,48.27a1.75,1.75,0,0,0,.25-1V43.53h-1.16V42h2.77V46.5Zm-2-7.13c.5.67,1,1.39,1.56,2.17l-1.5.94c-.47-.81-.95-1.58-1.43-2.3Zm3.72,7.29,1.39.92q-1.35,1.82-2.71,3.37c-.39-.36-.84-.73-1.34-1.11A19.12,19.12,0,0,0,416.73,45.7ZM415.22,39h6.61v6.34h-6.61Zm5,4.91V40.42h-3.37V43.9Zm0,1.81c.9,1,1.77,2.07,2.62,3.18l-1.45,1c-.79-1.16-1.61-2.28-2.47-3.36Z"/><path class="cls-12" d="M423.17,44.65h4.77v-4.3h-4.26V38.8H434v1.55h-4.32v4.3h4.84v1.54h-4.84v3.65h-1.78V46.19h-4.77Zm.68-3.25,1.23-.83c.75.87,1.53,1.84,2.33,2.91l-1.42.93C425.2,43.22,424.49,42.21,423.85,41.4Zm10.22.12c-.83,1-1.71,2-2.63,2.93l-1.19-1a28.08,28.08,0,0,0,2.43-2.9Z"/><path class="cls-12" d="M443.48,39.73q1.8,1.76,3.34,3.45l-1.3,1.1-.92-1.07q-5,.07-8.75.42l-.62-1.38a20.44,20.44,0,0,0,4.57-4.06l1.53.83q-1.66,1.57-3.51,3.07l5.63-.2-1.19-1.31Zm-7.15,10.14V44.38h9v5.49h-1.59v-.69h-5.84v.69Zm7.43-4h-5.84v1.9h5.84Z"/><path class="cls-13" d="M402.85,118.94v-5.51c0-.5,0-1.14.07-1.91h0a10.4,10.4,0,0,1-.28,1.16l-2.24,6.26h-1.54l-2.27-6.2a11.15,11.15,0,0,1-.29-1.22h-.05c.05.76.08,1.52.08,2.29v5.13h-1.75v-9.07h2.81l2,5.48a6.91,6.91,0,0,1,.33,1.28h0a12.21,12.21,0,0,1,.38-1.29l2-5.47h2.74v9.07Z"/><path class="cls-13" d="M406.52,110.37a.89.89,0,0,1,.31-.71,1.15,1.15,0,0,1,.79-.27,1.09,1.09,0,0,1,.79.28.88.88,0,0,1,.31.7.92.92,0,0,1-.31.71,1.22,1.22,0,0,1-1.58,0A1,1,0,0,1,406.52,110.37Zm.14,8.57v-6.48h1.89v6.48Z"/><path class="cls-13" d="M415.1,118.7a3.8,3.8,0,0,1-1.93.4,3.28,3.28,0,0,1-2.4-.9,3.13,3.13,0,0,1-.91-2.34,3.46,3.46,0,0,1,1-2.61,3.63,3.63,0,0,1,2.62-1,3.38,3.38,0,0,1,1.65.31v1.62a2.35,2.35,0,0,0-1.42-.47,1.87,1.87,0,0,0-1.39.52,2,2,0,0,0-.53,1.45,1.93,1.93,0,0,0,.5,1.4,1.76,1.76,0,0,0,1.35.52,2.63,2.63,0,0,0,1.48-.48Z"/><path class="cls-13" d="M420.57,114.18a1.58,1.58,0,0,0-.84-.2,1.21,1.21,0,0,0-1,.49,2.19,2.19,0,0,0-.38,1.35v3.12h-1.89v-6.48h1.89v1.22h0a1.72,1.72,0,0,1,1.7-1.33,1.29,1.29,0,0,1,.51.08Z"/><path class="cls-13" d="M421.08,115.73a3.29,3.29,0,0,1,1-2.51,3.59,3.59,0,0,1,2.58-.92,3.39,3.39,0,0,1,2.48.9,3.25,3.25,0,0,1,.92,2.42,3.61,3.61,0,0,1-6,2.57A3.26,3.26,0,0,1,421.08,115.73Zm1.92,0c0,1.29.53,1.94,1.58,1.94s1.52-.67,1.52-2-.51-1.89-1.53-1.89a1.41,1.41,0,0,0-1.16.51A2.26,2.26,0,0,0,423,115.71Z"/><path class="cls-13" d="M429.19,117.2a3.57,3.57,0,0,0,1.9.59c.78,0,1.17-.21,1.17-.62s-.32-.55-1-.75a4.15,4.15,0,0,1-1.65-.83,1.71,1.71,0,0,1-.45-1.25,1.74,1.74,0,0,1,.77-1.5,3.46,3.46,0,0,1,2-.54,5.46,5.46,0,0,1,1.71.27v1.48a3.27,3.27,0,0,0-1.66-.44,1.44,1.44,0,0,0-.73.16.49.49,0,0,0-.27.43c0,.29.27.53.82.72a8.65,8.65,0,0,1,1.32.53,1.66,1.66,0,0,1,.9,1.54,1.78,1.78,0,0,1-.8,1.56,3.69,3.69,0,0,1-2.14.55,5.54,5.54,0,0,1-1.95-.33Z"/><path class="cls-13" d="M434.89,115.73a3.29,3.29,0,0,1,1-2.51,3.59,3.59,0,0,1,2.58-.92,3.39,3.39,0,0,1,2.48.9,3.25,3.25,0,0,1,.92,2.42,3.61,3.61,0,0,1-6,2.57A3.26,3.26,0,0,1,434.89,115.73Zm1.92,0c0,1.29.53,1.94,1.58,1.94s1.52-.67,1.52-2-.51-1.89-1.53-1.89a1.41,1.41,0,0,0-1.16.51A2.26,2.26,0,0,0,436.81,115.71Z"/><path class="cls-13" d="M447.08,110.81a2,2,0,0,0-.73-.15c-.65,0-1,.36-1,1.07v.73h1.47v1.41h-1.47v5.07h-1.9v-5.07H442.4v-1.41h1.08v-.83a2.28,2.28,0,0,1,.72-1.77,2.7,2.7,0,0,1,1.9-.66,3.4,3.4,0,0,1,1,.12Z"/><path class="cls-13" d="M451.9,118.87a2.91,2.91,0,0,1-1.3.23c-1.37,0-2.06-.72-2.06-2.17v-3.06h-1.07v-1.41h1.07V111l1.88-.54v2h1.48v1.41h-1.48v2.73c0,.69.27,1,.82,1a1.33,1.33,0,0,0,.66-.19Z"/><path class="cls-13" d="M400.54,132.73a6.43,6.43,0,0,1-3.27.77,4.72,4.72,0,0,1-3.42-1.22A4.4,4.4,0,0,1,392.6,129a4.65,4.65,0,0,1,1.38-3.49,5,5,0,0,1,3.63-1.35,7.23,7.23,0,0,1,2.54.41v1.84a5,5,0,0,0-2.58-.62,2.83,2.83,0,0,0-2.13.86,3.61,3.61,0,0,0-.07,4.47,2.58,2.58,0,0,0,2,.8,2.92,2.92,0,0,0,1.24-.23v-1.87h-1.84v-1.55h3.77Z"/><path class="cls-13" d="M406.29,128.58a1.58,1.58,0,0,0-.84-.2,1.21,1.21,0,0,0-1,.49,2.19,2.19,0,0,0-.38,1.35v3.12h-1.89v-6.48h1.89v1.22h0a1.72,1.72,0,0,1,1.7-1.33,1.18,1.18,0,0,1,.51.08Z"/><path class="cls-13" d="M407.4,127.25a4.75,4.75,0,0,1,1.18-.4,6.45,6.45,0,0,1,1.25-.15,2.41,2.41,0,0,1,2.72,2.73v3.91h-1.8v-.94h0a2.14,2.14,0,0,1-1.94,1.1,2.05,2.05,0,0,1-1.47-.53,1.84,1.84,0,0,1-.56-1.42c0-1.24.74-2,2.23-2.17l1.78-.24c0-.75-.4-1.13-1.18-1.13a3.82,3.82,0,0,0-2.19.7Zm2.14,3.16c-.68.09-1,.39-1,.92a.75.75,0,0,0,.25.59,1,1,0,0,0,.67.22,1.25,1.25,0,0,0,.95-.41,1.45,1.45,0,0,0,.38-1v-.46Z"/><path class="cls-13" d="M416.07,132.56v3.76h-1.89v-9.46h1.89v1h0a2.37,2.37,0,0,1,2.11-1.15,2.33,2.33,0,0,1,1.93.87,3.66,3.66,0,0,1,.7,2.35,4,4,0,0,1-.81,2.6,2.63,2.63,0,0,1-2.12,1,2,2,0,0,1-1.81-.94Zm0-2.08a1.7,1.7,0,0,0,.38,1.13,1.22,1.22,0,0,0,1,.44,1.29,1.29,0,0,0,1.1-.55,2.61,2.61,0,0,0,.4-1.56c0-1.19-.47-1.78-1.39-1.78a1.29,1.29,0,0,0-1.05.49,1.93,1.93,0,0,0-.41,1.26Z"/><path class="cls-13" d="M428.29,133.34h-1.88v-3.69c0-1-.37-1.49-1.09-1.49a1.1,1.1,0,0,0-.9.41,1.6,1.6,0,0,0-.36,1.08v3.69h-1.89v-9.59h1.89v4.08h0a2.31,2.31,0,0,1,2-1.13c1.47,0,2.2.89,2.2,2.66Z"/><path class="cls-13" d="M441.55,133.34h-2.11l-.68-2.08h-3.3l-.66,2.08h-2.1l3.32-9.08h2.27Zm-3.24-3.57-1-3.15a4.06,4.06,0,0,1-.14-.79h-.05a3.4,3.4,0,0,1-.16.77l-1,3.17Z"/><path class="cls-13" d="M444.63,130.18v3.16H442.7v-9.08h3.12q3.39,0,3.39,2.88a2.74,2.74,0,0,1-1,2.23,3.78,3.78,0,0,1-2.56.81Zm0-4.42v2.93h.84c1.14,0,1.71-.49,1.71-1.48s-.57-1.45-1.69-1.45Z"/><path class="cls-13" d="M452.51,124.26v9.08h-1.93v-9.08Z"/><path class="cls-11" d="M185,9.63A8.06,8.06,0,0,0,187.75,7a7.27,7.27,0,0,0-.37-.81,15.17,15.17,0,0,1-1.88,1.28L185,6.77a12.26,12.26,0,0,0,2-1.27A9.71,9.71,0,0,0,185.71,4l.59-.54A10.25,10.25,0,0,1,187.6,5a11.76,11.76,0,0,0,1.23-1.31l.72.49a16.45,16.45,0,0,1-1.5,1.51,7.33,7.33,0,0,1,1,4.13c0,1.43-.67,2.15-1.92,2.15-.33,0-.72,0-1.18,0,0-.27-.09-.59-.17-1a10.51,10.51,0,0,0,1.29.09c.71,0,1.07-.43,1.11-1.28A6.91,6.91,0,0,0,188.05,8a10.05,10.05,0,0,1-2.49,2.33C185.41,10.12,185.23,9.89,185,9.63Zm.17-7.76h3.22V.58h.92V1.87h3.21V.58h.91V1.87h3.21V2.7h-3.21v.79h-.91V2.7h-3.21v.77h-.92V2.7h-3.22ZM189.44,6h2.84c0-.58,0-1.3,0-2.14h.91c0,.67,0,1.39,0,2.14h3.33V6.8h-3.26a6,6,0,0,0,3.43,4.53l-.74.8a6.47,6.47,0,0,1-3.13-4,6.74,6.74,0,0,1-3.3,4.09q-.27-.39-.6-.78a5.85,5.85,0,0,0,3.32-4.64h-2.79Zm4.43-1.62.46-.59c.64.39,1.21.77,1.73,1.14l-.53.68C195.09,5.23,194.54,4.82,193.87,4.35Z"/><path class="cls-11" d="M197,9.37,198,9.23V2h-.87V1.17h5.74v.41H208v.73a16.7,16.7,0,0,1-2,6.37,8,8,0,0,0,2.66,2.43c-.21.23-.45.52-.71.87a11.83,11.83,0,0,1-2.47-2.55,12.66,12.66,0,0,1-2.82,2.69c-.22-.29-.42-.54-.59-.74v.73h-.88V9.57l-4.09.67Zm1.93-5.59h2.29V2H198.9Zm0,2.54h2.29V4.53H198.9Zm2.29,2.46V7.07H198.9v2Zm1.6-6.41V2h-.72V8.65l1.33-.22q0,.48,0,.81l-1.3.2v1.89A9.77,9.77,0,0,0,205,8.68a14.62,14.62,0,0,1-1.74-6.31Zm4.34,0h-3.06a13.63,13.63,0,0,0,1.43,5.52A16.52,16.52,0,0,0,207.13,2.37Z"/><path class="cls-11" d="M215.54.76l-.22.3a11.21,11.21,0,0,0,5.27,4c-.27.37-.49.69-.65,1a14.49,14.49,0,0,1-5.21-4.28,17,17,0,0,1-5.27,4.33c-.17-.27-.37-.56-.61-.87A13.81,13.81,0,0,0,214.33.76Zm-3.39,7.67c.82.53,1.68,1.11,2.59,1.72.78-.72,1.68-1.63,2.7-2.7h-7.22V6.57h8.53v.88c-1,1-2.06,2.11-3.22,3.23l1.17.82-.71.79q-2.31-1.8-4.46-3.18Zm1.27-4.1.7-.55c.61.6,1.17,1.19,1.67,1.76l-.78.65A19.4,19.4,0,0,0,213.42,4.33Z"/><path class="cls-11" d="M224.59,12h-.86V7.61h-1.27a9.25,9.25,0,0,1-.9,4.57,9.84,9.84,0,0,0-.72-.68,8.14,8.14,0,0,0,.77-3.95V1.05h.85V4.49h1.19V.71h.85V4.49h.86v.73h-2.9V6.88h2.13ZM225,9.13h1.43c-.16-.2-.33-.4-.52-.61a4.72,4.72,0,0,0,1.79-1.42h-1.88V1.87h2c.15-.38.3-.81.46-1.3l.91.28-.48,1h3V7.49h-.82V7.1h-2.22a5.12,5.12,0,0,1-2,2H229V7.63h.85v1.5h2.65v.81h-2.65v2.15H229V9.94h-4Zm1.64-5h1.7V2.64h-1.7Zm1.68.75H226.6V6.32H228A6,6,0,0,0,228.28,4.85Zm.63,1.47h2V4.85H229.1A8,8,0,0,1,228.91,6.32Zm2-3.68h-1.75V4.1h1.75Z"/><path class="cls-11" d="M207.78,34.89c0,.36.05.7.1,1-.58.41-1.21.89-1.91,1.45-.16.13-.35.31-.59.55l-.63-.7a1.61,1.61,0,0,0,.42-1.15V32.33h-1.5v-.85h2.42v4.71C206.65,35.77,207.21,35.34,207.78,34.89Zm-2.92-7.22c.64.63,1.24,1.27,1.8,1.91l-.82.69a20.75,20.75,0,0,0-1.7-2Zm2.46,1.84h3.8a15.12,15.12,0,0,0-.88-1.68l.82-.38c.36.57.68,1.11.93,1.61l-.84.45h4.06v.84H210v1.83h4.39c-.08,2.36-.17,4-.25,4.89a1.51,1.51,0,0,1-1.65,1.59c-.57,0-1.21,0-1.89,0-.06-.36-.12-.7-.19-1a15.81,15.81,0,0,0,2,.13c.5,0,.79-.29.85-.88.09-.92.16-2.2.22-3.83H210a10.84,10.84,0,0,1-.46,3.15,7.68,7.68,0,0,1-1.93,2.92,5.63,5.63,0,0,0-.75-.69,6.85,6.85,0,0,0,1.8-2.67,10.74,10.74,0,0,0,.39-3.38v-2h-1.7Z"/><path class="cls-11" d="M216.14,29.8h.91V39h-.91Zm.59-1.72.66-.6c.43.41,1,1,1.7,1.71l-.76.67C217.66,29.08,217.13,28.49,216.73,28.08Zm2.09,3.09h5v4.69h-4.12v.67h-.85ZM223,32h-3.28v3H223Zm-3.14-2.93v-.88h6.7v9.06c0,1.13-.51,1.7-1.53,1.7l-1.93,0c0-.24-.09-.55-.18-.95.65,0,1.27.07,1.87.07s.86-.31.86-.92V29.11Z"/><path class="cls-11" d="M234.09,27.65l-.22.3a11.21,11.21,0,0,0,5.27,4c-.27.37-.49.69-.65,1a14.49,14.49,0,0,1-5.21-4.28A16.84,16.84,0,0,1,228,33a8.83,8.83,0,0,0-.61-.87,13.91,13.91,0,0,0,5.49-4.46Zm-3.38,7.67L233.3,37c.78-.72,1.68-1.62,2.69-2.7h-7.22v-.88h8.53v.88c-1,1-2.05,2.11-3.22,3.23l1.17.82-.71.79q-2.31-1.8-4.46-3.18Zm1.26-4.1.7-.55c.61.6,1.17,1.19,1.67,1.76l-.77.65A19.47,19.47,0,0,0,232,31.22Z"/><path class="cls-11" d="M243.16,38.9h-.85V34.5H241a9.25,9.25,0,0,1-.9,4.57c-.21-.21-.45-.44-.73-.68a8,8,0,0,0,.77-4v-6.5H241v3.44h1.18V27.6h.86v3.78h.85v.73H241v1.66h2.12Zm.38-2.88H245c-.16-.2-.33-.4-.52-.6A4.79,4.79,0,0,0,246.23,34h-1.87V28.76h2c.15-.38.3-.81.46-1.3l.91.28-.48,1h3v5.62h-.82V34h-2.21a5.12,5.12,0,0,1-2,2h2.34v-1.5h.86V36H251v.81h-2.65V39h-.86V36.83h-4Zm1.64-5h1.7V29.53h-1.7Zm1.67.75h-1.67v1.47h1.43A6.62,6.62,0,0,0,246.85,31.74Zm.64,1.47h1.95V31.74h-1.77A7.28,7.28,0,0,1,247.49,33.21Zm1.95-3.68H247.7V31h1.74Z"/><path class="cls-11" d="M193,135.43h-1.17v-4.09h-4.6v4.09h-1.17v-9.08h1.17v4h4.6v-4H193Z"/><path class="cls-11" d="M200.8,127.4h-2.62v8H197v-8H194.4v-1.05h6.4Z"/><path class="cls-11" d="M207.89,127.4h-2.62v8h-1.18v-8h-2.6v-1.05h6.4Z"/><path class="cls-11" d="M210.42,132v3.39h-1.17v-9.08h2.58a3.36,3.36,0,0,1,2.28.71,2.56,2.56,0,0,1,.81,2,2.73,2.73,0,0,1-.95,2.16,3.27,3.27,0,0,1-2.37.79Zm0-4.66V131h1.09a2.41,2.41,0,0,0,1.62-.49,1.7,1.7,0,0,0,.56-1.38c0-1.17-.69-1.76-2.07-1.76Z"/><path class="cls-11" d="M219.67,127h2.84v8.1h-.82v-.89h-1.2v1.06h-.82Zm2,.81h-1.2v5.59h1.2Zm1.76-.73h2.06c.22-.55.41-1.1.58-1.64l.95.23c-.2.49-.4,1-.61,1.41h3.48v8.44c0,.88-.4,1.33-1.21,1.34h-1.47c0-.28-.09-.59-.16-.92.53,0,1,.07,1.39.07s.63-.24.63-.74V127.9h-4.82V137h-.82Zm1.68,2.35h3.1V134h-2.3v.52h-.8Zm2.3.72h-1.5v3.14h1.5Z"/><path class="cls-11" d="M236.43,125.8l.85-.45a14.82,14.82,0,0,1,1,1.39l-.57.33h4.75V128H233.3v2.87c0,2.77-.57,4.83-1.71,6.2a7.69,7.69,0,0,0-.68-.81q1.41-1.58,1.41-5.37v-3.78h5A13.92,13.92,0,0,0,236.43,125.8Zm-3.2,9.65h5.42a55.08,55.08,0,0,0,1.94-6.4l1,.28q-1.1,3.87-2,6.12h2.9v.89h-9.33Zm.63-5.76.89-.3q.74,2.13,1.41,4.78l-1,.3C234.8,132.93,234.37,131.33,233.86,129.69Zm2.83-.58.9-.26a45.61,45.61,0,0,1,1.08,4.72l-1,.27C237.41,132.29,237.09,130.72,236.69,129.11Z"/></g></svg>