<svg xmlns="http://www.w3.org/2000/svg" xmlns:xlink="http://www.w3.org/1999/xlink" viewBox="0 0 475.49 150.28"><defs><style>.cls-1{fill:#505050;}.cls-10,.cls-14,.cls-2{fill:#fff;}.cls-3,.cls-7{fill:#ebebeb;}.cls-15,.cls-4{fill:#0072c6;}.cls-5{fill:#d2d2d2;}.cls-6{fill:none;}.cls-12,.cls-6,.cls-7{stroke:#000;}.cls-12,.cls-13,.cls-14,.cls-15,.cls-6,.cls-7{stroke-miterlimit:10;}.cls-7{stroke-width:0.75px;}.cls-8{fill:#3e3e3e;}.cls-9{fill:#b8d432;}.cls-10{opacity:0.15;isolation:isolate;}.cls-11,.cls-13{fill:#1e1e1e;}.cls-12,.cls-14,.cls-15{stroke-width:0.05px;}.cls-13{stroke:#1e1e1e;stroke-width:0.06px;}.cls-14{stroke:#fff;}.cls-15{stroke:#0072c6;}</style><symbol id="New_Symbol_44" data-name="New Symbol 44" viewBox="0 0 20 20"><circle class="cls-1" cx="10" cy="10" r="10"/><path class="cls-2" d="M12,14V8.58h1.25V7.45H12V5.6H10.65V7.42H6.85V8.56q.51.58,1.05,1.26a12.66,12.66,0,0,1,1,1.38c.29.47.64.94.93,1.41A13,13,0,0,1,10.55,14ZM10.65,8.58v3.5a19.76,19.76,0,0,0-1.26-2C9,9.51,8.58,9,8.22,8.56Z"/></symbol><symbol id="New_Symbol_43" data-name="New Symbol 43" viewBox="0 0 20 20"><circle class="cls-1" cx="10" cy="10" r="10"/><path class="cls-2" d="M7.39,5.88V7.16a3,3,0,0,1,1.85-.65,2.19,2.19,0,0,1,1.34.38,1.23,1.23,0,0,1,.5,1c0,1-.73,1.43-2.18,1.43H8.24v1.12h.63c1.29,0,1.94.45,1.94,1.35S10.3,13,9.29,13a2.48,2.48,0,0,1-1.58-.6v1.23a4.08,4.08,0,0,0,2,.48,2.64,2.64,0,0,0,1.79-.56,1.76,1.76,0,0,0,.67-1.44A2,2,0,0,0,10.5,10h0a2.19,2.19,0,0,0,1.43-.63A1.89,1.89,0,0,0,12.5,8a2.22,2.22,0,0,0-.85-1.82,3.4,3.4,0,0,0-2.24-.7A3.84,3.84,0,0,0,7.39,5.88Z"/></symbol><symbol id="New_Symbol_42" data-name="New Symbol 42" viewBox="0 0 20 20"><circle class="cls-1" cx="10" cy="10" r="10"/><path class="cls-2" d="M12.5,5.57H7.24v.65A2.58,2.58,0,0,0,7.35,7a3.93,3.93,0,0,0,.3.66,4.92,4.92,0,0,0,.44.58c.17.18.35.35.54.52l.59.5c.2.15.39.31.58.47s.35.3.5.45a4.11,4.11,0,0,1,.38.45,2.55,2.55,0,0,1,.24.5,1.84,1.84,0,0,1,.09.57,1.42,1.42,0,0,1-.1.58,1.33,1.33,0,0,1-.29.41,1.17,1.17,0,0,1-.44.26,2.05,2.05,0,0,1-.55.05,2.73,2.73,0,0,1-1.05-.24,3.75,3.75,0,0,1-1-.72v1.31a2.85,2.85,0,0,0,.52.33,2.7,2.7,0,0,0,.55.24,3,3,0,0,0,.59.15,3.64,3.64,0,0,0,.66,0,3.77,3.77,0,0,0,1-.14,2.2,2.2,0,0,0,.79-.44,2,2,0,0,0,.51-.73,2.46,2.46,0,0,0,.18-1,2.88,2.88,0,0,0-.13-.92,2.65,2.65,0,0,0-.36-.76,4,4,0,0,0-.56-.67c-.21-.21-.46-.43-.73-.65l-.67-.53c-.23-.18-.43-.35-.61-.51a3.5,3.5,0,0,1-.44-.5.9.9,0,0,1-.16-.5H12.5Z"/></symbol><symbol id="New_Symbol_41" data-name="New Symbol 41" viewBox="0 0 20 20"><circle class="cls-1" cx="10" cy="10" r="10"/><path class="cls-2" d="M11.19,14.16V5.57H9.83V12.5A4.06,4.06,0,0,0,9,12a9,9,0,0,0-1-.33v1.21l.65.24.63.27.62.34c.21.13.42.27.64.43Z"/></symbol></defs><title>OJ104329346</title><g id="bg"><g id="Shapes"><rect class="cls-2" width="475.49" height="150"/><rect class="cls-3" y="0.48" width="105" height="150"/><rect class="cls-4" x="370.83" y="0.48" width="104.66" height="90"/><rect class="cls-5" x="370.83" y="95.48" width="104.66" height="55"/><line class="cls-6" x1="104.74" y1="15.76" x2="365.31" y2="15.76"/><polygon points="364.22 19.5 370.69 15.76 364.22 12.02 364.22 19.5"/><line class="cls-6" x1="110.12" y1="45.64" x2="370.69" y2="45.64"/><polygon points="111.22 49.38 104.74 45.64 111.22 41.9 111.22 49.38"/><line class="cls-6" x1="104.74" y1="105.07" x2="365.31" y2="105.07"/><polygon points="364.22 108.81 370.69 105.07 364.22 101.33 364.22 108.81"/><line class="cls-6" x1="110.17" y1="141.23" x2="370.74" y2="141.23"/><polygon points="111.26 144.97 104.78 141.23 111.26 137.49 111.26 144.97"/><use width="20" height="20" transform="matrix(1, 0, 0, -1, 159.62, 150.76)" xlink:href="#New_Symbol_44"/><use width="20" height="20" transform="matrix(1, 0, 0, -1, 159.62, 115.07)" xlink:href="#New_Symbol_43"/><use width="20" height="20" transform="matrix(1, 0, 0, -1, 159.62, 55.64)" xlink:href="#New_Symbol_42"/><use width="20" height="20" transform="matrix(1, 0, 0, -1, 159.62, 25.76)" xlink:href="#New_Symbol_41"/><polygon class="cls-7" points="192.5 26.76 184.94 32.2 187.83 41.01 197.17 41.01 200.06 32.2 192.5 26.76"/><path class="cls-8" d="M76.61,87.07a4.2,4.2,0,0,1-4.2,4.2H32.59a4.2,4.2,0,0,1-4.2-4.2V25.47a4.2,4.2,0,0,1,4.2-4.2H72.41a4.2,4.2,0,0,1,4.2,4.2Z"/><rect class="cls-2" x="31.5" y="28.27" width="42" height="49.31"/><path class="cls-2" d="M56.55,84.43a4,4,0,1,1-4-4.05,4,4,0,0,1,4,4.05"/><path class="cls-9" d="M55.15,84.43a2.65,2.65,0,1,1-2.65-2.65,2.65,2.65,0,0,1,2.65,2.65h0"/><path class="cls-10" d="M31.5,77.58V28.27H63.37l2.85-7H32.59a4.2,4.2,0,0,0-4.2,4.2h0v61.6a4.2,4.2,0,0,0,4.18,4.2h5.19l5.57-13.69Z"/><path class="cls-11" d="M59.66,25.22a1,1,0,0,1-1,1H46.38a1,1,0,0,1,0-2.07H58.62a1,1,0,0,1,1,1"/><path class="cls-2" d="M59.66,25.22a1,1,0,0,1-1,1H46.38a1,1,0,0,1,0-2.07H58.62a1,1,0,0,1,1,1"/><path d="M38.48,46.88a.93.93,0,0,1-.69-.27,1,1,0,0,1-.29-.71.93.93,0,0,1,.29-.7,1,1,0,0,1,.69-.27,1.3,1.3,0,0,1,.39.09,1,1,0,0,1,.32.2,1,1,0,0,1,.21.31,1.05,1.05,0,0,1,0,.78.84.84,0,0,1-.22.31A.79.79,0,0,1,38.48,46.88Zm-.67,13.78v-11h1.37v11Z"/><path d="M49.11,60.93a7,7,0,0,1-3-.61,6.54,6.54,0,0,1-2.27-1.66,7.34,7.34,0,0,1-1.42-2.47,9.08,9.08,0,0,1-.49-3.06,10.28,10.28,0,0,1,.49-3.3,7,7,0,0,1,1.46-2.56,6.29,6.29,0,0,1,2.34-1.67,8,8,0,0,1,3.16-.6,7.17,7.17,0,0,1,2.93.59,6.46,6.46,0,0,1,2.22,1.62,7.43,7.43,0,0,1,1.4,2.44,9.56,9.56,0,0,1,.49,3.09A10.92,10.92,0,0,1,55.93,56a7.35,7.35,0,0,1-1.41,2.59,6.35,6.35,0,0,1-2.29,1.72A7.44,7.44,0,0,1,49.11,60.93Zm.12-14.63a5.56,5.56,0,0,0-2.47.54,5.41,5.41,0,0,0-1.82,1.43,6.33,6.33,0,0,0-1.13,2.13,8.81,8.81,0,0,0-.39,2.6,8.54,8.54,0,0,0,.34,2.51,6.19,6.19,0,0,0,1.07,2.11,5.08,5.08,0,0,0,1.78,1.47,5.44,5.44,0,0,0,2.51.55,6.1,6.1,0,0,0,2.53-.49,5.16,5.16,0,0,0,1.8-1.41,6,6,0,0,0,1.09-2.11A9.33,9.33,0,0,0,54.92,53a9.88,9.88,0,0,0-.32-2.54,5.91,5.91,0,0,0-1-2.12,4.86,4.86,0,0,0-1.77-1.44A5.82,5.82,0,0,0,49.23,46.3Z"/><path d="M58.78,58.41a5.78,5.78,0,0,0,.86.52,6.73,6.73,0,0,0,2,.62,6,6,0,0,0,.94.08A4.24,4.24,0,0,0,65.15,59,2.29,2.29,0,0,0,66,57a2.35,2.35,0,0,0-.84-1.92,5.89,5.89,0,0,0-1.1-.77c-.43-.26-1-.56-1.54-.89s-1.22-.7-1.69-1a6.45,6.45,0,0,1-1.15-1A3.06,3.06,0,0,1,59,50.34,3.82,3.82,0,0,1,58.84,49a3.52,3.52,0,0,1,.39-1.68,4.09,4.09,0,0,1,1.08-1.26,4.91,4.91,0,0,1,1.58-.8,6.76,6.76,0,0,1,2-.28,8.08,8.08,0,0,1,3,.49v1.58a6.27,6.27,0,0,0-3.2-.78,4.88,4.88,0,0,0-1.31.19,3.2,3.2,0,0,0-1.06.49,2.4,2.4,0,0,0-.72.8,2.24,2.24,0,0,0-.26,1.11,2.46,2.46,0,0,0,.18,1,2.33,2.33,0,0,0,.57.82,5.78,5.78,0,0,0,1,.77q.64.38,1.56.87c.58.31,1.14.64,1.68,1a6.78,6.78,0,0,1,1.2,1,3.79,3.79,0,0,1,.71,1.13,3.37,3.37,0,0,1,.24,1.33,4.07,4.07,0,0,1-.38,1.78,3.4,3.4,0,0,1-1,1.27,4.77,4.77,0,0,1-1.61.76,7.89,7.89,0,0,1-2,.26,6.36,6.36,0,0,1-.87-.06,4.54,4.54,0,0,1-1-.17,8.68,8.68,0,0,1-1-.27,3.46,3.46,0,0,1-.76-.34Z"/></g><polygon class="cls-7" points="192.57 86.69 185.01 92.14 187.9 100.94 197.24 100.94 200.13 92.14 192.57 86.69"/></g><g id="txt"><path class="cls-12" d="M28.89,104.14h4.48V102.4H35v1.74h4.55v1.52H35.5a13.74,13.74,0,0,0,4.59,4.55,17.88,17.88,0,0,0-1.26,1.5A17.35,17.35,0,0,1,35,107.25v3.18h2.36v1.48H35v2H33.37v-2H31v-1.42a18.62,18.62,0,0,1-1.44,1.36c-.43-.57-.83-1-1.19-1.46a16,16,0,0,0,4.56-4.73h-4Zm2.17,6.29h2.31v-3.07A18.41,18.41,0,0,1,31.06,110.43Z"/><path class="cls-12" d="M40.38,109.4a11.28,11.28,0,0,0,1.42-3.33H40.48v-1.56h1.35v-2.1h1.54v2.1h1.36v1.56H43.37v1.1c.49.28,1,.6,1.61,1l-.76,1.33-.85-.61v5.06H41.83v-4.12a11.32,11.32,0,0,1-.91,1.68C40.79,111,40.61,110.26,40.38,109.4Zm10.52-.07c.37.16.75.31,1.15.45-.08,1.63-.16,2.62-.23,3a1.16,1.16,0,0,1-.42.73,1.39,1.39,0,0,1-.81.21h-.92c-.75,0-1.12-.47-1.12-1.41v-7.69H46.88v3.28a12.42,12.42,0,0,1-.41,3.75,6.93,6.93,0,0,1-1.5,2.32c-.36-.43-.77-.9-1.23-1.39A5,5,0,0,0,45,110.47a14.67,14.67,0,0,0,.3-3.59v-3.94h4.92v8.86c0,.27.09.4.26.4a.26.26,0,0,0,.21-.09,2.72,2.72,0,0,0,.13-.77C50.86,110.88,50.89,110.21,50.9,109.33Z"/><path class="cls-12" d="M54.92,107.72c0,3-.4,5.06-1.21,6.29-.35-.33-.8-.71-1.32-1.12a11,11,0,0,0,1-5.38v-3.68h4.49l-.43-1,1.89-.45.59,1.48h4v1.44h-9Zm-.21,4.08h5.58q.72-2.3,1.69-5.88l1.63.42Q63,108.64,62,111.8h2v1.63H54.71Zm.28-5,1.41-.6c.69,1.5,1.32,3,1.91,4.64l-1.57.58Q56,109.23,55,106.8Zm2.89-.61,1.46-.44q.61,1.62,1.35,4.17l-1.58.44Q58.41,107.85,57.88,106.19Z"/><path class="cls-12" d="M75.34,112.14a1.77,1.77,0,0,1-.34,1.15,1.52,1.52,0,0,1-1,.48,16.16,16.16,0,0,1-1.85.06,15.52,15.52,0,0,0-.47-1.7l1.32.07a.65.65,0,0,0,.74-.72v-1.06H71.26v3.28H69.61v-3.28H67.07a6.81,6.81,0,0,1-1,3.61c-.5-.36-1-.69-1.51-1,.63-.86.93-2.38.91-4.58v-5.52h9.86Zm-8.22-6.2h2.49v-1.45H67.12Zm0,3h2.49v-1.46H67.12Zm6.58-4.42H71.26v1.45H73.7Zm-2.44,4.42H73.7v-1.46H71.26Z"/><path class="cls-13" d="M213.63,86.75h-1.17V82.66h-4.6v4.09h-1.17V77.68h1.17v3.94h4.6V77.68h1.17Z"/><path class="cls-13" d="M221.39,78.72h-2.62v8h-1.18v-8H215v-1h6.41Z"/><path class="cls-13" d="M228.44,78.72h-2.62v8h-1.18v-8H222v-1h6.41Z"/><path class="cls-13" d="M230.93,83.36v3.39h-1.17V77.68h2.58a3.36,3.36,0,0,1,2.28.7,2.56,2.56,0,0,1,.81,2,2.74,2.74,0,0,1-1,2.17,3.31,3.31,0,0,1-2.37.78Zm0-4.65v3.62H232a2.41,2.41,0,0,0,1.63-.49,1.72,1.72,0,0,0,.55-1.38c0-1.17-.69-1.75-2.07-1.75Z"/><path class="cls-13" d="M247.37,86.13a6.06,6.06,0,0,1-3.07.77,4.2,4.2,0,0,1-3.17-1.24,4.6,4.6,0,0,1-1.21-3.33,4.74,4.74,0,0,1,1.33-3.45,4.57,4.57,0,0,1,3.41-1.36,6,6,0,0,1,2.49.47v1.27a4.72,4.72,0,0,0-2.59-.69,3.2,3.2,0,0,0-2.44,1,3.67,3.67,0,0,0-1,2.67,3.74,3.74,0,0,0,.89,2.65,3.13,3.13,0,0,0,2.39,1,3.55,3.55,0,0,0,1.76-.4V83h-2V82h3.15Z"/><path class="cls-13" d="M254.24,86.75h-4.88V77.68H254v1h-3.51v2.91h3.25v1h-3.25v3h3.71Z"/><path class="cls-13" d="M261.39,78.72h-2.61v8H257.6v-8H255v-1h6.4Z"/><path class="cls-13" d="M272.47,83.43h-2.55V86H269V83.43H266.5v-.9H269V80h.88v2.53h2.55Z"/><path class="cls-13" d="M209.89,98.38c0,.36.06.71.11,1-.58.41-1.22.89-1.91,1.46a4.51,4.51,0,0,0-.59.55l-.63-.71a1.59,1.59,0,0,0,.42-1.14V95.83h-1.5V95h2.41v4.71C208.77,99.27,209.33,98.83,209.89,98.38ZM207,91.16c.64.63,1.25,1.27,1.81,1.91l-.82.69a22.29,22.29,0,0,0-1.7-2ZM209.43,93h3.81a14.3,14.3,0,0,0-.89-1.67l.82-.39a18,18,0,0,1,.94,1.62l-.84.44h4v.84h-5.23v1.83h4.4c-.09,2.36-.17,4-.26,4.89a1.5,1.5,0,0,1-1.64,1.59c-.58,0-1.21,0-1.9,0-.05-.36-.12-.71-.19-1a18,18,0,0,0,2,.12c.51,0,.79-.29.86-.87.08-.93.16-2.2.22-3.84h-3.46a10.68,10.68,0,0,1-.45,3.16,7.65,7.65,0,0,1-1.94,2.91,4.62,4.62,0,0,0-.75-.69,6.78,6.78,0,0,0,1.81-2.67,11,11,0,0,0,.38-3.37v-2h-1.7Z"/><path class="cls-13" d="M218.26,93.29h.91v9.19h-.91Zm.58-1.72.67-.6c.43.41,1,1,1.7,1.71l-.76.67C219.78,92.57,219.24,92,218.84,91.57Zm2.1,3.1h5v4.68h-4.13V100h-.84Zm4.13.86h-3.29v3h3.29Zm-3.15-2.93v-.88h6.71v9.06c0,1.14-.51,1.7-1.54,1.7l-1.92,0a8.26,8.26,0,0,0-.19-.95c.65,0,1.28.07,1.88.07s.85-.31.85-.91V92.6Z"/><path class="cls-13" d="M236.21,91.14l-.22.3a11.21,11.21,0,0,0,5.27,4q-.4.56-.66,1a14.44,14.44,0,0,1-5.2-4.27,17.2,17.2,0,0,1-5.27,4.32c-.17-.27-.37-.55-.61-.87A13.71,13.71,0,0,0,235,91.14Zm-3.39,7.67c.81.53,1.68,1.11,2.59,1.73.78-.73,1.68-1.63,2.7-2.71h-7.22V97h8.53v.88q-1.48,1.56-3.22,3.23l1.17.82-.72.79c-1.54-1.2-3-2.25-4.45-3.18Zm1.27-4.1.7-.55c.61.6,1.16,1.19,1.66,1.76l-.77.66A19.76,19.76,0,0,0,234.09,94.71Z"/><path class="cls-13" d="M245.28,102.39h-.86V98h-1.26a9.24,9.24,0,0,1-.91,4.57c-.2-.21-.44-.43-.72-.68a8.12,8.12,0,0,0,.77-3.95v-6.5h.86v3.45h1.18V91.09h.85v3.79h.86v.72h-2.89v1.67h2.12Zm.37-2.87h1.43c-.16-.21-.33-.41-.51-.61a4.87,4.87,0,0,0,1.78-1.43h-1.88V92.25h2c.15-.37.3-.81.46-1.3l.91.28q-.26.57-.48,1h3v5.63h-.82v-.4h-2.22a5.19,5.19,0,0,1-2,2h2.35V98h.85v1.5h2.65v.81H250.5v2.14h-.85v-2.14h-4Zm1.64-5H249V93h-1.7Zm1.68.75h-1.68V96.7h1.43A6,6,0,0,0,249,95.23Zm.63,1.47h2V95.23h-1.77A7.88,7.88,0,0,1,249.6,96.7Zm2-3.68h-1.75v1.46h1.75Z"/><path class="cls-14" d="M402.85,34.92V29.41c0-.5,0-1.14.07-1.91h0a10.4,10.4,0,0,1-.28,1.16l-2.24,6.26h-1.54l-2.27-6.2a11.15,11.15,0,0,1-.29-1.22h-.05c.05.76.08,1.52.08,2.29v5.13h-1.75V25.85h2.81l2,5.48a6.91,6.91,0,0,1,.33,1.28h0a12.21,12.21,0,0,1,.38-1.29l2-5.47h2.74v9.07Z"/><path class="cls-14" d="M406.52,26.35a.9.9,0,0,1,.31-.71,1.15,1.15,0,0,1,.79-.27,1.09,1.09,0,0,1,.79.28.88.88,0,0,1,.31.7.92.92,0,0,1-.31.71,1.22,1.22,0,0,1-1.58,0A1,1,0,0,1,406.52,26.35Zm.14,8.57V28.44h1.89v6.48Z"/><path class="cls-14" d="M415.1,34.68a3.8,3.8,0,0,1-1.93.4,3.28,3.28,0,0,1-2.4-.9,3.13,3.13,0,0,1-.91-2.34,3.42,3.42,0,0,1,1-2.6,3.6,3.6,0,0,1,2.62-1,3.38,3.38,0,0,1,1.65.31v1.62a2.35,2.35,0,0,0-1.42-.47,1.87,1.87,0,0,0-1.39.52,2,2,0,0,0-.53,1.45,1.93,1.93,0,0,0,.5,1.4,1.76,1.76,0,0,0,1.35.52,2.63,2.63,0,0,0,1.48-.48Z"/><path class="cls-14" d="M420.57,30.16a1.68,1.68,0,0,0-.84-.2,1.21,1.21,0,0,0-1,.49,2.19,2.19,0,0,0-.38,1.35v3.12h-1.89V28.44h1.89v1.22h0a1.72,1.72,0,0,1,1.7-1.33,1.29,1.29,0,0,1,.51.08Z"/><path class="cls-14" d="M421.08,31.71a3.29,3.29,0,0,1,1-2.51,3.59,3.59,0,0,1,2.58-.92,3.39,3.39,0,0,1,2.48.9A3.25,3.25,0,0,1,428,31.6a3.61,3.61,0,0,1-6,2.57A3.26,3.26,0,0,1,421.08,31.71Zm1.92,0c0,1.29.53,1.94,1.58,1.94s1.52-.67,1.52-2-.51-1.89-1.53-1.89a1.41,1.41,0,0,0-1.16.51A2.26,2.26,0,0,0,423,31.69Z"/><path class="cls-14" d="M429.19,33.18a3.57,3.57,0,0,0,1.9.59c.78,0,1.17-.21,1.17-.62s-.32-.55-1-.75a4.15,4.15,0,0,1-1.65-.83,1.88,1.88,0,0,1,.32-2.74,3.39,3.39,0,0,1,2-.55,5.46,5.46,0,0,1,1.71.27V30a3.18,3.18,0,0,0-1.66-.45,1.44,1.44,0,0,0-.73.16.49.49,0,0,0-.27.43c0,.29.27.53.82.72a8.65,8.65,0,0,1,1.32.53,1.66,1.66,0,0,1,.9,1.54,1.78,1.78,0,0,1-.8,1.56,3.69,3.69,0,0,1-2.14.55,5.54,5.54,0,0,1-1.95-.33Z"/><path class="cls-14" d="M434.89,31.71a3.29,3.29,0,0,1,1-2.51,3.59,3.59,0,0,1,2.58-.92,3.39,3.39,0,0,1,2.48.9,3.25,3.25,0,0,1,.92,2.42,3.61,3.61,0,0,1-6,2.57A3.26,3.26,0,0,1,434.89,31.71Zm1.92,0c0,1.29.53,1.94,1.58,1.94s1.52-.67,1.52-2-.51-1.89-1.53-1.89a1.41,1.41,0,0,0-1.16.51A2.26,2.26,0,0,0,436.81,31.69Z"/><path class="cls-14" d="M447.08,26.79a2,2,0,0,0-.73-.15c-.65,0-1,.36-1,1.07v.73h1.47v1.41h-1.47v5.07h-1.9V29.85H442.4V28.44h1.08v-.83a2.28,2.28,0,0,1,.72-1.77,2.7,2.7,0,0,1,1.9-.66,3.4,3.4,0,0,1,1,.12Z"/><path class="cls-14" d="M451.9,34.85a2.91,2.91,0,0,1-1.3.23c-1.37,0-2.06-.72-2.06-2.17V29.85h-1.07V28.44h1.07V27l1.88-.54v2h1.48v1.41h-1.48v2.73c0,.7.27,1,.82,1a1.33,1.33,0,0,0,.66-.19Z"/><path class="cls-14" d="M399,46.13A13.06,13.06,0,0,0,400.3,43h-1.25V41.43h1.35v-2h1.44v2H403V43h-1.12v1.36l1.44.82-.73,1.33a7.64,7.64,0,0,0-.71-.53v5H400.4V46.07a15.91,15.91,0,0,1-1.06,2.2C399.21,47.46,399.09,46.75,399,46.13Zm5-1,1.39.4a34,34,0,0,1-1.46,3.92,8.42,8.42,0,0,0-1.39-.56A26.94,26.94,0,0,0,403.94,45.18ZM403,42.92h7.54v1.52h-3v5a1.28,1.28,0,0,1-.34,1,1.57,1.57,0,0,1-1,.38c-.43,0-1,0-1.76,0-.11-.63-.22-1.18-.32-1.63.41,0,.79.06,1.11.06s.68-.21.68-.63v-4.2H403Zm.47-2.93h6.62v1.52h-6.62Zm5.82,5.28c.5,1.18,1,2.42,1.42,3.72l-1.44.55c-.45-1.38-.91-2.64-1.37-3.76Z"/><path class="cls-14" d="M415,46.54a14.88,14.88,0,0,0,.27,1.73,21.21,21.21,0,0,0-2.48,2.08L412,49.27a1.75,1.75,0,0,0,.25-1V44.53h-1.16V43h2.77V47.5Zm-2-7.13c.5.67,1,1.39,1.56,2.17l-1.5.94c-.47-.81-.95-1.58-1.43-2.3Zm3.72,7.29,1.39.92q-1.35,1.82-2.71,3.37c-.39-.36-.84-.73-1.34-1.11A19.12,19.12,0,0,0,416.73,46.7ZM415.22,40h6.61v6.34h-6.61Zm5,4.91V41.42h-3.37V44.9Zm0,1.81c.9,1,1.77,2.07,2.62,3.18l-1.45,1c-.79-1.16-1.61-2.28-2.47-3.36Z"/><path class="cls-14" d="M423.17,45.65h4.77v-4.3h-4.26V39.8H434v1.55h-4.32v4.3h4.84v1.54h-4.84v3.65h-1.78V47.19h-4.77Zm.68-3.25,1.23-.83c.75.87,1.53,1.84,2.33,2.91l-1.42.93C425.2,44.22,424.49,43.21,423.85,42.4Zm10.22.12c-.83,1-1.71,2-2.63,2.93l-1.19-1a28.08,28.08,0,0,0,2.43-2.9Z"/><path class="cls-14" d="M443.48,40.73q1.8,1.76,3.34,3.45l-1.3,1.1-.92-1.07q-5,.07-8.75.42l-.62-1.38a20.44,20.44,0,0,0,4.57-4.06l1.53.83q-1.66,1.57-3.51,3.07l5.63-.2-1.19-1.31Zm-7.15,10.14V45.38h9v5.49h-1.59v-.69h-5.84v.69Zm7.43-4h-5.84v1.9h5.84Z"/><path class="cls-15" d="M402.85,119.94v-5.51c0-.5,0-1.14.07-1.91h0a10.4,10.4,0,0,1-.28,1.16l-2.24,6.26h-1.54l-2.27-6.2a11.15,11.15,0,0,1-.29-1.22h-.05c.05.76.08,1.52.08,2.29v5.13h-1.75v-9.07h2.81l2,5.48a6.91,6.91,0,0,1,.33,1.28h0a12.21,12.21,0,0,1,.38-1.29l2-5.47h2.74v9.07Z"/><path class="cls-15" d="M406.52,111.37a.89.89,0,0,1,.31-.71,1.15,1.15,0,0,1,.79-.27,1.09,1.09,0,0,1,.79.28.88.88,0,0,1,.31.7.92.92,0,0,1-.31.71,1.22,1.22,0,0,1-1.58,0A1,1,0,0,1,406.52,111.37Zm.14,8.57v-6.48h1.89v6.48Z"/><path class="cls-15" d="M415.1,119.7a3.8,3.8,0,0,1-1.93.4,3.28,3.28,0,0,1-2.4-.9,3.13,3.13,0,0,1-.91-2.34,3.46,3.46,0,0,1,1-2.61,3.63,3.63,0,0,1,2.62-1,3.38,3.38,0,0,1,1.65.31v1.62a2.35,2.35,0,0,0-1.42-.47,1.87,1.87,0,0,0-1.39.52,2,2,0,0,0-.53,1.45,1.93,1.93,0,0,0,.5,1.4,1.76,1.76,0,0,0,1.35.52,2.63,2.63,0,0,0,1.48-.48Z"/><path class="cls-15" d="M420.57,115.18a1.58,1.58,0,0,0-.84-.2,1.21,1.21,0,0,0-1,.49,2.19,2.19,0,0,0-.38,1.35v3.12h-1.89v-6.48h1.89v1.22h0a1.72,1.72,0,0,1,1.7-1.33,1.29,1.29,0,0,1,.51.08Z"/><path class="cls-15" d="M421.08,116.73a3.29,3.29,0,0,1,1-2.51,3.59,3.59,0,0,1,2.58-.92,3.39,3.39,0,0,1,2.48.9,3.25,3.25,0,0,1,.92,2.42,3.61,3.61,0,0,1-6,2.57A3.26,3.26,0,0,1,421.08,116.73Zm1.92,0c0,1.29.53,1.94,1.58,1.94s1.52-.67,1.52-2-.51-1.89-1.53-1.89a1.41,1.41,0,0,0-1.16.51A2.26,2.26,0,0,0,423,116.71Z"/><path class="cls-15" d="M429.19,118.2a3.57,3.57,0,0,0,1.9.59c.78,0,1.17-.21,1.17-.62s-.32-.55-1-.75a4.15,4.15,0,0,1-1.65-.83,1.71,1.71,0,0,1-.45-1.25,1.74,1.74,0,0,1,.77-1.5,3.46,3.46,0,0,1,2-.54,5.46,5.46,0,0,1,1.71.27v1.48a3.27,3.27,0,0,0-1.66-.44,1.44,1.44,0,0,0-.73.16.49.49,0,0,0-.27.43c0,.29.27.53.82.72a8.65,8.65,0,0,1,1.32.53,1.66,1.66,0,0,1,.9,1.54,1.78,1.78,0,0,1-.8,1.56,3.69,3.69,0,0,1-2.14.55,5.54,5.54,0,0,1-1.95-.33Z"/><path class="cls-15" d="M434.89,116.73a3.29,3.29,0,0,1,1-2.51,3.59,3.59,0,0,1,2.58-.92,3.39,3.39,0,0,1,2.48.9,3.25,3.25,0,0,1,.92,2.42,3.61,3.61,0,0,1-6,2.57A3.26,3.26,0,0,1,434.89,116.73Zm1.92,0c0,1.29.53,1.94,1.58,1.94s1.52-.67,1.52-2-.51-1.89-1.53-1.89a1.41,1.41,0,0,0-1.16.51A2.26,2.26,0,0,0,436.81,116.71Z"/><path class="cls-15" d="M447.08,111.81a2,2,0,0,0-.73-.15c-.65,0-1,.36-1,1.07v.73h1.47v1.41h-1.47v5.07h-1.9v-5.07H442.4v-1.41h1.08v-.83a2.28,2.28,0,0,1,.72-1.77,2.7,2.7,0,0,1,1.9-.66,3.4,3.4,0,0,1,1,.12Z"/><path class="cls-15" d="M451.9,119.87a2.91,2.91,0,0,1-1.3.23c-1.37,0-2.06-.72-2.06-2.17v-3.06h-1.07v-1.41h1.07V112l1.88-.54v2h1.48v1.41h-1.48v2.73c0,.69.27,1,.82,1a1.33,1.33,0,0,0,.66-.19Z"/><path class="cls-15" d="M400.54,133.73a6.43,6.43,0,0,1-3.27.77,4.72,4.72,0,0,1-3.42-1.22A4.4,4.4,0,0,1,392.6,130a4.65,4.65,0,0,1,1.38-3.49,5,5,0,0,1,3.63-1.35,7.23,7.23,0,0,1,2.54.41v1.84a5,5,0,0,0-2.58-.62,2.83,2.83,0,0,0-2.13.86,3.61,3.61,0,0,0-.07,4.47,2.58,2.58,0,0,0,2,.8,2.92,2.92,0,0,0,1.24-.23v-1.87h-1.84v-1.55h3.77Z"/><path class="cls-15" d="M406.29,129.58a1.58,1.58,0,0,0-.84-.2,1.21,1.21,0,0,0-1,.49,2.19,2.19,0,0,0-.38,1.35v3.12h-1.89v-6.48h1.89v1.22h0a1.72,1.72,0,0,1,1.7-1.33,1.18,1.18,0,0,1,.51.08Z"/><path class="cls-15" d="M407.4,128.25a4.75,4.75,0,0,1,1.18-.4,6.45,6.45,0,0,1,1.25-.15,2.41,2.41,0,0,1,2.72,2.73v3.91h-1.8v-.94h0a2.14,2.14,0,0,1-1.94,1.1,2.05,2.05,0,0,1-1.47-.53,1.84,1.84,0,0,1-.56-1.42c0-1.24.74-2,2.23-2.17l1.78-.24c0-.75-.4-1.13-1.18-1.13a3.82,3.82,0,0,0-2.19.7Zm2.14,3.16c-.68.09-1,.39-1,.92a.75.75,0,0,0,.25.59,1,1,0,0,0,.67.22,1.25,1.25,0,0,0,.95-.41,1.45,1.45,0,0,0,.38-1v-.46Z"/><path class="cls-15" d="M416.07,133.56v3.76h-1.89v-9.46h1.89v1h0a2.37,2.37,0,0,1,2.11-1.15,2.33,2.33,0,0,1,1.93.87,3.66,3.66,0,0,1,.7,2.35,4,4,0,0,1-.81,2.6,2.63,2.63,0,0,1-2.12,1,2,2,0,0,1-1.81-.94Zm0-2.08a1.7,1.7,0,0,0,.38,1.13,1.22,1.22,0,0,0,1,.44,1.29,1.29,0,0,0,1.1-.55,2.61,2.61,0,0,0,.4-1.56c0-1.19-.47-1.78-1.39-1.78a1.29,1.29,0,0,0-1.05.49,1.93,1.93,0,0,0-.41,1.26Z"/><path class="cls-15" d="M428.29,134.34h-1.88v-3.69c0-1-.37-1.49-1.09-1.49a1.1,1.1,0,0,0-.9.41,1.6,1.6,0,0,0-.36,1.08v3.69h-1.89v-9.59h1.89v4.08h0a2.31,2.31,0,0,1,2-1.13c1.47,0,2.2.89,2.2,2.66Z"/><path class="cls-15" d="M441.55,134.34h-2.11l-.68-2.08h-3.3l-.66,2.08h-2.1l3.32-9.08h2.27Zm-3.24-3.57-1-3.15a4.06,4.06,0,0,1-.14-.79h-.05a3.4,3.4,0,0,1-.16.77l-1,3.17Z"/><path class="cls-15" d="M444.63,131.18v3.16H442.7v-9.08h3.12q3.39,0,3.39,2.88a2.74,2.74,0,0,1-1,2.23,3.78,3.78,0,0,1-2.56.81Zm0-4.42v2.93h.84c1.14,0,1.71-.49,1.71-1.48s-.57-1.45-1.69-1.45Z"/><path class="cls-15" d="M452.51,125.26v9.08h-1.93v-9.08Z"/><path class="cls-13" d="M184.52,10.38a8.09,8.09,0,0,0,2.75-2.62c-.11-.27-.23-.54-.37-.81A16.08,16.08,0,0,1,185,8.23l-.53-.71a12.7,12.7,0,0,0,2-1.27,10.34,10.34,0,0,0-1.24-1.46l.58-.54a9.76,9.76,0,0,1,1.31,1.45,10.82,10.82,0,0,0,1.22-1.31l.73.49a16.45,16.45,0,0,1-1.5,1.51,7.33,7.33,0,0,1,1,4.13c0,1.43-.67,2.15-1.92,2.15-.33,0-.72,0-1.18,0,0-.27-.1-.59-.17-1a10.51,10.51,0,0,0,1.29.09c.7,0,1.07-.43,1.1-1.28a6.49,6.49,0,0,0-.16-1.77,9.71,9.71,0,0,1-2.49,2.33C184.92,10.87,184.74,10.64,184.52,10.38Zm.18-7.76h3.22V1.33h.91V2.62h3.22V1.33H193V2.62h3.21v.83H193v.79h-.91V3.45h-3.22v.77h-.91V3.45H184.7ZM189,6.72h2.84c0-.58,0-1.3,0-2.14h.92c0,.67,0,1.39,0,2.14H196v.83h-3.26a6,6,0,0,0,3.42,4.53l-.73.8a6.49,6.49,0,0,1-3.14-4A6.67,6.67,0,0,1,189,13q-.27-.39-.6-.78a5.81,5.81,0,0,0,3.32-4.64H189Zm4.43-1.62.47-.59c.63.39,1.21.77,1.72,1.14l-.52.68C194.61,6,194.05,5.57,193.38,5.1Z"/><path class="cls-13" d="M196.49,10.12l1-.14V2.74h-.88V1.92h5.74v.41h5.12v.73a16.9,16.9,0,0,1-2,6.37,8,8,0,0,0,2.66,2.43,8,8,0,0,0-.71.87A12.09,12.09,0,0,1,205,10.18a12.61,12.61,0,0,1-2.81,2.69c-.22-.29-.42-.54-.6-.74v.73h-.88V10.32l-4.09.67Zm1.93-5.59h2.28V2.74h-2.28Zm0,2.54h2.28V5.28h-2.28Zm2.28,2.46V7.82h-2.28v2Zm1.61-6.41V2.74h-.73V9.4l1.34-.22c0,.32,0,.59,0,.81l-1.3.2v1.89a9.8,9.8,0,0,0,2.9-2.65,14.62,14.62,0,0,1-1.74-6.31Zm4.34,0h-3.06A13.63,13.63,0,0,0,205,8.64,16.52,16.52,0,0,0,206.65,3.12Z"/><path class="cls-13" d="M215.06,1.51l-.23.3a11.24,11.24,0,0,0,5.28,4c-.28.37-.49.69-.66,1a14.45,14.45,0,0,1-5.2-4.28A17,17,0,0,1,209,6.84a8.61,8.61,0,0,0-.6-.87,14,14,0,0,0,5.48-4.46Zm-3.39,7.67,2.59,1.72c.78-.72,1.68-1.63,2.7-2.7h-7.22V7.32h8.53V8.2c-1,1-2.06,2.11-3.23,3.23l1.18.82-.72.79q-2.31-1.8-4.45-3.18Zm1.27-4.1.7-.55c.61.6,1.16,1.19,1.66,1.76l-.77.65A20.94,20.94,0,0,0,212.94,5.08Z"/><path class="cls-13" d="M224.1,12.76h-.85V8.36H222a9.25,9.25,0,0,1-.9,4.57c-.2-.21-.45-.44-.73-.68a8,8,0,0,0,.78-3.95V1.8H222V5.24h1.18V1.46H224V5.24h.86V6H222V7.63h2.12Zm.38-2.88h1.43c-.16-.2-.33-.4-.52-.61a4.68,4.68,0,0,0,1.78-1.42H225.3V2.62h2c.15-.38.3-.81.46-1.3l.91.28-.48,1h3V8.24h-.82V7.85h-2.21a5.12,5.12,0,0,1-2,2h2.34V8.38h.86v1.5H232v.81h-2.65v2.15h-.86V10.69h-4Zm1.64-5h1.7V3.39h-1.7Zm1.67.75h-1.67V7.07h1.43A6.62,6.62,0,0,0,227.79,5.6Zm.64,1.47h1.95V5.6h-1.77A7.28,7.28,0,0,1,228.43,7.07Zm1.95-3.68h-1.74V4.85h1.74Z"/><path class="cls-13" d="M208.29,35.64c0,.36.06.7.11,1-.58.41-1.22.89-1.91,1.45a6.54,6.54,0,0,0-.59.55l-.63-.7a1.61,1.61,0,0,0,.42-1.15V33.08h-1.5v-.85h2.41v4.71C207.17,36.52,207.73,36.09,208.29,35.64Zm-2.92-7.22c.64.63,1.25,1.27,1.81,1.91l-.82.69a22.29,22.29,0,0,0-1.7-2Zm2.46,1.84h3.81a15.26,15.26,0,0,0-.89-1.68l.82-.38c.37.57.68,1.11.94,1.61l-.84.45h4.05v.84h-5.23v1.83h4.4c-.09,2.36-.17,4-.26,4.89A1.5,1.5,0,0,1,213,39.41c-.58,0-1.21,0-1.9,0-.05-.36-.12-.7-.19-1a15.94,15.94,0,0,0,2,.13c.51,0,.79-.29.86-.88.08-.92.16-2.2.22-3.83h-3.46A10.89,10.89,0,0,1,210,36.9a7.72,7.72,0,0,1-1.94,2.92,4.62,4.62,0,0,0-.75-.69,6.78,6.78,0,0,0,1.81-2.67,11.11,11.11,0,0,0,.38-3.38v-2h-1.7Z"/><path class="cls-13" d="M216.66,30.55h.91v9.19h-.91Zm.58-1.72.67-.6c.43.41,1,1,1.7,1.71l-.76.67C218.18,29.83,217.64,29.24,217.24,28.83Zm2.1,3.09h5v4.69h-4.13v.67h-.84Zm4.12.87h-3.28v3h3.28Zm-3.14-2.93V29H227V38c0,1.13-.51,1.7-1.54,1.7l-1.92,0a8.26,8.26,0,0,0-.19-.95c.65,0,1.28.07,1.88.07s.85-.31.85-.92V29.86Z"/><path class="cls-13" d="M234.61,28.4l-.22.3a11.21,11.21,0,0,0,5.27,4q-.41.56-.66,1a14.54,14.54,0,0,1-5.2-4.28,17.07,17.07,0,0,1-5.27,4.33c-.17-.27-.37-.56-.61-.87a13.88,13.88,0,0,0,5.48-4.46Zm-3.39,7.67,2.59,1.72q1.17-1.08,2.7-2.7h-7.22v-.88h8.53v.88c-1,1-2.06,2.11-3.22,3.23l1.17.82-.72.79q-2.31-1.8-4.45-3.18Zm1.27-4.1.7-.55c.61.6,1.16,1.19,1.66,1.76l-.77.65A20.94,20.94,0,0,0,232.49,32Z"/><path class="cls-13" d="M243.68,39.65h-.86v-4.4h-1.26a9.24,9.24,0,0,1-.91,4.57,9.84,9.84,0,0,0-.72-.68,8.14,8.14,0,0,0,.77-4v-6.5h.86v3.44h1.18V28.35h.85v3.78h.86v.73h-2.89v1.66h2.12Zm.37-2.88h1.43c-.15-.2-.33-.4-.51-.6a4.87,4.87,0,0,0,1.78-1.43h-1.88V29.51h2c.15-.38.31-.81.46-1.3l.92.28-.49,1h3v5.62H250v-.39h-2.22a5,5,0,0,1-2,2h2.35v-1.5h.85v1.5h2.65v.81H248.9v2.15h-.85V37.58h-4Zm1.64-5h1.7V30.28h-1.7Zm1.68.75h-1.68V34h1.43A6,6,0,0,0,247.37,32.49ZM248,34h2V32.49h-1.77A7.21,7.21,0,0,1,248,34Zm2-3.68h-1.75v1.46H250Z"/><path class="cls-13" d="M192.53,135.18h-1.18v-4.09h-4.59v4.09h-1.17V126.1h1.17v4h4.59v-4h1.18Z"/><path class="cls-13" d="M200.32,127.15H197.7v8h-1.18v-8h-2.61V126.1h6.41Z"/><path class="cls-13" d="M207.41,127.15h-2.62v8h-1.18v-8H201V126.1h6.41Z"/><path class="cls-13" d="M209.94,131.79v3.39h-1.17V126.1h2.57a3.41,3.41,0,0,1,2.29.71,2.56,2.56,0,0,1,.81,2,2.73,2.73,0,0,1-.95,2.16,3.31,3.31,0,0,1-2.38.79Zm0-4.66v3.63H211a2.42,2.42,0,0,0,1.63-.49,1.73,1.73,0,0,0,.56-1.38c0-1.17-.69-1.76-2.08-1.76Z"/><path class="cls-13" d="M219.19,126.77H222v8.1h-.82V134H220V135h-.82Zm2,.81H220v5.59h1.19Zm1.76-.73H225c.22-.55.42-1.1.59-1.64l.95.23c-.2.49-.41,1-.61,1.41h3.48v8.44c0,.88-.41,1.33-1.22,1.34h-1.46c0-.28-.1-.59-.17-.92.53,0,1,.07,1.4.07s.63-.24.63-.74v-7.39h-4.83v9.14H223Zm1.69,2.35h3.09v4.59h-2.29v.52h-.8Zm2.3.72h-1.5v3.14H227Z"/><path class="cls-13" d="M235.94,125.55l.86-.45a13.1,13.1,0,0,1,1,1.39l-.57.33H242v.89h-9.13v2.87c0,2.77-.57,4.83-1.72,6.2a7.53,7.53,0,0,0-.67-.81q1.4-1.58,1.4-5.37v-3.78h5C236.53,126.39,236.25,126,235.94,125.55Zm-3.19,9.65h5.42a57.13,57.13,0,0,0,1.94-6.4l1,.28c-.74,2.58-1.38,4.62-1.95,6.12h2.89v.89h-9.32Zm.63-5.76.89-.3q.72,2.13,1.41,4.78l-1,.3C234.32,132.68,233.89,131.08,233.38,129.44Zm2.82-.58.9-.26a45.61,45.61,0,0,1,1.08,4.72l-1,.27A44.49,44.49,0,0,0,236.2,128.86Z"/></g></svg>