<?xml version="1.0" encoding="utf-8"?>
<!-- Generator: Adobe Illustrator 22.1.0, SVG Export Plug-In . SVG Version: 6.00 Build 0)  -->
<svg version="1.1" xmlns="http://www.w3.org/2000/svg" xmlns:xlink="http://www.w3.org/1999/xlink" x="0px" y="0px"
	 viewBox="0 0 215 41" style="enable-background:new 0 0 215 41;" xml:space="preserve">
<style type="text/css">
	.st0{fill:#2F2F2F;}
	.st1{fill:#F25022;}
	.st2{fill:#00A4EF;}
	.st3{fill:#7FBA00;}
	.st4{fill:#FFB900;}
	.st5{fill:#FFFFFF;}
</style>
<g id="Layer_1">
	<title>MS-SymbolLockup</title>
	<rect class="st0" width="215" height="41"/>
	<rect x="13" y="11" class="st1" width="9" height="9"/>
	<rect x="13" y="21" class="st2" width="9" height="9"/>
	<rect x="23" y="11" class="st3" width="9" height="9"/>
	<rect x="23" y="21" class="st4" width="9" height="9"/>
</g>
<g id="Layer_2">
	<g>
		<path class="st5" d="M57.8,25.5h-1.7v-6.8c0-0.6,0-1.2,0.1-2h0c-0.1,0.5-0.2,0.8-0.3,1l-3.1,7.9h-1.2l-3.1-7.8
			c-0.1-0.2-0.2-0.6-0.3-1h0c0,0.4,0.1,1.1,0.1,2.1v6.8h-1.6V15H49l2.8,7c0.2,0.5,0.3,0.9,0.4,1.2h0c0.2-0.6,0.3-1,0.4-1.2l2.8-7
			h2.4V25.5z"/>
		<path class="st5" d="M61,16.4c-0.3,0-0.5-0.1-0.7-0.3C60.1,16,60,15.7,60,15.5s0.1-0.5,0.3-0.7c0.2-0.2,0.4-0.3,0.7-0.3
			c0.3,0,0.5,0.1,0.7,0.3s0.3,0.4,0.3,0.7c0,0.3-0.1,0.5-0.3,0.7S61.3,16.4,61,16.4z M61.9,25.5h-1.7V18h1.7V25.5z"/>
		<path class="st5" d="M69.4,25.2c-0.6,0.3-1.3,0.5-2.1,0.5c-1.1,0-2-0.3-2.7-1c-0.7-0.7-1-1.6-1-2.7c0-1.2,0.4-2.2,1.1-3
			c0.7-0.7,1.7-1.1,2.9-1.1c0.7,0,1.3,0.1,1.8,0.4v1.6c-0.5-0.4-1.1-0.6-1.7-0.6c-0.7,0-1.3,0.2-1.8,0.7s-0.7,1.1-0.7,1.9
			c0,0.8,0.2,1.4,0.6,1.8c0.4,0.4,1,0.7,1.7,0.7c0.6,0,1.2-0.2,1.7-0.7V25.2z"/>
		<path class="st5" d="M75.4,19.6c-0.2-0.2-0.5-0.2-0.9-0.2c-0.5,0-0.9,0.2-1.3,0.7s-0.5,1.1-0.5,1.9v3.6h-1.7V18h1.7v1.5h0
			c0.2-0.5,0.4-0.9,0.8-1.2c0.3-0.3,0.7-0.4,1.2-0.4c0.3,0,0.5,0,0.7,0.1V19.6z"/>
		<path class="st5" d="M79.8,25.7c-1.2,0-2.1-0.3-2.8-1.1c-0.7-0.7-1-1.6-1-2.8c0-1.3,0.4-2.2,1.1-3c0.7-0.7,1.7-1.1,2.9-1.1
			c1.2,0,2.1,0.3,2.7,1s1,1.6,1,2.9c0,1.2-0.4,2.2-1.1,2.9C81.9,25.3,81,25.7,79.8,25.7z M79.9,19.2c-0.7,0-1.2,0.2-1.6,0.7
			c-0.4,0.5-0.6,1.1-0.6,1.9c0,0.8,0.2,1.4,0.6,1.9c0.4,0.5,0.9,0.7,1.6,0.7c0.7,0,1.2-0.2,1.5-0.7c0.4-0.4,0.5-1.1,0.5-1.9
			c0-0.8-0.2-1.5-0.5-1.9C81,19.4,80.5,19.2,79.9,19.2z"/>
		<path class="st5" d="M84.9,25.3v-1.6c0.6,0.5,1.3,0.7,2.1,0.7c1,0,1.5-0.3,1.5-0.9c0-0.2,0-0.3-0.1-0.4c-0.1-0.1-0.2-0.2-0.4-0.3
			c-0.1-0.1-0.3-0.2-0.5-0.2c-0.2-0.1-0.4-0.2-0.7-0.2c-0.3-0.1-0.6-0.3-0.8-0.4c-0.2-0.1-0.5-0.3-0.6-0.5c-0.2-0.2-0.3-0.4-0.4-0.6
			c-0.1-0.2-0.1-0.5-0.1-0.8c0-0.4,0.1-0.7,0.3-1s0.4-0.5,0.7-0.7c0.3-0.2,0.6-0.3,1-0.4c0.4-0.1,0.7-0.1,1.1-0.1
			c0.7,0,1.3,0.1,1.9,0.3v1.5c-0.5-0.4-1.1-0.5-1.8-0.5c-0.2,0-0.4,0-0.6,0.1c-0.2,0-0.3,0.1-0.4,0.2s-0.2,0.2-0.3,0.3
			c-0.1,0.1-0.1,0.2-0.1,0.4c0,0.2,0,0.3,0.1,0.4c0.1,0.1,0.2,0.2,0.3,0.3c0.1,0.1,0.3,0.2,0.5,0.2c0.2,0.1,0.4,0.1,0.6,0.2
			c0.3,0.1,0.6,0.3,0.9,0.4c0.3,0.1,0.5,0.3,0.7,0.5c0.2,0.2,0.3,0.4,0.4,0.6c0.1,0.2,0.1,0.5,0.1,0.8c0,0.4-0.1,0.7-0.3,1
			s-0.4,0.5-0.7,0.7s-0.6,0.3-1,0.4c-0.4,0.1-0.8,0.1-1.2,0.1C86.2,25.7,85.5,25.5,84.9,25.3z"/>
		<path class="st5" d="M95.1,25.7c-1.2,0-2.1-0.3-2.8-1.1c-0.7-0.7-1-1.6-1-2.8c0-1.3,0.4-2.2,1.1-3c0.7-0.7,1.7-1.1,2.9-1.1
			c1.2,0,2.1,0.3,2.7,1s1,1.6,1,2.9c0,1.2-0.4,2.2-1.1,2.9C97.3,25.3,96.3,25.7,95.1,25.7z M95.2,19.2c-0.7,0-1.2,0.2-1.6,0.7
			c-0.4,0.5-0.6,1.1-0.6,1.9c0,0.8,0.2,1.4,0.6,1.9c0.4,0.5,0.9,0.7,1.6,0.7c0.7,0,1.2-0.2,1.5-0.7c0.4-0.4,0.5-1.1,0.5-1.9
			c0-0.8-0.2-1.5-0.5-1.9C96.4,19.4,95.9,19.2,95.2,19.2z"/>
		<path class="st5" d="M104.7,15.8c-0.2-0.1-0.5-0.2-0.8-0.2c-0.8,0-1.2,0.5-1.2,1.4v1h1.7v1.3h-1.7v6.2H101v-6.2h-1.3V18h1.3v-1.2
			c0-0.8,0.3-1.4,0.8-1.9c0.5-0.5,1.2-0.7,1.9-0.7c0.4,0,0.8,0,1,0.1V15.8z"/>
		<path class="st5" d="M109.9,25.4c-0.3,0.2-0.8,0.2-1.3,0.2c-1.5,0-2.2-0.7-2.2-2.1v-4.2h-1.3V18h1.3v-1.7l1.7-0.5V18h1.8v1.3h-1.8
			v3.7c0,0.4,0.1,0.8,0.2,1c0.2,0.2,0.4,0.3,0.8,0.3c0.3,0,0.5-0.1,0.7-0.2V25.4z"/>
		<path class="st5" d="M115.3,15v-1h5.8v1c-1.3,2.2-3.4,4.1-6.1,5.7c-0.2-0.3-0.4-0.7-0.6-1c1-0.5,1.9-1,2.5-1.5
			c-0.6-0.6-1.2-1.3-1.9-1.9l0.7-0.7c0.7,0.7,1.4,1.3,2,1.9c0.8-0.7,1.5-1.5,2.1-2.5H115.3z M114.7,26h4.9c-0.4-0.3-0.9-0.8-1.5-1.4
			l0.7-0.7c0.6,0.5,1.2,1,1.8,1.6l-0.6,0.6h3.5l-0.5-0.5c0.6-0.6,1.2-1.1,1.7-1.7l0.9,0.7c-0.5,0.5-1,0.9-1.5,1.4h5v1h-14.3V26z
			 M116.9,19.8h9.7v4.5h-1.1v-0.5H118v0.5h-1.1V19.8z M125.5,20.8H118v2.1h7.4V20.8z M119.2,17.6h5v1h-5V17.6z M122.9,13.2
			c0.2,0.6,0.5,1.2,0.7,1.7c1.1-0.6,2-1.2,2.8-1.7l0.7,0.9c-0.9,0.5-1.9,1.1-3,1.7c0.3,0.4,0.6,0.7,0.9,1.1c1-0.6,2-1.1,2.9-1.7
			l0.7,0.9c-0.8,0.5-1.7,1-2.7,1.6c0.9,0.7,2,1.2,3.3,1.5c-0.3,0.4-0.6,0.8-0.8,1.2c-3.1-1.1-5.3-3.3-6.5-6.7L122.9,13.2z"/>
		<path class="st5" d="M129.5,24.9c1.9-0.6,4-1.3,6.2-2.1c0.1,0.4,0.2,0.8,0.2,1.1c-1.9,0.7-3.9,1.4-6,2.1L129.5,24.9z M142,20.4
			l0.8,1c-0.8,0.5-1.9,1.2-3.1,1.9c1.1,0.9,2.6,1.5,4.3,1.9c-0.3,0.4-0.6,0.8-0.8,1.2c-2.7-0.8-4.6-2.2-5.9-4.1v3.2
			c0,1.2-0.6,1.8-1.8,1.8c-0.6,0-1.3,0-2.1,0c-0.1-0.4-0.1-0.8-0.2-1.3c0.7,0.1,1.3,0.1,1.9,0.1c0.7,0,1-0.3,1-0.9v-5.2h-6.6v-1
			h10.9v-1.6h-9.1v-0.9h9.1v-1.6h-9.4v-1h10.5v5h2.3v1h-6.6v0.3c0.4,0.9,0.9,1.7,1.6,2.3C140.1,21.8,141.1,21.1,142,20.4z
			 M131.5,20.3c0.9,0.6,1.9,1.2,2.9,1.8l-0.7,1c-0.9-0.7-1.8-1.3-2.8-2L131.5,20.3z"/>
	</g>
</g>
</svg>
