<?xml version="1.0" encoding="utf-8"?>
<!-- Generator: Adobe Illustrator 22.1.0, SVG Export Plug-In . SVG Version: 6.00 Build 0)  -->
<svg version="1.1" xmlns="http://www.w3.org/2000/svg" xmlns:xlink="http://www.w3.org/1999/xlink" x="0px" y="0px"
	 viewBox="0 0 104 41" style="enable-background:new 0 0 104 41;" xml:space="preserve">
<style type="text/css">
	.st0{fill:#FFFFFF;}
	.st1{fill:#8C8C8C;}
	.st2{fill:#F25022;}
	.st3{fill:#00A4EF;}
	.st4{fill:#7FBA00;}
	.st5{fill:#FFB900;}
	.st6{fill:#5E5E5E;stroke:#5E5E5E;stroke-width:0.25;stroke-miterlimit:10;}
</style>
<g id="Layer_1">
	<g id="Layer_1_1_">
		<title>MS-SymbolLockup</title>
		<rect class="st0" width="104" height="41"/>
		<path class="st1" d="M103,1v39H1V1H103 M104,0H0v41h104V0z"/>
		<rect x="13" y="11" class="st2" width="9" height="9"/>
		<rect x="13" y="21" class="st3" width="9" height="9"/>
		<rect x="23" y="11" class="st4" width="9" height="9"/>
		<rect x="23" y="21" class="st5" width="9" height="9"/>
	</g>
</g>
<g id="Layer_2">
	<g>
		<path class="st6" d="M45.9,15v-1h5.8v1c-1.3,2.2-3.4,4.1-6.1,5.7c-0.2-0.3-0.4-0.7-0.6-1c1-0.5,1.9-1,2.5-1.5
			c-0.6-0.6-1.2-1.3-1.9-1.9l0.7-0.7c0.7,0.7,1.4,1.3,2,1.9c0.8-0.7,1.5-1.5,2.1-2.5H45.9z M45.3,26h4.9c-0.4-0.3-0.9-0.8-1.5-1.4
			l0.7-0.7c0.6,0.5,1.2,1,1.8,1.6L50.5,26h3.5l-0.5-0.5c0.6-0.6,1.2-1.1,1.7-1.7l0.9,0.7c-0.5,0.5-1,0.9-1.5,1.4h5v1H45.3V26z
			 M47.5,19.8h9.7v4.5h-1.1v-0.5h-7.4v0.5h-1.1V19.8z M56.1,20.8h-7.4v2.1h7.4V20.8z M49.8,17.6h5v1h-5V17.6z M53.5,13.2
			c0.2,0.6,0.5,1.2,0.7,1.7c1.1-0.6,2-1.2,2.8-1.7l0.7,0.9c-0.9,0.5-1.9,1.1-3,1.7c0.3,0.4,0.6,0.7,0.9,1.1c1-0.6,2-1.1,2.9-1.7
			l0.7,0.9c-0.8,0.5-1.7,1-2.7,1.6c0.9,0.7,2,1.2,3.3,1.5c-0.3,0.4-0.6,0.8-0.8,1.2c-3.1-1.1-5.3-3.3-6.5-6.7L53.5,13.2z"/>
		<path class="st6" d="M60.1,24.9c1.9-0.6,4-1.3,6.2-2.1c0.1,0.4,0.2,0.8,0.2,1.1c-1.9,0.7-3.9,1.4-6,2.1L60.1,24.9z M72.7,20.4
			l0.8,1c-0.8,0.5-1.9,1.2-3.1,1.9c1.1,0.9,2.6,1.5,4.3,1.9c-0.3,0.4-0.6,0.8-0.8,1.2c-2.7-0.8-4.6-2.2-5.9-4.1v3.2
			c0,1.2-0.6,1.8-1.8,1.8c-0.6,0-1.3,0-2.1,0c-0.1-0.4-0.1-0.8-0.2-1.3c0.7,0.1,1.3,0.1,1.9,0.1c0.7,0,1-0.3,1-0.9v-5.2h-6.6v-1
			h10.9v-1.6h-9.1v-0.9h9.1v-1.6h-9.4v-1h10.5v5h2.3v1h-6.6v0.3c0.4,0.9,0.9,1.7,1.6,2.3C70.7,21.8,71.8,21.1,72.7,20.4z M62.2,20.3
			c0.9,0.6,1.9,1.2,2.9,1.8l-0.7,1c-0.9-0.7-1.8-1.3-2.8-2L62.2,20.3z"/>
	</g>
</g>
</svg>
