<?xml version="1.0" encoding="utf-8"?>
<!-- Generator: Adobe Illustrator 22.1.0, SVG Export Plug-In . SVG Version: 6.00 Build 0)  -->
<svg version="1.1" xmlns="http://www.w3.org/2000/svg" xmlns:xlink="http://www.w3.org/1999/xlink" x="0px" y="0px"
	 viewBox="0 0 104 41" style="enable-background:new 0 0 104 41;" xml:space="preserve">
<style type="text/css">
	.st0{fill:#2F2F2F;}
	.st1{fill:#F25022;}
	.st2{fill:#00A4EF;}
	.st3{fill:#7FBA00;}
	.st4{fill:#FFB900;}
	.st5{fill:#FFFFFF;}
</style>
<g id="Layer_1">
	<title>MS-SymbolLockup</title>
	<rect y="0" class="st0" width="104" height="41"/>
	<rect x="13" y="11" class="st1" width="9" height="9"/>
	<rect x="13" y="21" class="st2" width="9" height="9"/>
	<rect x="23" y="11" class="st3" width="9" height="9"/>
	<rect x="23" y="21" class="st4" width="9" height="9"/>
</g>
<g id="Layer_2">
	<g>
		<path class="st5" d="M58,14.4l1.2,1.3c-0.8,0.6-1.7,1.1-2.5,1.6c0.2,0.2,0.4,0.5,0.6,0.7c0.8-0.5,1.6-1.1,2.3-1.6l1.2,1.3
			c-0.7,0.5-1.4,1-2.2,1.5c0.7,0.5,1.5,0.9,2.3,1.2c-0.4,0.5-0.8,1.1-1.2,1.8c-0.4-0.2-0.8-0.4-1.1-0.6v4h-1.8l1,0.5l-0.6,0.8h3.5
			v1.7H46.4v-1.7h3.4c-0.2-0.4-0.4-0.7-0.6-0.9l1-0.4h-1.9v-3.9c-0.4,0.3-0.8,0.5-1.2,0.8c-0.3-0.6-0.6-1.2-1-1.8
			c0.8-0.3,1.5-0.7,2.1-1.1c-0.5-0.4-1-0.9-1.7-1.4l1.1-1.1c0.7,0.5,1.3,1,1.9,1.4c0.5-0.5,1-1,1.5-1.6h-4v-1.6h6.1v1.6
			c-0.4,0.7-0.9,1.4-1.5,2h3.8c-0.8-1-1.5-2.2-2-3.5l1.8-0.7c0.2,0.5,0.4,1,0.7,1.5C56.6,15.5,57.4,14.9,58,14.4z M48.8,21.2h9.3
			c-0.7-0.5-1.3-1-1.9-1.6v0.7h-5.6v-0.7C50.1,20.2,49.5,20.7,48.8,21.2z M56.7,23.9v-1.1h-6.4v1.1H56.7z M52.1,26.8h2.7
			c0.3-0.5,0.6-0.9,0.8-1.3h-4.4C51.6,25.9,51.8,26.3,52.1,26.8z"/>
		<path class="st5" d="M61.3,20.4h10.4v-1H63v-1.6h8.7v-1h-9.2v-1.7h11.2v5.3h2v1.7h-2.3l1.4,1.4c-0.9,0.6-1.7,1.1-2.5,1.7
			c1,0.6,2.1,1,3.5,1.4c-0.6,0.8-1,1.4-1.3,1.8c-2-0.7-3.6-1.8-4.9-3.4v1.6c0,1.5-0.6,2.2-1.8,2.3c-0.6,0-1.3,0.1-2.2,0.1
			c-0.1-0.7-0.3-1.4-0.4-1.9c0.7,0,1.2,0.1,1.6,0.1c0.6,0,0.9-0.3,0.9-0.9v-0.7c-2.2,1.1-4,2.1-5.3,2.9l-1-1.9
			c1.2-0.5,2.3-1,3.3-1.5c-0.8-0.8-1.5-1.4-2.2-1.9l0.8-1h-1.9V20.4z M67.5,23.5v-1.4h-3.6c0.6,0.4,1.2,0.9,1.9,1.5L64.7,25
			C65.7,24.5,66.6,24,67.5,23.5z M70.8,24.2c0.8-0.6,1.6-1.2,2.5-2h-3.7v0.6C69.9,23.3,70.3,23.7,70.8,24.2z"/>
	</g>
</g>
</svg>
