<svg id="Layer_1" data-name="Layer 1" xmlns="http://www.w3.org/2000/svg" xmlns:xlink="http://www.w3.org/1999/xlink" viewBox="0 0 137.47 195.04"><defs><style>.cls-1{fill:#fff;}.cls-2{fill:url(#linear-gradient);}.cls-3{fill:url(#linear-gradient-2);}.cls-4{fill:#b4ec36;}.cls-5{fill:#5ea0ef;}.cls-6{fill:url(#linear-gradient-3);}.cls-7{fill:#50e6ff;}.cls-8{fill:#c3f1ff;}.cls-9{fill:#9cebff;}.cls-10{fill:url(#linear-gradient-4);}.cls-11{fill:url(#linear-gradient-5);}.cls-12{fill:url(#linear-gradient-6);}.cls-13{fill:url(#linear-gradient-7);}.cls-14{fill:url(#linear-gradient-8);}.cls-15{fill:none;stroke:#3c3c41;stroke-miterlimit:10;}.cls-16,.cls-17,.cls-19{fill:#1e1e1e;}.cls-17,.cls-19{font-size:12.05px;}.cls-17{font-family:MicrosoftYaHei, Microsoft YaHei;}.cls-18{letter-spacing:-0.05em;}.cls-19{font-family:SegoeUI, Segoe UI;}</style><linearGradient id="linear-gradient" x1="69.14" y1="849.49" x2="69.14" y2="885.26" gradientTransform="translate(0 -852.79)" gradientUnits="userSpaceOnUse"><stop offset="0.18" stop-color="#5ea0ef"/><stop offset="1" stop-color="#0078d4"/></linearGradient><linearGradient id="linear-gradient-2" x1="69.14" y1="965.18" x2="69.14" y2="928.08" gradientTransform="translate(0 -852.79)" gradientUnits="userSpaceOnUse"><stop offset="0" stop-color="#5e9624"/><stop offset="0.02" stop-color="#5f9724"/><stop offset="1" stop-color="#76bc2d"/></linearGradient><linearGradient id="linear-gradient-3" x1="68.74" y1="1017.54" x2="68.74" y2="995.89" gradientTransform="translate(0 -852.79)" gradientUnits="userSpaceOnUse"><stop offset="0" stop-color="#0078d4"/><stop offset="0.82" stop-color="#5ea0ef"/></linearGradient><linearGradient id="linear-gradient-4" x1="68.74" y1="1025.89" x2="68.74" y2="1017.54" gradientTransform="translate(0 -852.79)" gradientUnits="userSpaceOnUse"><stop offset="0.15" stop-color="#ccc"/><stop offset="1" stop-color="#707070"/></linearGradient><linearGradient id="linear-gradient-5" x1="16.24" y1="1017.54" x2="16.24" y2="995.89" xlink:href="#linear-gradient-3"/><linearGradient id="linear-gradient-6" x1="16.24" y1="1025.89" x2="16.24" y2="1017.54" xlink:href="#linear-gradient-4"/><linearGradient id="linear-gradient-7" x1="121.24" y1="1017.54" x2="121.24" y2="995.89" xlink:href="#linear-gradient-3"/><linearGradient id="linear-gradient-8" x1="121.24" y1="1025.89" x2="121.24" y2="1017.54" xlink:href="#linear-gradient-4"/></defs><title>OJ104939023</title><g id="Shapes"><rect class="cls-1" width="137.47" height="195.04"/><path class="cls-2" d="M87,18.65a8.15,8.15,0,0,0-7-7.9A10.25,10.25,0,0,0,69.59.81a10.51,10.51,0,0,0-9.94,7,9.67,9.67,0,0,0-8.4,9.45A9.94,9.94,0,0,0,61.34,26.8H79A8.25,8.25,0,0,0,87,18.65Z"/><path class="cls-3" d="M53.47,92.34,68.38,77.43a1.07,1.07,0,0,1,1.51,0l0,0L84.82,92.34a1.07,1.07,0,0,1,0,1.51l0,0L69.89,108.8a1.06,1.06,0,0,1-1.49,0L53.47,93.87a1.06,1.06,0,0,1,0-1.51Z"/><path class="cls-4" d="M73.05,84.22l-3.76-3.75a.23.23,0,0,0-.29,0l-3.77,3.75a.17.17,0,0,0,0,.25.17.17,0,0,0,.19.07h2.2a.2.2,0,0,1,.2.19h0v3.56a.18.18,0,0,0,.19.19h2.35a.18.18,0,0,0,.19-.19h0V84.73a.2.2,0,0,1,.2-.19h2.2a.19.19,0,0,0,.22-.13.17.17,0,0,0-.08-.19Z"/><path class="cls-4" d="M60.26,88.86l-3.74,3.78a.2.2,0,0,0,0,.27l3.74,3.75a.19.19,0,0,0,.27,0,.17.17,0,0,0,.06-.15V94.33a.19.19,0,0,1,.2-.19h3.55a.18.18,0,0,0,.18-.18V91.6a.18.18,0,0,0-.06-.25l-.06,0H60.84a.18.18,0,0,1-.19-.16V89a.21.21,0,0,0-.13-.27.2.2,0,0,0-.26.13Z"/><path class="cls-4" d="M78.17,96.66,82,92.89a.19.19,0,0,0,0-.26l-3.79-3.77a.19.19,0,0,0-.27,0,.31.31,0,0,0-.05.12v2.22a.18.18,0,0,1-.17.18H74.1a.18.18,0,0,0-.18.18h0a0,0,0,0,0,0,0v2.34a.18.18,0,0,0,.15.2h3.58a.18.18,0,0,1,.19.19h0v2.21a.21.21,0,0,0,.22.17.19.19,0,0,0,.1,0Z"/><path class="cls-1" d="M74.1,93.11a5,5,0,1,0-6.29,4.74v1.69a3,3,0,1,0,4.1,1.31,3.07,3.07,0,0,0-1.31-1.31V97.76A4.91,4.91,0,0,0,74.1,93.11Z"/><circle id="e99c3387-15c3-4f28-bd4b-cb209b430e06" class="cls-5" cx="69.16" cy="93.09" r="2.88"/><rect class="cls-6" x="52.5" y="143.11" width="32.47" height="21.65" rx="1.08"/><polygon class="cls-7" points="74.15 150.77 74.15 157.07 68.74 160.24 68.74 153.93 74.15 150.77"/><polygon class="cls-8" points="74.15 150.77 68.74 153.95 63.32 150.77 68.74 147.62 74.15 150.77"/><polygon class="cls-9" points="68.74 153.95 68.74 160.24 63.32 157.07 63.32 150.77 68.74 153.95"/><polygon class="cls-8" points="63.32 157.07 68.74 153.93 68.74 160.24 63.32 157.07"/><polygon class="cls-9" points="74.15 157.07 68.74 153.93 68.74 160.24 74.15 157.07"/><path class="cls-10" d="M75.25,171.3c-3.21-.5-3.34-2.81-3.34-6.55H65.54c0,3.74-.11,6.05-3.32,6.55a1.8,1.8,0,0,0-1.6,1.81H76.85A1.79,1.79,0,0,0,75.25,171.3Z"/><rect class="cls-11" y="143.11" width="32.47" height="21.65" rx="1.08"/><polygon class="cls-7" points="21.65 150.77 21.65 157.07 16.24 160.24 16.24 153.93 21.65 150.77"/><polygon class="cls-8" points="21.65 150.77 16.24 153.95 10.82 150.77 16.24 147.62 21.65 150.77"/><polygon class="cls-9" points="16.24 153.95 16.24 160.24 10.82 157.07 10.82 150.77 16.24 153.95"/><polygon class="cls-8" points="10.82 157.07 16.24 153.93 16.24 160.24 10.82 157.07"/><polygon class="cls-9" points="21.65 157.07 16.24 153.93 16.24 160.24 21.65 157.07"/><path class="cls-12" d="M22.75,171.3c-3.21-.5-3.34-2.81-3.34-6.55H13c0,3.74-.11,6.05-3.32,6.55a1.8,1.8,0,0,0-1.6,1.81H24.35A1.79,1.79,0,0,0,22.75,171.3Z"/><rect class="cls-13" x="105" y="143.11" width="32.47" height="21.65" rx="1.08"/><polygon class="cls-7" points="126.65 150.77 126.65 157.07 121.24 160.24 121.24 153.93 126.65 150.77"/><polygon class="cls-8" points="126.65 150.77 121.24 153.95 115.82 150.77 121.24 147.62 126.65 150.77"/><polygon class="cls-9" points="121.24 153.95 121.24 160.24 115.82 157.07 115.82 150.77 121.24 153.95"/><polygon class="cls-8" points="115.82 157.07 121.24 153.93 121.24 160.24 115.82 157.07"/><polygon class="cls-9" points="126.65 157.07 121.24 153.93 121.24 160.24 126.65 157.07"/><path class="cls-14" d="M127.75,171.3c-3.21-.5-3.34-2.81-3.34-6.55H118c0,3.74-.11,6.05-3.32,6.55a1.8,1.8,0,0,0-1.6,1.81h16.23A1.79,1.79,0,0,0,127.75,171.3Z"/><line class="cls-15" x1="69.14" y1="30.11" x2="69.14" y2="42.61"/><line class="cls-15" x1="69.14" y1="60.11" x2="69.14" y2="72.61"/><line class="cls-15" x1="69.14" y1="133.49" x2="69.14" y2="140.61"/><line class="cls-15" x1="69.14" y1="113.8" x2="69.14" y2="122.46"/><path class="cls-15" d="M20.91,128.9l-2.45,1a4.6,4.6,0,0,0-2.44,4v6.69"/><line class="cls-15" x1="63.96" y1="111.11" x2="35.93" y2="122.69"/><path class="cls-15" d="M116.68,128.9l2.45,1a4.6,4.6,0,0,1,2.44,4v6.69"/><line class="cls-15" x1="73.63" y1="111.11" x2="101.66" y2="122.69"/><path class="cls-16" d="M22.32,129.76a2.18,2.18,0,0,1,.1-.67,2.6,2.6,0,0,1,.3-.63,2.47,2.47,0,0,1,.49-.53,2.41,2.41,0,0,1,.66-.38,2.51,2.51,0,0,1-.87-.78,1.94,1.94,0,0,1-.32-1.06,2,2,0,0,1,.67-1.54,2.5,2.5,0,0,1,.75-.45,2.76,2.76,0,0,1,1.88,0,2.21,2.21,0,0,1,.75.45,2.1,2.1,0,0,1,.5.68,2.26,2.26,0,0,1,.17.85,1.91,1.91,0,0,1-.32,1.06,2.48,2.48,0,0,1-.86.78,2.22,2.22,0,0,1,.65.38,2.47,2.47,0,0,1,.49.53,2.6,2.6,0,0,1,.3.63,2.22,2.22,0,0,1,.1.67,2.49,2.49,0,0,1-.19,1,2.19,2.19,0,0,1-.56.78,2.56,2.56,0,0,1-.87.51,3.14,3.14,0,0,1-1.1.18,3.21,3.21,0,0,1-1.1-.18,2.52,2.52,0,0,1-.86-.51,2.19,2.19,0,0,1-.56-.78A2.34,2.34,0,0,1,22.32,129.76Zm1-.08a2.16,2.16,0,0,0,.12.71,1.54,1.54,0,0,0,.34.54,1.42,1.42,0,0,0,.53.34,2.06,2.06,0,0,0,.7.12,2,2,0,0,0,.68-.12,1.58,1.58,0,0,0,.53-.35,1.3,1.3,0,0,0,.35-.54,1.85,1.85,0,0,0,.13-.7,1.88,1.88,0,0,0-.12-.66,1.7,1.7,0,0,0-.34-.54,1.68,1.68,0,0,0-.54-.37,1.63,1.63,0,0,0-.69-.13,1.69,1.69,0,0,0-.67.12,1.62,1.62,0,0,0-.54.35,1.73,1.73,0,0,0-.35.54A1.8,1.8,0,0,0,23.36,129.68Zm.3-3.9a1.39,1.39,0,0,0,.85,1.3,1.35,1.35,0,0,0,1.08,0,1.43,1.43,0,0,0,.44-.3,1.37,1.37,0,0,0,.3-.45,1.46,1.46,0,0,0,.11-.55,1.39,1.39,0,0,0-1.39-1.41,1.56,1.56,0,0,0-.57.11,1.63,1.63,0,0,0-.44.3,1.41,1.41,0,0,0-.28.45A1.52,1.52,0,0,0,23.66,125.78Z"/><path class="cls-16" d="M34.23,127.87a7.81,7.81,0,0,1-.19,1.87,4.19,4.19,0,0,1-.55,1.37,2.34,2.34,0,0,1-2.07,1.14,2.21,2.21,0,0,1-1.13-.28,2.33,2.33,0,0,1-.84-.81,4,4,0,0,1-.51-1.31,7.58,7.58,0,0,1-.18-1.78,9.05,9.05,0,0,1,.19-1.94,4.3,4.3,0,0,1,.54-1.42,2.45,2.45,0,0,1,.89-.86,2.54,2.54,0,0,1,1.21-.29Q34.23,123.56,34.23,127.87Zm-1,.09c0-2.39-.57-3.58-1.71-3.58s-1.79,1.21-1.79,3.65c0,2.27.58,3.4,1.76,3.4S33.25,130.28,33.25,128Z"/><path class="cls-16" d="M63.49,129.76a2.18,2.18,0,0,1,.1-.67,2.6,2.6,0,0,1,.3-.63,2.47,2.47,0,0,1,.49-.53,2.41,2.41,0,0,1,.66-.38,2.51,2.51,0,0,1-.87-.78,1.94,1.94,0,0,1-.32-1.06,2.11,2.11,0,0,1,.18-.86,1.94,1.94,0,0,1,.49-.68,2.5,2.5,0,0,1,.75-.45,2.76,2.76,0,0,1,1.88,0,2.21,2.21,0,0,1,.75.45,2.1,2.1,0,0,1,.5.68,2.26,2.26,0,0,1,.17.85,1.91,1.91,0,0,1-.32,1.06,2.48,2.48,0,0,1-.86.78,2.22,2.22,0,0,1,.65.38,2.47,2.47,0,0,1,.49.53,2.6,2.6,0,0,1,.3.63,2.22,2.22,0,0,1,.1.67,2.49,2.49,0,0,1-.19,1,2.19,2.19,0,0,1-.56.78,2.56,2.56,0,0,1-.87.51,3.14,3.14,0,0,1-1.1.18,3.21,3.21,0,0,1-1.1-.18,2.52,2.52,0,0,1-.86-.51,2.19,2.19,0,0,1-.56-.78A2.34,2.34,0,0,1,63.49,129.76Zm1-.08a2.16,2.16,0,0,0,.12.71,1.54,1.54,0,0,0,.34.54,1.42,1.42,0,0,0,.53.34,2.06,2.06,0,0,0,.7.12,2,2,0,0,0,.68-.12,1.58,1.58,0,0,0,.53-.35,1.3,1.3,0,0,0,.35-.54,1.85,1.85,0,0,0,.13-.7,1.88,1.88,0,0,0-.12-.66,1.7,1.7,0,0,0-.34-.54,1.68,1.68,0,0,0-.54-.37,1.63,1.63,0,0,0-.69-.13,1.69,1.69,0,0,0-.67.12,1.62,1.62,0,0,0-.54.35,1.73,1.73,0,0,0-.35.54A1.8,1.8,0,0,0,64.53,129.68Zm.3-3.9a1.39,1.39,0,0,0,.85,1.3,1.35,1.35,0,0,0,1.08,0,1.43,1.43,0,0,0,.44-.3,1.37,1.37,0,0,0,.3-.45,1.46,1.46,0,0,0,.11-.55,1.39,1.39,0,0,0-1.39-1.41,1.56,1.56,0,0,0-.57.11,1.63,1.63,0,0,0-.44.3,1.41,1.41,0,0,0-.28.45A1.52,1.52,0,0,0,64.83,125.78Z"/><path class="cls-16" d="M75.4,127.87a7.81,7.81,0,0,1-.19,1.87,4.19,4.19,0,0,1-.55,1.37,2.34,2.34,0,0,1-2.07,1.14,2.21,2.21,0,0,1-1.13-.28,2.33,2.33,0,0,1-.84-.81,4,4,0,0,1-.51-1.31,7.58,7.58,0,0,1-.18-1.78,9.05,9.05,0,0,1,.19-1.94,4.3,4.3,0,0,1,.54-1.42,2.45,2.45,0,0,1,.89-.86,2.54,2.54,0,0,1,1.21-.29Q75.4,123.56,75.4,127.87Zm-1,.09c0-2.39-.57-3.58-1.71-3.58s-1.79,1.21-1.79,3.65c0,2.27.58,3.4,1.76,3.4S74.42,130.28,74.42,128Z"/><path class="cls-16" d="M102.71,129.76a2.18,2.18,0,0,1,.1-.67,2.6,2.6,0,0,1,.3-.63,2.47,2.47,0,0,1,.49-.53,2.41,2.41,0,0,1,.66-.38,2.51,2.51,0,0,1-.87-.78,1.94,1.94,0,0,1-.32-1.06,2,2,0,0,1,.67-1.54,2.5,2.5,0,0,1,.75-.45,2.76,2.76,0,0,1,1.88,0,2.21,2.21,0,0,1,.75.45,2.1,2.1,0,0,1,.5.68,2.26,2.26,0,0,1,.17.85,1.91,1.91,0,0,1-.32,1.06,2.48,2.48,0,0,1-.86.78,2.22,2.22,0,0,1,.65.38,2.47,2.47,0,0,1,.49.53,2.6,2.6,0,0,1,.3.63,2.22,2.22,0,0,1,.1.67,2.34,2.34,0,0,1-.2,1,2,2,0,0,1-.56.78,2.42,2.42,0,0,1-.86.51,3.14,3.14,0,0,1-1.1.18,3.21,3.21,0,0,1-1.1-.18,2.52,2.52,0,0,1-.86-.51,2.19,2.19,0,0,1-.56-.78A2.34,2.34,0,0,1,102.71,129.76Zm1-.08a1.93,1.93,0,0,0,.12.71,1.54,1.54,0,0,0,.34.54,1.42,1.42,0,0,0,.53.34,2.06,2.06,0,0,0,.7.12,2,2,0,0,0,.68-.12,1.58,1.58,0,0,0,.53-.35,1.3,1.3,0,0,0,.35-.54,1.85,1.85,0,0,0,.13-.7A1.88,1.88,0,0,0,107,129a1.7,1.7,0,0,0-.34-.54,1.68,1.68,0,0,0-.54-.37,1.63,1.63,0,0,0-.69-.13,1.69,1.69,0,0,0-.67.12,1.62,1.62,0,0,0-.54.35,1.73,1.73,0,0,0-.35.54A1.8,1.8,0,0,0,103.75,129.68Zm.3-3.9a1.39,1.39,0,0,0,.85,1.3,1.35,1.35,0,0,0,1.08,0,1.43,1.43,0,0,0,.44-.3,1.37,1.37,0,0,0,.3-.45,1.46,1.46,0,0,0,.11-.55,1.39,1.39,0,0,0-1.39-1.41,1.56,1.56,0,0,0-.57.11,1.63,1.63,0,0,0-.44.3,1.41,1.41,0,0,0-.28.45A1.52,1.52,0,0,0,104.05,125.78Z"/><path class="cls-16" d="M114.62,127.87a7.81,7.81,0,0,1-.19,1.87,4.19,4.19,0,0,1-.55,1.37,2.34,2.34,0,0,1-2.07,1.14,2.21,2.21,0,0,1-1.13-.28,2.33,2.33,0,0,1-.84-.81,4,4,0,0,1-.51-1.31,7.58,7.58,0,0,1-.18-1.78,8.46,8.46,0,0,1,.19-1.94,4.3,4.3,0,0,1,.54-1.42,2.45,2.45,0,0,1,.89-.86,2.54,2.54,0,0,1,1.21-.29Q114.62,123.56,114.62,127.87Zm-1,.09c0-2.39-.57-3.58-1.71-3.58s-1.8,1.21-1.8,3.65c0,2.27.59,3.4,1.77,3.4S113.64,130.28,113.64,128Z"/></g><g id="txt"><text class="cls-17" transform="translate(35.56 55.11)"><tspan class="cls-18">T</tspan><tspan x="6.32" y="0">CP 端口 80</tspan></text><text class="cls-19" transform="translate(7.09 190.11)">VM</text><text class="cls-19" transform="translate(59.59 190.11)">VM</text><text class="cls-19" transform="translate(112.09 190.11)">VM</text></g></svg>