<svg xmlns="http://www.w3.org/2000/svg" xmlns:xlink="http://www.w3.org/1999/xlink" viewBox="0 0 240.5 395.47"><defs><style>.cls-1{fill:#fff;}.cls-2,.cls-3,.cls-9{fill:#3c3c41;}.cls-2{opacity:0.05;}.cls-2,.cls-9{isolation:isolate;}.cls-4{fill:url(#linear-gradient);}.cls-5{fill:url(#linear-gradient-2);}.cls-6{fill:url(#linear-gradient-3);}.cls-7{fill:#50e6ff;}.cls-8{fill:#1490df;}.cls-9{opacity:0.25;}.cls-10{fill:url(#linear-gradient-4);}.cls-11{fill:url(#linear-gradient-5);}.cls-12{fill:#b4ec36;}.cls-13{fill:#5ea0ef;}.cls-14{fill:url(#linear-gradient-6);}.cls-15{fill:#c3f1ff;}.cls-16{fill:#9cebff;}.cls-17{fill:url(#linear-gradient-7);}.cls-18{fill:url(#linear-gradient-8);}.cls-19{fill:url(#linear-gradient-9);}.cls-20{fill:url(#linear-gradient-10);}.cls-21{fill:url(#linear-gradient-11);}.cls-22{fill:none;stroke:#3c3c41;stroke-miterlimit:10;}.cls-23{fill:url(#linear-gradient-12);}.cls-24{fill:url(#linear-gradient-13);}.cls-25{fill:url(#linear-gradient-14);}.cls-26{fill:url(#linear-gradient-15);}.cls-27{fill:url(#linear-gradient-16);}.cls-28{fill:url(#linear-gradient-17);}.cls-29{fill:url(#linear-gradient-18);}.cls-30{fill:#1e1e1e;}</style><linearGradient id="linear-gradient" x1="21.67" y1="639.04" x2="24.04" y2="641.41" gradientTransform="translate(2.11 -270.55) rotate(-0.08)" gradientUnits="userSpaceOnUse"><stop offset="0" stop-color="#86d633"/><stop offset="0.24" stop-color="#83d232"/><stop offset="0.5" stop-color="#7cc52f"/><stop offset="0.76" stop-color="#6fb02a"/><stop offset="1" stop-color="#5e9624"/></linearGradient><linearGradient id="linear-gradient-2" x1="16.33" y1="639.04" x2="18.69" y2="641.41" xlink:href="#linear-gradient"/><linearGradient id="linear-gradient-3" x1="10.99" y1="639.04" x2="13.35" y2="641.4" xlink:href="#linear-gradient"/><linearGradient id="linear-gradient-4" x1="149.14" y1="265.29" x2="149.14" y2="301.06" gradientTransform="translate(0 -269.39)" gradientUnits="userSpaceOnUse"><stop offset="0.18" stop-color="#5ea0ef"/><stop offset="1" stop-color="#0078d4"/></linearGradient><linearGradient id="linear-gradient-5" x1="149.14" y1="380.98" x2="149.14" y2="343.89" gradientTransform="translate(0 -269.39)" gradientUnits="userSpaceOnUse"><stop offset="0" stop-color="#5e9624"/><stop offset="0.02" stop-color="#5f9724"/><stop offset="1" stop-color="#76bc2d"/></linearGradient><linearGradient id="linear-gradient-6" x1="148.74" y1="438.34" x2="148.74" y2="416.7" gradientTransform="translate(0 -269.39)" gradientUnits="userSpaceOnUse"><stop offset="0" stop-color="#0078d4"/><stop offset="0.82" stop-color="#5ea0ef"/></linearGradient><linearGradient id="linear-gradient-7" x1="148.74" y1="446.7" x2="148.74" y2="438.34" gradientTransform="translate(0 -269.39)" gradientUnits="userSpaceOnUse"><stop offset="0.15" stop-color="#ccc"/><stop offset="1" stop-color="#707070"/></linearGradient><linearGradient id="linear-gradient-8" x1="96.24" y1="438.34" x2="96.24" y2="416.7" xlink:href="#linear-gradient-6"/><linearGradient id="linear-gradient-9" x1="96.24" y1="446.7" x2="96.24" y2="438.34" xlink:href="#linear-gradient-7"/><linearGradient id="linear-gradient-10" x1="201.24" y1="438.34" x2="201.24" y2="416.7" xlink:href="#linear-gradient-6"/><linearGradient id="linear-gradient-11" x1="201.24" y1="446.7" x2="201.24" y2="438.34" xlink:href="#linear-gradient-7"/><linearGradient id="linear-gradient-12" x1="149.14" y1="533.3" x2="149.14" y2="496.2" xlink:href="#linear-gradient-5"/><linearGradient id="linear-gradient-13" x1="148.74" y1="588.34" x2="148.74" y2="566.7" xlink:href="#linear-gradient-6"/><linearGradient id="linear-gradient-14" x1="148.74" y1="596.7" x2="148.74" y2="588.34" xlink:href="#linear-gradient-7"/><linearGradient id="linear-gradient-15" x1="96.24" y1="588.34" x2="96.24" y2="566.7" xlink:href="#linear-gradient-6"/><linearGradient id="linear-gradient-16" x1="96.24" y1="596.7" x2="96.24" y2="588.34" xlink:href="#linear-gradient-7"/><linearGradient id="linear-gradient-17" x1="201.24" y1="588.34" x2="201.24" y2="566.7" xlink:href="#linear-gradient-6"/><linearGradient id="linear-gradient-18" x1="201.24" y1="596.7" x2="201.24" y2="588.34" xlink:href="#linear-gradient-7"/></defs><title>OJ104939016</title><g id="shapes"><rect class="cls-1" width="240.5" height="395.47"/><rect class="cls-1" x="0.5" y="64.8" width="240" height="305" rx="5"/><rect class="cls-2" x="0.5" y="64.8" width="240" height="305" rx="5"/><path class="cls-3" d="M234.34,370.3h-1v-1h1Zm-3,0h-1v-1h1Zm-3,0h-1v-1h1Zm-3,0h-1v-1h1Zm-3,0h-1v-1h1Zm-3,0h-1v-1h1Zm-3,0h-1v-1h1Zm-3,0h-1v-1h1Zm-3,0h-1v-1h1Zm-3,0h-1v-1h1Zm-3,0h-1v-1h1Zm-3,0h-1v-1h1Zm-3,0h-1v-1h1Zm-3,0h-1v-1h1Zm-3,0h-1v-1h1Zm-3,0h-1v-1h1Zm-3,0h-1v-1h1Zm-3,0h-1v-1h1Zm-3,0h-1v-1h1Zm-3,0h-1v-1h1Zm-3,0h-1v-1h1Zm-3,0h-1v-1h1Zm-3,0h-1v-1h1Zm-3,0h-1v-1h1Zm-3,0h-1v-1h1Zm-3,0h-1v-1h1Zm-3,0h-1v-1h1Zm-3,0h-1v-1h1Zm-3,0h-1v-1h1Zm-3,0h-1v-1h1Zm-3,0h-1v-1h1Zm-3,0h-1v-1h1Zm-3,0h-1v-1h1Zm-3,0h-1v-1h1Zm-3,0h-1v-1h1Zm-3,0h-1v-1h1Zm-3,0h-1v-1h1Zm-3,0h-1v-1h1Zm-3,0h-1v-1h1Zm-3,0h-1v-1h1Zm-3,0h-1v-1h1Zm-3,0h-1v-1h1Zm-3,0h-1v-1h1Zm-3,0h-1v-1h1Zm-3,0h-1v-1h1Zm-3,0h-1v-1h1Zm-3,0h-1v-1h1Zm-3,0h-1v-1h1Zm-3,0h-1v-1h1Zm-3,0h-1v-1h1Zm-3,0h-1v-1h1Zm-3,0h-1v-1h1Zm-3,0h-1v-1h1Zm-3,0h-1v-1h1Zm-3,0h-1v-1h1Zm-3,0h-1v-1h1Zm-3,0h-1v-1h1Zm-3,0h-1v-1h1Zm-3,0h-1v-1h1Zm-3,0h-1v-1h1Zm-3,0h-1v-1h1Zm-3,0h-1v-1h1Zm-3,0h-1v-1h1Zm-3,0h-1v-1h1Zm-3,0h-1v-1h1Zm-3,0h-1v-1h1Zm-3,0h-1v-1h1Zm-30,0H5.5a4,4,0,0,1-.49,0l.09-1h1Zm230.36-.07-.16-1a4.4,4.4,0,0,0,.86-.24l.36.93a5.37,5.37,0,0,1-1.06.3ZM2.91,369.65A6,6,0,0,1,2,369l.64-.77a4.26,4.26,0,0,0,.75.5Zm236.41-.9-.69-.72a4.82,4.82,0,0,0,.58-.69l.82.57a5.64,5.64,0,0,1-.71.84ZM.63,367.34a5.09,5.09,0,0,1-.42-1l1-.27a4.48,4.48,0,0,0,.33.83Zm240.26-1.44-1-.2a4.58,4.58,0,0,0,.09-.9l1-.05v.05A5.78,5.78,0,0,1,240.89,365.9ZM1,364.2H0v-1H1Zm240-1.46h-1v-1h1ZM1,361.2H0v-1H1Zm240-1.46h-1v-1h1ZM1,358.19H0v-1H1Zm240-1.45h-1v-1h1ZM1,355.19H0v-1H1Zm240-1.46h-1v-1h1ZM1,352.19H0v-1H1Zm240-1.46h-1v-1h1ZM1,349.18H0v-1H1Zm240-1.46h-1v-1h1ZM1,346.18H0v-1H1Zm240-1.46h-1v-1h1ZM1,343.17H0v-1H1Zm240-1.45h-1v-1h1ZM1,340.17H0v-1H1Zm240-1.46h-1v-1h1ZM1,337.17H0v-1H1Zm240-1.46h-1v-1h1ZM1,334.16H0v-1H1Zm240-1.46h-1v-1h1ZM1,331.16H0v-1H1Zm240-1.46h-1v-1h1ZM1,328.16H0v-1H1Zm240-1.46h-1v-1h1ZM1,325.15H0v-1H1Zm240-1.46h-1v-1h1ZM1,322.15H0v-1H1Zm240-1.46h-1v-1h1ZM1,319.14H0v-1H1Zm240-1.45h-1v-1h1ZM1,316.14H0v-1H1Zm240-1.46h-1v-1h1ZM1,313.14H0v-1H1Zm240-1.46h-1v-1h1ZM1,310.13H0v-1H1Zm240-1.46h-1v-1h1ZM1,307.13H0v-1H1Zm240-1.46h-1v-1h1ZM1,304.13H0v-1H1Zm240-1.46h-1v-1h1ZM1,301.12H0v-1H1Zm240-1.46h-1v-1h1ZM1,298.12H0v-1H1Zm240-1.46h-1v-1h1ZM1,295.11H0v-1H1Zm240-1.45h-1v-1h1ZM1,292.11H0v-1H1Zm240-1.46h-1v-1h1ZM1,289.11H0v-1H1Zm240-1.46h-1v-1h1ZM1,286.1H0v-1H1Zm240-1.46h-1v-1h1ZM1,283.1H0v-1H1Zm240-1.46h-1v-1h1ZM1,280.1H0v-1H1Zm240-1.46h-1v-1h1ZM1,277.09H0v-1H1Zm240-1.46h-1v-1h1ZM1,274.09H0v-1H1Zm240-1.46h-1v-1h1ZM1,271.08H0v-1H1Zm240-1.45h-1v-1h1ZM1,268.08H0v-1H1Zm240-1.46h-1v-1h1ZM1,265.08H0v-1H1Zm240-1.46h-1v-1h1ZM1,262.07H0v-1H1Zm240-1.45h-1v-1h1ZM1,259.07H0v-1H1Zm240-1.46h-1v-1h1ZM1,256.07H0v-1H1Zm240-1.46h-1v-1h1ZM1,253.06H0v-1H1Zm240-1.46h-1v-1h1ZM1,250.06H0v-1H1Zm240-1.46h-1v-1h1ZM1,247.05H0v-1H1Zm240-1.45h-1v-1h1ZM1,244.05H0v-1H1Zm240-1.46h-1v-1h1ZM1,241.05H0v-1H1Zm240-1.46h-1v-1h1ZM1,238H0v-1H1Zm240-1.46h-1v-1h1ZM1,235H0v-1H1Zm240-1.46h-1v-1h1ZM1,232H0v-1H1Zm240-1.46h-1v-1h1ZM1,229H0v-1H1Zm240-1.46h-1v-1h1ZM1,226H0v-1H1Zm240-1.46h-1v-1h1ZM1,223H0v-1H1Zm240-1.45h-1v-1h1ZM1,220H0v-1H1Zm240-1.46h-1v-1h1ZM1,217H0v-1H1Zm240-1.46h-1v-1h1ZM1,214H0v-1H1Zm240-1.45h-1v-1h1ZM1,211H0v-1H1Zm240-1.46h-1v-1h1ZM1,208H0v-1H1Zm240-1.46h-1v-1h1ZM1,205H0v-1H1Zm240-1.46h-1v-1h1ZM1,202H0v-1H1Zm240-1.46h-1v-1h1ZM1,199H0v-1H1Zm240-1.45h-1v-1h1ZM1,196H0v-1H1Zm240-1.46h-1v-1h1ZM1,193H0v-1H1Zm240-1.46h-1v-1h1ZM1,190H0v-1H1Zm240-1.46h-1v-1h1ZM1,187H0v-1H1Zm240-1.46h-1v-1h1ZM1,184H0v-1H1Zm240-1.46h-1v-1h1ZM1,181H0v-1H1Zm240-1.46h-1v-1h1ZM1,178H0v-1H1Zm240-1.46h-1v-1h1ZM1,175H0v-1H1Zm240-1.45h-1v-1h1ZM1,172H0v-1H1Zm240-1.46h-1v-1h1ZM1,169H0v-1H1Zm240-1.46h-1v-1h1ZM1,166H0v-1H1Zm240-1.45h-1v-1h1ZM1,163H0v-1H1Zm240-1.46h-1v-1h1ZM1,160H0v-1H1Zm240-1.46h-1v-1h1ZM1,156.94H0v-1H1Zm240-1.46h-1v-1h1ZM1,153.94H0v-1H1Zm240-1.46h-1v-1h1ZM1,150.93H0v-1H1Zm240-1.45h-1v-1h1ZM1,147.93H0v-1H1Zm240-1.46h-1v-1h1ZM1,144.93H0v-1H1Zm240-1.46h-1v-1h1ZM1,141.92H0v-1H1Zm240-1.46h-1v-1h1ZM1,138.92H0v-1H1Zm240-1.46h-1v-1h1ZM1,135.92H0v-1H1Zm240-1.46h-1v-1h1ZM1,132.91H0v-1H1Zm240-1.46h-1v-1h1ZM1,129.91H0v-1H1Zm240-1.46h-1v-1h1ZM1,126.9H0v-1H1Zm240-1.45h-1v-1h1ZM1,123.9H0v-1H1Zm240-1.46h-1v-1h1ZM1,120.9H0v-1H1Zm240-1.46h-1v-1h1ZM1,117.89H0v-1H1Zm240-1.46h-1v-1h1ZM1,114.89H0v-1H1Zm240-1.46h-1v-1h1ZM1,111.89H0v-1H1Zm240-1.46h-1v-1h1ZM1,108.88H0v-1H1Zm240-1.46h-1v-1h1ZM1,105.88H0v-1H1Zm240-1.46h-1v-1h1ZM1,102.87H0v-1H1Zm240-1.45h-1v-1h1ZM1,99.87H0v-1H1Zm240-1.46h-1v-1h1ZM1,96.87H0v-1H1Zm240-1.46h-1v-1h1ZM1,93.86H0v-1H1ZM241,92.4h-1v-1h1ZM1,90.86H0v-1H1ZM241,89.4h-1v-1h1ZM1,87.86H0v-1H1ZM241,86.4h-1v-1h1ZM1,84.85H0v-1H1Zm240-1.46h-1v-1h1ZM1,81.85H0v-1H1Zm240-1.46h-1v-1h1ZM1,78.84H0v-1H1Zm240-1.45h-1v-1h1ZM1,75.84H0v-1H1Zm240-1.46h-1v-1h1ZM1,72.84H0v-1H1Zm240-1.46h-1v-1h1ZM0,69.83v0a5.44,5.44,0,0,1,.1-1.06l1,.2A4.91,4.91,0,0,0,1,69.8Zm239.82-1.29a5.09,5.09,0,0,0-.34-.84l.88-.46a6,6,0,0,1,.42,1Zm-238-1.25L1,66.72a6.24,6.24,0,0,1,.7-.84l.7.71A5.45,5.45,0,0,0,1.78,67.29Zm236.56-1a4.26,4.26,0,0,0-.75-.5l.47-.88a5,5,0,0,1,.91.61ZM3.86,65.62l-.37-.93a4.84,4.84,0,0,1,1-.3l.18,1A4.06,4.06,0,0,0,3.86,65.62Zm232-.3-.37,0h-.59v-1h.59l.46,0Zm-3,0h-1v-1h1Zm-3,0h-1v-1h1Zm-3,0h-1v-1h1Zm-3,0h-1v-1h1Zm-3,0h-1v-1h1Zm-3,0h-1v-1h1Zm-3,0h-1v-1h1Zm-3,0h-1v-1h1Zm-3,0h-1v-1h1Zm-3,0h-1v-1h1Zm-3,0h-1v-1h1Zm-3,0h-1v-1h1Zm-3,0h-1v-1h1Zm-3,0h-1v-1h1Zm-3,0h-1v-1h1Zm-3,0h-1v-1h1Zm-3,0h-1v-1h1Zm-3,0h-1v-1h1Zm-3,0h-1v-1h1Zm-3,0h-1v-1h1Zm-3,0h-1v-1h1Zm-3,0h-1v-1h1Zm-3,0h-1v-1h1Zm-3,0h-1v-1h1Zm-3,0h-1v-1h1Zm-3,0h-1v-1h1Zm-3,0h-1v-1h1Zm-3,0h-1v-1h1Zm-3,0h-1v-1h1Zm-3,0h-1v-1h1Zm-3,0h-1v-1h1Zm-3,0h-1v-1h1Zm-3,0h-1v-1h1Zm-3,0h-1v-1h1Zm-3,0h-1v-1h1Zm-3,0h-1v-1h1Zm-3,0h-1v-1h1Zm-3,0h-1v-1h1Zm-3,0h-1v-1h1Zm-3,0h-1v-1h1Zm-3,0h-1v-1h1Zm-3,0h-1v-1h1Zm-3,0h-1v-1h1Zm-3,0h-1v-1h1Zm-3,0h-1v-1h1Zm-3,0h-1v-1h1Zm-3,0h-1v-1h1Zm-3,0h-1v-1h1Zm-3,0h-1v-1h1Zm-3,0h-1v-1h1Zm-3,0h-1v-1h1Zm-3,0h-1v-1h1Zm-3,0h-1v-1h1Zm-3,0h-1v-1h1Zm-3,0h-1v-1h1Zm-3,0h-1v-1h1Zm-3,0h-1v-1h1Zm-3,0h-1v-1h1Zm-3,0h-1v-1h1Zm-3,0h-1v-1h1Zm-3,0h-1v-1h1Zm-3,0h-1v-1h1Zm-3,0h-1v-1h1Zm-3,0h-1v-1h1Zm-3,0h-1v-1h1Zm-3,0h-1v-1h1Zm-3,0h-1v-1h1Zm-3,0h-1v-1h1Zm-3,0h-1v-1h1Zm-3,0h-1v-1h1Zm-3,0h-1v-1h1Zm-3,0h-1v-1h1Zm-3,0h-1v-1h1Zm-3,0h-1v-1h1Zm-3,0h-1v-1h1Zm-3,0h-1v-1h1Z"/><circle class="cls-4" cx="25.86" cy="369.64" r="1.67"/><circle class="cls-5" cx="20.52" cy="369.65" r="1.67"/><circle class="cls-6" cx="15.18" cy="369.65" r="1.67"/><path class="cls-7" d="M16.39,376.35l-1,1a.44.44,0,0,1-.62,0h0l-7.09-7.07a.87.87,0,0,1,0-1.23h0l.95-1h0l7.71,7.69a.43.43,0,0,1,0,.61Z"/><path class="cls-8" d="M15.29,362l1,1a.43.43,0,0,1,0,.61l-7.57,7.6h0l-1-1a.87.87,0,0,1,0-1.22h0l7-7A.43.43,0,0,1,15.29,362Z"/><path class="cls-7" d="M32.24,368l1,1a.86.86,0,0,1,0,1.22h0l-7.1,7.08a.43.43,0,0,1-.61,0h0l-1-1a.43.43,0,0,1,0-.61h0L32.24,368Z"/><path class="cls-8" d="M33.2,370.21l-1,1h0l-7.58-7.6a.43.43,0,0,1,0-.61h0l1-1a.44.44,0,0,1,.61,0h0l7,7a.86.86,0,0,1,0,1.22h0Z"/><rect class="cls-1" x="10" y="139.3" width="220" height="65"/><rect class="cls-9" x="10" y="139.3" width="220" height="65"/><path class="cls-10" d="M167,17.85a8.16,8.16,0,0,0-7-7.91A10.26,10.26,0,0,0,149.59,0a10.52,10.52,0,0,0-9.94,7,9.67,9.67,0,0,0-8.4,9.45A10,10,0,0,0,141.34,26H159A8.25,8.25,0,0,0,167,17.85Z"/><path class="cls-11" d="M133.47,91.54l14.91-14.91a1.05,1.05,0,0,1,1.51,0l0,0,14.91,14.91a1.07,1.07,0,0,1,0,1.51l0,0L149.89,108a1.08,1.08,0,0,1-1.49,0L133.47,93.07a1.06,1.06,0,0,1,0-1.51Z"/><path class="cls-12" d="M153.05,83.42l-3.76-3.75a.21.21,0,0,0-.29,0l-3.77,3.75a.18.18,0,0,0,0,.24.22.22,0,0,0,.2.08h2.2a.19.19,0,0,1,.2.19v3.56a.19.19,0,0,0,.19.19h2.35a.19.19,0,0,0,.19-.19V83.93a.19.19,0,0,1,.2-.19h2.2a.19.19,0,0,0,.22-.13.16.16,0,0,0-.08-.19Z"/><path class="cls-12" d="M140.26,88.06l-3.74,3.78a.2.2,0,0,0,0,.27l3.74,3.75a.19.19,0,0,0,.27,0,.18.18,0,0,0,.06-.15V93.53a.2.2,0,0,1,.2-.2h3.55a.17.17,0,0,0,.18-.17V90.79a.18.18,0,0,0-.06-.24l-.06,0h-3.56a.18.18,0,0,1-.19-.16V88.2a.21.21,0,0,0-.13-.27A.2.2,0,0,0,140.26,88.06Z"/><path class="cls-12" d="M158.17,95.86,162,92.09a.2.2,0,0,0,0-.27l-3.79-3.76a.19.19,0,0,0-.27,0,.22.22,0,0,0-.05.12v2.22a.18.18,0,0,1-.17.18H154.1a.18.18,0,0,0-.18.17h0v2.37a.19.19,0,0,0,.16.19h3.58a.19.19,0,0,1,.19.2h0v2.2a.19.19,0,0,0,.22.17A.18.18,0,0,0,158.17,95.86Z"/><path class="cls-1" d="M154.1,92.3a5,5,0,1,0-6.29,4.75v1.69a3.05,3.05,0,1,0,2.79,0V97A4.92,4.92,0,0,0,154.1,92.3Z"/><circle id="e99c3387-15c3-4f28-bd4b-cb209b430e06" class="cls-13" cx="149.16" cy="92.29" r="2.88"/><rect class="cls-14" x="132.5" y="147.3" width="32.47" height="21.65" rx="1.08"/><polygon class="cls-7" points="154.15 154.97 154.15 161.27 148.74 164.44 148.74 158.13 154.15 154.97"/><polygon class="cls-15" points="154.15 154.97 148.74 158.15 143.32 154.97 148.74 151.81 154.15 154.97"/><polygon class="cls-16" points="148.74 158.15 148.74 164.44 143.32 161.27 143.32 154.97 148.74 158.15"/><polygon class="cls-15" points="143.32 161.27 148.74 158.13 148.74 164.44 143.32 161.27"/><polygon class="cls-16" points="154.15 161.27 148.74 158.13 148.74 164.44 154.15 161.27"/><path class="cls-17" d="M155.25,175.5c-3.21-.51-3.34-2.81-3.34-6.55h-6.37c0,3.74-.11,6-3.32,6.55a1.8,1.8,0,0,0-1.6,1.8h16.23A1.79,1.79,0,0,0,155.25,175.5Z"/><rect class="cls-18" x="80" y="147.3" width="32.47" height="21.65" rx="1.08"/><polygon class="cls-7" points="101.65 154.97 101.65 161.27 96.24 164.44 96.24 158.13 101.65 154.97"/><polygon class="cls-15" points="101.65 154.97 96.24 158.15 90.82 154.97 96.24 151.81 101.65 154.97"/><polygon class="cls-16" points="96.24 158.15 96.24 164.44 90.82 161.27 90.82 154.97 96.24 158.15"/><polygon class="cls-15" points="90.82 161.27 96.24 158.13 96.24 164.44 90.82 161.27"/><polygon class="cls-16" points="101.65 161.27 96.24 158.13 96.24 164.44 101.65 161.27"/><path class="cls-19" d="M102.75,175.5c-3.21-.51-3.34-2.81-3.34-6.55H93c0,3.74-.11,6-3.32,6.55a1.8,1.8,0,0,0-1.6,1.8h16.23A1.79,1.79,0,0,0,102.75,175.5Z"/><rect class="cls-20" x="185" y="147.3" width="32.47" height="21.65" rx="1.08"/><polygon class="cls-7" points="206.65 154.97 206.65 161.27 201.24 164.44 201.24 158.13 206.65 154.97"/><polygon class="cls-15" points="206.65 154.97 201.24 158.15 195.82 154.97 201.24 151.81 206.65 154.97"/><polygon class="cls-16" points="201.24 158.15 201.24 164.44 195.82 161.27 195.82 154.97 201.24 158.15"/><polygon class="cls-15" points="195.82 161.27 201.24 158.13 201.24 164.44 195.82 161.27"/><polygon class="cls-16" points="206.65 161.27 201.24 158.13 201.24 164.44 206.65 161.27"/><path class="cls-21" d="M207.75,175.5c-3.21-.51-3.34-2.81-3.34-6.55H198c0,3.74-.11,6-3.32,6.55a1.8,1.8,0,0,0-1.6,1.8h16.23A1.79,1.79,0,0,0,207.75,175.5Z"/><line class="cls-22" x1="149.14" y1="29.3" x2="149.14" y2="41.8"/><line class="cls-22" x1="149.14" y1="59.3" x2="149.14" y2="73.3"/><path class="cls-23" d="M133.47,243.86l14.91-14.92a1.07,1.07,0,0,1,1.51,0l0,0,14.91,14.92a1.06,1.06,0,0,1,0,1.5l0,0-14.93,14.94a1.08,1.08,0,0,1-1.49,0l-14.93-14.94a1.05,1.05,0,0,1,0-1.5h0Z"/><path class="cls-12" d="M153.05,235.73,149.29,232a.23.23,0,0,0-.29,0l-3.77,3.75a.18.18,0,0,0,.15.32h2.2a.2.2,0,0,1,.2.2v3.55a.19.19,0,0,0,.19.2h2.35a.19.19,0,0,0,.19-.2v-3.55a.2.2,0,0,1,.2-.2h2.2a.18.18,0,0,0,.22-.13.17.17,0,0,0-.08-.19Z"/><path class="cls-12" d="M140.26,240.37l-3.74,3.79a.19.19,0,0,0,0,.26l3.74,3.76a.19.19,0,0,0,.27,0,.17.17,0,0,0,.06-.15v-2.18a.2.2,0,0,1,.2-.2h3.55a.18.18,0,0,0,.18-.18h0v-2.35a.17.17,0,0,0-.06-.24s0,0-.06,0h-3.56a.18.18,0,0,1-.19-.16v-2.17a.2.2,0,0,0-.13-.26.2.2,0,0,0-.26.12Z"/><path class="cls-12" d="M158.17,248.18l3.79-3.77a.2.2,0,0,0,0-.27l-3.79-3.77a.18.18,0,0,0-.27,0,.16.16,0,0,0-.05.11v2.23a.18.18,0,0,1-.17.17H154.1a.18.18,0,0,0-.18.18h0v2.37a.19.19,0,0,0,.16.19h3.58a.19.19,0,0,1,.19.2h0v2.2a.2.2,0,0,0,.22.17l.1,0Z"/><path class="cls-1" d="M154.1,244.62a5,5,0,1,0-6.29,4.75v1.68a3,3,0,1,0,2.79,0v-1.77A4.92,4.92,0,0,0,154.1,244.62Z"/><circle id="e99c3387-15c3-4f28-bd4b-cb209b430e06-2" class="cls-13" cx="149.16" cy="244.6" r="2.88"/><line class="cls-22" x1="149.14" y1="197.12" x2="149.14" y2="226.44"/><line class="cls-22" x1="149.14" y1="132.69" x2="149.14" y2="144.8"/><line class="cls-22" x1="149.14" y1="112.99" x2="149.14" y2="121.66"/><path class="cls-22" d="M100.91,128.09l-2.45,1a4.62,4.62,0,0,0-2.44,4V144.8"/><line class="cls-22" x1="143.96" y1="110.3" x2="115.93" y2="121.88"/><path class="cls-22" d="M144,228.79l-25.25-10.43-5.55-2.29-9.48-3.92L98.46,210A4.6,4.6,0,0,1,96,206v-8.86"/><path class="cls-22" d="M156,228.79l25.26-10.43,5.54-2.29,9.48-3.92L201.5,210a4.58,4.58,0,0,0,2.44-4v-8.86"/><path class="cls-22" d="M199.05,128.09l2.45,1a4.6,4.6,0,0,1,2.44,4V144.8"/><line class="cls-22" x1="156" y1="110.3" x2="184.03" y2="121.88"/><rect class="cls-1" x="10" y="289.3" width="220" height="65"/><rect class="cls-9" x="10" y="289.3" width="220" height="65"/><rect class="cls-24" x="132.5" y="297.3" width="32.47" height="21.65" rx="1.08"/><polygon class="cls-7" points="154.15 304.97 154.15 311.27 148.74 314.44 148.74 308.13 154.15 304.97"/><polygon class="cls-15" points="154.15 304.97 148.74 308.14 143.32 304.97 148.74 301.81 154.15 304.97"/><polygon class="cls-16" points="148.74 308.14 148.74 314.44 143.32 311.27 143.32 304.97 148.74 308.14"/><polygon class="cls-15" points="143.32 311.27 148.74 308.13 148.74 314.44 143.32 311.27"/><polygon class="cls-16" points="154.15 311.27 148.74 308.13 148.74 314.44 154.15 311.27"/><path class="cls-25" d="M155.25,325.5c-3.21-.51-3.34-2.81-3.34-6.55h-6.37c0,3.74-.11,6-3.32,6.55a1.8,1.8,0,0,0-1.6,1.8h16.23A1.79,1.79,0,0,0,155.25,325.5Z"/><rect class="cls-26" x="80" y="297.3" width="32.47" height="21.65" rx="1.08"/><polygon class="cls-7" points="101.65 304.97 101.65 311.27 96.24 314.44 96.24 308.13 101.65 304.97"/><polygon class="cls-15" points="101.65 304.97 96.24 308.14 90.82 304.97 96.24 301.81 101.65 304.97"/><polygon class="cls-16" points="96.24 308.14 96.24 314.44 90.82 311.27 90.82 304.97 96.24 308.14"/><polygon class="cls-15" points="90.82 311.27 96.24 308.13 96.24 314.44 90.82 311.27"/><polygon class="cls-16" points="101.65 311.27 96.24 308.13 96.24 314.44 101.65 311.27"/><path class="cls-27" d="M102.75,325.5c-3.21-.51-3.34-2.81-3.34-6.55H93c0,3.74-.11,6-3.32,6.55a1.8,1.8,0,0,0-1.6,1.8h16.23A1.79,1.79,0,0,0,102.75,325.5Z"/><rect class="cls-28" x="185" y="297.3" width="32.47" height="21.65" rx="1.08"/><polygon class="cls-7" points="206.65 304.97 206.65 311.27 201.24 314.44 201.24 308.13 206.65 304.97"/><polygon class="cls-15" points="206.65 304.97 201.24 308.14 195.82 304.97 201.24 301.81 206.65 304.97"/><polygon class="cls-16" points="201.24 308.14 201.24 314.44 195.82 311.27 195.82 304.97 201.24 308.14"/><polygon class="cls-15" points="195.82 311.27 201.24 308.13 201.24 314.44 195.82 311.27"/><polygon class="cls-16" points="206.65 311.27 201.24 308.13 201.24 314.44 206.65 311.27"/><path class="cls-29" d="M207.75,325.5c-3.21-.51-3.34-2.81-3.34-6.55H198c0,3.74-.11,6-3.32,6.55a1.8,1.8,0,0,0-1.6,1.8h16.23A1.79,1.79,0,0,0,207.75,325.5Z"/><line class="cls-22" x1="149.14" y1="284.6" x2="149.14" y2="296.71"/><line class="cls-22" x1="149.14" y1="262.1" x2="149.14" y2="272.71"/><path class="cls-22" d="M100.91,280l-2.45,1A4.6,4.6,0,0,0,96,285v11.69"/><line class="cls-22" x1="143.96" y1="262.21" x2="121.18" y2="271.62"/><path class="cls-22" d="M195.32,280l2.44,1a4.59,4.59,0,0,1,2.45,4v11.69"/><line class="cls-22" x1="152.27" y1="262.21" x2="175.04" y2="271.62"/></g><g id="text"><path class="cls-30" d="M9.82,384.35v2.8c0,2.5-.51,4.35-1.53,5.53q-.3-.36-.66-.75A7.18,7.18,0,0,0,8.9,387.3v-3.75h3.94v-2.42h.94V382h4.73v.78H13.78v.73h5.34l-.08,1.9-.89,0,.08-1.07Zm-.23,7.16h3v-3.44h.91v3.44H15V388h.91v3.47H19.2v.8H9.59Zm.53-6,2.57-.16v-.78h.86v.74l3.52-.21.05.76-3.57.2v.3c0,.35.24.53.71.53h2.35c.53,0,.84-.18.92-.55a8.32,8.32,0,0,0,.14-.83c.26.11.54.21.84.31q-.11.52-.21.87c-.16.65-.68,1-1.56,1H14.09c-.93,0-1.4-.41-1.4-1.23v-.31l-2.52.14Zm0,3.31.71-.44c.46.6.92,1.25,1.37,1.94l-.79.51Q10.76,389.69,10.13,388.79Zm6.14,1.44a14.79,14.79,0,0,0,1.41-2l.8.47c-.51.73-1,1.4-1.52,2Z"/><path class="cls-30" d="M19.74,387.41c.48-.12,1-.28,1.58-.46V384.3H19.87v-.78h1.45v-2.26h.9v2.26h1.37v.78H22.22v2.37l1.41-.47c0,.39,0,.69,0,.91-.46.14-.93.3-1.39.46v3.75c0,.79-.34,1.19-1,1.22-.38,0-.77,0-1.18,0,0-.28-.09-.61-.15-1a7.43,7.43,0,0,0,.95.07c.34,0,.5-.17.5-.52v-3.26l-1.45.51Zm7.05.21a5.22,5.22,0,0,0,.3.92q-1,.94-2.16,2a3.82,3.82,0,0,0-.53.67l-.61-.77a1.64,1.64,0,0,0,.36-1.08v-7.22H25v7.14C25.48,388.9,26.06,388.35,26.79,387.62ZM29,381.36h.89c0,1.35,0,2.52-.06,3.52a14.69,14.69,0,0,1-.61,4.31c.85.95,1.6,1.85,2.26,2.69l-.79.64c-.6-.84-1.23-1.66-1.88-2.48a8,8,0,0,1-2.86,2.74,5.74,5.74,0,0,0-.65-.74,6.78,6.78,0,0,0,3-3.12,12.34,12.34,0,0,0,.6-4.05C28.93,383.7,29,382.53,29,381.36Zm-3.36.13.77-.38c.58,1,1.09,2,1.51,2.88l-.82.46C26.54,383.29,26.05,382.3,25.61,381.49Z"/><path class="cls-30" d="M33.62,384.32l.69-.37c.46.74.93,1.5,1.39,2.26a24.69,24.69,0,0,0,1-2.43l.79.29a30.17,30.17,0,0,1-1.27,3c.45.77.89,1.55,1.33,2.35l-.8.43c-.32-.62-.65-1.24-1-1.87a25.56,25.56,0,0,1-1.55,2.56l-.7-.41v2.45H32.6V381.86h10v9.39q0,1.26-1.35,1.26l-1.79,0c0-.25-.09-.55-.16-.91.65.06,1.21.08,1.67.08s.75-.21.75-.64V382.7H33.48v7.37a28.89,28.89,0,0,0,1.77-3C34.73,386.19,34.19,385.25,33.62,384.32Zm3.9.56.68-.4c.39.63.79,1.3,1.21,2a25.79,25.79,0,0,0,1.15-2.64l.79.3a32.13,32.13,0,0,1-1.45,3.19c.5.84,1,1.74,1.53,2.68l-.78.45c-.39-.74-.8-1.49-1.22-2.25a26.48,26.48,0,0,1-1.55,2.47l-.71-.46c.67-1,1.26-1.93,1.78-2.87C38.49,386.54,38,385.71,37.52,384.88Z"/><path class="cls-30" d="M45.3,388.11q1.22-.11,2.31-.27c0,.36-.06.62-.08.8-1.38.17-2.47.32-3.26.43l-.19-.85A9.51,9.51,0,0,0,46,385.63l-1.82.14-.23-.77a19.49,19.49,0,0,0,1.91-3.79l.91.33a35.18,35.18,0,0,1-1.82,3.39l1.46,0c.29-.51.59-1.09.91-1.72l.87.37A52.23,52.23,0,0,1,45.3,388.11Zm-1.38,2.75q1.95-.37,4-.87c0,.37,0,.67,0,.89q-1.87.42-3.75.9Zm3.9-5.79a16.31,16.31,0,0,0,2.16-4l.88.3c-.16.35-.31.7-.48,1h4.19v.83a10.19,10.19,0,0,1-2.15,2.58,12.64,12.64,0,0,0,3,1.25,8.14,8.14,0,0,0-.47,1,12.24,12.24,0,0,1-3.31-1.69,15.7,15.7,0,0,1-3.5,1.83,9.22,9.22,0,0,0-.56-.82,14.68,14.68,0,0,0,3.33-1.62,6.6,6.6,0,0,1-1.39-1.8,20,20,0,0,1-1.12,1.7A8.5,8.5,0,0,0,47.82,385.07Zm.9,3.1h5.79v4.56h-.9v-.59h-4v.59h-.91Zm4.89.85h-4v2.28h4Zm-.11-5.81H50a7.09,7.09,0,0,0,1.63,2.07A8.06,8.06,0,0,0,53.5,383.21Z"/><path class="cls-30" d="M147.13,332.4,144,340.8h-1.08l-3.05-8.4H141l2.32,6.66a3.77,3.77,0,0,1,.17.75h0a3.38,3.38,0,0,1,.19-.76l2.37-6.65Z"/><path class="cls-30" d="M156.92,340.8h-1v-5.63c0-.45,0-1,.08-1.64h0a5.64,5.64,0,0,1-.25.82l-2.87,6.45h-.48l-2.87-6.41a4.44,4.44,0,0,1-.25-.86h0c0,.34.05.89.05,1.65v5.62h-1v-8.4h1.3l2.58,5.86a7.92,7.92,0,0,1,.39,1h0c.17-.46.31-.81.41-1l2.63-5.84h1.23Z"/><path class="cls-30" d="M94.46,332.4l-3.11,8.4H90.27l-3-8.4h1.1l2.32,6.66a3.77,3.77,0,0,1,.17.75h0a3.38,3.38,0,0,1,.19-.76l2.37-6.65Z"/><path class="cls-30" d="M104.25,340.8h-1v-5.63c0-.45,0-1,.08-1.64h0a5.64,5.64,0,0,1-.25.82l-2.87,6.45h-.48l-2.87-6.41a4.44,4.44,0,0,1-.25-.86h0c0,.34,0,.89,0,1.65v5.62h-.95v-8.4H97l2.58,5.86a7.92,7.92,0,0,1,.39,1h0c.17-.46.31-.81.41-1L103,332.4h1.23Z"/><path class="cls-30" d="M103.58,269.73v5.55h1.08v.88h-1.08v2h-1v-2H98.68v-.83c.37-.41.74-.86,1.11-1.33s.74-.95,1.08-1.43.66-1,.95-1.45a12.5,12.5,0,0,0,.73-1.39Zm-3.82,5.55h2.87v-4.11c-.29.51-.57,1-.83,1.37s-.51.77-.75,1.1-.46.62-.68.89Z"/><path class="cls-30" d="M110.06,269.73v5.55h1.08v.88h-1.08v2h-1v-2h-4v-.83c.37-.41.74-.86,1.11-1.33s.74-.95,1.08-1.43.66-1,1-1.45a12.5,12.5,0,0,0,.73-1.39Zm-3.81,5.55h2.86v-4.11c-.29.51-.57,1-.83,1.37s-.51.77-.75,1.1-.46.62-.68.89Z"/><path class="cls-30" d="M117.14,275.76a2.46,2.46,0,0,1-.21,1,2.25,2.25,0,0,1-.6.8,2.83,2.83,0,0,1-.94.51,3.78,3.78,0,0,1-1.2.18,3.53,3.53,0,0,1-1.91-.45v-1a3.06,3.06,0,0,0,2,.67,2.48,2.48,0,0,0,.79-.11,1.69,1.69,0,0,0,.61-.32,1.39,1.39,0,0,0,.39-.51,1.6,1.6,0,0,0,.14-.67q0-1.65-2.34-1.65h-.7v-.82h.66c1.38,0,2.07-.51,2.07-1.54s-.52-1.43-1.58-1.43a2.7,2.7,0,0,0-1.67.6v-.94a3.66,3.66,0,0,1,1.91-.48,2.93,2.93,0,0,1,1,.15,2.16,2.16,0,0,1,.73.41,1.93,1.93,0,0,1,.47.63,2,2,0,0,1,.17.82,2.06,2.06,0,0,1-1.68,2.13v0a2.78,2.78,0,0,1,.79.21,2,2,0,0,1,.63.42,1.73,1.73,0,0,1,.41.61A1.92,1.92,0,0,1,117.14,275.76Z"/><path class="cls-30" d="M144.53,274.79v5.55h1.08v.88h-1.08v2h-.95v-2h-4v-.83c.37-.42.74-.86,1.11-1.33s.74-.95,1.08-1.43.66-1,1-1.45a13.45,13.45,0,0,0,.73-1.39Zm-3.82,5.55h2.87v-4.11c-.29.51-.57,1-.83,1.37s-.51.77-.75,1.09-.46.63-.68.89Z"/><path class="cls-30" d="M151,274.79v5.55h1.08v.88H151v2h-.95v-2h-3.95v-.83c.37-.42.74-.86,1.11-1.33s.74-.95,1.08-1.43.66-1,.95-1.45a13.45,13.45,0,0,0,.73-1.39Zm-3.82,5.55h2.87v-4.11c-.29.51-.57,1-.83,1.37s-.51.77-.75,1.09-.46.63-.68.89Z"/><path class="cls-30" d="M158.09,280.82a2.5,2.5,0,0,1-.21,1,2.25,2.25,0,0,1-.6.8,2.83,2.83,0,0,1-.94.51,3.78,3.78,0,0,1-1.2.18,3.44,3.44,0,0,1-1.91-.46v-1a3,3,0,0,0,1.94.67,2.81,2.81,0,0,0,.8-.11,1.86,1.86,0,0,0,.61-.32,1.39,1.39,0,0,0,.39-.51,1.65,1.65,0,0,0,.14-.68c0-1.09-.78-1.64-2.35-1.64h-.69v-.82h.66c1.38,0,2.07-.51,2.07-1.54s-.52-1.43-1.58-1.43a2.75,2.75,0,0,0-1.67.59v-.93a3.66,3.66,0,0,1,1.91-.48,2.93,2.93,0,0,1,1,.15,2.16,2.16,0,0,1,.73.41,1.74,1.74,0,0,1,.47.63,2,2,0,0,1,.17.82,2.06,2.06,0,0,1-1.68,2.13v0a2.49,2.49,0,0,1,.79.21,2.17,2.17,0,0,1,.63.42,1.78,1.78,0,0,1,.41.6A2,2,0,0,1,158.09,280.82Z"/><path class="cls-30" d="M181.48,269.73v5.55h1.08v.88h-1.08v2h-.94v-2h-3.95v-.83c.36-.41.73-.86,1.11-1.33s.73-.95,1.07-1.43.66-1,.95-1.45a12.65,12.65,0,0,0,.74-1.39Zm-3.81,5.55h2.87v-4.11c-.3.51-.58,1-.84,1.37s-.51.77-.74,1.1l-.68.89C178.06,274.79,177.86,275,177.67,275.28Z"/><path class="cls-30" d="M188,269.73v5.55H189v.88H188v2H187v-2h-4v-.83c.36-.41.74-.86,1.11-1.33s.73-.95,1.08-1.43.65-1,1-1.45a12.5,12.5,0,0,0,.73-1.39Zm-3.82,5.55H187v-4.11c-.3.51-.57,1-.84,1.37s-.51.77-.74,1.1-.46.62-.68.89Z"/><path class="cls-30" d="M195.05,275.76a2.46,2.46,0,0,1-.21,1,2.4,2.4,0,0,1-.61.8,2.79,2.79,0,0,1-.93.51,3.87,3.87,0,0,1-1.2.18,3.53,3.53,0,0,1-1.91-.45v-1a3,3,0,0,0,1.94.67,2.54,2.54,0,0,0,.8-.11,1.78,1.78,0,0,0,.61-.32,1.39,1.39,0,0,0,.39-.51,1.6,1.6,0,0,0,.14-.67c0-1.1-.79-1.65-2.35-1.65H191v-.82h.67c1.38,0,2.07-.51,2.07-1.54s-.53-1.43-1.58-1.43a2.68,2.68,0,0,0-1.67.6v-.94a3.64,3.64,0,0,1,1.91-.48,2.83,2.83,0,0,1,1,.15,2.21,2.21,0,0,1,.74.41,1.93,1.93,0,0,1,.47.63,2,2,0,0,1,.17.82,2.06,2.06,0,0,1-1.68,2.13v0a3.27,3.27,0,0,1,.79.21,2.31,2.31,0,0,1,.63.42,2,2,0,0,1,.41.61A1.92,1.92,0,0,1,195.05,275.76Z"/><path class="cls-30" d="M143.52,129a2.27,2.27,0,0,1,.1-.67,2.31,2.31,0,0,1,.31-.63,2.65,2.65,0,0,1,.48-.53,2.41,2.41,0,0,1,.66-.38,2.52,2.52,0,0,1-.87-.78,1.89,1.89,0,0,1-.32-1.06,2,2,0,0,1,.68-1.54,2.16,2.16,0,0,1,.75-.44,2.56,2.56,0,0,1,.93-.16,2.67,2.67,0,0,1,.95.16,2.34,2.34,0,0,1,.75.45,2.08,2.08,0,0,1,.49.68,2,2,0,0,1,.17.85,1.81,1.81,0,0,1-.32,1.06,2.46,2.46,0,0,1-.85.78,2.22,2.22,0,0,1,.65.38,2.65,2.65,0,0,1,.48.53,2.6,2.6,0,0,1,.3.63,2.29,2.29,0,0,1,.11.67,2.53,2.53,0,0,1-.2,1,2.11,2.11,0,0,1-.56.78,2.55,2.55,0,0,1-.86.51,3.27,3.27,0,0,1-1.11.18,3.16,3.16,0,0,1-1.09-.18,2.55,2.55,0,0,1-.86-.51,2.13,2.13,0,0,1-.57-.78A2.53,2.53,0,0,1,143.52,129Zm1-.08a2,2,0,0,0,.12.71,1.66,1.66,0,0,0,.34.54,1.55,1.55,0,0,0,.53.34,2,2,0,0,0,.7.12,1.87,1.87,0,0,0,.68-.12,1.49,1.49,0,0,0,.53-.35,1.42,1.42,0,0,0,.36-.53,2,2,0,0,0,.12-.71,1.84,1.84,0,0,0-.12-.66,1.7,1.7,0,0,0-.34-.54,1.8,1.8,0,0,0-.53-.37,1.75,1.75,0,0,0-.7-.13,1.81,1.81,0,0,0-.67.12,1.65,1.65,0,0,0-.54.36,1.69,1.69,0,0,0-.48,1.22Zm.3-3.89a1.42,1.42,0,0,0,.11.55,1.37,1.37,0,0,0,.3.45,1.35,1.35,0,0,0,.44.29,1.38,1.38,0,0,0,1.08,0,1.23,1.23,0,0,0,.44-.3,1.37,1.37,0,0,0,.3-.45,1.24,1.24,0,0,0,.11-.54,1.52,1.52,0,0,0-.1-.57,1.55,1.55,0,0,0-.3-.44,1.32,1.32,0,0,0-.44-.3,1.46,1.46,0,0,0-.55-.11,1.44,1.44,0,0,0-1,.42,1.28,1.28,0,0,0-.28.45A1.42,1.42,0,0,0,144.86,125Z"/><path class="cls-30" d="M155.45,127.08a8.62,8.62,0,0,1-.19,1.87,4.57,4.57,0,0,1-.55,1.38,2.46,2.46,0,0,1-.89.84,2.54,2.54,0,0,1-2.32,0,2.38,2.38,0,0,1-.83-.81,4.22,4.22,0,0,1-.52-1.31,8,8,0,0,1-.17-1.78,9.38,9.38,0,0,1,.18-2,4.32,4.32,0,0,1,.54-1.41,2.36,2.36,0,0,1,2.11-1.15Q155.45,122.78,155.45,127.08Zm-1,.1c0-2.39-.56-3.59-1.7-3.59s-1.8,1.22-1.8,3.65c0,2.27.59,3.4,1.76,3.4S154.46,129.49,154.46,127.18Z"/><path class="cls-30" d="M184.11,129a2.29,2.29,0,0,1,.11-.67,2.6,2.6,0,0,1,.3-.63,2.43,2.43,0,0,1,.49-.53,2.15,2.15,0,0,1,.66-.38,2.36,2.36,0,0,1-.87-.78,1.81,1.81,0,0,1-.32-1.06,2.07,2.07,0,0,1,.18-.86,2.19,2.19,0,0,1,.49-.68,2.16,2.16,0,0,1,.75-.44,2.84,2.84,0,0,1,1.88,0,2.34,2.34,0,0,1,.75.45,1.94,1.94,0,0,1,.49.68,2,2,0,0,1,.18.85,1.89,1.89,0,0,1-.32,1.06,2.49,2.49,0,0,1-.86.78,2.22,2.22,0,0,1,.65.38,2.71,2.71,0,0,1,.49.53,2.6,2.6,0,0,1,.3.63,2.27,2.27,0,0,1,.1.67,2.37,2.37,0,0,1-.2,1,2.11,2.11,0,0,1-.56.78,2.46,2.46,0,0,1-.86.51,3.21,3.21,0,0,1-1.1.18,3.25,3.25,0,0,1-1.1-.18,2.55,2.55,0,0,1-.86-.51,2.11,2.11,0,0,1-.56-.78A2.37,2.37,0,0,1,184.11,129Zm1-.08a2,2,0,0,0,.12.71,1.5,1.5,0,0,0,.34.54,1.38,1.38,0,0,0,.53.34,1.92,1.92,0,0,0,.69.12,1.83,1.83,0,0,0,.68-.12,1.53,1.53,0,0,0,.54-.35,1.4,1.4,0,0,0,.35-.53,1.94,1.94,0,0,0,0-1.37,1.9,1.9,0,0,0-.34-.54,1.73,1.73,0,0,0-.54-.37,1.75,1.75,0,0,0-.7-.13,1.85,1.85,0,0,0-.67.12,1.61,1.61,0,0,0-.53.36,1.58,1.58,0,0,0-.35.53A1.73,1.73,0,0,0,185.16,128.89Zm.3-3.89a1.42,1.42,0,0,0,.1.55,1.77,1.77,0,0,0,.3.45,1.51,1.51,0,0,0,.45.29,1.17,1.17,0,0,0,.53.11,1.26,1.26,0,0,0,.55-.11,1.32,1.32,0,0,0,.44-.3,1.77,1.77,0,0,0,.3-.45,1.41,1.41,0,0,0,.11-.54,1.52,1.52,0,0,0-.11-.57,1.43,1.43,0,0,0-.74-.74,1.42,1.42,0,0,0-.55-.11,1.31,1.31,0,0,0-.56.12,1.23,1.23,0,0,0-.44.3,1.15,1.15,0,0,0-.28.45A1.42,1.42,0,0,0,185.46,125Z"/><path class="cls-30" d="M196,127.08a8,8,0,0,1-.19,1.87,4.33,4.33,0,0,1-.55,1.38,2.43,2.43,0,0,1-.88.84,2.36,2.36,0,0,1-1.19.29,2.3,2.3,0,0,1-1.13-.27,2.49,2.49,0,0,1-.84-.81,4.22,4.22,0,0,1-.51-1.31,7.93,7.93,0,0,1-.18-1.78,8.71,8.71,0,0,1,.19-2,4.32,4.32,0,0,1,.54-1.41,2.36,2.36,0,0,1,2.1-1.15Q196,122.78,196,127.08Zm-1,.1c0-2.39-.57-3.59-1.71-3.59s-1.79,1.22-1.79,3.65c0,2.27.58,3.4,1.76,3.4S195.06,129.49,195.06,127.18Z"/><path class="cls-30" d="M103.82,129a2.29,2.29,0,0,1,.11-.67,2.6,2.6,0,0,1,.3-.63,2.43,2.43,0,0,1,.49-.53,2.22,2.22,0,0,1,.65-.38,2.4,2.4,0,0,1-.86-.78,1.81,1.81,0,0,1-.32-1.06,2.06,2.06,0,0,1,.17-.86,2.22,2.22,0,0,1,.5-.68,2.16,2.16,0,0,1,.75-.44,2.84,2.84,0,0,1,1.88,0,2.34,2.34,0,0,1,.75.45,2.08,2.08,0,0,1,.49.68,2,2,0,0,1,.18.85,1.89,1.89,0,0,1-.32,1.06,2.49,2.49,0,0,1-.86.78,2.22,2.22,0,0,1,.65.38,2.55,2.55,0,0,1,.79,1.16,2.27,2.27,0,0,1,.1.67,2.53,2.53,0,0,1-.2,1,2.11,2.11,0,0,1-.56.78,2.55,2.55,0,0,1-.86.51,3.45,3.45,0,0,1-2.2,0,2.55,2.55,0,0,1-.86-.51A2.25,2.25,0,0,1,104,130,2.53,2.53,0,0,1,103.82,129Zm1-.08a2,2,0,0,0,.12.71,1.66,1.66,0,0,0,.34.54,1.5,1.5,0,0,0,.54.34,1.92,1.92,0,0,0,.69.12,1.87,1.87,0,0,0,.68-.12,1.53,1.53,0,0,0,.54-.35,1.4,1.4,0,0,0,.35-.53,2,2,0,0,0,.13-.71,1.84,1.84,0,0,0-.12-.66,1.73,1.73,0,0,0-.35-.54,1.68,1.68,0,0,0-.53-.37,1.75,1.75,0,0,0-.7-.13,1.85,1.85,0,0,0-.67.12,1.61,1.61,0,0,0-.53.36,1.77,1.77,0,0,0-.36.53A1.93,1.93,0,0,0,104.86,128.89Zm.3-3.89a1.42,1.42,0,0,0,.11.55,1.37,1.37,0,0,0,.3.45,1.6,1.6,0,0,0,.44.29,1.38,1.38,0,0,0,1.08,0,1.37,1.37,0,0,0,.45-.3,1.77,1.77,0,0,0,.3-.45A1.41,1.41,0,0,0,108,125a1.52,1.52,0,0,0-.11-.57,1.43,1.43,0,0,0-.74-.74,1.42,1.42,0,0,0-.55-.11,1.31,1.31,0,0,0-.56.12,1.23,1.23,0,0,0-.44.3,1.17,1.17,0,0,0-.29.45A1.63,1.63,0,0,0,105.16,125Z"/><path class="cls-30" d="M115.75,127.08a8,8,0,0,1-.19,1.87,4.57,4.57,0,0,1-.55,1.38,2.43,2.43,0,0,1-.88.84,2.37,2.37,0,0,1-1.2.29,2.29,2.29,0,0,1-1.12-.27,2.49,2.49,0,0,1-.84-.81,4,4,0,0,1-.51-1.31,7.93,7.93,0,0,1-.18-1.78,9.38,9.38,0,0,1,.18-2,4.56,4.56,0,0,1,.55-1.41,2.34,2.34,0,0,1,.88-.86,2.45,2.45,0,0,1,1.22-.29Q115.75,122.78,115.75,127.08Zm-1,.1c0-2.39-.57-3.59-1.71-3.59s-1.8,1.22-1.8,3.65c0,2.27.59,3.4,1.77,3.4S114.77,129.49,114.77,127.18Z"/><path class="cls-30" d="M199.46,332.4l-3.11,8.4h-1.08l-3.05-8.4h1.1l2.32,6.66a3.77,3.77,0,0,1,.17.75h0a3.38,3.38,0,0,1,.19-.76l2.37-6.65Z"/><path class="cls-30" d="M209.25,340.8h-1v-5.63c0-.45,0-1,.08-1.64h0a5.64,5.64,0,0,1-.25.82l-2.87,6.45h-.48l-2.87-6.41a4.44,4.44,0,0,1-.25-.86h0c0,.34,0,.89,0,1.65v5.62h-.95v-8.4H202l2.58,5.86a7.92,7.92,0,0,1,.39,1h0c.17-.46.31-.81.41-1L208,332.4h1.23Z"/><path class="cls-30" d="M147.13,182.4,144,190.8h-1.08l-3.05-8.4H141l2.32,6.66a3.77,3.77,0,0,1,.17.75h0a3.38,3.38,0,0,1,.19-.76l2.37-6.65Z"/><path class="cls-30" d="M156.92,190.8h-1v-5.63c0-.45,0-1,.08-1.64h0a5.64,5.64,0,0,1-.25.82l-2.87,6.45h-.48l-2.87-6.41a4.44,4.44,0,0,1-.25-.86h0c0,.34.05.89.05,1.65v5.62h-1v-8.4h1.3l2.58,5.86a7.92,7.92,0,0,1,.39,1h0c.17-.46.31-.81.41-1l2.63-5.84h1.23Z"/><path class="cls-30" d="M94.46,182.4l-3.11,8.4H90.27l-3-8.4h1.1l2.32,6.66a3.77,3.77,0,0,1,.17.75h0a3.38,3.38,0,0,1,.19-.76l2.37-6.65Z"/><path class="cls-30" d="M104.25,190.8h-1v-5.63c0-.45,0-1,.08-1.64h0a5.64,5.64,0,0,1-.25.82l-2.87,6.45h-.48l-2.87-6.41a4.44,4.44,0,0,1-.25-.86h0c0,.34,0,.89,0,1.65v5.62h-.95v-8.4H97l2.58,5.86a7.92,7.92,0,0,1,.39,1h0c.17-.46.31-.81.41-1L103,182.4h1.23Z"/><path class="cls-30" d="M199.46,182.4l-3.11,8.4h-1.08l-3.05-8.4h1.1l2.32,6.66a3.77,3.77,0,0,1,.17.75h0a3.38,3.38,0,0,1,.19-.76l2.37-6.65Z"/><path class="cls-30" d="M209.25,190.8h-1v-5.63c0-.45,0-1,.08-1.64h0a5.64,5.64,0,0,1-.25.82l-2.87,6.45h-.48l-2.87-6.41a4.44,4.44,0,0,1-.25-.86h0c0,.34,0,.89,0,1.65v5.62h-.95v-8.4H202l2.58,5.86a7.92,7.92,0,0,1,.39,1h0c.17-.46.31-.81.41-1L208,182.4h1.23Z"/><path class="cls-30" d="M27.31,319h3.77v-9.68h1V319h2v-9.68h1V319h3.79v.86H27.31Zm1.36-7.39c.64,1.51,1.27,3.11,1.87,4.81l-1,.43c-.53-1.65-1.11-3.27-1.76-4.86Zm6.85,4.91a47.35,47.35,0,0,0,2-4.8l.95.37q-1.09,2.81-2.08,4.82Z"/><path class="cls-30" d="M42.67,309l.88.37c-.18.29-.36.57-.55.84h6.33V311a9.45,9.45,0,0,1-3,2.31,16.72,16.72,0,0,0,4.7.89c-.25.35-.47.68-.66,1a17.74,17.74,0,0,1-5.12-1.36,25.61,25.61,0,0,1-5.63,1.56c-.13-.24-.29-.51-.48-.82a24.31,24.31,0,0,0,5.1-1.28,7.27,7.27,0,0,1-2.14-1.92,15.83,15.83,0,0,1-2,2c-.23-.25-.45-.47-.64-.64A11.71,11.71,0,0,0,42.67,309Zm-2.46,6.86h3.41c.05-.38.1-.8.14-1.26h1c-.05.46-.11.88-.16,1.26h4.73c-.08,1.4-.16,2.38-.23,2.94a1.74,1.74,0,0,1-2,1.67c-.46,0-1.15,0-2.07-.05,0-.29-.1-.61-.18-1,.9.08,1.65.12,2.23.13a1,1,0,0,0,1.1-1c.07-.59.12-1.21.16-1.88H44.41C44,318.59,42.54,320,40,320.8l-.57-.78q3.36-1.09,4-3.31H40.21ZM48.08,311H42.85a7.48,7.48,0,0,0,2.42,1.86A10.4,10.4,0,0,0,48.08,311Z"/><path class="cls-30" d="M51.85,320.71c-.22-.3-.44-.58-.64-.82A10,10,0,0,0,52.66,314v-4.33H62.3v3.69h-.89V313H53.55v1.27A11.31,11.31,0,0,1,51.85,320.71Zm1.7-10.18v1.61h7.86v-1.61Zm5.62,7.54.63-.55a37.56,37.56,0,0,1,2.75,2.59l-.72.65-.72-.79c-2.38,0-4.33.08-5.83.19a6.32,6.32,0,0,0-.84.15l-.39-.86a3.92,3.92,0,0,0,1.09-.6,15.58,15.58,0,0,0,1.43-1.67H53.69v-.82h9.22v.82H57.77a27.64,27.64,0,0,1-1.84,2.07q2.2,0,4.41-.06C60,318.8,59.57,318.43,59.17,318.07Zm-4.64-3.83h7.33v.82H54.53Z"/><path class="cls-30" d="M33.33,327.64h5.45v-1.29l3.37-2.45H34.56V323H43.7v.92l-3.92,2.87v.83h5.13v.88H39.78v3.69c0,1.05-.55,1.57-1.64,1.57l-1.85,0c0-.31-.08-.67-.14-1.07a17,17,0,0,0,1.8.12.74.74,0,0,0,.83-.84v-3.45H33.33Z"/><path class="cls-30" d="M47.13,325.5l.69-.37c.46.74.93,1.5,1.39,2.27a25.77,25.77,0,0,0,1-2.44l.8.29a31.45,31.45,0,0,1-1.28,3c.45.76.9,1.54,1.34,2.34l-.8.43c-.32-.62-.66-1.24-1-1.87a25.56,25.56,0,0,1-1.55,2.56l-.7-.41v2.45h-.88V323h10v9.39q0,1.26-1.35,1.26l-1.79,0c0-.25-.09-.56-.16-.92.65.06,1.21.08,1.67.08s.75-.21.75-.64v-8.31H47v7.37a28.89,28.89,0,0,0,1.77-3C48.24,327.37,47.7,326.43,47.13,325.5Zm3.9.56.68-.4c.39.63.79,1.3,1.21,2A22.87,22.87,0,0,0,54.06,325l.8.3a32.13,32.13,0,0,1-1.45,3.19c.5.84,1,1.74,1.53,2.68l-.78.45c-.39-.74-.8-1.49-1.22-2.25a28.74,28.74,0,0,1-1.55,2.47l-.71-.45c.67-1,1.26-1.93,1.78-2.88C52,327.72,51.52,326.9,51,326.06Z"/><path class="cls-30" d="M122.33,46.27h-2.62v8h-1.18v-8h-2.6v-1h6.4Z"/><path class="cls-30" d="M129.37,53.93a5.41,5.41,0,0,1-2.52.53,4.07,4.07,0,0,1-3.11-1.24,4.59,4.59,0,0,1-1.17-3.28,4.84,4.84,0,0,1,1.31-3.53,4.5,4.5,0,0,1,3.34-1.34,5.57,5.57,0,0,1,2.15.37v1.23a4.33,4.33,0,0,0-2.14-.54,3.25,3.25,0,0,0-2.47,1,3.79,3.79,0,0,0-1,2.73,3.64,3.64,0,0,0,.89,2.58,3,3,0,0,0,2.33,1,4.4,4.4,0,0,0,2.35-.61Z"/><path class="cls-30" d="M132.37,50.91V54.3H131.2V45.23h2.57a3.34,3.34,0,0,1,2.29.71,2.53,2.53,0,0,1,.81,2,2.75,2.75,0,0,1-1,2.17,3.31,3.31,0,0,1-2.37.78Zm0-4.65v3.62h1.08a2.42,2.42,0,0,0,1.63-.48,1.76,1.76,0,0,0,.56-1.39c0-1.17-.69-1.75-2.08-1.75Z"/><path class="cls-30" d="M144.85,48.34c-.14,1.16-.42,2.78-.83,4.87.4-.09.78-.17,1.12-.26a7.5,7.5,0,0,0,0,.83c-.89.22-2.17.5-3.87.85l-.18-.88,2.15-.38c.38-2.35.64-4.08.77-5.18Zm-3.62-1.67h4v.76h-4Zm.16,1.84.79-.18c.26,1.12.52,2.49.78,4.12l-.81.21A40.69,40.69,0,0,0,141.39,48.51Zm.8-3.75.72-.42a11.94,11.94,0,0,1,1.18,1.75l-.77.47A14.65,14.65,0,0,0,142.19,44.76Zm3,4h7.58v.76h-3.51l-.32,1.28h3.28V54.7c0,.67-.29,1-.89,1h-.85a5,5,0,0,0-.24-.87,7.32,7.32,0,0,0,.81,0c.24,0,.35-.12.35-.36v-3h-1.2v3.68h-.79V51.53h-1.16v3.61h-.78V51.53h-1.18v4.28h-.82v-5h2.62l.27-1.28h-3.17Zm5.9-.77v-.36h-5.3V45h.82v1.91h1.82V44.27h.84v2.64h1.82V45h.82v3Z"/><path class="cls-30" d="M154.29,45.52h9.3v9.87h-1V54.25H155.3v1.14h-1Zm8.3,7.85v-7H155.3v7Z"/><path class="cls-30" d="M169.1,51.77a2.51,2.51,0,0,1,.47-1.45,2.6,2.6,0,0,1,1.21-.94,2.67,2.67,0,0,1-.94-.85,2,2,0,0,1-.35-1.13,2.11,2.11,0,0,1,.34-1.18,2.2,2.2,0,0,1,.92-.84,2.79,2.79,0,0,1,1.29-.31,2.84,2.84,0,0,1,1.31.31,2.31,2.31,0,0,1,.92.83,2.22,2.22,0,0,1,.33,1.19,2,2,0,0,1-.34,1.12,2.66,2.66,0,0,1-.93.86,2.59,2.59,0,0,1,1.2.95,2.44,2.44,0,0,1,.46,1.44,2.6,2.6,0,0,1-.37,1.39,2.43,2.43,0,0,1-1.05,1,3.31,3.31,0,0,1-1.53.34,3.23,3.23,0,0,1-1.51-.34,2.57,2.57,0,0,1-1.05-1A2.6,2.6,0,0,1,169.1,51.77Zm1.13-.05a1.71,1.71,0,0,0,.49,1.29,2,2,0,0,0,2.65,0,1.72,1.72,0,0,0,.51-1.29,1.68,1.68,0,0,0-.52-1.26,1.75,1.75,0,0,0-1.31-.52,1.83,1.83,0,0,0-1.31.5A1.73,1.73,0,0,0,170.23,51.72Zm.32-4.23a1.5,1.5,0,0,0,1.5,1.48,1.47,1.47,0,0,0,1.06-.44,1.45,1.45,0,0,0,0-2.08,1.57,1.57,0,0,0-2.15,0A1.43,1.43,0,0,0,170.55,47.49Z"/><path class="cls-30" d="M176.1,49.94a6.74,6.74,0,0,1,.8-3.63,2.59,2.59,0,0,1,2.31-1.24c1.92,0,2.88,1.56,2.88,4.66a6.33,6.33,0,0,1-.81,3.51A2.59,2.59,0,0,1,179,54.46a2.43,2.43,0,0,1-2.14-1.16A6.19,6.19,0,0,1,176.1,49.94Zm1.18,0c0,2.41.61,3.62,1.83,3.62s1.81-1.23,1.81-3.68-.59-3.8-1.77-3.8S177.28,47.32,177.28,49.89Z"/><path class="cls-30" d="M33.62,158.59l-2.55,9.07H29.71l-1.83-6.53a4.73,4.73,0,0,1-.15-.94h0a4.53,4.53,0,0,1-.16.92l-1.85,6.55H24.35l-2.63-9.07H23l1.85,6.85a4.29,4.29,0,0,1,.15.94h0a5.34,5.34,0,0,1,.2-.94l2-6.85h1.16l1.87,6.91a6,6,0,0,1,.15.86h0a4.42,4.42,0,0,1,.17-.89l1.78-6.88Z"/><path class="cls-30" d="M39.78,164.72H35.24a2.33,2.33,0,0,0,.57,1.6,2,2,0,0,0,1.5.57,3.23,3.23,0,0,0,2-.7v1a3.78,3.78,0,0,1-2.26.61,2.8,2.8,0,0,1-2.2-.89,3.65,3.65,0,0,1-.79-2.48,3.51,3.51,0,0,1,.87-2.45,2.73,2.73,0,0,1,2.14-1,2.49,2.49,0,0,1,2,.82,3.34,3.34,0,0,1,.72,2.29Zm-1.15-.92a2.1,2.1,0,0,0-.42-1.36,1.43,1.43,0,0,0-1.15-.48,1.6,1.6,0,0,0-1.19.51,2.41,2.41,0,0,0-.63,1.33Z"/><path class="cls-30" d="M42.47,166.75v.91H41.32v-9.59h1.15v4.23h0A2.46,2.46,0,0,1,44.72,161a2.39,2.39,0,0,1,1.93.86,3.53,3.53,0,0,1,.72,2.35,4,4,0,0,1-.81,2.61,2.65,2.65,0,0,1-2.14,1,2.13,2.13,0,0,1-1.93-1.07Zm0-1.75a1.89,1.89,0,0,0,.51,1.33,1.79,1.79,0,0,0,2.71-.17,3.22,3.22,0,0,0,.51-1.94,2.55,2.55,0,0,0-.48-1.63A1.57,1.57,0,0,0,44.4,162a1.79,1.79,0,0,0-1.39.6,2.2,2.2,0,0,0-.55,1.54Z"/><path class="cls-30" d="M52.27,169.25c-.23-.3-.44-.58-.65-.82a10,10,0,0,0,1.46-5.85v-4.33h9.63v3.69h-.89v-.43H54v1.26A11.39,11.39,0,0,1,52.27,169.25ZM54,159.07v1.62h7.85v-1.62Zm5.61,7.55.63-.56c1.16,1,2.08,1.87,2.76,2.59l-.73.65-.72-.79q-3.57,0-5.83.19a6,6,0,0,0-.83.15l-.4-.86a3.77,3.77,0,0,0,1.09-.6A15.23,15.23,0,0,0,57,165.73H54.11v-.83h9.21v.83H58.19c-.66.8-1.28,1.49-1.84,2.06l4.41-.06C60.37,167.35,60,167,59.58,166.62Zm-4.64-3.84h7.34v.82H54.94Z"/><path class="cls-30" d="M30.77,176.18h5.45v-1.29l3.37-2.45H32v-.87h9.14v.91l-3.92,2.87v.83h5.13v.88H37.22v3.69c0,1.05-.55,1.57-1.64,1.57-.36,0-1,0-1.85,0,0-.31-.08-.67-.14-1.07a17,17,0,0,0,1.8.12.74.74,0,0,0,.83-.84v-3.45H30.77Z"/><path class="cls-30" d="M44.57,174l.69-.36c.46.73.93,1.49,1.39,2.26a25.89,25.89,0,0,0,1-2.44l.79.29a29.08,29.08,0,0,1-1.28,3c.45.76.9,1.55,1.34,2.35l-.8.42c-.32-.62-.65-1.24-1-1.87a25.56,25.56,0,0,1-1.55,2.56l-.7-.4v2.44h-.88V171.58h10V181c0,.83-.45,1.25-1.35,1.25l-1.79,0c0-.25-.09-.56-.16-.92.65.06,1.21.08,1.67.08s.75-.21.75-.64v-8.31H44.43v7.37a28.89,28.89,0,0,0,1.77-3C45.68,175.91,45.14,175,44.57,174Zm3.9.56.68-.4,1.21,2a22.87,22.87,0,0,0,1.14-2.64l.8.3a32.13,32.13,0,0,1-1.45,3.19c.5.85,1,1.74,1.53,2.69l-.78.44c-.39-.74-.8-1.49-1.22-2.25a28.74,28.74,0,0,1-1.55,2.47l-.71-.45c.67-1,1.26-1.93,1.78-2.87C49.44,176.27,49,175.44,48.47,174.6Z"/><path class="cls-30" d="M69.64,233.87H74v-2h1v2h4.3v7.73a1.3,1.3,0,0,1-1.46,1.48l-1.9,0a6.92,6.92,0,0,0-.18-1c.75.07,1.36.1,1.86.11s.73-.23.73-.74v-6.64H74.9a9.27,9.27,0,0,1-.26,1.89q2.07,1.66,3.35,2.93l-.71.77a38.06,38.06,0,0,0-2.92-2.85,6.94,6.94,0,0,1-3,3,8.67,8.67,0,0,0-.66-.85,6.24,6.24,0,0,0,2.61-2.23,5.62,5.62,0,0,0,.66-2.66H70.59v8.42h-1Z"/><path class="cls-30" d="M80.69,236.42h3.75c.46-.8.84-1.54,1.14-2.2l.86.44c-.34.6-.7,1.18-1.08,1.76h2v.79H80.69Zm.26-3.09h2.93a12.32,12.32,0,0,0-.69-1.29l.8-.38a10.22,10.22,0,0,1,.75,1.4l-.57.27h3v.78H81Zm.58,5.09H86.6v4.77h-.87v-.86H82.4v.88h-.87Zm.2-3.7.72-.43c.39.55.74,1.11,1.06,1.66l-.79.46A16.75,16.75,0,0,0,81.73,234.72Zm4,4.49H82.4v2.31h3.33Zm6.51.16c0,1.35-.52,2.07-1.58,2.18a7.34,7.34,0,0,1-1.59,0c0-.29-.09-.63-.15-1a8.59,8.59,0,0,0,1.46.15c.69,0,1-.48.94-1.42a3.69,3.69,0,0,0-1.8-2.57c.51-1,1-2.13,1.55-3.36H88.68v10h-.89V232.4H92v1c-.31.79-.78,1.81-1.42,3.07A3.7,3.7,0,0,1,92.24,239.37Z"/><path class="cls-30" d="M94.27,235.42h4.29c.38-.38.87-.92,1.46-1.61H95.88a16,16,0,0,1-2.55,2.26,7.37,7.37,0,0,0-.69-.7,16.37,16.37,0,0,0,3.75-3.66l1,.35c-.24.32-.48.63-.73.91h4.67v.79c-.51.58-1,1.13-1.54,1.66H103v5.09H102v-4.25H95.21v4.32h-.94Zm-1.45,7.05a12,12,0,0,0,4.43-1.55,2.46,2.46,0,0,0,.88-2.21v-1.89h1v1.67a7.35,7.35,0,0,1-.11,1.35,53.09,53.09,0,0,1,5,2.65l-.62.87a53.05,53.05,0,0,0-4.7-2.65q-.87,1.74-5.34,2.67C93.19,243.08,93,242.78,92.82,242.47Z"/><path class="cls-30" d="M109.88,242.49a12,12,0,0,0,2.5-2.29,17.67,17.67,0,0,1-.76-4.55h-6.91v-.79h2.92v-1.09h-2.44V233h2.44v-1.19h.87V233h2.31v.74H108.5v1.09h3.07c0-.93-.09-2-.13-3.08h.9c0,1.1,0,2.12.09,3.08h3.9v.79h-3.85a17,17,0,0,0,.55,3.68,16,16,0,0,0,1.56-2.8l.81.37a18.82,18.82,0,0,1-2,3.43,6.11,6.11,0,0,0,.86,1.45.82.82,0,0,0,.56.35c.21,0,.35-.16.42-.47a15,15,0,0,0,.27-1.6,5.1,5.1,0,0,0,.85.32c-.11.66-.22,1.25-.34,1.77-.2.7-.55,1-1,1a2.1,2.1,0,0,1-1.63-1.09,5.84,5.84,0,0,1-.57-1,12.65,12.65,0,0,1-2.17,2A2.91,2.91,0,0,0,109.88,242.49ZM106.37,239H108v-1.08h.83V239H111v.74H108.8v1.09l2.26-.19c0,.25,0,.51,0,.76l-2.23.17v1.72H108V241.6c-.92.08-1.89.17-2.91.28l-.18-.84c.93,0,2-.12,3.09-.2v-1.15h-2.58v-.76a13.62,13.62,0,0,0,.93-1.37H105v-.74h1.76c.19-.35.38-.72.56-1.1l.87.27c-.16.29-.31.57-.47.83h3.4v.74h-3.84C107,238.09,106.65,238.55,106.37,239Zm6.76-6.32.57-.57a22.65,22.65,0,0,1,1.92,1.58l-.66.68A20.21,20.21,0,0,0,113.13,232.63Z"/><path class="cls-30" d="M116.64,240.91l1.74-.64v-4.66h-1.57v-.83h1.57v-2.93h.86v2.93h1.53v.83h-1.53v4.33l1.63-.67c0,.39,0,.71.06,1-1.26.48-2.58,1-4,1.57Zm4.06-4.45a20.75,20.75,0,0,0,2-4.73l.94.28c-.19.54-.38,1.05-.58,1.55h4.65q-.17,6.18-.25,7.59a1.77,1.77,0,0,1-2,1.87c-.77,0-1.46,0-2.06-.05,0-.31-.11-.64-.19-1h0a18.84,18.84,0,0,0,2.15.13,1,1,0,0,0,1.16-1.1c.08-1.33.16-3.53.23-6.58h-4.08a23.69,23.69,0,0,1-1.24,2.47C121.26,236.74,121,236.6,120.7,236.46Zm.5,3.65q2.35-.93,4.89-2c0,.37.08.68.13.94q-2.18.91-4.66,2Zm1.17-3.85.65-.58c.68.63,1.33,1.25,2,1.88l-.77.66C123.62,237.54,123,236.88,122.37,236.26Z"/><path class="cls-30" d="M104.56,248.13a11.41,11.41,0,0,0,2.31-3.23l.75.48A16.75,16.75,0,0,1,105,249,7.53,7.53,0,0,0,104.56,248.13Zm0,3.67a14.53,14.53,0,0,0,2.28-3.75l.72.42c-.3.6-.59,1.15-.88,1.65v6.36h-.79v-5a13.4,13.4,0,0,1-1,1.3C104.84,252.43,104.71,252.12,104.57,251.8Zm2.64-4a13.81,13.81,0,0,0,2-2.74l.72.29-.3.49h2.44v.63l-.68,1h1.26v4.64H112v-.3h-3.28v.37H108v-4l-.19.21A7.13,7.13,0,0,0,107.21,247.82Zm.35,4.93h2.3a5.86,5.86,0,0,0,0-.75h.8q0,.41,0,.75h2.15v.75h-2.29a.84.84,0,0,1,0,.17l2.06,1.26-.49.71c-.54-.38-1.18-.81-1.91-1.3a6.25,6.25,0,0,1-2.43,1.8l-.48-.73a4.46,4.46,0,0,0,2.45-1.91h-2.12Zm3.5-6.14h-1.91c-.2.28-.42.57-.65.87h2Zm-2.39,2.71H110v-1.11h-1.3Zm0,1.76H110V250h-1.3Zm3.28-2.87h-1.3v1.11H112Zm-1.3,2.87H112V250h-1.3Zm2.3-1.82h3.34v.85h-1.22v5c0,.85-.4,1.29-1.21,1.3h-1.23c0-.18-.09-.47-.17-.86.44,0,.83.07,1.17.07s.64-.21.64-.61v-4.88H113Zm.32-3.43H116v.85h-2.69Z"/><path class="cls-30" d="M117.05,249.87h4.74a3.47,3.47,0,0,0,.23-1l.85.11a5.79,5.79,0,0,1-.21.91h2.55c-.31-.23-.64-.45-1-.67l.49-.53c.51.31,1,.61,1.39.91l-.26.29H128v.77H123.5q1.35,1.32,4.8,1.25c-.18.32-.34.62-.48.91l-.6-.06v3.58h-.82v-.64h-2.5v.63h-.82v-3.62h3.73c-2.24-.3-3.66-1-4.28-2.05h-.22q-.65,1.4-4.25,2.05h3.75v3.62H121v-.63h-2.47v.64h-.82v-3.56l-.65.12c-.11-.24-.27-.51-.45-.83q3.91-.51,4.69-1.41h-4.24Zm.64-4.27h4.11V249H121v-.36h-2.47v.48h-.82Zm3.29.73h-2.47v1.59H121Zm0,7.09h-2.47V255H121Zm2.07-7.82h4.15v3.46h-.82v-.41h-2.51V249h-.82Zm3.33.73h-2.51v1.59h2.51Zm0,7.09h-2.5V255h2.5Z"/><path class="cls-30" d="M68.58,84.91a13.51,13.51,0,0,0,3.91-5l.92.39a15.76,15.76,0,0,1-4.08,5.39A4.43,4.43,0,0,0,68.58,84.91Zm7.63,1.46c1.13,1.46,2.08,2.78,2.85,4l-.89.59c-.22-.36-.45-.74-.7-1.12-2.58.12-4.67.25-6.29.38a7.15,7.15,0,0,0-1.07.2l-.52-1a3,3,0,0,0,1-.64,24.68,24.68,0,0,0,3-4.68l1,.46a45.47,45.47,0,0,1-3.11,4.66c1.62,0,3.44-.12,5.48-.22q-.66-1-1.47-2.13Zm-1-6.31.87-.34a9.26,9.26,0,0,0,4.23,4.85,7.82,7.82,0,0,0-.72.92A11.14,11.14,0,0,1,75.2,80.06Z"/><path class="cls-30" d="M84.61,87.37l.73.75a45.26,45.26,0,0,1-4,2.63c-.18-.25-.38-.52-.62-.81A27.13,27.13,0,0,0,84.61,87.37Zm-3.92-1.49h3V82.65H81.16v-.89h2.55V79.51h1v2.25h3.55V79.5h1v2.26h2.56v.89H89.19v3.23h3v.9H80.69Zm4,0h3.55V82.65H84.67Zm2.8,2.3.6-.74c1.35.8,2.64,1.62,3.88,2.48l-.68.85Q89.43,89.38,87.47,88.18Z"/><path class="cls-30" d="M94.27,83.06h4.29c.38-.38.87-.92,1.46-1.62H95.88a16.11,16.11,0,0,1-2.55,2.27,7.33,7.33,0,0,0-.69-.71,16.55,16.55,0,0,0,3.75-3.65l1,.35c-.24.32-.48.62-.73.91h4.67v.79c-.51.57-1,1.13-1.54,1.66H103v5.09H102V83.89H95.21v4.33h-.94Zm-1.45,7a11.81,11.81,0,0,0,4.43-1.54,2.48,2.48,0,0,0,.88-2.22V84.46h1v1.67A7.51,7.51,0,0,1,99,87.48a53.09,53.09,0,0,1,5,2.65l-.62.86a52.82,52.82,0,0,0-4.7-2.64q-.87,1.73-5.34,2.67C93.19,90.72,93,90.42,92.82,90.1Z"/><path class="cls-30" d="M109.88,90.13a12.31,12.31,0,0,0,2.5-2.29,17.75,17.75,0,0,1-.76-4.56h-6.91V82.5h2.92V81.41h-2.44v-.74h2.44v-1.2h.87v1.2h2.31v.74H108.5V82.5h3.07c0-.93-.09-2-.13-3.08h.9c0,1.09,0,2.12.09,3.08h3.9v.78h-3.85A17.16,17.16,0,0,0,113,87a16.07,16.07,0,0,0,1.56-2.81l.81.38a18.72,18.72,0,0,1-2,3.42,5.73,5.73,0,0,0,.86,1.45.79.79,0,0,0,.56.35c.21,0,.35-.15.42-.47a15.19,15.19,0,0,0,.27-1.59,6.18,6.18,0,0,0,.85.32c-.11.66-.22,1.25-.34,1.77-.2.69-.55,1-1,1a2.1,2.1,0,0,1-1.63-1.09,5.84,5.84,0,0,1-.57-1,12.65,12.65,0,0,1-2.17,2A2.91,2.91,0,0,0,109.88,90.13Zm-3.51-3.54H108V85.51h.83v1.08H111v.74H108.8v1.09l2.26-.19c0,.25,0,.5,0,.76-.7.05-1.45.1-2.23.17v1.72H108V89.24c-.92.07-1.89.17-2.91.28l-.18-.85c.93,0,2-.11,3.09-.2V87.33h-2.58v-.77a12.57,12.57,0,0,0,.93-1.37H105v-.73h1.76c.19-.35.38-.72.56-1.11l.87.27c-.16.3-.31.57-.47.84h3.4v.73h-3.84C107,85.72,106.65,86.19,106.37,86.59Zm6.76-6.32.57-.57a22.65,22.65,0,0,1,1.92,1.58L115,82A20.21,20.21,0,0,0,113.13,80.27Z"/><path class="cls-30" d="M116.64,88.54l1.74-.63V83.25h-1.57v-.83h1.57V79.49h.86v2.93h1.53v.83h-1.53v4.32c.57-.22,1.11-.44,1.63-.67,0,.39,0,.72.06,1-1.26.47-2.58,1-4,1.57Zm4.06-4.45a20.67,20.67,0,0,0,2-4.72l.94.28c-.19.54-.38,1-.58,1.55h4.65c-.11,4.11-.19,6.65-.25,7.59a1.76,1.76,0,0,1-2,1.86c-.77,0-1.46,0-2.06,0,0-.32-.11-.65-.19-1h0a18.84,18.84,0,0,0,2.15.13,1,1,0,0,0,1.16-1.1c.08-1.34.16-3.53.23-6.59h-4.08a22.92,22.92,0,0,1-1.24,2.48C121.26,84.38,121,84.23,120.7,84.09Zm.5,3.66c1.57-.63,3.2-1.3,4.89-2,0,.37.08.68.13.94q-2.18.91-4.66,2Zm1.17-3.86.65-.57c.68.62,1.33,1.25,2,1.87l-.77.67C123.62,85.17,123,84.52,122.37,83.89Z"/><path class="cls-30" d="M104.56,95.77a11.61,11.61,0,0,0,2.31-3.24l.75.48a16.27,16.27,0,0,1-2.63,3.6A8.34,8.34,0,0,0,104.56,95.77Zm0,3.67a14.53,14.53,0,0,0,2.28-3.75l.72.42c-.3.6-.59,1.15-.88,1.65v6.35h-.79v-5a14.49,14.49,0,0,1-1,1.29C104.84,100.07,104.71,99.76,104.57,99.44Zm2.64-4a13.46,13.46,0,0,0,2-2.73L110,93c-.1.17-.19.33-.3.5h2.44v.63l-.68,1h1.26v4.64H112v-.29h-3.28v.36H108v-4l-.19.21C107.58,95.81,107.4,95.62,107.21,95.45Zm.35,4.94h2.3a5.86,5.86,0,0,0,0-.75h.8q0,.4,0,.75h2.15v.75h-2.29a1.54,1.54,0,0,1,0,.17l2.06,1.26-.49.71c-.54-.38-1.18-.82-1.91-1.31a6.25,6.25,0,0,1-2.43,1.8l-.48-.72a4.46,4.46,0,0,0,2.45-1.91h-2.12Zm3.5-6.14h-1.91c-.2.28-.42.57-.65.86h2ZM108.67,97H110v-1.1h-1.3Zm0,1.77H110V97.63h-1.3ZM112,95.85h-1.3V97H112Zm-1.3,2.87H112V97.63h-1.3Zm2.3-1.83h3.34v.86h-1.22v5c0,.85-.4,1.28-1.21,1.3q-.48,0-1.23,0c0-.19-.09-.48-.17-.87a10.39,10.39,0,0,0,1.17.07c.43,0,.64-.2.64-.61V97.75H113Zm.32-3.42H116v.85h-2.69Z"/><path class="cls-30" d="M117.05,97.5h4.74a3.33,3.33,0,0,0,.23-1l.85.12a5.42,5.42,0,0,1-.21.9h2.55c-.31-.22-.64-.45-1-.67l.49-.52c.51.3,1,.61,1.39.91l-.26.28H128v.78H123.5q1.35,1.32,4.8,1.25-.27.48-.48.9l-.6-.05V104h-.82v-.64h-2.5V104h-.82v-3.62h3.73c-2.24-.3-3.66-1-4.28-2h-.22q-.65,1.39-4.25,2h3.75V104H121v-.63h-2.47V104h-.82V100.4l-.65.11c-.11-.23-.27-.51-.45-.83q3.91-.5,4.69-1.4h-4.24Zm.64-4.26h4.11v3.41H121v-.37h-2.47v.48h-.82ZM121,94h-2.47v1.6H121Zm0,7.09h-2.47v1.54H121Zm2.07-7.81h4.15v3.45h-.82v-.41h-2.51v.37h-.82Zm3.33.72h-2.51v1.6h2.51Zm0,7.09h-2.5v1.54h2.5Z"/></g></svg>