<svg xmlns="http://www.w3.org/2000/svg" xmlns:xlink="http://www.w3.org/1999/xlink" viewBox="0 0 668 155"><defs><symbol id="a" viewBox="0 0 49.9 49.9"><path d="M19.5,39.9a12,12,0,0,0,13.7,9.9,11.9,11.9,0,0,0,10-11.9,16.4,16.4,0,0,0-.2-2.2,8.2,8.2,0,0,0,6.9-8.3c0-4.6-3.5-8.4-7.7-8.4H20.3A10.5,10.5,0,0,0,10.1,29.6,10.3,10.3,0,0,0,19.5,39.9Z" fill="#59b4d9"/><path d="M15,22a.9.9,0,0,0-1,1v5a.9.9,0,0,0,1,1H26a.9.9,0,0,0,1-1V23a.9.9,0,0,0-1-1Z" fill="#dd5900"/><path d="M26,28V23H15v5H26m0,2H15a2,2,0,0,1-2-2V23a2,2,0,0,1,2-2H26a2,2,0,0,1,2,2v5A2,2,0,0,1,26,30Z" fill="#a0a1a2"/><path d="M28,22a.9.9,0,0,0-1,1v5a.9.9,0,0,0,1,1H39a.9.9,0,0,0,1-1V23a.9.9,0,0,0-1-1Z" fill="#ba141a"/><path d="M39,28V23H28v5H39m0,2H28a2,2,0,0,1-2-2V23a2,2,0,0,1,2-2H39a2,2,0,0,1,2,2v5A2,2,0,0,1,39,30Z" fill="#a0a1a2"/><path d="M2,22a.9.9,0,0,0-1,1v5a.9.9,0,0,0,1,1H13a.9.9,0,0,0,1-1V23a.9.9,0,0,0-1-1Z" fill="#ba141a"/><path d="M13,28V23H2v5H13m0,2H2a2,2,0,0,1-2-2V23a2,2,0,0,1,2-2H13a2,2,0,0,1,2,2v5A2,2,0,0,1,13,30Z" fill="#a0a1a2"/><path d="M15,15a.9.9,0,0,0-1,1v5a.9.9,0,0,0,1,1H26a.9.9,0,0,0,1-1V16a.9.9,0,0,0-1-1Z" fill="#ba141a"/><path d="M26,21V16H15v5H26m0,2H15a2,2,0,0,1-2-2V16a2,2,0,0,1,2-2H26a2,2,0,0,1,2,2v5A2,2,0,0,1,26,23Z" fill="#a0a1a2"/><path d="M2,8A.9.9,0,0,0,1,9v5a.9.9,0,0,0,1,1H13a.9.9,0,0,0,1-1V9a.9.9,0,0,0-1-1Z" fill="#dd5900"/><path d="M13,14V9H2v5H13m0,2H2a2,2,0,0,1-2-2V9A2,2,0,0,1,2,7H13a2,2,0,0,1,2,2v5A2,2,0,0,1,13,16Z" fill="#a0a1a2"/><path d="M2,15a.9.9,0,0,0-1,1v5a.9.9,0,0,0,1,1H13a.9.9,0,0,0,1-1V16a.9.9,0,0,0-1-1Z" fill="#ba141a"/><path d="M13,21V16H2v5H13m0,2H2a2,2,0,0,1-2-2V16a2,2,0,0,1,2-2H13a2,2,0,0,1,2,2v5A2,2,0,0,1,13,23Z" fill="#a0a1a2"/><path d="M15,1a.9.9,0,0,0-1,1V7a.9.9,0,0,0,1,1H26a.9.9,0,0,0,1-1V2a.9.9,0,0,0-1-1Z" fill="#ba141a"/><path d="M26,7V2H15V7H26m0,2H15a2,2,0,0,1-2-2V2a2,2,0,0,1,2-2H26a2,2,0,0,1,2,2V7A2,2,0,0,1,26,9Z" fill="#a0a1a2"/><path d="M28,8a.9.9,0,0,0-1,1v5a.9.9,0,0,0,1,1H39a.9.9,0,0,0,1-1V9a.9.9,0,0,0-1-1Z" fill="#ba141a"/><path d="M39,14V9H28v5H39m0,2H28a2,2,0,0,1-2-2V9a2,2,0,0,1,2-2H39a2,2,0,0,1,2,2v5A2,2,0,0,1,39,16Z" fill="#a0a1a2"/><path d="M28,15a.9.9,0,0,0-1,1v5a.9.9,0,0,0,1,1H39a.9.9,0,0,0,1-1V16a.9.9,0,0,0-1-1Z" fill="#ba141a"/><path d="M39,21V16H28v5H39m0,2H28a2,2,0,0,1-2-2V16a2,2,0,0,1,2-2H39a2,2,0,0,1,2,2v5A2,2,0,0,1,39,23Z" fill="#a0a1a2"/><path d="M15,8a.9.9,0,0,0-1,1v5a.9.9,0,0,0,1,1H26a.9.9,0,0,0,1-1V9a.9.9,0,0,0-1-1Z" fill="#ba141a"/><path d="M26,14V9H15v5H26m0,2H15a2,2,0,0,1-2-2V9a2,2,0,0,1,2-2H26a2,2,0,0,1,2,2v5A2,2,0,0,1,26,16Z" fill="#a0a1a2"/><path d="M28,1a.9.9,0,0,0-1,1V7a.9.9,0,0,0,1,1H39a.9.9,0,0,0,1-1V2a.9.9,0,0,0-1-1Z" fill="#dd5900"/><path d="M39,7V2H28V7H39m0,2H28a2,2,0,0,1-2-2V2a2,2,0,0,1,2-2H39a2,2,0,0,1,2,2V7A2,2,0,0,1,39,9Z" fill="#a0a1a2"/><path d="M2,1A.9.9,0,0,0,1,2V7A.9.9,0,0,0,2,8H13a.9.9,0,0,0,1-1V2a.9.9,0,0,0-1-1Z" fill="#ba141a"/><path d="M13,7V2H2V7H13m0,2H2A2,2,0,0,1,0,7V2A2,2,0,0,1,2,0H13a2,2,0,0,1,2,2V7A2,2,0,0,1,13,9Z" fill="#a0a1a2"/></symbol></defs><title>OJ104467218</title><rect width="668" height="155" fill="#fff"/><rect x="128" y="15" width="230" height="120" fill="#fff"/><rect x="128" y="15" width="230" height="120" fill="#0072c6" opacity="0.25" style="isolation:isolate"/><rect x="468" y="15" width="200" height="140" fill="#fff"/><rect x="468" y="15" width="200" height="140" fill="#3c3c41" opacity="0.15" style="isolation:isolate"/><rect y="15" width="105" height="120" fill="#fff"/><rect y="15" width="105" height="120" fill="#3c3c41" opacity="0.15" style="isolation:isolate"/><rect x="143" y="65" width="95" height="55" fill="#fff"/><rect x="143" y="65" width="95" height="55" fill="#50e6ff" opacity="0.05" style="isolation:isolate"/><rect x="263" y="65" width="80" height="55" fill="#fff"/><rect x="263" y="65" width="80" height="55" fill="#50e6ff" opacity="0.05" style="isolation:isolate"/><path d="M147.3,7.9a8,8,0,0,1,9.1-6.8,7.8,7.8,0,0,1,6.8,6.6,5.4,5.4,0,0,1,7.7.6h.1a5.3,5.3,0,0,1,1.1,2.1,4.8,4.8,0,0,1,5.8,3.5,4.8,4.8,0,0,1-3.5,5.9H146.2a6.1,6.1,0,0,1,1.1-12.1Z" fill="#fff"/><path d="M147.3,7.9a8,8,0,0,1,9.1-6.8,7.8,7.8,0,0,1,6.8,6.6,5.4,5.4,0,0,1,7.7.6h.1a5.3,5.3,0,0,1,1.1,2.1,4.8,4.8,0,0,1,5.8,3.5,4.8,4.8,0,0,1-3.5,5.9H146.2a6.1,6.1,0,0,1,1.1-12.1Z" fill="#0078d4"/><path d="M147.3,7.9a8,8,0,0,1,9.1-6.8,7.8,7.8,0,0,1,6.8,6.6,5.4,5.4,0,0,1,7.7.6h.1a5.3,5.3,0,0,1,1.1,2.1,4.8,4.8,0,0,1,5.8,3.5,4.8,4.8,0,0,1-3.5,5.9H146.2a6.1,6.1,0,0,1,1.1-12.1Z" fill="none" stroke="#fff" stroke-miterlimit="10"/><path d="M146.4,7.9a8.2,8.2,0,0,0-9.2-6.8,8.3,8.3,0,0,0-6.8,6.6,5.3,5.3,0,0,0-7.7.7h0a5.3,5.3,0,0,0-1.1,2.1,4.8,4.8,0,0,0-5.8,3.5,4.9,4.9,0,0,0,3.5,5.9h28.2a6.1,6.1,0,0,0-1.1-12.1Z" fill="#fff"/><path d="M146.4,7.9a8.2,8.2,0,0,0-9.2-6.8,8.3,8.3,0,0,0-6.8,6.6,5.3,5.3,0,0,0-7.7.7h0a5.3,5.3,0,0,0-1.1,2.1,4.8,4.8,0,0,0-5.8,3.5,4.9,4.9,0,0,0,3.5,5.9h28.2a6.1,6.1,0,0,0-1.1-12.1Z" fill="#0078d4"/><path d="M146.4,7.9a8.2,8.2,0,0,0-9.2-6.8,8.3,8.3,0,0,0-6.8,6.6,5.3,5.3,0,0,0-7.7.7h0a5.3,5.3,0,0,0-1.1,2.1,4.8,4.8,0,0,0-5.8,3.5,4.9,4.9,0,0,0,3.5,5.9h28.2a6.1,6.1,0,0,0-1.1-12.1Z" fill="none" stroke="#fff" stroke-miterlimit="10"/><path d="M138.5,9.7a6.9,6.9,0,0,1,13.6-.2,4.6,4.6,0,0,1,6.6.6h0a4,4,0,0,1,1,1.8,4.1,4.1,0,0,1,5,3,4.2,4.2,0,0,1-3,5H137.5a5.3,5.3,0,0,1-4.1-5.2A5.1,5.1,0,0,1,138.5,9.7Z" fill="#fff"/><path d="M138.5,9.7a6.9,6.9,0,0,1,13.6-.2,4.6,4.6,0,0,1,6.6.6h0a4,4,0,0,1,1,1.8,4.1,4.1,0,0,1,5,3,4.2,4.2,0,0,1-3,5H137.5a5.3,5.3,0,0,1-4.1-5.2A5.1,5.1,0,0,1,138.5,9.7Z" fill="#0078d4"/><path d="M138.5,9.7a6.9,6.9,0,0,1,13.6-.2,4.6,4.6,0,0,1,6.6.6h0a4,4,0,0,1,1,1.8,4.1,4.1,0,0,1,5,3,4.2,4.2,0,0,1-3,5H137.5a5.3,5.3,0,0,1-4.1-5.2A5.1,5.1,0,0,1,138.5,9.7Z" fill="none" stroke="#fff" stroke-miterlimit="10"/><line x1="468" y1="55" x2="363.4" y2="55" fill="none" stroke="#3c3c41" stroke-miterlimit="10"/><polygon points="364.5 51.3 358 55 364.5 58.7 364.5 51.3" fill="#3c3c41"/><line x1="462.6" y1="90.5" x2="358" y2="90.5" fill="none" stroke="#3c3c41" stroke-miterlimit="10"/><polygon points="461.5 86.8 468 90.5 461.5 94.3 461.5 86.8" fill="#3c3c41"/><line x1="137.6" y1="90.5" x2="105.1" y2="90.5" fill="none" stroke="#3c3c41" stroke-miterlimit="10"/><polygon points="136.5 86.8 143 90.5 136.5 94.3 136.5 86.8" fill="#3c3c41"/><line x1="257.6" y1="90.5" x2="238" y2="90.5" fill="none" stroke="#3c3c41" stroke-miterlimit="10"/><polygon points="256.5 86.8 263 90.5 256.5 94.3 256.5 86.8" fill="#3c3c41"/><path d="M21.5,73.9a.6.6,0,0,0,.2.5l.4.5.6.4.5.2a8.6,8.6,0,0,0,.6,2.3l-1.4-.5a6.7,6.7,0,0,1-1.4-.9,5.2,5.2,0,0,1-1-1.1,2.3,2.3,0,0,1-.4-1.4V56.2a3.2,3.2,0,0,1,.3-1.4,4.7,4.7,0,0,1,1-1,3.8,3.8,0,0,1,1.3-.9l1.5-.6,1.5-.4,1.3-.3a26.2,26.2,0,0,1,7.9,0l1.3.3,1.5.4,1.6.6a5.1,5.1,0,0,1,1.3.9,2.8,2.8,0,0,1,.9,1,2.3,2.3,0,0,1,.4,1.4v9.6a7,7,0,0,0-2-.8V59.1a8.8,8.8,0,0,1-2,.9l-2.3.7-2.4.3H28.2l-2.3-.3L23.6,60a7.2,7.2,0,0,1-2-.9Zm8.9-20.7h-2l-2.3.3-2.2.6a7.7,7.7,0,0,0-1.8,1l-.4.5a.8.8,0,0,0,0,1.1l.4.4a7.7,7.7,0,0,0,1.8,1l2.2.6,2.3.3h4l2.3-.3,2.2-.6,1.8-1c.1-.2.3-.3.4-.4a.8.8,0,0,0,0-1.1l-.4-.5-1.8-1-2.2-.6-2.3-.3ZM43,71a4.9,4.9,0,0,1,1.7.6,4.1,4.1,0,0,1,1.3,1,3.8,3.8,0,0,1,.9,1.5,4.7,4.7,0,0,1,.3,1.7,4.1,4.1,0,0,1-.4,1.9,4.4,4.4,0,0,1-1,1.6,5.4,5.4,0,0,1-1.6,1,4.3,4.3,0,0,1-1.9.4H31.4A5.9,5.9,0,0,1,27.2,79a5,5,0,0,1-1.3-1.9,6.1,6.1,0,0,1,0-4.6,5.7,5.7,0,0,1,3.2-3.1,5.9,5.9,0,0,1,2.3-.4l1.4.2a5.3,5.3,0,0,1,2-1.6,6.4,6.4,0,0,1,4.3-.3A5.6,5.6,0,0,1,42,69.4,3.9,3.9,0,0,1,43,71Zm-.7,7.8,1.2-.2.9-.6a3,3,0,0,0,.1-4.2h-.1a1.8,1.8,0,0,0-.9-.6,2.7,2.7,0,0,0-1.2-.3h-1a3.7,3.7,0,0,0-.3-1.5,5.7,5.7,0,0,0-.8-1.3,3.5,3.5,0,0,0-1.3-.8,2.2,2.2,0,0,0-1.6-.3,2.5,2.5,0,0,0-1.2.1,3.3,3.3,0,0,0-1,.6,3.6,3.6,0,0,0-1.5,1.9,3.8,3.8,0,0,0-5,.5,2.7,2.7,0,0,0-.9,1.2,4.2,4.2,0,0,0,0,3.1,4.2,4.2,0,0,0,3.7,2.4Z"/><use width="49.9" height="49.94" transform="matrix(0.64, 0, 0, -0.64, 58.02, 81.94)" xlink:href="#a"/><rect x="625.4" y="24" width="30.5" height="16.45" fill="#fff"/><path d="M657.2,20.3a.6.6,0,0,0-.5-.6H624.8a.6.6,0,0,0-.6.6h0V40.2a.6.6,0,0,0,.6.6h31.9a.6.6,0,0,0,.5-.6Zm-28.5,3.1h-1.6V21.8h1.6Zm3.3,0h-1.6V21.8H632Zm3.3,0h-1.6V21.8h1.6Zm-9.9,1.3H656V39.5H625.4Z"/><path d="M146.3,64.3l-.6-1.4,1.5-.7a3.7,3.7,0,0,1,0-2.1l-1.5-.6.6-1.5,1.5.6a5.4,5.4,0,0,1,1.5-1.5l-.6-1.5,1.4-.6.7,1.5h2.1l.6-1.5,1.5.6-.6,1.5a5.4,5.4,0,0,1,1.5,1.5l1.5-.6.6,1.5-1.5.6a7.4,7.4,0,0,1,0,2.1l1.5.7-.6,1.4-1.5-.6a5.4,5.4,0,0,1-1.5,1.5l.6,1.5-1.5.6-.6-1.5h-2.1l-.7,1.5-1.4-.6.6-1.5a8,8,0,0,1-1.5-1.5Zm6.8-.2,1-.7a2.1,2.1,0,0,0,.6-1,2.7,2.7,0,0,0,.3-1.2,2.4,2.4,0,0,0-.3-1.2,1.7,1.7,0,0,0-.6-1,3,3,0,0,0-1-.7,2.8,2.8,0,0,0-1.3-.3,2.7,2.7,0,0,0-1.2.3,2.3,2.3,0,0,0-1,.7,2.6,2.6,0,0,0-.7,1,2.3,2.3,0,0,0-.2,1.2,2.5,2.5,0,0,0,.2,1.2,3.6,3.6,0,0,0,.7,1l1,.7a2.7,2.7,0,0,0,1.2.3,2.8,2.8,0,0,0,1.3-.3Zm-18.6,4.4-1.7-.7.6-1.4,1.7.7a6.4,6.4,0,0,1,2-2l-.7-1.7,1.4-.6.7,1.7h2.8l.7-1.7,1.5.6-.7,1.7a6.1,6.1,0,0,1,1.9,2l1.7-.7.6,1.4-1.7.7a5,5,0,0,1,0,2.8l1.7.7-.6,1.5-1.7-.7a5.2,5.2,0,0,1-2,1.9l.8,1.7L142,77l-.7-1.7-1.4.2-1.4-.2-.6,1.7-1.5-.6.7-1.7a7.3,7.3,0,0,1-2-1.9l-1.7.7-.6-1.5,1.7-.7a6.1,6.1,0,0,1-.1-1.4A7.1,7.1,0,0,1,134.5,68.5Zm7,5a5,5,0,0,0,1.2-.8,3.8,3.8,0,0,0,.9-1.3,4,4,0,0,0,.3-1.5,4.1,4.1,0,0,0-.3-1.6,5.3,5.3,0,0,0-2.1-2.1,4.1,4.1,0,0,0-1.6-.3,4,4,0,0,0-1.5.3,3.8,3.8,0,0,0-1.3.9,5,5,0,0,0-.8,1.2,3.2,3.2,0,0,0,0,3.1,5.7,5.7,0,0,0,.8,1.3,5.7,5.7,0,0,0,1.3.8,4,4,0,0,0,1.5.3,3,3,0,0,0,1.6-.2Z" fill="#0078d7"/><path d="M273,55H262V77h11Z" fill="#50e6ff"/><path d="M262,60.8h-5.2V71.2H262Z" fill="#0078d4"/><path d="M267.2,60.8H262V71.2h5.2Z" fill="#0078d4"/><path d="M255.6,72.4H251V77h4.6Z" fill="#0078d4"/><path d="M504.3,144.9a.6.6,0,0,1-.6-.6h0c0-.2,0-.4.2-.5l.4-.2.5.2a.8.8,0,0,1,.2.5.7.7,0,0,1-.7.6Z" fill="#1e1e1e"/><path d="M510.2,144.9a.6.6,0,0,1-.5-.2l-.2-.4a.8.8,0,0,1,.2-.5c.3-.2.7-.3.9,0h.1a.6.6,0,0,1,0,.9A.6.6,0,0,1,510.2,144.9Z" fill="#1e1e1e"/><path d="M516.1,144.9c-.2,0-.4,0-.5-.2l-.2-.4a.8.8,0,0,1,.2-.5l.5-.2a.8.8,0,0,1,.7.7.5.5,0,0,1-.3.4C516.4,144.9,516.3,144.9,516.1,144.9Z" fill="#1e1e1e"/><path d="M30.9,25.1l1.6.5a27.7,27.7,0,0,1-1,2.6v8.3H29.9V31.3a6.4,6.4,0,0,1-.8,1.4l-.5-2.3A23.5,23.5,0,0,0,30.9,25.1Zm1,9c.5-1.1,1-2.5,1.5-3.9l1.5.4a26,26,0,0,1-1.5,4.2ZM40,26.5v1.4L39.5,30l-1.6-.3.5-1.7H34.5a15.7,15.7,0,0,1-1.3,2.3l-1.3-1a13.6,13.6,0,0,0,1.9-4.2l1.7.2-.4,1.2Zm-3,2.2v6.2a3.1,3.1,0,0,1-.2,1.1,1.5,1.5,0,0,1-1,.4H34l-.3-1.6h1.5c.2-.1.2-.2.2-.5V28.7Zm1.9,1.6c.4.9.8,2.2,1.4,4l-1.6.5c-.4-1.6-.8-2.9-1.2-4.1Z"/><path d="M42.8,25.1l1.8.2-.5,1.6h2v2.3A21.8,21.8,0,0,0,47.9,25l1.6.5L48.9,27H52l-.2,6.8a5.8,5.8,0,0,1-.1,1.5,1.8,1.8,0,0,1-.5.7,1.9,1.9,0,0,1-.9.4H47.8c-.2-.7-.3-1.3-.5-1.8h2.4l.3-.2.2-.3V28.6h-2l-.9,1.6a7.4,7.4,0,0,0-1.3-.8v7H44.4v-.8H42.7v.9H41.1V26.9h1.3C42.6,26.2,42.7,25.5,42.8,25.1Zm1.6,3.4H42.7v2h1.7Zm-1.7,5.6h1.7V32H42.7ZM47.9,30a16.6,16.6,0,0,1,1.8,2.4l-1.4,1a18,18,0,0,0-1.8-2.5Z"/><path d="M53,27.4h.9a10,10,0,0,0-.8-1.4l1-.7a10.4,10.4,0,0,1,1,1.4l-1,.7h1.3V25h1.5v2.4h1.2l-1-.7a6.1,6.1,0,0,0,1-1.4l1.1.7-.9,1.4h.6v1.2h-2v.8l.4-.6,1.4.8A18.8,18.8,0,0,0,60.3,25H62a12.1,12.1,0,0,0-.5,1.8h2.9v1.4h-.5a12.8,12.8,0,0,1-1.3,5.2A10.5,10.5,0,0,0,64.5,35a7.3,7.3,0,0,0-1.1,1.5,6.9,6.9,0,0,1-1.8-1.6,9.6,9.6,0,0,1-2.2,1.8l-1.1-1.3-.4.7-1.5-.8a7.7,7.7,0,0,1-3.1,1.2l-.6-1.4,2.1-.5-1.7-.7a7.5,7.5,0,0,0,.7-1.2h-.9V31.5h1.5l.3-.9h.7V29.5a9.8,9.8,0,0,1-2.2,1.7l-.6-1.4a7.2,7.2,0,0,0,2.1-1.2H53Zm2,5.9,1.2.5a3.1,3.1,0,0,0,.9-1.1H55.3Zm1.9-2.4h-.6l-.3.6h2.7v1.1a9.9,9.9,0,0,1-1.1,1.7l1.1.5-.2.3a6.2,6.2,0,0,0,2.2-1.7,10.7,10.7,0,0,1-.8-2.7l-.5.7a4.7,4.7,0,0,0-.6-.9l-.3.5-1.6-1Zm3.9-2.2a16.5,16.5,0,0,0,.8,3.2,9.5,9.5,0,0,0,.9-3.6H61C60.9,28.4,60.9,28.5,60.8,28.7Z"/><path d="M64.9,27.2H66v-2h1.5v2h1v1.6h-1v1.6l1-.2v1.5l-1,.2v3.3c0,.8-.4,1.3-1.1,1.3H65.2L64.9,35h.7c.3.1.4-.1.4-.5V32.3l-1.1.3V31l1.2-.3V28.8H64.9Zm11.6,4.3H73.8v.9h2v4.3H74.4v-.6H71.7v.6H70.4V32.4h1.9v-.9H70.2a9.6,9.6,0,0,1-1.5,5.1,6.3,6.3,0,0,0-1-1.2,11.4,11.4,0,0,0,1.1-5.6V25.5H76v3.7H73.8v1h2.7Zm-2-3.6V26.7H70.3v1.2Zm-2.2,2.3v-1h-2v1Zm2.1,3.5H71.7v1.1h2.7Z"/><path d="M209.2,35h-2.1l-.6-1.9h-3l-.6,1.9h-2.1l3.1-8.4h2.3Zm-3.1-3.3-.9-2.9a1.4,1.4,0,0,1-.2-.7h0c-.1.2-.1.5-.2.7l-.9,2.9Z"/><path d="M214.8,35h-5.4v-.8l3-3.9h-2.7V29h5.1v.9l-2.9,3.7h2.9Z"/><path d="M221.6,35h-1.9v-.9h0a2.2,2.2,0,0,1-1.9,1c-1.4,0-2.1-.8-2.1-2.5V29h1.9v3.4c0,.9.3,1.3,1,1.3a1.1,1.1,0,0,0,.8-.3,1.7,1.7,0,0,0,.3-1V29h1.9Z"/><path d="M227.1,30.6h-.8a1.3,1.3,0,0,0-1,.4,2.1,2.1,0,0,0-.3,1.2V35h-1.9V29H225v1.1h0a1.6,1.6,0,0,1,1.6-1.2h.5Z"/><path d="M233.3,32.5h-3.9c0,.9.6,1.3,1.6,1.3a3.4,3.4,0,0,0,1.8-.4v1.3a4.8,4.8,0,0,1-2.2.4,3,3,0,0,1-2.3-.8,3.1,3.1,0,0,1-.8-2.2,3.2,3.2,0,0,1,.9-2.4,3,3,0,0,1,4.2-.1,2.8,2.8,0,0,1,.7,2.1Zm-1.7-1.1c0-.9-.4-1.3-1.1-1.3a.9.9,0,0,0-.7.3,1.3,1.3,0,0,0-.4,1Z"/><path d="M241.3,31.6a7.8,7.8,0,0,0,.5,1.4q-1.7,1.7-3,3.3l-.8-1.1a2.1,2.1,0,0,0,.4-1.1V30.2h-1.2V28.7h2.7v4.2ZM239,25l2,2-1.4,1.1a23.1,23.1,0,0,0-1.8-2.1Zm4.7,0h1.8c0,1-.1,1.9-.1,2.7.3,3.5,1.5,5.9,3.5,7l-1.2,1.8a8.2,8.2,0,0,1-2.9-4.7,10.5,10.5,0,0,1-3.1,4.7,16.3,16.3,0,0,0-1.1-1.7,7.5,7.5,0,0,0,2.6-3.5A20,20,0,0,0,243.7,25Z"/><path d="M249.3,29.9h2.3V28h-.5a15.1,15.1,0,0,1-.9,1.8l-1.1-1.4a9.2,9.2,0,0,0,1.4-3.5l1.6.3a6.5,6.5,0,0,1-.4,1.3h3V28h-1.5v1.9h1.9v1.5h-2a1.3,1.3,0,0,0-.1.6c.8.7,1.5,1.6,2.3,2.4L254,35.6a15.6,15.6,0,0,0-1.6-2,9.3,9.3,0,0,1-2.3,3l-1-1.5a6.1,6.1,0,0,0,2.3-3.7h-2.1Zm6,6.5V25.9h5.1V36.3h-1.6v-1H257v1.1Zm3.5-8.9H257v6.3h1.8Z"/><path d="M261.4,27.1h1.1v-2H264v2h.9v1.6H264v1.8l1-.2a8.6,8.6,0,0,0-.1,1.5l-.9.2v3.1a1.6,1.6,0,0,1-.4,1.1,3.8,3.8,0,0,1-1.9.3,12.4,12.4,0,0,0-.4-1.6h.8c.3,0,.4-.2.4-.5V32.4l-1.1.3V31.1l1.2-.3V28.7h-1.1Zm10.8,4.4v1.4a8.1,8.1,0,0,1-1.9,1.8l2.8.5-.7,1.4a13.4,13.4,0,0,1-3.7-1,18.1,18.1,0,0,1-3.7,1,5.3,5.3,0,0,0-.6-1.4l2.8-.5-1.5-1.5.6-.4h-1.1V31.5h2.9v-.7h-2.9V26l2.2-.6.7,1.2V24.9h1.4v4.7h1.7v-.8h-1.3V27.7h1.3v-.8h-1.5V25.7h2.8v5.1h-3v.7ZM266.5,27v.7h1.2v1.1h-1.2v.8h1.6v-3Zm2.3,7.1a5.9,5.9,0,0,0,1.7-1.3h-3.4A7.6,7.6,0,0,0,268.8,34.1Z"/><path d="M276.3,33.5l1,1.1-3.2,1.9-.8-1.3A15.2,15.2,0,0,0,276.3,33.5Zm-2.6-3.3V27.8h4.7V27H274V25.8h4.4v-.9H280v.9h4.4V27H280v.8h4.7v2.4h-1.6V29h-3.5l-1.9,1h2.1l1.6-.9,1.1,1a44.6,44.6,0,0,1-5.3,2.3l4.4-.2-.8-.7,1-.8,2.8,2-1.1,1.1-.6-.6h-2.8v2a1.1,1.1,0,0,1-.3.8c-.1.2-.4.3-.7.4H277l-.3-1.4h1.6l.2-.4V33.4l-3.7.2-.5-1.3a26.9,26.9,0,0,0,3.4-1.2h-2.1l-.3-1Zm1.6-.1,2.1-1.1h-2.1Zm6.3,3.4,3.5,1.6-.8,1.3-3.5-1.7Z"/><path d="M168.8,87.8l.9,1.1c-1.1.7-2.1,1.4-3.1,1.9l-.8-1.3A15.2,15.2,0,0,0,168.8,87.8Zm-2.6-3.3V82.1h4.6v-.8h-4.4V80h4.4v-.8h1.6V80h4.4v1.3h-4.4v.8h4.7v2.4h-1.6V83.3H172l-1.9,1h2.1l1.6-1,1.2,1.1a45.4,45.4,0,0,1-5.3,2.2H174l-.8-.7,1-.9L177,87l-1.1,1.1-.6-.6h-2.8v2a1.9,1.9,0,0,1-.2.8l-.7.4h-2.2q-.2-.9-.3-1.5h1.7a.6.6,0,0,0,.1-.4V87.7l-3.6.2-.5-1.3,3.4-1.3-2.1.2-.3-1Zm1.6-.1,2-1.1h-2Zm6.2,3.4,3.5,1.6-.8,1.3L173.3,89Z"/><path d="M180.2,85.5h4.4l-.2,3.1a4,4,0,0,1-.4,1.3,1.8,1.8,0,0,1-.8.7,17.8,17.8,0,0,1-3.3.2,8.4,8.4,0,0,0-.5-1.7h2.8c.1-.1.3-.2.3-.4a7.3,7.3,0,0,0,.2-1.5h-4.4l.4-4.4h4.1V81.4h-4.5V79.8h6.2v4.4h-4.2Zm6.4-6.1h1.7V90.8h-1.7Z"/><path d="M190.1,89.8l-.3-1.4L193,88a13.2,13.2,0,0,0,.4-3.6V83.3a23.2,23.2,0,0,1-1.5,2.6l1.2-.2v1.5l-2.7.2-.4-1.3a11.5,11.5,0,0,0,1.4-2h-1.2l-.4-1.3a27.6,27.6,0,0,0,1.9-3.7l1.4.6a25.9,25.9,0,0,1-1.7,3h.8l.4-.8.8.4V80.3h3l-.4-.7,1.6-.4c.3.4.4.8.6,1.1h2.7v3.3h-6.1v.7h6.3v5.2a2,2,0,0,1-.2.9,1,1,0,0,1-.5.4h-1.5c0-.2-.1-.4-.1-.6h-.7V88.1h-.7v2.3h-1V88.1h-.7v2.7h-1.2V86.1a10.3,10.3,0,0,1-1.3,4.8,3.5,3.5,0,0,0-1.2-.7,3,3,0,0,0,.4-.8Zm9.4-8.2h-4.7v.8h4.7Zm-3.8,5.3h.7V85.6h-.7Zm1.7,0h.7V85.6h-.7Zm2.4-1.3h-.7v1.3h.7Zm0,2.5h-.7v1.4h.6a.4.4,0,0,0,.1-.3Z"/><path d="M203.7,90.2h-1.4V85.5h2.4v-.9h-2.8V83.3h2.8V82.2h-1.2l-.3,1-1.3-.5a15.7,15.7,0,0,0,.8-3.1l1.3.3-.2,1h.9V79.2h1.6v1.7h2.3v1.3h-2.3v1.1H209v1.3h-2.7v.9h2.4v3.2a1.8,1.8,0,0,1-.3,1.1,1,1,0,0,1-.8.4h-.9l-.3-1.5h.5c.3,0,.4-.1.4-.3V86.9h-1v4h-1.6v-4h-1Zm5.6-10h1.5v7.9h-1.5Zm2.1-1h1.5V89a1.7,1.7,0,0,1-.4,1.3,1.3,1.3,0,0,1-1.1.5h-1.7c-.1-.4-.2-1-.3-1.6h1.4c.4,0,.6-.2.6-.7Z"/><path d="M204.2,48.8l.6.7-3.3,2a2.1,2.1,0,0,0-.6-.8A17.7,17.7,0,0,0,204.2,48.8Zm4.9-2.8a37,37,0,0,1,2.9,2.4l-.7.6-.8-.7h-3.1v1.8c0,.9-.5,1.4-1.5,1.4h-1.5a4.4,4.4,0,0,0-.2-1h1.5c.5,0,.8-.2.8-.7V48.5h-3.7l-.3-.9,1.6-.5,2.1-1.1h-2.8l-.3-.8a3.1,3.1,0,0,0,1-.5l1.6-1.1h-3.4v1.3h-.9V43.2h4.9V42.1h-4.6v-.8h4.6V40.1h1v1.2h4.6v.8h-4.6v1.1h4.9v2.1h-.9V44h-4.4l-2.4,1.6h2.8l1.5-1,.7.6-5,2.7,5.2-.2-1.2-1Zm-.1,2.9,3.6,1.8a3.5,3.5,0,0,0-.5.8,20.1,20.1,0,0,0-3.6-1.9Z"/><path d="M214.9,46.3h4.8c-.1,1.5-.2,2.7-.3,3.4a1.7,1.7,0,0,1-2,1.8H215a4.5,4.5,0,0,0-.3-1.1h2.6q1,0,1.2-1.2c.1-.4.1-1.2.2-2.2h-5l.7-3.6h4.2V41.6h-4.9v-.9h5.9v4.2h-1v-.5h-3.4Zm7.7-6.1h1V51.7h-1Z"/><path d="M225,48.5a17.1,17.1,0,0,0,2.2-4h-2.1v-.8h2.3V41.9l-1.9.2-.3-.8a34.3,34.3,0,0,0,4.8-.8l.3.8-2,.4v2h2.2v.8h-2.2V46l.4-.4,1.8,1.7-.7.7-1.5-1.7v5.5h-.9V46.2a18.6,18.6,0,0,1-1.9,3.3A4.7,4.7,0,0,0,225,48.5Zm6.1-6.9h5.2v9.8h-1V50.3H232v1.1h-.9Zm4.2.9H232v6.9h3.3Z"/><path d="M237.5,41.4h5.1V40.1h.8v1.3h5.1v.8h-4.4a15.1,15.1,0,0,0,4.8,2.1l-.6.9-1.2-.5v5.1h-.9v-.5h-6.4v.5h-.9V44.7l-1.2.6-.6-.8a12.9,12.9,0,0,0,4.7-2.3h-4.3Zm-.2,9h11.4v.9H237.3Zm5.3-6v-2a16.3,16.3,0,0,1-3.5,2.3h8a12.3,12.3,0,0,1-3.7-2.3v2Zm3.6,1.1h-6.4v1.1h6.4Zm-6.4,3h6.4V47.4h-6.4Z"/><path d="M252.9,49v1a11.6,11.6,0,0,0-2.1,1.5l-.6-.8a1.1,1.1,0,0,0,.4-1V45.1h-1.4v-.9h2.3v5.7Zm-2.5-8.7,1.9,2-.8.7a16.8,16.8,0,0,0-1.8-2.1ZM252,44a17.3,17.3,0,0,0,2.5-3.9l.9.3-.6,1.2h5.7c-.1,3.6-.2,6.2-.2,7.8s-.7,2.1-1.9,2.1h-1.9a5.2,5.2,0,0,0-.2-1.1l1.9.2c.7,0,1.1-.5,1.1-1.4s.2-4,.2-6.7h-5.2l-1.5,2Zm1.5-.2h4.3v5.4h-3.4v.7h-.9Zm3.5.8h-2.6v1.5H257Zm0,3.8V46.9h-2.6v1.5Z"/><path d="M263.1,46.3H268c-.1,1.5-.2,2.7-.3,3.4a1.8,1.8,0,0,1-2,1.8h-2.4l-.3-1.1h2.5a1.2,1.2,0,0,0,1.3-1.2c0-.4.1-1.2.2-2.2h-5l.7-3.6h4.2V41.6H262v-.9h5.9v4.2h-1v-.5h-3.4Zm7.8-6.1h.9V51.7h-.9Z"/><path d="M273.3,43.8a6.1,6.1,0,0,0,1.2-1.6h.7l-.2.5h4.3c0,1.1-.1,1.9-.1,2.4s-.3,1.1-.9,1.1h-.7a1.9,1.9,0,0,0-.2-.7h.7a.4.4,0,0,0,.4-.4c0-.5.1-1.1.1-1.8h-4a3.9,3.9,0,0,1-.8,1Zm4.3-3.5h.7v.8h1.8v.6h-1.8v.7h-.7v-.7h-1.3v.7h-.7v-.7h-1.9v-.6h1.9v-.8h.7v.8h1.3Zm-3.9,8.9H279v-.7h-4.3v-.6H279v-.7h-4.7a6.4,6.4,0,0,0-.2-.7l9.7-.2v.7h-4.1v.7h4.1v.6h-4.1v.7h5v.7h-5v.5a1.2,1.2,0,0,1-1.3,1.3h-1.6a2.9,2.9,0,0,0-.2-.9h1.6c.5,0,.7-.2.7-.6v-.4h-5.3Zm.8-5.3h2.8v1.9h-2.2v.3h-.6Zm.6,1.3h1.6v-.7h-1.6Zm4.4-1.8a8,8,0,0,0,1.6-3.2l.8.3-.4,1h3.3v.7h-.9a3.9,3.9,0,0,1-1.1,2.4,6.5,6.5,0,0,0,2.1.7,3,3,0,0,0-.4.8,9.9,9.9,0,0,1-2.3-1,9.9,9.9,0,0,1-2.3,1.1,4.3,4.3,0,0,0-.4-.7l2.2-.9a6.2,6.2,0,0,1-1-1.6l-.7.9Zm1.6-1.1a5.2,5.2,0,0,0,1.2,1.9,3.7,3.7,0,0,0,.8-2h-2Z"/><path d="M401.9,27.9c0,.7.1,1.3.1,1.8a8.1,8.1,0,0,0-1.9,1.7l-.9-1.2a1.4,1.4,0,0,0,.3-.9V25.5h-1V23.9H401v4.6A3.5,3.5,0,0,0,401.9,27.9Zm-1.8-7.8,1.6,2.1-1.4.8-1.4-2.2Zm1.4,3.8H405v-.5h-2.8v-1H405v-.5h-3.1v-1H405V20h1.7v.9H410v1h-3.3v.5h3v1h-3v.5h3.6v1h-8.8Zm2.5,7.5h-1.6v-6h7.1v4.4a1.6,1.6,0,0,1-.4,1.1,1.3,1.3,0,0,1-.9.5h-2.4a8.3,8.3,0,0,1-.4-1.2h1.8c.4,0,.7-.2.7-.6v-.2H404Zm3.9-4.9H404V27h3.9ZM404,28.6h3.9V28H404Z"/><path d="M422.1,24.8l-2.7,2a8.7,8.7,0,0,0,3.1,1.8c-.3.5-.7,1-1,1.6a8.1,8.1,0,0,1-4.1-3.6v2.7a2.3,2.3,0,0,1-.5,1.5,1.7,1.7,0,0,1-1.3.5h-1.9a11.6,11.6,0,0,0-.4-1.8h1.4a.9.9,0,0,0,1-1V27.6l-4.2,2.3-.8-1.5,5-2.4V23.3h-4.8V21.9h4.8V20h1.7v1.9h2.5a5.6,5.6,0,0,0-1.5-1l1.1-1,1.8,1.2-.9.8h1.9v1.4h-4.9v.5a5.6,5.6,0,0,0,1.1,2l2.5-2.2Zm-9.6-1.1,2.3,1.8-1.1,1.1-2.2-1.8Z"/><path d="M398.8,96.4h3.3v8.8h-1.3v-.8h-.6v1.1h-1.4Zm2,1.5h-.6v5h.6Zm1.8-1.2h1.9l.5-1.5,1.7.2-.6,1.3h3.6V105a2,2,0,0,1-.3,1.1,1.8,1.8,0,0,1-.7.5h-2.4c-.1-.4-.2-1-.3-1.6h1.4c.5,0,.8-.3.8-.9V98.1H404v8.6h-1.4Zm1.9,2.3h3.2v5.1h-2v.7h-1.2Zm2,3.6v-2.2h-.8v2.2Z"/><path d="M413,100.6c0,2.9-.4,5-1.2,6.2l-1.3-1.1a11.5,11.5,0,0,0,1-5.3V96.7H416a10.4,10.4,0,0,0-.4-1l1.9-.5.6,1.5h4v1.4H413Zm-.2,4h5.7c.5-1.5,1-3.5,1.7-5.8l1.6.4c-.4,1.5-.9,3.3-1.6,5.4h2v1.7h-9.4Zm.3-5,1.4-.6c.7,1.5,1.4,3.1,2,4.7l-1.6.6C414.4,102.8,413.8,101.3,413.1,99.6ZM416,99l1.5-.4c.4,1.1.9,2.5,1.4,4.2l-1.6.4C416.8,101.5,416.4,100.1,416,99Z"/><path d="M547.2,25.2l1.6.5a26,26,0,0,1-1,2.5v8.3h-1.6V31.4l-.8,1.3-.5-2.2A28.3,28.3,0,0,0,547.2,25.2Zm1,8.9a40.4,40.4,0,0,0,1.5-3.9l1.5.4a26,26,0,0,1-1.5,4.2Zm8.2-7.5V28l-.6,2-1.5-.3.4-1.7h-3.9a26,26,0,0,1-1.3,2.4l-1.3-1a20.5,20.5,0,0,0,2-4.2l1.6.2a5.6,5.6,0,0,1-.4,1.2Zm-3,2.2v6.1a1.8,1.8,0,0,1-.3,1.1,1.3,1.3,0,0,1-1,.4,10.5,10.5,0,0,1-1.8,0l-.3-1.5h1.6c.1-.1.1-.2.1-.5V28.8Zm1.9,1.5,1.4,4-1.7.5c-.4-1.6-.8-2.9-1.2-4.1Z"/><path d="M559.2,25.2l1.8.2-.5,1.6h2v2.3a25,25,0,0,0,1.8-4.2l1.6.4a7.5,7.5,0,0,1-.5,1.6h3v6.7a4.9,4.9,0,0,1-.2,1.5,1.2,1.2,0,0,1-.5.7,1.9,1.9,0,0,1-.9.4h-2.5a7.8,7.8,0,0,0-.5-1.8h2.4l.3-.2c.1,0,.2-.1.2-.3s.1-.5.1-1.4V30.4a12.1,12.1,0,0,0,.1-1.8h-2.1c-.3.6-.5,1.1-.8,1.6l-1.4-.7v6.9h-1.7v-.8h-1.7v.9h-1.6V27h1.2A13.2,13.2,0,0,0,559.2,25.2Zm1.6,3.3h-1.7v2h1.7Zm-1.7,5.6h1.7v-2h-1.7Zm5.2-4.1,1.9,2.5-1.5.9L563,30.9Z"/><path d="M571.7,30.4q0,4.5-1.2,6.3l-1.3-1.1a11.7,11.7,0,0,0,1-5.4V26.5h4.5l-.4-1,1.9-.4.6,1.4h4V28h-9.1Zm-.2,4.1h5.7c.5-1.6,1-3.5,1.7-5.9l1.6.4c-.4,1.6-.9,3.4-1.6,5.5h2v1.6h-9.4Zm.3-5,1.4-.6c.7,1.5,1.4,3,2,4.6l-1.6.6C573.1,32.6,572.5,31.1,571.8,29.5Zm2.9-.6,1.5-.5c.4,1.1.9,2.5,1.4,4.2L576,33C575.5,31.4,575.1,30,574.7,28.9Z"/><path d="M592.4,34.8a2.1,2.1,0,0,1-.3,1.2,1.6,1.6,0,0,1-1.1.4h-1.8c-.2-.6-.3-1.2-.5-1.7H590a.7.7,0,0,0,.8-.7V33.1h-2.5v3.3h-1.7V33.1H584a6.2,6.2,0,0,1-1,3.6l-1.5-1c.7-.8,1-2.4.9-4.6V25.6h10Zm-8.3-6.2h2.5V27.2h-2.5Zm0,3h2.5V30.1h-2.5Zm6.7-4.4h-2.5v1.4h2.5Zm-2.5,4.4h2.5V30.1h-2.5Z"/><path d="M372.7,46.6a8.2,8.2,0,0,1-1.9-5.5,8.7,8.7,0,0,1,1.9-5.7h1a9,9,0,0,0-.1,11.2Z"/><path d="M381.5,44.5h-1.4L378.7,42a4.9,4.9,0,0,0-.8-1,1.2,1.2,0,0,0-.9-.3h-.8v3.8h-1.1V35.4h2.7a2.7,2.7,0,0,1,2,.7,2.5,2.5,0,0,1,.7,1.8,2.4,2.4,0,0,1-2,2.4h0l.7.5a6.4,6.4,0,0,1,.6,1Zm-5.3-8v3.2h1.4a1.7,1.7,0,0,0,1.7-1.7,1.6,1.6,0,0,0-.4-1.1,1.8,1.8,0,0,0-1.3-.4Z"/><path d="M387.5,44.5h-4.7V35.4h4.5v1.1H384v2.9h3.1v1H384v3.1h3.5Z"/><path d="M389,42.8a1.7,1.7,0,0,0,1,.6l1.3.3c1.2,0,1.9-.5,1.9-1.4a1.4,1.4,0,0,0-.2-.7l-.6-.5-1.3-.8a5,5,0,0,1-1.7-1.2,2.3,2.3,0,0,1-.4-1.4,2.3,2.3,0,0,1,.9-1.8,3.6,3.6,0,0,1,2.2-.6,4.7,4.7,0,0,1,1.9.3v1.3a3.4,3.4,0,0,0-2-.6,1.7,1.7,0,0,0-1.3.4.9.9,0,0,0-.5.9,1.2,1.2,0,0,0,.3.9,5.4,5.4,0,0,0,1.5,1,3.8,3.8,0,0,1,1.8,1.3,1.9,1.9,0,0,1,.5,1.4,1.9,1.9,0,0,1-.8,1.8,3.2,3.2,0,0,1-2.3.7l-1.2-.2-1-.3Z"/><path d="M401.5,36.5H399v8h-1.1v-8h-2.5V35.4h6.1Z"/><path d="M405.7,44.4l5.7-1v.9l-5.4,1Zm4.7,1a10.4,10.4,0,0,0,2.4-2.3,23.2,23.2,0,0,1-.8-5.6h-6.1v-.9H412a12.7,12.7,0,0,1-.1-2h.9v2h4v.9h-4a20.4,20.4,0,0,0,.7,4.8,14.9,14.9,0,0,0,1.7-3.6l.9.4a20.7,20.7,0,0,1-2.2,4.2,3.4,3.4,0,0,0,1.2,1.6c.4.3.7.2.8-.4l.3-1.8.8.3a8.7,8.7,0,0,1-.4,2.1,1,1,0,0,1-1,.9,1.8,1.8,0,0,1-1.3-.5,4,4,0,0,1-1.1-1.4,10.5,10.5,0,0,1-2.2,2Zm-3.7-6.8h4.1v4.1H410v-.5h-2.5V43h-.8Zm3.3.9h-2.5v1.9H410Zm3.7-4.4.4-.6,1.9,1.3-.6.7Z"/><path d="M421.6,43.9c0-.2,0-.4.2-.5s.3-.2.5-.2.4,0,.5.2.2.3.2.5a.7.7,0,0,1-.2.6l-.5.2-.5-.2A.7.7,0,0,1,421.6,43.9Z"/><path d="M432.1,44.5h-1.3l-4.4-7.1-.3-.5h0v7.6H425V35.4h1.4l4.3,7,.4.6h0a4.2,4.2,0,0,1-.1-1.3V35.4h1.1Z"/><path d="M439.3,44.5h-4.7V35.4h4.5v1.1h-3.4v2.9h3.2v1h-3.2v3.1h3.6Z"/><path d="M446.4,36.5h-2.5v8h-1.1v-8h-2.5V35.4h6.1Z"/><path d="M447,46.6a8.5,8.5,0,0,0,1.9-5.6,8.6,8.6,0,0,0-1.9-5.6h1a9.3,9.3,0,0,1,1.9,5.7,8.5,8.5,0,0,1-1.9,5.5Z"/><path d="M27.1,103a8.2,8.2,0,0,1-1.9-5.5,8.7,8.7,0,0,1,1.9-5.7h1.1a8.4,8.4,0,0,0-2,5.6,8,8,0,0,0,2,5.6Z"/><path d="M28.8,92.4h3.4a8.8,8.8,0,0,0,.5-1.5l1,.3a6.1,6.1,0,0,1-.5,1.2h6.9v.8H32.9a21.1,21.1,0,0,1-1.6,3v6.2h-1v-5A10.1,10.1,0,0,1,29,99l-.6-.9a16,16,0,0,0,3.4-4.9h-3Zm2.9,8.3h3.6V97.2h-3v-.8h3V94h1v2.4h3.1v.8H36.3v3.5h3.8v.8H31.7Z"/><path d="M48.1,97.4c1.2,1.3,2.3,2.6,3.5,4.1l-.9.6-.9-1.1-7.1.3-.9.2-.5-1,1.2-.9a40.5,40.5,0,0,0,2.3-3.4H40.6v-.8H52.1v.8h-6q-1.8,2.7-3,4.2l6.1-.2-1.8-2.3Zm-6.4-5.6H51v.9H41.7Z"/><path d="M53.3,93.5h4.5V90.9h1v2.6h4.5v5.3h-.9v-.6H58.8v4.3h-1V98.2H54.2v.6h-.9Zm.9,3.8h3.6v-3H54.2Zm8.2-3H58.8v3h3.6Z"/><path d="M64.5,100.7c1.5-.1,3.4-.5,5.8-.9a2.2,2.2,0,0,0,.1.9l-5.7,1Zm4.8,1.1a11.3,11.3,0,0,0,2.6-2.3,19.2,19.2,0,0,1-.9-5.6H64.7V93h6.2V91h.9a12.7,12.7,0,0,0,.1,2H76v.9H71.9a16.5,16.5,0,0,0,.6,4.8,12.2,12.2,0,0,0,1.8-3.6l.9.4a16.9,16.9,0,0,1-2.3,4.2,4.3,4.3,0,0,0,1.3,1.6c.4.3.7.2.8-.4a5.7,5.7,0,0,0,.3-1.8l.9.3a20,20,0,0,1-.4,2.1c-.2.6-.5.9-1.1.9a2.4,2.4,0,0,1-1.3-.5,5.3,5.3,0,0,1-1.1-1.4l-2.3,2ZM65.5,95h4.2v4.1h-.8v-.5H66.3v.8h-.8Zm3.4.9H66.3v1.9h2.6Zm3.8-4.3.5-.6a10,10,0,0,1,1.9,1.2l-.5.7Z"/><path d="M28.5,112.3c.3,1.5-.1,2.3-1.1,2.5a2,2,0,0,1-1.1,0l-.3-1a2.2,2.2,0,0,0,1.1.1c.5-.1.7-.6.5-1.6a4.1,4.1,0,0,0-1-2.1,27.7,27.7,0,0,0,.9-3.3H25.9v9.9H25V106h3.5v.8l-1,3.2A5.5,5.5,0,0,1,28.5,112.3Zm.1-5.1h3.5a7.1,7.1,0,0,0-1-1.4l.8-.5a8.3,8.3,0,0,1,1.1,1.5l-.5.4h3.6v.8H31.3v1.9h3.8c0,2-.1,3.5-.1,4.7s-.7,1.9-1.9,1.9H31.3a4.4,4.4,0,0,0-.2-1h1.8q1.1,0,1.2-1.2c0-.8.1-2,.1-3.7h-3a7.5,7.5,0,0,1-3.1,6.3,7,7,0,0,1-.6-.9,5.5,5.5,0,0,0,2.3-2.8,14,14,0,0,0,.5-5.3H28.6Z"/><path d="M36.5,116c3.4-1.5,5.1-3.6,5.2-6.4s.1-2.8.1-4.1h1c0,1.2-.1,2.7-.1,4.5a7.5,7.5,0,0,0,5.4,5.7l-.8,1a8.2,8.2,0,0,1-5-5c-.6,2.1-2.3,3.8-5.1,5.2Zm.8-8.1.8-.6c.8,1.1,1.6,2.2,2.5,3.6l-.9.6A37.1,37.1,0,0,0,37.3,107.9Zm6.4,3a18.7,18.7,0,0,0,2.6-3.5l.9.5a33.8,33.8,0,0,1-2.7,3.6Z"/><path d="M48.4,113.8l1.6-.3v-4.3H48.6v-.8H50v-3h.8v3h1.4v.8H50.8v4.2l1.4-.3v.8l-3.6.8Zm3.6-4.5h3.6v-2H52.5v-.8h3.1v-1.1h.9v1.1h3v.8h-3v2H60v.8H52Zm.6,1.5h6.9v6.1h-.8v-.7H53.4v.7h-.8ZM53,108l.6-.6,1.4,1.2-.6.6A7.5,7.5,0,0,0,53,108Zm5.7,3.6H53.4v3.9h5.3Zm-4.4.7h3.5v2.6h-.7v-.3H55v.3h-.7Zm2.8.6H55v1h2.1Zm0-4.3,1.7-1.2.6.6-1.7,1.2Z"/><path d="M62.7,109.7a20.8,20.8,0,0,1-.3,4.4,9.1,9.1,0,0,1-1.4,2.8l-.6-.8a8.6,8.6,0,0,0,1.1-2.4,14.6,14.6,0,0,0,.3-3.4v-3.9c3.4-.1,6.4-.4,9-.7l.6,1-8.7.6v1.5H72v.9Zm1.1,1.9h7.1v5.3H70v-.8H64.8v.8h-1Zm6.2.9H64.8v2.7H70Z"/><path d="M72.4,117.4a8.5,8.5,0,0,0,2-5.6,8.9,8.9,0,0,0-2-5.6h1a8.3,8.3,0,0,1,2,5.7,7.6,7.6,0,0,1-2,5.5Z"/><path d="M149,106.3a7.9,7.9,0,0,1-2-5.6,8.2,8.2,0,0,1,2-5.6h1a8.9,8.9,0,0,0-2,5.6,8.7,8.7,0,0,0,2,5.6Z"/><path d="M150.2,101.6a12.7,12.7,0,0,0,1.8-4.2h-1.7v-.8h1.8V94.3h.8v2.3h1.6v.8h-1.6v2l.5-.5,1.4,1.3-.7.6a7.1,7.1,0,0,0-1.2-1.3v6.2h-.8V99.4a10.6,10.6,0,0,1-1.5,3.2A4.2,4.2,0,0,0,150.2,101.6Zm5.4-1.3.9.4-1.9,3.8-.9-.4A26.8,26.8,0,0,0,155.6,100.3Zm-1.1-1.9h7.3v.8h-3.2v4.9c0,1-.5,1.5-1.4,1.5h-1.5c-.1-.3-.1-.6-.2-1H157c.5,0,.7-.3.7-.9V99.2h-3.2ZM155,95h6.3v.8H155Zm4.4,5.7.8-.4c.7,1.5,1.4,2.7,1.8,3.8l-.9.4Z"/><path d="M163.1,94.9l2,2.4a2.1,2.1,0,0,0-.8.6c-.6-.8-1.3-1.6-1.9-2.5Zm1,4.8.9.4-1.6,4.8-1-.4C163,103,163.6,101.4,164.1,99.7Zm.6-.7a16.4,16.4,0,0,0,2.8-4.8l.8.3c-.2.6-.5,1.2-.7,1.7h6.1V97h-2.8v1.8h2.5v.8h-2.5v1.7h2.5v.9h-2.5v1.9h3v.7h-6.6v1h-.9V98.3l-1,1.4Zm2.6-.2H170V97h-2.7Zm0,2.5H170V99.6h-2.7Zm0,2.8H170v-1.9h-2.7Zm2.1-9.5.8-.5,1.1,1.4-.9.6A9.7,9.7,0,0,0,169.4,94.6Z"/><path d="M174.3,104l5.8-.9c0,.4.1.7.1.9l-5.7,1Zm4.8,1.1a14.3,14.3,0,0,0,2.6-2.3,19.2,19.2,0,0,1-.9-5.6h-6.3v-.9h6.3a12.7,12.7,0,0,1-.1-2h.9c0,.7.1,1.4.1,2h4.1v.9h-4.1a20.9,20.9,0,0,0,.6,4.8,12.2,12.2,0,0,0,1.8-3.6l1,.4a21,21,0,0,1-2.4,4.2,4.3,4.3,0,0,0,1.3,1.6c.5.3.7.1.9-.4a11,11,0,0,0,.2-1.8l.9.3a20,20,0,0,1-.4,2.1c-.2.6-.5.9-1.1.9a2.4,2.4,0,0,1-1.3-.5,7.6,7.6,0,0,1-1.1-1.4l-2.3,2Zm-3.8-6.8h4.2v4.1h-.8v-.5h-2.5v.8h-.9Zm3.4.9h-2.5v1.9h2.5Zm3.8-4.3.5-.7,1.9,1.3-.5.7Z"/><path d="M198,104.2h-1.3l-1-2.5H192l-.9,2.5h-1.3l3.4-9.1h1.3Zm-2.6-3.5L194,96.9a3.5,3.5,0,0,1-.1-.6h-.1a3.5,3.5,0,0,1-.1.6l-1.4,3.8Z"/><path d="M200.4,95.1v9.1h-1.1V95.1Z"/><path d="M206,97.7h2.3v-2h-2.7v-.8h3.5V99h-.8v-.5h-1.6l-.2,1.8H209a29.9,29.9,0,0,1-.2,3.7c-.1,1-.6,1.6-1.6,1.6H206c-.1-.2-.1-.6-.2-.9h1.3a.7.7,0,0,0,.8-.8,23,23,0,0,0,.2-2.8h-2.5Zm9,5.6.8-.3c.5.8.9,1.6,1.3,2.4l-.9.5a3.6,3.6,0,0,0-.4-.9l-6.5.4v-.9l3.4-.2v-1.7h-2v.4h-.9V99.3h2.9V98h-1.5v.5h-.9V94.9h5.7v3.6h-.8V98h-1.6v1.3h2.9v3.3h-2.9v1.7h2Zm-4.4-1.5h2v-1.7h-2Zm4.5-6.1h-4v1.5h4Zm.4,6.1v-1.7h-2v1.7Z"/><path d="M217.3,100a17.4,17.4,0,0,0,3-5.7l1.1.3a22.4,22.4,0,0,1-1.3,2.7v8.4h-.9V99.1l-1.4,2Zm3.3,1.5a13.8,13.8,0,0,0,2.9-1.7V94.5h1v4.6a17.2,17.2,0,0,0,3.2-3.4l.9.7a19,19,0,0,1-4.1,3.9v3.3c0,.6.3.8.9.8h1.4c.6,0,.9-.2,1-.7s.1-1.2.2-1.9l1,.4c-.1.6-.1,1.2-.2,1.8a1.5,1.5,0,0,1-1.7,1.3h-2c-1.1,0-1.6-.5-1.6-1.5V101a17.1,17.1,0,0,1-2.3,1.3Z"/><path d="M229.3,106.3a8.8,8.8,0,0,0,0-11.2h1a8.5,8.5,0,0,1,2,5.6,8.3,8.3,0,0,1-2,5.6Z"/><path d="M282.5,87.4l.6.7a29,29,0,0,1-3.3,2,2.1,2.1,0,0,0-.6-.8A13.5,13.5,0,0,0,282.5,87.4Zm4.9-2.7a23,23,0,0,1,2.8,2.3l-.6.6-.8-.7h-3.1v1.8c0,1-.5,1.4-1.5,1.4h-1.5a2.9,2.9,0,0,0-.2-.9H284a.7.7,0,0,0,.8-.8V87.1h-2.3l-1.4.2-.3-.9,1.6-.6,2.1-1.1h-1.8l-1,.2-.3-.8,1-.5,1.6-1.2h-3.4V84h-.9V81.8h4.9V80.7H280v-.8h4.6V78.8h1v1.1h4.6v.8h-4.6v1.1h4.9V84h-.9V82.6h-4.5a17,17,0,0,1-2.3,1.7h2.8l1.5-1,.7.5-5,2.8,5.2-.3-1.2-1Zm-.2,2.8,3.7,1.8-.6.8a36.9,36.9,0,0,0-3.5-1.9Z"/><path d="M293.1,84.9h4.8c-.1,1.6-.2,2.7-.3,3.4a1.7,1.7,0,0,1-1.9,1.8h-2.5A4.3,4.3,0,0,0,293,89h2.5a1.1,1.1,0,0,0,1.2-1.1c.1-.5.1-1.2.2-2.2h-5l.7-3.6h4.3v-2h-5v-.8h5.9v4.1h-.9v-.4h-3.5Zm7.7-6h1V90.4h-1Z"/><path d="M303.2,87.1a14.7,14.7,0,0,0,2.1-3.9h-2v-.8h2.2V80.5l-1.8.3-.3-.8,4.7-.8.3.8-2,.4v2h2.2v.8h-2.2v1.5l.4-.4a15.4,15.4,0,0,1,1.9,1.7l-.7.6L306.4,85v5.4h-.9V84.8a13.2,13.2,0,0,1-1.8,3.3Zm6-6.8h5.2v9.8h-1V88.9h-3.3v1.2h-.9Zm4.2.8h-3.3v7h3.3Z"/><path d="M319.3,87.7l.6.8a37,37,0,0,1-4.2,1.9l-.4-.8A30.3,30.3,0,0,0,319.3,87.7Zm5.5-8.8v1.4h1.8v.9h-1.8v5.4h2.1v.9H315.3v-.9h2V81.2h-1.8v-.9h1.8V78.9h.9v1.4h5.7V78.9Zm-6.6,3.6h5.7V81.2h-5.7Zm0,2h5.7V83.3h-5.7Zm0,2.1h5.7V85.4h-5.7Zm4,1.9.5-.8a32.3,32.3,0,0,1,4.2,1.8l-.5.9A26.8,26.8,0,0,0,322.2,88.5Z"/><path d="M285.2,98.8a18.2,18.2,0,0,0,2.7-5.6l1,.3a20.8,20.8,0,0,1-1.3,3v8.2h-.9V98.1a6.6,6.6,0,0,1-1.2,1.7Zm7.1-5.5h.9v3l3.1-.7c-.1,1.7-.1,2.9-.2,3.6a2.1,2.1,0,0,1-.3,1.3,1.2,1.2,0,0,1-1.1.4h-1c0-.3-.1-.6-.1-1h1q.6,0,.6-.9a18.5,18.5,0,0,0,.1-2.5l-2.1.5v5.2h-.9v-5l-2,.5v4.7a.9.9,0,0,0,1,1h3.3c.7,0,1.1-.2,1.2-.8a9,9,0,0,0,.2-1.8l1,.4q-.2,1-.3,1.8c-.2.9-.9,1.3-2,1.3h-3.6a1.5,1.5,0,0,1-1.7-1.7V98l-1,.3-.2-.9,1.2-.3V94.7h.9v2.2l2-.4Z"/><path d="M297.2,103c1.5-.2,2.9-.6,4.3-.9a2.8,2.8,0,0,0-.1.9l-3.9.9Zm1.6-2.7,2.5-.4a2.8,2.8,0,0,1-.1.9l-3.5.5-.2-.9a14.7,14.7,0,0,0,1.8-2.4h-1.8l-.2-.8a22.4,22.4,0,0,0,2.2-4.2l.9.4a26.8,26.8,0,0,1-2.1,3.7h1.4l.9-1.5.8.4C300.5,97.6,299.7,99,298.8,100.3Zm3-2.5h2.8V95.9h-3.2v-.8h3.2V93.2h1v1.9h3.2v.8h-3.2v1.9h2.8v.8h-6.6Zm.2,2.2h6.2v4.8h-.9V104h-4.4v.8H302Zm5.3.8h-4.4v2.4h4.4Z"/><path d="M309.2,100.7a15.7,15.7,0,0,0,1.8-4.2h-1.7v-.8H311V93.4h.8v2.3h1.5v.8h-1.5v1.6l.3-.4,1.7,1.6-.7.6-1.3-1.4v6.3H311V98.7a14,14,0,0,1-1.4,3A3,3,0,0,0,309.2,100.7Zm3.9-3.2a15.6,15.6,0,0,0,2.1-4.3l.9.3c-.2.6-.5,1.1-.7,1.6h5.1c-.1,3.9-.2,6.4-.3,7.4a2.2,2.2,0,0,1-.5,1.6,2.5,2.5,0,0,1-1.7.5h-2a4.4,4.4,0,0,0-.2-1l2.1.2a1.1,1.1,0,0,0,1.4-1.4c.1-1,.2-3.2.2-6.4H315a19.6,19.6,0,0,1-1.2,2.1A1.8,1.8,0,0,0,313.1,97.5Zm3.3,1.5.8-.4,1.7,3.2-.8.5-.3-.7-3,.2-1,.2-.4-.8.6-.7a25.1,25.1,0,0,0,1.9-3.7l.9.4c-.5,1-1.2,2.3-2.1,3.8h2.7A17.4,17.4,0,0,0,316.4,99Z"/><path d="M372.7,123.6a8.2,8.2,0,0,1-1.9-5.5,8.7,8.7,0,0,1,1.9-5.7h1a9,9,0,0,0-.1,11.2Z"/><path d="M381.5,121.5h-1.4l-1.4-2.5a4.9,4.9,0,0,0-.8-1,1.2,1.2,0,0,0-.9-.3h-.8v3.8h-1.1v-9.1h2.7a2.7,2.7,0,0,1,2,.7,2.5,2.5,0,0,1,.7,1.8,2.4,2.4,0,0,1-2,2.4h0l.7.5a6.4,6.4,0,0,1,.6,1Zm-5.3-8v3.2h1.4a1.7,1.7,0,0,0,1.7-1.7,1.6,1.6,0,0,0-.4-1.1,1.8,1.8,0,0,0-1.3-.4Z"/><path d="M387.5,121.5h-4.7v-9.1h4.5v1.1H384v2.9h3.1v1H384v3.1h3.5Z"/><path d="M389,119.8a1.7,1.7,0,0,0,1,.6l1.3.3c1.2,0,1.9-.5,1.9-1.4a1.4,1.4,0,0,0-.2-.7l-.6-.5-1.3-.8a5,5,0,0,1-1.7-1.2,2.3,2.3,0,0,1-.4-1.4,2.3,2.3,0,0,1,.9-1.8,3.6,3.6,0,0,1,2.2-.6,4.7,4.7,0,0,1,1.9.3v1.3a3.4,3.4,0,0,0-2-.6,1.7,1.7,0,0,0-1.3.4.9.9,0,0,0-.5.9,1.2,1.2,0,0,0,.3.9,5.4,5.4,0,0,0,1.5,1,3.8,3.8,0,0,1,1.8,1.3,1.9,1.9,0,0,1,.5,1.4,1.9,1.9,0,0,1-.8,1.8,3.2,3.2,0,0,1-2.3.7l-1.2-.2-1-.3Z"/><path d="M401.5,113.5H399v8h-1.1v-8h-2.5v-1.1h6.1Z"/><path d="M405.7,121.4l5.7-1v.9l-5.4,1Zm4.7,1a10.4,10.4,0,0,0,2.4-2.3,23.2,23.2,0,0,1-.8-5.6h-6.1v-.9H412a12.7,12.7,0,0,1-.1-2h.9v2h4v.9h-4a20.4,20.4,0,0,0,.7,4.8,14.9,14.9,0,0,0,1.7-3.6l.9.4a20.7,20.7,0,0,1-2.2,4.2,3.4,3.4,0,0,0,1.2,1.6c.4.3.7.2.8-.4l.3-1.8.8.3a8.7,8.7,0,0,1-.4,2.1,1,1,0,0,1-1,.9,1.8,1.8,0,0,1-1.3-.5,4,4,0,0,1-1.1-1.4,10.5,10.5,0,0,1-2.2,2Zm-3.7-6.8h4.1v4.1H410v-.5h-2.5v.8h-.8Zm3.3.9h-2.5v1.9H410Zm3.7-4.4.4-.6,1.9,1.3-.6.7Z"/><path d="M421.6,120.9c0-.2,0-.4.2-.5s.3-.2.5-.2.4,0,.5.2.2.3.2.5a.7.7,0,0,1-.2.6l-.5.2-.5-.2A.7.7,0,0,1,421.6,120.9Z"/><path d="M432.1,121.5h-1.3l-4.4-7.1-.3-.5h0v7.6H425v-9.1h1.4l4.3,7,.4.6h0a4.2,4.2,0,0,1-.1-1.3v-6.3h1.1Z"/><path d="M439.3,121.5h-4.7v-9.1h4.5v1.1h-3.4v2.9h3.2v1h-3.2v3.1h3.6Z"/><path d="M446.4,113.5h-2.5v8h-1.1v-8h-2.5v-1.1h6.1Z"/><path d="M447,123.6a8.5,8.5,0,0,0,1.9-5.6,8.8,8.8,0,0,0-1.9-5.6h1a9.3,9.3,0,0,1,1.9,5.7,8.5,8.5,0,0,1-1.9,5.5Z"/><path d="M483.4,58.9V51.1a1.8,1.8,0,0,1-.8.6l-1.2.5V51a4.7,4.7,0,0,0,1.5-.6l1.2-.8h.4v9.3Z"/><path d="M487.9,58.3a.7.7,0,0,1,.2-.6l.5-.2.5.2a.7.7,0,0,1,.2.6c0,.2,0,.4-.2.5l-.5.2-.5-.2C487.9,58.7,487.9,58.5,487.9,58.3Z"/><path d="M493.2,48.9h.9V60.4h-.9V56.8l-1.4.9-.6.5-.6-.8a1.5,1.5,0,0,0,.3-1V50.6h.9v6l1.4-.8Zm1,5a19.7,19.7,0,0,0,2.1-5.1l.9.3c-.2.7-.5,1.4-.7,2.1h4.9v.9h-1.3a11.2,11.2,0,0,1-1.7,5.5,8.7,8.7,0,0,0,3.2,1.8l-.6,1a9.9,9.9,0,0,1-3.2-2.1,10.6,10.6,0,0,1-3,2.2l-.6-.8a12.9,12.9,0,0,0,3-2.1,8,8,0,0,1-1.7-4.2,7.5,7.5,0,0,1-.7,1.2Zm5-1.8h-3a8.4,8.4,0,0,0,1.6,4.8A10,10,0,0,0,499.2,52.1Z"/><path d="M502.4,56.7h4.9v-.8h.8v.8h4.8v.8H509a11.1,11.1,0,0,0,4.4,2l-.6.8a11.4,11.4,0,0,1-4.7-2.6v2.7h-.8V57.7a12.8,12.8,0,0,1-4.7,2.6l-.6-.7a11.9,11.9,0,0,0,4.4-2.1h-4Zm5-7.5.7-.4L509,50l-.6.3h4.4v.8h-4.3v.8h3.8v.7h-3.8v.8h3.8v.7h-3.8V55h4.3v.7h-8.2v.4h-.8V52l-1.2,1.2-.5-.8a10.6,10.6,0,0,0,2.7-3.5l.8.4-.6,1h3.2A10.5,10.5,0,0,1,507.4,49.2Zm-2.8,2.7h3.1v-.8h-3.1Zm0,1.5h3.1v-.8h-3.1Zm0,1.6h3.1v-.9h-3.1Z"/><path d="M519.2,60.3V56.5H516a8.3,8.3,0,0,1-1.4,4.1,2.7,2.7,0,0,0-.7-.8,8.2,8.2,0,0,0,1-2.4,17.3,17.3,0,0,0,.3-3.6V49.6h9.2v9.3c0,1-.5,1.4-1.3,1.4h-1.8c0-.3-.1-.6-.1-1h1.6a.7.7,0,0,0,.7-.7V56.5h-3.4v3.8ZM516,55.7h3.2V53.5h-3.1A16.2,16.2,0,0,1,516,55.7Zm.1-5.3v2.2h3.1V50.4Zm7.4,0h-3.4v2.2h3.4Zm-3.4,5.3h3.4V53.5h-3.4Z"/><path d="M530.3,49.3l.8-.5a7.6,7.6,0,0,1,1.1,1.4l-.5.4h4.2v5.2H535v-.6h-7.2a9.9,9.9,0,0,1-1.6,5.4l-.7-.8a8.6,8.6,0,0,0,1.5-5.5V50.6h4.3A6.4,6.4,0,0,0,530.3,49.3Zm-2.4,2.1v2.9H535V51.4Z"/><path d="M538.3,54.7h1V52.6h.7v2.1h1.1v.8H540v1.6l1.3-.2a2.5,2.5,0,0,0-.1.8l-1.2.2v2.6h-.7V58l-1.8.3-.2-.9,2-.2V55.5h-1.8v-.8c.3-.9.6-1.9.9-3.2h-1v-.8h1.2c.1-.5.2-1.1.4-1.8l.8.2a12.4,12.4,0,0,0-.4,1.6h2v.8h-2.2C538.8,52.8,538.5,53.8,538.3,54.7Zm7.2-5.7-.2.3a8.3,8.3,0,0,0,3.3,2.9c-.3.3-.4.6-.6.8a7.1,7.1,0,0,1-1.4-1v.6h-3.9v-.5l-1.4,1.1a2.8,2.8,0,0,0-.6-.8,10.7,10.7,0,0,0,3.6-3.4Zm-3.3,11.5h-.7V53.6h3v5.7c0,.7-.3,1.1-.9,1.1h-.9c0-.2-.1-.4-.1-.8h.8c.3,0,.4-.2.4-.5V57.8h-1.6Zm1.6-6.2h-1.6v1.1h1.6Zm-1.6,2.9h1.6V56.1h-1.6Zm2.5-7.3a11.2,11.2,0,0,1-1.8,2h3.5A16.3,16.3,0,0,1,544.7,49.9Zm2.5,3.5h.7v5.7c0,.8-.3,1.3-1,1.3h-1.3c-.1-.3-.1-.6-.2-.9h1.2a.5.5,0,0,0,.6-.6Zm-1.8.5h.8v4.3h-.8Z"/><path d="M552.2,49.6l.8-.6a11.5,11.5,0,0,1,2.7,4.2c1.4,3.2,3,5.1,4.6,5.9l-.8,1c-1.6-1-3.2-3.2-4.6-6.5l-.3-.7a13.4,13.4,0,0,1-4.9,7.3l-.6-.9c2.4-1.6,4-4.2,4.9-7.6A4.9,4.9,0,0,0,552.2,49.6Z"/><path d="M485,72.8a1.4,1.4,0,0,0-1.6-1.6,2,2,0,0,0-1.1.3l-1.1.8V71.2l1-.7a2.8,2.8,0,0,1,1.3-.3,2.9,2.9,0,0,1,1.9.7,2.1,2.1,0,0,1,.7,1.8,3.1,3.1,0,0,1-.4,1.7,5.3,5.3,0,0,1-1.5,1.5l-1.5,1.2-.5.6a1.9,1.9,0,0,0-.2.8h4.4v1h-5.5V79a5.1,5.1,0,0,1,.2-1.3,3.4,3.4,0,0,1,.7-1.1l1.5-1.2a9.2,9.2,0,0,0,1.4-1.3A2.8,2.8,0,0,0,485,72.8Z"/><path d="M487.9,78.9c0-.2,0-.4.2-.5a.6.6,0,0,1,1,0c.2.1.2.3.2.5s0,.4-.2.5-.3.2-.5.2-.4,0-.5-.2S487.9,79.1,487.9,78.9Z"/><path d="M500.1,75.9l.6.9-2.5,1.3a8.4,8.4,0,0,0,3.3,1.5l-.6.9a7.6,7.6,0,0,1-5.2-4.7,9.3,9.3,0,0,1-1.3,1.5v2.5l2.7-1a3.8,3.8,0,0,0,.1,1l-2.8,1-.6.3-.6-.8a1,1,0,0,0,.4-.7V78a17.8,17.8,0,0,1-2.7,1.7l-.6-.9a10.7,10.7,0,0,0,4.6-3.3h-4.5v-.8h5.1V73.5h-4.2v-.8h4.2V71.5h-4.7v-.8h4.7V69.4h.9v1.3h4.7v.8h-4.7v1.2h4.2v.8h-4.2v1.2h5v.8h-5a6.7,6.7,0,0,0,1.2,2A14.8,14.8,0,0,0,500.1,75.9Z"/><path d="M506.8,80h6.5a3.6,3.6,0,0,1-.4.9c-2.5.1-4.5,0-6.2,0a3.2,3.2,0,0,1-2.8-1.3,5.3,5.3,0,0,0-1.3,1.5l-.5-1a7.9,7.9,0,0,1,1.4-1.3V74.6h-1.3v-.9h2.2v5.2A3.4,3.4,0,0,0,506.8,80Zm-3.6-10.4,1.7,2.3-.8.6a18.8,18.8,0,0,0-1.6-2.3Zm2.2,2.5h3.2V69.6h.8v2.5h3.4v.8h-3.4v1.6l.4-.5,3.4,3-.6.8c-1-1-2-2-3.2-3v4.6h-.8V74.1a21,21,0,0,1-3.1,4.1,4.6,4.6,0,0,0-.7-.7,17.5,17.5,0,0,0,3.5-4.6h-2.9Zm4.8-1.7.5-.7,1.7,1.2-.6.8Z"/><path d="M513.8,77.8a14.4,14.4,0,0,0,2-3.9h-1.9v-.8H516V71.2l-1.8.3a1.9,1.9,0,0,0-.2-.8l4.5-.8.3.8-1.9.4v2H519v.8h-2.1v1.5l.4-.4a13.7,13.7,0,0,1,1.7,1.7l-.6.6-1.5-1.6v5.4H516V75.5a10.6,10.6,0,0,1-1.8,3.3Zm5.7-6.9h5v9.9h-.9V79.6h-3.1v1.2h-1Zm4.1.9h-3.1v7h3.1Z"/><path d="M527.1,72.1h2.4c.2-.8.3-1.7.5-2.6h.9c-.1.9-.3,1.7-.4,2.5h6.2V73h-6.5a8.3,8.3,0,0,1-.4,1.5h5.6v.8a8.6,8.6,0,0,1-2.3,3.3,8.7,8.7,0,0,0,3.7,1.4l-.8,1a17.9,17.9,0,0,1-3.7-1.8,13.9,13.9,0,0,1-4.2,1.9l-.6-.9a20.2,20.2,0,0,0,4.1-1.5,7,7,0,0,1-2.1-3.4,13.1,13.1,0,0,1-3.4,5.3l-.6-.8a14,14,0,0,0,3.8-6.8h-3.1v-.9c.3-.7.5-1.5.8-2.2l.9.3C527.6,70.8,527.4,71.5,527.1,72.1Zm7.3,3.2h-4.1a6.1,6.1,0,0,0,2,2.8A6.3,6.3,0,0,0,534.4,75.3Zm-1.7-5,.5-.7,2.1,1.5-.6.8Z"/><path d="M542,80h6.5l-.3.9c-2.7.1-4.8.1-6.2,0a3.4,3.4,0,0,1-2.9-1.3,7.9,7.9,0,0,0-1.3,1.5l-.5-1,1.4-1.3V74.6h-1.3v-.9h2.2v5.2A3.1,3.1,0,0,0,542,80Zm-3.5-10.4,1.7,2.3-.8.6a18.8,18.8,0,0,0-1.6-2.3Zm1.9,5.1h3.4v-2h-3v-.8h3.9a24.5,24.5,0,0,0,1.6-2.4l.9.6-1.5,1.8h2.4v.8h-3.4v2h3.6v.8h-3.7a1.3,1.3,0,0,1-.1.6c1.2.8,2.4,1.6,3.5,2.5l-.6.8-3.2-2.5a5.8,5.8,0,0,1-3,2.7l-.6-.8c1.9-.8,3-1.9,3.1-3.3h-3.3Zm1.2-4.7.7-.5,1.3,1.6-.7.6Z"/><path d="M552.6,78.1c0,.4.1.7.1,1l-2.1,1.5-.5-.7a1.4,1.4,0,0,0,.4-1.1V74.4h-1.4v-.9h2.3V79Zm-2.2-8.3,1.6,1.8-.8.7-1.5-1.9Zm1.7,3.8h3.6v-.8h-2.9V72h2.9v-.8h-3.3v-.7h3.3V69.4h.9v1.1h3.5v.7h-3.5V72h3.2v.8h-3.2v.8h3.7v.7h-8.2Zm1.8,7.4h-.8V75h6.2v4.6c0,.8-.4,1.3-1.2,1.3h-1.7c-.1-.3-.1-.6-.2-.9h1.6c.4,0,.6-.2.6-.7v-.5h-4.5Zm4.5-5.2h-4.5v.8h4.5Zm-4.5,2.3h4.5v-.8h-4.5Z"/><path d="M561.1,71.6H566V69.5h1v2.1h4.9v.9H567v.7a9.2,9.2,0,0,0,1.3,2.4l2.2-2.3.8.7-2.5,2.3a10.9,10.9,0,0,0,3.3,2.7,2.8,2.8,0,0,0-.7.9,11.3,11.3,0,0,1-4.4-4.8v4.3a1.4,1.4,0,0,1-1.6,1.6h-1.5c0-.3-.1-.6-.1-1h1.4c.5,0,.8-.3.8-.9V76.9l-4.6,2.6-.5-1a42.7,42.7,0,0,0,5.1-2.7V72.5h-4.9Zm1.6,1.6,1.9,2.1-.8.6c-.6-.7-1.1-1.4-1.8-2.1Zm5.3-3.1.5-.6,1.7,1.3-.6.7Z"/><path d="M481,98.5a3.1,3.1,0,0,0,2.1.7,2.2,2.2,0,0,0,1.4-.5,1.7,1.7,0,0,0,.5-1.2c0-1.1-.8-1.7-2.4-1.7h-.7v-1h.7c1.4,0,2.1-.5,2.1-1.6s-.5-1.5-1.6-1.5a2.3,2.3,0,0,0-1.7.7V91.3a3.2,3.2,0,0,1,2-.6,2.4,2.4,0,0,1,1.8.7,2,2,0,0,1,.6,1.5,2.1,2.1,0,0,1-1.7,2.3h0a2.5,2.5,0,0,1,1.5.6,2,2,0,0,1,.5,1.5,2.4,2.4,0,0,1-.8,2,3.4,3.4,0,0,1-2.3.8,3.9,3.9,0,0,1-2-.5Z"/><path d="M487.9,99.4c0-.2,0-.4.2-.5a.6.6,0,0,1,1,0c.2.1.2.3.2.5s0,.4-.2.5-.3.2-.5.2-.4,0-.5-.2S487.9,99.6,487.9,99.4Z"/><path d="M493.2,90.2a14.2,14.2,0,0,1-.5,2.2h3v.9a10.7,10.7,0,0,1-1.7,5.2,4.2,4.2,0,0,0,2.5,1.5,25.1,25.1,0,0,0,5.1.2,3,3,0,0,0-.4,1,21.8,21.8,0,0,1-4.8-.3,5,5,0,0,1-2.9-1.6,10.4,10.4,0,0,1-2.3,2.4l-.8-.7a9.6,9.6,0,0,0,2.5-2.4,11.9,11.9,0,0,1-1.2-3.2c-.3.6-.5,1.1-.8,1.6l-.6-.8a21.9,21.9,0,0,0,2-6.1Zm1.6,3.1h-2.4a1.9,1.9,0,0,1-.2.8,10.1,10.1,0,0,0,1.3,3.6A10.3,10.3,0,0,0,494.8,93.3Zm2.3-3.2h1v4l.4-.6a24.3,24.3,0,0,1,2.9,2.2l-.6.8-2.7-2.3v5.5h-1Z"/><path d="M502,99.6l1.7-.4V95.6h-1.4v-.8h1.4V91.9h-1.5V91H506v.9h-1.5v2.9h1.4v.8h-1.4v3.3l1.5-.4a2.2,2.2,0,0,0,.1.9l-3.8,1.2Zm3.6.7h3.5V98.6h-2.9v-.8h2.9V96.2h-1.8v.5h-.8V90.6h6.1v6.1h-.8v-.5h-1.9v1.6h2.9v.8h-2.9v1.7h3.4v.8h-7.7Zm1.7-7.3h1.8V91.4h-1.8Zm0,2.4h1.8V93.8h-1.8Zm4.5-4h-1.9V93h1.9Zm-1.9,4h1.9V93.8h-1.9Z"/><path d="M514.4,91.6h2.7v8.1h-.8v-.9h-1.1v1.1h-.8Zm1.9.8h-1.1V98h1.1Zm1.7-.7h2l.6-1.7.9.2-.6,1.5h3.4v8.4a1.2,1.2,0,0,1-1.2,1.4h-1.4c-.1-.3-.1-.6-.2-1h1.4c.4,0,.6-.2.6-.7V92.4h-4.7v9.2H518Zm1.7,2.3h2.9v4.6h-2.2v.5h-.7Zm2.2.7h-1.5v3.2h1.5Z"/><path d="M530.8,90.3l.8-.4.9,1.4-.5.3h4.5v.9h-8.7v2.9a9.8,9.8,0,0,1-1.7,6.2l-.6-.8c.9-1.1,1.3-2.9,1.3-5.4V91.6h4.8Zm-3.1,9.7h5.2a59.5,59.5,0,0,0,1.9-6.4l1,.3c-.8,2.6-1.4,4.6-1.9,6.1h2.8v.9h-9Zm.6-5.8.9-.3c.4,1.5.9,3.1,1.3,4.8l-1,.3Q529.1,96.8,528.3,94.2Zm2.7-.5.9-.3a48,48,0,0,1,1,4.7l-1,.3A43,43,0,0,0,531,93.7Z"/><path d="M503,116.8l4-.9v.9l-3.8.9Zm1.4-2.7,2.5-.4c0,.3-.1.6-.1.9l-3.4.5-.2-.9a10.7,10.7,0,0,0,1.7-2.4h-1.7l-.2-.8a26.2,26.2,0,0,0,2.2-4.2l.8.4c-.8,1.6-1.5,2.9-2,3.7h1.4a10.9,10.9,0,0,1,.8-1.5l.8.4A42.8,42.8,0,0,1,504.4,114.1Zm2.9-2.5h2.8v-1.9H507v-.8h3.1V107h.9v1.9h3.2v.8H511v1.9h2.8v.8h-6.5Zm.3,2.2h5.9v4.8h-.9v-.8h-4.2v.8h-.8Zm5,.8h-4.2V117h4.2Z"/><path d="M526,117.1l-.7.9a9.6,9.6,0,0,1-4.5-3.2v3.8h-.9v-3.8a12.5,12.5,0,0,1-4.5,3.3l-.7-.7a11.1,11.1,0,0,0,4.3-2.8h-4v-.8h4.9v-1.3h-3v.5h-.8v-5.4h8.5V113h-.8v-.5h-3v1.3h5v.8h-4.3A8.3,8.3,0,0,0,526,117.1Zm-9.1-7.4h3v-1.3h-3Zm0,2h3v-1.3h-3Zm6.9-3.3h-3v1.3h3Zm-3,3.3h3v-1.3h-3Z"/><path d="M526.8,114.9h4.9v-.8h.8v.8h4.8v.7h-3.9a11.7,11.7,0,0,0,4.4,2l-.6.8a11.4,11.4,0,0,1-4.7-2.6v2.8h-.8v-2.8a13.7,13.7,0,0,1-4.7,2.7l-.6-.8a11.2,11.2,0,0,0,4.4-2.1h-4Zm5-7.6.7-.4a9.4,9.4,0,0,1,.9,1.2l-.5.4h4.3v.7h-4.3v.8h3.8v.7h-3.8v.8h3.8v.7h-3.8v.9h4.3v.7H529v.5h-.8v-4.2l-1.2,1.2-.5-.7a11.7,11.7,0,0,0,2.7-3.5l.8.3-.6,1.1h3.2ZM529,110h3.1v-.8H529Zm0,1.5h3.1v-.8H529Zm0,1.6h3.1v-.9H529Z"/><path d="M501.7,129.9h5.1v-1.4h-3.1v.6h-.9v-5.7h2.4L504,122l.6-.5,1.5,1.5-.4.4h2.6c.4-.6.9-1.2,1.3-1.9l.9.5-1.1,1.4h2.3v5.7h-.9v-.6h-3.1v1.4h5.1v.8h-5.1v2.5h-.9v-2.5h-5.1Zm2-4.3h3.1v-1.4h-3.1Zm0,2.1h3.1v-1.3h-3.1Zm7.1-3.5h-3.1v1.4h3.1Zm-3.1,3.5h3.1v-1.3h-3.1Z"/><path d="M519.7,121.8l-.2.3a10.6,10.6,0,0,0,5.1,4.5l-.6,1.1a12.6,12.6,0,0,1-5-4.7,14.8,14.8,0,0,1-5.1,4.8,4.1,4.1,0,0,0-.5-.9,14.1,14.1,0,0,0,5.2-5.1Zm-1.2,4.1h1v7.3h-1Z"/><path d="M525.3,123.6h5.4l-.9-1.6.9-.5.9,1.7-.8.4h5.3v.9H534a10.4,10.4,0,0,1-2.5,5.4,15.2,15.2,0,0,0,4.7,2l-.8,1a13.6,13.6,0,0,1-4.7-2.4,15,15,0,0,1-4.8,2.5,3.5,3.5,0,0,1-.7-.9,16.7,16.7,0,0,0,4.8-2.2,12.3,12.3,0,0,1-2.6-5.4h-2.1Zm7.8.9h-4.8a9.3,9.3,0,0,0,2.5,4.8A8.4,8.4,0,0,0,533.1,124.5Z"/><path d="M536.7,129.1a13.3,13.3,0,0,0,1.8-4.2h-1.6v-.8h1.7v-2.4h.8v2.4H541v.8h-1.6v1.7l.4-.3,1.6,1.7-.7.6-1.3-1.5v6h-.8v-6a12.8,12.8,0,0,1-1.5,3.1A4.9,4.9,0,0,0,536.7,129.1Zm4,2.5h6.1v-2h-5.6v-.8h5.6v-2H541V126h2.9v-4.3h.8V126h2.9v7.1h-.8v-.6h-6.1Zm.1-8.9.7-.4c.5.8,1.1,1.6,1.6,2.5l-.8.5Zm4.8,2.1a15.3,15.3,0,0,0,1.6-2.5l.8.5a27.1,27.1,0,0,1-1.7,2.5Z"/></svg>