<svg xmlns="http://www.w3.org/2000/svg" xmlns:xlink="http://www.w3.org/1999/xlink" viewBox="0 0 492.8 180.12"><defs><style>.cls-1{fill:#505050;}.cls-10,.cls-2{fill:#fff;}.cls-3,.cls-7{fill:#ebebeb;}.cls-4{fill:#0072c6;}.cls-5{fill:#008575;}.cls-6{fill:none;}.cls-6,.cls-7,.cls-8{stroke:#000;}.cls-10,.cls-6,.cls-7,.cls-8,.cls-9{stroke-miterlimit:10;}.cls-7{stroke-width:0.75px;}.cls-10,.cls-8{stroke-width:0.05px;}.cls-9{fill:#1e1e1e;stroke:#1e1e1e;stroke-width:0.06px;}.cls-10{stroke:#fff;}</style><symbol id="New_Symbol_44" data-name="New Symbol 44" viewBox="0 0 20 20"><circle class="cls-1" cx="10" cy="10" r="10"/><path class="cls-2" d="M12,14V8.58h1.25V7.45H12V5.6H10.65V7.42H6.85V8.56q.51.58,1.05,1.26a12.66,12.66,0,0,1,1,1.38c.29.47.64.94.93,1.41A13,13,0,0,1,10.55,14ZM10.65,8.58v3.5a19.76,19.76,0,0,0-1.26-2C9,9.51,8.58,9,8.22,8.56Z"/></symbol><symbol id="New_Symbol_43" data-name="New Symbol 43" viewBox="0 0 20 20"><circle class="cls-1" cx="10" cy="10" r="10"/><path class="cls-2" d="M7.39,5.88V7.16a3,3,0,0,1,1.85-.65,2.19,2.19,0,0,1,1.34.38,1.23,1.23,0,0,1,.5,1c0,1-.73,1.43-2.18,1.43H8.24v1.12h.63c1.29,0,1.94.45,1.94,1.35S10.3,13,9.29,13a2.48,2.48,0,0,1-1.58-.6v1.23a4.08,4.08,0,0,0,2,.48,2.64,2.64,0,0,0,1.79-.56,1.76,1.76,0,0,0,.67-1.44A2,2,0,0,0,10.5,10h0a2.19,2.19,0,0,0,1.43-.63A1.89,1.89,0,0,0,12.5,8a2.22,2.22,0,0,0-.85-1.82,3.4,3.4,0,0,0-2.24-.7A3.84,3.84,0,0,0,7.39,5.88Z"/></symbol><symbol id="New_Symbol_41" data-name="New Symbol 41" viewBox="0 0 20 20"><circle class="cls-1" cx="10" cy="10" r="10"/><path class="cls-2" d="M11.19,14.16V5.57H9.83V12.5A4.06,4.06,0,0,0,9,12a9,9,0,0,0-1-.33v1.21l.65.24.63.27.62.34c.21.13.42.27.64.43Z"/></symbol><symbol id="New_Symbol_42" data-name="New Symbol 42" viewBox="0 0 20 20"><circle class="cls-1" cx="10" cy="10" r="10"/><path class="cls-2" d="M12.5,5.57H7.24v.65A2.58,2.58,0,0,0,7.35,7a3.93,3.93,0,0,0,.3.66,4.92,4.92,0,0,0,.44.58c.17.18.35.35.54.52l.59.5c.2.15.39.31.58.47s.35.3.5.45a4.11,4.11,0,0,1,.38.45,2.55,2.55,0,0,1,.24.5,1.84,1.84,0,0,1,.09.57,1.42,1.42,0,0,1-.1.58,1.33,1.33,0,0,1-.29.41,1.17,1.17,0,0,1-.44.26,2.05,2.05,0,0,1-.55.05,2.73,2.73,0,0,1-1.05-.24,3.75,3.75,0,0,1-1-.72v1.31a2.85,2.85,0,0,0,.52.33,2.7,2.7,0,0,0,.55.24,3,3,0,0,0,.59.15,3.64,3.64,0,0,0,.66,0,3.77,3.77,0,0,0,1-.14,2.2,2.2,0,0,0,.79-.44,2,2,0,0,0,.51-.73,2.46,2.46,0,0,0,.18-1,2.88,2.88,0,0,0-.13-.92,2.65,2.65,0,0,0-.36-.76,4,4,0,0,0-.56-.67c-.21-.21-.46-.43-.73-.65l-.67-.53c-.23-.18-.43-.35-.61-.51a3.5,3.5,0,0,1-.44-.5.9.9,0,0,1-.16-.5H12.5Z"/></symbol><symbol id="New_Symbol_45" data-name="New Symbol 45" viewBox="0 0 20 20"><circle class="cls-1" cx="10" cy="10" r="10"/><path class="cls-2" d="M7.58,5.77v1.3a3,3,0,0,1,1.67-.55A2.07,2.07,0,0,1,10.63,7a1.4,1.4,0,0,1,.52,1.16,1.32,1.32,0,0,1-.53,1.12,2.54,2.54,0,0,1-1.52.4,12.8,12.8,0,0,1-1.38-.07L8,14h4.14V12.81h-3L9,10.71h.73A2.89,2.89,0,0,0,11.82,10a2.43,2.43,0,0,0,.68-1.86,2.57,2.57,0,0,0-.84-2,3.29,3.29,0,0,0-2.29-.75A3.57,3.57,0,0,0,7.58,5.77Z"/></symbol></defs><title>OJ104329345</title><g id="bg"><g id="Shapes"><rect class="cls-2" width="492.8" height="180.12"/><rect class="cls-3" y="0.24" width="105" height="155"/><rect class="cls-4" x="369.66" y="59.76" width="105" height="95"/><rect class="cls-5" x="369.66" y="-0.24" width="105" height="55"/><line class="cls-6" x1="104.64" y1="14.76" x2="364.17" y2="14.76"/><polygon points="363.07 18.5 369.55 14.77 363.07 11.03 363.07 18.5"/><line class="cls-6" x1="110.03" y1="44.65" x2="369.55" y2="44.65"/><polygon points="111.12 48.39 104.64 44.65 111.12 40.91 111.12 48.39"/><line class="cls-6" x1="104.64" y1="85.24" x2="364.17" y2="85.24"/><polygon points="363.07 88.97 369.55 85.23 363.07 81.5 363.07 88.97"/><line class="cls-6" x1="110.03" y1="135.86" x2="369.55" y2="135.86"/><polygon points="111.12 139.6 104.64 135.86 111.12 132.12 111.12 139.6"/><path class="cls-6" d="M50.54,155.24v7.26c0,4,4.5,7.27,10,7.28l419.1.76a10,10,0,0,0,10-10V30.27a2.68,2.68,0,0,0-2.81-2.51H480"/><polygon points="481.12 24.02 474.64 27.77 481.12 31.5 481.12 24.02"/><path d="M80.24,38.07A34.78,34.78,0,0,0,52.51,24.4a34.94,34.94,0,1,0,0,69.89,35.37,35.37,0,0,0,21.27-7.21,34.84,34.84,0,0,0,6.59-48.84Zm1.65,29.18c-1.24-.93-3-2.31-5.31-4.14a6.89,6.89,0,0,0-.77-6.4,6.65,6.65,0,0,0-8.55-1.54c-3.06-2.74-6.41-5.89-10-9.44,10.74-5.88,18.63-5.17,19.1-5.12l.33.41A30.24,30.24,0,0,1,81.89,67.25ZM62.7,75.48a6.53,6.53,0,0,0-1.09-2.38,5.93,5.93,0,0,0-8-1.4,55.93,55.93,0,0,1-8.15-5.41l-.71-.6a9.26,9.26,0,0,0-1.31-9c0-.07-.11-.13-.16-.19.6-.64,1.22-1.28,1.89-1.89a57.69,57.69,0,0,1,8-6.46h.08l-.09.07C56.9,51.69,60.92,55,64.72,58a6.55,6.55,0,0,0,.58,6.69A6.68,6.68,0,0,0,74.53,66a3.7,3.7,0,0,0,.42-.37c2.72,1.93,4.88,3.39,6.13,4.24a29.89,29.89,0,0,1-3.4,6.66A32,32,0,0,1,62.7,75.48Zm9.37-39.31a33,33,0,0,0-20.31,3.75C49,37,46.11,33.75,43.16,30.45A30.28,30.28,0,0,1,72.07,36.17ZM34,35.27a30.94,30.94,0,0,1,5.08-3.15,62.37,62.37,0,0,0,8.24,10.37,51.24,51.24,0,0,0-8.4,7.3c-1,1.1-1.94,2.19-2.8,3.29a8.83,8.83,0,0,0-4.27,1,24.31,24.31,0,0,1-3.36-13.39A30.08,30.08,0,0,1,34,35.27ZM24.91,46.53A22.24,22.24,0,0,0,28,58a9.19,9.19,0,0,0,.83,10h0a54.87,54.87,0,0,0-1.38,8.65A30.38,30.38,0,0,1,24.91,46.53ZM52.47,89.85A30,30,0,0,1,33,82.73a41.74,41.74,0,0,1,1.52-11.28,9.23,9.23,0,0,0,6.88-1.53l.77.59A50.12,50.12,0,0,0,50.79,76,5.89,5.89,0,0,0,52,80.52a6.06,6.06,0,0,0,8.48,1.17A6,6,0,0,0,62,80a54.94,54.94,0,0,0,11.72,1.22A28.7,28.7,0,0,1,71,83.56,30.17,30.17,0,0,1,52.47,89.85Z"/><use width="20" height="20" transform="matrix(1, 0, 0, -1, 158.55, 145.79)" xlink:href="#New_Symbol_44"/><use width="20" height="20" transform="matrix(1, 0, 0, -1, 158.55, 97.2)" xlink:href="#New_Symbol_43"/><use width="20" height="20" transform="matrix(1, 0, 0, -1, 158.55, 24.2)" xlink:href="#New_Symbol_41"/><use width="20" height="20" transform="matrix(1, 0, 0, -1, 158.55, 54.09)" xlink:href="#New_Symbol_42"/></g><g id="Text"><polygon class="cls-7" points="192.2 105.73 184.65 111.18 187.53 119.98 196.88 119.98 199.76 111.18 192.2 105.73"/><polygon class="cls-7" points="191.22 150.24 183.66 155.68 186.55 164.49 195.89 164.49 198.78 155.68 191.22 150.24"/><use width="20" height="20" transform="matrix(1, 0, 0, -1, 158.55, 179.2)" xlink:href="#New_Symbol_45"/></g></g><g id="txt"><path class="cls-8" d="M51.39,106.32,49,115.39H46.82l-1.55-5.92a4.64,4.64,0,0,1-.14-1h0a5.36,5.36,0,0,1-.16,1l-1.58,5.92H41.13l-2.42-9.07h2.12l1.34,6.15a7.36,7.36,0,0,1,.13,1h0a5.5,5.5,0,0,1,.18-1l1.69-6.12h2l1.54,6.19a7.44,7.44,0,0,1,.15,1h0a5.47,5.47,0,0,1,.13-1l1.32-6.16Z"/><path class="cls-8" d="M57.78,112.68H53.52c.06,1,.67,1.51,1.81,1.51a3.46,3.46,0,0,0,1.9-.53v1.39a4.75,4.75,0,0,1-2.32.5,3.24,3.24,0,0,1-2.41-.87,3.35,3.35,0,0,1-.86-2.43,3.55,3.55,0,0,1,.92-2.53,3,3,0,0,1,2.29-1,2.8,2.8,0,0,1,2.16.84,3.21,3.21,0,0,1,.77,2.29ZM56,111.5c0-1-.39-1.45-1.18-1.45a1.14,1.14,0,0,0-.86.4,1.89,1.89,0,0,0-.47,1Z"/><path class="cls-8" d="M60.91,114.61v.78H59V105.8h1.9v4.1h0a2.4,2.4,0,0,1,2.12-1.15,2.33,2.33,0,0,1,1.92.86,3.67,3.67,0,0,1,.7,2.36,4,4,0,0,1-.8,2.6,2.61,2.61,0,0,1-2.12,1,2,2,0,0,1-1.82-.94Zm0-2a1.53,1.53,0,0,0,.38,1.07,1.22,1.22,0,0,0,1,.44,1.29,1.29,0,0,0,1.1-.55,2.68,2.68,0,0,0,.4-1.56,2.1,2.1,0,0,0-.36-1.31,1.21,1.21,0,0,0-1-.47,1.33,1.33,0,0,0-1.05.47,1.82,1.82,0,0,0-.41,1.22Z"/><path class="cls-8" d="M35.42,123c.62.48,1.19.94,1.7,1.37l-1,1.23c-.5-.49-1-1-1.59-1.46Zm.31,3.34a13.87,13.87,0,0,0,1.41.57c-.29,1.21-.62,2.69-1,4.43-.51-.18-1-.34-1.51-.49A38.12,38.12,0,0,0,35.73,126.29Zm-.07-6.42c.44.36,1,.82,1.62,1.37l-1.07,1.14c-.56-.59-1.06-1.09-1.5-1.49Zm5.91,3a16.5,16.5,0,0,1-1,4.5c.46.85.91,1.7,1.36,2.55l-1.36.73c-.27-.56-.53-1.1-.79-1.61a13.93,13.93,0,0,1-1.8,2.38c-.39-.46-.75-.86-1.1-1.22A11.6,11.6,0,0,0,39,127.44c-.63-1.27-1.2-2.37-1.71-3.29l1.19-.68c.41.73.81,1.46,1.21,2.21a13.52,13.52,0,0,0,.48-2.8H37.26v-1.34h1.9c-.22-.44-.45-.85-.68-1.22l1.3-.62a13.15,13.15,0,0,1,.88,1.46l-.78.38h2v1.34Zm2,5.69H42.25v-7.46h1.28Zm2.21-8.72v9.89a1.39,1.39,0,0,1-1.48,1.52q-.46,0-1.62.06a15.21,15.21,0,0,0-.36-1.58,8.12,8.12,0,0,0,1.29,0,.67.67,0,0,0,.69-.77v-9.14Z"/><path class="cls-8" d="M51.49,126.57h1.65a9.93,9.93,0,0,1-.29,1.11h.65v1.25a.62.62,0,0,0,.71.71h1.34a1.56,1.56,0,0,0,.66-.12.58.58,0,0,0,.3-.34c0-.15.12-.68.23-1.59.38.18.87.38,1.47.61a13.4,13.4,0,0,1-.4,2.05,1.21,1.21,0,0,1-.59.65,2.42,2.42,0,0,1-1.08.21H53.73c-1.17,0-1.76-.54-1.76-1.62q-1.23,1.62-4.6,1.91c-.32-.64-.58-1.13-.78-1.49a8.31,8.31,0,0,0,3.74-.95A3,3,0,0,0,51.49,126.57Zm-4.28-6.43h1.37v4.09H47.21Zm.54,8.82v-4.31h8.72v4H54.88v-2.57H49.35V129Zm5.39-9.14h1.63c-.12.31-.25.59-.38.87H58V122H55.36c.59.55,1.13,1.08,1.63,1.58l-1.3.92c-.51-.65-1-1.3-1.62-1.94l.76-.56H53.69a11.08,11.08,0,0,1-1.6,2.12,8.42,8.42,0,0,0-1-1.08v1.22H49.56V119.8h1.57V123A11.94,11.94,0,0,0,53.14,119.82Z"/><path class="cls-8" d="M64.82,131.29v-3.8h2.43a5.61,5.61,0,0,1-2.89-1.42,5.38,5.38,0,0,1-3.14,1.42H63.9v3.82H62.54v-.45H60.68v.45H59.32v-3.58l-.52,0a8.48,8.48,0,0,0-.24-1.2c2.4-.06,3.86-.39,4.36-1H58.71v-1.2h4.78a4.85,4.85,0,0,0,.07-.58H65.2a5.07,5.07,0,0,1-.08.58H66.7l-.19-.46,1.5-.18.27.64h1.77v1.2H65.44c.83.64,2.42,1,4.75,1a12.35,12.35,0,0,0-.3,1.2l-.48,0v3.54H68.05v-.45H66.17v.43Zm-5.5-11h4.59v3.31H59.32Zm3.22,8.38H60.68v1h1.86Zm-.06-6.27v-.91H60.75v.91Zm2.35-2.11h4.58v3.31H64.83Zm3.22,8.38H66.17v1h1.88ZM68,122.41v-.91H66.27v.91Z"/><path class="cls-9" d="M185,76.17l1.51-.68V73h-1.42v-.8h1.42V70h.89v2.18h1.5V73h-1.5v2.06c.45-.22.9-.45,1.35-.7,0,.3.05.62.09.94l-1.44.72v4.08q0,1.14-.87,1.23a11.74,11.74,0,0,1-1.37,0c0-.33-.1-.65-.15-1a10,10,0,0,0,1.1.08c.27,0,.4-.15.4-.44V76.46l-1.39.74Zm2.83,4.8a5.45,5.45,0,0,0,1.86-4h.87a7.2,7.2,0,0,1-.24,1.53,3.73,3.73,0,0,0,1.94,1.54V76.55h-3.62v-.77h7.9v.77h-3.4v1.32h2.94v.75h-2.94v1.65a30.58,30.58,0,0,0,3.54,0l-.27.86c-.93,0-1.89,0-2.89,0A4,4,0,0,1,190,79.42a5.81,5.81,0,0,1-1.43,2.1A6.73,6.73,0,0,0,187.81,81Zm1.83-10.5h5.85V75.1h-.84v-.34h-4.16v.34h-.85Zm5,.75h-4.16v1h4.16ZM190.49,74h4.16V73h-4.16Z"/><path class="cls-9" d="M196.94,74.16h11.63V75h-5v4.74c0,1-.51,1.46-1.54,1.47h-1.82q-.08-.48-.18-1.08c.62.06,1.2.1,1.75.1a.7.7,0,0,0,.79-.79V75h-5.6Zm2.59,1.75.86.48a46.16,46.16,0,0,1-2.63,4l-.77-.55A29.47,29.47,0,0,0,199.53,75.91ZM198,70.71h9.5v.87H198Zm7,5.75.78-.53q1.44,1.77,2.79,3.69l-.85.57Q206.3,78.06,205,76.46Z"/><path class="cls-9" d="M211.81,70.06l.77.45c-.37.55-.73,1.06-1.09,1.54v4.5h-.87V73.17q-.63.73-1.2,1.29a6.76,6.76,0,0,0-.6-.64A22.32,22.32,0,0,0,211.81,70.06Zm5.2,7.1v2.45q0,.69.63.69h.78c.5,0,.8-.2.89-.61a13.58,13.58,0,0,0,.24-1.64c.25.12.55.24.9.37-.09.61-.18,1.16-.28,1.62a1.29,1.29,0,0,1-1.43,1.11h-1.37c-.86,0-1.28-.44-1.28-1.33V78h-3.25v.22a2.94,2.94,0,0,1-.72,2.17,6.34,6.34,0,0,1-2.62,1.22,8.09,8.09,0,0,0-.6-.82,6.73,6.73,0,0,0,2.42-1,2,2,0,0,0,.6-1.68v-.94Zm-4.39-1.84h3V73.85h-3.47V73h3.47V71.58q-1.32.08-2.73.12c0-.26-.1-.54-.17-.83,2.52-.06,4.66-.21,6.41-.43l.17.84q-1.33.14-2.79.24V73h3.85v.81H216.5v1.47h3.2v.81h-7.08Z"/><path class="cls-9" d="M220.8,76.24l1.62-.47V73.1h-1.48v-.85h1.48V70h.86v2.24h1.28v.85h-1.28v2.4l1.09-.35a7.51,7.51,0,0,0,.07.91l-1.16.38V80c0,.88-.38,1.33-1.16,1.34-.24,0-.6,0-1.08,0a9.07,9.07,0,0,0-.14-1,9,9,0,0,0,1,.07c.35,0,.53-.2.53-.6V76.73l-1.5.51Zm5.25,1.18h2.41V75.93h-2.73a9.43,9.43,0,0,1-1.66,5.57c-.19-.24-.4-.49-.64-.74q1.47-1.8,1.47-5.54V70.65h6.91V74H231v-.36h-5.23v1.45h2.72V73.9h.85v1.23h3.09v.8h-3.09v1.49h2.43v4h-.84V80.7h-4v.68h-.84Zm4.92-6h-5.23v1.49H231Zm-.07,6.77h-4v1.75h4Z"/><path class="cls-9" d="M207.42,114.75c0,.36.06.71.1,1-.58.41-1.21.89-1.91,1.46a5.33,5.33,0,0,0-.58.55l-.64-.71a1.6,1.6,0,0,0,.42-1.15v-3.75h-1.5v-.85h2.42v4.71C206.29,115.64,206.85,115.2,207.42,114.75Zm-2.92-7.22c.64.63,1.24,1.27,1.8,1.91l-.82.69a20.75,20.75,0,0,0-1.7-2Zm2.46,1.84h3.8a13.61,13.61,0,0,0-.88-1.68l.82-.38c.36.57.68,1.11.94,1.61l-.85.45h4.06v.84h-5.23V112H214c-.08,2.36-.17,4-.25,4.89-.1,1.07-.64,1.6-1.64,1.59-.58,0-1.22,0-1.9,0-.06-.36-.12-.71-.19-1a15.81,15.81,0,0,0,2,.13c.5,0,.79-.29.85-.88.09-.92.16-2.19.22-3.83h-3.45a10.84,10.84,0,0,1-.46,3.15,7.68,7.68,0,0,1-1.93,2.92,5.63,5.63,0,0,0-.75-.69,6.75,6.75,0,0,0,1.8-2.67,10.7,10.7,0,0,0,.39-3.38v-2H207Z"/><path class="cls-9" d="M215.83,109.66h.91v9.19h-.91Zm.59-1.72.66-.6c.43.41,1,1,1.7,1.71l-.76.67C217.35,108.94,216.81,108.35,216.42,107.94Zm2.09,3.09h5v4.69h-4.12v.67h-.85Zm4.13.87h-3.28v2.95h3.28ZM219.5,109v-.88h6.7v9.06c0,1.13-.51,1.7-1.53,1.7l-1.93,0c0-.24-.09-.55-.18-1,.65,0,1.27.07,1.87.07s.86-.31.86-.92V109Z"/><path class="cls-9" d="M233.83,107.51l-.22.3a11.21,11.21,0,0,0,5.27,4q-.4.56-.66,1a14.54,14.54,0,0,1-5.2-4.28,17,17,0,0,1-5.27,4.33c-.17-.27-.37-.56-.61-.87a13.72,13.72,0,0,0,5.48-4.46Zm-3.39,7.67c.82.53,1.68,1.11,2.59,1.73.78-.73,1.68-1.63,2.7-2.71h-7.22v-.88H237v.88c-1,1-2.06,2.12-3.22,3.23l1.17.82-.72.79c-1.53-1.2-3-2.26-4.45-3.18Zm1.27-4.1.7-.55c.61.6,1.17,1.19,1.67,1.76l-.78.65A20.94,20.94,0,0,0,231.71,111.08Z"/><path class="cls-9" d="M243,118.76h-.86v-4.4h-1.26a9.24,9.24,0,0,1-.91,4.57c-.2-.21-.44-.43-.72-.68a8.14,8.14,0,0,0,.77-4v-6.5h.86v3.45H242v-3.79h.85v3.79h.86V112h-2.89v1.67H243Zm.37-2.87h1.43c-.16-.21-.33-.41-.51-.61a4.87,4.87,0,0,0,1.78-1.43h-1.88v-5.23h2c.15-.37.3-.81.46-1.3l.91.28q-.25.57-.48,1h3v5.63h-.82v-.4H247a5.19,5.19,0,0,1-2,2h2.35v-1.5h.85v1.5h2.65v.8h-2.65v2.15h-.85v-2.15h-4Zm1.64-5h1.7v-1.46H245Zm1.68.75H245v1.47h1.43A6,6,0,0,0,246.64,111.6Zm.63,1.47h2V111.6h-1.77A8,8,0,0,1,247.27,113.07Zm2-3.68h-1.75v1.46h1.75Z"/><path class="cls-9" d="M210.49,127.5h-2.55V130h-.88V127.5h-2.54v-.9h2.54v-2.53h.88v2.53h2.55Z"/><path class="cls-9" d="M215.66,131.2H221v-.87h-4.46v-.69H221v-1h-3.17v.42H217v-4.41h4v-.84h-5.28v-.73H221v-.92c-1.42,0-2.89.08-4.41.12-.05-.25-.1-.52-.16-.8,4,0,7.16-.15,9.62-.32l.14.8q-2.08.1-4.35.18v.94h5.32v.73h-5.32v.84h4v4.4h-.82v-.41h-3.2v1h4.47v.69h-4.47v.87h5.32v.73H215.66Zm2.2-4.85H221v-1h-3.17Zm0,1.63H221v-1h-3.17Zm7.21-2.63h-3.2v1h3.2Zm-3.2,2.63h3.2v-1h-3.2Z"/><path class="cls-9" d="M227.58,131.54a7.13,7.13,0,0,0,2.25-4.92l1,.15a10.91,10.91,0,0,1-.43,2A3.61,3.61,0,0,0,233.2,131v-5.15h-5.35V125H239v.88h-4.81v1.9h4.08v.86h-4.08v2.46c1.56,0,3.25,0,5.08,0a6.92,6.92,0,0,0-.34,1c-1.91,0-3.59,0-5,0a4.17,4.17,0,0,1-3.88-2.15,7.86,7.86,0,0,1-1.81,2.63A9.9,9.9,0,0,0,227.58,131.54Zm.69-9.28h5c-.23-.34-.48-.66-.74-1l.89-.48c.31.35.64.74,1,1.18l-.53.28h4.75v2.23h-.93v-1.35h-8.52v1.34h-.92Z"/><path class="cls-9" d="M241.35,132.27h-.92v-9.62h3.46c.19-.58.38-1.19.56-1.82l1,.28c-.2.55-.4,1.06-.6,1.54h5.49v8.24a1.17,1.17,0,0,1-1.33,1.32l-1.78,0c0-.28-.09-.58-.16-.92.67.06,1.24.08,1.71.08s.64-.22.64-.68v-7.16h-8.08Zm1.6-7.07h4.85v4.12h-4v.8H243Zm4,.85h-3.07v2.42h3.07Z"/><path class="cls-9" d="M262.8,127.12q0,3.85-3.49,3.85c-2.23,0-3.35-1.23-3.35-3.71v-5.51h1.18v5.46c0,1.81.76,2.72,2.28,2.72s2.21-.88,2.21-2.64v-5.54h1.17Z"/><path class="cls-9" d="M271.64,130.82h-1.39l-1.5-2.52a3.69,3.69,0,0,0-.83-1A1.49,1.49,0,0,0,267,127h-.85v3.82H265v-9.07h2.77a3.12,3.12,0,0,1,2.07.63,2.24,2.24,0,0,1,.75,1.79,2.39,2.39,0,0,1-2,2.45v0a1.85,1.85,0,0,1,.65.45,7.31,7.31,0,0,1,.71,1Zm-5.46-8V126h1.38a1.86,1.86,0,0,0,1.31-.47,1.64,1.64,0,0,0,.5-1.23,1.36,1.36,0,0,0-.46-1.11,1.94,1.94,0,0,0-1.33-.4Z"/><path class="cls-9" d="M277.61,130.82h-4.79v-9.07H274v8h3.62Z"/><path class="cls-10" d="M402.5,103.21V97.7c0-.51,0-1.15.07-1.91h0a10.4,10.4,0,0,1-.28,1.16L400,103.21h-1.54L396.2,97a11.84,11.84,0,0,1-.29-1.22h-.05c.05.76.07,1.52.07,2.29v5.13h-1.74V94.13H397l2,5.49a7,7,0,0,1,.33,1.27h0a12.71,12.71,0,0,1,.38-1.28l2-5.48h2.74v9.08Z"/><path class="cls-10" d="M406.17,94.64a.89.89,0,0,1,.31-.71,1.15,1.15,0,0,1,.79-.27,1.11,1.11,0,0,1,.79.28.88.88,0,0,1,.31.7,1,1,0,0,1-.31.71,1.25,1.25,0,0,1-1.58,0A.93.93,0,0,1,406.17,94.64Zm.14,8.57V96.73h1.89v6.48Z"/><path class="cls-10" d="M414.75,103a3.91,3.91,0,0,1-1.93.4,3.24,3.24,0,0,1-2.4-.91,3.13,3.13,0,0,1-.92-2.33,3.47,3.47,0,0,1,1-2.61,3.63,3.63,0,0,1,2.62-1,3.31,3.31,0,0,1,1.64.31V98.5a2.31,2.31,0,0,0-1.41-.48,1.86,1.86,0,0,0-1.39.53,2,2,0,0,0-.53,1.45,1.93,1.93,0,0,0,.5,1.4,1.79,1.79,0,0,0,1.35.51,2.63,2.63,0,0,0,1.48-.48Z"/><path class="cls-10" d="M420.22,98.45a1.58,1.58,0,0,0-.84-.2,1.21,1.21,0,0,0-1,.49,2.19,2.19,0,0,0-.38,1.35v3.12h-1.89V96.73H418V98h0a1.72,1.72,0,0,1,1.7-1.33,1.39,1.39,0,0,1,.51.07Z"/><path class="cls-10" d="M420.73,100a3.32,3.32,0,0,1,1-2.52,3.62,3.62,0,0,1,2.57-.91,3.4,3.4,0,0,1,2.49.9,3.25,3.25,0,0,1,.92,2.42,3.61,3.61,0,0,1-6,2.57A3.26,3.26,0,0,1,420.73,100Zm1.92,0c0,1.3.52,1.94,1.58,1.94s1.52-.66,1.52-2-.51-1.9-1.53-1.9a1.41,1.41,0,0,0-1.16.51A2.26,2.26,0,0,0,422.65,100Z"/><path class="cls-10" d="M428.83,101.47a3.72,3.72,0,0,0,1.91.59q1.17,0,1.17-.63c0-.29-.32-.54-1-.74a4,4,0,0,1-1.65-.84,1.69,1.69,0,0,1-.46-1.24,1.72,1.72,0,0,1,.78-1.5,3.46,3.46,0,0,1,2-.54,5.76,5.76,0,0,1,1.71.26v1.49a3.27,3.27,0,0,0-1.66-.44A1.44,1.44,0,0,0,431,98a.48.48,0,0,0-.27.42c0,.3.27.54.82.72a9.64,9.64,0,0,1,1.32.54,1.66,1.66,0,0,1,.9,1.54,1.76,1.76,0,0,1-.8,1.55,3.69,3.69,0,0,1-2.14.56,5.42,5.42,0,0,1-2-.34Z"/><path class="cls-10" d="M434.54,100a3.32,3.32,0,0,1,1-2.52,3.63,3.63,0,0,1,2.58-.91,3.39,3.39,0,0,1,2.48.9,3.25,3.25,0,0,1,.92,2.42,3.41,3.41,0,0,1-.94,2.53,3.92,3.92,0,0,1-5.07,0A3.26,3.26,0,0,1,434.54,100Zm1.92,0c0,1.3.53,1.94,1.58,1.94s1.52-.66,1.52-2S439.05,98,438,98a1.41,1.41,0,0,0-1.16.51A2.26,2.26,0,0,0,436.46,100Z"/><path class="cls-10" d="M446.73,95.08a1.86,1.86,0,0,0-.73-.16c-.65,0-1,.36-1,1.08v.73h1.48v1.41H445v5.07h-1.89V98.14h-1.08V96.73h1.08V95.9a2.28,2.28,0,0,1,.72-1.77,2.7,2.7,0,0,1,1.9-.67,3.37,3.37,0,0,1,1,.13Z"/><path class="cls-10" d="M451.55,103.13a2.76,2.76,0,0,1-1.3.24c-1.37,0-2.06-.73-2.06-2.17V98.14h-1.07V96.73h1.07V95.3l1.88-.53v2h1.48v1.41h-1.48v2.73c0,.69.27,1,.82,1a1.33,1.33,0,0,0,.66-.19Z"/><path class="cls-10" d="M398.62,114.52a13.06,13.06,0,0,0,1.33-3.17H398.7v-1.53h1.35v-2h1.44v2h1.12v1.53h-1.12v1.36l1.44.82-.73,1.33a6.18,6.18,0,0,0-.71-.53v5h-1.44v-4.83a15.91,15.91,0,0,1-1.06,2.2C398.86,115.85,398.74,115.13,398.62,114.52Zm5-1L405,114a35.37,35.37,0,0,1-1.46,3.93,7.92,7.92,0,0,0-1.39-.56A27.44,27.44,0,0,0,403.59,113.57Zm-.94-2.27h7.53v1.53h-2.95v5a1.3,1.3,0,0,1-.34,1,1.57,1.57,0,0,1-1,.38c-.43,0-1,0-1.76,0-.11-.64-.22-1.18-.32-1.63q.62.06,1.11.06c.46,0,.68-.21.68-.64v-4.19h-3Zm.47-2.92h6.62v1.52h-6.62Zm5.82,5.28c.49,1.18,1,2.42,1.42,3.72l-1.44.55c-.45-1.39-.91-2.64-1.37-3.77Z"/><path class="cls-10" d="M414.67,114.93a14.88,14.88,0,0,0,.27,1.73,22.36,22.36,0,0,0-2.48,2.07l-.83-1.07a1.75,1.75,0,0,0,.25-1v-3.78h-1.16v-1.58h2.77v4.55Zm-2-7.13c.5.66,1,1.39,1.56,2.17l-1.5.94c-.47-.82-1-1.58-1.43-2.3Zm3.72,7.29,1.39.91q-1.35,1.81-2.71,3.38c-.39-.36-.84-.73-1.34-1.11A20,20,0,0,0,416.38,115.09Zm-1.51-6.71h6.61v6.33h-6.61Zm5,4.91V109.8h-3.37v3.49Zm0,1.81c.9,1,1.77,2.07,2.62,3.18l-1.45,1c-.79-1.16-1.61-2.28-2.47-3.36Z"/><path class="cls-10" d="M422.82,114h4.77v-4.31h-4.26v-1.54h10.36v1.54h-4.32V114h4.84v1.54h-4.84v3.65h-1.78v-3.65h-4.77Zm.68-3.25,1.23-.83c.75.87,1.52,1.84,2.33,2.9l-1.42.94C424.85,112.61,424.14,111.6,423.5,110.79Zm10.22.12c-.83,1-1.71,2-2.63,2.93l-1.19-1a27,27,0,0,0,2.43-2.89Z"/><path class="cls-10" d="M443.13,109.11q1.8,1.77,3.34,3.46l-1.3,1.1-.92-1.08q-5,.09-8.75.43l-.62-1.39a20.13,20.13,0,0,0,4.57-4l1.53.83q-1.67,1.57-3.51,3.07l5.63-.2L441.91,110ZM436,119.26v-5.49h9v5.49h-1.59v-.69h-5.84v.69Zm7.43-4h-5.84v1.9h5.84Z"/><path class="cls-10" d="M405.56,19.05h-2.11L402.77,17h-3.3l-.67,2.08h-2.1L400,10h2.27Zm-3.25-3.57-1-3.15a3.42,3.42,0,0,1-.14-.79h-.05a3.9,3.9,0,0,1-.16.77l-1,3.17Z"/><path class="cls-10" d="M406.29,16.77a3.82,3.82,0,0,0,2.49.91A2.13,2.13,0,0,0,410,17.4a.82.82,0,0,0,.4-.7,1,1,0,0,0-.32-.69,6,6,0,0,0-1.67-.9c-1.42-.6-2.13-1.47-2.13-2.62a2.32,2.32,0,0,1,1-2,4.28,4.28,0,0,1,2.55-.7,6.25,6.25,0,0,1,2.23.35V12a3.67,3.67,0,0,0-2.14-.63,2.14,2.14,0,0,0-1.14.27.79.79,0,0,0-.43.7.88.88,0,0,0,.3.64,5.06,5.06,0,0,0,1.44.8A4.65,4.65,0,0,1,411.89,15a2.39,2.39,0,0,1,.51,1.53,2.31,2.31,0,0,1-.93,2,4.31,4.31,0,0,1-2.63.69,5.7,5.7,0,0,1-2.55-.5Z"/><path class="cls-10" d="M415.86,15.89v3.16h-1.94V10h3.13c2.25,0,3.38.95,3.38,2.87a2.74,2.74,0,0,1-1,2.23,3.77,3.77,0,0,1-2.56.81Zm0-4.41v2.93h.84c1.13,0,1.7-.5,1.7-1.49s-.56-1.44-1.69-1.44Z"/><path class="cls-10" d="M419.39,18.2a.91.91,0,0,1,.33-.72,1.2,1.2,0,0,1,.8-.28,1.15,1.15,0,0,1,.79.29,1,1,0,0,1,0,1.44,1.16,1.16,0,0,1-.81.28,1.12,1.12,0,0,1-.78-.29A.91.91,0,0,1,419.39,18.2Z"/><path class="cls-10" d="M431.35,19.05h-2l-3.84-5.87a6.34,6.34,0,0,1-.44-.74h0a12.73,12.73,0,0,1,.06,1.45v5.16h-1.84V10h2.11l3.7,5.7q.38.57.45.72h0a10.59,10.59,0,0,1-.05-1.25V10h1.83Z"/><path class="cls-10" d="M438.83,19.05h-5.37V10h5.16v1.58h-3.23V13.7h3v1.57h-3v2.2h3.44Z"/><path class="cls-10" d="M446.68,11.56h-2.59v7.49h-1.94V11.56h-2.59V10h7.12Z"/><path class="cls-10" d="M399.72,33.12a5.79,5.79,0,0,1-2.58.49,4.37,4.37,0,0,1-3.26-1.23,4.48,4.48,0,0,1-1.2-3.27A4.8,4.8,0,0,1,394,25.59a4.65,4.65,0,0,1,3.47-1.37,6.19,6.19,0,0,1,2.22.35v1.87a4,4,0,0,0-2.08-.54,2.77,2.77,0,0,0-2.13.85,3.12,3.12,0,0,0-.8,2.22,3,3,0,0,0,.76,2.15,2.66,2.66,0,0,0,2,.81,4.27,4.27,0,0,0,2.21-.58Z"/><path class="cls-10" d="M400.75,30.24a3.29,3.29,0,0,1,1-2.51,3.59,3.59,0,0,1,2.58-.92,3.39,3.39,0,0,1,2.48.9,3.21,3.21,0,0,1,.92,2.42,3.61,3.61,0,0,1-6,2.57A3.26,3.26,0,0,1,400.75,30.24Zm1.92,0c0,1.29.53,1.94,1.58,1.94s1.52-.67,1.52-2-.51-1.89-1.53-1.89a1.43,1.43,0,0,0-1.16.51A2.26,2.26,0,0,0,402.67,30.22Z"/><path class="cls-10" d="M413.16,28.69a1.68,1.68,0,0,0-.84-.2,1.21,1.21,0,0,0-1,.49,2.19,2.19,0,0,0-.38,1.35v3.12H409V27h1.89v1.22h0a1.74,1.74,0,0,1,1.71-1.33,1.36,1.36,0,0,1,.51.08Z"/><path class="cls-10" d="M419.81,30.74h-4.27c.07,1,.68,1.51,1.82,1.51a3.4,3.4,0,0,0,1.89-.53v1.39a4.72,4.72,0,0,1-2.32.5,3.21,3.21,0,0,1-2.4-.87,3.35,3.35,0,0,1-.86-2.43,3.54,3.54,0,0,1,.91-2.53,3.06,3.06,0,0,1,2.3-1,2.77,2.77,0,0,1,2.15.84,3.21,3.21,0,0,1,.78,2.29Zm-1.76-1.18c0-1-.4-1.45-1.18-1.45a1.13,1.13,0,0,0-.86.4,1.83,1.83,0,0,0-.47,1Z"/><path class="cls-10" d="M436.55,24.38l-2.42,9.07H432l-1.55-5.92a4.64,4.64,0,0,1-.14-1h0a6.35,6.35,0,0,1-.16,1l-1.58,5.92h-2.24l-2.42-9.07H426l1.34,6.15a7.36,7.36,0,0,1,.13,1h0a5.5,5.5,0,0,1,.18-1.05l1.69-6.12h2.05L433,30.57a6.2,6.2,0,0,1,.14,1h0a5.48,5.48,0,0,1,.14-1l1.32-6.16Z"/><path class="cls-10" d="M442.94,30.74h-4.26c.06,1,.67,1.51,1.81,1.51a3.46,3.46,0,0,0,1.9-.53v1.39a4.75,4.75,0,0,1-2.32.5,3.22,3.22,0,0,1-2.41-.87,3.35,3.35,0,0,1-.86-2.43,3.55,3.55,0,0,1,.92-2.53,3,3,0,0,1,2.29-1,2.8,2.8,0,0,1,2.16.84,3.25,3.25,0,0,1,.77,2.29Zm-1.76-1.18c0-1-.39-1.45-1.18-1.45a1.14,1.14,0,0,0-.86.4,1.83,1.83,0,0,0-.47,1Z"/><path class="cls-10" d="M446.07,32.67v.78h-1.9V23.86h1.9V28h0a2.38,2.38,0,0,1,2.12-1.15,2.33,2.33,0,0,1,1.92.86,3.66,3.66,0,0,1,.69,2.36,4,4,0,0,1-.79,2.6,2.61,2.61,0,0,1-2.12,1,2,2,0,0,1-1.82-.94Zm0-2a1.53,1.53,0,0,0,.38,1.07,1.21,1.21,0,0,0,1,.44,1.31,1.31,0,0,0,1.11-.55,2.68,2.68,0,0,0,.39-1.56,2.1,2.1,0,0,0-.36-1.31,1.19,1.19,0,0,0-1-.47,1.3,1.3,0,0,0-1.05.47A1.77,1.77,0,0,0,446,30Z"/><path class="cls-10" d="M412.45,43.18c0,3-.41,5.06-1.21,6.3-.36-.34-.8-.72-1.32-1.13a10.89,10.89,0,0,0,1-5.38V39.29h4.49c-.14-.36-.28-.7-.42-1l1.88-.45c.18.43.38.92.6,1.48h4v1.44h-9Zm-.21,4.08h5.57q.72-2.3,1.69-5.88l1.63.42q-.61,2.3-1.66,5.46h2v1.63h-9.23Zm.28-5,1.4-.6q1,2.25,1.91,4.64l-1.57.59Q413.51,44.69,412.52,42.26Zm2.88-.61,1.47-.44c.41,1.08.86,2.47,1.34,4.18l-1.58.43Q415.94,43.32,415.4,41.65Z"/><path class="cls-10" d="M432.86,47.6a1.72,1.72,0,0,1-.34,1.15,1.5,1.5,0,0,1-1,.48,16.06,16.06,0,0,1-1.84.06,15.52,15.52,0,0,0-.47-1.7l1.31.07a.65.65,0,0,0,.74-.72V45.88h-2.44v3.28h-1.65V45.88h-2.54a6.81,6.81,0,0,1-1,3.61c-.5-.36-1-.69-1.51-1,.63-.86.94-2.38.92-4.58V38.4h9.85Zm-8.21-6.2h2.48V40h-2.48Zm0,3h2.48V42.91h-2.48ZM431.22,40h-2.44V41.4h2.44Zm-2.44,4.42h2.44V42.91h-2.44Z"/><path class="cls-9" d="M190.91,11.41h-1.14V7.68c0-1.3-.48-1.95-1.45-1.95a1.57,1.57,0,0,0-1.24.57,2.11,2.11,0,0,0-.49,1.44v3.67h-1.15V1.82h1.15V6h0a2.34,2.34,0,0,1,2.12-1.22c1.46,0,2.18.88,2.18,2.64Z"/><path class="cls-9" d="M195.86,11.35a2.22,2.22,0,0,1-1,.2c-1.16,0-1.74-.64-1.74-1.93V5.88H192v-1h1.11V3.37L194.25,3V4.93h1.61v1h-1.61V9.42a1.52,1.52,0,0,0,.21.91.86.86,0,0,0,.72.28,1.13,1.13,0,0,0,.68-.22Z"/><path class="cls-9" d="M200.24,11.35a2.18,2.18,0,0,1-1,.2c-1.16,0-1.74-.64-1.74-1.93V5.88h-1.11v-1h1.11V3.37L198.63,3V4.93h1.61v1h-1.61V9.42a1.52,1.52,0,0,0,.22.91.83.83,0,0,0,.72.28,1.1,1.1,0,0,0,.67-.22Z"/><path class="cls-9" d="M202.67,10.5v3.89h-1.15V4.93h1.15V6.05h0a2.44,2.44,0,0,1,2.23-1.27,2.37,2.37,0,0,1,2,.87,3.6,3.6,0,0,1,.7,2.33,3.94,3.94,0,0,1-.8,2.6,2.64,2.64,0,0,1-2.15,1,2.17,2.17,0,0,1-1.93-1.06Zm0-1.76a1.86,1.86,0,0,0,.51,1.33,1.69,1.69,0,0,0,1.28.54,1.66,1.66,0,0,0,1.43-.7A3.27,3.27,0,0,0,206.4,8a2.56,2.56,0,0,0-.49-1.64,1.57,1.57,0,0,0-1.31-.59,1.79,1.79,0,0,0-1.39.6,2.19,2.19,0,0,0-.55,1.55Z"/><path class="cls-9" d="M208.74,10a3.1,3.1,0,0,0,1.87.63c.89,0,1.34-.3,1.34-.88a.76.76,0,0,0-.3-.62,4.5,4.5,0,0,0-1.18-.58,3.41,3.41,0,0,1-1.41-.86,1.65,1.65,0,0,1-.32-1,1.61,1.61,0,0,1,.73-1.38,3,3,0,0,1,1.8-.52,4,4,0,0,1,1.53.28V6.17a3,3,0,0,0-1.64-.47,1.54,1.54,0,0,0-.9.24.74.74,0,0,0-.35.64.79.79,0,0,0,.25.6,4.89,4.89,0,0,0,1.11.56,3.7,3.7,0,0,1,1.46.83,1.55,1.55,0,0,1,.38,1.08,1.61,1.61,0,0,1-.73,1.4,3.2,3.2,0,0,1-1.89.51,3.73,3.73,0,0,1-1.75-.38Z"/><path class="cls-9" d="M214.24,5.53a.68.68,0,0,1,.23-.52.69.69,0,0,1,.53-.22.77.77,0,0,1,.54.22.74.74,0,0,1,0,1,.75.75,0,0,1-.55.22.73.73,0,0,1-.53-.22A.69.69,0,0,1,214.24,5.53Zm0,5.28a.73.73,0,0,1,.76-.75.74.74,0,0,1,.54,1.27.71.71,0,0,1-.55.22.69.69,0,0,1-.53-.22A.7.7,0,0,1,214.24,10.81Z"/><path class="cls-9" d="M221.58,2.33l-4.35,10.59h-1.07l4.35-10.59Z"/><path class="cls-9" d="M226.63,2.33l-4.36,10.59H221.2l4.35-10.59Z"/><path class="cls-9" d="M232.73,4.93l-2.94,7.46q-.81,2.07-2.31,2.07a2.55,2.55,0,0,1-.73-.09v-1a1.66,1.66,0,0,0,.64.13,1.26,1.26,0,0,0,1.17-.91l.5-1.18-2.55-6.47h1.27l1.7,4.87.14.53h0a4.78,4.78,0,0,1,.14-.52l1.77-4.88Z"/><path class="cls-9" d="M233.23,8.24a3.46,3.46,0,0,1,.9-2.53,3.22,3.22,0,0,1,2.43-.93,3,3,0,0,1,2.29.89,3.51,3.51,0,0,1,.83,2.47,3.49,3.49,0,0,1-.89,2.48,3.09,3.09,0,0,1-2.37.94,3,3,0,0,1-2.32-.91A3.35,3.35,0,0,1,233.23,8.24Zm1.17,0A2.58,2.58,0,0,0,235,10a1.91,1.91,0,0,0,1.52.64A1.82,1.82,0,0,0,238,10a2.8,2.8,0,0,0,.51-1.8A2.84,2.84,0,0,0,238,6.36a1.82,1.82,0,0,0-1.5-.63,1.91,1.91,0,0,0-1.53.66A2.74,2.74,0,0,0,234.4,8.2Z"/><path class="cls-9" d="M246.56,11.41H245.4v-1h0a2.14,2.14,0,0,1-2,1.17c-1.53,0-2.3-.92-2.3-2.75V4.93h1.14V8.64c0,1.31.5,2,1.51,2a1.5,1.5,0,0,0,1.21-.55,2.11,2.11,0,0,0,.46-1.4V4.93h1.16Z"/><path class="cls-9" d="M252,6.07a1.36,1.36,0,0,0-.8-.21,1.31,1.31,0,0,0-1.1.62,2.85,2.85,0,0,0-.43,1.65v3.28h-1.15V4.93h1.15V6.25h0a1.77,1.77,0,0,1,1.7-1.43,1.67,1.67,0,0,1,.61.09Z"/><path class="cls-9" d="M252.74,10a3.12,3.12,0,0,0,1.87.63c.9,0,1.34-.3,1.34-.88a.75.75,0,0,0-.29-.62,4.44,4.44,0,0,0-1.19-.58,3.36,3.36,0,0,1-1.4-.86,1.65,1.65,0,0,1-.32-1,1.59,1.59,0,0,1,.73-1.38,3,3,0,0,1,1.79-.52,4.06,4.06,0,0,1,1.54.28V6.17a3,3,0,0,0-1.65-.47,1.53,1.53,0,0,0-.89.24.74.74,0,0,0-.35.64.76.76,0,0,0,.25.6,4.74,4.74,0,0,0,1.1.56,3.68,3.68,0,0,1,1.47.83,1.71,1.71,0,0,1-.35,2.48,3.24,3.24,0,0,1-1.89.51,3.77,3.77,0,0,1-1.76-.38Z"/><path class="cls-9" d="M258.44,2.64a.73.73,0,0,1,.2-.51.7.7,0,0,1,.52-.21.72.72,0,0,1,.52.21.7.7,0,0,1,.22.51.67.67,0,0,1-.22.51.71.71,0,0,1-.52.2.69.69,0,0,1-.52-.2A.66.66,0,0,1,258.44,2.64Zm.13,8.77V4.93h1.15v6.48Z"/><path class="cls-9" d="M264.8,11.35a2.22,2.22,0,0,1-1,.2c-1.16,0-1.74-.64-1.74-1.93V5.88h-1.11v-1H262V3.37L263.19,3V4.93h1.61v1h-1.61V9.42a1.52,1.52,0,0,0,.21.91.86.86,0,0,0,.72.28,1.13,1.13,0,0,0,.68-.22Z"/><path class="cls-9" d="M271.25,8.46h-4.53a2.31,2.31,0,0,0,.57,1.6,2,2,0,0,0,1.5.57,3.19,3.19,0,0,0,2-.7v1a3.88,3.88,0,0,1-2.27.6,2.74,2.74,0,0,1-2.19-.89,3.58,3.58,0,0,1-.79-2.47,3.6,3.6,0,0,1,.86-2.46,2.79,2.79,0,0,1,2.15-1,2.52,2.52,0,0,1,2,.81,3.41,3.41,0,0,1,.71,2.29Zm-1.15-.92a2.06,2.06,0,0,0-.41-1.36,1.44,1.44,0,0,0-1.16-.48,1.6,1.6,0,0,0-1.18.51,2.31,2.31,0,0,0-.63,1.33Z"/><path class="cls-9" d="M272.37,10.81a.73.73,0,0,1,.76-.75.72.72,0,0,1,.54.22.69.69,0,0,1,.22.53.7.7,0,0,1-.22.52.72.72,0,0,1-.55.22.73.73,0,0,1-.75-.74Z"/><path class="cls-9" d="M280,11.12a3.49,3.49,0,0,1-1.79.44,3,3,0,0,1-2.27-.9,3.25,3.25,0,0,1-.85-2.34A3.61,3.61,0,0,1,276,5.75a3.25,3.25,0,0,1,2.47-1,3.42,3.42,0,0,1,1.53.31V6.23a2.5,2.5,0,0,0-1.53-.5,2,2,0,0,0-1.6.68,2.61,2.61,0,0,0-.62,1.82,2.53,2.53,0,0,0,.58,1.75,2.06,2.06,0,0,0,1.58.63,2.59,2.59,0,0,0,1.58-.55Z"/><path class="cls-9" d="M281,8.24a3.46,3.46,0,0,1,.9-2.53,3.22,3.22,0,0,1,2.43-.93,3,3,0,0,1,2.29.89,3.51,3.51,0,0,1,.83,2.47,3.49,3.49,0,0,1-.89,2.48,3.09,3.09,0,0,1-2.37.94,3,3,0,0,1-2.32-.91A3.35,3.35,0,0,1,281,8.24Zm1.17,0a2.58,2.58,0,0,0,.57,1.77,1.91,1.91,0,0,0,1.52.64,1.82,1.82,0,0,0,1.5-.63,2.8,2.8,0,0,0,.52-1.8,2.84,2.84,0,0,0-.52-1.82,1.82,1.82,0,0,0-1.5-.63,1.92,1.92,0,0,0-1.53.66A2.74,2.74,0,0,0,282.17,8.2Z"/><path class="cls-9" d="M298.31,11.41h-1.15V7.69a2.64,2.64,0,0,0-.33-1.51,1.25,1.25,0,0,0-1.08-.45,1.31,1.31,0,0,0-1.08.59,2.24,2.24,0,0,0-.45,1.4v3.69h-1.15V7.57c0-1.23-.47-1.84-1.42-1.84a1.31,1.31,0,0,0-1.09.56,2.25,2.25,0,0,0-.43,1.43v3.69H289V4.93h1.15V6h0a2.22,2.22,0,0,1,2-1.17,2,2,0,0,1,1.15.35,1.75,1.75,0,0,1,.69,1,2.33,2.33,0,0,1,2.16-1.32c1.43,0,2.14.88,2.14,2.63Z"/><path class="cls-9" d="M184.72,40.59h5.37v-.87h-4.45V39h4.45v-1h-3.16v.42h-.82V34.06h4v-.84h-5.27v-.73h5.27v-.92c-1.42.05-2.89.08-4.4.11-.05-.25-.11-.51-.17-.79,4-.05,7.17-.15,9.62-.32l.14.8c-1.39.06-2.84.13-4.34.18v.94h5.32v.73h-5.32v.84h4v4.4h-.82v-.41h-3.19v1h4.46v.69h-4.46v.87h5.32v.73H184.72Zm2.21-4.85h3.16v-1h-3.16Zm0,1.63h3.16v-1h-3.16Zm7.2-2.63h-3.19v1h3.19Zm-3.19,2.63h3.19v-1h-3.19Z"/><path class="cls-9" d="M196.67,40.93A7.13,7.13,0,0,0,198.92,36l1,.15a12,12,0,0,1-.43,2,3.61,3.61,0,0,0,2.82,2.22V35.25h-5.35v-.88h11.13v.88h-4.81v1.9h4.08V38h-4.08v2.46c1.56,0,3.25,0,5.08,0a5.84,5.84,0,0,0-.34,1c-1.92,0-3.59,0-5,0a4.16,4.16,0,0,1-3.88-2.14,7.81,7.81,0,0,1-1.81,2.62C197.11,41.54,196.9,41.24,196.67,40.93Zm.69-9.28h5c-.23-.34-.47-.66-.73-1l.89-.49c.31.36.64.75,1,1.19l-.53.28h4.75v2.23h-.93V32.53h-8.52v1.33h-.92Z"/><path class="cls-9" d="M210.46,41.66h-.92V32H213c.2-.58.38-1.19.56-1.82l1,.28c-.2.55-.4,1.06-.6,1.54h5.49v8.23a1.17,1.17,0,0,1-1.33,1.33l-1.78,0c0-.28-.09-.58-.16-.92.67.06,1.24.08,1.71.08s.64-.22.64-.68V32.9h-8.08Zm1.6-7.07h4.86V38.7h-4v.81h-.89Zm4,.84H213v2.43H216Z"/><path class="cls-9" d="M207.49,159.86c0,.36.06.7.11,1-.58.41-1.22.89-1.91,1.45a6.54,6.54,0,0,0-.59.55l-.63-.7a1.61,1.61,0,0,0,.42-1.15V157.3h-1.5v-.85h2.41v4.71C206.37,160.74,206.93,160.31,207.49,159.86Zm-2.92-7.22c.64.63,1.24,1.27,1.81,1.91l-.82.69a22.29,22.29,0,0,0-1.7-2Zm2.46,1.84h3.81a15.26,15.26,0,0,0-.89-1.68l.82-.38c.37.57.68,1.11.94,1.61l-.84.45h4v.84h-5.23v1.83h4.4c-.09,2.36-.17,4-.26,4.89a1.5,1.5,0,0,1-1.64,1.59c-.58,0-1.21,0-1.9,0,0-.36-.12-.7-.19-1a15.94,15.94,0,0,0,2,.13c.51,0,.79-.29.86-.88.08-.92.16-2.2.22-3.83h-3.46a10.89,10.89,0,0,1-.45,3.15,7.72,7.72,0,0,1-1.94,2.92,4.62,4.62,0,0,0-.75-.69,6.78,6.78,0,0,0,1.81-2.67,11.11,11.11,0,0,0,.38-3.38v-2H207Z"/><path class="cls-9" d="M215.86,154.77h.91V164h-.91Zm.58-1.72.67-.6c.43.41,1,1,1.7,1.71l-.76.67C217.38,154.05,216.84,153.46,216.44,153.05Zm2.1,3.09h5v4.69h-4.13v.67h-.84Zm4.12.87h-3.28v3h3.28Zm-3.14-2.93v-.88h6.71v9.06c0,1.13-.51,1.7-1.54,1.7l-1.92,0a7.86,7.86,0,0,0-.19-.95c.65,0,1.28.07,1.88.07s.85-.31.85-.92v-8.06Z"/><path class="cls-9" d="M233.81,152.62l-.22.3a11.21,11.21,0,0,0,5.27,4q-.41.56-.66,1a14.45,14.45,0,0,1-5.2-4.28,17.07,17.07,0,0,1-5.27,4.33c-.17-.27-.37-.56-.61-.87a13.88,13.88,0,0,0,5.48-4.46Zm-3.39,7.67L233,162c.78-.72,1.68-1.63,2.7-2.7h-7.22v-.88H237v.88c-1,1-2.06,2.11-3.22,3.23l1.17.82-.72.79q-2.31-1.8-4.45-3.18Zm1.27-4.1.7-.55c.61.6,1.16,1.19,1.66,1.76l-.77.65A20.94,20.94,0,0,0,231.69,156.19Z"/><path class="cls-9" d="M242.88,163.87H242v-4.4h-1.26a9.24,9.24,0,0,1-.91,4.57,9.84,9.84,0,0,0-.72-.68,8.14,8.14,0,0,0,.77-4v-6.5h.86v3.44h1.18v-3.78h.85v3.78h.86v.73h-2.89v1.66h2.12Zm.37-2.88h1.43l-.51-.61A4.76,4.76,0,0,0,246,159h-1.88v-5.23h2c.15-.38.3-.81.46-1.3l.91.28-.48,1h3v5.62h-.82V159h-2.22a5.05,5.05,0,0,1-2,2h2.35v-1.5h.85V161h2.65v.81H248.1V164h-.85V161.8h-4Zm1.64-5h1.7V154.5h-1.7Zm1.68.75h-1.68v1.47h1.43A6,6,0,0,0,246.57,156.71Zm.63,1.47h2v-1.47h-1.77A8,8,0,0,1,247.2,158.18Zm2-3.68h-1.75V156h1.75Z"/></g></svg>