<svg xmlns="http://www.w3.org/2000/svg" xmlns:xlink="http://www.w3.org/1999/xlink" viewBox="0 0 492.67 180"><defs><style>.cls-1{fill:#505050;}.cls-10,.cls-2{fill:#fff;}.cls-3,.cls-7{fill:#ebebeb;}.cls-4{fill:#0072c6;}.cls-5{fill:#ffb900;}.cls-6{fill:none;}.cls-6,.cls-7,.cls-8{stroke:#000;}.cls-10,.cls-6,.cls-7,.cls-8,.cls-9{stroke-miterlimit:10;}.cls-7{stroke-width:0.75px;}.cls-10,.cls-8{stroke-width:0.05px;}.cls-9{fill:#1e1e1e;stroke:#1e1e1e;stroke-width:0.06px;}.cls-10{stroke:#fff;}</style><symbol id="New_Symbol_45" data-name="New Symbol 45" viewBox="0 0 20 20"><circle class="cls-1" cx="10" cy="10" r="10"/><path class="cls-2" d="M7.58,5.77v1.3a3,3,0,0,1,1.67-.55A2.07,2.07,0,0,1,10.63,7a1.4,1.4,0,0,1,.52,1.16,1.32,1.32,0,0,1-.53,1.12,2.54,2.54,0,0,1-1.52.4,12.8,12.8,0,0,1-1.38-.07L8,14h4.14V12.81h-3L9,10.71h.73A2.89,2.89,0,0,0,11.82,10a2.43,2.43,0,0,0,.68-1.86,2.57,2.57,0,0,0-.84-2,3.29,3.29,0,0,0-2.29-.75A3.57,3.57,0,0,0,7.58,5.77Z"/></symbol><symbol id="New_Symbol_44" data-name="New Symbol 44" viewBox="0 0 20 20"><circle class="cls-1" cx="10" cy="10" r="10"/><path class="cls-2" d="M12,14V8.58h1.25V7.45H12V5.6H10.65V7.42H6.85V8.56q.51.58,1.05,1.26a12.66,12.66,0,0,1,1,1.38c.29.47.64.94.93,1.41A13,13,0,0,1,10.55,14ZM10.65,8.58v3.5a19.76,19.76,0,0,0-1.26-2C9,9.51,8.58,9,8.22,8.56Z"/></symbol><symbol id="New_Symbol_43" data-name="New Symbol 43" viewBox="0 0 20 20"><circle class="cls-1" cx="10" cy="10" r="10"/><path class="cls-2" d="M7.39,5.88V7.16a3,3,0,0,1,1.85-.65,2.19,2.19,0,0,1,1.34.38,1.23,1.23,0,0,1,.5,1c0,1-.73,1.43-2.18,1.43H8.24v1.12h.63c1.29,0,1.94.45,1.94,1.35S10.3,13,9.29,13a2.48,2.48,0,0,1-1.58-.6v1.23a4.08,4.08,0,0,0,2,.48,2.64,2.64,0,0,0,1.79-.56,1.76,1.76,0,0,0,.67-1.44A2,2,0,0,0,10.5,10h0a2.19,2.19,0,0,0,1.43-.63A1.89,1.89,0,0,0,12.5,8a2.22,2.22,0,0,0-.85-1.82,3.4,3.4,0,0,0-2.24-.7A3.84,3.84,0,0,0,7.39,5.88Z"/></symbol><symbol id="New_Symbol_41" data-name="New Symbol 41" viewBox="0 0 20 20"><circle class="cls-1" cx="10" cy="10" r="10"/><path class="cls-2" d="M11.19,14.16V5.57H9.83V12.5A4.06,4.06,0,0,0,9,12a9,9,0,0,0-1-.33v1.21l.65.24.63.27.62.34c.21.13.42.27.64.43Z"/></symbol><symbol id="New_Symbol_42" data-name="New Symbol 42" viewBox="0 0 20 20"><circle class="cls-1" cx="10" cy="10" r="10"/><path class="cls-2" d="M12.5,5.57H7.24v.65A2.58,2.58,0,0,0,7.35,7a3.93,3.93,0,0,0,.3.66,4.92,4.92,0,0,0,.44.58c.17.18.35.35.54.52l.59.5c.2.15.39.31.58.47s.35.3.5.45a4.11,4.11,0,0,1,.38.45,2.55,2.55,0,0,1,.24.5,1.84,1.84,0,0,1,.09.57,1.42,1.42,0,0,1-.1.58,1.33,1.33,0,0,1-.29.41,1.17,1.17,0,0,1-.44.26,2.05,2.05,0,0,1-.55.05,2.73,2.73,0,0,1-1.05-.24,3.75,3.75,0,0,1-1-.72v1.31a2.85,2.85,0,0,0,.52.33,2.7,2.7,0,0,0,.55.24,3,3,0,0,0,.59.15,3.64,3.64,0,0,0,.66,0,3.77,3.77,0,0,0,1-.14,2.2,2.2,0,0,0,.79-.44,2,2,0,0,0,.51-.73,2.46,2.46,0,0,0,.18-1,2.88,2.88,0,0,0-.13-.92,2.65,2.65,0,0,0-.36-.76,4,4,0,0,0-.56-.67c-.21-.21-.46-.43-.73-.65l-.67-.53c-.23-.18-.43-.35-.61-.51a3.5,3.5,0,0,1-.44-.5.9.9,0,0,1-.16-.5H12.5Z"/></symbol></defs><title>OJ104329342</title><g id="bg"><g id="Shapes"><rect class="cls-2" width="492.67" height="180"/><rect class="cls-3" x="0.51" width="105" height="155"/><rect class="cls-4" x="370.17" y="60" width="105" height="95"/><rect class="cls-5" x="370.17" y="0.1" width="105" height="55"/><line class="cls-6" x1="105.53" y1="15" x2="364.68" y2="15"/><polygon points="363.59 18.74 370.06 15 363.59 11.26 363.59 18.74"/><line class="cls-6" x1="110.92" y1="44.88" x2="370.06" y2="44.88"/><polygon points="112.01 48.62 105.53 44.88 112.01 41.14 112.01 48.62"/><line class="cls-6" x1="105.53" y1="85.1" x2="364.68" y2="85.1"/><polygon points="363.59 88.84 370.06 85.1 363.59 81.36 363.59 88.84"/><line class="cls-6" x1="110.92" y1="135.1" x2="370.06" y2="135.1"/><polygon points="112.01 138.84 105.53 135.1 112.01 131.36 112.01 138.84"/><path class="cls-6" d="M51.05,155v7.5c0,4.13,4.5,7.51,10,7.52l419.11.75a10,10,0,0,0,10-10V31.5a2.67,2.67,0,0,0-2.81-2.5H480.7"/><polygon points="481.79 25.26 475.31 29 481.79 32.74 481.79 25.26"/><use width="20" height="20" transform="matrix(1, 0, 0, -1, 159.06, 180)" xlink:href="#New_Symbol_45"/><use width="20" height="20" transform="matrix(1, 0, 0, -1, 159.06, 145.1)" xlink:href="#New_Symbol_44"/><use width="20" height="20" transform="matrix(1, 0, 0, -1, 159.06, 95.1)" xlink:href="#New_Symbol_43"/><path d="M80.75,38.31A34.75,34.75,0,0,0,53,24.64,34.94,34.94,0,1,0,74.27,87.31a34.84,34.84,0,0,0,6.61-48.83ZM82.4,67.48c-1.23-.92-3-2.31-5.3-4.13a6.86,6.86,0,0,0-.78-6.4,6.62,6.62,0,0,0-8.55-1.54c-3-2.75-6.41-5.9-9.95-9.45,10.74-5.88,18.58-5.16,19.05-5.11.11.14.23.27.33.41A30.23,30.23,0,0,1,82.4,67.48ZM63.21,75.72a6.22,6.22,0,0,0-1.09-2.38,5.9,5.9,0,0,0-8-1.4A56.53,56.53,0,0,1,46,66.52c-.25-.2-.48-.4-.71-.6a9.24,9.24,0,0,0-1.32-9c0-.06-.11-.12-.16-.19.6-.64,1.22-1.27,1.89-1.88a57.76,57.76,0,0,1,8-6.47h.08l-.09.08c3.82,3.51,7.85,6.83,11.64,9.8a6.53,6.53,0,0,0,.58,6.68,6.68,6.68,0,0,0,9.24,1.28c.14-.12.28-.24.41-.37,2.73,1.92,4.89,3.39,6.13,4.24a29.89,29.89,0,0,1-3.4,6.66A32.8,32.8,0,0,1,63.21,75.72Zm9.38-39.31a33,33,0,0,0-20.31,3.75c-2.74-2.92-5.66-6.18-8.61-9.48A30.47,30.47,0,0,1,53,29.22,30,30,0,0,1,72.59,36.41Zm-38.1-.91a30.88,30.88,0,0,1,5.08-3.14,61,61,0,0,0,8.24,10.36A51.67,51.67,0,0,0,39.4,50c-1,1.09-1.93,2.19-2.8,3.28a9,9,0,0,0-4.27,1A24.37,24.37,0,0,1,29,41,30.41,30.41,0,0,1,34.49,35.5ZM25.42,46.76a22.16,22.16,0,0,0,3,11.43,9.23,9.23,0,0,0,.82,10h0a54.93,54.93,0,0,0-1.38,8.64A30.35,30.35,0,0,1,25.42,46.76ZM53,90.08A30.13,30.13,0,0,1,33.47,83,42,42,0,0,1,35,71.69a9.3,9.3,0,0,0,6.87-1.53l.77.59a50.31,50.31,0,0,0,8.67,5.52,5.85,5.85,0,0,0,1.19,4.49,6.07,6.07,0,0,0,10-.52,54.32,54.32,0,0,0,11.72,1.23,35.23,35.23,0,0,1-2.7,2.33A30.19,30.19,0,0,1,53,90.08Z"/><use width="20" height="20" transform="matrix(1, 0, 0, -1, 159.06, 25)" xlink:href="#New_Symbol_41"/><use width="20" height="20" transform="matrix(1, 0, 0, -1, 159.06, 54.88)" xlink:href="#New_Symbol_42"/></g><g id="Text"><polygon class="cls-7" points="192.72 105.17 185.16 110.61 188.05 119.42 197.39 119.42 200.28 110.61 192.72 105.17"/><polygon class="cls-7" points="191.73 150.85 184.18 156.29 187.06 165.1 196.41 165.1 199.29 156.29 191.73 150.85"/></g></g><g id="txt"><path class="cls-8" d="M52.39,106.32,50,115.39H47.82l-1.55-5.92a4.64,4.64,0,0,1-.14-1h0a5.36,5.36,0,0,1-.16,1l-1.58,5.92H42.13l-2.42-9.07h2.12l1.34,6.15a7.36,7.36,0,0,1,.13,1h0a5.5,5.5,0,0,1,.18-1l1.69-6.12h2l1.54,6.19a7.44,7.44,0,0,1,.15,1h0a5.47,5.47,0,0,1,.13-1l1.32-6.16Z"/><path class="cls-8" d="M58.78,112.68H54.52c.06,1,.67,1.51,1.81,1.51a3.46,3.46,0,0,0,1.9-.53v1.39a4.75,4.75,0,0,1-2.32.5,3.24,3.24,0,0,1-2.41-.87,3.35,3.35,0,0,1-.86-2.43,3.55,3.55,0,0,1,.92-2.53,3,3,0,0,1,2.29-1,2.8,2.8,0,0,1,2.16.84,3.21,3.21,0,0,1,.77,2.29ZM57,111.5c0-1-.39-1.45-1.18-1.45a1.14,1.14,0,0,0-.86.4,1.89,1.89,0,0,0-.47,1Z"/><path class="cls-8" d="M61.91,114.61v.78H60V105.8h1.9v4.1h0a2.4,2.4,0,0,1,2.12-1.15,2.33,2.33,0,0,1,1.92.86,3.67,3.67,0,0,1,.7,2.36,4,4,0,0,1-.8,2.6,2.61,2.61,0,0,1-2.12,1,2,2,0,0,1-1.82-.94Zm0-2a1.53,1.53,0,0,0,.38,1.07,1.22,1.22,0,0,0,1,.44,1.29,1.29,0,0,0,1.1-.55,2.68,2.68,0,0,0,.4-1.56,2.1,2.1,0,0,0-.36-1.31,1.21,1.21,0,0,0-1-.47,1.33,1.33,0,0,0-1.05.47,1.82,1.82,0,0,0-.41,1.22Z"/><path class="cls-8" d="M36.42,123c.62.48,1.19.94,1.7,1.37l-1,1.23c-.5-.49-1-1-1.59-1.46Zm.31,3.34a13.87,13.87,0,0,0,1.41.57c-.29,1.21-.62,2.69-1,4.43-.51-.18-1-.34-1.51-.49A38.12,38.12,0,0,0,36.73,126.29Zm-.07-6.42c.44.36,1,.82,1.62,1.37l-1.07,1.14c-.56-.59-1.06-1.09-1.5-1.49Zm5.91,3a16.5,16.5,0,0,1-1,4.5c.46.85.91,1.7,1.36,2.55l-1.36.73c-.27-.56-.53-1.1-.79-1.61a13.93,13.93,0,0,1-1.8,2.38c-.39-.46-.75-.86-1.1-1.22A11.6,11.6,0,0,0,40,127.44c-.63-1.27-1.2-2.37-1.71-3.29l1.19-.68c.41.73.81,1.46,1.21,2.21a13.52,13.52,0,0,0,.48-2.8H38.26v-1.34h1.9c-.22-.44-.45-.85-.68-1.22l1.3-.62a13.15,13.15,0,0,1,.88,1.46l-.78.38h2v1.34Zm2,5.69H43.25v-7.46h1.28Zm2.21-8.72v9.89a1.39,1.39,0,0,1-1.48,1.52q-.46,0-1.62.06a15.21,15.21,0,0,0-.36-1.58,8.12,8.12,0,0,0,1.29,0,.67.67,0,0,0,.69-.77v-9.14Z"/><path class="cls-8" d="M52.49,126.57h1.65a9.93,9.93,0,0,1-.29,1.11h.65v1.25a.62.62,0,0,0,.71.71h1.34a1.56,1.56,0,0,0,.66-.12.58.58,0,0,0,.3-.34c0-.15.12-.68.23-1.59.38.18.87.38,1.47.61a13.4,13.4,0,0,1-.4,2.05,1.21,1.21,0,0,1-.59.65,2.42,2.42,0,0,1-1.08.21H54.73c-1.17,0-1.76-.54-1.76-1.62q-1.23,1.62-4.6,1.91c-.32-.64-.58-1.13-.78-1.49a8.31,8.31,0,0,0,3.74-.95A3,3,0,0,0,52.49,126.57Zm-4.28-6.43h1.37v4.09H48.21Zm.54,8.82v-4.31h8.72v4H55.88v-2.57H50.35V129Zm5.39-9.14h1.63c-.12.31-.25.59-.38.87H59V122H56.36c.59.55,1.13,1.08,1.63,1.58l-1.3.92c-.51-.65-1-1.3-1.62-1.94l.76-.56H54.69a11.08,11.08,0,0,1-1.6,2.12,8.42,8.42,0,0,0-1-1.08v1.22H50.56V119.8h1.57V123A11.94,11.94,0,0,0,54.14,119.82Z"/><path class="cls-8" d="M65.82,131.29v-3.8h2.43a5.61,5.61,0,0,1-2.89-1.42,5.38,5.38,0,0,1-3.14,1.42H64.9v3.82H63.54v-.45H61.68v.45H60.32v-3.58l-.52,0a8.48,8.48,0,0,0-.24-1.2c2.4-.06,3.86-.39,4.36-1H59.71v-1.2h4.78a4.85,4.85,0,0,0,.07-.58H66.2a5.07,5.07,0,0,1-.08.58H67.7l-.19-.46,1.5-.18.27.64h1.77v1.2H66.44c.83.64,2.42,1,4.75,1a12.35,12.35,0,0,0-.3,1.2l-.48,0v3.54H69.05v-.45H67.17v.43Zm-5.5-11h4.59v3.31H60.32Zm3.22,8.38H61.68v1h1.86Zm-.06-6.27v-.91H61.75v.91Zm2.35-2.11h4.58v3.31H65.83Zm3.22,8.38H67.17v1h1.88ZM69,122.41v-.91H67.27v.91Z"/><path class="cls-9" d="M184,76.17l1.51-.68V73h-1.42v-.8h1.42V70h.89v2.18h1.5V73h-1.5v2.06c.45-.22.9-.45,1.35-.7,0,.3.05.62.09.94l-1.44.72v4.08q0,1.14-.87,1.23a11.74,11.74,0,0,1-1.37,0c0-.33-.1-.65-.15-1a10,10,0,0,0,1.1.08c.27,0,.4-.15.4-.44V76.46l-1.39.74Zm2.83,4.8a5.45,5.45,0,0,0,1.86-4h.87a7.2,7.2,0,0,1-.24,1.53,3.73,3.73,0,0,0,1.94,1.54V76.55h-3.62v-.77h7.9v.77h-3.4v1.32h2.94v.75h-2.94v1.65a30.58,30.58,0,0,0,3.54,0l-.27.86c-.93,0-1.89,0-2.89,0A4,4,0,0,1,189,79.42a5.81,5.81,0,0,1-1.43,2.1A6.73,6.73,0,0,0,186.81,81Zm1.83-10.5h5.85V75.1h-.84v-.34h-4.16v.34h-.85Zm5,.75h-4.16v1h4.16ZM189.49,74h4.16V73h-4.16Z"/><path class="cls-9" d="M195.94,74.16h11.63V75h-5v4.74c0,1-.51,1.46-1.54,1.47h-1.82q-.08-.48-.18-1.08c.62.06,1.2.1,1.75.1a.7.7,0,0,0,.79-.79V75h-5.6Zm2.59,1.75.86.48a46.16,46.16,0,0,1-2.63,4l-.77-.55A29.47,29.47,0,0,0,198.53,75.91ZM197,70.71h9.5v.87H197Zm7,5.75.78-.53q1.44,1.77,2.79,3.69l-.85.57Q205.3,78.06,204,76.46Z"/><path class="cls-9" d="M210.81,70.06l.77.45c-.37.55-.73,1.06-1.09,1.54v4.5h-.87V73.17q-.63.73-1.2,1.29a6.76,6.76,0,0,0-.6-.64A22.32,22.32,0,0,0,210.81,70.06Zm5.2,7.1v2.45q0,.69.63.69h.78c.5,0,.8-.2.89-.61a13.58,13.58,0,0,0,.24-1.64c.25.12.55.24.9.37-.09.61-.18,1.16-.28,1.62a1.29,1.29,0,0,1-1.43,1.11h-1.37c-.86,0-1.28-.44-1.28-1.33V78h-3.25v.22a2.94,2.94,0,0,1-.72,2.17,6.34,6.34,0,0,1-2.62,1.22,8.09,8.09,0,0,0-.6-.82,6.73,6.73,0,0,0,2.42-1,2,2,0,0,0,.6-1.68v-.94Zm-4.39-1.84h3V73.85h-3.47V73h3.47V71.58q-1.32.08-2.73.12c0-.26-.1-.54-.17-.83,2.52-.06,4.66-.21,6.41-.43l.17.84q-1.33.14-2.79.24V73h3.85v.81H215.5v1.47h3.2v.81h-7.08Z"/><path class="cls-9" d="M219.8,76.24l1.62-.47V73.1h-1.48v-.85h1.48V70h.86v2.24h1.28v.85h-1.28v2.4l1.09-.35a7.51,7.51,0,0,0,.07.91l-1.16.38V80c0,.88-.38,1.33-1.16,1.34-.24,0-.6,0-1.08,0a9.07,9.07,0,0,0-.14-1,9,9,0,0,0,1,.07c.35,0,.53-.2.53-.6V76.73l-1.5.51Zm5.25,1.18h2.41V75.93h-2.73a9.43,9.43,0,0,1-1.66,5.57c-.19-.24-.4-.49-.64-.74q1.47-1.8,1.47-5.54V70.65h6.91V74H230v-.36h-5.23v1.45h2.72V73.9h.85v1.23h3.09v.8h-3.09v1.49h2.43v4h-.84V80.7h-4v.68h-.84Zm4.92-6h-5.23v1.49H230Zm-.07,6.77h-4v1.75h4Z"/><path class="cls-9" d="M208.42,114.75c0,.36.06.71.1,1-.58.41-1.21.89-1.91,1.46a5.33,5.33,0,0,0-.58.55l-.64-.71a1.6,1.6,0,0,0,.42-1.15v-3.75h-1.5v-.85h2.42v4.71C207.29,115.64,207.85,115.2,208.42,114.75Zm-2.92-7.22c.64.63,1.24,1.27,1.8,1.91l-.82.69a20.75,20.75,0,0,0-1.7-2Zm2.46,1.84h3.8a13.61,13.61,0,0,0-.88-1.68l.82-.38c.36.57.68,1.11.94,1.61l-.85.45h4.06v.84h-5.23V112H215c-.08,2.36-.17,4-.25,4.89-.1,1.07-.64,1.6-1.64,1.59-.58,0-1.22,0-1.9,0-.06-.36-.12-.71-.19-1a15.81,15.81,0,0,0,2,.13c.5,0,.79-.29.85-.88.09-.92.16-2.19.22-3.83h-3.45a10.84,10.84,0,0,1-.46,3.15,7.68,7.68,0,0,1-1.93,2.92,5.63,5.63,0,0,0-.75-.69,6.75,6.75,0,0,0,1.8-2.67,10.7,10.7,0,0,0,.39-3.38v-2H208Z"/><path class="cls-9" d="M216.83,109.66h.91v9.19h-.91Zm.59-1.72.66-.6c.43.41,1,1,1.7,1.71l-.76.67C218.35,108.94,217.81,108.35,217.42,107.94Zm2.09,3.09h5v4.69h-4.12v.67h-.85Zm4.13.87h-3.28v2.95h3.28ZM220.5,109v-.88h6.7v9.06c0,1.13-.51,1.7-1.53,1.7l-1.93,0c0-.24-.09-.55-.18-1,.65,0,1.27.07,1.87.07s.86-.31.86-.92V109Z"/><path class="cls-9" d="M234.83,107.51l-.22.3a11.21,11.21,0,0,0,5.27,4q-.4.56-.66,1a14.54,14.54,0,0,1-5.2-4.28,17,17,0,0,1-5.27,4.33c-.17-.27-.37-.56-.61-.87a13.72,13.72,0,0,0,5.48-4.46Zm-3.39,7.67c.82.53,1.68,1.11,2.59,1.73.78-.73,1.68-1.63,2.7-2.71h-7.22v-.88H238v.88c-1,1-2.06,2.12-3.22,3.23l1.17.82-.72.79c-1.53-1.2-3-2.26-4.45-3.18Zm1.27-4.1.7-.55c.61.6,1.17,1.19,1.67,1.76l-.78.65A20.94,20.94,0,0,0,232.71,111.08Z"/><path class="cls-9" d="M244,118.76h-.86v-4.4h-1.26a9.24,9.24,0,0,1-.91,4.57c-.2-.21-.44-.43-.72-.68a8.14,8.14,0,0,0,.77-4v-6.5h.86v3.45H243v-3.79h.85v3.79h.86V112h-2.89v1.67H244Zm.37-2.87h1.43c-.16-.21-.33-.41-.51-.61a4.87,4.87,0,0,0,1.78-1.43h-1.88v-5.23h2c.15-.37.3-.81.46-1.3l.91.28q-.25.57-.48,1h3v5.63h-.82v-.4H248a5.19,5.19,0,0,1-2,2h2.35v-1.5h.85v1.5h2.65v.8h-2.65v2.15h-.85v-2.15h-4Zm1.64-5h1.7v-1.46H246Zm1.68.75H246v1.47h1.43A6,6,0,0,0,247.64,111.6Zm.63,1.47h2V111.6h-1.77A8,8,0,0,1,248.27,113.07Zm2-3.68h-1.75v1.46h1.75Z"/><path class="cls-9" d="M211.49,127h-2.55v2.54h-.88V127h-2.54v-.9h2.54v-2.53h.88v2.53h2.55Z"/><path class="cls-9" d="M216.66,130.7H222v-.87h-4.46v-.69H222v-1h-3.17v.42H218v-4.41h4v-.84h-5.28v-.73H222v-.92c-1.42,0-2.89.08-4.41.12-.05-.25-.1-.52-.16-.8,4,0,7.16-.15,9.62-.32l.14.8q-2.08.1-4.35.18v.94h5.32v.73h-5.32v.84h4v4.4h-.82v-.41h-3.2v1h4.47v.69h-4.47v.87h5.32v.73H216.66Zm2.2-4.85H222v-1h-3.17Zm0,1.63H222v-1h-3.17Zm7.21-2.63h-3.2v1h3.2Zm-3.2,2.63h3.2v-1h-3.2Z"/><path class="cls-9" d="M228.58,131a7.13,7.13,0,0,0,2.25-4.92l1,.15a10.91,10.91,0,0,1-.43,2,3.61,3.61,0,0,0,2.82,2.22v-5.15h-5.35v-.88H240v.88h-4.81v1.9h4.08v.86h-4.08v2.46c1.56,0,3.25,0,5.08,0a6.92,6.92,0,0,0-.34,1c-1.91,0-3.59,0-5,0a4.17,4.17,0,0,1-3.88-2.15A7.86,7.86,0,0,1,229.2,132,9.9,9.9,0,0,0,228.58,131Zm.69-9.28h5c-.23-.34-.48-.66-.74-1l.89-.48c.31.35.64.74,1,1.18l-.53.28h4.75V124h-.93v-1.35h-8.52V124h-.92Z"/><path class="cls-9" d="M242.35,131.77h-.92v-9.62h3.46c.19-.58.38-1.19.56-1.82l1,.28c-.2.55-.4,1.06-.6,1.54h5.49v8.24a1.17,1.17,0,0,1-1.33,1.32l-1.78,0c0-.28-.09-.58-.16-.92.67.06,1.24.08,1.71.08s.64-.22.64-.68V123h-8.08Zm1.6-7.07h4.85v4.12h-4v.8H244Zm4,.85h-3.07V128h3.07Z"/><path class="cls-9" d="M263.8,126.62q0,3.85-3.49,3.85c-2.23,0-3.35-1.23-3.35-3.71v-5.51h1.18v5.46c0,1.81.76,2.72,2.28,2.72s2.21-.88,2.21-2.64v-5.54h1.17Z"/><path class="cls-9" d="M272.64,130.32h-1.39l-1.5-2.52a3.69,3.69,0,0,0-.83-1,1.49,1.49,0,0,0-.89-.27h-.85v3.82H266v-9.07h2.77a3.12,3.12,0,0,1,2.07.63,2.24,2.24,0,0,1,.75,1.79,2.39,2.39,0,0,1-2,2.45v0a1.85,1.85,0,0,1,.65.45,7.31,7.31,0,0,1,.71,1Zm-5.46-8v3.21h1.38a1.86,1.86,0,0,0,1.31-.47,1.64,1.64,0,0,0,.5-1.23,1.36,1.36,0,0,0-.46-1.11,1.94,1.94,0,0,0-1.33-.4Z"/><path class="cls-9" d="M278.61,130.32h-4.79v-9.07H275v8h3.62Z"/><path class="cls-10" d="M402.38,101.54V96c0-.5,0-1.14.07-1.91h0a10.4,10.4,0,0,1-.28,1.16l-2.24,6.26h-1.54l-2.27-6.2a11.15,11.15,0,0,1-.29-1.22h-.05c.05.76.08,1.52.08,2.29v5.13h-1.75V92.47h2.81l2,5.48a6.91,6.91,0,0,1,.33,1.28h0a12.21,12.21,0,0,1,.38-1.29l2-5.47h2.74v9.07Z"/><path class="cls-10" d="M406.05,93a.9.9,0,0,1,.31-.71,1.15,1.15,0,0,1,.79-.27,1.09,1.09,0,0,1,.79.28.9.9,0,0,1,.31.7.92.92,0,0,1-.31.71,1.22,1.22,0,0,1-1.58,0A1,1,0,0,1,406.05,93Zm.14,8.57V95.06h1.89v6.48Z"/><path class="cls-10" d="M414.63,101.3a3.8,3.8,0,0,1-1.93.4,3.28,3.28,0,0,1-2.4-.9,3.13,3.13,0,0,1-.91-2.34,3.42,3.42,0,0,1,1-2.6,3.61,3.61,0,0,1,2.63-1,3.36,3.36,0,0,1,1.64.31v1.62a2.35,2.35,0,0,0-1.42-.47,1.87,1.87,0,0,0-1.39.52,2,2,0,0,0-.53,1.45,1.93,1.93,0,0,0,.5,1.4,1.76,1.76,0,0,0,1.35.52,2.63,2.63,0,0,0,1.48-.48Z"/><path class="cls-10" d="M420.1,96.78a1.68,1.68,0,0,0-.84-.2,1.21,1.21,0,0,0-1,.49,2.19,2.19,0,0,0-.38,1.35v3.12H416V95.06h1.89v1.22h0a1.72,1.72,0,0,1,1.7-1.33,1.29,1.29,0,0,1,.51.08Z"/><path class="cls-10" d="M420.61,98.33a3.29,3.29,0,0,1,1-2.51,3.59,3.59,0,0,1,2.58-.92,3.39,3.39,0,0,1,2.48.9,3.25,3.25,0,0,1,.92,2.42,3.61,3.61,0,0,1-6,2.57A3.26,3.26,0,0,1,420.61,98.33Zm1.92,0c0,1.29.53,1.94,1.58,1.94s1.52-.67,1.52-2-.51-1.89-1.53-1.89a1.41,1.41,0,0,0-1.16.51A2.26,2.26,0,0,0,422.53,98.31Z"/><path class="cls-10" d="M428.72,99.8a3.57,3.57,0,0,0,1.9.59c.78,0,1.17-.21,1.17-.62s-.32-.55-1-.75a4.13,4.13,0,0,1-1.66-.83,1.88,1.88,0,0,1,.32-2.74,3.39,3.39,0,0,1,2-.55,5.46,5.46,0,0,1,1.71.27v1.49a3.18,3.18,0,0,0-1.66-.45,1.44,1.44,0,0,0-.73.16.49.49,0,0,0-.27.43c0,.29.27.53.82.72a8.65,8.65,0,0,1,1.32.53,1.66,1.66,0,0,1,.9,1.54,1.78,1.78,0,0,1-.8,1.56,3.69,3.69,0,0,1-2.14.55,5.54,5.54,0,0,1-1.95-.33Z"/><path class="cls-10" d="M434.42,98.33a3.29,3.29,0,0,1,1-2.51A3.59,3.59,0,0,1,438,94.9a3.39,3.39,0,0,1,2.48.9,3.25,3.25,0,0,1,.92,2.42,3.61,3.61,0,0,1-6,2.57A3.26,3.26,0,0,1,434.42,98.33Zm1.92,0c0,1.29.53,1.94,1.58,1.94s1.52-.67,1.52-2-.51-1.89-1.53-1.89a1.41,1.41,0,0,0-1.16.51A2.26,2.26,0,0,0,436.34,98.31Z"/><path class="cls-10" d="M446.61,93.41a2,2,0,0,0-.73-.15c-.65,0-1,.36-1,1.07v.73h1.47v1.41h-1.47v5.07H443V96.47h-1.08V95.06H443v-.83a2.28,2.28,0,0,1,.72-1.77,2.7,2.7,0,0,1,1.9-.66,3.4,3.4,0,0,1,1,.12Z"/><path class="cls-10" d="M451.43,101.47a2.91,2.91,0,0,1-1.3.23c-1.37,0-2.06-.72-2.06-2.17V96.47H447V95.06h1.07V93.64L450,93.1v2h1.48v1.41H450V99.2c0,.7.27,1,.82,1a1.33,1.33,0,0,0,.66-.19Z"/><path class="cls-10" d="M398.5,113.35a12.9,12.9,0,0,0,1.33-3.17h-1.25v-1.53h1.35V106.6h1.44v2.05h1.13v1.53h-1.13v1.36l1.44.82-.73,1.33a7.64,7.64,0,0,0-.71-.53v5h-1.44v-4.83a15.38,15.38,0,0,1-1.06,2.2C398.74,114.68,398.62,114,398.5,113.35Zm5-.95,1.39.4a34,34,0,0,1-1.46,3.92,8.42,8.42,0,0,0-1.39-.56A26.94,26.94,0,0,0,403.47,112.4Zm-.94-2.26h7.54v1.52h-3v5a1.28,1.28,0,0,1-.34,1,1.5,1.5,0,0,1-1,.38c-.43,0-1,0-1.76,0-.11-.63-.22-1.18-.32-1.63.41,0,.79.06,1.11.06s.68-.21.68-.63v-4.2h-3Zm.47-2.93h6.62v1.52H403Zm5.82,5.28c.5,1.18,1,2.42,1.42,3.72l-1.44.55c-.45-1.38-.91-2.64-1.37-3.76Z"/><path class="cls-10" d="M414.55,113.76a14.88,14.88,0,0,0,.27,1.73,21.21,21.21,0,0,0-2.48,2.08l-.83-1.08a1.75,1.75,0,0,0,.25-1v-3.78H410.6v-1.58h2.77v4.55Zm-2-7.13c.5.67,1,1.39,1.56,2.17l-1.5.94c-.47-.81-1-1.58-1.43-2.3Zm3.72,7.29,1.39.92q-1.35,1.81-2.71,3.37c-.39-.36-.84-.73-1.34-1.11A19.12,19.12,0,0,0,416.26,113.92Zm-1.51-6.71h6.61v6.34h-6.61Zm5,4.91v-3.48h-3.38v3.48Zm-.05,1.81c.9,1,1.77,2.07,2.62,3.18l-1.45,1c-.79-1.15-1.61-2.28-2.47-3.36Z"/><path class="cls-10" d="M422.7,112.87h4.77v-4.3h-4.26V107h10.36v1.55h-4.32v4.3h4.84v1.55h-4.84v3.64h-1.78v-3.64H422.7Zm.68-3.25,1.23-.83c.75.88,1.53,1.84,2.33,2.91l-1.42.93C424.73,111.44,424,110.43,423.38,109.62Zm10.22.12c-.83,1-1.71,2-2.63,2.93l-1.19-1a26.87,26.87,0,0,0,2.43-2.9Z"/><path class="cls-10" d="M443,108q1.8,1.76,3.34,3.45l-1.3,1.1-.92-1.07q-5,.07-8.75.42l-.62-1.38a20.44,20.44,0,0,0,4.57-4.06l1.53.83q-1.67,1.58-3.51,3.07l5.63-.2-1.19-1.31Zm-7.15,10.14V112.6h9v5.49h-1.59v-.69h-5.84v.69Zm7.43-4h-5.84V116h5.84Z"/><path class="cls-8" d="M406.17,24.26h-2.1l-.68-2.08h-3.3l-.67,2.08h-2.1l3.32-9.07h2.28Zm-3.24-3.57-1-3.15a3,3,0,0,1-.14-.79h-.06a3.28,3.28,0,0,1-.15.77l-1,3.17Z"/><path class="cls-8" d="M406.91,22a3.81,3.81,0,0,0,2.49.9,2.16,2.16,0,0,0,1.19-.27.82.82,0,0,0,.4-.7,1,1,0,0,0-.32-.7,6.37,6.37,0,0,0-1.67-.89c-1.42-.6-2.13-1.47-2.13-2.62a2.29,2.29,0,0,1,1-2,4.28,4.28,0,0,1,2.55-.7,6.29,6.29,0,0,1,2.23.35V17.2a3.67,3.67,0,0,0-2.14-.63,2.19,2.19,0,0,0-1.14.26.8.8,0,0,0-.43.71.9.9,0,0,0,.29.64,5.33,5.33,0,0,0,1.45.8,4.8,4.8,0,0,1,1.86,1.23,2.39,2.39,0,0,1,.51,1.53,2.31,2.31,0,0,1-.93,2,4.31,4.31,0,0,1-2.63.69,5.7,5.7,0,0,1-2.55-.5Z"/><path class="cls-8" d="M416.48,21.1v3.16h-1.94V15.19h3.13c2.25,0,3.38,1,3.38,2.87a2.74,2.74,0,0,1-1,2.23,3.77,3.77,0,0,1-2.56.81Zm0-4.41v2.93h.83c1.14,0,1.71-.5,1.71-1.49s-.56-1.44-1.69-1.44Z"/><path class="cls-8" d="M420,23.41a.91.91,0,0,1,.33-.72,1.2,1.2,0,0,1,.8-.28,1.15,1.15,0,0,1,.79.29,1,1,0,0,1,0,1.44,1.27,1.27,0,0,1-1.6,0A.93.93,0,0,1,420,23.41Z"/><path class="cls-8" d="M432,24.26h-2l-3.85-5.87a6,6,0,0,1-.43-.74h0a13.17,13.17,0,0,1,.05,1.45v5.16H423.9V15.19H426l3.7,5.7q.38.57.45.72h0a8.34,8.34,0,0,1-.06-1.25V15.19H432Z"/><path class="cls-8" d="M439.45,24.26h-5.37V15.19h5.16v1.58H436v2.14h3v1.57h-3v2.2h3.44Z"/><path class="cls-8" d="M447.3,16.77h-2.59v7.49h-1.94V16.77h-2.59V15.19h7.12Z"/><path class="cls-8" d="M407.6,29.58l-2.42,9.08H403l-1.54-5.92a5.35,5.35,0,0,1-.15-1h0a6.21,6.21,0,0,1-.17,1l-1.58,5.92h-2.23l-2.42-9.08H397l1.35,6.16a6.22,6.22,0,0,1,.12,1h0a5.5,5.5,0,0,1,.18-1l1.69-6.13h2.06l1.53,6.2a6,6,0,0,1,.15,1h0a5.47,5.47,0,0,1,.13-1l1.32-6.17Z"/><path class="cls-8" d="M414,36h-4.27c.07,1,.67,1.51,1.82,1.51a3.45,3.45,0,0,0,1.89-.53v1.39a4.72,4.72,0,0,1-2.32.5,3.25,3.25,0,0,1-2.41-.87,3.36,3.36,0,0,1-.85-2.44,3.53,3.53,0,0,1,.91-2.52,3.06,3.06,0,0,1,2.3-1,2.78,2.78,0,0,1,2.15.84,3.21,3.21,0,0,1,.78,2.29Zm-1.77-1.18c0-1-.39-1.45-1.17-1.45a1.15,1.15,0,0,0-.87.4,1.82,1.82,0,0,0-.46,1.05Z"/><path class="cls-8" d="M417.12,37.88v.78h-1.89V29.07h1.89v4.1h0A2.41,2.41,0,0,1,419.26,32a2.33,2.33,0,0,1,1.92.86,3.61,3.61,0,0,1,.7,2.36,4,4,0,0,1-.8,2.59,2.58,2.58,0,0,1-2.11,1,2,2,0,0,1-1.83-.94Zm0-2a1.57,1.57,0,0,0,.38,1.07,1.25,1.25,0,0,0,1,.44,1.29,1.29,0,0,0,1.1-.55,2.61,2.61,0,0,0,.4-1.56,2.1,2.1,0,0,0-.36-1.31,1.2,1.2,0,0,0-1-.47,1.33,1.33,0,0,0-1.05.47,1.82,1.82,0,0,0-.41,1.22Z"/><path class="cls-8" d="M428.63,34c0,3-.4,5.06-1.21,6.29-.36-.33-.8-.71-1.32-1.12a10.89,10.89,0,0,0,1-5.38V30.1h4.5l-.43-1,1.88-.45c.18.43.38.92.6,1.48h4v1.44h-9Zm-.21,4.08H434q.71-2.3,1.68-5.88l1.63.42c-.4,1.53-1,3.35-1.66,5.46h2V39.7h-9.23Zm.28-5,1.4-.6c.69,1.5,1.33,3,1.91,4.64l-1.57.58Q429.69,35.5,428.7,33.07Zm2.88-.61,1.47-.44c.41,1.08.86,2.47,1.34,4.17l-1.58.44Q432.12,34.13,431.58,32.46Z"/><path class="cls-8" d="M449,38.41a1.72,1.72,0,0,1-.34,1.15,1.48,1.48,0,0,1-1,.48,16,16,0,0,1-1.84.06,15.52,15.52,0,0,0-.47-1.7l1.31.07a.64.64,0,0,0,.74-.72V36.69H445V40h-1.65V36.69h-2.54a6.81,6.81,0,0,1-1,3.61c-.5-.36-1-.69-1.51-1,.64-.86.94-2.39.92-4.58V29.21H449Zm-8.21-6.2h2.48V30.76h-2.48Zm0,3h2.48V33.72h-2.48Zm6.57-4.41H445v1.45h2.44ZM445,35.17h2.44V33.72H445Z"/><path class="cls-9" d="M191.91,10.41h-1.14V6.68c0-1.3-.48-1.95-1.45-1.95a1.57,1.57,0,0,0-1.24.57,2.11,2.11,0,0,0-.49,1.44v3.67h-1.15V.82h1.15V5h0a2.34,2.34,0,0,1,2.12-1.22c1.46,0,2.18.88,2.18,2.64Z"/><path class="cls-9" d="M196.86,10.35a2.22,2.22,0,0,1-1,.2c-1.16,0-1.74-.64-1.74-1.93V4.88H193V3.93h1.11V2.37L195.25,2V3.93h1.61v.95h-1.61V8.42a1.52,1.52,0,0,0,.21.91.86.86,0,0,0,.72.28,1.13,1.13,0,0,0,.68-.22Z"/><path class="cls-9" d="M201.24,10.35a2.18,2.18,0,0,1-1,.2c-1.16,0-1.74-.64-1.74-1.93V4.88h-1.11V3.93h1.11V2.37L199.63,2V3.93h1.61v.95h-1.61V8.42a1.52,1.52,0,0,0,.22.91.83.83,0,0,0,.72.28,1.1,1.1,0,0,0,.67-.22Z"/><path class="cls-9" d="M203.67,9.5v3.89h-1.15V3.93h1.15V5.05h0a2.44,2.44,0,0,1,2.23-1.27,2.37,2.37,0,0,1,2,.87,3.6,3.6,0,0,1,.7,2.33,3.94,3.94,0,0,1-.8,2.6,2.64,2.64,0,0,1-2.15,1,2.17,2.17,0,0,1-1.93-1.06Zm0-1.76a1.86,1.86,0,0,0,.51,1.33,1.69,1.69,0,0,0,1.28.54,1.66,1.66,0,0,0,1.43-.7A3.27,3.27,0,0,0,207.4,7a2.56,2.56,0,0,0-.49-1.64,1.57,1.57,0,0,0-1.31-.59,1.79,1.79,0,0,0-1.39.6,2.19,2.19,0,0,0-.55,1.55Z"/><path class="cls-9" d="M209.74,9a3.1,3.1,0,0,0,1.87.63c.89,0,1.34-.3,1.34-.88a.76.76,0,0,0-.3-.62,4.5,4.5,0,0,0-1.18-.58,3.41,3.41,0,0,1-1.41-.86,1.65,1.65,0,0,1-.32-1,1.61,1.61,0,0,1,.73-1.38,3,3,0,0,1,1.8-.52,4,4,0,0,1,1.53.28V5.17a3,3,0,0,0-1.64-.47,1.54,1.54,0,0,0-.9.24.74.74,0,0,0-.35.64.79.79,0,0,0,.25.6,4.89,4.89,0,0,0,1.11.56,3.7,3.7,0,0,1,1.46.83,1.55,1.55,0,0,1,.38,1.08,1.61,1.61,0,0,1-.73,1.4,3.2,3.2,0,0,1-1.89.51,3.73,3.73,0,0,1-1.75-.38Z"/><path class="cls-9" d="M215.24,4.53a.68.68,0,0,1,.23-.52.69.69,0,0,1,.53-.22.77.77,0,0,1,.54.22.74.74,0,0,1,0,1,.75.75,0,0,1-.55.22.73.73,0,0,1-.53-.22A.69.69,0,0,1,215.24,4.53Zm0,5.28a.73.73,0,0,1,.76-.75.74.74,0,0,1,.54,1.27.71.71,0,0,1-.55.22.69.69,0,0,1-.53-.22A.7.7,0,0,1,215.24,9.81Z"/><path class="cls-9" d="M222.58,1.33l-4.35,10.59h-1.07l4.35-10.59Z"/><path class="cls-9" d="M227.63,1.33l-4.36,10.59H222.2l4.35-10.59Z"/><path class="cls-9" d="M233.73,3.93l-2.94,7.46q-.81,2.07-2.31,2.07a2.55,2.55,0,0,1-.73-.09v-1a1.66,1.66,0,0,0,.64.13,1.26,1.26,0,0,0,1.17-.91l.5-1.18-2.55-6.47h1.27l1.7,4.87.14.53h0a4.78,4.78,0,0,1,.14-.52l1.77-4.88Z"/><path class="cls-9" d="M234.23,7.24a3.46,3.46,0,0,1,.9-2.53,3.22,3.22,0,0,1,2.43-.93,3,3,0,0,1,2.29.89,3.51,3.51,0,0,1,.83,2.47,3.49,3.49,0,0,1-.89,2.48,3.09,3.09,0,0,1-2.37.94,3,3,0,0,1-2.32-.91A3.35,3.35,0,0,1,234.23,7.24Zm1.17,0A2.58,2.58,0,0,0,236,9a1.91,1.91,0,0,0,1.52.64A1.82,1.82,0,0,0,239,9a2.8,2.8,0,0,0,.51-1.8A2.84,2.84,0,0,0,239,5.36a1.82,1.82,0,0,0-1.5-.63,1.91,1.91,0,0,0-1.53.66A2.74,2.74,0,0,0,235.4,7.2Z"/><path class="cls-9" d="M247.56,10.41h-1.15v-1h0a2.14,2.14,0,0,1-2,1.17c-1.53,0-2.3-.92-2.3-2.75V3.93h1.14V7.64c0,1.31.5,2,1.51,2a1.5,1.5,0,0,0,1.21-.55,2.11,2.11,0,0,0,.47-1.4V3.93h1.15Z"/><path class="cls-9" d="M253,5.07a1.36,1.36,0,0,0-.8-.21,1.31,1.31,0,0,0-1.1.62,2.85,2.85,0,0,0-.43,1.65v3.28h-1.15V3.93h1.15V5.25h0a1.77,1.77,0,0,1,1.7-1.43,1.67,1.67,0,0,1,.61.09Z"/><path class="cls-9" d="M253.74,9a3.12,3.12,0,0,0,1.87.63c.9,0,1.34-.3,1.34-.88a.75.75,0,0,0-.29-.62,4.44,4.44,0,0,0-1.19-.58,3.36,3.36,0,0,1-1.4-.86,1.65,1.65,0,0,1-.32-1,1.59,1.59,0,0,1,.73-1.38,3,3,0,0,1,1.79-.52,4.06,4.06,0,0,1,1.54.28V5.17a3,3,0,0,0-1.65-.47,1.53,1.53,0,0,0-.89.24.74.74,0,0,0-.35.64.76.76,0,0,0,.25.6,4.74,4.74,0,0,0,1.1.56,3.68,3.68,0,0,1,1.47.83,1.6,1.6,0,0,1,.38,1.08,1.61,1.61,0,0,1-.73,1.4,3.24,3.24,0,0,1-1.89.51,3.77,3.77,0,0,1-1.76-.38Z"/><path class="cls-9" d="M259.44,1.64a.73.73,0,0,1,.2-.51.7.7,0,0,1,.52-.21.72.72,0,0,1,.52.21.7.7,0,0,1,.22.51.67.67,0,0,1-.22.51.71.71,0,0,1-.52.2.69.69,0,0,1-.52-.2A.66.66,0,0,1,259.44,1.64Zm.13,8.77V3.93h1.15v6.48Z"/><path class="cls-9" d="M265.8,10.35a2.22,2.22,0,0,1-1,.2c-1.16,0-1.74-.64-1.74-1.93V4.88h-1.11V3.93H263V2.37L264.19,2V3.93h1.61v.95h-1.61V8.42a1.52,1.52,0,0,0,.21.91.86.86,0,0,0,.72.28,1.13,1.13,0,0,0,.68-.22Z"/><path class="cls-9" d="M272.25,7.46h-4.53a2.31,2.31,0,0,0,.57,1.6,2,2,0,0,0,1.5.57,3.19,3.19,0,0,0,2-.7v1a3.88,3.88,0,0,1-2.27.6,2.74,2.74,0,0,1-2.19-.89,3.58,3.58,0,0,1-.79-2.47,3.6,3.6,0,0,1,.86-2.46,2.79,2.79,0,0,1,2.15-1,2.52,2.52,0,0,1,2,.81,3.41,3.41,0,0,1,.71,2.29Zm-1.15-.92a2.06,2.06,0,0,0-.41-1.36,1.44,1.44,0,0,0-1.16-.48,1.6,1.6,0,0,0-1.18.51,2.31,2.31,0,0,0-.63,1.33Z"/><path class="cls-9" d="M273.37,9.81a.73.73,0,0,1,.76-.75.72.72,0,0,1,.54.22.69.69,0,0,1,.22.53.7.7,0,0,1-.22.52.72.72,0,0,1-.55.22.73.73,0,0,1-.75-.74Z"/><path class="cls-9" d="M281,10.12a3.49,3.49,0,0,1-1.79.44,3,3,0,0,1-2.27-.9,3.25,3.25,0,0,1-.85-2.34A3.61,3.61,0,0,1,277,4.75a3.25,3.25,0,0,1,2.47-1,3.42,3.42,0,0,1,1.53.31V5.23a2.5,2.5,0,0,0-1.53-.5,2,2,0,0,0-1.6.68,2.61,2.61,0,0,0-.62,1.82A2.53,2.53,0,0,0,277.82,9a2.06,2.06,0,0,0,1.58.63A2.59,2.59,0,0,0,281,9.06Z"/><path class="cls-9" d="M282,7.24a3.46,3.46,0,0,1,.9-2.53,3.22,3.22,0,0,1,2.43-.93,3,3,0,0,1,2.29.89,3.51,3.51,0,0,1,.83,2.47,3.49,3.49,0,0,1-.89,2.48,3.09,3.09,0,0,1-2.37.94,3,3,0,0,1-2.32-.91A3.35,3.35,0,0,1,282,7.24Zm1.17,0A2.58,2.58,0,0,0,283.74,9a1.91,1.91,0,0,0,1.52.64,1.82,1.82,0,0,0,1.5-.63,2.8,2.8,0,0,0,.52-1.8,2.84,2.84,0,0,0-.52-1.82,1.82,1.82,0,0,0-1.5-.63,1.92,1.92,0,0,0-1.53.66A2.74,2.74,0,0,0,283.17,7.2Z"/><path class="cls-9" d="M299.31,10.41h-1.15V6.69a2.64,2.64,0,0,0-.33-1.51,1.25,1.25,0,0,0-1.08-.45,1.31,1.31,0,0,0-1.08.59,2.24,2.24,0,0,0-.45,1.4v3.69h-1.15V6.57c0-1.23-.47-1.84-1.42-1.84a1.31,1.31,0,0,0-1.09.56,2.25,2.25,0,0,0-.43,1.43v3.69H290V3.93h1.15V5h0a2.22,2.22,0,0,1,2-1.17,2,2,0,0,1,1.15.35,1.75,1.75,0,0,1,.69,1,2.33,2.33,0,0,1,2.16-1.32c1.43,0,2.14.88,2.14,2.63Z"/><path class="cls-9" d="M185.72,39.59h5.37v-.87h-4.45V38h4.45v-1h-3.16v.42h-.82V33.06h4v-.84h-5.27v-.73h5.27v-.92c-1.42.05-2.89.08-4.4.11-.05-.25-.11-.51-.17-.79,4-.05,7.17-.15,9.62-.32l.14.8c-1.39.06-2.84.13-4.34.18v.94h5.32v.73h-5.32v.84h4v4.4h-.82v-.41h-3.19v1h4.46v.69h-4.46v.87h5.32v.73H185.72Zm2.21-4.85h3.16v-1h-3.16Zm0,1.63h3.16v-1h-3.16Zm7.2-2.63h-3.19v1h3.19Zm-3.19,2.63h3.19v-1h-3.19Z"/><path class="cls-9" d="M197.67,39.93A7.13,7.13,0,0,0,199.92,35l1,.15a12,12,0,0,1-.43,2,3.61,3.61,0,0,0,2.82,2.22V34.25h-5.35v-.88h11.13v.88h-4.81v1.9h4.08V37h-4.08v2.46c1.56,0,3.25,0,5.08,0a5.84,5.84,0,0,0-.34,1c-1.92,0-3.59,0-5,0a4.16,4.16,0,0,1-3.88-2.14,7.81,7.81,0,0,1-1.81,2.62C198.11,40.54,197.9,40.24,197.67,39.93Zm.69-9.28h5c-.23-.34-.47-.66-.73-1l.89-.49c.31.36.64.75,1,1.19l-.53.28h4.75v2.23h-.93V31.53h-8.52v1.33h-.92Z"/><path class="cls-9" d="M211.46,40.66h-.92V31H214c.2-.58.38-1.19.56-1.82l1,.28c-.2.55-.4,1.06-.6,1.54h5.49v8.23a1.17,1.17,0,0,1-1.33,1.33l-1.78,0c0-.28-.09-.58-.16-.92.67.06,1.24.08,1.71.08s.64-.22.64-.68V31.9h-8.08Zm1.6-7.07h4.86V37.7h-4v.81h-.89Zm4,.84H214v2.43H217Z"/><path class="cls-9" d="M208.49,159.86c0,.36.06.7.11,1-.58.41-1.22.89-1.91,1.45a6.54,6.54,0,0,0-.59.55l-.63-.7a1.61,1.61,0,0,0,.42-1.15V157.3h-1.5v-.85h2.41v4.71C207.37,160.74,207.93,160.31,208.49,159.86Zm-2.92-7.22c.64.63,1.24,1.27,1.81,1.91l-.82.69a22.29,22.29,0,0,0-1.7-2Zm2.46,1.84h3.81a15.26,15.26,0,0,0-.89-1.68l.82-.38c.37.57.68,1.11.94,1.61l-.84.45h4v.84h-5.23v1.83h4.4c-.09,2.36-.17,4-.26,4.89a1.5,1.5,0,0,1-1.64,1.59c-.58,0-1.21,0-1.9,0,0-.36-.12-.7-.19-1a15.94,15.94,0,0,0,2,.13c.51,0,.79-.29.86-.88.08-.92.16-2.2.22-3.83h-3.46a10.89,10.89,0,0,1-.45,3.15,7.72,7.72,0,0,1-1.94,2.92,4.62,4.62,0,0,0-.75-.69,6.78,6.78,0,0,0,1.81-2.67,11.11,11.11,0,0,0,.38-3.38v-2H208Z"/><path class="cls-9" d="M216.86,154.77h.91V164h-.91Zm.58-1.72.67-.6c.43.41,1,1,1.7,1.71l-.76.67C218.38,154.05,217.84,153.46,217.44,153.05Zm2.1,3.09h5v4.69h-4.13v.67h-.84Zm4.12.87h-3.28v3h3.28Zm-3.14-2.93v-.88h6.71v9.06c0,1.13-.51,1.7-1.54,1.7l-1.92,0a7.86,7.86,0,0,0-.19-.95c.65,0,1.28.07,1.88.07s.85-.31.85-.92v-8.06Z"/><path class="cls-9" d="M234.81,152.62l-.22.3a11.21,11.21,0,0,0,5.27,4q-.41.56-.66,1a14.45,14.45,0,0,1-5.2-4.28,17.07,17.07,0,0,1-5.27,4.33c-.17-.27-.37-.56-.61-.87a13.88,13.88,0,0,0,5.48-4.46Zm-3.39,7.67L234,162c.78-.72,1.68-1.63,2.7-2.7h-7.22v-.88H238v.88c-1,1-2.06,2.11-3.22,3.23l1.17.82-.72.79q-2.31-1.8-4.45-3.18Zm1.27-4.1.7-.55c.61.6,1.16,1.19,1.66,1.76l-.77.65A20.94,20.94,0,0,0,232.69,156.19Z"/><path class="cls-9" d="M243.88,163.87H243v-4.4h-1.26a9.24,9.24,0,0,1-.91,4.57,9.84,9.84,0,0,0-.72-.68,8.14,8.14,0,0,0,.77-4v-6.5h.86v3.44h1.18v-3.78h.85v3.78h.86v.73h-2.89v1.66h2.12Zm.37-2.88h1.43l-.51-.61A4.76,4.76,0,0,0,247,159h-1.88v-5.23h2c.15-.38.3-.81.46-1.3l.91.28-.48,1h3v5.62h-.82V159h-2.22a5.12,5.12,0,0,1-2,2h2.35v-1.5h.85V161h2.65v.81H249.1V164h-.85V161.8h-4Zm1.64-5h1.7V154.5h-1.7Zm1.68.75h-1.68v1.47h1.43A6,6,0,0,0,247.57,156.71Zm.63,1.47h2v-1.47h-1.77A8,8,0,0,1,248.2,158.18Zm2-3.68h-1.75V156h1.75Z"/></g></svg>