<svg xmlns="http://www.w3.org/2000/svg" xmlns:xlink="http://www.w3.org/1999/xlink" viewBox="0 0 474.66 206.72"><defs><style>.cls-1{fill:#505050;}.cls-12,.cls-15,.cls-2{fill:#fff;}.cls-3,.cls-7{fill:#ebebeb;}.cls-16,.cls-4{fill:#0072c6;}.cls-5{fill:#d2d2d2;}.cls-6{fill:none;}.cls-13,.cls-6,.cls-7{stroke:#000;}.cls-13,.cls-14,.cls-15,.cls-16,.cls-6,.cls-7{stroke-miterlimit:10;}.cls-7{stroke-width:0.75px;}.cls-8{fill:#80bceb;}.cls-9{fill:#414042;}.cls-10{fill:#aad2f2;}.cls-11{fill:#054b16;}.cls-12{fill-opacity:0.15;}.cls-13,.cls-15,.cls-16{stroke-width:0.05px;}.cls-14{fill:#1e1e1e;stroke:#1e1e1e;stroke-width:0.06px;}.cls-15{stroke:#fff;}.cls-16{stroke:#0072c6;}</style><symbol id="New_Symbol_46" data-name="New Symbol 46" viewBox="0 0 20 20"><circle class="cls-1" cx="10" cy="10" r="10"/><path class="cls-2" d="M12.89,8.27a3.25,3.25,0,0,0-.21-1.15,2.64,2.64,0,0,0-2.55-1.69A2.87,2.87,0,0,0,9,5.67a2.62,2.62,0,0,0-.92.73A3.68,3.68,0,0,0,7.5,7.61a6,6,0,0,0-.21,1.68,6.88,6.88,0,0,0,.21,2.07,4.3,4.3,0,0,0,.76,1.51,3.33,3.33,0,0,0,1.17.93,3.16,3.16,0,0,0,1.42.31,6.36,6.36,0,0,0,.87-.06,2.31,2.31,0,0,0,.62-.18V12.65a5,5,0,0,1-.64.26,2.57,2.57,0,0,1-.78.1,1.92,1.92,0,0,1-.91-.2,2,2,0,0,1-.71-.58,2.89,2.89,0,0,1-.48-1A5.08,5.08,0,0,1,8.64,10h0a1.83,1.83,0,0,0,.73.65,2.31,2.31,0,0,0,1.13.22,2.63,2.63,0,0,0,1-.17,2.1,2.1,0,0,0,.76-.52,2.27,2.27,0,0,0,.48-.82A3.34,3.34,0,0,0,12.89,8.27ZM11.5,8.16a3,3,0,0,1-.08.66,1.69,1.69,0,0,1-.26.52,1.31,1.31,0,0,1-.44.33,1.41,1.41,0,0,1-.61.11,1.67,1.67,0,0,1-.62-.12A1.87,1.87,0,0,1,9,9.33a1.47,1.47,0,0,1-.27-.47,1.65,1.65,0,0,1-.09-.54,2.1,2.1,0,0,1,.09-.61A1.73,1.73,0,0,1,9,7.14a1.24,1.24,0,0,1,.45-.43,1.18,1.18,0,0,1,.64-.17,1.34,1.34,0,0,1,.59.13,1.22,1.22,0,0,1,.44.34,1.45,1.45,0,0,1,.26.51A2.3,2.3,0,0,1,11.5,8.16Z"/></symbol><symbol id="New_Symbol_41" data-name="New Symbol 41" viewBox="0 0 20 20"><circle class="cls-1" cx="10" cy="10" r="10"/><path class="cls-2" d="M11.19,14.16V5.57H9.83V12.5A4.06,4.06,0,0,0,9,12a9,9,0,0,0-1-.33v1.21l.65.24.63.27.62.34c.21.13.42.27.64.43Z"/></symbol><symbol id="New_Symbol_42" data-name="New Symbol 42" viewBox="0 0 20 20"><circle class="cls-1" cx="10" cy="10" r="10"/><path class="cls-2" d="M12.5,5.57H7.24v.65A2.58,2.58,0,0,0,7.35,7a3.93,3.93,0,0,0,.3.66,4.92,4.92,0,0,0,.44.58c.17.18.35.35.54.52l.59.5c.2.15.39.31.58.47s.35.3.5.45a4.11,4.11,0,0,1,.38.45,2.55,2.55,0,0,1,.24.5,1.84,1.84,0,0,1,.09.57,1.42,1.42,0,0,1-.1.58,1.33,1.33,0,0,1-.29.41,1.17,1.17,0,0,1-.44.26,2.05,2.05,0,0,1-.55.05,2.73,2.73,0,0,1-1.05-.24,3.75,3.75,0,0,1-1-.72v1.31a2.85,2.85,0,0,0,.52.33,2.7,2.7,0,0,0,.55.24,3,3,0,0,0,.59.15,3.64,3.64,0,0,0,.66,0,3.77,3.77,0,0,0,1-.14,2.2,2.2,0,0,0,.79-.44,2,2,0,0,0,.51-.73,2.46,2.46,0,0,0,.18-1,2.88,2.88,0,0,0-.13-.92,2.65,2.65,0,0,0-.36-.76,4,4,0,0,0-.56-.67c-.21-.21-.46-.43-.73-.65l-.67-.53c-.23-.18-.43-.35-.61-.51a3.5,3.5,0,0,1-.44-.5.9.9,0,0,1-.16-.5H12.5Z"/></symbol><symbol id="New_Symbol_45" data-name="New Symbol 45" viewBox="0 0 20 20"><circle class="cls-1" cx="10" cy="10" r="10"/><path class="cls-2" d="M7.58,5.77v1.3a3,3,0,0,1,1.67-.55A2.07,2.07,0,0,1,10.63,7a1.4,1.4,0,0,1,.52,1.16,1.32,1.32,0,0,1-.53,1.12,2.54,2.54,0,0,1-1.52.4,12.8,12.8,0,0,1-1.38-.07L8,14h4.14V12.81h-3L9,10.71h.73A2.89,2.89,0,0,0,11.82,10a2.43,2.43,0,0,0,.68-1.86,2.57,2.57,0,0,0-.84-2,3.29,3.29,0,0,0-2.29-.75A3.57,3.57,0,0,0,7.58,5.77Z"/></symbol><symbol id="New_Symbol_44" data-name="New Symbol 44" viewBox="0 0 20 20"><circle class="cls-1" cx="10" cy="10" r="10"/><path class="cls-2" d="M12,14V8.58h1.25V7.45H12V5.6H10.65V7.42H6.85V8.56q.51.58,1.05,1.26a12.66,12.66,0,0,1,1,1.38c.29.47.64.94.93,1.41A13,13,0,0,1,10.55,14ZM10.65,8.58v3.5a19.76,19.76,0,0,0-1.26-2C9,9.51,8.58,9,8.22,8.56Z"/></symbol><symbol id="New_Symbol_43" data-name="New Symbol 43" viewBox="0 0 20 20"><circle class="cls-1" cx="10" cy="10" r="10"/><path class="cls-2" d="M7.39,5.88V7.16a3,3,0,0,1,1.85-.65,2.19,2.19,0,0,1,1.34.38,1.23,1.23,0,0,1,.5,1c0,1-.73,1.43-2.18,1.43H8.24v1.12h.63c1.29,0,1.94.45,1.94,1.35S10.3,13,9.29,13a2.48,2.48,0,0,1-1.58-.6v1.23a4.08,4.08,0,0,0,2,.48,2.64,2.64,0,0,0,1.79-.56,1.76,1.76,0,0,0,.67-1.44A2,2,0,0,0,10.5,10h0a2.19,2.19,0,0,0,1.43-.63A1.89,1.89,0,0,0,12.5,8a2.22,2.22,0,0,0-.85-1.82,3.4,3.4,0,0,0-2.24-.7A3.84,3.84,0,0,0,7.39,5.88Z"/></symbol></defs><title>OJ104329341</title><g id="bg"><g id="Shapes"><rect class="cls-2" width="474.66" height="206.72"/><rect class="cls-3" y="10.41" width="105" height="155"/><rect class="cls-4" x="369.66" y="10.41" width="105" height="115"/><rect class="cls-5" x="369.66" y="130.41" width="105" height="70"/><line class="cls-6" x1="105" y1="15.41" x2="364.17" y2="15.41"/><polygon points="363.07 19.15 369.55 15.41 363.07 11.67 363.07 19.15"/><line class="cls-6" x1="110.38" y1="45.29" x2="369.55" y2="45.29"/><polygon points="111.48 49.03 105 45.29 111.48 41.55 111.48 49.03"/><line class="cls-6" x1="105" y1="74.93" x2="364.17" y2="74.93"/><polygon points="363.07 78.67 369.55 74.93 363.07 71.19 363.07 78.67"/><line class="cls-6" x1="110.38" y1="105.18" x2="369.55" y2="105.18"/><polygon points="111.48 108.92 105 105.18 111.48 101.44 111.48 108.92"/><line class="cls-6" x1="105" y1="154.48" x2="364.17" y2="154.48"/><polygon points="363.07 158.22 369.55 154.48 363.07 150.74 363.07 158.22"/><path class="cls-6" d="M369.55,195.41,61.1,194.64a10.06,10.06,0,0,1-10-10V170.79"/><polygon points="54.84 171.88 51.1 165.41 47.36 171.88 54.84 171.88"/><polygon class="cls-7" points="192.56 25.82 185 31.27 187.89 40.08 197.23 40.08 200.12 31.27 192.56 25.82"/><polygon class="cls-7" points="192.56 85.96 185 91.4 187.89 100.21 197.23 100.21 200.12 91.4 192.56 85.96"/><use width="20" height="20" transform="matrix(1, 0, 0, -1, 158.91, 205.41)" xlink:href="#New_Symbol_46"/><path class="cls-8" d="M87.86,44.94V95.25h-70V44.94a4.37,4.37,0,0,1,4.36-4.38H83.48A4.38,4.38,0,0,1,87.86,44.94Z"/><circle cx="24.42" cy="46.03" r="2.19"/><circle class="cls-9" cx="30.98" cy="46.03" r="2.19"/><circle class="cls-9" cx="37.54" cy="46.03" r="2.19"/><path class="cls-10" d="M87.86,44.94V87.6l-4.38-4.38L81.29,55.88,55,54.78,40.82,40.56H83.48A4.38,4.38,0,0,1,87.86,44.94Z"/><rect class="cls-11" x="21.14" y="50.41" width="63.44" height="41.56"/><path class="cls-2" d="M69.06,57.7H26.36V55.57h42.7Z"/><polygon class="cls-12" points="84.57 50.41 84.57 84.31 50.67 50.41 84.57 50.41"/><path class="cls-2" d="M78,58.51l-.62-1.37a.73.73,0,0,1-.08-.25v-.2h0v.21a2.76,2.76,0,0,1-.08.27l-.58,1.34h-1.9L76.24,56l-1.36-2.5h1.81l.49,1.32a3.89,3.89,0,0,1,.12.49h0a2.17,2.17,0,0,1,.13-.5L78,53.52h1.67L78.27,56l1.47,2.52Z"/><path class="cls-2" d="M49.19,76.05a8.31,8.31,0,0,1-1.81,5.71,6.15,6.15,0,0,1-4.84,2,6.77,6.77,0,0,1-2.32-.34V80.24a3.75,3.75,0,0,0,2.12.56c2.28,0,3.43-1.76,3.43-5.3V62.81h3.42Z"/><path class="cls-2" d="M52.27,82.63V79.1a5.17,5.17,0,0,0,1.13.78,8.87,8.87,0,0,0,1.39.58,10.54,10.54,0,0,0,1.47.37,7.71,7.71,0,0,0,1.35.13,5.74,5.74,0,0,0,3.22-.72,2.37,2.37,0,0,0,1.06-2.09,2.28,2.28,0,0,0-.35-1.27,4,4,0,0,0-1-1A10.5,10.5,0,0,0,59.06,75c-.57-.28-1.18-.56-1.84-.86A15.77,15.77,0,0,1,55.27,73a8.08,8.08,0,0,1-1.58-1.27,5.43,5.43,0,0,1-1-1.58,5,5,0,0,1-.38-2A4.78,4.78,0,0,1,53,65.62a5.62,5.62,0,0,1,1.73-1.77,8,8,0,0,1,2.44-1,11.9,11.9,0,0,1,2.79-.34,11.17,11.17,0,0,1,4.72.74v3.38a7.56,7.56,0,0,0-4.52-1.27,7.66,7.66,0,0,0-1.51.15,4.31,4.31,0,0,0-1.36.47,3.15,3.15,0,0,0-1,.85A2.13,2.13,0,0,0,55.86,68a2.39,2.39,0,0,0,.29,1.2,3,3,0,0,0,.84.92,8.78,8.78,0,0,0,1.35.81c.53.27,1.15.55,1.85.86a13.15,13.15,0,0,1,2,1.18,9.59,9.59,0,0,1,1.68,1.37A5.94,5.94,0,0,1,65.06,76a5.29,5.29,0,0,1-1.91,6.48,7.39,7.39,0,0,1-2.47,1,14.41,14.41,0,0,1-3,.31,7.79,7.79,0,0,1-1.28-.08c-.51-.08-1-.13-1.54-.23s-1-.23-1.5-.37A5.31,5.31,0,0,1,52.27,82.63Z"/></g><g id="Text"><use width="20" height="20" transform="matrix(1, 0, 0, -1, 158.91, 25.41)" xlink:href="#New_Symbol_41"/><use width="20" height="20" transform="matrix(1, 0, 0, -1, 158.91, 55.29)" xlink:href="#New_Symbol_42"/><use width="20" height="20" transform="matrix(1, 0, 0, -1, 158.91, 165.21)" xlink:href="#New_Symbol_45"/><use width="20" height="20" transform="matrix(1, 0, 0, -1, 158.91, 115.67)" xlink:href="#New_Symbol_44"/><use width="20" height="20" transform="matrix(1, 0, 0, -1, 158.91, 84.93)" xlink:href="#New_Symbol_43"/></g><polygon class="cls-7" points="192.56 133.78 185 139.22 187.89 148.03 197.23 148.03 200.12 139.22 192.56 133.78"/></g><g id="txt"><path class="cls-13" d="M26.48,111.83a4.12,4.12,0,0,1-.83,2.76,3,3,0,0,1-2.38,1,3.54,3.54,0,0,1-1.27-.23v-1.83a1.83,1.83,0,0,0,1.15.38c.93,0,1.39-.7,1.39-2.11v-5.44h1.94Z"/><path class="cls-13" d="M28.32,109.3a4.2,4.2,0,0,1,1.17-.39,5.85,5.85,0,0,1,1.26-.16,2.41,2.41,0,0,1,2.72,2.73v3.91h-1.8v-.94h0a2.15,2.15,0,0,1-1.94,1.1,2.06,2.06,0,0,1-1.48-.52,1.88,1.88,0,0,1-.55-1.43c0-1.24.74-2,2.22-2.17l1.78-.24c0-.75-.39-1.13-1.18-1.13a3.77,3.77,0,0,0-2.18.7Zm2.14,3.16c-.69.09-1,.39-1,.92a.75.75,0,0,0,.25.59,1,1,0,0,0,.67.22,1.25,1.25,0,0,0,1-.41,1.44,1.44,0,0,0,.37-1v-.46Z"/><path class="cls-13" d="M41.14,108.91l-2.43,6.48H36.57l-2.31-6.48h2L37.48,113a5.22,5.22,0,0,1,.21,1.12h0A6.3,6.3,0,0,1,38,113l1.21-4.11Z"/><path class="cls-13" d="M42,109.3a4.2,4.2,0,0,1,1.17-.39,5.85,5.85,0,0,1,1.26-.16,2.41,2.41,0,0,1,2.72,2.73v3.91h-1.8v-.94h0a2.13,2.13,0,0,1-1.94,1.1,2,2,0,0,1-1.47-.52,1.88,1.88,0,0,1-.55-1.43c0-1.24.74-2,2.22-2.17l1.78-.24c0-.75-.39-1.13-1.18-1.13a3.77,3.77,0,0,0-2.18.7Zm2.13,3.16c-.68.09-1,.39-1,.92a.75.75,0,0,0,.25.59,1,1,0,0,0,.67.22,1.23,1.23,0,0,0,1-.41,1.45,1.45,0,0,0,.38-1v-.46Z"/><path class="cls-13" d="M48.52,113.11A3.81,3.81,0,0,0,51,114a2.14,2.14,0,0,0,1.19-.27.8.8,0,0,0,.4-.7,1,1,0,0,0-.32-.7,6.37,6.37,0,0,0-1.67-.89c-1.42-.6-2.12-1.47-2.12-2.62a2.31,2.31,0,0,1,1-2,4.28,4.28,0,0,1,2.55-.7,6.25,6.25,0,0,1,2.23.35v1.82a3.67,3.67,0,0,0-2.14-.63A2.24,2.24,0,0,0,51,108a.82.82,0,0,0-.43.71.88.88,0,0,0,.3.64,5.22,5.22,0,0,0,1.44.8,4.77,4.77,0,0,1,1.87,1.23,2.44,2.44,0,0,1,.5,1.53,2.33,2.33,0,0,1-.92,2,4.35,4.35,0,0,1-2.63.69,5.75,5.75,0,0,1-2.56-.5Z"/><path class="cls-13" d="M60.83,115.15a3.84,3.84,0,0,1-1.94.4,3.24,3.24,0,0,1-2.39-.9,3.14,3.14,0,0,1-.92-2.34,3.43,3.43,0,0,1,1-2.6,3.58,3.58,0,0,1,2.62-1,3.31,3.31,0,0,1,1.64.31v1.62a2.33,2.33,0,0,0-1.42-.47,1.87,1.87,0,0,0-1.39.52,2,2,0,0,0-.52,1.45,1.89,1.89,0,0,0,.5,1.4,1.76,1.76,0,0,0,1.35.52,2.68,2.68,0,0,0,1.48-.48Z"/><path class="cls-13" d="M66.3,110.63a1.68,1.68,0,0,0-.84-.2,1.21,1.21,0,0,0-1,.49,2.19,2.19,0,0,0-.38,1.35v3.12H62.17v-6.48h1.89v1.22h0a1.73,1.73,0,0,1,1.71-1.33,1.36,1.36,0,0,1,.51.08Z"/><path class="cls-13" d="M67.12,106.82a.92.92,0,0,1,.31-.71,1.17,1.17,0,0,1,.79-.27,1.13,1.13,0,0,1,.8.28.91.91,0,0,1,.3.7.92.92,0,0,1-.31.71,1.22,1.22,0,0,1-1.58,0A1,1,0,0,1,67.12,106.82Zm.14,8.57v-6.48h1.89v6.48Z"/><path class="cls-13" d="M72.74,114.61v3.76h-1.9v-9.46h1.9v1h0a2.39,2.39,0,0,1,2.1-1.15,2.35,2.35,0,0,1,1.94.87,3.66,3.66,0,0,1,.7,2.35,4,4,0,0,1-.81,2.6,2.63,2.63,0,0,1-2.12,1,2,2,0,0,1-1.81-.94Zm0-2.08a1.69,1.69,0,0,0,.37,1.13,1.24,1.24,0,0,0,1,.44,1.29,1.29,0,0,0,1.1-.55,2.68,2.68,0,0,0,.4-1.56c0-1.19-.47-1.78-1.39-1.78a1.29,1.29,0,0,0-1,.49,1.87,1.87,0,0,0-.41,1.26Z"/><path class="cls-13" d="M82.65,115.32a2.86,2.86,0,0,1-1.29.23c-1.38,0-2.07-.72-2.07-2.17v-3.06H78.23v-1.41h1.06v-1.42l1.88-.54v2h1.48v1.41H81.17v2.73c0,.7.28,1,.83,1a1.3,1.3,0,0,0,.65-.19Z"/><path class="cls-13" d="M41.33,127.51a3.81,3.81,0,0,0,2.49.9,2.12,2.12,0,0,0,1.19-.27.8.8,0,0,0,.4-.7,1,1,0,0,0-.31-.7,6.56,6.56,0,0,0-1.67-.89c-1.42-.6-2.13-1.47-2.13-2.62a2.3,2.3,0,0,1,1-2,4.32,4.32,0,0,1,2.55-.7,6.31,6.31,0,0,1,2.24.35v1.81a3.76,3.76,0,0,0-2.14-.62,2.19,2.19,0,0,0-1.14.26.79.79,0,0,0-.43.7.92.92,0,0,0,.29.65,5.33,5.33,0,0,0,1.45.8,4.8,4.8,0,0,1,1.86,1.23,2.39,2.39,0,0,1,.51,1.53,2.31,2.31,0,0,1-.93,2,4.33,4.33,0,0,1-2.63.69,5.78,5.78,0,0,1-2.56-.5Z"/><path class="cls-13" d="M50.9,126.63v3.16H49v-9.08h3.12q3.39,0,3.39,2.88a2.74,2.74,0,0,1-1,2.23,3.8,3.8,0,0,1-2.56.81Zm0-4.42v2.93h.84c1.14,0,1.71-.49,1.71-1.48s-.57-1.45-1.69-1.45Z"/><path class="cls-13" d="M63.94,129.79H61.83l-.68-2.08h-3.3l-.67,2.08H55.09l3.32-9.08h2.27Zm-3.25-3.57-1-3.15a4.06,4.06,0,0,1-.14-.79h-.05a3.4,3.4,0,0,1-.16.77l-1,3.17Z"/><path class="cls-14" d="M213.63,133.75h-1.17v-4.09h-4.6v4.09h-1.17v-9.07h1.17v3.94h4.6v-3.94h1.17Z"/><path class="cls-14" d="M221.39,125.72h-2.62v8h-1.18v-8H215v-1h6.41Z"/><path class="cls-14" d="M228.44,125.72h-2.62v8h-1.18v-8H222v-1h6.41Z"/><path class="cls-14" d="M230.93,130.36v3.39h-1.17v-9.07h2.58a3.36,3.36,0,0,1,2.28.7,2.56,2.56,0,0,1,.81,2,2.74,2.74,0,0,1-1,2.17,3.31,3.31,0,0,1-2.37.78Zm0-4.65v3.62H232a2.41,2.41,0,0,0,1.63-.49,1.72,1.72,0,0,0,.55-1.38c0-1.17-.69-1.75-2.07-1.75Z"/><path class="cls-14" d="M247.37,133.13a6.06,6.06,0,0,1-3.07.77,4.2,4.2,0,0,1-3.17-1.24,4.6,4.6,0,0,1-1.21-3.33,4.74,4.74,0,0,1,1.33-3.45,4.57,4.57,0,0,1,3.41-1.36,6,6,0,0,1,2.49.47v1.27a4.72,4.72,0,0,0-2.59-.69,3.2,3.2,0,0,0-2.44,1,3.67,3.67,0,0,0-1,2.67,3.74,3.74,0,0,0,.89,2.65,3.13,3.13,0,0,0,2.39,1,3.55,3.55,0,0,0,1.76-.4V130h-2v-1h3.15Z"/><path class="cls-14" d="M254.24,133.75h-4.88v-9.07H254v1h-3.51v2.91h3.25v1h-3.25v3.05h3.71Z"/><path class="cls-14" d="M261.39,125.72h-2.61v8H257.6v-8H255v-1h6.4Z"/><path class="cls-14" d="M272.47,130.43h-2.55V133H269v-2.54H266.5v-.9H269V127h.88v2.53h2.55Z"/><path class="cls-14" d="M209.89,145.38c0,.36.06.71.11,1-.58.41-1.22.89-1.91,1.46a4.51,4.51,0,0,0-.59.55l-.63-.71a1.59,1.59,0,0,0,.42-1.14v-3.75h-1.5V142h2.41v4.71C208.77,146.27,209.33,145.83,209.89,145.38ZM207,138.16c.64.63,1.25,1.27,1.81,1.91l-.82.69a22.29,22.29,0,0,0-1.7-2Zm2.46,1.84h3.81a14.3,14.3,0,0,0-.89-1.67l.82-.39a18,18,0,0,1,.94,1.62l-.84.44h4v.84h-5.23v1.83h4.4c-.09,2.36-.17,4-.26,4.89a1.5,1.5,0,0,1-1.64,1.59c-.58,0-1.21,0-1.9,0-.05-.36-.12-.71-.19-1a18,18,0,0,0,2,.12c.51,0,.79-.29.86-.87.08-.93.16-2.2.22-3.84h-3.46a10.68,10.68,0,0,1-.45,3.16,7.65,7.65,0,0,1-1.94,2.91,4.62,4.62,0,0,0-.75-.69,6.78,6.78,0,0,0,1.81-2.67,11,11,0,0,0,.38-3.37v-2h-1.7Z"/><path class="cls-14" d="M218.26,140.29h.91v9.19h-.91Zm.58-1.72.67-.6c.43.41,1,1,1.7,1.71l-.76.67C219.78,139.57,219.24,139,218.84,138.57Zm2.1,3.1h5v4.68h-4.13V147h-.84Zm4.13.86h-3.29v3h3.29Zm-3.15-2.93v-.88h6.71v9.06c0,1.14-.51,1.7-1.54,1.7l-1.92,0a8.26,8.26,0,0,0-.19-1c.65.05,1.28.07,1.88.07s.85-.31.85-.91V139.6Z"/><path class="cls-14" d="M236.21,138.14l-.22.3a11.21,11.21,0,0,0,5.27,4q-.4.56-.66,1a14.44,14.44,0,0,1-5.2-4.27,17.2,17.2,0,0,1-5.27,4.32c-.17-.27-.37-.55-.61-.87a13.71,13.71,0,0,0,5.48-4.46Zm-3.39,7.67c.81.53,1.68,1.11,2.59,1.73.78-.73,1.68-1.63,2.7-2.71h-7.22V144h8.53v.88q-1.48,1.56-3.22,3.23l1.17.82-.72.79c-1.54-1.2-3-2.25-4.45-3.18Zm1.27-4.1.7-.55c.61.6,1.16,1.19,1.66,1.76l-.77.66A19.76,19.76,0,0,0,234.09,141.71Z"/><path class="cls-14" d="M245.28,149.39h-.86V145h-1.26a9.24,9.24,0,0,1-.91,4.57c-.2-.21-.44-.43-.72-.68a8.12,8.12,0,0,0,.77-3.95v-6.5h.86v3.45h1.18v-3.79h.85v3.79h.86v.72h-2.89v1.67h2.12Zm.37-2.87h1.43c-.16-.21-.33-.41-.51-.61a4.87,4.87,0,0,0,1.78-1.43h-1.88v-5.23h2c.15-.37.3-.81.46-1.3l.91.28q-.26.57-.48,1h3v5.63h-.82v-.4h-2.22a5.19,5.19,0,0,1-2,2h2.35V145h.85v1.5h2.65v.81H250.5v2.14h-.85v-2.14h-4Zm1.64-5H249V140h-1.7Zm1.68.75h-1.68v1.47h1.43A6,6,0,0,0,249,142.23Zm.63,1.47h2v-1.47h-1.77A7.88,7.88,0,0,1,249.6,143.7Zm2-3.68h-1.75v1.46h1.75Z"/><path class="cls-15" d="M401.85,57.92V52.41c0-.5,0-1.14.07-1.91h0a10.4,10.4,0,0,1-.28,1.16l-2.24,6.26h-1.54l-2.27-6.2a11.15,11.15,0,0,1-.29-1.22h-.05c.05.76.08,1.52.08,2.29v5.13h-1.75V48.85h2.81l2,5.48a6.91,6.91,0,0,1,.33,1.28h0a12.21,12.21,0,0,1,.38-1.29l2-5.47h2.74v9.07Z"/><path class="cls-15" d="M405.52,49.35a.9.9,0,0,1,.31-.71,1.15,1.15,0,0,1,.79-.27,1.09,1.09,0,0,1,.79.28.88.88,0,0,1,.31.7.92.92,0,0,1-.31.71,1.22,1.22,0,0,1-1.58,0A1,1,0,0,1,405.52,49.35Zm.14,8.57V51.44h1.89v6.48Z"/><path class="cls-15" d="M414.1,57.68a3.8,3.8,0,0,1-1.93.4,3.28,3.28,0,0,1-2.4-.9,3.13,3.13,0,0,1-.91-2.34,3.42,3.42,0,0,1,1-2.6,3.6,3.6,0,0,1,2.62-1,3.38,3.38,0,0,1,1.65.31v1.62a2.35,2.35,0,0,0-1.42-.47,1.87,1.87,0,0,0-1.39.52,2,2,0,0,0-.53,1.45,1.93,1.93,0,0,0,.5,1.4,1.76,1.76,0,0,0,1.35.52,2.63,2.63,0,0,0,1.48-.48Z"/><path class="cls-15" d="M419.57,53.16a1.68,1.68,0,0,0-.84-.2,1.21,1.21,0,0,0-1,.49,2.19,2.19,0,0,0-.38,1.35v3.12h-1.89V51.44h1.89v1.22h0a1.72,1.72,0,0,1,1.7-1.33,1.29,1.29,0,0,1,.51.08Z"/><path class="cls-15" d="M420.08,54.71a3.29,3.29,0,0,1,1-2.51,3.59,3.59,0,0,1,2.58-.92,3.39,3.39,0,0,1,2.48.9A3.25,3.25,0,0,1,427,54.6a3.61,3.61,0,0,1-6,2.57A3.26,3.26,0,0,1,420.08,54.71Zm1.92,0c0,1.29.53,1.94,1.58,1.94s1.52-.67,1.52-2-.51-1.89-1.53-1.89a1.41,1.41,0,0,0-1.16.51A2.26,2.26,0,0,0,422,54.69Z"/><path class="cls-15" d="M428.19,56.18a3.57,3.57,0,0,0,1.9.59c.78,0,1.17-.21,1.17-.62s-.32-.55-1-.75a4.15,4.15,0,0,1-1.65-.83,1.88,1.88,0,0,1,.32-2.74,3.39,3.39,0,0,1,2-.55,5.46,5.46,0,0,1,1.71.27V53a3.18,3.18,0,0,0-1.66-.45,1.44,1.44,0,0,0-.73.16.49.49,0,0,0-.27.43c0,.29.27.53.82.72a8.65,8.65,0,0,1,1.32.53,1.66,1.66,0,0,1,.9,1.54,1.78,1.78,0,0,1-.8,1.56,3.69,3.69,0,0,1-2.14.55,5.54,5.54,0,0,1-1.95-.33Z"/><path class="cls-15" d="M433.89,54.71a3.29,3.29,0,0,1,1-2.51,3.59,3.59,0,0,1,2.58-.92,3.39,3.39,0,0,1,2.48.9,3.25,3.25,0,0,1,.92,2.42,3.61,3.61,0,0,1-6,2.57A3.26,3.26,0,0,1,433.89,54.71Zm1.92,0c0,1.29.53,1.94,1.58,1.94s1.52-.67,1.52-2-.51-1.89-1.53-1.89a1.41,1.41,0,0,0-1.16.51A2.26,2.26,0,0,0,435.81,54.69Z"/><path class="cls-15" d="M446.08,49.79a2,2,0,0,0-.73-.15c-.65,0-1,.36-1,1.07v.73h1.47v1.41h-1.47v5.07h-1.9V52.85H441.4V51.44h1.08v-.83a2.28,2.28,0,0,1,.72-1.77,2.7,2.7,0,0,1,1.9-.66,3.4,3.4,0,0,1,1,.12Z"/><path class="cls-15" d="M450.9,57.85a2.91,2.91,0,0,1-1.3.23c-1.37,0-2.06-.72-2.06-2.17V52.85h-1.07V51.44h1.07V50l1.88-.54v2h1.48v1.41h-1.48v2.73c0,.7.27,1,.82,1a1.33,1.33,0,0,0,.66-.19Z"/><path class="cls-15" d="M398,69.13A13.06,13.06,0,0,0,399.3,66h-1.25V64.43h1.35V62.38h1.44v2.05H402V66h-1.12v1.36l1.44.82-.73,1.33a7.64,7.64,0,0,0-.71-.53v5H399.4V69.07a15.91,15.91,0,0,1-1.06,2.2C398.21,70.46,398.09,69.75,398,69.13Zm5-.95,1.39.4a34,34,0,0,1-1.46,3.92,8.42,8.42,0,0,0-1.39-.56A26.94,26.94,0,0,0,402.94,68.18ZM402,65.92h7.54v1.52h-3v5a1.28,1.28,0,0,1-.34,1,1.57,1.57,0,0,1-1,.38c-.43,0-1,0-1.76,0-.11-.63-.22-1.18-.32-1.63.41,0,.79.06,1.11.06s.68-.21.68-.63v-4.2H402Zm.47-2.93h6.62v1.52h-6.62Zm5.82,5.28c.5,1.18,1,2.42,1.42,3.72l-1.44.55c-.45-1.38-.91-2.64-1.37-3.76Z"/><path class="cls-15" d="M414,69.54a14.88,14.88,0,0,0,.27,1.73,21.21,21.21,0,0,0-2.48,2.08L411,72.27a1.75,1.75,0,0,0,.25-1V67.53h-1.16V66h2.77V70.5Zm-2-7.13c.5.67,1,1.39,1.56,2.17l-1.5.94c-.47-.81-.95-1.58-1.43-2.3Zm3.72,7.29,1.39.92q-1.35,1.81-2.71,3.37c-.39-.36-.84-.73-1.34-1.11A19.12,19.12,0,0,0,415.73,69.7ZM414.22,63h6.61v6.34h-6.61Zm5,4.91V64.42h-3.37V67.9Zm0,1.81c.9,1,1.77,2.07,2.62,3.18l-1.45,1c-.79-1.16-1.61-2.28-2.47-3.36Z"/><path class="cls-15" d="M422.17,68.65h4.77v-4.3h-4.26V62.8H433v1.55h-4.32v4.3h4.84v1.54h-4.84v3.65h-1.78V70.19h-4.77Zm.68-3.25,1.23-.83c.75.87,1.53,1.84,2.33,2.91l-1.42.93C424.2,67.22,423.49,66.21,422.85,65.4Zm10.22.12c-.83,1-1.71,2-2.63,2.93l-1.19-1a28.08,28.08,0,0,0,2.43-2.9Z"/><path class="cls-15" d="M442.48,63.73q1.8,1.76,3.34,3.45l-1.3,1.1-.92-1.07q-5,.08-8.75.42l-.62-1.38a20.44,20.44,0,0,0,4.57-4.06l1.53.83q-1.66,1.57-3.51,3.07l5.63-.2-1.19-1.31Zm-7.15,10.14V68.38h9v5.49h-1.59v-.69h-5.84v.69Zm7.43-4h-5.84v1.9h5.84Z"/><path class="cls-16" d="M401.85,161.94v-5.51c0-.5,0-1.14.07-1.91h0a10.4,10.4,0,0,1-.28,1.16l-2.24,6.26h-1.54l-2.27-6.2a11.15,11.15,0,0,1-.29-1.22h-.05c.05.76.08,1.52.08,2.29v5.13h-1.75v-9.07h2.81l2,5.48a6.91,6.91,0,0,1,.33,1.28h0a12.21,12.21,0,0,1,.38-1.29l2-5.47h2.74v9.07Z"/><path class="cls-16" d="M405.52,153.37a.89.89,0,0,1,.31-.71,1.15,1.15,0,0,1,.79-.27,1.09,1.09,0,0,1,.79.28.88.88,0,0,1,.31.7.92.92,0,0,1-.31.71,1.22,1.22,0,0,1-1.58,0A1,1,0,0,1,405.52,153.37Zm.14,8.57v-6.48h1.89v6.48Z"/><path class="cls-16" d="M414.1,161.7a3.8,3.8,0,0,1-1.93.4,3.28,3.28,0,0,1-2.4-.9,3.13,3.13,0,0,1-.91-2.34,3.46,3.46,0,0,1,1-2.61,3.63,3.63,0,0,1,2.62-.95,3.38,3.38,0,0,1,1.65.31v1.62a2.35,2.35,0,0,0-1.42-.47,1.87,1.87,0,0,0-1.39.52,2,2,0,0,0-.53,1.45,1.93,1.93,0,0,0,.5,1.4,1.76,1.76,0,0,0,1.35.52,2.63,2.63,0,0,0,1.48-.48Z"/><path class="cls-16" d="M419.57,157.18a1.58,1.58,0,0,0-.84-.2,1.21,1.21,0,0,0-1,.49,2.19,2.19,0,0,0-.38,1.35v3.12h-1.89v-6.48h1.89v1.22h0a1.72,1.72,0,0,1,1.7-1.33,1.29,1.29,0,0,1,.51.08Z"/><path class="cls-16" d="M420.08,158.73a3.29,3.29,0,0,1,1-2.51,3.59,3.59,0,0,1,2.58-.92,3.39,3.39,0,0,1,2.48.9,3.25,3.25,0,0,1,.92,2.42,3.61,3.61,0,0,1-6,2.57A3.26,3.26,0,0,1,420.08,158.73Zm1.92,0c0,1.29.53,1.94,1.58,1.94s1.52-.67,1.52-2-.51-1.89-1.53-1.89a1.41,1.41,0,0,0-1.16.51A2.26,2.26,0,0,0,422,158.71Z"/><path class="cls-16" d="M428.19,160.2a3.57,3.57,0,0,0,1.9.59c.78,0,1.17-.21,1.17-.62s-.32-.55-1-.75a4.15,4.15,0,0,1-1.65-.83,1.71,1.71,0,0,1-.45-1.25,1.74,1.74,0,0,1,.77-1.5,3.46,3.46,0,0,1,2-.54,5.46,5.46,0,0,1,1.71.27v1.48a3.27,3.27,0,0,0-1.66-.44,1.44,1.44,0,0,0-.73.16.49.49,0,0,0-.27.43c0,.29.27.53.82.72a8.65,8.65,0,0,1,1.32.53,1.66,1.66,0,0,1,.9,1.54,1.78,1.78,0,0,1-.8,1.56,3.69,3.69,0,0,1-2.14.55,5.54,5.54,0,0,1-1.95-.33Z"/><path class="cls-16" d="M433.89,158.73a3.29,3.29,0,0,1,1-2.51,3.59,3.59,0,0,1,2.58-.92,3.39,3.39,0,0,1,2.48.9,3.25,3.25,0,0,1,.92,2.42,3.61,3.61,0,0,1-6,2.57A3.26,3.26,0,0,1,433.89,158.73Zm1.92,0c0,1.29.53,1.94,1.58,1.94s1.52-.67,1.52-2-.51-1.89-1.53-1.89a1.41,1.41,0,0,0-1.16.51A2.26,2.26,0,0,0,435.81,158.71Z"/><path class="cls-16" d="M446.08,153.81a2,2,0,0,0-.73-.15c-.65,0-1,.36-1,1.07v.73h1.47v1.41h-1.47v5.07h-1.9v-5.07H441.4v-1.41h1.08v-.83a2.28,2.28,0,0,1,.72-1.77,2.7,2.7,0,0,1,1.9-.66,3.4,3.4,0,0,1,1,.12Z"/><path class="cls-16" d="M450.9,161.87a2.91,2.91,0,0,1-1.3.23c-1.37,0-2.06-.72-2.06-2.17v-3.06h-1.07v-1.41h1.07V154l1.88-.54v2h1.48v1.41h-1.48v2.73c0,.69.27,1,.82,1a1.33,1.33,0,0,0,.66-.19Z"/><path class="cls-16" d="M399.54,175.73a6.43,6.43,0,0,1-3.27.77,4.72,4.72,0,0,1-3.42-1.22A4.4,4.4,0,0,1,391.6,172a4.65,4.65,0,0,1,1.38-3.49,5,5,0,0,1,3.63-1.35,7.23,7.23,0,0,1,2.54.41v1.84a5,5,0,0,0-2.58-.62,2.83,2.83,0,0,0-2.13.86,3.61,3.61,0,0,0-.07,4.47,2.58,2.58,0,0,0,2,.8,2.92,2.92,0,0,0,1.24-.23v-1.87h-1.84v-1.55h3.77Z"/><path class="cls-16" d="M405.29,171.58a1.58,1.58,0,0,0-.84-.2,1.21,1.21,0,0,0-1,.49,2.19,2.19,0,0,0-.38,1.35v3.12h-1.89v-6.48h1.89v1.22h0a1.72,1.72,0,0,1,1.7-1.33,1.18,1.18,0,0,1,.51.08Z"/><path class="cls-16" d="M406.4,170.25a4.75,4.75,0,0,1,1.18-.4,6.45,6.45,0,0,1,1.25-.15,2.41,2.41,0,0,1,2.72,2.73v3.91h-1.8v-.94h0a2.14,2.14,0,0,1-1.94,1.1,2.05,2.05,0,0,1-1.47-.53,1.84,1.84,0,0,1-.56-1.42c0-1.24.74-2,2.23-2.17l1.78-.24c0-.75-.4-1.13-1.18-1.13a3.82,3.82,0,0,0-2.19.7Zm2.14,3.16c-.68.09-1,.39-1,.92a.75.75,0,0,0,.25.59,1,1,0,0,0,.67.22,1.25,1.25,0,0,0,.95-.41,1.45,1.45,0,0,0,.38-1v-.46Z"/><path class="cls-16" d="M415.07,175.56v3.76h-1.89v-9.46h1.89v1h0a2.37,2.37,0,0,1,2.11-1.15,2.33,2.33,0,0,1,1.93.87,3.66,3.66,0,0,1,.7,2.35,4,4,0,0,1-.81,2.6,2.63,2.63,0,0,1-2.12,1,2,2,0,0,1-1.81-.94Zm0-2.08a1.7,1.7,0,0,0,.38,1.13,1.22,1.22,0,0,0,1,.44,1.29,1.29,0,0,0,1.1-.55,2.61,2.61,0,0,0,.4-1.56c0-1.19-.47-1.78-1.39-1.78a1.29,1.29,0,0,0-1.05.49,1.93,1.93,0,0,0-.41,1.26Z"/><path class="cls-16" d="M427.29,176.34h-1.88v-3.69c0-1-.37-1.49-1.09-1.49a1.1,1.1,0,0,0-.9.41,1.6,1.6,0,0,0-.36,1.08v3.69h-1.89v-9.59h1.89v4.08h0a2.31,2.31,0,0,1,2-1.13c1.47,0,2.2.89,2.2,2.66Z"/><path class="cls-16" d="M440.55,176.34h-2.11l-.68-2.08h-3.3l-.66,2.08h-2.1l3.32-9.08h2.27Zm-3.24-3.57-1-3.15a4.06,4.06,0,0,1-.14-.79h-.05a3.4,3.4,0,0,1-.16.77l-1,3.17Z"/><path class="cls-16" d="M443.63,173.18v3.16H441.7v-9.08h3.12q3.39,0,3.39,2.88a2.74,2.74,0,0,1-1,2.23,3.78,3.78,0,0,1-2.56.81Zm0-4.42v2.93h.84c1.14,0,1.71-.49,1.71-1.48s-.57-1.45-1.69-1.45Z"/><path class="cls-16" d="M451.51,167.26v9.08h-1.93v-9.08Z"/><path class="cls-14" d="M185.21,2v-.8h4.64V2A12.49,12.49,0,0,1,185,6.54c-.15-.27-.32-.54-.5-.82a14.28,14.28,0,0,0,2-1.22c-.5-.51-1-1-1.52-1.5l.55-.55c.59.53,1.13,1,1.62,1.51a9,9,0,0,0,1.67-2Zm-.51,8.84h3.92q-.42-.42-1.23-1.14l.57-.56c.47.39.95.81,1.44,1.25l-.48.45h2.81l-.4-.4a18.8,18.8,0,0,0,1.34-1.34l.71.59c-.37.36-.78.75-1.23,1.15h4v.79H184.7Zm1.81-5h7.73v3.6h-.89V9H187.4v.42h-.89Zm6.84.77H187.4V8.26h5.95Zm-5-2.57h4v.78h-4Zm3-3.48a10.39,10.39,0,0,0,.6,1.34A26.07,26.07,0,0,0,194.17.55l.57.74c-.73.43-1.53.88-2.38,1.33a5.91,5.91,0,0,0,.69.86c.82-.46,1.59-.92,2.29-1.38l.58.75c-.64.39-1.37.81-2.19,1.25a6,6,0,0,0,2.63,1.17c-.23.31-.44.63-.65,1A8.32,8.32,0,0,1,190.5.9Z"/><path class="cls-14" d="M196.5,10c1.53-.48,3.19-1,5-1.7.06.34.12.64.17.89q-2.33.81-4.79,1.7Zm10.05-3.62.68.77c-.66.44-1.49,1-2.47,1.55a8.54,8.54,0,0,0,3.42,1.53c-.24.34-.46.66-.64,1a8.1,8.1,0,0,1-4.69-3.3v2.54a1.27,1.27,0,0,1-1.45,1.42l-1.65,0c0-.29-.1-.63-.16-1a14.65,14.65,0,0,0,1.51.1c.56,0,.83-.25.83-.75V5.94h-5.27V5.15h8.74V3.9h-7.26V3.15h7.26V1.91h-7.49V1.12h8.37v4h1.82v.79h-5.25v.27a6.59,6.59,0,0,0,1.24,1.85C205,7.47,205.82,6.9,206.55,6.34Zm-8.42-.08q1.13.68,2.28,1.47l-.57.78c-.71-.54-1.46-1.07-2.25-1.57Z"/><path class="cls-14" d="M207.26,29.07v9.08h-1.17V29.07Z"/><path class="cls-14" d="M209.62,38.15V29.07h2.59a5,5,0,0,1,3.43,1.2A4.11,4.11,0,0,1,217,33.5a4.42,4.42,0,0,1-1.37,3.38,5,5,0,0,1-3.52,1.27Zm1.17-8v7h1.32a3.71,3.71,0,0,0,2.7-.94,3.54,3.54,0,0,0,1-2.64,3.17,3.17,0,0,0-1-2.56,3.88,3.88,0,0,0-2.62-.85Z"/><path class="cls-14" d="M221.28,35.51a12.64,12.64,0,0,0,1.78-4.2h-1.7v-.79h1.78v-2.3H224v2.3h1.6v.79H224v2.08l.51-.53a18.11,18.11,0,0,1,1.32,1.24l-.62.65c-.38-.43-.78-.86-1.21-1.29v6.18h-.82V33.3a11.69,11.69,0,0,1-1.47,3.24C221.56,36.2,221.43,35.86,221.28,35.51Zm5.35-1.23.88.35a42.14,42.14,0,0,1-1.91,3.81,6.16,6.16,0,0,0-.85-.41A28.32,28.32,0,0,0,226.63,34.28Zm-1.09-1.94h7.32v.82h-3.24v4.9c0,1-.45,1.47-1.34,1.47h-1.56c0-.29-.1-.61-.17-1a13.61,13.61,0,0,0,1.48.1c.47,0,.7-.29.7-.87V33.16h-3.19Zm.54-3.43h6.24v.82h-6.24Zm4.32,5.77.83-.4c.74,1.42,1.36,2.66,1.85,3.74l-.94.41Q231.38,36.6,230.4,34.68Z"/><path class="cls-14" d="M237.28,36.81c0,.4.05.74.08,1-1,.68-1.8,1.24-2.36,1.68l-.55-.78a1.24,1.24,0,0,0,.4-1.06V33.08h-1.52v-.87h2.43v5.66C236.23,37.55,236.74,37.2,237.28,36.81Zm-2.63-8.45c.85.87,1.47,1.52,1.85,1.94l-.82.7a22.81,22.81,0,0,0-1.74-2Zm4.07,5.17v4c0,.59.28.88.84.88h3c.71,0,1.11-.26,1.21-.79s.16-1,.24-1.82c.34.13.67.24,1,.34-.11.72-.22,1.36-.34,1.9-.18.84-.81,1.26-1.9,1.26h-3.52c-.95,0-1.43-.5-1.43-1.5V32.66h5.42v-3h-5.91v-.87h6.82v5.31h-.91v-.56Z"/><path class="cls-14" d="M184.52,68.38a8.09,8.09,0,0,0,2.75-2.62c-.11-.27-.23-.54-.37-.81A16.08,16.08,0,0,1,185,66.23l-.53-.71a12.7,12.7,0,0,0,2-1.27,10.34,10.34,0,0,0-1.24-1.46l.58-.54a9.76,9.76,0,0,1,1.31,1.45,10.82,10.82,0,0,0,1.22-1.31l.73.49a16.45,16.45,0,0,1-1.5,1.51,7.33,7.33,0,0,1,1,4.13c0,1.43-.67,2.15-1.92,2.15-.33,0-.72,0-1.18,0,0-.27-.1-.59-.17-1a10.51,10.51,0,0,0,1.29.09c.7,0,1.07-.43,1.1-1.28a6.49,6.49,0,0,0-.16-1.77,9.71,9.71,0,0,1-2.49,2.33C184.92,68.87,184.74,68.64,184.52,68.38Zm.18-7.76h3.22V59.33h.91v1.29h3.22V59.33H193v1.29h3.21v.83H193v.79h-.91v-.79h-3.22v.77h-.91v-.77H184.7Zm4.25,4.1h2.84c0-.58,0-1.3,0-2.14h.92c0,.67,0,1.39,0,2.14H196v.83h-3.26a6,6,0,0,0,3.42,4.53l-.73.8a6.49,6.49,0,0,1-3.14-4A6.67,6.67,0,0,1,189,71q-.27-.39-.6-.78a5.81,5.81,0,0,0,3.32-4.64H189Zm4.43-1.62.47-.59c.63.39,1.21.77,1.72,1.14l-.52.68C194.61,64,194.05,63.57,193.38,63.1Z"/><path class="cls-14" d="M196.49,68.12l1-.14V60.74h-.88v-.82h5.74v.41h5.12v.73a16.9,16.9,0,0,1-2,6.37,8,8,0,0,0,2.66,2.43,8,8,0,0,0-.71.87A12.09,12.09,0,0,1,205,68.18a12.61,12.61,0,0,1-2.81,2.69c-.22-.29-.42-.54-.6-.74v.73h-.88V68.32l-4.09.67Zm1.93-5.59h2.28V60.74h-2.28Zm0,2.54h2.28V63.28h-2.28Zm2.28,2.46V65.82h-2.28v2.05Zm1.61-6.41v-.38h-.73V67.4l1.34-.22c0,.32,0,.59,0,.81l-1.3.2v1.89a9.8,9.8,0,0,0,2.9-2.65,14.62,14.62,0,0,1-1.74-6.31Zm4.34,0h-3.06A13.63,13.63,0,0,0,205,66.64,16.52,16.52,0,0,0,206.65,61.12Z"/><path class="cls-14" d="M215.06,59.51l-.23.3a11.24,11.24,0,0,0,5.28,4c-.28.37-.49.69-.66,1a14.45,14.45,0,0,1-5.2-4.28A17,17,0,0,1,209,64.84a8.61,8.61,0,0,0-.6-.87,14,14,0,0,0,5.48-4.46Zm-3.39,7.67,2.59,1.72c.78-.72,1.68-1.63,2.7-2.7h-7.22v-.88h8.53v.88c-1,1-2.06,2.11-3.23,3.23l1.18.82-.72.79q-2.31-1.8-4.45-3.18Zm1.27-4.1.7-.55c.61.6,1.16,1.19,1.66,1.76l-.77.65A20.94,20.94,0,0,0,212.94,63.08Z"/><path class="cls-14" d="M224.1,70.76h-.85v-4.4H222a9.25,9.25,0,0,1-.9,4.57c-.2-.21-.45-.44-.73-.68a8,8,0,0,0,.78-4V59.8H222v3.44h1.18V59.46H224v3.78h.86V64H222v1.66h2.12Zm.38-2.88h1.43c-.16-.2-.33-.4-.52-.61a4.68,4.68,0,0,0,1.78-1.42H225.3V60.62h2c.15-.38.3-.81.46-1.3l.91.28-.48,1h3v5.62h-.82v-.39h-2.21a5.12,5.12,0,0,1-2,2h2.34v-1.5h.86v1.5H232v.81h-2.65v2.15h-.86V68.69h-4Zm1.64-5h1.7V61.39h-1.7Zm1.67.75h-1.67v1.47h1.43A6.62,6.62,0,0,0,227.79,63.6Zm.64,1.47h1.95V63.6h-1.77A7.28,7.28,0,0,1,228.43,65.07Zm1.95-3.68h-1.74v1.46h1.74Z"/><path class="cls-14" d="M209.29,95.64c0,.36.06.7.11,1-.58.41-1.22.89-1.91,1.45a6.54,6.54,0,0,0-.59.55l-.63-.7a1.61,1.61,0,0,0,.42-1.15V93.08h-1.5v-.85h2.41v4.71C208.17,96.52,208.73,96.09,209.29,95.64Zm-2.92-7.22c.64.63,1.25,1.27,1.81,1.91l-.82.69a22.29,22.29,0,0,0-1.7-2Zm2.46,1.84h3.81a15.26,15.26,0,0,0-.89-1.68l.82-.38c.37.57.68,1.11.94,1.61l-.84.45h4.05v.84h-5.23v1.83h4.4c-.09,2.36-.17,4-.26,4.89A1.5,1.5,0,0,1,214,99.41c-.58,0-1.21,0-1.9,0-.05-.36-.12-.7-.19-1a15.94,15.94,0,0,0,2,.13c.51,0,.79-.29.86-.88.08-.92.16-2.2.22-3.83h-3.46A10.89,10.89,0,0,1,211,96.9a7.72,7.72,0,0,1-1.94,2.92,4.62,4.62,0,0,0-.75-.69,6.78,6.78,0,0,0,1.81-2.67,11.11,11.11,0,0,0,.38-3.38v-2h-1.7Z"/><path class="cls-14" d="M217.66,90.55h.91v9.19h-.91Zm.58-1.72.67-.6c.43.41,1,1,1.7,1.71l-.76.67C219.18,89.83,218.64,89.24,218.24,88.83Zm2.1,3.09h5v4.69h-4.13v.67h-.84Zm4.12.87h-3.28v2.95h3.28Zm-3.14-2.93V89H228V98c0,1.13-.51,1.7-1.54,1.7l-1.92,0a8.26,8.26,0,0,0-.19-1c.65,0,1.28.07,1.88.07s.85-.31.85-.92V89.86Z"/><path class="cls-14" d="M235.61,88.4l-.22.3a11.21,11.21,0,0,0,5.27,4q-.41.56-.66,1a14.54,14.54,0,0,1-5.2-4.28,17.07,17.07,0,0,1-5.27,4.33c-.17-.27-.37-.56-.61-.87a13.88,13.88,0,0,0,5.48-4.46Zm-3.39,7.67,2.59,1.72q1.17-1.08,2.7-2.7h-7.22v-.88h8.53v.88c-1,1-2.06,2.11-3.22,3.23l1.17.82-.72.79q-2.31-1.8-4.45-3.18Zm1.27-4.1.7-.55c.61.6,1.16,1.19,1.66,1.76l-.77.65A20.94,20.94,0,0,0,233.49,92Z"/><path class="cls-14" d="M244.68,99.65h-.86v-4.4h-1.26a9.24,9.24,0,0,1-.91,4.57,9.84,9.84,0,0,0-.72-.68,8.14,8.14,0,0,0,.77-4v-6.5h.86v3.44h1.18V88.35h.85v3.78h.86v.73h-2.89v1.66h2.12Zm.37-2.88h1.43c-.15-.2-.33-.4-.51-.6a4.87,4.87,0,0,0,1.78-1.43h-1.88V89.51h2c.15-.38.31-.81.46-1.3l.92.28-.49,1h3v5.62H251v-.39h-2.22a5,5,0,0,1-2,2h2.35v-1.5h.85v1.5h2.65v.81H249.9v2.15h-.85V97.58h-4Zm1.64-5h1.7V90.28h-1.7Zm1.68.75h-1.68V94h1.43A6,6,0,0,0,248.37,92.49ZM249,94h2V92.49h-1.77A7.21,7.21,0,0,1,249,94Zm2-3.68h-1.75v1.46H251Z"/><path class="cls-14" d="M192.53,190.18h-1.18v-4.09h-4.59v4.09h-1.17V181.1h1.17v4h4.59v-4h1.18Z"/><path class="cls-14" d="M200.32,182.15H197.7v8h-1.18v-8h-2.61V181.1h6.41Z"/><path class="cls-14" d="M207.41,182.15h-2.62v8h-1.18v-8H201V181.1h6.41Z"/><path class="cls-14" d="M209.94,186.79v3.39h-1.17V181.1h2.57a3.41,3.41,0,0,1,2.29.71,2.56,2.56,0,0,1,.81,2,2.73,2.73,0,0,1-.95,2.16,3.31,3.31,0,0,1-2.38.79Zm0-4.66v3.63H211a2.42,2.42,0,0,0,1.63-.49,1.73,1.73,0,0,0,.56-1.38c0-1.17-.69-1.76-2.08-1.76Z"/><path class="cls-14" d="M219.19,181.77H222v8.1h-.82V189H220V190h-.82Zm2,.81H220v5.59h1.19Zm1.76-.73H225c.22-.55.42-1.1.59-1.64l.95.23c-.2.49-.41,1-.61,1.41h3.48v8.44c0,.88-.41,1.33-1.22,1.34h-1.46c0-.28-.1-.59-.17-.92.53,0,1,.07,1.4.07s.63-.24.63-.74v-7.39h-4.83v9.14H223Zm1.69,2.35h3.09v4.59h-2.29v.52h-.8Zm2.3.72h-1.5v3.14H227Z"/><path class="cls-14" d="M235.94,180.55l.86-.45a13.1,13.1,0,0,1,1,1.39l-.57.33H242v.89h-9.13v2.87c0,2.77-.57,4.83-1.72,6.2a7.53,7.53,0,0,0-.67-.81q1.4-1.58,1.4-5.37v-3.78h5C236.53,181.39,236.25,181,235.94,180.55Zm-3.19,9.65h5.42a57.13,57.13,0,0,0,1.94-6.4l1,.28c-.74,2.58-1.38,4.62-1.95,6.12h2.89v.89h-9.32Zm.63-5.76.89-.3q.72,2.13,1.41,4.78l-1,.3C234.32,187.68,233.89,186.08,233.38,184.44Zm2.82-.58.91-.26c.4,1.41.76,3,1.07,4.72l-1,.27A44.49,44.49,0,0,0,236.2,183.86Z"/></g></svg>