<svg xmlns="http://www.w3.org/2000/svg" xmlns:xlink="http://www.w3.org/1999/xlink" viewBox="0 0 245.1 263.9"><defs><clipPath id="a" transform="translate(-8.8)"><rect x="62" y="176.5" width="54" height="54" fill="none"/></clipPath></defs><title>OJ104327268</title><rect width="245" height="263.87" fill="#fff"/><rect x="70.3" width="104.7" height="90" fill="#0072c6"/><path d="M62.3,100.3h-.6V83.2a1.8,1.8,0,0,1,1.7-1.7h9.7v.6H63.4a1,1,0,0,0-1.1,1.1h0v17.1Z" transform="translate(-8.8)"/><path d="M90.3,100.3h-.5V83.2a1.1,1.1,0,0,0-1.1-1.1H73.1v-.5H88.7a1.6,1.6,0,0,1,1.6,1.6Z" transform="translate(-8.8)"/><polygon points="63.4 98.8 55.3 98.8 55.3 83.7 62.6 83.7 62.6 84.3 55.8 84.3 55.8 98.2 63.4 98.2 63.4 98.8"/><polygon points="79.2 98.8 74 98.8 74 98.2 78.7 98.2 78.7 84.3 72 84.3 72 83.7 79.2 83.7 79.2 98.8"/><path d="M94.4,103.2H86.3v-.6h8.1a1,1,0,0,0,1.1-1.1v-.9H86.3v-.5H96v1.4A1.7,1.7,0,0,1,94.4,103.2Z" transform="translate(-8.8)"/><path d="M72,103.2H57.6a1.7,1.7,0,0,1-1.6-1.7v-1.4H72.2v.5H56.5v.9a1.1,1.1,0,0,0,1.1,1.1H72Z" transform="translate(-8.8)"/><rect x="72.4" y="83.7" width="5.5" height="0.53"/><rect x="56.6" y="83.7" width="15.5" height="0.53"/><path d="M79.6,102.6H79V97.5A1.5,1.5,0,0,0,77.5,96,1.5,1.5,0,0,0,76,97.5h0v5.1h-.5V97.5a2,2,0,0,1,2-2,2.1,2.1,0,0,1,2.1,2Z" transform="translate(-8.8)"/><path d="M83.1,102.6h-.5V98.9a1.5,1.5,0,0,0-1.5-1.5,1.5,1.5,0,0,0-1.5,1.5h0v3.7H79V98.9a2,2,0,0,1,2.1-2,2,2,0,0,1,2,2Z" transform="translate(-8.8)"/><path d="M86.6,112.8h-.5V100.3a1.5,1.5,0,1,0-3,0h0v2.3h-.5v-2.3a2,2,0,1,1,4,0Z" transform="translate(-8.8)"/><path d="M86.6,114.3H71.8l-6.4-6.5a2.6,2.6,0,1,1,3.7-3.7l2.8,2.6V91a2,2,0,0,1,2-2A2,2,0,0,1,76,91v9.7h-.6V91a1.5,1.5,0,0,0-1.5-1.5A1.5,1.5,0,0,0,72.4,91h0v16.9l-3.6-3.6a2.2,2.2,0,0,0-3-.1,2.1,2.1,0,0,0-.2,3h.2l6.4,6.5H86.1v-7.1h.5Z" transform="translate(-8.8)"/><g clip-path="url(#a)"><path d="M111.9,182.4H66.1a3.2,3.2,0,0,0-3.2,3.3v28.1a3.2,3.2,0,0,0,3.2,3.2h45.8a3.3,3.3,0,0,0,3.3-3.2V185.7A3.4,3.4,0,0,0,111.9,182.4Z" transform="translate(-8.8)" fill="#fff"/></g><g clip-path="url(#a)"><path d="M115.2,185.4v8.9H62.8v-8.9a3.1,3.1,0,0,1,2.9-3h46.6A3.1,3.1,0,0,1,115.2,185.4Z" transform="translate(-8.8)" fill="#e5e5e5"/></g><g clip-path="url(#a)"><path d="M111.9,181.6H66.1a4.1,4.1,0,0,0-4.1,4.1v28.1a4.1,4.1,0,0,0,4.1,4.1h22l-.3,5H78l-2.5,1.7h27l-2.5-1.7H90.2l-.3-5h22a4.2,4.2,0,0,0,4.1-4.1V185.6A4.1,4.1,0,0,0,111.9,181.6Zm2.4,32.2a2.4,2.4,0,0,1-2.4,2.4H66.1a2.4,2.4,0,0,1-2.4-2.4V185.7a2.4,2.4,0,0,1,2.4-2.4h45.8a2.4,2.4,0,0,1,2.4,2.4v28.1Z" transform="translate(-8.8)" fill="#3c3c41"/></g><ellipse cx="53.4" cy="217.9" rx="18.5" ry="18.5" fill="#ebebeb"/><path d="M62.2,237.3a19.5,19.5,0,1,1,19.5-19.5A19.5,19.5,0,0,1,62.2,237.3Zm0-36.9a17.5,17.5,0,1,0,17.5,17.5A17.5,17.5,0,0,0,62.2,200.4Z" transform="translate(-8.8)" fill="#3c3c41"/><path d="M67.2,208.9a5,5,0,0,1-5,5.1,5.1,5.1,0,1,1,0-10.1,5,5,0,0,1,5,5" transform="translate(-8.8)" fill="#75757a"/><polygon points="57.1 215.7 53.4 220.9 49.8 215.7 44.4 215.7 44.4 228.4 62.4 228.4 62.4 215.7 57.1 215.7" fill="#75757a"/><path d="M57.2,208.9a5.1,5.1,0,0,0,4.9,5.1l1.3-9.9a2.5,2.5,0,0,0-1.2-.2,5,5,0,0,0-5,5" transform="translate(-8.8)" fill="#fff" opacity="0.2" style="isolation:isolate"/><polygon points="49.8 215.7 44.4 215.7 44.4 228.4 51.5 228.4 52.6 219.7 49.8 215.7" fill="#fff" opacity="0.2" style="isolation:isolate"/><line x1="67.2" y1="181.5" x2="67.2" y2="119.9" fill="none" stroke="#000" stroke-miterlimit="10"/><polygon points="71 121 67.2 114.5 63.5 121 71 121"/><line x1="99.6" y1="176.2" x2="99.6" y2="90" fill="none" stroke="#000" stroke-miterlimit="10"/><polygon points="103.3 175.1 99.6 181.5 95.8 175.1 103.3 175.1"/><rect x="184.7" y="190.4" width="58" height="31.27" fill="#fff"/><path d="M253.9,183.3a1.1,1.1,0,0,0-1.1-1.1H192.2a1.1,1.1,0,0,0-1.1,1.1v37.8a1.1,1.1,0,0,0,1.1,1.1h60.6a1.1,1.1,0,0,0,1.1-1.1Zm-54.1,6h-3.2v-3.2h3.2Zm6.2,0h-3.1v-3.2H206Zm6.3,0h-3.1v-3.2h3.1Zm-18.8,2.3h58v28.3h-58V191.6Z" transform="translate(-8.8)" fill="#0072c6"/><path d="M198.5,208.7a14.9,14.9,0,0,0-11.9-5.9,15.4,15.4,0,0,0-9.1,3.1,15,15,0,0,0,9.1,26.9,14.7,14.7,0,0,0,9.1-3.1A14.9,14.9,0,0,0,198.5,208.7Zm.7,12.5-2.3-1.8a2.7,2.7,0,0,0-.3-2.7,2.8,2.8,0,0,0-3.7-.6l-4.2-4.1a15.2,15.2,0,0,1,8.1-2.2l.2.2A13,13,0,0,1,199.2,221.2Zm-8.2,3.6a1.9,1.9,0,0,0-.5-1,2.5,2.5,0,0,0-3.4-.7,20.9,20.9,0,0,1-3.5-2.3l-.3-.2a4.2,4.2,0,0,0-.6-3.9h-.1a3,3,0,0,0,.8-.8,20.6,20.6,0,0,1,3.5-2.7h-.1l5,4.2a2.8,2.8,0,0,0,.3,2.8,2.8,2.8,0,0,0,3.9.6l.2-.2,2.6,1.8a11.1,11.1,0,0,1-1.4,2.9A13.5,13.5,0,0,1,191,224.8Zm4-16.9a13.8,13.8,0,0,0-8.7,1.6c-1.2-1.2-2.4-2.6-3.7-4.1a13.4,13.4,0,0,1,4-.6A13.2,13.2,0,0,1,195,207.9Zm-16.4-.4,2.2-1.4a24.5,24.5,0,0,0,3.6,4.5,19.9,19.9,0,0,0-3.6,3.1l-1.3,1.5a3.9,3.9,0,0,0-1.8.4,10.3,10.3,0,0,1-1.4-5.7A13.1,13.1,0,0,1,178.6,207.5Zm-3.8,4.8a9.3,9.3,0,0,0,1.2,5,3.8,3.8,0,0,0,.4,4.2h0a27,27,0,0,0-.6,3.6A13,13,0,0,1,174.8,212.3Zm19.7,15.9a12.4,12.4,0,0,1-7.9,2.7,13.1,13.1,0,0,1-8.4-3,16,16,0,0,1,.7-4.9,3.8,3.8,0,0,0,2.9-.6l.3.2a19.9,19.9,0,0,0,3.8,2.4,2.2,2.2,0,0,0,.5,1.9,2.6,2.6,0,0,0,3.6.5,1.3,1.3,0,0,0,.6-.7,26.3,26.3,0,0,0,5.1.5Z" transform="translate(-8.8)"/><line x1="107.2" y1="191.5" x2="176.9" y2="191.5" fill="none" stroke="#000" stroke-miterlimit="10"/><polygon points="175.8 195.3 182.2 191.5 175.8 187.8 175.8 195.3"/><polygon points="99.3 146.3 90.8 152.5 94 162.5 104.6 162.5 107.9 152.5 99.3 146.3" fill="#ebebeb" stroke="#000" stroke-miterlimit="10" stroke-width="0.75"/><polygon points="132.4 181.7 123.8 187.9 127.1 197.9 137.7 197.9 140.9 187.9 132.4 181.7" fill="#ebebeb" stroke="#000" stroke-miterlimit="10" stroke-width="0.75"/><path d="M26.7,82.4v-.8h4.7v.8a12.6,12.6,0,0,1-4.9,4.5l-.5-.8,2-1.2-1.5-1.5.5-.6,1.6,1.5a7.7,7.7,0,0,0,1.7-1.9Zm-.5,8.8h4a8.1,8.1,0,0,0-1.3-1.1l.6-.6,1.4,1.2-.5.5h2.9l-.4-.4,1.3-1.3.7.5-1.2,1.2h4V92H26.2Zm1.8-5h7.8v3.6h-.9v-.4h-6v.4H28Zm6.9.8h-6v1.6h6Zm-5-2.6h4v.8h-4Zm2.9-3.5.6,1.4,2.3-1.4.6.7L33.9,83a2.7,2.7,0,0,0,.7.8l2.3-1.3.6.7-2.2,1.3a6.8,6.8,0,0,0,2.6,1.1l-.7,1A8.8,8.8,0,0,1,32,81.3Z" transform="translate(-8.8)" fill="#1e1e1e" stroke="#1e1e1e" stroke-miterlimit="10" stroke-width="0.06"/><path d="M38,90.3l5-1.7a6.4,6.4,0,0,0,.2.9l-4.8,1.7Zm10.1-3.6.7.8L46.3,89a10.7,10.7,0,0,0,3.4,1.6l-.6.9a7.8,7.8,0,0,1-4.7-3.3v2.6c0,.9-.5,1.4-1.5,1.4H41.3a8.7,8.7,0,0,1-.2-1h1.5c.6,0,.9-.2.9-.7V86.3H38.2v-.8h8.7V84.3H39.7v-.8h7.2V82.3H39.5v-.8h8.3v4h1.8v.8H44.4v.3a5.7,5.7,0,0,0,1.2,1.8A27.1,27.1,0,0,0,48.1,86.7Zm-8.4-.1L42,88.1l-.6.8a18.8,18.8,0,0,0-2.3-1.6Z" transform="translate(-8.8)" fill="#1e1e1e" stroke="#1e1e1e" stroke-miterlimit="10" stroke-width="0.06"/><path d="M26.1,106c2-.4,3.4-.9,4.1-1.6a3.8,3.8,0,0,0,1.3-3.2V99.8h1v1.4a6.6,6.6,0,0,1-.3,2.1c1.9.9,3.7,1.7,5.4,2.7l-.6.8a49.5,49.5,0,0,0-5.2-2.7,2.9,2.9,0,0,1-1,1.2,13.3,13.3,0,0,1-4.1,1.7A3.7,3.7,0,0,0,26.1,106Zm1.6-7.7H31c.1-.4.2-.9.4-1.5h-5v-.9H37.6v.9H32.4a13.1,13.1,0,0,1-.5,1.5h4.5v5.6h-1V99.2H28.6V104h-.9Z" transform="translate(-8.8)" fill="#1e1e1e" stroke="#1e1e1e" stroke-miterlimit="10" stroke-width="0.06"/><path d="M38.8,98.4h3.8l.5-1.5H38.2V96H49.5v.9H44.2l-.7,1.5h5.3v8.4h-.9v-.7H39.7v.7h-.9Zm.9,7h1.9V99.2H39.7Zm2.8-4.7h2.7V99.2H42.5Zm0,2.4h2.7v-1.6H42.5Zm0,2.3h2.7v-1.6H42.5Zm5.4-6.2H46.1v6.2h1.8Z" transform="translate(-8.8)" fill="#1e1e1e" stroke="#1e1e1e" stroke-miterlimit="10" stroke-width="0.06"/><path d="M71.9,247.9v-3.7H68.5a7.4,7.4,0,0,1-1.4,4l-.7-.8a6.4,6.4,0,0,0,1-2.4,16,16,0,0,0,.3-3.6v-4.2h9.5v9.4c0,.9-.4,1.3-1.3,1.3H74.1a8.7,8.7,0,0,1-.2-1h1.7a.6.6,0,0,0,.7-.7v-2.1H72.8v3.7Zm-3.3-4.6h3.3v-2.2H68.6Zm0-5.2v2.2h3.3v-2.2Zm7.7,0H72.8v2.2h3.5Zm-3.5,5.2h3.5v-2.2H72.8Z" transform="translate(-8.8)" fill="#1e1e1e" stroke="#1e1e1e" stroke-miterlimit="10" stroke-width="0.06"/><path d="M83.1,236.9l.9-.5,1.1,1.5-.6.3h4.4v5.2H88v-.6H80.6a8.7,8.7,0,0,1-1.8,5.4l-.7-.8c1-1.2,1.5-3,1.5-5.5v-3.7h4.5Zm-2.5,2.2V242H88v-2.9Z" transform="translate(-8.8)" fill="#1e1e1e" stroke="#1e1e1e" stroke-miterlimit="10" stroke-width="0.06"/><path d="M90.6,238.5h1.2c.3-.7.5-1.4.7-2l1,.3c-.2.6-.5,1.2-.7,1.7h2.3v9.3h-.9v-.9H91.6v1h-1Zm3.6.9H91.6v2.8h2.6ZM91.6,246h2.6v-3H91.6Zm3.7-5.1a14.9,14.9,0,0,0,1.9-4.4l1,.3-.6,1.6h3.7c-.1,4.1-.1,6.6-.2,7.6s-.7,1.9-1.9,1.9H97c-.1-.4-.1-.7-.2-1H99a1,1,0,0,0,1.1-1.1c.1-1.2.2-3.3.2-6.5H97.2a18,18,0,0,1-1.1,2Zm1.1.8.7-.5,2,2.6-.8.6Z" transform="translate(-8.8)" fill="#1e1e1e" stroke="#1e1e1e" stroke-miterlimit="10" stroke-width="0.06"/><path d="M102,240.4l.5-.6a11.4,11.4,0,0,1,1.9,1.5l-.6.7Zm.4,7.2c.5-1.4.8-2.9,1.2-4.5l.8.4c-.3,1.4-.7,2.8-1.1,4.5Zm.1-10.2.5-.6,1.7,1.4-.6.7Zm6.7,2a14.4,14.4,0,0,1-1.3,4.4l1.6,2.9-.8.5c-.4-.8-.8-1.6-1.3-2.4a8.6,8.6,0,0,1-2.6,3.1l-.6-.7a9.6,9.6,0,0,0,2.7-3.3c-.5-1.1-1.2-2.2-1.8-3.3l.7-.4c.6.9,1.1,1.8,1.6,2.7a16.2,16.2,0,0,0,.9-3.5h-3.5v-.8h4.9v.8Zm-2.8-2.5.8-.4.8,1.5-.8.4A5.3,5.3,0,0,0,106.4,236.9Zm4.6,8.4h-.9v-7.4h.9Zm1.3-8.7h.9v10.1a1.1,1.1,0,0,1-1.2,1.2h-1.6c-.1-.3-.1-.7-.2-1h1.5a.5.5,0,0,0,.6-.6Z" transform="translate(-8.8)" fill="#1e1e1e" stroke="#1e1e1e" stroke-miterlimit="10" stroke-width="0.06"/><path d="M84.3,257.3a6.1,6.1,0,0,1-.1,1.4H85v2.1a.6.6,0,0,0,.7.7h2.1a.9.9,0,0,0,1-.7,6.1,6.1,0,0,0,.1-1.4l1,.3-.3,1.3a1.4,1.4,0,0,1-1.6,1.3H85.5a1.3,1.3,0,0,1-1.4-1.4v-1.8a2.9,2.9,0,0,1-1,1.6,9.1,9.1,0,0,1-4.3,1.9l-.5-.9a9.6,9.6,0,0,0,4.1-1.6,3.4,3.4,0,0,0,1-2.8Zm-5.4-5.9h.9v4.1h-.9Zm.9,4.6H88v4h-.9v-3.1H80.7v3.2h-.9Zm1.8-5h.9v4.5h-.9Zm3.3,0h1l-.6,1.2h4.3v.9H84.9a9.1,9.1,0,0,1-1.3,1.9l-.8-.5A10.2,10.2,0,0,0,84.9,251Zm.6,2.5,3.4,1.7-.5.7L85,254.2Z" transform="translate(-8.8)" fill="#1e1e1e" stroke="#1e1e1e" stroke-miterlimit="10" stroke-width="0.06"/><path d="M90.5,256h4.8a3.6,3.6,0,0,0,.2-1.1l.8.2a2.9,2.9,0,0,1-.2.9h2.6l-1-.7.5-.5,1.4.9-.3.3h2.2v.7H97c.9.9,2.5,1.3,4.8,1.3a4.1,4.1,0,0,0-.5.9h-.6v3.6h-.8v-.6H97.4v.6h-.8v-3.6h3.7c-2.3-.3-3.7-1-4.3-2.1h-.2c-.4,1-1.9,1.7-4.3,2.1h3.8v3.6h-.8v-.6H92v.6h-.8v-3.5h-.7l-.4-.9c2.6-.3,4.1-.8,4.7-1.4H90.5Zm.7-4.3h4.1v3.4h-.8v-.4H92v.5h-.8Zm3.3.7H92V254h2.5Zm0,7.1H92v1.6h2.5Zm2-7.8h4.2v3.5h-.8v-.5H97.4v.4h-.9Zm3.4.7H97.4V254h2.5Zm0,7.1H97.4v1.6h2.5Z" transform="translate(-8.8)" fill="#1e1e1e" stroke="#1e1e1e" stroke-miterlimit="10" stroke-width="0.06"/><path d="M209.1,237l-2.5,9.1h-1.4l-1.8-6.5a3,3,0,0,1-.2-1h0a3,3,0,0,1-.2,1l-1.8,6.5h-1.4l-2.6-9.1h1.3l1.8,6.9a2.9,2.9,0,0,1,.2.9h0a5.1,5.1,0,0,1,.2-.9l2-6.9h1.1l1.9,7c.1.2.1.5.2.8h0a5.1,5.1,0,0,1,.2-.9l1.7-6.9Z" transform="translate(-8.8)" fill="#1e1e1e" stroke="#1e1e1e" stroke-miterlimit="10" stroke-width="0.06"/><path d="M215.2,243.2h-4.6a2.6,2.6,0,0,0,.6,1.6,2,2,0,0,0,1.5.5,3.1,3.1,0,0,0,2-.7v1.1a3.9,3.9,0,0,1-2.3.6,2.9,2.9,0,0,1-2.2-.9,3.7,3.7,0,0,1-.7-2.5,3.2,3.2,0,0,1,.8-2.4,2.7,2.7,0,0,1,2.2-1,2.8,2.8,0,0,1,2,.8,3.9,3.9,0,0,1,.7,2.3Zm-1.2-.9a2,2,0,0,0-.4-1.4,1.6,1.6,0,0,0-1.1-.5,1.7,1.7,0,0,0-1.2.5,2.3,2.3,0,0,0-.7,1.4Z" transform="translate(-8.8)" fill="#1e1e1e" stroke="#1e1e1e" stroke-miterlimit="10" stroke-width="0.06"/><path d="M217.8,245.2v.9h-1.2v-9.6h1.2v4.3h0a2.3,2.3,0,0,1,2.2-1.3,2.8,2.8,0,0,1,2,.8,4.3,4.3,0,0,1,.7,2.4,4,4,0,0,1-.8,2.6,2.7,2.7,0,0,1-2.2,1,2.1,2.1,0,0,1-1.9-1.1Zm0-1.7a1.7,1.7,0,0,0,.5,1.3,1.7,1.7,0,0,0,1.3.5,1.6,1.6,0,0,0,1.4-.7,3.3,3.3,0,0,0,.5-1.9,2.9,2.9,0,0,0-.5-1.7,1.5,1.5,0,0,0-1.3-.6,1.8,1.8,0,0,0-1.4.6,2.8,2.8,0,0,0-.5,1.6Z" transform="translate(-8.8)" fill="#1e1e1e" stroke="#1e1e1e" stroke-miterlimit="10" stroke-width="0.06"/><path d="M232.2,236.5l.9-.5,1,1.4-.6.4h4.7v.9h-9.1v2.8c0,2.8-.6,4.9-1.7,6.2l-.7-.8c1-1,1.4-2.8,1.4-5.4v-3.7h5Zm-3.2,9.6h5.5a59.5,59.5,0,0,0,1.9-6.4l1,.3c-.7,2.6-1.4,4.6-1.9,6.1h2.9v.9H229Zm.7-5.7.9-.3,1.4,4.8-1,.3C230.6,243.6,230.2,242,229.7,240.4Zm2.8-.6.9-.3a43.2,43.2,0,0,1,1.1,4.8l-1.1.2A43,43,0,0,0,232.5,239.8Z" transform="translate(-8.8)" fill="#1e1e1e" stroke="#1e1e1e" stroke-miterlimit="10" stroke-width="0.06"/><path d="M244.4,247.5v-3.7H241a8.3,8.3,0,0,1-1.4,4l-.7-.8a6.4,6.4,0,0,0,1-2.4,16,16,0,0,0,.3-3.6v-4.2h9.5v9.4c0,.9-.4,1.4-1.3,1.4h-1.8a8.7,8.7,0,0,1-.2-1H248c.5,0,.8-.2.8-.7v-2.1h-3.5v3.7Zm-3.4-4.6h3.4v-2.2h-3.3A15.5,15.5,0,0,1,241,242.9Zm.1-5.2v2.2h3.3v-2.2Zm7.7,0h-3.5v2.2h3.5Zm-3.5,5.2h3.5v-2.2h-3.5Z" transform="translate(-8.8)" fill="#1e1e1e" stroke="#1e1e1e" stroke-miterlimit="10" stroke-width="0.06"/><path d="M211.9,258.9a11.3,11.3,0,0,0,1.8-4h-1.6v-.8h1.8v-1.8l-1.5.2-.3-.8a29,29,0,0,0,4.1-.6l.2.8-1.7.3v1.9h1.7v.8h-1.7v1.6l.5-.4,1.4,1.5-.7.6-1.2-1.4v5.4h-.8v-5.6a10.1,10.1,0,0,1-1.6,3.3Zm4.2,1.9h3.3V259h-2.6v-.7h2.6v-1.6h-2.9v-.8h6.8v.8h-2.9v1.6H223v.7h-2.6v1.8h3.3v.8h-7.6Zm.9-9.6h5.8v4h-.9v-.5h-4v.5H217Zm4.9.8h-4v1.9h4Z" transform="translate(-8.8)" fill="#1e1e1e" stroke="#1e1e1e" stroke-miterlimit="10" stroke-width="0.06"/><path d="M229.4,251l.8-.5.9,1.2-.6.3h5v.9h-9.4v3.2c0,2.8-.5,4.8-1.6,6.2a2.4,2.4,0,0,0-.6-.8,8.6,8.6,0,0,0,1.3-5.2V252h4.9Zm-2.9,5.9h4.1l-2.1-1.4.6-.6,1.7,1.1,2.1-1.3h-5.7v-.8h7.4v.8l-3.1,1.8.3.2-.3.2h3.9v.9l-1,2.1-.9-.4.8-1.7h-2.8v2.8c0,.9-.4,1.4-1.3,1.4h-1.8c0-.3-.1-.6-.1-1h1.6c.4,0,.6-.2.6-.7v-2.6h-4Z" transform="translate(-8.8)" fill="#1e1e1e" stroke="#1e1e1e" stroke-miterlimit="10" stroke-width="0.06"/><path d="M114.1,40.8h-1.9v-5c0-.6.1-1.2.1-1.8h0a5.3,5.3,0,0,1-.3,1.1l-2,5.7h-1.5l-2-5.7a3,3,0,0,1-.3-1.1h0v6.8h-1.7V32.4h2.8l1.7,5a2.7,2.7,0,0,1,.3,1.2h0c.2-.5.3-.9.4-1.2l1.7-5h2.7Z" transform="translate(-8.8)" fill="#fff"/><path d="M116.8,33.8a1.1,1.1,0,0,1-.8-.2,1,1,0,0,1,0-1.4,1.1,1.1,0,0,1,.8-.3,1,1,0,0,1,.7,1.7A.8.8,0,0,1,116.8,33.8Zm.9,7h-1.9v-6h1.9Z" transform="translate(-8.8)" fill="#fff"/><path d="M123.8,40.6a4.2,4.2,0,0,1-1.8.3,3.1,3.1,0,0,1-2.3-.8,3.3,3.3,0,0,1-.8-2.2,3.2,3.2,0,0,1,.9-2.4,3.3,3.3,0,0,1,2.5-.9,2.8,2.8,0,0,1,1.5.3v1.6a2,2,0,0,0-1.3-.4,1.8,1.8,0,0,0-1.3,3,1.6,1.6,0,0,0,1.2.4,2.5,2.5,0,0,0,1.4-.4Z" transform="translate(-8.8)" fill="#fff"/><path d="M128.9,36.5a1.1,1.1,0,0,0-.8-.2,1,1,0,0,0-.9.4,2.1,2.1,0,0,0-.4,1.2v2.9H125v-6h1.8v1.1h.1a1.6,1.6,0,0,1,1.6-1.2h.4Z" transform="translate(-8.8)" fill="#fff"/><path d="M132.6,40.9a3.2,3.2,0,0,1-2.4-.8,3.4,3.4,0,0,1-.8-2.3,2.9,2.9,0,0,1,.9-2.3,3.2,3.2,0,0,1,2.4-.9,3,3,0,0,1,2.3.9,2.8,2.8,0,0,1,.9,2.2,3.2,3.2,0,0,1-.9,2.4A3.2,3.2,0,0,1,132.6,40.9Zm0-4.8a1.3,1.3,0,0,0-1,.4,2.3,2.3,0,0,0-.3,1.3c0,1.1.4,1.7,1.3,1.7s1.4-.6,1.4-1.8S133.5,36.1,132.6,36.1Z" transform="translate(-8.8)" fill="#fff"/><path d="M136.7,40.6V39.1a1.8,1.8,0,0,0,.9.4l.8.2a1.5,1.5,0,0,0,.8-.2c.2,0,.3-.2.3-.4a.4.4,0,0,0-.1-.3l-.4-.2h-.4l-.5-.2-.6-.3-.5-.3c-.1-.2-.2-.3-.2-.5a1.3,1.3,0,0,1-.1-.6c0-.4,0-.7.2-.9a.9.9,0,0,1,.6-.6,1.1,1.1,0,0,1,.8-.3l1-.2h.8l.8.2v1.4l-.7-.3h-1.5c0,.1-.1.1-.1.2s-.1.1-.1.2a.4.4,0,0,0,.1.3l.3.2h.3l.5.2.6.3.5.3.4.5c0,.2.1.4.1.7a1.6,1.6,0,0,1-.3.9,1.7,1.7,0,0,1-.6.6,1.9,1.9,0,0,1-.9.3h-1A4.8,4.8,0,0,1,136.7,40.6Z" transform="translate(-8.8)" fill="#fff"/><path d="M145.2,40.9a3.2,3.2,0,0,1-2.4-.8,3.4,3.4,0,0,1-.8-2.3,2.9,2.9,0,0,1,.9-2.3,3.2,3.2,0,0,1,2.4-.9,2.9,2.9,0,0,1,2.3.9,2.8,2.8,0,0,1,.9,2.2,3.2,3.2,0,0,1-.9,2.4A3.2,3.2,0,0,1,145.2,40.9Zm0-4.8a1.3,1.3,0,0,0-1,.4,2.3,2.3,0,0,0-.3,1.3c0,1.1.4,1.7,1.4,1.7s1.3-.6,1.3-1.8S146.1,36.1,145.2,36.1Z" transform="translate(-8.8)" fill="#fff"/><path d="M153.4,33.3h-.7c-.6,0-.9.3-.9,1v.6h1.4v1.4h-1.4v4.6H150V36.2h-1V34.8h1V34a2,2,0,0,1,.7-1.6,2.4,2.4,0,0,1,1.8-.6h.9Z" transform="translate(-8.8)" fill="#fff"/><path d="M158,40.7a2.4,2.4,0,0,1-1.3.2c-1.3,0-1.9-.6-1.9-2V36.2h-1V34.8h1V33.5l1.8-.5v1.8H158v1.4h-1.4v2.4c0,.6.3.9.7.9h.7Z" transform="translate(-8.8)" fill="#fff"/><path d="M107,52.1a13,13,0,0,0,1.4-3.2h-1.3V47.4h1.3V45.3h1.5v2.1H111v1.5h-1.1v1.4l1.4.8-.7,1.3-.7-.5v5h-1.5V52a8.8,8.8,0,0,1-1,2.2C107.3,53.4,107.1,52.7,107,52.1Zm5-.9,1.4.3a34.4,34.4,0,0,1-1.5,4,4.2,4.2,0,0,0-1.4-.6A35.2,35.2,0,0,0,112,51.2Zm-1-2.3h7.6v1.5h-3v5a1.5,1.5,0,0,1-.3,1,2.3,2.3,0,0,1-1,.4h-1.8c-.1-.6-.2-1.2-.3-1.6h1.1c.5,0,.7-.2.7-.6V50.4h-3Zm.5-2.9h6.6v1.5h-6.6Zm5.8,5.2,1.5,3.8-1.5.5a33.5,33.5,0,0,0-1.4-3.8Z" transform="translate(-8.8)" fill="#fff"/><path d="M123.1,52.5c.1.7.1,1.3.2,1.7l-2.4,2.1-.9-1.1a1.2,1.2,0,0,0,.3-.9V50.5h-1.2V48.9h2.8v4.6Zm-2-7.1a21,21,0,0,1,1.5,2.2l-1.5.9c-.5-.8-.9-1.6-1.4-2.3Zm3.7,7.3,1.4.9L123.5,57l-1.4-1.2A16.7,16.7,0,0,0,124.8,52.7ZM123.3,46h6.6v6.3h-6.6Zm5,4.9V47.4h-3.4v3.5Zm-.1,1.8a40.3,40.3,0,0,1,2.6,3.2l-1.4,1c-.8-1.2-1.6-2.3-2.5-3.4Z" transform="translate(-8.8)" fill="#fff"/><path d="M131.2,51.6H136V47.3h-4.3V45.8h10.4v1.5h-4.3v4.3h4.8v1.6h-4.8v3.6H136V53.2h-4.8Zm.7-3.2,1.2-.9,2.4,2.9-1.5,1A30.2,30.2,0,0,0,131.9,48.4Zm10.2.1a35.8,35.8,0,0,1-2.6,2.9l-1.2-1a29.9,29.9,0,0,0,2.4-2.8Z" transform="translate(-8.8)" fill="#fff"/><path d="M151.5,46.7l3.4,3.5-1.3,1.1-.9-1.1c-3.4,0-6.3.2-8.8.4l-.6-1.4a20.2,20.2,0,0,0,4.5-4l1.6.8-3.5,3.1,5.6-.2-1.2-1.3Zm-7.1,10.1V51.3h9v5.5h-1.6v-.6H146v.6Zm7.4-4H146v1.9h5.8Z" transform="translate(-8.8)" fill="#fff"/></svg>