<svg xmlns="http://www.w3.org/2000/svg" xmlns:xlink="http://www.w3.org/1999/xlink" viewBox="0 0 433 302.1"><defs><style>.cls-1{fill:#505050;}.cls-16,.cls-2,.cls-7{fill:#fff;}.cls-3{fill:#ebebeb;}.cls-4{fill:#0072c6;}.cls-5{fill:#3c3c41;}.cls-6{fill:#75757a;}.cls-7{opacity:0.2;}.cls-7,.cls-8{isolation:isolate;}.cls-8,.cls-9{fill:#50e6ff;}.cls-8{opacity:0.65;}.cls-9{stroke:#0072c6;stroke-width:0.75px;}.cls-11,.cls-14,.cls-16,.cls-9{stroke-miterlimit:10;}.cls-10,.cls-11,.cls-13{fill:none;}.cls-10,.cls-11{stroke:#000;}.cls-12,.cls-14{fill:#001f50;}.cls-14{stroke:#001f50;}.cls-14,.cls-16{stroke-width:0.05px;}.cls-15{fill:#1e1e1e;}.cls-16{stroke:#fff;}</style><symbol id="New_Symbol_42" data-name="New Symbol 42" viewBox="0 0 21 20"><circle class="cls-1" cx="10.5" cy="10" r="10"/><path class="cls-2" d="M13,14.4H7.7v-.7a2.2,2.2,0,0,1,.1-.8,4.88,4.88,0,0,1,.3-.7c.1-.2.3-.2.5-.4l.5-.5a3.17,3.17,0,0,1,.6-.5,2.65,2.65,0,0,0,.6-.5,1.21,1.21,0,0,0,.5-.5c.1-.2.3-.3.4-.5s.2-.3.3-.5,0-.3,0-.5a1.27,1.27,0,0,0-.1-.6,1,1,0,0,0-.3-.4c-.2-.2-.2-.2-.4-.2s-.4-.1-.6-.1a3.55,3.55,0,0,0-1,.2,3,3,0,0,0-1,.7V6.6c.2-.1.3-.2.5-.3a1.69,1.69,0,0,1,.5-.2,2.07,2.07,0,0,0,.6-.2,1.48,1.48,0,0,1,.7-.1,3,3,0,0,1,1,.2,2,2,0,0,1,.8.4,1.79,1.79,0,0,1,.5.7,3,3,0,0,1,.2,1,2.77,2.77,0,0,1-.1.9,3.55,3.55,0,0,1-.4.9,1.72,1.72,0,0,1-.6.6c-.3.2-.4.5-.7.7a4.23,4.23,0,0,1-.7.5,3.17,3.17,0,0,0-.6.5c-.2.2-.3.4-.4.5a.76.76,0,0,0-.2.5H13v1.2Z"/></symbol><symbol id="New_Symbol_41" data-name="New Symbol 41" viewBox="0 0 21 20"><circle class="cls-1" cx="10.5" cy="10" r="10"/><path class="cls-2" d="M11.7,5.8v8.6H10.3V7.5a5.58,5.58,0,0,1-.8.5,2.93,2.93,0,0,1-1,.3V7.1a1.45,1.45,0,0,0,.7-.2l.6-.3c.2-.1.5-.2.7-.3a2.65,2.65,0,0,0,.6-.5Z"/></symbol><symbol id="New_Symbol_43" data-name="New Symbol 43" viewBox="0 0 21 20"><circle class="cls-1" cx="10.5" cy="10" r="10"/><path class="cls-2" d="M7.9,14.1V12.8a3.08,3.08,0,0,0,1.9.6,1.7,1.7,0,0,0,1.3-.4,1.39,1.39,0,0,0,.5-1c0-1-.7-1.4-2.2-1.4H8.8V9.5h.6c1.3,0,1.9-.4,1.9-1.4,0-.7-.5-1.1-1.5-1.1a2.45,2.45,0,0,0-1.6.6V6.4a4.23,4.23,0,0,1,2-.5,2.61,2.61,0,0,1,1.8.6A1.8,1.8,0,0,1,12.7,8,2,2,0,0,1,11,10h0a2.59,2.59,0,0,1,1.4.6A2.25,2.25,0,0,1,13,12a2,2,0,0,1-.9,1.8,3.9,3.9,0,0,1-2.2.8A3.68,3.68,0,0,1,7.9,14.1Z"/></symbol><symbol id="New_Symbol_45" data-name="New Symbol 45" viewBox="0 0 21 20"><circle class="cls-1" cx="10.5" cy="10" r="10"/><path class="cls-2" d="M8.1,14.2V12.9a2.72,2.72,0,0,0,1.7.6,2.89,2.89,0,0,0,1.4-.4,1.25,1.25,0,0,0,.5-1.2,1.15,1.15,0,0,0-.6-1.1,3.31,3.31,0,0,0-1.5-.4,9.51,9.51,0,0,0-1.4.1L8.5,6h4.1V7.2h-3L9.5,9.3h.7a2.82,2.82,0,0,1,2.1.7,2.27,2.27,0,0,1,.7,1.8,2.79,2.79,0,0,1-.8,2,3.2,3.2,0,0,1-2.3.8A3,3,0,0,1,8.1,14.2Z"/></symbol><symbol id="New_Symbol_44" data-name="New Symbol 44" viewBox="0 0 21 20"><circle class="cls-1" cx="10.5" cy="10" r="10"/><path class="cls-2" d="M12.5,6v5.4h1.3v1.1H12.5v1.8H11.1V12.5H7.3V11.4c.3-.4.7-.8,1.1-1.3a12.13,12.13,0,0,0,1-1.4c.3-.5.6-.9.9-1.4A9.13,9.13,0,0,0,11.1,6Zm-1.4,5.5V8a17.37,17.37,0,0,1-1.3,2,8.54,8.54,0,0,1-1.1,1.4l2.4.1Z"/></symbol></defs><title>OJ104327284</title><g id="bg"><g id="bg-2" data-name="bg"><g id="Shapes"><rect class="cls-2" width="433" height="299.7"/><rect class="cls-3" x="149.4" y="41" width="220.7" height="17.5"/><rect class="cls-2" x="251.9" y="37.5" width="46.3" height="24.9"/><path class="cls-4" d="M300,31.8a.79.79,0,0,0-.8-.8H250.9a.79.79,0,0,0-.8.8V62a.79.79,0,0,0,.8.8h48.3a.79.79,0,0,0,.8-.8Zm-43.1,4.8h-2.5V34.1h2.5Zm5,0h-2.5V34.1h2.5Zm5,0h-2.5V34.1h2.5Zm-15,1.8h46.3V60.9H251.9V38.4Z"/><circle class="cls-3" cx="239" cy="46.9" r="18.5"/><path class="cls-5" d="M239,66.3a19.5,19.5,0,1,1,19.5-19.5A19.46,19.46,0,0,1,239,66.3Zm0-36.9a17.5,17.5,0,1,0,17.5,17.5A17.52,17.52,0,0,0,239,29.4Z"/><path class="cls-6" d="M244,38a5,5,0,0,1-10,0,5.08,5.08,0,0,1,5-5,5,5,0,0,1,5,5"/><polygon class="cls-6" points="242.6 44.8 238.9 49.9 235.3 44.8 230 44.8 230 57.4 248 57.4 248 44.8 242.6 44.8"/><path class="cls-7" d="M234,38a5,5,0,0,0,4.9,5l1.3-9.9a2.54,2.54,0,0,0-1.2-.2,5,5,0,0,0-5,5.1"/><polygon class="cls-7" points="235.3 44.8 230 44.8 230 57.4 237 57.4 238.1 48.7 235.3 44.8"/><rect class="cls-2" y="217.8" width="96" height="55"/><rect class="cls-8" y="217.8" width="96" height="55"/><rect class="cls-2" x="210.3" y="217.8" width="95" height="55"/><rect class="cls-8" x="210.3" y="217.8" width="95" height="55"/><rect class="cls-5" x="221" y="227.8" width="75" height="35"/><circle class="cls-9" cx="273.5" cy="197.4" r="4.6"/><line class="cls-10" x1="273.5" y1="202.3" x2="273.5" y2="217.8"/><path class="cls-11" d="M165.3,64.2v87.6a7.8,7.8,0,0,0,4.7,6.8l89.7,34.3"/><polygon points="161.5 65.3 165.3 58.8 169 65.3 161.5 65.3"/><polygon points="257.2 196 264.6 194.8 259.9 189 257.2 196"/><path class="cls-11" d="M351.4,58.8v93a9,9,0,0,1-4.5,7.3l-62,31.3"/><polygon points="284.3 186.5 280.2 192.8 287.6 193.2 284.3 186.5"/><path class="cls-11" d="M220.9,64.2l.1,86.1a11.12,11.12,0,0,0,4,8l39.1,29.2"/><polygon points="217.2 65.3 220.9 58.8 224.7 65.3 217.2 65.3"/><polygon points="261 189.8 268.4 190.6 265.4 183.8 261 189.8"/><line class="cls-11" x1="273.5" y1="68.7" x2="273.5" y2="184.3"/><polygon points="269.8 69.8 273.5 63.3 277.2 69.8 269.8 69.8"/><polygon points="269.8 183.2 273.5 189.7 277.2 183.2 269.8 183.2"/><use width="21" height="20" transform="translate(210.5 91.23)" xlink:href="#New_Symbol_42"/><use width="21" height="20" transform="translate(154.78 91.23)" xlink:href="#New_Symbol_41"/><use width="21" height="20" transform="translate(263 91.23)" xlink:href="#New_Symbol_43"/><use width="21" height="20" transform="translate(340.94 91.23)" xlink:href="#New_Symbol_45"/><rect class="cls-2" x="217.7" y="117.6" width="6.8" height="15.7"/><polygon class="cls-9" points="319.4 163.8 310.8 170 314.1 180 324.7 180 328 170 319.4 163.8"/><path class="cls-11" d="M221,231.7H77.5c-7.2,0-13,4.1-13,9.1s5.8,9.1,13,9.1H215.7"/><polygon points="214.5 253.7 221 250 214.5 246.2 214.5 253.7"/><rect class="cls-2" x="29.5" y="233" width="37" height="19.9"/><path class="cls-12" d="M68,228.4a.68.68,0,0,0-.7-.7H28.7a.68.68,0,0,0-.7.7v24.2a.68.68,0,0,0,.7.7H67.4a.68.68,0,0,0,.7-.7V228.4Zm-34.5,3.9h-2v-2h2Zm4,0h-2v-2h2Zm4,0h-2v-2h2Zm-12,1.5h37v18h-37Z"/><use width="21" height="20" transform="translate(142.76 224.95)" xlink:href="#New_Symbol_44"/></g></g><rect class="cls-13" x="73.6" y="88.6" width="80.4" height="43.5"/><rect class="cls-13" x="231.1" y="0.9" width="80.4" height="43.5"/><rect class="cls-13" x="115.8" y="258.6" width="75" height="43.5"/><rect class="cls-13" x="221" y="233.1" width="75" height="43.5"/></g><g id="txt"><path d="M.41,211.18a13.3,13.3,0,0,0,1.83-3.93H.47v-.83H2.38v-1.85l-1.61.12a8.3,8.3,0,0,0-.18-.86c1.63-.09,3-.22,4.21-.38l.21.89-1.76.16v1.92H5.1v.83H3.25v1.59l.52-.46c.46.44,1,1,1.5,1.59l-.67.58A19.67,19.67,0,0,0,3.25,209v5.4H2.38v-5.24a12.5,12.5,0,0,1-1.56,3.05C.7,211.86.56,211.52.41,211.18Zm3.87,1.87H5.69v-9.46h5.36v9.46h1v.84H4.28Zm2.32-8.63v2.32h3.54v-2.32Zm0,5.46h3.54v-2.32H6.6Zm0,3.17h3.54V210.7H6.6Z"/><path d="M17.8,203.19l.84-.51a17.43,17.43,0,0,1,1.11,1.46l-.57.36h4.37v5.19h-.94v-.61h-7.4a9.14,9.14,0,0,1-1.74,5.39c-.21-.26-.44-.51-.68-.77a8.52,8.52,0,0,0,1.5-5.49V204.5h4.47A13.63,13.63,0,0,0,17.8,203.19Zm-2.57,2.15v2.9h7.38v-2.9Z"/><path d="M36.54,212.78H35.25l-.93-2.49H30.54l-.87,2.49h-1.3l3.46-9.08h1.25ZM34,209.27l-1.37-3.77a4.41,4.41,0,0,1-.15-.64h0a4.76,4.76,0,0,1-.15.64l-1.36,3.77Z"/><path d="M210.33,211.18a13.3,13.3,0,0,0,1.83-3.93h-1.77v-.83h1.91v-1.85l-1.61.12a8.3,8.3,0,0,0-.18-.86c1.63-.09,3-.22,4.21-.38l.21.89-1.76.16v1.92H215v.83h-1.85v1.59l.52-.46c.46.44,1,1,1.5,1.59l-.67.58a19.67,19.67,0,0,0-1.35-1.57v5.4h-.87v-5.24a12.5,12.5,0,0,1-1.56,3.05C210.62,211.86,210.48,211.52,210.33,211.18Zm3.87,1.87h1.41v-9.46H221v9.46h1v.84H214.2Zm2.32-8.63v2.32h3.54v-2.32Zm0,5.46h3.54v-2.32h-3.54Zm0,3.17h3.54V210.7h-3.54Z"/><path d="M227.72,203.19l.84-.51c.37.45.75.93,1.11,1.46l-.57.36h4.37v5.19h-.94v-.61h-7.4a9.14,9.14,0,0,1-1.74,5.39c-.21-.26-.44-.51-.68-.77a8.52,8.52,0,0,0,1.5-5.49V204.5h4.47A13.63,13.63,0,0,0,227.72,203.19Zm-2.57,2.15v2.9h7.38v-2.9Z"/><path d="M239.33,212.78V203.7H242a3,3,0,0,1,1.91.57,1.88,1.88,0,0,1,.71,1.52,2.17,2.17,0,0,1-.42,1.32,2.3,2.3,0,0,1-1.17.82v0a2.3,2.3,0,0,1,1.48.7,2.13,2.13,0,0,1,.55,1.51,2.4,2.4,0,0,1-.84,1.9,3.19,3.19,0,0,1-2.15.72Zm1.17-8.05v2.84h1.07a2,2,0,0,0,1.33-.41,1.44,1.44,0,0,0,.48-1.15c0-.85-.57-1.28-1.71-1.28Zm0,3.86v3.16h1.41a2.17,2.17,0,0,0,1.42-.42,1.48,1.48,0,0,0,.5-1.18c0-1-.71-1.56-2.12-1.56Z"/><path d="M286.27,205.6c.47-.2,1-.42,1.5-.68v-2.63h-1.41v-.82h1.41v-2.28h.86v2.28H290v.82h-1.33v2.22l1.17-.61a8.33,8.33,0,0,0,.09.94l-1.26.65v3.89c0,.82-.39,1.23-1.15,1.24h-.92a8.72,8.72,0,0,0-.14-1c.38,0,.67,0,.89,0s.46-.15.46-.44v-3.33l-1.38.71Zm4.34.44v-.82h6.14V206a7.65,7.65,0,0,1-2.14,2.71,9.12,9.12,0,0,0,3.43,1c-.26.34-.48.66-.67,1a9.32,9.32,0,0,1-3.57-1.43,12,12,0,0,1-4,1.5,9.51,9.51,0,0,0-.56-.86,11.61,11.61,0,0,0,3.81-1.23,6.76,6.76,0,0,1-1.75-2.68Zm-.45-3h5c.42-.73.8-1.47,1.16-2.23l.9.39c-.35.63-.72,1.24-1.11,1.84h1.53v1.81h-.89v-1h-5.74v1h-.89Zm.25-2.18c-.05-.27-.1-.56-.17-.85,2.64-.07,5-.21,7.19-.43l.16.85C295.16,200.64,292.77,200.79,290.41,200.88Zm.34.52.72-.37c.32.49.63,1,.93,1.54l-.77.41A14,14,0,0,0,290.75,201.4ZM295.7,206h-3.48a5.55,5.55,0,0,0,1.63,2.18A5.77,5.77,0,0,0,295.7,206Zm-2.63-4.85.74-.33c.33.58.62,1.11.85,1.59l-.8.36A15.21,15.21,0,0,0,293.07,201.19Z"/><path d="M298.27,206.63a13.49,13.49,0,0,0,1.79-4.09h-1.67v-.82h1.83v-2.48h.89v2.48h1.65v.82h-1.65v1.55l.5-.47a23.74,23.74,0,0,1,1.7,1.77l-.7.66c-.53-.67-1-1.25-1.5-1.75v6.46h-.89v-6.42a13.56,13.56,0,0,1-1.55,3.33A10.48,10.48,0,0,0,298.27,206.63Zm4.25-5.75V200h6.66v.86a13.48,13.48,0,0,1-2.48,6.57,9.62,9.62,0,0,0,3.35,2.11,8.7,8.7,0,0,0-.79,1,11.76,11.76,0,0,1-3.21-2.32,13.53,13.53,0,0,1-3.72,2.6,10.1,10.1,0,0,0-.66-.89,13.07,13.07,0,0,0,3.77-2.46,12.35,12.35,0,0,1-2.19-6.56Zm5.66,0h-4a11.28,11.28,0,0,0,1.89,5.83A12.41,12.41,0,0,0,308.18,200.88Z"/><path d="M310.71,209c1.23-.25,2.58-.55,4.06-.91,0,.43,0,.73,0,.88-1.07.24-2.32.55-3.76.93Zm1.5-2.75,2.3-.33c-.05.3-.08.59-.11.87-.89.13-2,.29-3.25.5l-.19-.86a14.63,14.63,0,0,0,1.77-2.55L311,204l-.22-.79A20.29,20.29,0,0,0,313,199.1l.89.35c-.76,1.49-1.45,2.73-2.07,3.73l1.4,0q.44-.78.93-1.71l.88.39Q313.3,204.76,312.21,206.29Zm2.38-3.19a15,15,0,0,0,2.25-4l.88.29c-.16.36-.32.71-.49,1.05h4.39v.83a10,10,0,0,1-2.33,2.73,7.69,7.69,0,0,0,3.16,1.23c-.16.37-.3.71-.41,1a10.1,10.1,0,0,1-3.47-1.67,14.27,14.27,0,0,1-3.65,1.79,9,9,0,0,0-.41-.82,12,12,0,0,0,3.41-1.53,7.44,7.44,0,0,1-1.52-2,20.49,20.49,0,0,1-1.22,1.77C315,203.54,314.83,203.34,314.59,203.1Zm.88,5.86.36-.83c1.44.4,3.23.92,5.36,1.59l-.44.92Q317.77,209.58,315.47,209Zm1.34-2.14.35-.78c1.18.35,2.36.74,3.54,1.16l-.39.92A37.09,37.09,0,0,0,316.81,206.82Zm3.78-5.6h-3.72a7.51,7.51,0,0,0,1.75,2.26A8.51,8.51,0,0,0,320.59,201.22Z"/><path d="M322.83,209q2.16-.42,4.23-.93c0,.32,0,.61,0,.9-1.27.26-2.58.57-3.94.93Zm1.53-2.77c1-.14,1.9-.28,2.58-.39-.05.3-.08.6-.11.89-.86.12-2.05.31-3.55.55l-.19-.87a14.9,14.9,0,0,0,1.79-2.47c-.65,0-1.25.08-1.79.13l-.22-.8a20.49,20.49,0,0,0,2.24-4.16l.89.35c-.84,1.66-1.53,2.9-2.07,3.74l1.41,0c.27-.45.55-1,.84-1.48l.86.43C326.15,203.58,325.26,205,324.36,206.22Zm3-2.49h2.86V201.9H327v-.84h3.24v-1.88h.94v1.88h3.28v.84h-3.28v1.83H334v.84h-6.67Zm.24,2.23h6.18v4.75h-.91V210h-4.36v.72h-.91Zm5.27.82h-4.36v2.39h4.36Z"/><path d="M337.29,208.12a23.32,23.32,0,0,1-1.57,2.52l-.81-.57a21.28,21.28,0,0,0,1.56-2.42Zm-.88-5.29h3.68v-3.68h1v1.4h5.24v.85h-5.24v1.43h4.15v4.47h-1v-.49h-6.89v.49h-1Zm7.85.84h-6.89V206h6.89Zm-5,3.94a21,21,0,0,1,.94,2.49l-.95.33c-.24-.85-.52-1.69-.83-2.52Zm2.8-.08c.37.77.71,1.58,1,2.42l-.93.36a23,23,0,0,0-.95-2.46Zm2.85,0a26.32,26.32,0,0,1,1.5,2.56l-.89.48c-.39-.8-.87-1.67-1.42-2.62Z"/><path d="M288,107.55h-.9V96.8h10v9.39c0,.87-.46,1.3-1.37,1.3-.57,0-1.22,0-1.95,0,0-.27-.09-.58-.16-.94.77.07,1.41.11,1.92.11a.58.58,0,0,0,.66-.66V97.67H288Zm.65-8.45h6.87v.84h-6.87Zm1,2.19h4.93V105h-4.07v.61h-.86Zm4.06.84h-3.2v2h3.2Z"/><path d="M299.29,104.68l.82.31c-.28.71-.61,1.43-1,2.16l-.82-.36A19.52,19.52,0,0,0,299.29,104.68Zm-1-5.56h3.3c-.31-.29-.62-.57-.94-.84l.35-.33h-2v-.7h4.67c-.16-.33-.33-.64-.5-.93L304,96c.25.44.47.86.66,1.27h4.35V98h-2l.4.3-1,.87h3.33v.7H298.34Zm4.8,5.56.59-.51h-3v.37h-.86v-4.06h8.34v4.06h-.87v-.37h-3.57c.51.44,1,.86,1.35,1.27l-.7.57A18.11,18.11,0,0,0,303.14,104.68Zm4.19-3.52h-6.61V102h6.61Zm-6.61,2.33h6.61v-.84h-6.61Zm.44,1.13h.89V106c0,.46.25.68.77.68h2.4c.57,0,.9-.21,1-.64a9.45,9.45,0,0,0,.21-1.06,9,9,0,0,0,.88.33c-.1.45-.18.81-.26,1.08a1.43,1.43,0,0,1-1.58,1.09h-2.84c-1,0-1.47-.46-1.47-1.39Zm4.26-5.71c.32-.26.67-.59,1-1h-4.95c.35.26.69.53,1,.82l-.36.35h3.46Zm2.35,6.25.66-.52c.56.59,1.05,1.15,1.49,1.68l-.74.58C308.71,106.28,308.23,105.7,307.77,105.16Z"/><path d="M369.5,106.58l2.93,0,3.83-.08-.33.92h-3.77l-2.89,0a3,3,0,0,1-2.8-1.36,17.62,17.62,0,0,0-1.4,1.58l-.48-1c.69-.67,1.19-1.14,1.5-1.43v-4h-1.4v-.86H367v5A2.75,2.75,0,0,0,369.5,106.58Zm-3.45-10.11c.4.48.95,1.22,1.64,2.21l-.83.59c-.63-1-1.15-1.76-1.56-2.3Zm3.9,5.11.57-.61c.83.62,1.62,1.22,2.37,1.81a7.52,7.52,0,0,0,1.55-2.42h-4.71a7.87,7.87,0,0,1-1.65,5.28,7.56,7.56,0,0,0-.62-.73,6.9,6.9,0,0,0,1.38-4.63V97.07a48,48,0,0,0,6.73-.51l.32.92c-2,.21-4.07.34-6.16.41v1.65h5.67v.83a8.46,8.46,0,0,1-1.77,3c.81.64,1.57,1.27,2.26,1.88l-.7.77q-1.12-1-2.25-2a12.94,12.94,0,0,1-3.37,2.12c-.18-.25-.37-.5-.59-.75a12.94,12.94,0,0,0,3.25-2C371.47,102.79,370.71,102.17,370,101.58Z"/><path d="M377.38,97h10.24v10.73h-1v-.75h-8.27v.75h-1Zm9.25.87h-8.27v8.27h8.27ZM380,99.61h5v5.12h-.91v-.66h-3.15v.66H380Zm4.07.82h-3.15v2.82h3.15Z"/><path d="M395.39,96.41l-.22.3a11.19,11.19,0,0,0,5.28,4,9.38,9.38,0,0,0-.66,1,14.56,14.56,0,0,1-5.2-4.28,17.12,17.12,0,0,1-5.28,4.32,8.3,8.3,0,0,0-.61-.86,13.85,13.85,0,0,0,5.49-4.47ZM392,104.09l2.59,1.72c.78-.73,1.68-1.63,2.69-2.71h-7.22v-.88h8.54v.88c-1,1-2.06,2.12-3.23,3.24.39.26.78.54,1.17.82l-.71.78q-2.31-1.78-4.45-3.17Zm1.26-4.11.71-.55c.61.61,1.16,1.19,1.66,1.76l-.77.66A19.62,19.62,0,0,0,393.27,100Z"/><path d="M404.56,107.66h-.86v-4.39h-1.26a9.3,9.3,0,0,1-.9,4.57c-.21-.21-.45-.44-.73-.68a8.17,8.17,0,0,0,.77-4V96.7h.86v3.45h1.18V96.36h.86v3.79h.85v.73h-2.89v1.66h2.12Zm.37-2.87h1.43a6.87,6.87,0,0,0-.51-.61,4.79,4.79,0,0,0,1.78-1.43h-1.88V97.52h2c.14-.37.3-.81.45-1.3l.92.28q-.25.57-.48,1h3v5.63h-.82v-.4h-2.21a5.19,5.19,0,0,1-2,2h2.34v-1.5h.86v1.5h2.64v.81h-2.64v2.14h-.86V105.6h-4Zm1.64-5h1.7V98.3h-1.7Zm1.68.75h-1.68V102H408A6.12,6.12,0,0,0,408.25,100.5Zm.63,1.48h2V100.5h-1.77A7.32,7.32,0,0,1,408.88,102Zm2-3.68h-1.75v1.45h1.75Z"/><path d="M196.27,125.85h1.62v-5.6h2.68q.27-.7.45-1.29l1,.24c-.15.34-.3.69-.47,1h4.25v5c.51-.39,1-.79,1.47-1.21l.59.64c-.66.57-1.35,1.11-2.06,1.61v2.34c0,1.18-.52,1.78-1.55,1.78-.64,0-1.29,0-1.95,0,0-.27-.1-.6-.18-1,.57,0,1.18.08,1.84.08s.91-.32.91-1v-1.63a31.28,31.28,0,0,1-8.07,3.63,7.45,7.45,0,0,0-.53-.89,28.53,28.53,0,0,0,7.42-3h-7.4Zm8.58-4.82h-6v1.1h6Zm-6,3h6v-1.1h-6Zm0,1.87h6v-1.12h-6Z"/><path d="M208.57,124.56a18.23,18.23,0,0,0,2.72-5.5l.91.32A29.12,29.12,0,0,1,211,122.3v8.19h-.89v-6.56c-.36.59-.74,1.15-1.13,1.67C208.83,125.27,208.7,124.92,208.57,124.56Zm2.84-.73a11.56,11.56,0,0,0,3-4.3l.83.32a13,13,0,0,1-3.08,4.63A7.13,7.13,0,0,0,211.41,123.83Zm1.27.17h5.86c0,.1-.06,1.53-.17,4.28,0,1.35-.65,2-1.84,2q-1,0-1.68,0a6,6,0,0,0-.18-1,14.89,14.89,0,0,0,1.63.12c.76.06,1.14-.36,1.15-1.26.06-1.05.11-2.17.14-3.36H215a8.14,8.14,0,0,1-.57,3.08,7,7,0,0,1-2.18,2.61c-.2-.25-.43-.5-.68-.76a6.32,6.32,0,0,0,2-2.23,6.61,6.61,0,0,0,.54-2.7h-1.37Zm3.26-4.62.77-.33a8.28,8.28,0,0,0,3.58,4.35,8.83,8.83,0,0,0-.67.85A9.52,9.52,0,0,1,215.94,119.38Z"/><path d="M220.62,127c.91-.18,1.91-.4,3-.66,0,.32,0,.59,0,.84q-1.34.27-2.82.69Zm1.74-5.78-.27,3.23h1.18l.31-4h-2.66v-.8h3.55l-.37,4.75h.74c-.05,1.64-.1,3-.15,4.06s-.54,1.78-1.55,1.78l-1.49,0c0-.29-.09-.6-.15-.93a12.32,12.32,0,0,0,1.5.11c.55,0,.84-.33.87-1,0-.86.09-1.92.12-3.2h-2.82l.38-4Zm6.83-2.18-.22.38a9.1,9.1,0,0,0,3.51,3.67c-.25.31-.45.58-.62.82a12.9,12.9,0,0,1-3.36-3.67,13.11,13.11,0,0,1-3.34,3.81,8.18,8.18,0,0,0-.59-.74,10.51,10.51,0,0,0,3.58-4.27Zm-4.25,10.09h4.23a45.52,45.52,0,0,0,1.5-4.36l.89.29c-.46,1.39-.95,2.75-1.47,4.07h2.06V130h-7.21Zm.59-3.75.82-.25c.39,1.11.71,2.09,1,3l-.86.29C226.19,127.41,225.88,126.41,225.53,125.41Zm.6-2H231v.8h-4.83Zm1.42,1.5.83-.23c.33,1.18.6,2.2.81,3.07l-.86.25Q228,126.36,227.55,124.89Z"/><path d="M236.85,126.09a6.81,6.81,0,0,0,.22,1c-.94.94-1.66,1.69-2.14,2.24l-.67-.76a1.93,1.93,0,0,0,.35-1.17v-3.67H233.2v-.84h2.32v4.57C235.88,127.13,236.32,126.67,236.85,126.09Zm-2.52-6.91q1.38,1.39,1.92,2l-.82.7a24.94,24.94,0,0,0-1.81-2.09Zm1.83,9.85h1.63v-6.48h.9V129h1.86v-8.56H236.8v-.87h7.83v.87h-3.14V124h2.72v.86h-2.72V129h3.33v.87h-8.66Z"/><path class="cls-14" d="M29.19,258.15l.85-.45a14.82,14.82,0,0,1,1,1.39l-.57.33h4.75v.89H26.06v2.87c0,2.77-.57,4.83-1.71,6.2a7.69,7.69,0,0,0-.68-.81q1.41-1.56,1.41-5.36v-3.79h5A13.92,13.92,0,0,0,29.19,258.15ZM26,267.8h5.42a55.08,55.08,0,0,0,1.94-6.4l1,.28q-1.09,3.87-1.95,6.12h2.9v.89H26Zm.63-5.76.89-.3c.49,1.42,1,3,1.41,4.78l-1,.31C27.56,265.28,27.13,263.69,26.62,262Zm2.83-.58.9-.26a48.36,48.36,0,0,1,1.08,4.72l-1,.27C30.17,264.65,29.85,263.07,29.45,261.46Z"/><path class="cls-14" d="M41.7,269.16v-3.73H38.29a7.52,7.52,0,0,1-1.41,4l-.69-.8a6.46,6.46,0,0,0,1-2.39,19.42,19.42,0,0,0,.25-3.59v-4.18H47v9.31c0,.93-.44,1.4-1.32,1.4-.54,0-1.14,0-1.82,0,0-.26-.09-.58-.17-1,.68.05,1.23.07,1.65.07s.73-.23.73-.69v-2.16H42.64v3.73Zm-3.34-4.57H41.7V262.4H38.41A17.61,17.61,0,0,1,38.36,264.59Zm0-5.22v2.18H41.7v-2.18Zm7.68,0H42.64v2.18h3.45Zm-3.45,5.22h3.45V262.4H42.64Z"/><path class="cls-14" d="M48.09,266.09a12.79,12.79,0,0,0,1.78-4H48.23v-.77h1.83v-1.84l-1.51.2a6.27,6.27,0,0,0-.25-.81,27.08,27.08,0,0,0,4-.64l.26.82c-.54.11-1.1.22-1.68.31v2h1.63v.77H50.9v1.55l.46-.4c.31.32.77.83,1.37,1.53l-.7.58c-.45-.58-.83-1-1.13-1.4v5.42h-.84v-5.62a11.86,11.86,0,0,1-1.57,3.37C48.37,266.77,48.23,266.43,48.09,266.09Zm4.14,1.85h3.35v-1.73H52.92v-.79h2.66v-1.59H52.64V263h6.83v.79H56.52v1.59h2.66v.79H56.52v1.73h3.35v.78H52.23Zm.94-9.59H59v4h-.89v-.48h-4v.48h-.89Zm4.92.8h-4v2h4Z"/><path class="cls-14" d="M66.07,258.13l.84-.46a11.93,11.93,0,0,1,.84,1.21l-.55.33h5v.85H62.84v3.19q0,4.17-1.6,6.17a7.68,7.68,0,0,0-.67-.8q1.29-1.5,1.29-5.13v-4.28h4.93C66.56,258.82,66.31,258.46,66.07,258.13Zm-2.9,6h4.12c-.73-.54-1.42-1-2.08-1.42l.56-.6,1.68,1.05,2.12-1.25H63.86V261h7.41v.85l-3,1.78.29.2-.31.23h3.85V265l-1,2.1c-.24-.12-.53-.27-.87-.42L71,265H68.2v2.79c0,.95-.45,1.42-1.35,1.42l-1.76,0c0-.26-.07-.6-.14-1a13.09,13.09,0,0,0,1.62.13.59.59,0,0,0,.67-.67V265H63.17Z"/><path class="cls-15" d="M113.23,258.34h.93c0,1.62,0,3-.11,4.15,1,1.1,1.9,2.09,2.65,3l-.71.71q-.84-1.11-2-2.49a11.09,11.09,0,0,1-2.46,5.91c-.18-.21-.41-.46-.68-.75a9.57,9.57,0,0,0,2.11-4.52A38.34,38.34,0,0,0,113.23,258.34Zm4.66,0h.91c0,.9,0,1.91,0,3q.76,5.34,3.8,7.24c-.28.31-.53.61-.76.9a9.37,9.37,0,0,1-3.36-5.69,9.35,9.35,0,0,1-3.65,5.9,7.79,7.79,0,0,0-.68-.75,8.76,8.76,0,0,0,3.54-5.75A36.79,36.79,0,0,0,117.89,258.34Z"/><path class="cls-15" d="M128.7,258.57l.86-.46c.33.43.65.89,1,1.39l-.57.33h4.75v.89h-9.13v2.87c0,2.77-.57,4.83-1.71,6.2a7.69,7.69,0,0,0-.68-.81q1.41-1.56,1.41-5.36v-3.79h4.95A12.54,12.54,0,0,0,128.7,258.57Zm-3.2,9.64h5.42a55.08,55.08,0,0,0,1.94-6.4l1,.28q-1.09,3.87-1.95,6.12h2.9v.89H125.5Zm.63-5.75.89-.31c.49,1.42,1,3,1.41,4.78l-1,.31C127.08,265.69,126.64,264.1,126.13,262.46Zm2.83-.59.9-.26a45.61,45.61,0,0,1,1.08,4.72l-1,.27C129.68,265.06,129.36,263.48,129,261.87Z"/><path class="cls-15" d="M141.22,269.57v-3.73h-3.41a7.64,7.64,0,0,1-1.42,4.05q-.31-.39-.69-.81a6.46,6.46,0,0,0,1-2.39,19.26,19.26,0,0,0,.26-3.59v-4.18h9.55v9.31c0,.93-.45,1.4-1.33,1.4-.54,0-1.14,0-1.81,0,0-.26-.1-.58-.18-1,.68.05,1.23.07,1.65.07s.73-.23.73-.69v-2.16h-3.45v3.73ZM137.87,265h3.35v-2.19h-3.3A17.52,17.52,0,0,1,137.87,265Zm0-5.22V262h3.3v-2.18Zm7.68,0h-3.45V262h3.45ZM142.15,265h3.45v-2.19h-3.45Z"/><path class="cls-15" d="M147.6,266.5a12.79,12.79,0,0,0,1.78-4h-1.64v-.77h1.83v-1.84l-1.51.2a5,5,0,0,0-.25-.81,28.41,28.41,0,0,0,4-.63l.26.82c-.54.11-1.1.21-1.67.3v2H152v.77h-1.62V264l.45-.4c.32.32.77.83,1.37,1.53l-.7.58c-.45-.58-.83-1.05-1.12-1.4v5.42h-.85v-5.61a11.92,11.92,0,0,1-1.57,3.36C147.88,267.18,147.74,266.84,147.6,266.5Zm4.14,1.85h3.35v-1.73h-2.66v-.79h2.66v-1.59h-2.94v-.79H159v.79H156v1.59h2.66v.79H156v1.73h3.35v.79h-7.64Zm.94-9.59h5.81v4h-.89v-.48h-4v.48h-.89Zm4.92.8h-4v1.95h4Z"/><path class="cls-15" d="M165.58,258.54l.84-.46c.31.4.59.8.85,1.21l-.56.33h5v.86h-9.34v3.18q0,4.17-1.61,6.17a7.68,7.68,0,0,0-.67-.8q1.29-1.5,1.29-5.13v-4.28h4.93C166.07,259.23,165.82,258.87,165.58,258.54Zm-2.9,6h4.12c-.72-.54-1.42-1-2.08-1.42l.57-.6c.58.36,1.14.71,1.67,1.06l2.12-1.26h-5.7v-.84h7.4v.85l-3,1.78.29.2-.31.23h3.85v.86l-1,2.1-.87-.42.83-1.69h-2.81v2.79c0,1-.45,1.42-1.35,1.42l-1.75,0c0-.27-.08-.61-.15-1a13.09,13.09,0,0,0,1.62.13.59.59,0,0,0,.67-.67v-2.64h-4.07Z"/><path class="cls-15" d="M176.43,258.35l-.15.25c1,.91,1.95,1.84,2.86,2.78l-.65.72c-.83-.93-1.72-1.84-2.67-2.75a17.72,17.72,0,0,1-2.36,3h4.81q-.06,1.62-.12,2.28c0,1.16-.57,1.75-1.59,1.75-.41,0-.92,0-1.52,0,0-.34-.1-.65-.17-.94a9,9,0,0,0,1.5.14c.57,0,.87-.34.91-1.06,0-.38,0-.81.07-1.31h-3.11v4.7c0,.43.24.65.7.65h1.93c.61,0,1-.2,1-.61a9.78,9.78,0,0,0,.21-1.4c.3.12.61.23.93.34a13.29,13.29,0,0,1-.3,1.43,1.49,1.49,0,0,1-1.65,1.09h-2.33a1.27,1.27,0,0,1-1.44-1.43v-5.45c-.25.23-.5.45-.74.64l-.54-.84a12.42,12.42,0,0,0,3.3-4Zm5.62.09H183v9.73a1.27,1.27,0,0,1-1.42,1.45l-1.83,0a9.83,9.83,0,0,0-.19-1.06c.83.07,1.41.1,1.74.1a.67.67,0,0,0,.77-.75Zm-1.55,8.26h-.9v-7.22h.9Z"/><path class="cls-15" d="M185.05,264.32a7.08,7.08,0,0,0,1,2.35,8.87,8.87,0,0,0,.78-3h-2.34v-.86l2.15-2.66h-2.39v-.79h3.47v.79l-2.2,2.72h2.19v.69a10.29,10.29,0,0,1-1.06,3.77,6,6,0,0,0,4,1.12q2.22,0,5.16-.06l-.38.93-5.19,0a5.86,5.86,0,0,1-4-1.22,7.13,7.13,0,0,1-1.61,1.68,6.55,6.55,0,0,0-.48-.76,6.62,6.62,0,0,0,1.48-1.56,7.9,7.9,0,0,1-1.3-2.85Zm2.77,2h3v-1h-2.61v-.7h2.61v-1h-2.44v-.71h2.44v-1h-3v-.72h3v-1h-2.44v-.7h2.44v-1.15h.86v1.15h2.72v1.72h1.23v.72H194.4v2h-.84v-.31h-1.88v1h3v.7h-3v1h3.5v.7h-3.5v1.21h-.86V267h-3Zm5.74-6.21h-1.88v1h1.88Zm-1.88,2.76h1.88v-1h-1.88Z"/><path class="cls-15" d="M130.29,272.28h3.31v9.51c0,.78-.36,1.17-1.09,1.17-.4,0-.77,0-1.11,0,0-.23-.08-.51-.14-.83a7,7,0,0,0,1,.09.42.42,0,0,0,.48-.48V279h-1.64a6.85,6.85,0,0,1-1,4.11,3.94,3.94,0,0,0-.64-.66,6.27,6.27,0,0,0,.78-3.42Zm2.48.76h-1.64v2.25h1.64Zm-1.64,5.24h1.64V276h-1.64Zm3.44-5.95h5.79q-.06.94-.09,1.5a1.64,1.64,0,0,1-1.85,1.78l-1.52-.05c0-.3-.09-.61-.15-.92.58.07,1.1.11,1.56.13a.94.94,0,0,0,1.09-1q0-.3.06-.66h-4v3.37h4.95v.69a8.53,8.53,0,0,1-1.72,3.58,7.11,7.11,0,0,0,2.51,1.5c-.26.31-.49.59-.68.84a8.7,8.7,0,0,1-2.44-1.67A9.85,9.85,0,0,1,136,283c-.15-.25-.31-.51-.48-.77a8.15,8.15,0,0,0,2-1.43,8,8,0,0,1-1.51-3.53h-.55v5.83h-.89Zm4.91,4.94h-2.66a6.82,6.82,0,0,0,1.29,2.87A7.29,7.29,0,0,0,139.48,277.27Z"/><path class="cls-15" d="M145.19,271.48l.88.38c-.18.29-.36.57-.55.84h6.34v.79a9.57,9.57,0,0,1-3,2.31,16.93,16.93,0,0,0,4.69.89c-.25.35-.47.68-.66,1a17.83,17.83,0,0,1-5.12-1.36,25.51,25.51,0,0,1-5.62,1.56l-.48-.82a25,25,0,0,0,5.09-1.28,7.1,7.1,0,0,1-2.13-1.92,17.18,17.18,0,0,1-2,2c-.24-.25-.45-.46-.65-.63A11.63,11.63,0,0,0,145.19,271.48Zm-2.46,6.87h3.41c.05-.38.1-.8.14-1.26h.95c0,.46-.1.88-.16,1.26h4.73c-.08,1.4-.15,2.38-.22,2.94a1.75,1.75,0,0,1-2,1.67c-.46,0-1.15,0-2.08,0,0-.29-.1-.61-.17-1,.9.08,1.64.12,2.22.13a1,1,0,0,0,1.11-1c.07-.59.12-1.21.15-1.88h-3.91c-.41,1.88-1.87,3.25-4.37,4.09-.17-.25-.37-.52-.57-.78q3.36-1.1,4-3.31h-3.25Zm7.87-4.87h-5.23a7.41,7.41,0,0,0,2.43,1.86A10.34,10.34,0,0,0,150.6,273.48Z"/><path class="cls-15" d="M153.7,281.57h5.21V278.2h-4.29v-.89h4.29v-2.67h-4.74v-.89h10.45v.89h-4.7v2.67h4.29v.89h-4.29v3.37h5.21v.87H153.7Zm4.77-9.56.86-.44c.48.71.82,1.26,1,1.65l-.93.49C159,272.93,158.69,272.36,158.47,272Z"/><path class="cls-15" d="M165.45,277.29a18.09,18.09,0,0,0,2.53-5.66l.89.25a25.66,25.66,0,0,1-1,2.81v8.43H167v-6.67a17.7,17.7,0,0,1-1.12,1.8C165.73,277.93,165.6,277.61,165.45,277.29Zm11.8,2.84q-.41.48-.69.87-2.34-1.8-3.45-6.11v4.95h1.73v.84h-1.73v2.45h-.86v-2.45h-1.73v-.84h1.73v-4.95h0a12.66,12.66,0,0,1-3.6,6.3c-.18-.23-.38-.48-.62-.74a12.55,12.55,0,0,0,3.39-5.56h-2.75v-.84h3.61v-2.39h.86v2.39h3.74v.84h-3A9.52,9.52,0,0,0,177.25,280.13Z"/><path class="cls-15" d="M234,15.89A13.88,13.88,0,0,0,235.81,12H234v-.84H236V9.28l-1.62.12c0-.27-.1-.55-.17-.86,1.63-.09,3-.22,4.2-.38l.21.89-1.75.16v1.92h1.85V12h-1.85v1.58l.51-.46c.46.45,1,1,1.5,1.6l-.67.57a17.91,17.91,0,0,0-1.34-1.57v5.4H236V13.85a12.32,12.32,0,0,1-1.56,3C234.27,16.57,234.13,16.24,234,15.89Zm3.87,1.88h1.4V8.3h5.37v9.47h1v.83h-7.78Zm2.32-8.64v2.32h3.54V9.13Zm0,5.46h3.54V12.27h-3.54Zm0,3.18h3.54V15.41h-3.54Z"/><path class="cls-15" d="M251.36,7.9l.85-.5c.37.44.74.93,1.11,1.45l-.57.36h4.37V14.4h-.94v-.61h-7.4a9.33,9.33,0,0,1-1.74,5.4c-.21-.26-.44-.52-.68-.78a8.49,8.49,0,0,0,1.5-5.48V9.21h4.47C252,8.78,251.72,8.34,251.36,7.9Zm-2.56,2.16V13h7.38V10.06Z"/><path class="cls-15" d="M263,17.49V8.42h2.66a3,3,0,0,1,1.91.57,1.83,1.83,0,0,1,.72,1.51,2.16,2.16,0,0,1-.43,1.33,2.26,2.26,0,0,1-1.17.81v0a2.33,2.33,0,0,1,1.48.7,2.14,2.14,0,0,1,.56,1.51,2.39,2.39,0,0,1-.84,1.9,3.2,3.2,0,0,1-2.16.72Zm1.17-8v2.84h1.06a2,2,0,0,0,1.34-.41,1.44,1.44,0,0,0,.48-1.15c0-.85-.57-1.28-1.71-1.28Zm0,3.86v3.17h1.4A2.12,2.12,0,0,0,267,16a1.46,1.46,0,0,0,.5-1.18c0-1-.71-1.56-2.12-1.56Z"/><path class="cls-15" d="M273.55,9.46h1.19c.29-.71.52-1.36.71-2l1,.28c-.25.6-.49,1.16-.72,1.67h2.34v9.33h-.93v-.92h-2.64v1h-.94Zm3.58.88h-2.64v2.85h2.64ZM274.49,17h2.64V14h-2.64Zm3.75-5.13a17,17,0,0,0,1.86-4.35l1,.25c-.2.59-.4,1.14-.61,1.66h3.77q-.13,6-.23,7.59a1.72,1.72,0,0,1-1.94,1.84c-.71,0-1.43,0-2.16-.07a8.31,8.31,0,0,0-.19-1.05h0a15.58,15.58,0,0,0,2.15.17,1.06,1.06,0,0,0,1.15-1.13c.08-1.16.15-3.32.18-6.47H280.1a15.84,15.84,0,0,1-1.05,2A5,5,0,0,0,278.24,11.86Zm1,.8.72-.53c.86,1,1.55,1.91,2.07,2.66l-.87.61A26.35,26.35,0,0,0,279.27,12.66Z"/><path class="cls-15" d="M290.54,18.87V15.14h-3.41a7.55,7.55,0,0,1-1.41,4.05c-.21-.26-.44-.53-.7-.81a6.32,6.32,0,0,0,1-2.39,19.42,19.42,0,0,0,.25-3.59V8.22h9.55v9.31c0,.93-.44,1.4-1.32,1.4-.54,0-1.14,0-1.82,0,0-.26-.09-.58-.17-1,.68,0,1.23.07,1.65.07s.73-.23.73-.69V15.14h-3.45v3.73ZM287.2,14.3h3.34V12.11h-3.29A19.67,19.67,0,0,1,287.2,14.3Zm.05-5.22v2.18h3.29V9.08Zm7.68,0h-3.45v2.18h3.45Zm-3.45,5.22h3.45V12.11h-3.45Z"/><path class="cls-15" d="M301.89,7.9l.85-.5c.37.44.74.93,1.11,1.45l-.57.36h4.37V14.4h-.94v-.61h-7.4a9.33,9.33,0,0,1-1.74,5.4c-.21-.26-.44-.52-.68-.78a8.49,8.49,0,0,0,1.5-5.48V9.21h4.47C302.57,8.78,302.25,8.34,301.89,7.9Zm-2.56,2.16V13h7.38V10.06Z"/><path class="cls-15" d="M93.86,96.78c0,.39,0,.73.08,1-.85.56-1.56,1.07-2.15,1.52l-.54-.77a1.32,1.32,0,0,0,.4-1V93.1H90.22v-.86h2.32v5.47Q93.2,97.26,93.86,96.78Zm-2.31-8.23c.64.64,1.2,1.23,1.7,1.77l-.82.68a24,24,0,0,0-1.59-1.85Zm1.73,3.73h3.79v-.81h-3v-.74h3V90H93.66v-.74h3.41V88.15h1v1.06h3.57V90H98v.78h3.27v.74H98v.81h3.8V93H93.28Zm2,7.39h-.92V93.73h6.52v4.56a1.15,1.15,0,0,1-1.3,1.28H97.76q-.06-.37-.18-.9c.68,0,1.24.07,1.67.07s.66-.2.66-.61v-.59H95.23Zm4.68-5.19H95.23v.81h4.68Zm-4.68,2.35h4.68V96H95.23Z"/><path class="cls-15" d="M102.45,90.36h5.15V88.24h1v2.12h5.12v.84h-5.12v.73a12.9,12.9,0,0,0,1.36,2.39,21.22,21.22,0,0,0,2.3-2.34l.83.69c-1,1-1.81,1.74-2.56,2.36a10.71,10.71,0,0,0,3.37,2.63,8.87,8.87,0,0,0-.71.91,11.92,11.92,0,0,1-4.59-4.73v4.3c0,1-.53,1.51-1.58,1.51l-1.56,0c0-.32-.11-.67-.19-1a14.2,14.2,0,0,0,1.51.11.75.75,0,0,0,.84-.86V95.62c-1.85.94-3.45,1.8-4.82,2.58l-.51-1c1.64-.76,3.41-1.66,5.33-2.71V91.2h-5.15Zm1.72,1.54c.63.62,1.27,1.31,1.91,2.08l-.81.66c-.54-.72-1.14-1.43-1.8-2.16Zm5.49-3,.56-.62A15.4,15.4,0,0,1,112,89.51l-.63.71C110.9,89.81,110.33,89.36,109.66,88.86Z"/><path class="cls-15" d="M119.7,88.56l.85-.45a13.1,13.1,0,0,1,1,1.39l-.57.33h4.76v.89h-9.13v2.87c0,2.77-.57,4.83-1.71,6.2a9.14,9.14,0,0,0-.68-.81q1.39-1.56,1.4-5.36V89.83h5C120.29,89.4,120,89,119.7,88.56Zm-3.2,9.65h5.42a57.13,57.13,0,0,0,1.94-6.4l1,.28q-1.09,3.87-1.95,6.12h2.89v.89H116.5Zm.63-5.75.89-.31c.48,1.42,1,3,1.41,4.78l-1,.31Q117.89,94.92,117.13,92.46Zm2.82-.59.91-.26c.4,1.41.76,3,1.07,4.72l-1,.27A45,45,0,0,0,120,91.87Z"/><path class="cls-15" d="M132.19,99.57V95.84h-3.41a7.67,7.67,0,0,1-1.42,4q-.3-.39-.69-.81a6.3,6.3,0,0,0,1-2.39A19.26,19.26,0,0,0,128,93.1V88.92h9.55v9.31c0,.93-.44,1.4-1.33,1.4-.54,0-1.14,0-1.81,0,0-.26-.1-.58-.18-1,.68,0,1.23.07,1.65.07s.73-.23.73-.69V95.84h-3.44v3.73ZM128.84,95h3.35V92.81h-3.3A17.57,17.57,0,0,1,128.84,95Zm0-5.22V92h3.3V89.78Zm7.68,0h-3.44V92h3.44ZM133.13,95h3.44V92.81h-3.44Z"/><path class="cls-15" d="M138.55,96.5a13,13,0,0,0,1.78-4h-1.64v-.77h1.83V89.88l-1.51.2a6.27,6.27,0,0,0-.25-.81,28.41,28.41,0,0,0,4-.63l.26.82c-.54.1-1.1.21-1.68.3v2H143v.77h-1.63V94l.46-.4c.31.32.77.83,1.37,1.53l-.7.58c-.45-.58-.83-1-1.13-1.4v5.42h-.84V94.15A11.86,11.86,0,0,1,139,97.52C138.82,97.18,138.69,96.84,138.55,96.5Zm4.14,1.85H146V96.62h-2.66v-.79H146V94.24H143.1v-.79h6.83v.79h-3v1.59h2.66v.79H147v1.73h3.35v.79h-7.64Zm.94-9.59h5.81v4h-.89V92.3h-4v.48h-.89Zm4.92.8h-4v2h4Z"/><path class="cls-15" d="M95.59,101.94l.84-.46a13.92,13.92,0,0,1,.85,1.21l-.56.33h5v.85H92.37v3.19q0,4.17-1.61,6.17a7.68,7.68,0,0,0-.67-.8q1.29-1.5,1.29-5.13V103h4.94C96.08,102.63,95.84,102.27,95.59,101.94Zm-2.89,6h4.11c-.72-.54-1.42-1-2.08-1.42l.57-.6,1.67,1,2.12-1.25h-5.7v-.84h7.4v.85l-3,1.78.29.2-.31.23h3.85v.86l-1,2.1c-.23-.12-.52-.27-.87-.42l.84-1.69H97.72v2.79c0,1-.45,1.42-1.34,1.42l-1.76,0c0-.26-.08-.6-.14-1a12.8,12.8,0,0,0,1.61.13.59.59,0,0,0,.67-.67v-2.64H92.7Z"/><path class="cls-15" d="M102.74,103.56h1.19c.29-.71.53-1.36.71-2l1,.28c-.25.6-.49,1.16-.72,1.67h2.35v9.33h-.94V112h-2.64v1h-.94Zm3.58.88h-2.64v2.84h2.64Zm-2.64,6.65h2.64v-3h-2.64Zm3.75-5.13a17,17,0,0,0,1.87-4.35l1,.25c-.2.59-.4,1.14-.61,1.66h3.77q-.14,6-.23,7.58a1.71,1.71,0,0,1-1.93,1.84c-.72,0-1.44,0-2.17-.07a8.47,8.47,0,0,0-.19-1h0a15.44,15.44,0,0,0,2.14.17,1.06,1.06,0,0,0,1.15-1.13c.08-1.16.15-3.32.19-6.47H109.3a15.82,15.82,0,0,1-1.06,2A5,5,0,0,0,107.43,106Zm1,.8.72-.53a31.74,31.74,0,0,1,2.07,2.66l-.86.61A28.11,28.11,0,0,0,108.46,106.76Z"/><path class="cls-15" d="M121.05,101.78l-.22.3a11.21,11.21,0,0,0,5.27,4c-.27.37-.49.69-.65,1a14.49,14.49,0,0,1-5.21-4.28,16.84,16.84,0,0,1-5.27,4.33,8.83,8.83,0,0,0-.61-.87,13.72,13.72,0,0,0,5.48-4.46Zm-3.38,7.67c.81.53,1.67,1.11,2.58,1.73.79-.73,1.68-1.63,2.7-2.71h-7.22v-.88h8.53v.88c-1,1-2.06,2.12-3.22,3.23l1.17.82-.71.79q-2.31-1.8-4.46-3.18Zm1.26-4.1.7-.55c.61.6,1.17,1.19,1.67,1.76l-.78.65A18.07,18.07,0,0,0,118.93,105.35Z"/><path class="cls-15" d="M130.19,113h-.85v-4.4h-1.27a9.25,9.25,0,0,1-.9,4.57c-.21-.21-.45-.43-.73-.68a8,8,0,0,0,.77-4v-6.5h.86v3.45h1.18v-3.79h.86v3.79H131v.72h-2.89v1.67h2.12Zm.38-2.87H132a7.31,7.31,0,0,0-.52-.61,4.79,4.79,0,0,0,1.78-1.43h-1.87v-5.23h2c.15-.37.3-.81.46-1.3l.91.28q-.25.57-.48,1h3v5.63h-.82v-.4h-2.21a5.19,5.19,0,0,1-2,2h2.34v-1.5h.86v1.5h2.65v.8h-2.65v2.15h-.86V111h-4Zm1.64-5h1.7v-1.46h-1.7Zm1.67.75h-1.67v1.47h1.43A6.62,6.62,0,0,0,133.88,105.87Zm.64,1.47h1.95v-1.47H134.7A7.28,7.28,0,0,1,134.52,107.34Zm1.95-3.68h-1.74v1.46h1.74Z"/><path class="cls-16" d="M235.48,233.38h3.3v9.5c0,.79-.36,1.18-1.09,1.18-.39,0-.77,0-1.11,0,0-.23-.08-.51-.14-.83a7.06,7.06,0,0,0,1,.09.42.42,0,0,0,.48-.48v-2.69h-1.64a6.93,6.93,0,0,1-1,4.11,4,4,0,0,0-.65-.66,6.18,6.18,0,0,0,.79-3.42Zm2.47.76h-1.64v2.25H238Zm-1.64,5.24H238v-2.26h-1.64Zm3.45-5.95h5.79c0,.63-.07,1.13-.1,1.5a1.64,1.64,0,0,1-1.85,1.78l-1.51-.05-.15-.92c.57.07,1.09.11,1.56.13a.93.93,0,0,0,1.08-1,6.21,6.21,0,0,0,.06-.66h-4v3.37h4.94v.69a8.52,8.52,0,0,1-1.71,3.58,7,7,0,0,0,2.51,1.5c-.27.31-.49.59-.68.84a8.38,8.38,0,0,1-2.44-1.68,9.71,9.71,0,0,1-2.11,1.56c-.15-.25-.31-.51-.48-.77a8,8,0,0,0,2-1.43,7.83,7.83,0,0,1-1.5-3.53h-.55v5.83h-.89Zm4.91,4.94H242a6.71,6.71,0,0,0,1.3,2.87A7.43,7.43,0,0,0,244.67,238.37Z"/><path class="cls-16" d="M250.38,232.58l.87.38c-.17.29-.36.57-.55.84H257v.79a9.45,9.45,0,0,1-3,2.31,17,17,0,0,0,4.69.89c-.25.35-.46.68-.65,1a17.74,17.74,0,0,1-5.12-1.36,25.61,25.61,0,0,1-5.63,1.56c-.13-.24-.29-.51-.48-.82a24.94,24.94,0,0,0,5.1-1.28,7.27,7.27,0,0,1-2.14-1.92,17.18,17.18,0,0,1-2,2c-.23-.25-.45-.46-.64-.63A11.76,11.76,0,0,0,250.38,232.58Zm-2.47,6.87h3.41c.06-.38.11-.8.14-1.26h.95q-.07.69-.15,1.26H257c-.07,1.4-.15,2.38-.22,2.94a1.74,1.74,0,0,1-2,1.67c-.46,0-1.15,0-2.07-.05-.05-.29-.11-.61-.18-1,.9.08,1.64.12,2.23.13a1,1,0,0,0,1.1-1c.07-.59.12-1.21.15-1.88h-3.9c-.42,1.88-1.87,3.25-4.37,4.09-.18-.25-.37-.52-.57-.78q3.36-1.09,4-3.31h-3.25Zm7.88-4.87h-5.23a7.37,7.37,0,0,0,2.42,1.86A10.4,10.4,0,0,0,255.79,234.58Z"/><path class="cls-16" d="M258.88,242.67h5.22V239.3h-4.29v-.89h4.29v-2.67h-4.75v-.89H269.8v.89h-4.7v2.67h4.29v.89H265.1v3.37h5.22v.87H258.88Zm4.77-9.56.87-.44c.48.71.82,1.26,1,1.65l-.93.49C264.2,234,263.88,233.46,263.65,233.11Z"/><path class="cls-16" d="M270.63,238.38a17.9,17.9,0,0,0,2.54-5.66l.89.26a25.66,25.66,0,0,1-1,2.81v8.43h-.86v-6.67a17.75,17.75,0,0,1-1.13,1.8C270.92,239,270.78,238.71,270.63,238.38Zm11.8,2.85-.69.87q-2.34-1.8-3.44-6.11v4.95H280v.84H278.3v2.45h-.87v-2.45h-1.72v-.84h1.72V236h0a12.64,12.64,0,0,1-3.59,6.3c-.18-.23-.39-.48-.62-.74a12.55,12.55,0,0,0,3.39-5.56h-2.76v-.84h3.61v-2.39h.87v2.39H282V236h-3A9.63,9.63,0,0,0,282.43,241.23Z"/></g></svg>