<svg xmlns="http://www.w3.org/2000/svg" xmlns:xlink="http://www.w3.org/1999/xlink" viewBox="0 0 475.66 151.37"><defs><style>.cls-1{fill:#505050;}.cls-13,.cls-2{fill:#fff;}.cls-10,.cls-3{fill:#ebebeb;}.cls-14,.cls-4{fill:#0072c6;}.cls-5{fill:#d2d2d2;}.cls-6{fill:#1a1a1f;}.cls-7{fill:#009ee1;}.cls-8{fill:#0078db;}.cls-9{fill:none;}.cls-10,.cls-11,.cls-9{stroke:#000;}.cls-10,.cls-11,.cls-12,.cls-13,.cls-14,.cls-9{stroke-miterlimit:10;}.cls-10{stroke-width:0.75px;}.cls-11,.cls-13,.cls-14{stroke-width:0.05px;}.cls-12{fill:#1e1e1e;stroke:#1e1e1e;stroke-width:0.06px;}.cls-13{stroke:#fff;}.cls-14{stroke:#0072c6;}</style><symbol id="New_Symbol_44" data-name="New Symbol 44" viewBox="0 0 20 20"><circle class="cls-1" cx="10" cy="10" r="10"/><path class="cls-2" d="M12,14V8.58h1.25V7.45H12V5.6H10.65V7.42H6.85V8.56q.51.58,1.05,1.26a12.66,12.66,0,0,1,1,1.38c.29.47.64.94.93,1.41A13,13,0,0,1,10.55,14ZM10.65,8.58v3.5a19.76,19.76,0,0,0-1.26-2C9,9.51,8.58,9,8.22,8.56Z"/></symbol><symbol id="New_Symbol_43" data-name="New Symbol 43" viewBox="0 0 20 20"><circle class="cls-1" cx="10" cy="10" r="10"/><path class="cls-2" d="M7.39,5.88V7.16a3,3,0,0,1,1.85-.65,2.19,2.19,0,0,1,1.34.38,1.23,1.23,0,0,1,.5,1c0,1-.73,1.43-2.18,1.43H8.24v1.12h.63c1.29,0,1.94.45,1.94,1.35S10.3,13,9.29,13a2.48,2.48,0,0,1-1.58-.6v1.23a4.08,4.08,0,0,0,2,.48,2.64,2.64,0,0,0,1.79-.56,1.76,1.76,0,0,0,.67-1.44A2,2,0,0,0,10.5,10h0a2.19,2.19,0,0,0,1.43-.63A1.89,1.89,0,0,0,12.5,8a2.22,2.22,0,0,0-.85-1.82,3.4,3.4,0,0,0-2.24-.7A3.84,3.84,0,0,0,7.39,5.88Z"/></symbol><symbol id="New_Symbol_42" data-name="New Symbol 42" viewBox="0 0 20 20"><circle class="cls-1" cx="10" cy="10" r="10"/><path class="cls-2" d="M12.5,5.57H7.24v.65A2.58,2.58,0,0,0,7.35,7a3.93,3.93,0,0,0,.3.66,4.92,4.92,0,0,0,.44.58c.17.18.35.35.54.52l.59.5c.2.15.39.31.58.47s.35.3.5.45a4.11,4.11,0,0,1,.38.45,2.55,2.55,0,0,1,.24.5,1.84,1.84,0,0,1,.09.57,1.42,1.42,0,0,1-.1.58,1.33,1.33,0,0,1-.29.41,1.17,1.17,0,0,1-.44.26,2.05,2.05,0,0,1-.55.05,2.73,2.73,0,0,1-1.05-.24,3.75,3.75,0,0,1-1-.72v1.31a2.85,2.85,0,0,0,.52.33,2.7,2.7,0,0,0,.55.24,3,3,0,0,0,.59.15,3.64,3.64,0,0,0,.66,0,3.77,3.77,0,0,0,1-.14,2.2,2.2,0,0,0,.79-.44,2,2,0,0,0,.51-.73,2.46,2.46,0,0,0,.18-1,2.88,2.88,0,0,0-.13-.92,2.65,2.65,0,0,0-.36-.76,4,4,0,0,0-.56-.67c-.21-.21-.46-.43-.73-.65l-.67-.53c-.23-.18-.43-.35-.61-.51a3.5,3.5,0,0,1-.44-.5.9.9,0,0,1-.16-.5H12.5Z"/></symbol><symbol id="New_Symbol_41" data-name="New Symbol 41" viewBox="0 0 20 20"><circle class="cls-1" cx="10" cy="10" r="10"/><path class="cls-2" d="M11.19,14.16V5.57H9.83V12.5A4.06,4.06,0,0,0,9,12a9,9,0,0,0-1-.33v1.21l.65.24.63.27.62.34c.21.13.42.27.64.43Z"/></symbol></defs><title>OJ104329343</title><g id="bg"><g id="Shapes"><rect class="cls-2" width="475.66" height="151.37"/><rect class="cls-3" y="0.74" width="105" height="150"/><rect class="cls-4" x="371" y="0.74" width="104.66" height="90"/><rect class="cls-5" x="371" y="95.74" width="104.66" height="55"/><path class="cls-6" d="M18.54,29.21a1.53,1.53,0,0,1,1.52-1.54H83a1.54,1.54,0,0,1,1.53,1.54v37.2A1.55,1.55,0,0,1,83,67.94H20.07a1.54,1.54,0,0,1-1.53-1.53Zm-3.47-1.79V68.11a3.29,3.29,0,0,0,3.28,3.3H84.68A3.29,3.29,0,0,0,88,68.15V27.42a3.28,3.28,0,0,0-3.27-3.29H18.35a3.28,3.28,0,0,0-3.28,3.28Z"/><path class="cls-6" d="M12.39,74.91H90.64a.87.87,0,0,1,.87.87h0v2.57a.87.87,0,0,1-.86.88H12.39a.87.87,0,0,1-.88-.86V75.78a.87.87,0,0,1,.87-.87Z"/><path class="cls-2" d="M42.59,76.44H60.44a.26.26,0,0,1,.25.26v.74a.25.25,0,0,1-.25.25H42.59a.25.25,0,0,1-.25-.25V76.7A.26.26,0,0,1,42.59,76.44Z"/><path class="cls-7" d="M58.39,51.55l.69-1.64-.2-.17-1.51-1.31V47.1l1.71-1.53-.67-1.65h-.26l-2,.14-.94-.94.13-2.29-1.64-.69-.18.2-1.31,1.51H50.88l-1.52-1.7-1.65.67v.26l.14,2-1,.94-2.28-.13L44,45.54l.2.17L45.66,47v1.33L44,49.88l.67,1.65h.26l2-.14.93,1-.12,2.28,1.64.69.17-.2,1.31-1.51h1.33l1.53,1.7,1.65-.67v-.26l-.14-2,1-.93Zm-8.29-.47a3.64,3.64,0,1,1,4.77-1.94h0a3.65,3.65,0,0,1-4.77,1.94h0"/><path class="cls-7" d="M51.51,65A17.32,17.32,0,1,1,68.83,47.68v0A17.3,17.3,0,0,1,51.51,65Zm0-30.45A13.14,13.14,0,1,0,64.65,47.73,13.14,13.14,0,0,0,51.51,34.55h0Z"/><path class="cls-7" d="M51.51,65A17.32,17.32,0,1,1,68.83,47.68v0A17.3,17.3,0,0,1,51.51,65Zm0-30.45A13.14,13.14,0,1,0,64.65,47.73,13.14,13.14,0,0,0,51.51,34.55h0Z"/><path class="cls-7" d="M51.51,65A17.32,17.32,0,1,1,68.83,47.68v0A17.3,17.3,0,0,1,51.51,65Zm0-30.45A13.14,13.14,0,1,0,64.65,47.73,13.14,13.14,0,0,0,51.51,34.55h0Z"/><path class="cls-8" d="M51.51,65.88A18.15,18.15,0,1,1,69.67,47.73,18.16,18.16,0,0,1,51.51,65.88Zm0-35.61A17.46,17.46,0,1,0,69,47.73,17.46,17.46,0,0,0,51.51,30.27Z"/><path class="cls-8" d="M51.51,65.88A18.15,18.15,0,1,1,69.67,47.73,18.16,18.16,0,0,1,51.51,65.88Zm0-35.61A17.46,17.46,0,1,0,69,47.73,17.46,17.46,0,0,0,51.51,30.27Z"/><path class="cls-8" d="M51.51,66.23A18.5,18.5,0,1,1,70,47.72h0A18.51,18.51,0,0,1,51.51,66.23Zm0-35.61A17.11,17.11,0,1,0,68.62,47.73,17.11,17.11,0,0,0,51.51,30.62Z"/><line class="cls-9" x1="104.91" y1="14.57" x2="365.49" y2="14.57"/><polygon points="364.39 18.31 370.87 14.57 364.39 10.83 364.39 18.31"/><line class="cls-9" x1="110.29" y1="44.45" x2="370.87" y2="44.45"/><polygon points="111.39 48.19 104.91 44.45 111.39 40.71 111.39 48.19"/><line class="cls-9" x1="104.91" y1="103.88" x2="365.49" y2="103.88"/><polygon points="364.39 107.62 370.87 103.88 364.39 100.14 364.39 107.62"/><line class="cls-9" x1="110.34" y1="140.04" x2="370.91" y2="140.04"/><polygon points="111.43 143.78 104.96 140.04 111.43 136.3 111.43 143.78"/><use width="20" height="20" transform="matrix(1, 0, 0, -1, 154.14, 149.57)" xlink:href="#New_Symbol_44"/><use width="20" height="20" transform="matrix(1, 0, 0, -1, 154.14, 113.88)" xlink:href="#New_Symbol_43"/><use width="20" height="20" transform="matrix(1, 0, 0, -1, 154.14, 54.45)" xlink:href="#New_Symbol_42"/><use width="20" height="20" transform="matrix(1, 0, 0, -1, 154.14, 24.57)" xlink:href="#New_Symbol_41"/><polygon class="cls-10" points="187.08 26.58 179.53 32.02 182.41 40.83 191.75 40.83 194.64 32.02 187.08 26.58"/></g><g id="Text"><polygon class="cls-10" points="187.08 85.13 179.53 90.58 182.41 99.38 191.75 99.38 194.64 90.58 187.08 85.13"/></g></g><g id="txt"><path class="cls-11" d="M23.55,99.11a.89.89,0,0,1,.34-.72,1.24,1.24,0,0,1,1.58,0,1,1,0,0,1,0,1.44,1.16,1.16,0,0,1-.81.28,1.12,1.12,0,0,1-.78-.29A.91.91,0,0,1,23.55,99.11Z"/><path class="cls-11" d="M35.51,100h-2l-3.84-5.87a6.34,6.34,0,0,1-.44-.74h0a12.73,12.73,0,0,1,.06,1.45V100H27.44V90.89h2.11l3.7,5.7c.25.38.4.62.46.72h0a10.71,10.71,0,0,1,0-1.25V90.89h1.83Z"/><path class="cls-11" d="M43,100H37.62V90.89h5.16v1.58H39.55v2.14h3v1.57h-3v2.2H43Z"/><path class="cls-11" d="M50.84,92.47H48.25V100H46.31V92.47H43.73V90.89h7.11Z"/><path class="cls-11" d="M62.13,99.63a5.79,5.79,0,0,1-2.58.49,4.35,4.35,0,0,1-3.26-1.23,4.48,4.48,0,0,1-1.2-3.27,4.8,4.8,0,0,1,1.34-3.52,4.66,4.66,0,0,1,3.47-1.37,6.25,6.25,0,0,1,2.23.35V93A4,4,0,0,0,60,92.41a2.76,2.76,0,0,0-2.12.85,3.13,3.13,0,0,0-.8,2.22,3,3,0,0,0,.76,2.15,2.64,2.64,0,0,0,2,.81,4.27,4.27,0,0,0,2.21-.58Z"/><path class="cls-11" d="M63.16,96.75a3.29,3.29,0,0,1,1-2.51,3.58,3.58,0,0,1,2.57-.92,3.41,3.41,0,0,1,2.49.9,3.25,3.25,0,0,1,.92,2.42,3.61,3.61,0,0,1-6,2.57A3.26,3.26,0,0,1,63.16,96.75Zm1.92,0c0,1.29.52,1.94,1.58,1.94s1.52-.67,1.52-2-.51-1.89-1.53-1.89a1.41,1.41,0,0,0-1.16.51A2.21,2.21,0,0,0,65.08,96.73Z"/><path class="cls-11" d="M75.56,95.2a1.64,1.64,0,0,0-.83-.2,1.24,1.24,0,0,0-1,.49,2.19,2.19,0,0,0-.37,1.35V100h-1.9V93.48h1.9V94.7h0a1.72,1.72,0,0,1,1.71-1.33,1.26,1.26,0,0,1,.5.08Z"/><path class="cls-11" d="M82.22,97.25H78c.07,1,.67,1.51,1.82,1.51a3.45,3.45,0,0,0,1.89-.53v1.39a4.72,4.72,0,0,1-2.32.5,3.25,3.25,0,0,1-2.41-.87,3.34,3.34,0,0,1-.86-2.43A3.55,3.55,0,0,1,77,94.29a3,3,0,0,1,2.3-1,2.79,2.79,0,0,1,2.15.84,3.21,3.21,0,0,1,.78,2.29Zm-1.77-1.18c0-1-.39-1.45-1.18-1.45a1.14,1.14,0,0,0-.86.4,1.89,1.89,0,0,0-.47,1Z"/><path class="cls-11" d="M40.45,113.23H37a8.53,8.53,0,0,0,3.61,1.2,8.39,8.39,0,0,0-.63,1.36,9.49,9.49,0,0,1-4.36-2.25V116H34v-2.45a9.67,9.67,0,0,1-4.38,2.33A11.13,11.13,0,0,0,29,114.5a9,9,0,0,0,3.6-1.27H29.15V112H34v-.61H30.3v-4.52h3.51v-2.5h1.6v.72H40.1v1.19H35.41v.59H39.3v4.52H35.57V112h4.88Zm-2.72-5.18H31.87v.58h5.86Zm0,2.18v-.57H31.87v.57Z"/><path class="cls-11" d="M41.11,105H52.42v1.31h-5c-.19.44-.37.83-.54,1.16h4.9v8.45H50.3v-.61h-7v.61h-1.5v-8.45H45c.15-.36.29-.75.43-1.16H41.11Zm2.14,9h1v-5.23h-1Zm2.51-4.29h2v-.94h-2Zm0,2.14h2v-.95h-2Zm0,2.15h2v-1h-2Zm4.54-5.23H49.21V114H50.3Z"/><path class="cls-11" d="M55.47,109.69c0,3-.4,5.06-1.21,6.29-.36-.33-.8-.71-1.32-1.12a10.89,10.89,0,0,0,1-5.38V105.8h4.5l-.43-1,1.89-.45.59,1.48h4v1.44h-9Zm-.21,4.08h5.58c.47-1.53,1-3.49,1.68-5.88l1.63.42c-.4,1.53-1,3.35-1.65,5.46h2v1.63H55.26Zm.28-5,1.41-.6c.68,1.5,1.32,3,1.91,4.64l-1.57.58C56.79,111.93,56.2,110.39,55.54,108.77Zm2.88-.61,1.47-.44q.61,1.62,1.35,4.17l-1.59.44Q59,109.82,58.42,108.16Z"/><path class="cls-11" d="M75.88,114.11a1.72,1.72,0,0,1-.34,1.15,1.48,1.48,0,0,1-1,.48,16,16,0,0,1-1.84.06,15.52,15.52,0,0,0-.47-1.7l1.32.07a.64.64,0,0,0,.73-.72v-1.06H71.81v3.28H70.15v-3.28H67.62a6.81,6.81,0,0,1-1,3.61c-.5-.36-1-.69-1.52-1,.64-.86.94-2.38.92-4.58v-5.52h9.85Zm-8.21-6.2h2.48v-1.45H67.67Zm0,3h2.48v-1.46H67.67Zm6.57-4.42H71.81v1.45h2.43Zm-2.43,4.42h2.43v-1.46H71.81Z"/><path class="cls-11" d="M27.11,130.82a8,8,0,0,1-2-5.53,8.47,8.47,0,0,1,2-5.6h1.55a9,9,0,0,0-1.92,5.6,8.72,8.72,0,0,0,1.93,5.53Z"/><path class="cls-11" d="M28.92,126.53h3.35v-1.64h-3v-1.48h3v-1.62H29.1v-1.5h3.17v-1.44H34v11.41H32.27V128H28.92Zm6.7-7.68h1.71v1.44h3.12v1.5H37.33v1.62h2.93v1.48H37.33v1.64h3.3V128h-3.3v2.23H35.62Z"/><path class="cls-11" d="M45.08,124.07a10.29,10.29,0,0,0,1.7,2.24A7.68,7.68,0,0,0,48.42,124l1.38.93a11.5,11.5,0,0,1-1.7,2.35,12,12,0,0,0,4.49,1.3c-.39.65-.72,1.21-1,1.67a10.73,10.73,0,0,1-4.82-1.81,11.83,11.83,0,0,1-4.9,1.86,13.47,13.47,0,0,0-1-1.68,12.17,12.17,0,0,0,4.51-1.36A11.89,11.89,0,0,1,43.76,125Zm-4-3.86h4.73l-.42-1,1.74-.53c.18.38.43.87.72,1.49h4.54v1.48H41.08Zm.07,4.2a24.21,24.21,0,0,0,3.39-2.7l1.26,1.16a42.22,42.22,0,0,1-3.55,2.9A15.7,15.7,0,0,0,41.15,124.41Zm7.75-2.66c1.29.91,2.45,1.77,3.48,2.56l-1.22,1.35q-1.62-1.47-3.34-2.78Z"/><path class="cls-11" d="M53,128.3h7.82l.09-1.23H54.26l.83-6.06H53.38v-1.5H64.2V121H56.84l-.18,1.2H63l-.43,6.09h1.92v1.5H53Zm8.16-4.62H56.45l-.28,1.91h4.89Z"/><path class="cls-11" d="M65.48,123.67h5.29v1.54H69v2.27l2.32-.34c0,.76,0,1.33,0,1.69l-6.16.9L65,128l2.39-.28v-2.49H65.48ZM65,120.85h6.1l-.13-2.07h1.76c0,.69,0,1.38.08,2.07h1.61a13.87,13.87,0,0,0-1-1.19l1-.78c.46.47.91,1,1.34,1.49l-.62.48h1.19v1.54H72.88a22.18,22.18,0,0,0,.7,5c.3.79.58,1.19.84,1.19a.24.24,0,0,0,.19-.12,2.43,2.43,0,0,0,.21-.7c.08-.39.16-.9.23-1.53a11.11,11.11,0,0,0,1.54.82,6.51,6.51,0,0,1-.78,2.75,1.65,1.65,0,0,1-1.38.56,2.37,2.37,0,0,1-2.31-1.85,25.08,25.08,0,0,1-1-6.13H65Z"/><path class="cls-11" d="M76.89,130.82a8.73,8.73,0,0,0,1.94-5.53,9,9,0,0,0-1.94-5.6h1.55a8.44,8.44,0,0,1,2,5.6,7.94,7.94,0,0,1-2,5.53Z"/><path class="cls-12" d="M208,85.53h-1.17V81.44h-4.6v4.09h-1.17V76.46h1.17V80.4h4.6V76.46H208Z"/><path class="cls-12" d="M215.76,77.5h-2.62v8H212v-8h-2.61v-1h6.4Z"/><path class="cls-12" d="M222.82,77.5H220.2v8H219v-8h-2.61v-1h6.41Z"/><path class="cls-12" d="M225.31,82.14v3.39h-1.17V76.46h2.58a3.31,3.31,0,0,1,2.28.71,2.53,2.53,0,0,1,.81,2,2.77,2.77,0,0,1-.95,2.17,3.31,3.31,0,0,1-2.37.78Zm0-4.65v3.62h1.09a2.41,2.41,0,0,0,1.62-.48,1.73,1.73,0,0,0,.56-1.39c0-1.17-.69-1.75-2.07-1.75Z"/><path class="cls-12" d="M241.75,84.91a6.06,6.06,0,0,1-3.07.77,4.2,4.2,0,0,1-3.17-1.24,4.56,4.56,0,0,1-1.21-3.33,4.74,4.74,0,0,1,1.33-3.45A4.57,4.57,0,0,1,239,76.3a6,6,0,0,1,2.49.47V78a4.72,4.72,0,0,0-2.59-.69,3.22,3.22,0,0,0-2.45,1,4.29,4.29,0,0,0-.07,5.32,3.08,3.08,0,0,0,2.39,1,3.55,3.55,0,0,0,1.76-.4V81.79h-2v-1h3.15Z"/><path class="cls-12" d="M248.62,85.53h-4.88V76.46h4.68v1h-3.51v2.91h3.25v1h-3.25V84.5h3.71Z"/><path class="cls-12" d="M255.77,77.5h-2.62v8H252v-8h-2.61v-1h6.4Z"/><path class="cls-12" d="M266.85,82.21H264.3v2.54h-.88V82.21h-2.54v-.9h2.54V78.78h.88v2.53h2.55Z"/><path class="cls-12" d="M204.27,97.16c0,.36.06.71.1,1-.57.41-1.21.89-1.91,1.46a5.33,5.33,0,0,0-.58.55l-.63-.71a1.59,1.59,0,0,0,.42-1.14V94.61h-1.5v-.86h2.41v4.71C203.14,98.05,203.71,97.61,204.27,97.16Zm-2.92-7.22c.64.63,1.24,1.27,1.81,1.91l-.82.69a24.08,24.08,0,0,0-1.7-2Zm2.46,1.84h3.8a12.83,12.83,0,0,0-.88-1.67l.82-.39a18,18,0,0,1,.94,1.62l-.85.44h4.06v.85h-5.23v1.82h4.4c-.09,2.36-.18,4-.26,4.89a1.5,1.5,0,0,1-1.64,1.59c-.58,0-1.21,0-1.9,0,0-.36-.12-.71-.19-1a17.84,17.84,0,0,0,2,.12c.51,0,.79-.29.85-.87.09-.93.16-2.2.23-3.84h-3.46a10.64,10.64,0,0,1-.46,3.16,7.61,7.61,0,0,1-1.93,2.91,5.63,5.63,0,0,0-.75-.69,6.64,6.64,0,0,0,1.8-2.67,10.67,10.67,0,0,0,.39-3.37v-2h-1.7Z"/><path class="cls-12" d="M212.63,92.07h.92v9.19h-.92Zm.59-1.72.67-.6c.43.41,1,1,1.7,1.71l-.76.67C214.15,91.35,213.62,90.76,213.22,90.35Zm2.1,3.1h5v4.68h-4.13v.67h-.84Zm4.12.86h-3.28v3h3.28Zm-3.14-2.93V90.5H223v9.06c0,1.14-.52,1.7-1.54,1.7l-1.92,0a8.26,8.26,0,0,0-.19-.95c.65,0,1.27.07,1.88.07s.85-.31.85-.91V91.38Z"/><path class="cls-12" d="M230.59,89.92l-.23.3a11.24,11.24,0,0,0,5.28,4,10.62,10.62,0,0,0-.66,1,14.44,14.44,0,0,1-5.2-4.27,17.12,17.12,0,0,1-5.28,4.32,8.34,8.34,0,0,0-.61-.87,13.74,13.74,0,0,0,5.49-4.46Zm-3.39,7.67c.81.54,1.68,1.11,2.59,1.73.78-.73,1.68-1.63,2.69-2.71h-7.21v-.88h8.53v.88c-1,1-2.06,2.12-3.23,3.23l1.18.82-.72.79c-1.54-1.2-3-2.25-4.45-3.18Zm1.26-4.1.71-.55c.61.6,1.16,1.19,1.66,1.76l-.77.66A18.45,18.45,0,0,0,228.46,93.49Z"/><path class="cls-12" d="M239.65,101.17h-.85v-4.4h-1.27a9.25,9.25,0,0,1-.9,4.57c-.2-.21-.44-.43-.73-.68a8,8,0,0,0,.78-4v-6.5h.85v3.45h1.19V89.87h.85v3.79h.86v.72h-2.9v1.67h2.12ZM240,98.3h1.43a7.31,7.31,0,0,0-.52-.61,4.71,4.71,0,0,0,1.78-1.43h-1.87V91h2c.15-.37.3-.81.46-1.3l.91.28q-.26.57-.48,1h3v5.63h-.82v-.4h-2.22a5.19,5.19,0,0,1-2,2H244V96.8h.85v1.5h2.65v.81h-2.65v2.14H244V99.11h-4Zm1.64-5h1.7V91.8h-1.7Zm1.68.75h-1.68v1.47h1.43A6.56,6.56,0,0,0,243.35,94Zm.63,1.47h2V94h-1.77A7.88,7.88,0,0,1,244,95.48Zm2-3.68h-1.75v1.46h1.75Z"/><path class="cls-13" d="M403.51,34.61V29.1c0-.5,0-1.14.08-1.91h0a10.4,10.4,0,0,1-.28,1.16L401,34.61h-1.54l-2.27-6.2a12.28,12.28,0,0,1-.28-1.22h-.06c.05.76.08,1.52.08,2.29v5.13H395.2V25.54H398L400,31a6.26,6.26,0,0,1,.34,1.28h0a12.39,12.39,0,0,1,.37-1.29l2-5.47h2.73v9.07Z"/><path class="cls-13" d="M407.19,26a.93.93,0,0,1,.3-.71,1.17,1.17,0,0,1,.79-.27,1.12,1.12,0,0,1,.8.28.92.92,0,0,1,.3.7.9.9,0,0,1-.31.71,1.11,1.11,0,0,1-.79.29,1.09,1.09,0,0,1-.78-.29A.92.92,0,0,1,407.19,26Zm.14,8.57V28.13h1.88v6.48Z"/><path class="cls-13" d="M415.76,34.37a3.78,3.78,0,0,1-1.93.4,3.28,3.28,0,0,1-2.4-.9,3.13,3.13,0,0,1-.91-2.34,3.46,3.46,0,0,1,1-2.6,3.62,3.62,0,0,1,2.63-1,3.45,3.45,0,0,1,1.64.31V29.9a2.33,2.33,0,0,0-1.42-.47A1.87,1.87,0,0,0,413,30a2,2,0,0,0-.52,1.45,1.91,1.91,0,0,0,.49,1.4,1.8,1.8,0,0,0,1.36.52,2.62,2.62,0,0,0,1.47-.48Z"/><path class="cls-13" d="M421.24,29.85a1.68,1.68,0,0,0-.84-.2,1.21,1.21,0,0,0-1,.49A2.14,2.14,0,0,0,419,31.5v3.11h-1.89V28.13H419v1.22h0A1.72,1.72,0,0,1,420.73,28a1.36,1.36,0,0,1,.51.08Z"/><path class="cls-13" d="M421.75,31.4a3.32,3.32,0,0,1,.95-2.51,3.59,3.59,0,0,1,2.58-.92,3.39,3.39,0,0,1,2.48.9,3.21,3.21,0,0,1,.92,2.42,3.24,3.24,0,0,1-3.49,3.48,3.47,3.47,0,0,1-2.52-.9A3.34,3.34,0,0,1,421.75,31.4Zm1.91,0c0,1.29.53,1.94,1.58,1.94s1.52-.67,1.52-2-.51-1.9-1.53-1.9a1.39,1.39,0,0,0-1.15.51A2.21,2.21,0,0,0,423.66,31.38Z"/><path class="cls-13" d="M429.85,32.87a3.6,3.6,0,0,0,1.9.59c.79,0,1.18-.21,1.18-.62s-.33-.55-1-.75a4.13,4.13,0,0,1-1.66-.83,1.71,1.71,0,0,1-.45-1.25,1.73,1.73,0,0,1,.77-1.49,3.41,3.41,0,0,1,2-.55,5.53,5.53,0,0,1,1.72.27v1.49a3.22,3.22,0,0,0-1.67-.45,1.37,1.37,0,0,0-.72.16.48.48,0,0,0-.28.43c0,.29.27.53.82.72a7.86,7.86,0,0,1,1.32.53,1.73,1.73,0,0,1,.68.63,1.92,1.92,0,0,1-.57,2.47,3.72,3.72,0,0,1-2.15.55,5.62,5.62,0,0,1-1.95-.33Z"/><path class="cls-13" d="M435.56,31.4a3.32,3.32,0,0,1,.95-2.51,3.59,3.59,0,0,1,2.58-.92,3.39,3.39,0,0,1,2.48.9,3.21,3.21,0,0,1,.92,2.42,3.61,3.61,0,0,1-6,2.58A3.3,3.3,0,0,1,435.56,31.4Zm1.91,0c0,1.29.53,1.94,1.58,1.94s1.52-.67,1.52-2-.51-1.9-1.53-1.9a1.39,1.39,0,0,0-1.15.51A2.21,2.21,0,0,0,437.47,31.38Z"/><path class="cls-13" d="M447.74,26.48a2,2,0,0,0-.73-.15c-.65,0-1,.36-1,1.08v.72h1.48v1.41H446v5.07h-1.89V29.54h-1.09V28.13h1.09V27.3a2.28,2.28,0,0,1,.72-1.77,2.69,2.69,0,0,1,1.89-.66,3.31,3.31,0,0,1,1,.12Z"/><path class="cls-13" d="M452.56,34.54a2.86,2.86,0,0,1-1.29.23c-1.38,0-2.07-.72-2.07-2.17V29.54h-1.06V28.13h1.06V26.71l1.88-.54v2h1.48v1.41h-1.48v2.73c0,.7.28,1,.82,1a1.31,1.31,0,0,0,.66-.19Z"/><path class="cls-13" d="M399.63,45.82A13.33,13.33,0,0,0,401,42.65h-1.26V41.12h1.35v-2h1.44v2h1.13v1.53H402.5V44l1.45.82-.73,1.33a8,8,0,0,0-.72-.53v5h-1.44V45.76A15.33,15.33,0,0,1,400,48C399.88,47.15,399.75,46.44,399.63,45.82Zm5-1,1.4.4a35.78,35.78,0,0,1-1.47,3.92,8.34,8.34,0,0,0-1.38-.56A27,27,0,0,0,404.6,44.87Zm-.94-2.26h7.54v1.52h-2.95v5a1.28,1.28,0,0,1-.35,1,1.54,1.54,0,0,1-1,.38c-.43,0-1,0-1.77,0-.11-.63-.21-1.18-.32-1.63.42,0,.79.06,1.12.06s.68-.21.68-.63v-4.2h-3Zm.47-2.93h6.62V41.2h-6.62ZM410,45c.49,1.18,1,2.42,1.42,3.72l-1.45.55c-.45-1.38-.91-2.64-1.37-3.76Z"/><path class="cls-13" d="M415.69,46.23A14.88,14.88,0,0,0,416,48,22.37,22.37,0,0,0,413.47,50L412.64,49a1.84,1.84,0,0,0,.26-1V44.22h-1.16V42.64h2.76v4.55Zm-2-7.13c.5.67,1,1.39,1.56,2.17l-1.5.94c-.47-.81-.94-1.58-1.43-2.3Zm3.73,7.29,1.38.92q-1.35,1.81-2.71,3.37c-.39-.36-.83-.73-1.33-1.11A19.62,19.62,0,0,0,417.4,46.39Zm-1.51-6.71h6.61V46h-6.61Zm5,4.91V41.11H417.5v3.48Zm-.05,1.81c.9,1,1.78,2.07,2.63,3.18l-1.46,1c-.79-1.15-1.61-2.28-2.47-3.36Z"/><path class="cls-13" d="M423.83,45.34h4.77V41h-4.25V39.49h10.36V41h-4.33v4.3h4.84v1.54h-4.84v3.65H428.6V46.88h-4.77Zm.68-3.25,1.23-.83c.75.87,1.53,1.84,2.33,2.91l-1.41.93C425.87,43.91,425.15,42.9,424.51,42.09Zm10.22.12c-.83,1-1.7,2-2.62,2.93l-1.2-1a27,27,0,0,0,2.44-2.9Z"/><path class="cls-13" d="M444.14,40.42c1.2,1.17,2.32,2.32,3.34,3.45l-1.3,1.1-.91-1.07q-5,.08-8.76.42l-.62-1.38a20.44,20.44,0,0,0,4.57-4.06l1.54.83c-1.11,1-2.29,2.07-3.52,3.07l5.64-.2-1.2-1.31ZM437,50.56V45.07h9v5.49h-1.6v-.69h-5.83v.69Zm7.43-4h-5.83v1.9h5.83Z"/><path class="cls-14" d="M404.79,118.06h-1.86v-5c0-.55,0-1.15.07-1.8H403c-.1.51-.19.88-.26,1.11l-2,5.71h-1.55l-2-5.65a8.85,8.85,0,0,1-.27-1.17h0c0,.82.08,1.55.08,2.18v4.64h-1.71v-8.4H398l1.72,5a6.58,6.58,0,0,1,.3,1.2h0a12.46,12.46,0,0,1,.34-1.21l1.71-5h2.7Z"/><path class="cls-14" d="M407.46,111.11a1.07,1.07,0,0,1-.77-.28.92.92,0,0,1,0-1.36,1.16,1.16,0,0,1,.77-.26,1.14,1.14,0,0,1,.77.26.93.93,0,0,1,0,1.37A1.1,1.1,0,0,1,407.46,111.11Zm.92,7h-1.86v-6h1.86Z"/><path class="cls-14" d="M414.48,117.85a3.69,3.69,0,0,1-1.81.36,3.06,3.06,0,0,1-2.24-.84,2.89,2.89,0,0,1-.85-2.16,3.19,3.19,0,0,1,.91-2.41,3.39,3.39,0,0,1,2.46-.88,3.12,3.12,0,0,1,1.53.28v1.57a2.12,2.12,0,0,0-1.29-.44,1.71,1.71,0,0,0-1.27.47,2,2,0,0,0,0,2.54,1.66,1.66,0,0,0,1.23.45,2.42,2.42,0,0,0,1.35-.43Z"/><path class="cls-14" d="M419.61,113.73a1.63,1.63,0,0,0-.78-.18,1.15,1.15,0,0,0-.95.44,2,2,0,0,0-.34,1.21v2.86h-1.85v-6h1.85v1.12h0a1.59,1.59,0,0,1,1.58-1.22,1.14,1.14,0,0,1,.46.07Z"/><path class="cls-14" d="M423.28,118.21a3.23,3.23,0,0,1-2.36-.84,3.05,3.05,0,0,1-.86-2.28,3,3,0,0,1,.9-2.33,3.34,3.34,0,0,1,2.4-.84,3.2,3.2,0,0,1,2.35.84,3,3,0,0,1,.85,2.22,3.18,3.18,0,0,1-.88,2.36A3.24,3.24,0,0,1,423.28,118.21Zm.05-4.88a1.21,1.21,0,0,0-1,.46,2,2,0,0,0-.36,1.27c0,1.15.46,1.73,1.39,1.73s1.33-.59,1.33-1.77S424.22,113.33,423.33,113.33Z"/><path class="cls-14" d="M427.37,117.9v-1.5a3.5,3.5,0,0,0,.91.41,3,3,0,0,0,.85.14,1.84,1.84,0,0,0,.78-.14.43.43,0,0,0,.29-.41.41.41,0,0,0-.13-.29,1,1,0,0,0-.34-.2,2.52,2.52,0,0,0-.44-.16l-.46-.16a4.68,4.68,0,0,1-.63-.29,1.84,1.84,0,0,1-.46-.36,1.64,1.64,0,0,1-.28-.48,2,2,0,0,1-.09-.63,1.7,1.7,0,0,1,.21-.87,2,2,0,0,1,.59-.6A2.9,2.9,0,0,1,429,112a4.46,4.46,0,0,1,1-.1,5.52,5.52,0,0,1,.81.06,5.88,5.88,0,0,1,.81.18v1.43a3,3,0,0,0-.76-.31,3,3,0,0,0-.78-.1,2,2,0,0,0-.35,0,1.15,1.15,0,0,0-.28.09.51.51,0,0,0-.19.16.34.34,0,0,0-.07.22.4.4,0,0,0,.1.28.75.75,0,0,0,.28.2,2.57,2.57,0,0,0,.37.16l.42.13a7.13,7.13,0,0,1,.67.28,3.3,3.3,0,0,1,.51.36,1.58,1.58,0,0,1,.33.48,1.86,1.86,0,0,1,.11.66,1.76,1.76,0,0,1-.23.91,1.81,1.81,0,0,1-.62.61,2.66,2.66,0,0,1-.88.35,5.1,5.1,0,0,1-1,.11A5.17,5.17,0,0,1,427.37,117.9Z"/><path class="cls-14" d="M435.9,118.21a3.23,3.23,0,0,1-2.36-.84,3,3,0,0,1-.86-2.28,3.05,3.05,0,0,1,.89-2.33,3.37,3.37,0,0,1,2.41-.84,3.18,3.18,0,0,1,2.34.84,3,3,0,0,1,.85,2.22,3.15,3.15,0,0,1-.88,2.36A3.23,3.23,0,0,1,435.9,118.21Zm0-4.88a1.24,1.24,0,0,0-1,.46,2,2,0,0,0-.36,1.27c0,1.15.47,1.73,1.4,1.73s1.33-.59,1.33-1.77S436.84,113.33,435.94,113.33Z"/><path class="cls-14" d="M444.11,110.6a1.77,1.77,0,0,0-.69-.14c-.59,0-.89.32-.89,1v.64h1.37v1.37h-1.37v4.63h-1.85v-4.63h-1v-1.37h1v-.74a2.15,2.15,0,0,1,.67-1.65,2.55,2.55,0,0,1,1.82-.63,3.16,3.16,0,0,1,.94.12Z"/><path class="cls-14" d="M448.65,118a2.7,2.7,0,0,1-1.24.22,1.77,1.77,0,0,1-2-2v-2.75h-1v-1.37h1v-1.29l1.85-.53v1.82h1.35v1.37H447.3v2.42c0,.63.25.94.74.94a1.31,1.31,0,0,0,.61-.17Z"/><path class="cls-14" d="M400.77,132a6.08,6.08,0,0,1-3.06.71,4.47,4.47,0,0,1-3.2-1.12,4.08,4.08,0,0,1-1.17-3.09,4.32,4.32,0,0,1,1.28-3.23A4.66,4.66,0,0,1,398,124a6.78,6.78,0,0,1,2.35.37v1.77a4.73,4.73,0,0,0-2.38-.56,2.54,2.54,0,0,0-1.91.77,2.79,2.79,0,0,0-.75,2,2.83,2.83,0,0,0,.67,2,2.34,2.34,0,0,0,1.79.71,2.46,2.46,0,0,0,1.08-.19v-1.64h-1.68v-1.51h3.58Z"/><path class="cls-14" d="M406.13,128.23a1.61,1.61,0,0,0-.78-.18,1.14,1.14,0,0,0-.94.44,1.93,1.93,0,0,0-.34,1.21v2.86h-1.85v-6h1.85v1.12h0a1.6,1.6,0,0,1,1.59-1.22,1.12,1.12,0,0,1,.45.07Z"/><path class="cls-14" d="M412,132.56h-1.76v-.86h0a2,2,0,0,1-1.79,1,1.86,1.86,0,0,1-1.37-.5,1.79,1.79,0,0,1-.5-1.32q0-1.74,2.07-2l1.63-.22c0-.66-.36-1-1.07-1a3.68,3.68,0,0,0-2,.63v-1.39a4.67,4.67,0,0,1,1.06-.35,5.63,5.63,0,0,1,1.22-.15A2.27,2.27,0,0,1,412,129Zm-1.74-2.43v-.41l-1.09.14c-.61.08-.91.35-.91.82a.67.67,0,0,0,.22.51.84.84,0,0,0,.6.21,1.1,1.1,0,0,0,.85-.36A1.31,1.31,0,0,0,410.25,130.13Z"/><path class="cls-14" d="M415.33,131.87h0v3.45h-1.85v-8.76h1.85v.9h0a2.36,2.36,0,0,1,3.73-.24,3.4,3.4,0,0,1,.63,2.17,3.65,3.65,0,0,1-.74,2.41,2.4,2.4,0,0,1-2,.91A1.87,1.87,0,0,1,415.33,131.87Zm-.06-2.47v.48a1.53,1.53,0,0,0,.33,1,1.08,1.08,0,0,0,.86.39,1.15,1.15,0,0,0,1-.49,2.37,2.37,0,0,0,.34-1.38q0-1.59-1.23-1.59a1.19,1.19,0,0,0-.93.43A1.73,1.73,0,0,0,415.27,129.4Z"/><path class="cls-14" d="M426.65,132.56h-1.84v-3.41q0-1.32-1-1.32a1,1,0,0,0-.8.37,1.46,1.46,0,0,0-.31.94v3.42h-1.85v-8.88h1.85v3.77h0a2.1,2.1,0,0,1,1.84-1q2,0,2,2.46Z"/><path class="cls-14" d="M439,132.56h-2.06l-.6-1.87h-3l-.59,1.87h-2.05l3.06-8.4H436Zm-3.1-3.32-.9-2.82a4.51,4.51,0,0,1-.14-.76h-.05a3,3,0,0,1-.14.73l-.92,2.85Z"/><path class="cls-14" d="M441.94,129.67v2.89h-1.89v-8.4h3c2.12,0,3.18.89,3.18,2.68a2.61,2.61,0,0,1-.91,2,3.63,3.63,0,0,1-2.44.78Zm0-4.06v2.62h.74c1,0,1.52-.44,1.52-1.32s-.51-1.3-1.52-1.3Z"/><path class="cls-14" d="M449.31,132.56h-1.89v-8.4h1.89Z"/><path class="cls-12" d="M179.32,9a8.12,8.12,0,0,0,2.74-2.61,7.43,7.43,0,0,0-.37-.81,17.2,17.2,0,0,1-1.88,1.27l-.54-.71a11.62,11.62,0,0,0,2-1.27A9.71,9.71,0,0,0,180,3.37l.58-.54a10.28,10.28,0,0,1,1.31,1.45A11.76,11.76,0,0,0,183.14,3l.72.49A16.56,16.56,0,0,1,182.36,5a7.3,7.3,0,0,1,1,4.12q0,2.16-1.92,2.16l-1.18,0c0-.27-.1-.59-.17-1a9,9,0,0,0,1.29.1c.71,0,1.07-.43,1.1-1.29a6.49,6.49,0,0,0-.15-1.77,9.87,9.87,0,0,1-2.49,2.33Zm.17-7.76h3.22V-.09h.92V1.2h3.21V-.09h.91V1.2H191V2h-3.21v.79h-.91V2h-3.21v.78h-.92V2h-3.22Zm4.26,4.1h2.84c0-.58,0-1.29,0-2.14h.92c0,.67,0,1.39,0,2.14h3.33v.84h-3.26A6,6,0,0,0,191,10.66l-.74.81a6.55,6.55,0,0,1-3.14-4,6.7,6.7,0,0,1-3.29,4.08,8.43,8.43,0,0,0-.6-.77,5.83,5.83,0,0,0,3.31-4.64h-2.78Zm4.42-1.61.47-.6c.64.39,1.21.77,1.73,1.15l-.53.68C189.4,4.56,188.85,4.15,188.17,3.69Z"/><path class="cls-12" d="M191.28,8.7l1.05-.13V1.32h-.88V.5h5.75V.91h5.12v.74a17,17,0,0,1-2,6.37A8.18,8.18,0,0,0,203,10.45a7.94,7.94,0,0,0-.71.86,11.6,11.6,0,0,1-2.47-2.55,12.7,12.7,0,0,1-2.82,2.7c-.22-.3-.42-.54-.59-.74v.72h-.88V8.91c-1.43.22-2.79.44-4.09.66Zm1.93-5.59h2.29V1.32h-2.29Zm0,2.54h2.29V3.86h-2.29Zm2.29,2.47V6.4h-2.29v2Zm1.6-6.41V1.32h-.72V8l1.33-.22q0,.48,0,.81l-1.3.2v1.89A9.86,9.86,0,0,0,199.27,8a14.66,14.66,0,0,1-1.74-6.31Zm4.34,0h-3.06a13.72,13.72,0,0,0,1.43,5.52A16.67,16.67,0,0,0,201.44,1.71Z"/><path class="cls-12" d="M209.85.09l-.22.3a11.21,11.21,0,0,0,5.27,4q-.41.55-.66,1A14.52,14.52,0,0,1,209,1.1a17.08,17.08,0,0,1-5.27,4.32c-.17-.27-.37-.55-.61-.87A13.64,13.64,0,0,0,208.64.09Zm-3.39,7.67c.82.54,1.68,1.11,2.59,1.73.78-.73,1.68-1.63,2.7-2.71h-7.22V5.9h8.53v.88c-1,1-2.06,2.12-3.22,3.23l1.17.82-.72.79c-1.53-1.2-3-2.25-4.45-3.18Zm1.27-4.1.7-.55c.61.6,1.17,1.19,1.67,1.76l-.78.66A19.76,19.76,0,0,0,207.73,3.66Z"/><path class="cls-12" d="M218.89,11.34H218V6.94h-1.27a9.25,9.25,0,0,1-.9,4.57c-.2-.21-.44-.43-.73-.68a8,8,0,0,0,.78-3.94V.38h.85V3.83H218V0h.85V3.83h.86v.72h-2.9V6.22h2.12Zm.38-2.87h1.43a7.31,7.31,0,0,0-.52-.61A4.71,4.71,0,0,0,222,6.43h-1.87V1.2h2c.15-.37.3-.81.46-1.3l.91.28q-.25.57-.48,1h3V6.83h-.82v-.4H223a5.19,5.19,0,0,1-2,2h2.35V7h.85v1.5h2.65v.81h-2.65v2.14h-.85V9.28h-4Zm1.64-5h1.7V2h-1.7Zm1.68.75h-1.68V5.65h1.43A6.56,6.56,0,0,0,222.59,4.18Zm.63,1.47h2V4.18h-1.77A7.88,7.88,0,0,1,223.22,5.65Zm2-3.67h-1.75V3.43h1.75Z"/><path class="cls-12" d="M202.59,35.73c0,.36.06.71.11,1-.58.41-1.22.89-1.91,1.45a6.54,6.54,0,0,0-.59.55l-.63-.7a1.61,1.61,0,0,0,.42-1.15V33.17h-1.5v-.85h2.41V37C201.47,36.61,202,36.18,202.59,35.73Zm-2.92-7.22c.64.63,1.25,1.27,1.81,1.91l-.82.69a22.29,22.29,0,0,0-1.7-2Zm2.46,1.84h3.81a15.26,15.26,0,0,0-.89-1.68l.82-.38c.37.57.68,1.11.94,1.61l-.84.45H210v.84h-5.23V33h4.4c-.09,2.36-.17,4-.26,4.89a1.5,1.5,0,0,1-1.64,1.59c-.58,0-1.21,0-1.9,0,0-.35-.12-.7-.19-1a15.94,15.94,0,0,0,2,.13c.51,0,.79-.29.86-.88.08-.92.16-2.2.22-3.83h-3.46a10.89,10.89,0,0,1-.45,3.15,7.72,7.72,0,0,1-1.94,2.92,4.62,4.62,0,0,0-.75-.69,6.78,6.78,0,0,0,1.81-2.67,11.11,11.11,0,0,0,.38-3.38v-2h-1.7Z"/><path class="cls-12" d="M211,30.64h.91v9.19H211Zm.58-1.72.67-.6c.43.41,1,1,1.7,1.71l-.76.67C212.48,29.92,211.94,29.33,211.54,28.92Zm2.1,3.09h5V36.7h-4.13v.67h-.84Zm4.12.87h-3.28v2.95h3.28ZM214.62,30v-.88h6.71v9.06c0,1.13-.51,1.7-1.54,1.7l-1.92,0a8.26,8.26,0,0,0-.19-1c.65,0,1.28.07,1.88.07s.85-.31.85-.92V30Z"/><path class="cls-12" d="M228.91,28.49l-.22.3a11.21,11.21,0,0,0,5.27,4q-.41.55-.66,1a14.45,14.45,0,0,1-5.2-4.28,17.07,17.07,0,0,1-5.27,4.33c-.17-.27-.37-.56-.61-.87a13.88,13.88,0,0,0,5.48-4.46Zm-3.39,7.67,2.59,1.72q1.17-1.08,2.7-2.7h-7.22V34.3h8.53v.88c-1,1-2.06,2.11-3.22,3.23l1.17.82-.72.79q-2.31-1.8-4.45-3.18Zm1.27-4.1.7-.55c.61.6,1.16,1.19,1.66,1.76l-.77.65A20.94,20.94,0,0,0,226.79,32.06Z"/><path class="cls-12" d="M238,39.74h-.86v-4.4h-1.26a9.24,9.24,0,0,1-.91,4.57,9.84,9.84,0,0,0-.72-.68,8.14,8.14,0,0,0,.77-3.95v-6.5h.86v3.44H237V28.44h.85v3.78h.86V33h-2.89v1.66H238Zm.37-2.88h1.43c-.15-.2-.33-.4-.51-.6a4.87,4.87,0,0,0,1.78-1.43h-1.88V29.6h2c.15-.38.3-.81.46-1.3l.92.28-.49,1h3v5.62h-.82v-.39H242a5.05,5.05,0,0,1-2,2h2.35v-1.5h.85v1.5h2.65v.81H243.2v2.15h-.85V37.67h-4Zm1.64-5h1.7V30.37H240Zm1.68.75H240v1.47h1.43A6,6,0,0,0,241.67,32.58Zm.63,1.47h2V32.58h-1.77A8,8,0,0,1,242.3,34.05Zm2-3.68h-1.75v1.46h1.75Z"/><path class="cls-12" d="M187.32,134.69h-1.17V130.6h-4.6v4.09h-1.17v-9.08h1.17v3.94h4.6v-3.94h1.17Z"/><path class="cls-12" d="M195.11,126.65h-2.62v8h-1.17v-8h-2.61v-1h6.4Z"/><path class="cls-12" d="M202.2,126.65h-2.62v8H198.4v-8h-2.6v-1h6.4Z"/><path class="cls-12" d="M204.73,131.29v3.4h-1.17v-9.08h2.58a3.36,3.36,0,0,1,2.28.71,2.55,2.55,0,0,1,.81,2,2.7,2.7,0,0,1-.95,2.16,3.31,3.31,0,0,1-2.37.78Zm0-4.65v3.62h1.09a2.41,2.41,0,0,0,1.62-.48,1.72,1.72,0,0,0,.56-1.39c0-1.17-.69-1.75-2.07-1.75Z"/><path class="cls-12" d="M214,126.28h2.84v8.1H216v-.9h-1.2v1.07H214Zm2,.81h-1.2v5.59H216Zm1.76-.73h2.06c.22-.56.41-1.1.58-1.64l.95.22c-.2.49-.4,1-.61,1.42h3.48v8.44c0,.88-.4,1.33-1.21,1.33h-1.47c0-.28-.09-.58-.16-.91.53.05,1,.07,1.39.07s.63-.25.63-.74v-7.39h-4.82v9.14h-.82Zm1.68,2.34h3.1v4.6h-2.3v.51h-.8Zm2.3.73h-1.5v3.14h1.5Z"/><path class="cls-12" d="M230.74,125.06l.85-.46a15,15,0,0,1,1,1.4l-.57.32h4.75v.89h-9.13v2.88q0,4.14-1.71,6.2a7.69,7.69,0,0,0-.68-.81q1.41-1.57,1.41-5.37v-3.79h5A12.54,12.54,0,0,0,230.74,125.06Zm-3.2,9.64H233a55.08,55.08,0,0,0,1.94-6.4l1,.29q-1.09,3.85-1.95,6.11h2.9v.89h-9.33Zm.63-5.75.89-.31c.49,1.43,1,3,1.41,4.79l-1,.3Q228.93,131.41,228.17,129Zm2.83-.59.9-.25a45,45,0,0,1,1.08,4.72l-1,.27C231.72,131.55,231.4,130,231,128.36Z"/></g></svg>